<svg xmlns="http://www.w3.org/2000/svg" xmlns:xlink="http://www.w3.org/1999/xlink" version="1.1" id="Layer_1" x="0px" y="0px" width="100px" height="100px" viewBox="0.0 -0.0 100.0 100.0" enable-background="new 0 0 100 100" xml:space="preserve">
<g>
	<path d="M-2567,38.378c0.007-0.068,0.021-0.134,0.021-0.204c0-0.638-0.299-1.207-0.764-1.573l-1.642-1.642l-12.338-12.379   c-0.375-0.376-0.88-0.583-1.417-0.588l-27.859,0.015c-1.104,0-1.999,0.896-1.999,2v52c0,1.104,0.896,2,2,2h42   c0.007,0,0.014,0,0.02,0c1.104,0,2-0.896,2-2c0-0.096-0.007-0.191-0.02-0.284L-2567,38.378z M-2573.828,36.174h-7.338v-7.338   L-2573.828,36.174z M-2609,74.007V26.006l23.834-0.013v12.181c0,1.104,0.896,2,2,2H-2571l0,33.833H-2609z"/>
	<path d="M-2603.083,51.174h26.167c1.105,0,2-0.896,2-2s-0.895-2-2-2h-26.167c-1.104,0-2,0.896-2,2   S-2604.188,51.174-2603.083,51.174z"/>
	<path d="M-2576.917,54.674h-26.167c-1.104,0-2,0.896-2,2s0.896,2,2,2h26.167c1.105,0,2-0.896,2-2S-2575.812,54.674-2576.917,54.674   z"/>
	<path d="M-2576.917,62.008h-26.167c-1.104,0-2,0.896-2,2s0.896,2,2,2h26.167c1.105,0,2-0.896,2-2S-2575.812,62.008-2576.917,62.008   z"/>
</g>
<g>
	<path d="M-2447,38.377c0.007-0.068,0.021-0.133,0.021-0.203c0-0.638-0.299-1.207-0.764-1.573l-1.642-1.642l-12.338-12.379   c-0.375-0.377-0.853-0.574-1.417-0.588l-27.859,0.015c-1.104,0-1.999,0.896-1.999,2v52c0,1.104,0.896,2,2,2h42   c0.007,0,0.013,0,0.02,0c1.104,0,2-0.896,2-2c0-0.097-0.007-0.191-0.02-0.284L-2447,38.377z M-2453.828,36.174h-7.338v-7.338   L-2453.828,36.174z M-2489,74.007V26.006l23.834-0.013v12.181c0,1.104,0.896,2,2,2H-2451l0,33.833H-2489z"/>
	<path d="M-2467.172,56.174l7.838-7.837c0.781-0.781,0.781-2.047,0-2.829c-0.781-0.781-2.047-0.781-2.828,0l-7.838,7.838   l-7.838-7.838c-0.781-0.781-2.047-0.781-2.828,0c-0.781,0.781-0.781,2.047,0,2.829l7.837,7.837l-7.837,7.837   c-0.781,0.781-0.781,2.047,0,2.829c0.391,0.391,0.902,0.586,1.414,0.586s1.023-0.195,1.414-0.586l7.837-7.837l7.837,7.837   c0.391,0.391,0.902,0.586,1.414,0.586s1.023-0.195,1.414-0.586c0.781-0.781,0.781-2.047,0-2.829L-2467.172,56.174z"/>
</g>
<g>
	<path d="M-2322.208,57.75h-16.042v-15.5h16.042c1.104,0,2-0.896,2-2s-0.896-2-2-2h-16.042V22.208c0-1.104-0.896-2-2-2s-2,0.896-2,2   V38.25h-15.5V22.208c0-1.104-0.896-2-2-2s-2,0.896-2,2V38.25h-16.042c-1.104,0-2,0.896-2,2s0.896,2,2,2h16.042v15.5h-16.042   c-1.104,0-2,0.896-2,2s0.896,2,2,2h16.042v16.042c0,1.104,0.896,2,2,2s2-0.896,2-2V61.75h15.5v16.042c0,1.104,0.896,2,2,2   s2-0.896,2-2V61.75h16.042c1.104,0,2-0.896,2-2S-2321.104,57.75-2322.208,57.75z M-2357.75,57.75v-15.5h15.5v15.5H-2357.75z"/>
	<path d="M-2371.367,63.651c-4.205,0-7.625,3.42-7.625,7.625s3.42,7.625,7.625,7.625s7.625-3.42,7.625-7.625   S-2367.163,63.651-2371.367,63.651z M-2371.367,74.901c-1.999,0-3.625-1.626-3.625-3.625s1.626-3.625,3.625-3.625   s3.625,1.626,3.625,3.625S-2369.368,74.901-2371.367,74.901z"/>
	<path d="M-2347.456,50.089l2.387-2.387c0.781-0.781,0.781-2.047,0-2.828c-0.781-0.781-2.047-0.781-2.828,0l-2.387,2.387   l-2.387-2.387c-0.781-0.781-2.047-0.781-2.828,0c-0.781,0.781-0.781,2.047,0,2.828l2.387,2.387l-2.387,2.387   c-0.781,0.781-0.781,2.047,0,2.828c0.39,0.391,0.902,0.586,1.414,0.586s1.024-0.195,1.414-0.586l2.387-2.387l2.387,2.387   c0.39,0.391,0.902,0.586,1.414,0.586s1.024-0.195,1.414-0.586c0.781-0.781,0.781-2.047,0-2.828L-2347.456,50.089z"/>
	<path d="M-2324.944,44.749c-0.781-0.781-2.047-0.781-2.828,0l-2.387,2.387l-2.387-2.387c-0.781-0.781-2.047-0.781-2.828,0   c-0.781,0.781-0.781,2.047,0,2.828l2.387,2.387l-2.387,2.387c-0.781,0.781-0.781,2.047,0,2.828c0.39,0.391,0.902,0.586,1.414,0.586   s1.024-0.195,1.414-0.586l2.387-2.387l2.387,2.387c0.39,0.391,0.902,0.586,1.414,0.586s1.024-0.195,1.414-0.586   c0.781-0.781,0.781-2.047,0-2.828l-2.387-2.387l2.387-2.387C-2324.163,46.796-2324.163,45.53-2324.944,44.749z"/>
	<path d="M-2328.742,36.276c4.205,0,7.625-3.42,7.625-7.625s-3.42-7.625-7.625-7.625s-7.625,3.42-7.625,7.625   S-2332.947,36.276-2328.742,36.276z M-2328.742,25.026c1.999,0,3.625,1.626,3.625,3.625s-1.626,3.625-3.625,3.625   s-3.625-1.626-3.625-3.625S-2330.741,25.026-2328.742,25.026z"/>
</g>
<path d="M-2201.034,44.914l-8.688-4.918v-11.33c0-1.104-0.896-2-2-2h-7.334c-1.103,0-1.998,0.893-2,1.995l-0.012,4.909l-7.958-4.519  c-0.612-0.348-1.363-0.348-1.976,0l-15.463,8.79l-12.502,7.077c-0.961,0.544-1.299,1.765-0.755,2.726  c0.368,0.65,1.045,1.015,1.743,1.015c0.333,0,0.672-0.084,0.983-0.26l1.442-0.816v23.75c0,1.104,0.896,2,2,2h47.106  c1.104,0,2-0.896,2-2V47.579l1.442,0.816c0.312,0.176,0.65,0.26,0.983,0.26c0.697,0,1.375-0.365,1.743-1.015  C-2199.734,46.679-2200.073,45.458-2201.034,44.914z M-2213.722,30.667v7.065l-3.351-1.896l0.012-5.169H-2213.722z M-2234.25,69.333  V51.166h8.5v18.167H-2234.25z M-2208.447,69.333h-13.303V49.166c0-1.104-0.896-2-2-2h-12.5c-1.104,0-2,0.896-2,2v20.167h-13.303  V45.336l6.792-3.861l14.765-8.357l9.007,5.099l0.833,0.473c0.035,0.022,0.062,0.054,0.098,0.074l4.616,2.603l6.995,3.972V69.333z"/>
<g>
	<path d="M-2082.088,19.841h-10.5c-1.104,0-2,0.896-2,2s0.896,2,2,2h5.687l-35.067,35.068h-9.692c-1.104,0-2,0.896-2,2s0.896,2,2,2   h8.5v8.5c0,1.104,0.896,2,2,2s2-0.896,2-2v-9.652l35.073-35.073v5.657c0,1.104,0.896,2,2,2s2-0.896,2-2v-10.5   C-2080.088,20.736-2080.984,19.841-2082.088,19.841z"/>
	<path d="M-2127.411,65.659h-10.5c-1.104,0-2,0.896-2,2s0.896,2,2,2h8.5v8.5c0,1.104,0.896,2,2,2s2-0.896,2-2v-10.5   C-2125.411,66.554-2126.307,65.659-2127.411,65.659z"/>
</g>
<path d="M-1965.581,39.546c-1.033-5.128-5.394-9.603-10.368-10.638c-4.889-1.018-10.566-0.081-13.884,3.869  c-3.317-3.95-8.995-4.887-13.884-3.869c-4.975,1.036-9.335,5.51-10.369,10.638c-3.93,19.493,23.047,31.646,23.321,31.764  c0.256,0.11,0.523,0.162,0.786,0.162c0.05,0,0.096-0.018,0.146-0.021c0.049,0.003,0.095,0.021,0.145,0.021  c0.263,0,0.53-0.052,0.787-0.162C-1988.628,71.192-1961.65,59.038-1965.581,39.546z M-1989.832,67.321  c-3.9-1.942-23.274-12.394-20.333-26.985c0.72-3.57,3.843-6.8,7.264-7.512c4.343-0.904,9.481,0.159,11.194,4.564  c0.176,0.475,0.528,0.877,1.013,1.108c0.024,0.012,0.047,0.025,0.072,0.036c0.023,0.01,0.042,0.024,0.066,0.034  c0.06,0.023,0.12,0.032,0.18,0.049c0.047,0.013,0.093,0.028,0.142,0.038c0.073,0.015,0.145,0.022,0.218,0.029  c0.061,0.006,0.121,0.012,0.183,0.012s0.122-0.006,0.182-0.012c0.073-0.006,0.146-0.014,0.219-0.029  c0.048-0.01,0.094-0.024,0.141-0.038c0.06-0.017,0.121-0.026,0.181-0.049c0.024-0.009,0.043-0.024,0.067-0.034  c0.024-0.011,0.047-0.024,0.071-0.036c0.486-0.231,0.838-0.633,1.014-1.109c1.712-4.405,6.85-5.468,11.194-4.564  c3.421,0.712,6.543,3.942,7.263,7.513C-1966.555,54.951-1986.001,65.415-1989.832,67.321z"/>
<path d="M-1850.159,61.431c-1.104,0-2,0.896-2,2v3.452l-4.694-4.694c4.752-4.363,8.888-10.49,7.373-18.005  c-0.846-4.198-4.418-7.861-8.495-8.71c-3.838-0.799-8.267-0.103-11.021,2.838c-2.753-2.94-7.182-3.637-11.02-2.838  c-0.906,0.188-1.785,0.523-2.617,0.965l-3.552-3.583v-7.454c0-1.104-0.896-2-2-2s-2,0.896-2,2v6.269h-6.269c-1.104,0-2,0.896-2,2  s0.896,2,2,2h7.428l3.228,3.257c-1.34,1.488-2.322,3.313-2.713,5.257c-3.145,15.596,18.39,25.391,18.608,25.485  c0.258,0.112,0.528,0.165,0.792,0.165c0.039,0,0.076-0.014,0.114-0.017c0.039,0.002,0.076,0.017,0.115,0.017  c0.269,0,0.542-0.055,0.804-0.169c0.091-0.04,3.934-1.769,8.13-4.914l4.949,4.949h-3.429c-1.104,0-2,0.896-2,2s0.896,2,2,2h8.269  c1.104,0,2-0.896,2-2v-8.269C-1848.159,62.326-1849.054,61.431-1850.159,61.431z M-1868.995,65.664  c-3.387-1.713-17.808-9.713-15.595-20.69c0.535-2.655,2.853-5.056,5.39-5.584c3.249-0.677,7.086,0.097,8.338,3.347  c0.138,0.361,0.378,0.678,0.702,0.91c0.009,0.006,0.018,0.015,0.027,0.021c0.079,0.054,0.165,0.1,0.253,0.143  c0.034,0.017,0.067,0.036,0.102,0.051c0.021,0.009,0.04,0.022,0.062,0.031c0.055,0.021,0.111,0.029,0.166,0.045  c0.052,0.015,0.104,0.032,0.158,0.043c0.07,0.014,0.14,0.021,0.21,0.028c0.062,0.006,0.124,0.012,0.187,0.012  c0.062,0,0.124-0.006,0.186-0.012c0.071-0.007,0.14-0.014,0.21-0.028c0.054-0.011,0.105-0.028,0.158-0.043  c0.056-0.016,0.111-0.024,0.166-0.045c0.022-0.008,0.04-0.022,0.062-0.031c0.035-0.015,0.067-0.035,0.102-0.051  c0.088-0.043,0.174-0.089,0.253-0.143c0.01-0.007,0.018-0.015,0.027-0.021c0.324-0.232,0.563-0.549,0.701-0.91  c1.252-3.25,5.09-4.023,8.339-3.347c2.538,0.528,4.854,2.929,5.389,5.584c1.164,5.772-2.279,10.724-6.295,14.371l-5.858-5.858  c-0.781-0.781-2.047-0.781-2.828,0c-0.781,0.781-0.781,2.047,0,2.828l5.561,5.561C-1865.439,63.782-1867.854,65.087-1868.995,65.664  z"/>
<g>
	<path d="M-1725.748,39.545c-1.034-5.128-5.394-9.602-10.368-10.638c-4.889-1.018-10.566-0.081-13.884,3.869   c-3.318-3.95-8.996-4.887-13.884-3.869c-4.975,1.036-9.335,5.51-10.369,10.638c-3.93,19.493,23.047,31.646,23.321,31.764   c0.257,0.11,0.523,0.162,0.786,0.162c0.049,0,0.096-0.017,0.146-0.021c0.049,0.003,0.095,0.021,0.145,0.021   c0.263,0,0.53-0.052,0.787-0.162C-1748.795,71.192-1721.817,59.038-1725.748,39.545z M-1749.999,67.321   c-3.899-1.941-23.274-12.394-20.333-26.985c0.72-3.57,3.842-6.8,7.264-7.513c4.343-0.904,9.483,0.159,11.195,4.566   c0.176,0.475,0.528,0.875,1.012,1.105c0.025,0.012,0.048,0.026,0.073,0.037c0.023,0.01,0.042,0.024,0.066,0.033   c0.059,0.023,0.12,0.032,0.18,0.049c0.047,0.014,0.094,0.029,0.142,0.039c0.073,0.015,0.145,0.022,0.217,0.028   c0.062,0.006,0.122,0.012,0.184,0.012c0.061,0,0.121-0.006,0.181-0.012c0.073-0.006,0.146-0.014,0.219-0.029   c0.048-0.01,0.094-0.025,0.141-0.038c0.06-0.017,0.121-0.026,0.181-0.049c0.024-0.009,0.043-0.023,0.066-0.034   c0.025-0.011,0.048-0.024,0.072-0.036c0.485-0.231,0.837-0.632,1.013-1.107c1.711-4.406,6.851-5.469,11.194-4.565   c3.42,0.712,6.543,3.942,7.263,7.513C-1726.722,54.95-1746.167,65.414-1749.999,67.321z"/>
	<circle cx="-1759.429" cy="46.069" r="3.25"/>
	<circle cx="-1740.742" cy="46.069" r="3.25"/>
	<path d="M-1745.711,53.651c-4.115,3.967-7.851,0.722-8.559,0.029c-0.781-0.774-2.042-0.772-2.821,0.005   c-0.782,0.78-0.783,2.047-0.002,2.829c1.417,1.419,4.101,3.08,7.233,3.08c2.183,0,4.584-0.807,6.925-3.063   c0.795-0.767,0.818-2.033,0.052-2.828C-1743.649,52.907-1744.916,52.884-1745.711,53.651z"/>
</g>
<path d="M-1605.748,39.545c-1.034-5.128-5.394-9.603-10.368-10.638c-4.889-1.018-10.567-0.081-13.884,3.869  c-3.318-3.95-8.996-4.887-13.884-3.869c-4.975,1.036-9.335,5.51-10.369,10.638c-3.93,19.493,23.047,31.646,23.321,31.764  c0.257,0.11,0.523,0.162,0.786,0.162c0.05,0,0.096-0.018,0.146-0.021c0.049,0.003,0.095,0.021,0.145,0.021  c0.263,0,0.53-0.052,0.787-0.162C-1628.795,71.192-1601.817,59.038-1605.748,39.545z M-1629.999,67.32  c-3.899-1.941-23.273-12.394-20.333-26.985c0.72-3.57,3.842-6.8,7.264-7.512c4.212-0.877,9.165,0.105,11.022,4.185l-0.044,6.477  l-3.17,3.17c-0.726,0.726-0.785,1.883-0.135,2.679l5.715,7.003l-3.545,3.102c-0.832,0.728-0.916,1.991-0.188,2.822  c0.395,0.452,0.949,0.683,1.506,0.683c0.467,0,0.937-0.163,1.316-0.495l5-4.375c0.811-0.71,0.914-1.935,0.232-2.77l-5.794-7.1  l2.472-2.472c0.372-0.372,0.582-0.875,0.586-1.4l0.049-7.119c1.78-4.255,6.832-5.283,11.116-4.391  c3.42,0.712,6.543,3.942,7.263,7.513C-1606.722,54.95-1626.167,65.415-1629.999,67.32z"/>
<g>
	<path d="M-1485.162,33.735c-0.03-0.854-0.599-1.594-1.416-1.843l-22.818-6.951c-0.38-0.116-0.785-0.116-1.165,0l-22.819,6.951   c-0.308,0.094-0.563,0.273-0.786,0.486c-0.067,0.061-0.137,0.118-0.196,0.187c-0.019,0.024-0.034,0.05-0.051,0.075   c-0.267,0.345-0.426,0.767-0.426,1.214v30.62c0,0.83,0.513,1.574,1.289,1.869l22.799,8.671c0.042,0.016,0.086,0.023,0.13,0.036   c0.009,0.003,0.019,0.005,0.028,0.008c0.182,0.052,0.367,0.086,0.553,0.086c0.003,0,0.007-0.001,0.01-0.001s0.007,0.001,0.01,0.001   c0.186,0,0.371-0.034,0.553-0.086c0.009-0.003,0.019-0.005,0.028-0.008c0.043-0.013,0.087-0.02,0.13-0.036l22.799-8.671   c0.776-0.295,1.289-1.039,1.289-1.869V34.22C-1485.188,34.062-1485.156,33.902-1485.162,33.735z M-1509.979,28.945l16.666,5.077   l-3.784,1.45l-12.931,4.918l-16.617-6.368L-1509.979,28.945z M-1512.041,70.246l-18.799-7.149V36.755l18.799,7.149V70.246z    M-1489.221,63.096l-18.799,7.149V43.941l12.508-4.793l6.291-2.393V63.096z"/>
	<path d="M-1525.866,45.846l5.833,2.25c0.237,0.091,0.48,0.134,0.719,0.134c0.803,0,1.561-0.487,1.866-1.281   c0.398-1.03-0.115-2.188-1.146-2.586l-5.833-2.25c-1.031-0.397-2.188,0.116-2.585,1.146   C-1527.41,44.29-1526.896,45.448-1525.866,45.846z"/>
</g>
<g>
	<path d="M-1376.462,36.708c0-3.019-1.176-5.858-3.312-7.993c-2.135-2.135-4.974-3.311-7.994-3.311c-3.019,0-5.857,1.176-7.991,3.31   l-16.473,16.473c-2.135,2.135-3.312,4.974-3.312,7.993s1.176,5.858,3.312,7.994c2.135,2.135,4.974,3.311,7.993,3.311   c3.02,0,5.858-1.176,7.992-3.311l16.473-16.472C-1377.637,42.567-1376.461,39.729-1376.462,36.708z M-1399.074,58.346   c-1.379,1.38-3.212,2.139-5.164,2.139c-1.951,0-3.785-0.76-5.165-2.139c-1.379-1.38-2.14-3.214-2.14-5.166s0.76-3.785,2.14-5.165   l6.069-6.069c0.015,0.002,0.029,0.008,0.045,0.01c0.278,0.034,4.64,0.627,7.899,3.428l-2.911,2.759   c-0.802,0.76-0.835,2.026-0.076,2.828c0.394,0.415,0.922,0.624,1.452,0.624c0.494,0,0.989-0.182,1.375-0.548l2.638-2.5   c0.404,0.814,0.706,1.73,0.881,2.754L-1399.074,58.346z M-1382.601,41.874l-6.166,6.166c-0.316-0.838-0.704-1.613-1.15-2.331   l6.368-6.036c0.802-0.76,0.835-2.026,0.076-2.828c-0.76-0.802-2.026-0.835-2.828-0.076l-6.197,5.874   c-2.292-2.073-5.062-3.365-7.471-4.062l7.039-7.039c1.378-1.379,3.211-2.138,5.162-2.138c1.952,0,3.786,0.76,5.166,2.139   c1.38,1.38,2.14,3.214,2.14,5.166C-1380.461,38.66-1381.221,40.494-1382.601,41.874z"/>
	<path d="M-1375.487,52.539c-6.081,0-11.028,4.947-11.028,11.028c0,6.082,4.947,11.029,11.028,11.029   c6.082,0,11.029-4.948,11.029-11.029C-1364.458,57.486-1369.406,52.539-1375.487,52.539z M-1375.487,56.539   c0.882,0,1.723,0.17,2.501,0.468l-8.588,10.06c-0.596-1.032-0.942-2.225-0.942-3.5   C-1382.516,59.691-1379.363,56.539-1375.487,56.539z M-1375.487,70.596c-1.146,0-2.226-0.282-3.183-0.771l8.863-10.382   c0.844,1.16,1.349,2.582,1.349,4.124C-1368.458,67.443-1371.611,70.596-1375.487,70.596z"/>
</g>
<path d="M-1250.649,56.749c-0.927-0.601-2.165-0.336-2.766,0.591c-4.819,7.438-9.782,11.65-14.801,12.605v-18.61h10.769  c1.104,0,2-0.896,2-2s-0.896-2-2-2h-10.769v-7.404c2.996-0.869,5.194-3.633,5.194-6.905c0-3.967-3.227-7.194-7.194-7.194  c-3.966,0-7.193,3.228-7.193,7.194c0,3.272,2.198,6.035,5.193,6.905v7.404h-10.769c-1.104,0-2,0.896-2,2s0.896,2,2,2h10.769v18.692  c-0.01-0.001-0.021-0.002-0.031-0.003c-7.759-1.224-13.43-9.826-14.085-12.27c-0.286-1.067-1.382-1.7-2.45-1.414  c-1.067,0.286-1.7,1.383-1.414,2.45c0.96,3.581,7.742,13.672,17.326,15.185c0.842,0.133,1.68,0.199,2.513,0.199  c7.171,0,13.989-4.919,20.3-14.66C-1249.457,58.588-1249.722,57.349-1250.649,56.749z M-1273.409,33.027  c0-1.761,1.433-3.194,3.193-3.194c1.761,0,3.194,1.433,3.194,3.194c0,1.761-1.433,3.193-3.194,3.193  C-1271.977,36.22-1273.409,34.788-1273.409,33.027z"/>
<path d="M-1150,29.844c-11.114,0-20.155,9.042-20.155,20.156s9.042,20.156,20.155,20.156c11.114,0,20.156-9.042,20.156-20.156  S-1138.886,29.844-1150,29.844z M-1133.844,50c0,2.384-0.532,4.641-1.463,6.68L-1148,47.937V33.981  C-1140.034,34.971-1133.844,41.771-1133.844,50z M-1152,33.981v13.957l-12.692,8.742c-0.931-2.039-1.463-4.296-1.463-6.68  C-1166.155,41.771-1159.966,34.971-1152,33.981z M-1162.595,60.093l10.595-7.298v13.224  C-1156.271,65.488-1160.027,63.292-1162.595,60.093z M-1148,66.019V52.794l10.596,7.298  C-1139.973,63.292-1143.729,65.488-1148,66.019z"/>
<g>
	<path d="M-1014.189,30.424h-29.918c-4.132,0-7.493,3.361-7.493,7.493v20.207c0,4.132,3.361,7.493,7.493,7.493h17.87l6.866,10.719   c0.375,0.584,1.015,0.921,1.684,0.921c0.185,0,0.372-0.025,0.557-0.079c0.851-0.247,1.438-1.024,1.443-1.91l0.054-9.651h1.444   c4.132,0,7.493-3.361,7.493-7.493V37.917C-1006.696,33.785-1010.058,30.424-1014.189,30.424z M-1010.696,58.124   c0,1.926-1.567,3.493-3.493,3.493h-3.433c-1.1,0-1.994,0.889-2,1.989l-0.027,4.879l-3.809-5.947   c-0.368-0.574-1.002-0.921-1.684-0.921h-18.964c-1.926,0-3.493-1.567-3.493-3.493V37.917c0-1.926,1.567-3.493,3.493-3.493h29.918   c1.926,0,3.493,1.567,3.493,3.493V58.124z"/>
	<circle cx="-1038.773" cy="47.424" r="2.833"/>
	<circle cx="-1029.148" cy="47.424" r="2.833"/>
	<circle cx="-1019.524" cy="47.424" r="2.833"/>
</g>
<path d="M-884.587,36.359h-12.082V31.03c0-4.167-3.391-7.557-7.558-7.557h-30.268c-4.167,0-7.557,3.39-7.557,7.557v20.444  c0,4.167,3.39,7.557,7.557,7.557h1.485l0.054,9.788c0.005,0.886,0.592,1.663,1.443,1.91c0.184,0.054,0.372,0.079,0.557,0.079  c0.669,0,1.31-0.337,1.684-0.921l6.953-10.855h5.831v1.028c0,3.66,2.978,6.638,6.639,6.638h14.919l5.706,8.908  c0.375,0.584,1.015,0.921,1.684,0.921c0.185,0,0.373-0.025,0.557-0.079c0.851-0.247,1.438-1.024,1.443-1.91l0.043-7.84h0.91  c3.66,0,6.638-2.978,6.638-6.638V42.997C-877.949,39.337-880.927,36.359-884.587,36.359z M-923.413,55.031  c-0.682,0-1.316,0.347-1.684,0.921l-3.896,6.083l-0.027-5.015c-0.006-1.1-0.9-1.989-2-1.989h-3.474  c-1.961,0-3.557-1.596-3.557-3.557V31.03c0-1.961,1.595-3.557,3.557-3.557h30.268c1.962,0,3.558,1.596,3.558,3.557v5.329h-9.18  c-3.661,0-6.639,2.978-6.639,6.638v12.034H-923.413z M-881.949,60.06c0,1.455-1.183,2.638-2.638,2.638h-2.899  c-1.101,0-1.994,0.889-2,1.989l-0.017,3.067l-2.649-4.135c-0.368-0.574-1.002-0.921-1.684-0.921h-16.013  c-1.455,0-2.639-1.183-2.639-2.638V42.997c0-1.455,1.184-2.638,2.639-2.638h25.262c1.455,0,2.638,1.183,2.638,2.638V60.06z"/>
<path d="M-763.125,57.759c0-2.891-1.271-5.501-3.304-7.371v-4.427c0-5.539-4.912-10.045-10.949-10.045h-3.951l4.734-4.411  c0.808-0.753,0.853-2.019,0.1-2.827s-2.019-0.853-2.827-0.1l-7.333,6.833c-0.16,0.149-0.282,0.323-0.382,0.505h-4.572  c-6.038,0-10.95,4.506-10.95,10.045v1.52h-3.471c-5.98,0-10.845,4.611-10.845,10.278c0,4.02,2.455,7.493,6.013,9.179  c0.829,2.894,3.493,5.021,6.649,5.021c2.74,0,5.106-1.605,6.227-3.921h17.916c1.12,2.316,3.487,3.921,6.227,3.921  c3.643,0,6.63-2.831,6.895-6.407C-764.618,63.666-763.125,60.882-763.125,57.759z M-770.429,45.961v2.094  c-1.112-0.366-2.3-0.574-3.542-0.574h-9.19v-7.565h5.783C-773.546,39.916-770.429,42.628-770.429,45.961z M-798.559,45.961  c0-3.333,3.118-6.045,6.95-6.045h4.448v7.565h-11.397V45.961z M-806.03,51.481h32.059c3.775,0,6.846,2.816,6.846,6.278  c0,1.221-0.384,2.361-1.044,3.326c-1.252-1.792-3.327-2.968-5.673-2.968c-3.475,0-6.353,2.578-6.84,5.92h-16.69  c-0.488-3.343-3.365-5.92-6.84-5.92c-2.88,0-5.353,1.77-6.394,4.278c-1.384-1.148-2.269-2.792-2.269-4.636  C-812.875,54.297-809.804,51.481-806.03,51.481z M-804.212,67.958c-1.611,0-2.921-1.31-2.921-2.92s1.31-2.921,2.921-2.921  c1.61,0,2.92,1.311,2.92,2.921S-802.602,67.958-804.212,67.958z M-773.842,67.958c-1.611,0-2.921-1.31-2.921-2.92  s1.31-2.921,2.921-2.921s2.921,1.311,2.921,2.921S-772.231,67.958-773.842,67.958z"/>
<g>
	<g>
		<path d="M-642.867,70.083h-54.267c-1.104,0-2-0.896-2-2V31.917c0-1.104,0.896-2,2-2h54.267c1.104,0,2,0.896,2,2v36.167    C-640.867,69.188-641.762,70.083-642.867,70.083z M-695.133,66.083h50.267V33.917h-50.267V66.083z"/>
	</g>
	<g>
		<g>
			<path d="M-672.8,44.875h-17.1c-1.104,0-2-0.896-2-2s0.896-2,2-2h17.1c1.104,0,2,0.896,2,2S-671.696,44.875-672.8,44.875z"/>
		</g>
		<g>
			<path d="M-672.8,52.375h-17.1c-1.104,0-2-0.896-2-2s0.896-2,2-2h17.1c1.104,0,2,0.896,2,2S-671.696,52.375-672.8,52.375z"/>
		</g>
		<g>
			<path d="M-672.8,59.709h-17.1c-1.104,0-2-0.896-2-2s0.896-2,2-2h17.1c1.104,0,2,0.896,2,2S-671.696,59.709-672.8,59.709z"/>
		</g>
	</g>
	<g>
		<circle cx="-656.675" cy="44.792" r="4.751"/>
	</g>
	<g>
		<path d="M-648.745,59.5c0.002-0.068,0.011-0.135,0.011-0.204c0-4.386-3.556-7.941-7.941-7.941s-7.941,3.555-7.941,7.941    c0,0.069,0.009,0.135,0.01,0.204H-648.745z"/>
	</g>
</g>
<g>
	<path fill="#000000" d="M915.005,69.116c-0.498-2.042-1.923-3.277-2.382-3.548c-0.455-0.27-1.122-0.413-1.929-0.413   c-1.021,0-2.181,0.226-3.185,0.617c-0.025,0.01-0.047,0.018-0.071,0.028c-0.471,0.2-0.976,0.301-1.502,0.301   c-0.72,0-1.282-0.187-1.49-0.27l-0.049-0.02c-1.026-0.414-2.247-0.657-3.284-0.657c-0.807,0-1.475,0.143-1.93,0.413   c-0.459,0.271-1.882,1.507-2.382,3.548c-0.402,1.645-0.072,3.337,0.982,5.031c1.702,2.733,2.303,3.898,2.625,4.524   c0.241,0.466,0.298,0.577,0.551,0.843c0.276,0.288,1.256,1.039,2.465,1.039c0.76,0,1.492-0.298,2.176-0.88l0.304-0.258l0.303,0.258   c0.685,0.583,1.418,0.879,2.178,0.88h0.001c1.206,0,2.187-0.751,2.463-1.039c0.253-0.266,0.312-0.376,0.551-0.843   c0.323-0.626,0.924-1.792,2.626-4.524C915.077,72.453,915.407,70.761,915.005,69.116z"/>
	<path fill="#000000" d="M906.699,64.701l0.011-0.012c0,0,6.714,0.906,5.564-7.815l-0.01,0.013   C903.648,58.652,906.699,64.701,906.699,64.701z"/>
	<path fill="#000000" d="M900.496,61.489l0.007,0.006c0.935,4.557,4.134,2.944,4.134,2.944l-0.007-0.005   C904.631,64.434,905.111,60.879,900.496,61.489z"/>
	<circle fill="#000000" cx="887.703" cy="23.716" r="2.014"/>
	<path fill="#000000" d="M891.561,44.833h-11.599c-0.655,0-1.188,0.47-1.188,1.046c0,0.576,0.534,1.045,1.188,1.045h11.599   c0.654,0,1.187-0.469,1.187-1.045C892.748,45.303,892.215,44.833,891.561,44.833z"/>
	<path fill="#000000" d="M891.561,48.505h-11.599c-0.655,0-1.188,0.468-1.188,1.046c0,0.576,0.534,1.045,1.188,1.045h11.599   c0.654,0,1.187-0.469,1.187-1.045C892.748,48.973,892.215,48.505,891.561,48.505z"/>
	<path fill="#000000" d="M891.56,41.17h-11.598c-0.655,0-1.188,0.469-1.188,1.044c0,0.578,0.534,1.047,1.188,1.047h11.598   c0.655,0,1.188-0.469,1.188-1.047C892.748,41.639,892.215,41.17,891.56,41.17z"/>
	<path fill="#000000" d="M896.633,41.37c0-0.33-0.27-0.599-0.6-0.599h-1.689c-0.331,0-0.599,0.269-0.599,0.599v1.69   c0,0.331,0.269,0.601,0.599,0.601h1.689c0.33,0,0.6-0.27,0.6-0.601V41.37z M895.923,42.949h-1.469v-1.468h1.469V42.949z"/>
	<path fill="#000000" d="M896.633,45.08c0-0.331-0.27-0.6-0.6-0.6h-1.689c-0.331,0-0.599,0.269-0.599,0.6v1.689   c0,0.332,0.269,0.601,0.599,0.601h1.689c0.33,0,0.6-0.269,0.6-0.601V45.08z M895.923,46.659h-1.469v-1.47h1.469V46.659z"/>
	<path fill="#000000" d="M896.033,48.106h-1.689c-0.331,0-0.599,0.269-0.599,0.6v1.689c0,0.331,0.269,0.6,0.599,0.6h1.689   c0.33,0,0.6-0.269,0.6-0.6v-1.689C896.633,48.375,896.363,48.106,896.033,48.106z M895.923,50.285h-1.469v-1.47h1.469V50.285z"/>
	<path fill="#000000" d="M895.665,72.364h-22.317c-1.039,0-1.885-1.031-1.885-2.298V32.008c0-1.267,0.846-2.295,1.885-2.295h5.426   v1.894h-1.342c-2.178,0-3.952,1.906-3.952,4.245v27.234c0,2.341,1.774,4.244,3.952,4.244l13.205,0.054c0,0,0.984-0.057,1.389-0.46   l9.439-9.438c0.363-0.362,0.463-1.269,0.463-1.269V35.852c0-2.339-1.773-4.245-3.952-4.245h-1.343v2.603h1.343   c0.744,0,1.351,0.737,1.351,1.643v20.412h-3.994c-2.341,0-4.246,1.774-4.246,3.953v4.512h-13.655c-0.744,0-1.35-0.737-1.35-1.642   V35.852c0-0.906,0.606-1.643,1.35-1.643h1.342v2.185c0,1.082,0.693,1.897,1.61,1.897h14.64c0.917,0,1.61-0.815,1.61-1.897v-6.681   h5.425c1.041,0,1.886,1.028,1.886,2.295V60.79c0.237,0.148,0.449,0.319,0.631,0.528c0.203,0.233,0.347,0.481,0.455,0.729   c-0.061-0.788,0.024-1.712,0.469-2.634c0.43-0.888,1.127-1.636,2.082-2.247V32.008c0-3.271-2.477-5.932-5.523-5.932h-5.425v-1.607   c0-1.08-0.692-1.895-1.61-1.895h-1.515c-0.55-2.701-2.943-4.741-5.804-4.741c-2.86,0-5.254,2.04-5.806,4.741h-1.515   c-0.917,0-1.61,0.814-1.61,1.895v1.607h-5.426c-3.044,0-5.521,2.661-5.521,5.932v38.058c0,3.272,2.477,5.934,5.521,5.934h24.165   c-0.239-0.394-0.508-0.833-0.814-1.326C896.22,73.906,895.876,73.134,895.665,72.364z M892.978,60.22   c0-1.184,1.171-2.147,2.612-2.147h2.618l-5.23,5.231V60.22z M881.145,24.941h3.005v-1.183c0-1.961,1.594-3.556,3.554-3.556   c1.959,0,3.554,1.595,3.554,3.556v1.183h3.006v10.98h-13.119V24.941z"/>
</g>
<g>
	<circle fill="#000000" cx="1009.947" cy="23.671" r="2.072"/>
	<path fill="#000000" d="M1030.395,37.899v-5.698c0-3.364-2.548-6.101-5.681-6.101h-5.581v-1.653c0-1.113-0.713-1.949-1.656-1.949   h-1.559c-0.566-2.779-3.027-4.875-5.97-4.875s-5.404,2.097-5.971,4.875h-1.559c-0.943,0-1.656,0.836-1.656,1.949V26.1h-5.581   c-3.133,0-5.681,2.737-5.681,6.101v39.147c0,3.366,2.548,6.104,5.681,6.104h4.687h20.167h4.688c3.133,0,5.681-2.737,5.681-6.104   V37.899C1030.401,37.899,1030.397,37.899,1030.395,37.899z M1003.201,24.934h3.092v-1.218c0-2.016,1.639-3.656,3.656-3.656   c2.015,0,3.656,1.64,3.656,3.656v1.218h3.09v11.293h-13.495V24.934z M1002.419,38.663h15.059c0.942,0,1.656-0.837,1.656-1.95   v-2.248h1.38c0.766,0,1.389,0.759,1.389,1.69v20.997h-4.107c-2.408,0-4.367,1.824-4.367,4.066v4.641h-14.045   c-0.766,0-1.39-0.759-1.39-1.689V36.155c0-0.931,0.624-1.69,1.39-1.69h1.38v2.248C1000.763,37.826,1001.476,38.663,1002.419,38.663   z M1020.752,59.012l-5.379,5.38v-3.173c0-1.216,1.206-2.207,2.687-2.207H1020.752z M1024.723,73.711h-6.586h-16.368h-6.586   c-1.07,0-1.941-1.059-1.941-2.363V32.201c0-1.302,0.871-2.362,1.941-2.362h5.581v1.949h-1.38c-2.241,0-4.065,1.959-4.065,4.367   v28.014c0,2.407,1.824,4.365,4.065,4.365l13.582,0.054c0,0,1.012-0.057,1.429-0.474l9.708-9.709   c0.373-0.373,0.478-1.302,0.478-1.302V36.155c0-2.407-1.825-4.367-4.066-4.367h-1.38v-1.949h5.581c1.07,0,1.94,1.06,1.94,2.362   v29.605c0.004,0.001,0.006,0.005,0.01,0.007v9.535C1026.664,72.652,1025.794,73.711,1024.723,73.711z"/>
	<polygon fill="#000000" points="1001.522,52.114 1001.522,39.903 999.889,39.903 999.889,52.114 999.889,53.359 999.889,53.668    1019.877,53.668 1019.877,52.114  "/>
	<polyline fill="#000000" stroke="#1D1D1B" stroke-width="0.4972" stroke-miterlimit="10" points="1002.223,50.947 1004.633,48.458    1007.876,48.458 1009.222,45.036 1013.811,45.036 1018.01,41.458  "/>
	<path opacity="0.25" fill="#000000" stroke="#1D1D1B" stroke-width="0.4972" stroke-miterlimit="10" d="M1003.895,50.947   c0.117-0.116,2.139-1.399,2.139-1.399l4.744-0.194l1.206-2.84l0.31-3.032l3.89-3.033"/>
	<path fill="#000000" d="M1019.877,55.255c0,0.253-0.206,0.457-0.458,0.457h-19.072c-0.252,0-0.458-0.204-0.458-0.457l0,0   c0-0.253,0.206-0.458,0.458-0.458h19.072C1019.672,54.798,1019.877,55.002,1019.877,55.255L1019.877,55.255z"/>
	<path fill="#000000" d="M1019.877,57.355c0,0.253-0.206,0.457-0.458,0.457h-19.072c-0.252,0-0.458-0.204-0.458-0.457l0,0   c0-0.254,0.206-0.458,0.458-0.458h19.072C1019.672,56.897,1019.877,57.102,1019.877,57.355L1019.877,57.355z"/>
	<path fill="#000000" d="M1015.341,58.927h-14.994c-0.252,0-0.458,0.205-0.458,0.458c0,0.253,0.206,0.458,0.458,0.458h14.532   C1014.989,59.511,1015.142,59.203,1015.341,58.927z"/>
	<path fill="#000000" d="M1014.44,61.835c0.021-0.27,0.063-0.511,0.112-0.748h-14.205c-0.252,0-0.458,0.207-0.458,0.458   c0,0.253,0.206,0.457,0.458,0.457h14.095C1014.443,61.948,1014.436,61.893,1014.44,61.835z"/>
	<path fill="#000000" d="M1014.518,63.625c0.023-0.172,0.021-0.339,0.012-0.507h-14.183c-0.252,0-0.458,0.207-0.458,0.46   c0,0.252,0.206,0.458,0.458,0.458h14.171C1014.511,63.897,1014.5,63.76,1014.518,63.625z"/>
</g>
<g>
	<g>
		<path fill="#000000" d="M187.392,61.141c-0.196,0.178-0.394,0.354-0.6,0.523c-0.129,0.111-0.257,0.221-0.382,0.328    c-0.048,0.042-0.099,0.064-0.148,0.079c-0.099,0.072-0.19,0.153-0.292,0.222c-0.103,0.07-0.207,0.062-0.294,0.016v7.203    c0,1.275-0.853,2.312-1.9,2.312h-17.966v-0.002h-17.194c-1.048,0-1.901-1.039-1.901-2.312V31.185c0-1.275,0.853-2.312,1.901-2.312    h16.527v0.003h8.939v6.348c0,3.066,2.68,5.561,5.975,5.561h5.62v13.379c0.646-0.874,1.46-1.617,2.21-2.418    c0.35-0.422,0.704-0.841,1.045-1.271c0.111-0.139,0.28-0.123,0.406-0.038v-9.583c0,0-0.142-1.273-0.653-1.783l-13.282-13.283    c-0.57-0.569-1.954-0.649-1.954-0.649l-7.64,0.03v-0.027l-17.194,0.069c-3.066,0-5.562,2.679-5.562,5.973V69.51    c0,3.293,2.496,5.974,5.562,5.974h16.527v0.002h18.633c3.067,0,5.562-2.679,5.562-5.973V59.227    C188.75,59.895,188.07,60.541,187.392,61.141z M176.742,30.881l7.36,7.361h-3.684c-2.028,0-3.677-1.356-3.677-3.021V30.881z"/>
		<path fill="#000000" d="M173.96,40.76c-1.589-1.383-2.594-3.36-2.594-5.562v-3.216h-19.904c-1.036,0-1.883,0.848-1.883,1.883    v5.011c0,1.036,0.847,1.884,1.883,1.884H173.96z"/>
		<path fill="#000000" d="M168.853,44.164c0,0.381,0.31,0.691,0.692,0.691h13.235c0.383,0,0.692-0.31,0.692-0.691    c0-0.384-0.31-0.693-0.692-0.693h-13.235C169.163,43.471,168.853,43.78,168.853,44.164z"/>
		<path fill="#000000" d="M182.78,46.365h-13.235c-0.382,0-0.692,0.31-0.692,0.692c0,0.382,0.31,0.691,0.692,0.691h13.235    c0.383,0,0.692-0.309,0.692-0.691C183.472,46.675,183.163,46.365,182.78,46.365z"/>
		<path fill="#000000" d="M182.78,49.258h-13.235c-0.382,0-0.692,0.311-0.692,0.693c0,0.382,0.31,0.692,0.692,0.692h13.235    c0.383,0,0.692-0.31,0.692-0.692C183.472,49.568,183.163,49.258,182.78,49.258z"/>
		<path fill="#000000" d="M182.78,52.151h-13.235c-0.382,0-0.692,0.31-0.692,0.693c0,0.382,0.31,0.692,0.692,0.692h13.235    c0.383,0,0.692-0.31,0.692-0.692C183.472,52.461,183.163,52.151,182.78,52.151z"/>
		<path fill="#000000" d="M182.78,55.046h-13.235c-0.382,0-0.692,0.309-0.692,0.691c0,0.383,0.31,0.692,0.692,0.692h13.235    c0.383,0,0.692-0.31,0.692-0.692C183.472,55.355,183.163,55.046,182.78,55.046z"/>
		<path fill="#000000" d="M151.188,49.009c-0.518,0-0.942,0.423-0.942,0.942v5.538c0,0.517,0.424,0.941,0.942,0.941h1.993    c0.518,0,0.942-0.424,0.942-0.941v-5.538c0-0.519-0.424-0.942-0.942-0.942H151.188z"/>
		<path fill="#000000" d="M156.947,45.465c-0.518,0-0.942,0.424-0.942,0.942v9.082c0,0.517,0.424,0.941,0.942,0.941h2.214    c0.519,0,0.942-0.424,0.942-0.941v-9.082c0-0.518-0.424-0.942-0.942-0.942H156.947z"/>
		<path fill="#000000" d="M163.039,43.472c-0.518,0-0.942,0.423-0.942,0.942v11.075c0,0.517,0.424,0.941,0.942,0.941h2.214    c0.518,0,0.942-0.424,0.942-0.941V44.414c0-0.519-0.424-0.942-0.942-0.942H163.039z"/>
		<path fill="#000000" d="M176.135,67.761h-11.961H162.9h-11.961c-0.382,0-0.693,0.311-0.693,0.693c0,0.382,0.311,0.692,0.693,0.692    H162.9h1.273h11.961c0.382,0,0.692-0.311,0.692-0.692C176.827,68.071,176.517,67.761,176.135,67.761z"/>
		<path fill="#000000" d="M180.822,59.081h-29.883c-0.382,0-0.693,0.311-0.693,0.692c0,0.383,0.311,0.692,0.693,0.692h29.194    C180.331,59.989,180.552,59.523,180.822,59.081z"/>
		<path fill="#000000" d="M179.314,61.975h-28.375c-0.382,0-0.693,0.31-0.693,0.693c0,0.381,0.311,0.691,0.693,0.691h27.756    C178.868,62.883,179.081,62.424,179.314,61.975z"/>
		<path fill="#000000" d="M178.166,66.083c-0.003-0.005-0.005-0.009-0.008-0.014c-0.207-0.041-0.38-0.274-0.244-0.493    c0.149-0.236,0.295-0.473,0.443-0.708h-27.418c-0.382,0-0.693,0.31-0.693,0.693c0,0.382,0.311,0.691,0.693,0.691h27.285    C178.193,66.2,178.171,66.143,178.166,66.083z"/>
		<path fill="#000000" d="M182.226,64.868h-0.234c-0.031,0.02-0.062,0.038-0.094,0.059c-0.703,0.521-1.448,0.958-2.241,1.325h2.569    c0.383,0,0.692-0.309,0.692-0.691C182.918,65.178,182.608,64.868,182.226,64.868z"/>
	</g>
	<path fill="#000000" d="M205.762,46.743c1.64-1.641,1.641-4.311,0-5.953l-2.092-2.093c-0.795-0.794-1.852-1.231-2.977-1.231   s-2.182,0.437-2.977,1.231l-0.151,0.153l-0.833-0.833l-7.076,8.537l-11.024,11.024l-3.842,8.058   c-0.364,0.767-0.617,1.303-0.728,1.713l-0.024-0.005c-0.027,0.154-0.044,0.312-0.044,0.474c0,1.466,1.192,2.659,2.658,2.659   c0.143,0,0.279-0.015,0.415-0.038l0.471-0.12l-0.364-1.042l0.487,0.991l9.221-4.44l11.024-11.024l0.729,0.73l7.808-7.806   l-0.833-0.833L205.762,46.743z M196.732,44.594l3.132,3.132l-1.229,1.228l-3.131-3.131L196.732,44.594z M192.944,49.843l1.671,1.67   l-8.852,8.852l-1.671-1.672L192.944,49.843z M180.919,63.542l0.451-0.937l0.488,0.488L180.919,63.542z"/>
	<path fill="#000000" d="M204.821,41.729l-2.093-2.091c-1.123-1.123-2.95-1.123-4.073,0l-1.092,1.092l-0.833-0.833l-5.927,5.928   l0.73,0.73L179.73,58.357l-0.219,0.455c0,0-4.179,8.757-4.166,8.767c-0.014,0.077-0.024,0.157-0.024,0.238   c0,0.734,0.595,1.33,1.33,1.33c0.066,0,0.13-0.009,0.194-0.02c0.07-0.017,0.14-0.037,0.211-0.052   c0.014-0.005,0.028-0.007,0.043-0.011l-0.016,0.008h0l8.562-4.124l0.455-0.219l0.594-0.593l11.211-11.211l0.73,0.73l5.928-5.927   l-0.833-0.833l1.091-1.09C205.944,44.68,205.944,42.854,204.821,41.729z M179.536,65.677l-0.754-0.756l2.202-4.582l3.142,3.143   L179.536,65.677z M185.764,62.245l-3.551-3.551l10.731-10.731l3.551,3.551L185.764,62.245z M198.635,50.835l-5.012-5.012   l3.108-3.108l5.012,5.012L198.635,50.835z M203.411,44.394l-1.091,1.09l-3.346-3.347l1.091-1.09c0.346-0.345,0.909-0.345,1.254,0   l2.092,2.092C203.757,43.485,203.757,44.047,203.411,44.394z"/>
</g>
<g>
	<path fill="#000000" d="M315.118,34.246l-2.958,0.002c-1.588,0-2.879,1.294-2.878,2.882l0.001,1.543l-1.178,0.001l0.005,8.382   l1.034-0.001l0.012,16.694l0.166,0.477c0,0,3.243,9.144,3.26,9.142c0.045,0.064,0.094,0.128,0.151,0.185   c0.52,0.52,1.36,0.519,1.88-0.001c0.047-0.046,0.086-0.098,0.124-0.15c0.038-0.062,0.072-0.125,0.112-0.187   c0.006-0.013,0.015-0.025,0.021-0.038l-0.006,0.017c0,0,0,0,0,0l3.133-8.973l0.166-0.477v-0.838l-0.01-15.856h1.032l-0.006-8.383   L318,38.668v-1.543C318,35.537,316.707,34.245,315.118,34.246z M314.196,69.059l-1.067,0.001l-1.687-4.796l4.444-0.003   L314.196,69.059z M316.168,62.228l-5.021,0.004l-0.01-15.176l5.021-0.004L316.168,62.228z M317.19,45.057l-7.088,0.004   l-0.003-4.396l7.088-0.004L317.19,45.057z M316.007,37.126l0,1.543l-4.732,0.002l0-1.542c-0.001-0.488,0.396-0.887,0.885-0.887   l2.959-0.002C315.608,36.24,316.007,36.636,316.007,37.126z"/>
	<g>
		<path fill="#000000" d="M304.716,39.628l-13.283-13.281c-0.571-0.57-1.953-0.649-1.953-0.649l-7.641,0.029V25.7l-17.193,0.068    c-3.067,0-5.562,2.68-5.562,5.975v38.325c0,3.294,2.495,5.973,5.562,5.973h16.527v0.003h18.633c3.066,0,5.561-2.679,5.561-5.973    V41.412C305.368,41.412,305.227,40.14,304.716,39.628z M292.773,31.438l7.36,7.36h-3.684c-2.028,0-3.677-1.355-3.677-3.021V31.438    z M301.708,70.07c0,1.274-0.853,2.312-1.9,2.312H281.84V72.38h-17.193c-1.049,0-1.901-1.038-1.901-2.312V31.743    c0-1.275,0.852-2.312,1.901-2.312h16.527v0.002h8.939v6.35c0,3.065,2.681,5.561,5.974,5.561h5.621V70.07z"/>
		<path fill="#000000" d="M287.398,35.756V32.54h-19.904c-1.037,0-1.884,0.848-1.884,1.883v5.011c0,1.035,0.847,1.882,1.884,1.882    h22.496C288.401,39.935,287.398,37.957,287.398,35.756z"/>
		<g>
			<path fill="#000000" d="M299.504,44.722c0,0.382-0.311,0.692-0.693,0.692h-13.234c-0.382,0-0.692-0.31-0.692-0.692l0,0     c0-0.383,0.31-0.693,0.692-0.693h13.234C299.193,44.029,299.504,44.338,299.504,44.722L299.504,44.722z"/>
			<path fill="#000000" d="M299.504,47.616c0,0.381-0.311,0.691-0.693,0.691h-13.234c-0.382,0-0.692-0.311-0.692-0.691l0,0     c0-0.383,0.31-0.694,0.692-0.694h13.234C299.193,46.922,299.504,47.232,299.504,47.616L299.504,47.616z"/>
			<path fill="#000000" d="M299.504,50.509c0,0.382-0.311,0.691-0.693,0.691h-13.234c-0.382,0-0.692-0.309-0.692-0.691l0,0     c0-0.383,0.31-0.693,0.692-0.693h13.234C299.193,49.815,299.504,50.126,299.504,50.509L299.504,50.509z"/>
			<path fill="#000000" d="M299.504,53.401c0,0.384-0.311,0.693-0.693,0.693h-13.234c-0.382,0-0.692-0.309-0.692-0.693l0,0     c0-0.382,0.31-0.691,0.692-0.691h13.234C299.193,52.709,299.504,53.019,299.504,53.401L299.504,53.401z"/>
			<path fill="#000000" d="M299.504,56.295c0,0.382-0.311,0.692-0.693,0.692h-13.234c-0.382,0-0.692-0.311-0.692-0.692l0,0     c0-0.383,0.31-0.693,0.692-0.693h13.234C299.193,55.602,299.504,55.913,299.504,56.295L299.504,56.295z"/>
		</g>
		<g>
			<path fill="#000000" d="M270.154,56.045c0,0.519-0.425,0.942-0.942,0.942h-1.993c-0.518,0-0.941-0.424-0.941-0.942v-5.537     c0-0.518,0.423-0.942,0.941-0.942h1.993c0.518,0,0.942,0.424,0.942,0.942V56.045z"/>
			<path fill="#000000" d="M276.135,56.045c0,0.519-0.424,0.942-0.942,0.942h-2.215c-0.517,0-0.941-0.424-0.941-0.942v-9.08     c0-0.519,0.424-0.943,0.941-0.943h2.215c0.518,0,0.942,0.424,0.942,0.943V56.045z"/>
			<path fill="#000000" d="M282.227,56.045c0,0.519-0.424,0.942-0.942,0.942h-2.214c-0.518,0-0.942-0.424-0.942-0.942V44.972     c0-0.519,0.424-0.943,0.942-0.943h2.214c0.518,0,0.942,0.424,0.942,0.943V56.045z"/>
		</g>
		<path fill="#000000" d="M280.897,60.331c0,0.382-0.31,0.692-0.693,0.692H266.97c-0.382,0-0.692-0.31-0.692-0.692l0,0    c0-0.383,0.31-0.692,0.692-0.692h13.234C280.587,59.639,280.897,59.948,280.897,60.331L280.897,60.331z"/>
		<path fill="#000000" d="M280.897,63.225c0,0.382-0.31,0.692-0.693,0.692H266.97c-0.382,0-0.692-0.31-0.692-0.692l0,0    c0-0.382,0.31-0.692,0.692-0.692h13.234C280.587,62.532,280.897,62.842,280.897,63.225L280.897,63.225z"/>
		<path fill="#000000" d="M280.897,66.118c0,0.381-0.31,0.691-0.693,0.691H266.97c-0.382,0-0.692-0.31-0.692-0.691l0,0    c0-0.383,0.31-0.693,0.692-0.693h13.234C280.587,65.425,280.897,65.735,280.897,66.118L280.897,66.118z"/>
		<path fill="#000000" d="M280.897,69.01c0,0.383-0.31,0.692-0.693,0.692H266.97c-0.382,0-0.692-0.309-0.692-0.692l0,0    c0-0.382,0.31-0.692,0.692-0.692h13.234C280.587,68.318,280.897,68.628,280.897,69.01L280.897,69.01z"/>
		<path fill="#000000" d="M292.858,60.331c0,0.382-0.311,0.692-0.692,0.692h-13.234c-0.383,0-0.693-0.31-0.693-0.692l0,0    c0-0.383,0.31-0.692,0.693-0.692h13.234C292.548,59.639,292.858,59.948,292.858,60.331L292.858,60.331z"/>
		<path fill="#000000" d="M292.858,63.225c0,0.382-0.311,0.692-0.692,0.692h-13.234c-0.383,0-0.693-0.31-0.693-0.692l0,0    c0-0.382,0.31-0.692,0.693-0.692h13.234C292.548,62.532,292.858,62.842,292.858,63.225L292.858,63.225z"/>
		<path fill="#000000" d="M292.858,66.118c0,0.381-0.311,0.691-0.692,0.691h-13.234c-0.383,0-0.693-0.31-0.693-0.691l0,0    c0-0.383,0.31-0.693,0.693-0.693h13.234C292.548,65.425,292.858,65.735,292.858,66.118L292.858,66.118z"/>
		<path fill="#000000" d="M292.858,69.01c0,0.383-0.311,0.692-0.692,0.692h-13.234c-0.383,0-0.693-0.309-0.693-0.692l0,0    c0-0.382,0.31-0.692,0.693-0.692h13.234C292.548,68.318,292.858,68.628,292.858,69.01L292.858,69.01z"/>
		<path fill="#000000" d="M298.95,60.331c0,0.382-0.311,0.692-0.692,0.692h-13.235c-0.382,0-0.692-0.31-0.692-0.692l0,0    c0-0.383,0.31-0.692,0.692-0.692h13.235C298.639,59.639,298.95,59.948,298.95,60.331L298.95,60.331z"/>
		<path fill="#000000" d="M298.95,63.225c0,0.382-0.311,0.692-0.692,0.692h-13.235c-0.382,0-0.692-0.31-0.692-0.692l0,0    c0-0.382,0.31-0.692,0.692-0.692h13.235C298.639,62.532,298.95,62.842,298.95,63.225L298.95,63.225z"/>
		<path fill="#000000" d="M298.95,66.118c0,0.381-0.311,0.691-0.692,0.691h-13.235c-0.382,0-0.692-0.31-0.692-0.691l0,0    c0-0.383,0.31-0.693,0.692-0.693h13.235C298.639,65.425,298.95,65.735,298.95,66.118L298.95,66.118z"/>
	</g>
</g>
<g>
	<path fill="#000000" d="M430.104,76.426l-0.002-2.958c-0.001-1.589-1.294-2.88-2.883-2.879l-1.543,0.001l-0.001-1.178l-8.382,0.006   l0.001,1.034L400.6,70.463l-0.476,0.167c0,0-9.145,3.242-9.143,3.259c-0.064,0.045-0.128,0.094-0.185,0.152   c-0.519,0.52-0.519,1.361,0.002,1.879c0.046,0.047,0.098,0.087,0.149,0.125c0.063,0.038,0.127,0.073,0.187,0.112   c0.014,0.006,0.025,0.015,0.039,0.021l-0.017-0.006l0,0l8.973,3.133l0.476,0.166l0.839-0.001l15.855-0.01l0.001,1.033l8.382-0.006   l-0.001-1.177l1.544-0.001C428.812,79.308,430.104,78.014,430.104,76.426z M395.291,75.504l-0.001-1.067l4.796-1.687l0.003,4.443   L395.291,75.504z M402.122,77.477l-0.004-5.021l15.177-0.011l0.003,5.021L402.122,77.477z M419.292,78.499l-0.004-7.088   l4.396-0.004l0.005,7.089L419.292,78.499z M427.223,77.314l-1.542,0.001l-0.003-4.731l1.542-0.002c0.49,0,0.888,0.398,0.888,0.887   l0.001,2.959C428.11,76.916,427.713,77.314,427.223,77.314z"/>
	<g>
		<path fill="#000000" d="M434.074,30.49l-13.282-13.281c-0.569-0.569-1.952-0.649-1.952-0.649l-7.641,0.031v-0.028l-17.194,0.068    c-3.065,0-5.562,2.68-5.562,5.975V60.93c0,3.293,2.497,5.973,5.562,5.973h16.527v0.003h18.633c3.067,0,5.562-2.679,5.562-5.974    V32.275C434.727,32.275,434.585,31.002,434.074,30.49z M422.131,22.301l7.361,7.36h-3.683c-2.029,0-3.679-1.354-3.679-3.02V22.301    z M431.065,60.933c0,1.275-0.852,2.312-1.9,2.312h-17.966v-0.003h-17.194c-1.049,0-1.9-1.038-1.9-2.312V22.605    c0-1.275,0.852-2.312,1.9-2.312h16.527v0.003h8.939v6.349c0,3.066,2.679,5.562,5.974,5.562h5.62V60.933z"/>
		<path fill="#000000" d="M416.756,26.618v-3.215h-19.903c-1.036,0-1.884,0.848-1.884,1.883v5.01c0,1.035,0.848,1.883,1.884,1.883    h22.497C417.76,30.798,416.756,28.82,416.756,26.618z"/>
		<g>
			<path fill="#000000" d="M428.862,35.583c0,0.383-0.311,0.693-0.692,0.693h-13.235c-0.382,0-0.692-0.31-0.692-0.693l0,0     c0-0.382,0.311-0.691,0.692-0.691h13.235C428.552,34.893,428.862,35.201,428.862,35.583L428.862,35.583z"/>
			<path fill="#000000" d="M428.862,38.478c0,0.382-0.311,0.692-0.692,0.692h-13.235c-0.382,0-0.692-0.31-0.692-0.692l0,0     c0-0.382,0.311-0.693,0.692-0.693h13.235C428.552,37.785,428.862,38.096,428.862,38.478L428.862,38.478z"/>
			<path fill="#000000" d="M428.862,41.371c0,0.383-0.311,0.692-0.692,0.692h-13.235c-0.382,0-0.692-0.309-0.692-0.692l0,0     c0-0.383,0.311-0.692,0.692-0.692h13.235C428.552,40.678,428.862,40.988,428.862,41.371L428.862,41.371z"/>
			<path fill="#000000" d="M428.862,44.264c0,0.383-0.311,0.692-0.692,0.692h-13.235c-0.382,0-0.692-0.309-0.692-0.692l0,0     c0-0.382,0.311-0.691,0.692-0.691h13.235C428.552,43.572,428.862,43.882,428.862,44.264L428.862,44.264z"/>
			<path fill="#000000" d="M428.862,47.158c0,0.381-0.311,0.692-0.692,0.692h-13.235c-0.382,0-0.692-0.311-0.692-0.692l0,0     c0-0.383,0.311-0.693,0.692-0.693h13.235C428.552,46.465,428.862,46.775,428.862,47.158L428.862,47.158z"/>
		</g>
		<g>
			<path fill="#000000" d="M399.513,46.908c0,0.518-0.424,0.942-0.942,0.942h-1.992c-0.518,0-0.943-0.424-0.943-0.942v-5.538     c0-0.518,0.426-0.941,0.943-0.941h1.992c0.519,0,0.942,0.424,0.942,0.941V46.908z"/>
			<path fill="#000000" d="M405.492,46.908c0,0.518-0.423,0.942-0.941,0.942h-2.214c-0.519,0-0.942-0.424-0.942-0.942v-9.081     c0-0.518,0.424-0.942,0.942-0.942h2.214c0.519,0,0.941,0.425,0.941,0.942V46.908z"/>
			<path fill="#000000" d="M411.585,46.908c0,0.518-0.424,0.942-0.941,0.942h-2.215c-0.518,0-0.941-0.424-0.941-0.942V35.834     c0-0.518,0.424-0.941,0.941-0.941h2.215c0.518,0,0.941,0.423,0.941,0.941V46.908z"/>
		</g>
		<path fill="#000000" d="M410.255,51.193c0,0.382-0.31,0.691-0.691,0.691h-13.235c-0.382,0-0.693-0.309-0.693-0.691l0,0    c0-0.383,0.312-0.692,0.693-0.692h13.235C409.945,50.501,410.255,50.811,410.255,51.193L410.255,51.193z"/>
		<path fill="#000000" d="M410.255,54.087c0,0.382-0.31,0.692-0.691,0.692h-13.235c-0.382,0-0.693-0.31-0.693-0.692l0,0    c0-0.382,0.312-0.692,0.693-0.692h13.235C409.945,53.395,410.255,53.705,410.255,54.087L410.255,54.087z"/>
		<path fill="#000000" d="M410.255,56.98c0,0.381-0.31,0.692-0.691,0.692h-13.235c-0.382,0-0.693-0.311-0.693-0.692l0,0    c0-0.383,0.312-0.693,0.693-0.693h13.235C409.945,56.287,410.255,56.598,410.255,56.98L410.255,56.98z"/>
		<path fill="#000000" d="M410.255,59.874c0,0.382-0.31,0.691-0.691,0.691h-13.235c-0.382,0-0.693-0.31-0.693-0.691l0,0    c0-0.383,0.312-0.693,0.693-0.693h13.235C409.945,59.181,410.255,59.491,410.255,59.874L410.255,59.874z"/>
		<path fill="#000000" d="M422.217,51.193c0,0.382-0.311,0.691-0.692,0.691H408.29c-0.383,0-0.692-0.309-0.692-0.691l0,0    c0-0.383,0.31-0.692,0.692-0.692h13.234C421.906,50.501,422.217,50.811,422.217,51.193L422.217,51.193z"/>
		<path fill="#000000" d="M422.217,54.087c0,0.382-0.311,0.692-0.692,0.692H408.29c-0.383,0-0.692-0.31-0.692-0.692l0,0    c0-0.382,0.31-0.692,0.692-0.692h13.234C421.906,53.395,422.217,53.705,422.217,54.087L422.217,54.087z"/>
		<path fill="#000000" d="M422.217,56.98c0,0.381-0.311,0.692-0.692,0.692H408.29c-0.383,0-0.692-0.311-0.692-0.692l0,0    c0-0.383,0.31-0.693,0.692-0.693h13.234C421.906,56.287,422.217,56.598,422.217,56.98L422.217,56.98z"/>
		<path fill="#000000" d="M422.217,59.874c0,0.382-0.311,0.691-0.692,0.691H408.29c-0.383,0-0.692-0.31-0.692-0.691l0,0    c0-0.383,0.31-0.693,0.692-0.693h13.234C421.906,59.181,422.217,59.491,422.217,59.874L422.217,59.874z"/>
		<path fill="#000000" d="M428.308,51.193c0,0.382-0.31,0.691-0.692,0.691h-13.234c-0.382,0-0.692-0.309-0.692-0.691l0,0    c0-0.383,0.311-0.692,0.692-0.692h13.234C427.998,50.501,428.308,50.811,428.308,51.193L428.308,51.193z"/>
		<path fill="#000000" d="M428.308,54.087c0,0.382-0.31,0.692-0.692,0.692h-13.234c-0.382,0-0.692-0.31-0.692-0.692l0,0    c0-0.382,0.311-0.692,0.692-0.692h13.234C427.998,53.395,428.308,53.705,428.308,54.087L428.308,54.087z"/>
		<path fill="#000000" d="M428.308,56.98c0,0.381-0.31,0.692-0.692,0.692h-13.234c-0.382,0-0.692-0.311-0.692-0.692l0,0    c0-0.383,0.311-0.693,0.692-0.693h13.234C427.998,56.287,428.308,56.598,428.308,56.98L428.308,56.98z"/>
	</g>
</g>
<g>
	<path fill="#000000" d="M633.468,24.916v36.427H621.01l0.171,1.817c0.009,0.1,0.243,2.479,1.242,4.884   c1.861,4.485,4.775,5.426,6.892,5.426l45.852-0.032c2.702-0.161,4.829-1.605,6.008-4.137c0.272-0.585,0.465-1.168,0.607-1.705   c0,0,0.362-2.329,0.362-4.26c0-1.931,0-38.42,0-38.42H633.468z M625.516,66.829c-0.317-0.75-0.541-1.511-0.698-2.164h8.65v0.536   c-0.013,0.255-0.105,1.545-0.685,2.754c-0.717,1.497-1.819,2.193-3.468,2.193C628.722,70.147,626.916,70.147,625.516,66.829z    M674.667,70.147c-0.345,0-39.305,0-39.305,0c0.165-0.269,0.322-0.547,0.461-0.847c0.958-2.058,0.97-4.116,0.97-4.135l-0.002-0.893   l0,0V28.239h42.031v33.104l-0.001,3.795c0,0-0.1,1.596-0.685,2.816C677.419,69.451,676.315,70.147,674.667,70.147z"/>
	<path fill="#000000" d="M627.047,25.651l-2.546,0.002c-1.367,0.001-2.479,1.114-2.478,2.48l0.001,1.329h-1.014l0.005,7.214h0.889   l0.009,14.367l0.144,0.409c0,0,2.791,7.87,2.805,7.868c0.039,0.056,0.081,0.11,0.13,0.16c0.447,0.446,1.171,0.446,1.618-0.002   c0.041-0.04,0.074-0.085,0.106-0.129c0.032-0.054,0.063-0.109,0.097-0.16c0.005-0.012,0.013-0.022,0.019-0.034l-0.005,0.014h0.001   l2.696-7.722l0.143-0.41v-0.722l-0.01-13.645l0.889-0.001l-0.005-7.214l-1.014,0.001l0-1.329   C629.526,26.762,628.414,25.65,627.047,25.651z M626.253,55.612h-0.918l-1.452-4.127l3.825-0.003L626.253,55.612z M627.951,49.733   l-4.322,0.002l-0.008-13.061l4.321-0.002L627.951,49.733z M628.83,34.957l-6.1,0.004l-0.003-3.784l6.1-0.003L628.83,34.957z    M627.812,28.131l0,1.327l-4.072,0.003l-0.001-1.328c-0.001-0.421,0.342-0.764,0.763-0.764l2.546-0.002   C627.468,27.367,627.811,27.709,627.812,28.131z"/>
	<path fill="#000000" d="M674.891,42.635c0,0.382-0.31,0.692-0.692,0.692h-13.234c-0.383,0-0.693-0.31-0.693-0.692l0,0   c0-0.383,0.31-0.693,0.693-0.693h13.234C674.582,41.942,674.891,42.251,674.891,42.635L674.891,42.635z"/>
	<path fill="#000000" d="M674.891,45.528c0,0.383-0.31,0.692-0.692,0.692h-13.234c-0.383,0-0.693-0.31-0.693-0.692l0,0   c0-0.382,0.31-0.692,0.693-0.692h13.234C674.582,44.836,674.891,45.146,674.891,45.528L674.891,45.528z"/>
	<path fill="#000000" d="M674.891,48.422c0,0.382-0.31,0.692-0.692,0.692h-13.234c-0.383,0-0.693-0.31-0.693-0.692l0,0   c0-0.383,0.31-0.693,0.693-0.693h13.234C674.582,47.729,674.891,48.039,674.891,48.422L674.891,48.422z"/>
	<path fill="#000000" d="M674.891,51.315c0,0.382-0.31,0.691-0.692,0.691h-13.234c-0.383,0-0.693-0.309-0.693-0.691l0,0   c0-0.383,0.31-0.693,0.693-0.693h13.234C674.582,50.622,674.891,50.933,674.891,51.315L674.891,51.315z"/>
	<path fill="#000000" d="M674.891,54.209c0,0.382-0.31,0.692-0.692,0.692h-13.234c-0.383,0-0.693-0.311-0.693-0.692l0,0   c0-0.383,0.31-0.693,0.693-0.693h13.234C674.582,53.516,674.891,53.826,674.891,54.209L674.891,54.209z"/>
	<path fill="#000000" d="M645.542,53.958c0,0.518-0.423,0.943-0.942,0.943h-1.993c-0.518,0-0.942-0.425-0.942-0.943v-5.537   c0-0.518,0.424-0.942,0.942-0.942h1.993c0.519,0,0.942,0.425,0.942,0.942V53.958z"/>
	<path fill="#000000" d="M651.523,53.958c0,0.518-0.424,0.943-0.942,0.943h-2.214c-0.518,0-0.942-0.425-0.942-0.943v-9.081   c0-0.519,0.424-0.941,0.942-0.941h2.214c0.518,0,0.942,0.423,0.942,0.941V53.958z"/>
	<path fill="#000000" d="M657.614,53.958c0,0.518-0.423,0.943-0.941,0.943h-2.214c-0.518,0-0.942-0.425-0.942-0.943V42.885   c0-0.519,0.424-0.942,0.942-0.942h2.214c0.518,0,0.941,0.423,0.941,0.942V53.958z"/>
	<path fill="#000000" d="M656.285,58.245c0,0.381-0.31,0.692-0.692,0.692h-13.234c-0.382,0-0.693-0.311-0.693-0.692l0,0   c0-0.383,0.311-0.693,0.693-0.693h13.234C655.975,57.551,656.285,57.861,656.285,58.245L656.285,58.245z"/>
	<path fill="#000000" d="M656.285,61.138c0,0.382-0.31,0.692-0.692,0.692h-13.234c-0.382,0-0.693-0.31-0.693-0.692l0,0   c0-0.383,0.311-0.693,0.693-0.693h13.234C655.975,60.445,656.285,60.755,656.285,61.138L656.285,61.138z"/>
	<path fill="#000000" d="M656.285,64.031c0,0.382-0.31,0.692-0.692,0.692h-13.234c-0.382,0-0.693-0.31-0.693-0.692l0,0   c0-0.381,0.311-0.692,0.693-0.692h13.234C655.975,63.338,656.285,63.649,656.285,64.031L656.285,64.031z"/>
	<path fill="#000000" d="M656.285,66.925c0,0.382-0.31,0.691-0.692,0.691h-13.234c-0.382,0-0.693-0.31-0.693-0.691l0,0   c0-0.382,0.311-0.693,0.693-0.693h13.234C655.975,66.231,656.285,66.542,656.285,66.925L656.285,66.925z"/>
	<path fill="#000000" d="M668.246,58.245c0,0.381-0.31,0.692-0.692,0.692h-13.235c-0.382,0-0.692-0.311-0.692-0.692l0,0   c0-0.383,0.31-0.693,0.692-0.693h13.235C667.937,57.551,668.246,57.861,668.246,58.245L668.246,58.245z"/>
	<path fill="#000000" d="M668.246,61.138c0,0.382-0.31,0.692-0.692,0.692h-13.235c-0.382,0-0.692-0.31-0.692-0.692l0,0   c0-0.383,0.31-0.693,0.692-0.693h13.235C667.937,60.445,668.246,60.755,668.246,61.138L668.246,61.138z"/>
	<path fill="#000000" d="M668.246,64.031c0,0.382-0.31,0.692-0.692,0.692h-13.235c-0.382,0-0.692-0.31-0.692-0.692l0,0   c0-0.381,0.31-0.692,0.692-0.692h13.235C667.937,63.338,668.246,63.649,668.246,64.031L668.246,64.031z"/>
	<path fill="#000000" d="M668.246,66.925c0,0.382-0.31,0.691-0.692,0.691h-13.235c-0.382,0-0.692-0.31-0.692-0.691l0,0   c0-0.382,0.31-0.693,0.692-0.693h13.235C667.937,66.231,668.246,66.542,668.246,66.925L668.246,66.925z"/>
	<path fill="#000000" d="M674.337,58.245c0,0.381-0.31,0.692-0.692,0.692h-13.234c-0.383,0-0.692-0.311-0.692-0.692l0,0   c0-0.383,0.31-0.693,0.692-0.693h13.234C674.027,57.551,674.337,57.861,674.337,58.245L674.337,58.245z"/>
	<path fill="#000000" d="M674.337,61.138c0,0.382-0.31,0.692-0.692,0.692h-13.234c-0.383,0-0.692-0.31-0.692-0.692l0,0   c0-0.383,0.31-0.693,0.692-0.693h13.234C674.027,60.445,674.337,60.755,674.337,61.138L674.337,61.138z"/>
	<path fill="#000000" d="M674.337,64.031c0,0.382-0.31,0.692-0.692,0.692h-13.234c-0.383,0-0.692-0.31-0.692-0.692l0,0   c0-0.381,0.31-0.692,0.692-0.692h13.234C674.027,63.338,674.337,63.649,674.337,64.031L674.337,64.031z"/>
	<path fill="#000000" d="M673.351,30.453h-10.565h-9.338h-10.565c-1.036,0-1.884,0.848-1.884,1.884v5.01   c0,1.036,0.848,1.884,1.884,1.884h7.971h14.525h7.972c1.036,0,1.884-0.848,1.884-1.884v-5.01   C675.235,31.301,674.387,30.453,673.351,30.453z"/>
</g>
<g>
	<path fill="#000000" d="M546.972,58.527c-0.196,0.179-0.394,0.355-0.6,0.524c-0.128,0.11-0.257,0.22-0.381,0.327   c-0.049,0.042-0.099,0.065-0.149,0.078c-0.099,0.073-0.19,0.153-0.292,0.223c-0.103,0.07-0.206,0.06-0.293,0.016v7.203   c0,1.274-0.853,2.312-1.9,2.312h-17.967v-0.002h-17.193c-1.048,0-1.901-1.039-1.901-2.313V28.573c0-1.276,0.853-2.313,1.901-2.313   h16.527v0.002h8.939v6.35c0,3.065,2.68,5.561,5.975,5.561h5.62v13.379c0.646-0.874,1.46-1.618,2.21-2.419   c0.349-0.422,0.703-0.84,1.044-1.271c0.111-0.14,0.28-0.123,0.406-0.038v-9.583c0,0-0.142-1.272-0.653-1.783l-13.281-13.282   c-0.571-0.569-1.954-0.649-1.954-0.649l-7.641,0.03v-0.027l-17.193,0.068c-3.067,0-5.562,2.679-5.562,5.976v38.324   c0,3.294,2.496,5.973,5.562,5.973h16.527v0.004h18.633c3.066,0,5.561-2.681,5.561-5.975V56.614   C548.331,57.282,547.65,57.928,546.972,58.527z M536.322,28.267l7.36,7.361h-3.684c-2.028,0-3.677-1.355-3.677-3.021V28.267z"/>
	<path fill="#000000" d="M533.54,38.146c-1.59-1.381-2.594-3.359-2.594-5.561v-3.216h-19.903c-1.036,0-1.884,0.848-1.884,1.883v5.01   c0,1.037,0.848,1.883,1.884,1.883H533.54z"/>
	<path fill="#000000" d="M528.433,41.551c0,0.382,0.31,0.692,0.692,0.692h13.235c0.381,0,0.692-0.31,0.692-0.692   c0-0.382-0.311-0.693-0.692-0.693h-13.235C528.743,40.858,528.433,41.168,528.433,41.551z"/>
	<path fill="#000000" d="M542.36,43.752h-13.235c-0.382,0-0.692,0.31-0.692,0.693c0,0.381,0.31,0.691,0.692,0.691h13.235   c0.381,0,0.692-0.311,0.692-0.691C543.052,44.062,542.742,43.752,542.36,43.752z"/>
	<path fill="#000000" d="M542.36,46.645h-13.235c-0.382,0-0.692,0.31-0.692,0.693c0,0.382,0.31,0.692,0.692,0.692h13.235   c0.381,0,0.692-0.31,0.692-0.692C543.052,46.955,542.742,46.645,542.36,46.645z"/>
	<path fill="#000000" d="M542.36,49.539h-13.235c-0.382,0-0.692,0.31-0.692,0.692c0,0.381,0.31,0.692,0.692,0.692h13.235   c0.381,0,0.692-0.311,0.692-0.692C543.052,49.849,542.742,49.539,542.36,49.539z"/>
	<path fill="#000000" d="M542.36,52.431h-13.235c-0.382,0-0.692,0.311-0.692,0.693c0,0.383,0.31,0.692,0.692,0.692h13.235   c0.381,0,0.692-0.309,0.692-0.692C543.052,52.742,542.742,52.431,542.36,52.431z"/>
	<path fill="#000000" d="M535.714,65.148h-11.961h-1.273h-11.961c-0.382,0-0.693,0.31-0.693,0.691c0,0.383,0.311,0.693,0.693,0.693   h11.961h1.273h11.961c0.382,0,0.693-0.31,0.693-0.693C536.407,65.458,536.097,65.148,535.714,65.148z"/>
	<path fill="#000000" d="M540.401,56.468h-29.883c-0.382,0-0.693,0.31-0.693,0.692c0,0.383,0.311,0.692,0.693,0.692h29.195   C539.91,57.376,540.132,56.91,540.401,56.468z"/>
	<path fill="#000000" d="M538.894,59.36h-28.375c-0.382,0-0.693,0.311-0.693,0.694c0,0.381,0.311,0.691,0.693,0.691h27.756   C538.448,60.27,538.662,59.811,538.894,59.36z"/>
	<path fill="#000000" d="M537.746,63.47c-0.003-0.005-0.005-0.01-0.008-0.014c-0.206-0.041-0.38-0.275-0.244-0.493   c0.149-0.236,0.296-0.473,0.443-0.709h-27.419c-0.382,0-0.693,0.309-0.693,0.693c0,0.382,0.311,0.691,0.693,0.691h27.285   C537.773,63.587,537.75,63.53,537.746,63.47z"/>
	<path fill="#000000" d="M541.806,62.254h-0.235c-0.031,0.019-0.062,0.039-0.093,0.059c-0.703,0.522-1.448,0.958-2.241,1.326h2.569   c0.382,0,0.692-0.31,0.692-0.691C542.498,62.563,542.188,62.254,541.806,62.254z"/>
	<path fill="#000000" d="M565.341,44.129c1.641-1.641,1.641-4.31,0-5.952l-2.093-2.093c-0.794-0.794-1.851-1.231-2.977-1.231   c-1.125,0-2.182,0.437-2.977,1.231l-0.151,0.151l-0.833-0.832l-7.077,8.537l-11.023,11.023l-3.841,8.058   c-0.363,0.767-0.617,1.302-0.728,1.712l-0.024-0.004c-0.027,0.154-0.045,0.312-0.045,0.473c0,1.465,1.193,2.658,2.659,2.658   c0.142,0,0.28-0.015,0.416-0.037l0.47-0.12l-0.363-1.042l0.487,0.993l9.22-4.441l11.024-11.023l0.73,0.73l7.808-7.808l-0.833-0.832   L565.341,44.129z M556.312,41.98l3.132,3.133l-1.229,1.228l-3.132-3.132L556.312,41.98z M552.525,47.229l1.671,1.671l-8.852,8.852   l-1.671-1.672L552.525,47.229z M540.5,60.929l0.45-0.936l0.488,0.487L540.5,60.929z"/>
	<path fill="#000000" d="M564.401,39.115l-2.093-2.091c-1.123-1.122-2.95-1.122-4.073,0l-1.091,1.091l-0.833-0.833l-5.928,5.927   l0.729,0.73L539.31,55.744l-0.219,0.455c0,0-4.179,8.755-4.165,8.766c-0.014,0.078-0.024,0.158-0.024,0.238   c0,0.734,0.596,1.33,1.33,1.33c0.066,0,0.131-0.01,0.193-0.02c0.071-0.017,0.142-0.037,0.211-0.052   c0.014-0.004,0.029-0.007,0.043-0.011l-0.017,0.007c0,0,0,0,0,0l8.562-4.123l0.455-0.219l0.592-0.593l11.212-11.211l0.73,0.73   l5.928-5.927l-0.833-0.833l1.092-1.091C565.524,42.066,565.524,40.24,564.401,39.115z M539.116,63.063l-0.754-0.756l2.201-4.582   l3.144,3.142L539.116,63.063z M545.344,59.632l-3.551-3.551l10.731-10.731l3.55,3.551L545.344,59.632z M558.215,48.221   l-5.012-5.011l3.109-3.108l5.011,5.012L558.215,48.221z M562.991,41.78l-1.09,1.091l-3.347-3.347l1.092-1.091   c0.345-0.345,0.908-0.345,1.253,0l2.092,2.093C563.337,40.872,563.337,41.434,562.991,41.78z"/>
	<g>
		<g>
			<path fill="#000000" d="M518.852,47.503l-6.312,2.05c-1.132-3.485,0.775-7.23,4.261-8.362c0.697-0.228,1.317-0.326,2.05-0.326     V47.503z"/>
		</g>
		<g>
			<path fill="#000000" d="M518.688,47.338l-3.901,5.369c-1.187-0.862-1.958-1.924-2.411-3.318L518.688,47.338z"/>
			<path fill="#000000" d="M514.819,52.904l-0.115-0.083c-1.215-0.882-1.997-1.96-2.462-3.389l-0.043-0.135l6.861-2.229     L514.819,52.904z M512.556,49.479c0.435,1.258,1.139,2.228,2.201,3.029l3.56-4.9L512.556,49.479z"/>
		</g>
		<g>
			<path fill="#000000" d="M518.681,47.338V40.7c3.665,0,6.638,2.972,6.638,6.638c0,3.664-2.973,6.636-6.638,6.636     c-1.466,0-2.714-0.406-3.901-1.268L518.681,47.338z"/>
			<path fill="#000000" d="M518.681,54.116c-1.503,0-2.768-0.411-3.984-1.295l-0.115-0.083l3.958-5.447v-6.733h0.141     c3.738,0,6.779,3.042,6.779,6.78C525.46,51.075,522.419,54.116,518.681,54.116z M514.98,52.674     c1.129,0.79,2.31,1.158,3.701,1.158c3.582,0,6.495-2.915,6.495-6.495c0-3.535-2.837-6.418-6.353-6.495v6.539L514.98,52.674z"/>
		</g>
	</g>
	<g>
		<g>
			<path fill="#000000" d="M518.852,47.503l-6.312,2.05c-1.132-3.485,0.775-7.23,4.261-8.362c0.697-0.228,1.317-0.326,2.05-0.326     V47.503z"/>
		</g>
		<g>
			<path fill="#000000" d="M518.688,47.338l-3.901,5.369c-1.187-0.862-1.958-1.924-2.411-3.318L518.688,47.338z"/>
			<path fill="#000000" d="M514.819,52.904l-0.115-0.083c-1.215-0.882-1.997-1.96-2.462-3.389l-0.043-0.135l6.861-2.229     L514.819,52.904z M512.556,49.479c0.435,1.258,1.139,2.228,2.201,3.029l3.56-4.9L512.556,49.479z"/>
		</g>
		<g>
			<path fill="#000000" d="M518.681,47.338V40.7c3.665,0,6.638,2.972,6.638,6.638c0,3.664-2.973,6.636-6.638,6.636     c-1.466,0-2.714-0.406-3.901-1.268L518.681,47.338z"/>
			<path fill="#000000" d="M518.681,54.116c-1.503,0-2.768-0.411-3.984-1.295l-0.115-0.083l3.958-5.447v-6.733h0.141     c3.738,0,6.779,3.042,6.779,6.78C525.46,51.075,522.419,54.116,518.681,54.116z M514.98,52.674     c1.129,0.79,2.31,1.158,3.701,1.158c3.582,0,6.495-2.915,6.495-6.495c0-3.535-2.837-6.418-6.353-6.495v6.539L514.98,52.674z"/>
		</g>
	</g>
</g>
<g>
	<path fill="#000000" d="M754.003,24.249v36.427h-12.458l0.172,1.816c0.01,0.1,0.243,2.479,1.241,4.885   c1.861,4.485,4.775,5.426,6.892,5.426l45.853-0.033c2.702-0.161,4.828-1.604,6.008-4.137c0.272-0.585,0.467-1.167,0.606-1.705   c0,0,0.363-2.328,0.363-4.259s0-38.421,0-38.421H754.003z M746.051,66.163c-0.315-0.75-0.54-1.51-0.697-2.164h8.649v0.536   c-0.013,0.254-0.104,1.543-0.685,2.754c-0.716,1.496-1.819,2.193-3.469,2.193C749.257,69.481,747.451,69.481,746.051,66.163z    M795.202,69.481c-0.346,0-39.306,0-39.306,0c0.165-0.269,0.322-0.547,0.462-0.847c0.958-2.059,0.97-4.116,0.97-4.136l-0.002-0.893   l0,0V27.572h42.03v33.104v3.795c0,0-0.101,1.596-0.686,2.817C797.954,68.784,796.852,69.481,795.202,69.481z"/>
	<path fill="#000000" d="M747.582,24.985l-2.547,0.001c-1.366,0.001-2.478,1.114-2.477,2.48v1.328l-1.014,0.001l0.006,7.214h0.889   l0.01,14.367l0.144,0.41c0,0,2.791,7.871,2.806,7.868c0.039,0.056,0.081,0.11,0.13,0.159c0.447,0.447,1.172,0.446,1.618,0   c0.04-0.041,0.074-0.085,0.106-0.13c0.032-0.053,0.062-0.109,0.097-0.16c0.005-0.011,0.013-0.022,0.019-0.034l-0.005,0.015l0,0   l2.696-7.722l0.143-0.411V49.65l-0.009-13.646h0.888l-0.004-7.214l-1.014,0.001l-0.001-1.329   C750.062,26.095,748.949,24.983,747.582,24.985z M746.788,54.946h-0.918l-1.452-4.127l3.825-0.002L746.788,54.946z M748.485,49.067   l-4.321,0.002l-0.009-13.061l4.321-0.002L748.485,49.067z M749.365,34.29l-6.101,0.004l-0.002-3.784l6.1-0.004L749.365,34.29z    M748.348,27.464v1.327l-4.072,0.003l-0.001-1.328c-0.001-0.421,0.342-0.763,0.762-0.763l2.547-0.001   C748.004,26.701,748.347,27.042,748.348,27.464z"/>
	<path fill="#000000" d="M795.428,41.968c0,0.382-0.311,0.692-0.692,0.692H781.5c-0.382,0-0.692-0.31-0.692-0.692l0,0   c0-0.383,0.311-0.693,0.692-0.693h13.235C795.117,41.275,795.428,41.585,795.428,41.968L795.428,41.968z"/>
	<path fill="#000000" d="M795.428,44.861c0,0.383-0.311,0.693-0.692,0.693H781.5c-0.382,0-0.692-0.31-0.692-0.693l0,0   c0-0.382,0.311-0.691,0.692-0.691h13.235C795.117,44.17,795.428,44.479,795.428,44.861L795.428,44.861z"/>
	<path fill="#000000" d="M795.428,47.755c0,0.382-0.311,0.692-0.692,0.692H781.5c-0.382,0-0.692-0.311-0.692-0.692l0,0   c0-0.382,0.311-0.692,0.692-0.692h13.235C795.117,47.063,795.428,47.373,795.428,47.755L795.428,47.755z"/>
	<path fill="#000000" d="M795.428,50.649c0,0.38-0.311,0.691-0.692,0.691H781.5c-0.382,0-0.692-0.311-0.692-0.691l0,0   c0-0.383,0.311-0.693,0.692-0.693h13.235C795.117,49.956,795.428,50.266,795.428,50.649L795.428,50.649z"/>
	<path fill="#000000" d="M795.428,53.542c0,0.383-0.311,0.692-0.692,0.692H781.5c-0.382,0-0.692-0.309-0.692-0.692l0,0   c0-0.382,0.311-0.692,0.692-0.692h13.235C795.117,52.85,795.428,53.159,795.428,53.542L795.428,53.542z"/>
	<path fill="#000000" d="M776.82,57.577c0,0.383-0.31,0.693-0.691,0.693h-13.235c-0.383,0-0.692-0.311-0.692-0.693l0,0   c0-0.382,0.31-0.692,0.692-0.692h13.235C776.511,56.884,776.82,57.195,776.82,57.577L776.82,57.577z"/>
	<path fill="#000000" d="M776.82,60.472c0,0.382-0.31,0.691-0.691,0.691h-13.235c-0.383,0-0.692-0.31-0.692-0.691l0,0   c0-0.383,0.31-0.693,0.692-0.693h13.235C776.511,59.779,776.82,60.088,776.82,60.472L776.82,60.472z"/>
	<path fill="#000000" d="M776.82,63.364c0,0.383-0.31,0.693-0.691,0.693h-13.235c-0.383,0-0.692-0.31-0.692-0.693l0,0   c0-0.381,0.31-0.691,0.692-0.691h13.235C776.511,62.673,776.82,62.982,776.82,63.364L776.82,63.364z"/>
	<path fill="#000000" d="M776.82,66.258c0,0.381-0.31,0.692-0.691,0.692h-13.235c-0.383,0-0.692-0.311-0.692-0.692l0,0   c0-0.382,0.31-0.693,0.692-0.693h13.235C776.511,65.565,776.82,65.876,776.82,66.258L776.82,66.258z"/>
	<path fill="#000000" d="M788.782,57.577c0,0.383-0.311,0.693-0.692,0.693h-13.234c-0.383,0-0.693-0.311-0.693-0.693l0,0   c0-0.382,0.311-0.692,0.693-0.692h13.234C788.472,56.884,788.782,57.195,788.782,57.577L788.782,57.577z"/>
	<path fill="#000000" d="M788.782,60.472c0,0.382-0.311,0.691-0.692,0.691h-13.234c-0.383,0-0.693-0.31-0.693-0.691l0,0   c0-0.383,0.311-0.693,0.693-0.693h13.234C788.472,59.779,788.782,60.088,788.782,60.472L788.782,60.472z"/>
	<path fill="#000000" d="M788.782,63.364c0,0.383-0.311,0.693-0.692,0.693h-13.234c-0.383,0-0.693-0.31-0.693-0.693l0,0   c0-0.381,0.311-0.691,0.693-0.691h13.234C788.472,62.673,788.782,62.982,788.782,63.364L788.782,63.364z"/>
	<path fill="#000000" d="M788.782,66.258c0,0.381-0.311,0.692-0.692,0.692h-13.234c-0.383,0-0.693-0.311-0.693-0.692l0,0   c0-0.382,0.311-0.693,0.693-0.693h13.234C788.472,65.565,788.782,65.876,788.782,66.258L788.782,66.258z"/>
	<path fill="#000000" d="M794.873,57.577c0,0.383-0.31,0.693-0.692,0.693h-13.235c-0.381,0-0.691-0.311-0.691-0.693l0,0   c0-0.382,0.311-0.692,0.691-0.692h13.235C794.563,56.884,794.873,57.195,794.873,57.577L794.873,57.577z"/>
	<path fill="#000000" d="M794.873,60.472c0,0.382-0.31,0.691-0.692,0.691h-13.235c-0.381,0-0.691-0.31-0.691-0.691l0,0   c0-0.383,0.311-0.693,0.691-0.693h13.235C794.563,59.779,794.873,60.088,794.873,60.472L794.873,60.472z"/>
	<path fill="#000000" d="M794.873,63.364c0,0.383-0.31,0.693-0.692,0.693h-13.235c-0.381,0-0.691-0.31-0.691-0.693l0,0   c0-0.381,0.311-0.691,0.691-0.691h13.235C794.563,62.673,794.873,62.982,794.873,63.364L794.873,63.364z"/>
	<path fill="#000000" d="M793.887,29.787h-10.565h-9.339h-10.564c-1.036,0-1.883,0.847-1.883,1.883v5.01   c0,1.037,0.847,1.884,1.883,1.884h7.971h14.525h7.973c1.036,0,1.883-0.847,1.883-1.884v-5.01   C795.77,30.633,794.923,29.787,793.887,29.787z"/>
	<g>
		<g>
			<path fill="#000000" d="M770.655,47.921l-6.312,2.05c-1.133-3.486,0.775-7.229,4.262-8.362c0.696-0.227,1.316-0.326,2.05-0.326     V47.921z"/>
		</g>
		<g>
			<path fill="#000000" d="M770.492,47.754l-3.9,5.37c-1.187-0.862-1.958-1.925-2.411-3.319L770.492,47.754z"/>
			<path fill="#000000" d="M766.623,53.322l-0.115-0.083c-1.215-0.883-1.998-1.96-2.462-3.39l-0.044-0.135l6.861-2.229     L766.623,53.322z M764.36,49.896c0.435,1.26,1.138,2.228,2.2,3.029l3.561-4.9L764.36,49.896z"/>
		</g>
		<g>
			<path fill="#000000" d="M770.485,47.754v-6.636c3.666,0,6.638,2.971,6.638,6.636c0,3.666-2.972,6.638-6.638,6.638     c-1.466,0-2.715-0.407-3.901-1.268L770.485,47.754z"/>
			<path fill="#000000" d="M770.485,54.533c-1.502,0-2.769-0.411-3.984-1.294l-0.114-0.084l3.957-5.447v-6.731h0.142     c3.737,0,6.779,3.04,6.779,6.778C777.265,51.492,774.223,54.533,770.485,54.533z M766.783,53.091     c1.13,0.791,2.311,1.16,3.702,1.16c3.581,0,6.495-2.915,6.495-6.496c0-3.535-2.837-6.417-6.354-6.493V47.8L766.783,53.091z"/>
		</g>
	</g>
</g>
<g>
	<path fill="#000000" d="M46.292,37.055c0.057,0.258,0.16,0.433,0.278,0.433h4.166c0.118,0,0.222-0.175,0.278-0.434   c2.036-0.789,3.458-2.603,3.458-4.975H42.833C42.833,34.453,44.256,36.265,46.292,37.055z"/>
	<polygon fill="#000000" points="55.214,28.388 54.472,27.797 50.832,31.438 52.164,31.438  "/>
	<path fill="#000000" d="M31.108,56.501h25.498c0.323,0,0.585-0.263,0.585-0.587c0-0.323-0.262-0.585-0.585-0.585H31.108   c-0.323,0-0.586,0.262-0.586,0.585C30.522,56.238,30.785,56.501,31.108,56.501z"/>
	<path fill="#000000" d="M31.108,53.986h25.498c0.323,0,0.585-0.263,0.585-0.586c0-0.324-0.262-0.587-0.585-0.587H31.108   c-0.323,0-0.586,0.263-0.586,0.587C30.522,53.723,30.785,53.986,31.108,53.986z"/>
	<path fill="#000000" d="M31.108,51.47h25.498c0.323,0,0.585-0.263,0.585-0.585c0-0.325-0.262-0.587-0.585-0.587H31.108   c-0.323,0-0.586,0.262-0.586,0.587C30.522,51.207,30.785,51.47,31.108,51.47z"/>
	<path fill="#000000" d="M31.108,48.954h25.498c0.323,0,0.585-0.262,0.585-0.587c0-0.322-0.262-0.585-0.585-0.585H31.108   c-0.323,0-0.586,0.263-0.586,0.585C30.522,48.692,30.785,48.954,31.108,48.954z"/>
	<path fill="#000000" d="M31.108,46.439h25.498c0.323,0,0.585-0.262,0.585-0.587c0-0.322-0.262-0.584-0.585-0.584H31.108   c-0.323,0-0.586,0.263-0.586,0.584C30.522,46.177,30.785,46.439,31.108,46.439z"/>
	<path fill="#000000" d="M31.108,43.922h25.498c0.323,0,0.585-0.262,0.585-0.586c0-0.323-0.262-0.586-0.585-0.586H31.108   c-0.323,0-0.586,0.263-0.586,0.586C30.522,43.66,30.785,43.922,31.108,43.922z"/>
	<path fill="#000000" d="M31.108,41.408h25.498c0.323,0,0.585-0.262,0.585-0.586c0-0.325-0.262-0.587-0.585-0.587H31.108   c-0.323,0-0.586,0.262-0.586,0.587C30.522,41.146,30.785,41.408,31.108,41.408z"/>
	<path fill="#000000" d="M74.457,58.251l5.79-8.454c0.831-1.164,0.559-2.788-0.605-3.62c-1.128-0.802-2.821-0.515-3.619,0.607   l-7.447,10.439c-1.71-0.201-3.534-0.344-5.443-0.425c0.262,0.01,0.537,0.009,0.797,0.022V27.984c0-3.305-2.503-5.993-5.578-5.993   l-18.636-0.074c0,0-1.387,0.08-1.959,0.652l-13.32,13.318c-0.512,0.512-0.654,1.789-0.654,1.789v25.168   c-1.308,0.263-2.522,0.741-3.516,1.447c-1.628,1.159-2.552,2.803-2.535,4.509c0.034,3.378,3.587,6.024,8.09,6.024l0.113,0   c1.638-0.015,3.04-0.406,4.14-1.095c0.688,3.455,2.88,5.518,5.947,5.518c0.364,0,0.737-0.031,1.112-0.092   c1.698-0.278,3.119-1.147,4-2.445c0.787-1.159,1.13-2.633,1.024-4.304h1.195c3.112,3.567,8.099,6.863,15.991,7.137   c0.33,0.011,0.658,0.018,0.978,0.018c8.188,0,13.012-3.669,15.644-6.815c3.053-3.655,4.362-8.035,4.359-9.878   c0.002-0.035,0.009-0.066,0.009-0.1C80.336,60.217,77.26,58.969,74.457,58.251z M77.583,47.898c0.129-0.181,0.33-0.285,0.553-0.285   c0.099,0,0.246,0.022,0.394,0.125c0.304,0.218,0.375,0.643,0.146,0.961L67.818,64.554c-0.003,0-0.008,0-0.011,0.001   c-0.235-0.04-0.439-0.041-0.552-0.041c-0.428,0-0.879,0.06-1.316,0.117c-0.107,0.014-0.215,0.029-0.321,0.041L77.583,47.898z    M36.415,27.675v4.352c0,1.67-1.653,3.029-3.688,3.029h-3.694L36.415,27.675z M25.909,71.951h-0.085   c-2.811,0-5.199-1.456-5.216-3.18c-0.011-1.031,0.826-1.781,1.327-2.136c1.006-0.717,2.431-1.136,3.993-1.151   c2.509,0,3.903,1.133,3.923,3.194C29.872,70.763,28.472,71.926,25.909,71.951z M38.758,75.094   c-0.558,0.821-1.443,1.119-2.089,1.226c-0.22,0.035-0.438,0.054-0.646,0.054c-2.167,0-2.932-1.877-3.189-3.452   c-0.24-1.458-0.073-2.935,0.458-4.048c0.264-0.555,0.86-1.508,1.876-1.676c0.102-0.017,0.203-0.024,0.305-0.024   c1.427,0,3.264,1.796,3.741,4.699C39.435,73.217,39.277,74.331,38.758,75.094z M34.702,64.363   c-0.998,0.165-1.913,0.658-2.675,1.402c-0.854-1.609-2.451-2.688-4.571-3.033V37.608h5.635c3.303,0,5.991-2.502,5.991-5.577v-6.367   h19.271c1.051,0,1.906,1.04,1.906,2.319v28.734c0.152,0,0.298,0.012,0.45,0.013c-0.431-0.008-0.854-0.021-1.291-0.021   c-4.929,0-9.583,0.405-13.221,1.134H31.108c-0.323,0-0.586,0.263-0.586,0.586s0.263,0.586,0.586,0.586h10.87   c-0.881,0.357-1.682,0.798-2.296,1.343h-8.574c-0.323,0-0.586,0.263-0.586,0.585c0,0.325,0.263,0.587,0.586,0.587h7.673   c-0.176,0.375-0.282,0.782-0.282,1.236c0,0.037,0.006,0.071,0.009,0.108h-7.4c-0.323,0-0.586,0.262-0.586,0.585   s0.263,0.585,0.586,0.585h7.658c0.154,0.526,0.393,1.25,0.743,2.099C38.165,64.782,36.459,64.072,34.702,64.363z M42.934,62.768   c2.019-0.949,7.682-2.225,16.483-2.225c2.457,0,4.646,0.104,6.601,0.269l-2.867,4.021l-0.052,0.079   c-1.161,0.05-2.383,0.081-3.681,0.081C50.616,64.992,44.953,63.715,42.934,62.768z M59.479,75.714   c-8.628-0.299-13.038-4.775-15.216-8.46c0.447,0.118,0.888,0.222,1.31,0.314c3.719,0.81,8.635,1.256,13.844,1.256   c5.208,0,10.126-0.446,13.844-1.256c0.586-0.128,1.209-0.276,1.833-0.455C73.196,70.979,68.898,76.048,59.479,75.714z    M70.379,64.206l1.747-2.552c1.745,0.361,3.021,0.76,3.773,1.114C74.914,63.231,73.05,63.772,70.379,64.206z"/>
</g>
<g>
	<path fill="#000000" d="M1389.247,24.083h-27.852h-1.318c-0.007,0-0.731-0.065-1.763-0.065c-2.911,0-7.819,0.499-7.988,3.853   v41.816c0,2.761,2.125,5.009,4.738,5.009h31.066c2.126,0,3.987-1.421,4.559-3.467c1.944-0.624,3.295-2.465,3.295-4.511V28.819   C1393.983,26.208,1391.858,24.083,1389.247,24.083z M1386.129,27.324h-31.567c-0.323,0-0.548-0.164-0.548-0.312   s0.225-0.312,0.548-0.312h34.684c1.168,0,2.119,0.951,2.119,2.119v37.899c0,0.505-0.179,0.986-0.5,1.366V32.06   C1390.866,29.448,1388.741,27.324,1386.129,27.324z M1386.129,29.941c1.168,0,2.119,0.951,2.119,2.119v37.899   c0,1.168-0.95,2.119-2.119,2.119h-26.044l-5.022-0.137c-1.169,0-2.12-1.012-2.12-2.255V29.61c0.787,0.133,1.875,0.211,3.387,0.243   l0,0.027L1386.129,29.941z"/>
	<g>
		<path fill="#000000" d="M1369.485,57.013c0,0.381-0.31,0.692-0.692,0.692h-13.234c-0.383,0-0.693-0.311-0.693-0.692l0,0    c0-0.383,0.31-0.693,0.693-0.693h13.234C1369.175,56.32,1369.485,56.63,1369.485,57.013L1369.485,57.013z"/>
		<path fill="#000000" d="M1369.485,59.906c0,0.383-0.31,0.692-0.692,0.692h-13.234c-0.383,0-0.693-0.31-0.693-0.692l0,0    c0-0.382,0.31-0.691,0.693-0.691h13.234C1369.175,59.214,1369.485,59.524,1369.485,59.906L1369.485,59.906z"/>
		<path fill="#000000" d="M1369.485,62.8c0,0.382-0.31,0.692-0.692,0.692h-13.234c-0.383,0-0.693-0.31-0.693-0.692l0,0    c0-0.382,0.31-0.693,0.693-0.693h13.234C1369.175,62.107,1369.485,62.417,1369.485,62.8L1369.485,62.8z"/>
		<path fill="#000000" d="M1369.485,65.693c0,0.382-0.31,0.691-0.692,0.691h-13.234c-0.383,0-0.693-0.31-0.693-0.691l0,0    c0-0.383,0.31-0.694,0.693-0.694h13.234C1369.175,65,1369.485,65.31,1369.485,65.693L1369.485,65.693z"/>
		<path fill="#000000" d="M1369.485,68.586c0,0.382-0.31,0.692-0.692,0.692h-13.234c-0.383,0-0.693-0.31-0.693-0.692l0,0    c0-0.383,0.31-0.692,0.693-0.692h13.234C1369.175,67.895,1369.485,68.204,1369.485,68.586L1369.485,68.586z"/>
	</g>
	<rect x="1371.49" y="56.32" fill="#000000" width="14.619" height="12.958"/>
	<rect x="1354.865" y="44.497" fill="#000000" width="14.619" height="10.065"/>
	<path fill="#000000" d="M1386.109,45.19c0,0.381-0.311,0.691-0.692,0.691h-13.235c-0.382,0-0.692-0.31-0.692-0.691l0,0   c0-0.383,0.31-0.693,0.692-0.693h13.235C1385.799,44.497,1386.109,44.808,1386.109,45.19L1386.109,45.19z"/>
	<path fill="#000000" d="M1386.109,48.083c0,0.382-0.311,0.691-0.692,0.691h-13.235c-0.382,0-0.692-0.309-0.692-0.691l0,0   c0-0.383,0.31-0.693,0.692-0.693h13.235C1385.799,47.391,1386.109,47.7,1386.109,48.083L1386.109,48.083z"/>
	<path fill="#000000" d="M1386.109,50.976c0,0.383-0.311,0.693-0.692,0.693h-13.235c-0.382,0-0.692-0.31-0.692-0.693l0,0   c0-0.382,0.31-0.691,0.692-0.691h13.235C1385.799,50.285,1386.109,50.594,1386.109,50.976L1386.109,50.976z"/>
	<path fill="#000000" d="M1386.109,53.871c0,0.382-0.311,0.692-0.692,0.692h-13.235c-0.382,0-0.692-0.31-0.692-0.692l0,0   c0-0.383,0.31-0.693,0.692-0.693h13.235C1385.799,53.177,1386.109,53.488,1386.109,53.871L1386.109,53.871z"/>
	<path fill="#000000" d="M1385.417,41.405h-4.996h-8.239h-3.39h-1.606h-11.628c-0.383,0-0.693,0.31-0.693,0.693   c0,0.382,0.31,0.691,0.693,0.691h11.628h1.606h3.39h8.239h4.996c0.383,0,0.692-0.31,0.692-0.691   C1386.109,41.714,1385.8,41.405,1385.417,41.405z"/>
	<rect x="1371.49" y="31.381" fill="#000000" width="14.619" height="8.45"/>
	<path fill="#000000" d="M1369.484,33.82c0,0.704-0.31,1.274-0.692,1.274h-13.234c-0.383,0-0.693-0.57-0.693-1.274l0,0   c0-0.703,0.31-1.273,0.693-1.273h13.234C1369.175,32.547,1369.484,33.118,1369.484,33.82L1369.484,33.82z"/>
	<path fill="#000000" d="M1369.484,37.393c0,0.704-0.31,1.273-0.692,1.273h-13.234c-0.383,0-0.693-0.569-0.693-1.273l0,0   c0-0.704,0.31-1.274,0.693-1.274h13.234C1369.175,36.119,1369.484,36.689,1369.484,37.393L1369.484,37.393z"/>
</g>
<g>
	<path fill="#000000" d="M1266.346,24.586h-27.851h-1.318c-0.007,0-0.732-0.065-1.763-0.065c-2.91,0-7.818,0.499-7.988,3.853v41.816   c0,2.761,2.125,5.009,4.737,5.009h31.066c2.127,0,3.988-1.421,4.559-3.467c1.944-0.624,3.295-2.465,3.295-4.511V29.322   C1271.083,26.71,1268.958,24.586,1266.346,24.586z M1268.466,67.221c0,0.505-0.18,0.986-0.5,1.366V42.991   c-0.297,1.083-1.901,1.211-2.283,0.022c-0.093-0.289-0.209-0.556-0.334-0.815v28.265c0,1.168-0.951,2.119-2.12,2.119h-26.044   l-0.007-0.137h-5.015c-1.168,0-2.12-1.012-2.12-2.255V30.113c0.787,0.133,1.875,0.211,3.387,0.243l-0.001,0.027l21.797,0.043   c-0.8-0.252-1.577-0.564-2.289-0.951c-0.668-0.361-0.714-1.122-0.377-1.65h-20.899c-0.323,0-0.548-0.164-0.548-0.312   s0.225-0.312,0.548-0.312h34.684c1.169,0,2.12,0.951,2.12,2.119V67.221z"/>
	<path fill="#000000" d="M1265.375,42.531l-0.026,1.584c1.069-0.083,1.549-0.146,2.617-0.181v-1.339c0,0-0.124-1.199-0.571-1.678   l-11.634-12.505c-0.5-0.536-1.711-0.61-1.711-0.61l-1.711,0.006c-0.001,1.169-0.062,1.441-0.209,2.613l2.448-0.018l0.028,6.892   c0,2.887,2.347,5.235,5.233,5.235L1265.375,42.531z M1256.934,37.292v-4.085l6.448,6.928h-3.227   C1258.378,40.135,1256.934,38.86,1256.934,37.292z"/>
	<path fill="#000000" d="M1230.458,74.773c0.186-0.373,0.366-0.747,0.54-1.124c-0.553,0.315-1.284,0.116-1.607-0.434   c-0.202,0.124-0.441,0.165-0.679,0.149C1229.193,73.972,1229.789,74.455,1230.458,74.773z"/>
	<g>
		<path fill="#000000" d="M1246.807,57.469c0,0.384-0.311,0.693-0.692,0.693h-13.235c-0.382,0-0.693-0.309-0.693-0.693l0,0    c0-0.382,0.311-0.691,0.693-0.691h13.235C1246.496,56.778,1246.807,57.087,1246.807,57.469L1246.807,57.469z"/>
		<path fill="#000000" d="M1246.807,60.363c0,0.382-0.311,0.692-0.692,0.692h-13.235c-0.382,0-0.693-0.31-0.693-0.692l0,0    c0-0.383,0.311-0.693,0.693-0.693h13.235C1246.496,59.67,1246.807,59.98,1246.807,60.363L1246.807,60.363z"/>
		<path fill="#000000" d="M1246.807,63.256c0,0.382-0.311,0.692-0.692,0.692h-13.235c-0.382,0-0.693-0.31-0.693-0.692l0,0    c0-0.383,0.311-0.692,0.693-0.692h13.235C1246.496,62.564,1246.807,62.873,1246.807,63.256L1246.807,63.256z"/>
		<path fill="#000000" d="M1246.807,66.15c0,0.383-0.311,0.692-0.692,0.692h-13.235c-0.382,0-0.693-0.309-0.693-0.692l0,0    c0-0.383,0.311-0.693,0.693-0.693h13.235C1246.496,65.457,1246.807,65.767,1246.807,66.15L1246.807,66.15z"/>
		<path fill="#000000" d="M1246.807,69.044c0,0.381-0.311,0.691-0.692,0.691h-13.235c-0.382,0-0.693-0.31-0.693-0.691l0,0    c0-0.383,0.311-0.693,0.693-0.693h13.235C1246.496,68.351,1246.807,68.661,1246.807,69.044L1246.807,69.044z"/>
	</g>
	<rect x="1248.812" y="56.778" fill="#000000" width="14.619" height="12.958"/>
	<rect x="1232.187" y="44.956" fill="#000000" width="14.62" height="10.063"/>
	<path fill="#000000" d="M1263.431,45.646c0,0.383-0.31,0.692-0.692,0.692h-13.235c-0.382,0-0.692-0.31-0.692-0.692l0,0   c0-0.382,0.31-0.691,0.692-0.691h13.235C1263.121,44.956,1263.431,45.265,1263.431,45.646L1263.431,45.646z"/>
	<path fill="#000000" d="M1263.431,48.541c0,0.381-0.31,0.692-0.692,0.692h-13.235c-0.382,0-0.692-0.311-0.692-0.692l0,0   c0-0.383,0.31-0.692,0.692-0.692h13.235C1263.121,47.848,1263.431,48.158,1263.431,48.541L1263.431,48.541z"/>
	<path fill="#000000" d="M1263.431,51.434c0,0.381-0.31,0.692-0.692,0.692h-13.235c-0.382,0-0.692-0.311-0.692-0.692l0,0   c0-0.383,0.31-0.693,0.692-0.693h13.235C1263.121,50.741,1263.431,51.051,1263.431,51.434L1263.431,51.434z"/>
	<path fill="#000000" d="M1263.431,54.326c0,0.383-0.31,0.693-0.692,0.693h-13.235c-0.382,0-0.692-0.31-0.692-0.693l0,0   c0-0.381,0.31-0.691,0.692-0.691h13.235C1263.121,53.635,1263.431,53.945,1263.431,54.326L1263.431,54.326z"/>
	<path fill="#000000" d="M1256.729,43.074c-0.51-0.279-1.196-0.696-1.745-1.212h-22.104c-0.382,0-0.693,0.31-0.693,0.692   c0,0.382,0.311,0.692,0.693,0.692h24.247C1256.994,43.188,1256.855,43.143,1256.729,43.074z"/>
	<path fill="#000000" d="M1257.352,40.289h1.225c-1.008-0.374-1.871-1.026-2.454-2.15c0.041,0.361,0.115,0.708,0.226,1.037   C1256.598,39.575,1256.932,39.924,1257.352,40.289z"/>
	<path fill="#000000" d="M1253.21,31.838h-4.399v8.451h4.95C1252.732,37.896,1253.431,34.343,1253.21,31.838z"/>
	<path fill="#000000" d="M1246.807,34.278c0,0.703-0.311,1.273-0.693,1.273h-13.234c-0.382,0-0.693-0.57-0.693-1.273l0,0   c0-0.704,0.311-1.274,0.693-1.274h13.234C1246.496,33.004,1246.807,33.574,1246.807,34.278L1246.807,34.278z"/>
	<path fill="#000000" d="M1246.807,37.85c0,0.703-0.311,1.273-0.693,1.273h-13.234c-0.382,0-0.693-0.57-0.693-1.273l0,0   c0-0.705,0.311-1.275,0.693-1.275h13.234C1246.496,36.575,1246.807,37.146,1246.807,37.85L1246.807,37.85z"/>
</g>
<g>
	<path fill="#000000" d="M1519.989,33.915l-1.413-0.204v-1.489c0-1.698-1.316-3.221-2.998-3.465l-21.636-3.141   c-0.58-0.085-1.215-0.102-1.646-0.102c-0.819,0-1.634,0.062-2.235,0.173l-27.535,5.039c-1.645,0.301-2.933,1.847-2.933,3.519   v27.356c-0.625,13.765,2.286,13.992,3.244,14.066c0.139,0.011,0.291,0.018,0.451,0.018c0.336,0,0.709-0.033,1.087-0.152   c0.75-0.174,6.843-1.609,10.583-2.732l20.268-6.095c0.624-0.188,1.934-0.237,2.565-0.1l21.678,4.723   c0.224,0.05,0.449,0.074,0.672,0.074c1.623,0,2.846-1.25,2.846-2.905V37.378C1522.986,35.681,1521.67,34.16,1519.989,33.915z    M1463.397,72.648c-0.494-0.961-0.818-4.137-0.838-7.761c0.024-0.235,0.044-0.467,0.057-0.703c0.001-0.015,0.006-0.022,0.008-0.035   V34.243c0-0.213,0.239-0.5,0.448-0.538l27.534-5.039c0.423-0.077,1.055-0.124,1.69-0.124c0.467,0,0.897,0.025,1.21,0.071   l21.636,3.144c0.192,0.027,0.403,0.27,0.403,0.464v1.049l-17.193-2.498c-0.58-0.084-1.214-0.102-1.646-0.102   c-0.819,0-1.634,0.063-2.235,0.173l-27.534,5.038c-1.645,0.3-2.934,1.848-2.934,3.518v25.156c0,2.562,0,7.294-0.561,8.087   C1463.431,72.644,1463.416,72.645,1463.397,72.648z M1519.954,68.333l-21.518-4.69c-0.587-0.128-1.215-0.154-1.639-0.154   c-0.893,0-1.783,0.116-2.445,0.314l-18.35,5.515c-0.029,0.007-7.838,1.874-9.219,2.291c0.157-1.237,0.222-2.883,0.242-5.112   c0.003-0.002,0.006-0.004,0.009-0.005v-27.09c0-0.21,0.239-0.497,0.448-0.537l27.535-5.038c0.422-0.078,1.055-0.124,1.689-0.124   c0.469,0,0.898,0.025,1.211,0.071l21.637,3.143c0.191,0.027,0.402,0.271,0.402,0.463L1519.954,68.333z"/>
	<path fill="#000000" d="M1469.446,42.431c0-0.678,0.545-1.329,1.212-1.448l24.662-4.418c0.667-0.12,1.76-0.127,2.428-0.016   l18.862,3.111c0.668,0.11,1.216,0.754,1.216,1.431v3.622c0,0.677-0.548,1.144-1.217,1.038l-18.715-2.981   c-0.668-0.105-1.761-0.093-2.428,0.029l-24.809,4.553c-0.667,0.122-1.211-0.333-1.211-1.009V42.431z"/>
	<g>
		<path fill="#000000" d="M1516.321,48.461c0,0.5-0.365,0.849-0.814,0.781l-15.57-2.391c-0.45-0.069-0.818-0.514-0.822-0.995l0,0    c-0.003-0.481,0.359-0.816,0.809-0.748l15.582,2.324C1515.956,47.502,1516.321,47.962,1516.321,48.461L1516.321,48.461z"/>
		<path fill="#000000" d="M1516.321,52.246c0,0.5-0.365,0.847-0.813,0.773l-15.544-2.522c-0.449-0.073-0.816-0.521-0.82-1.003l0,0    c-0.004-0.481,0.358-0.812,0.807-0.741l15.556,2.46C1515.957,51.283,1516.321,51.746,1516.321,52.246L1516.321,52.246z"/>
		<path fill="#000000" d="M1516.321,56.029c0,0.501-0.364,0.844-0.812,0.767l-15.519-2.657c-0.448-0.078-0.815-0.528-0.819-1.01l0,0    c-0.003-0.48,0.357-0.81,0.806-0.735l15.532,2.594C1515.957,55.064,1516.321,55.53,1516.321,56.029L1516.321,56.029z"/>
		<path fill="#000000" d="M1516.321,59.814c0,0.5-0.363,0.84-0.811,0.759l-15.494-2.79c-0.448-0.079-0.813-0.535-0.818-1.016l0,0    c-0.003-0.482,0.357-0.807,0.806-0.727l15.505,2.726C1515.958,58.843,1516.321,59.314,1516.321,59.814L1516.321,59.814z"/>
		<path fill="#000000" d="M1516.321,63.599c0,0.5-0.362,0.837-0.81,0.752l-15.469-2.922c-0.446-0.086-0.812-0.543-0.815-1.023l0,0    c-0.004-0.481,0.355-0.805,0.802-0.721l15.482,2.859C1515.958,62.626,1516.321,63.098,1516.321,63.599L1516.321,63.599z"/>
	</g>
	<g>
		<path fill="#000000" d="M1496.275,45.461c0,0.499-0.405,1-0.905,1.119l-17.309,4.09c-0.5,0.117-0.905-0.203-0.905-0.717l0,0    c0-0.515,0.405-1.025,0.905-1.144l17.309-4.043C1495.87,44.649,1496.275,44.961,1496.275,45.461L1496.275,45.461z"/>
		<path fill="#000000" d="M1496.275,49.245c0,0.5-0.405,1.002-0.905,1.124l-17.309,4.187c-0.5,0.121-0.905-0.198-0.905-0.711l0,0    c0-0.515,0.405-1.028,0.905-1.148l17.309-4.14C1495.87,48.436,1496.275,48.744,1496.275,49.245L1496.275,49.245z"/>
		<path fill="#000000" d="M1496.275,53.028c0,0.501-0.405,1.006-0.905,1.13l-17.309,4.283c-0.5,0.124-0.905-0.191-0.905-0.707l0,0    c0-0.515,0.405-1.03,0.905-1.152l17.309-4.238C1495.87,52.222,1496.275,52.529,1496.275,53.028L1496.275,53.028z"/>
		<path fill="#000000" d="M1496.275,56.812c0,0.5-0.405,1.008-0.905,1.136l-17.309,4.38c-0.5,0.125-0.905-0.188-0.905-0.702l0,0    c0-0.515,0.405-1.034,0.905-1.158l17.309-4.334C1495.87,56.008,1496.275,56.313,1496.275,56.812L1496.275,56.812z"/>
		<path fill="#000000" d="M1496.275,60.597c0,0.5-0.405,1.01-0.905,1.139l-17.309,4.477c-0.5,0.131-0.905-0.181-0.905-0.695l0,0    c0-0.514,0.405-1.036,0.905-1.163l17.309-4.432C1495.87,59.795,1496.275,60.098,1496.275,60.597L1496.275,60.597z"/>
	</g>
	<path fill="#000000" d="M1470.191,51.568c0.019-0.677,0.579-1.329,1.246-1.448l3.209-0.574c0.667-0.118,1.194,0.338,1.17,1.016   l-0.545,15.897c-0.024,0.678-0.579,1.372-1.234,1.543l-3.127,0.817c-0.655,0.172-1.176-0.243-1.159-0.92L1470.191,51.568z"/>
</g>
<g>
	<path fill="#000000" d="M1124.511,58.072c0.129,0.59,0.363,0.989,0.634,0.989h9.501c0.271,0,0.507-0.399,0.638-0.992   c4.645-1.798,7.889-5.937,7.889-11.348h-26.553C1116.619,52.136,1119.865,56.271,1124.511,58.072z"/>
	<polygon fill="#000000" points="1134.866,45.259 1137.906,45.259 1144.866,38.3 1143.172,36.953  "/>
	<path fill="#000000" d="M1157.537,40.068c1.527,0,2.77-1.243,2.77-2.77v-6.49c0-1.527-1.242-2.77-2.77-2.77h-2.339v-1.545   c0-2.801-2.279-5.081-5.081-5.081h-29.878l-1.414,0c-0.008,0-0.785-0.07-1.891-0.07c-3.123,0-8.388,0.536-8.569,4.134v44.858   c0,2.963,2.28,5.374,5.082,5.374h33.326c2.283,0,4.279-1.525,4.891-3.72c2.058-0.66,3.492-2.592,3.531-4.749h2.343   c1.527,0,2.77-1.243,2.77-2.771v-6.488c0-1.528-1.242-2.771-2.77-2.771h-2.339v-1.817h2.339c1.527,0,2.77-1.244,2.77-2.77v-6.489   c0-1.527-1.242-2.77-2.77-2.77h-2.339v-1.297H1157.537z M1149.046,70.627c0,1.254-1.021,2.274-2.274,2.274h-27.938l-5.388-0.146   c-1.253,0-2.274-1.086-2.274-2.42V27.344c0.845,0.142,2.011,0.226,3.633,0.261l-0.001,0.029l31.967,0.064   c1.254,0,2.274,1.02,2.274,2.273V70.627z M1151.854,29.971c0-2.802-2.28-5.081-5.083-5.081h-33.862   c-0.347,0-0.588-0.177-0.588-0.335s0.241-0.334,0.588-0.334h37.207c1.248,0,2.262,1.011,2.272,2.256v1.389   c0,1.527,1.241,2.769,2.77,2.769h2.378c0.093,0,0.174,0.082,0.174,0.174v6.49c0,0.093-0.081,0.174-0.174,0.174h-2.378   c-1.528,0-2.77,1.242-2.77,2.77v0.075v0.875v0.91h0.001v11.292h-0.001v0.174v1.47v0.391h0.001V67.15   c0,0.542-0.192,1.057-0.536,1.464V39.651C1151.816,39.5,1151.854,29.971,1151.854,29.971z M1157.537,57.809   c0.093,0,0.174,0.081,0.174,0.173v6.488c0,0.093-0.081,0.175-0.174,0.175h-2.339v-6.836H1157.537z M1157.537,43.962   c0.093,0,0.174,0.081,0.174,0.173v6.489c0,0.093-0.081,0.174-0.174,0.174h-2.339v-6.837H1157.537z"/>
</g>
<g>
	<path fill="#000000" d="M-34.994,32.88l-2.626-2.626c-1.409-1.409-3.703-1.409-5.113,0l-1.369,1.369l-1.046-1.045l-7.439,7.439   l0.917,0.918l-14.816,14.816l-0.274,0.569c0,0-5.245,10.99-5.229,11.004c-0.016,0.098-0.028,0.197-0.028,0.298   c0,0.922,0.746,1.669,1.668,1.669c0.084,0,0.163-0.01,0.243-0.023c0.089-0.021,0.177-0.047,0.265-0.065   c0.017-0.006,0.036-0.01,0.054-0.016l-0.02,0.01l0,0l10.747-5.176l0.57-0.275l0.745-0.744l14.072-14.071l0.917,0.915l7.439-7.438   l-1.046-1.046l1.37-1.368C-33.584,36.583-33.584,34.29-34.994,32.88z M-66.73,62.937l-0.947-0.946l2.764-5.752l3.944,3.943   L-66.73,62.937z M-58.914,58.63l-4.456-4.456l13.468-13.47l4.458,4.458L-58.914,58.63z M-42.758,44.309l-6.291-6.291l3.9-3.9   l6.291,6.29L-42.758,44.309z M-36.765,36.224l-1.368,1.37l-4.2-4.201l1.369-1.37c0.434-0.434,1.14-0.434,1.574,0l2.625,2.627   C-36.329,35.083-36.329,35.789-36.765,36.224z"/>
	<rect x="-100.363" y="64.217" fill="#000000" width="6.152" height="3.075"/>
	<rect x="-90.979" y="64.217" fill="#000000" width="6.151" height="3.075"/>
	<rect x="-80.97" y="64.217" fill="#000000" width="6.151" height="3.075"/>
</g>
<g>
	<path fill="#000000" d="M-295.084,24.291h-25.671h-1.217c-0.006,0-0.675-0.06-1.623-0.06c-2.685,0-7.208,0.46-7.365,3.551v38.545   c0,2.547,1.959,4.619,4.366,4.619h28.638c1.961,0,3.676-1.31,4.201-3.197c1.793-0.575,3.038-2.272,3.038-4.158V28.657   C-290.717,26.25-292.677,24.291-295.084,24.291z M-296.004,66.579c0,1.077-0.876,1.954-1.952,1.954h-24.007l-4.631-0.126   c-1.075,0-1.953-0.933-1.953-2.079V29.386c0.727,0.123,1.729,0.195,3.123,0.224l-0.002,0.025l17.236,0.034c0,0,0,0,0,0h0.025   l2.231,0.004l0.026,6.332c0,2.662,2.163,4.827,4.821,4.827h5.081V66.579z M-303.761,36.004v-3.767l5.943,6.388h-2.973   C-302.429,38.625-303.761,37.449-303.761,36.004z M-293.13,63.591c0,0.465-0.165,0.909-0.46,1.259V42.127v-0.87v-0.365   c0,0-0.114-1.105-0.528-1.548l-10.723-11.525c-0.461-0.495-1.578-0.563-1.578-0.563l-1.577,0.007c0,0.006,0,0.011,0,0.017h-19.058   c-0.298,0-0.506-0.152-0.506-0.288c0-0.135,0.208-0.288,0.506-0.288h31.97c1.078,0,1.954,0.877,1.954,1.954V63.591z"/>
	<path fill="#000000" d="M-313.733,53.965h-12.199c-0.353,0-0.639,0.286-0.639,0.637c0,0.354,0.286,0.639,0.639,0.639h12.199   c0.353,0,0.639-0.285,0.639-0.639C-313.095,54.25-313.381,53.965-313.733,53.965z"/>
	<path fill="#000000" d="M-313.733,56.632h-12.199c-0.353,0-0.639,0.285-0.639,0.639c0,0.352,0.286,0.637,0.639,0.637h12.199   c0.353,0,0.639-0.286,0.639-0.637C-313.095,56.917-313.381,56.632-313.733,56.632z"/>
	<path fill="#000000" d="M-313.733,59.299h-12.199c-0.353,0-0.639,0.285-0.639,0.638c0,0.351,0.286,0.639,0.639,0.639h12.199   c0.353,0,0.639-0.288,0.639-0.639C-313.095,59.584-313.381,59.299-313.733,59.299z"/>
	<path fill="#000000" d="M-313.733,61.966h-12.199c-0.353,0-0.639,0.285-0.639,0.638s0.286,0.637,0.639,0.637h12.199   c0.353,0,0.639-0.284,0.639-0.637S-313.381,61.966-313.733,61.966z"/>
	<path fill="#000000" d="M-313.733,64.633h-12.199c-0.353,0-0.639,0.286-0.639,0.639c0,0.351,0.286,0.637,0.639,0.637h12.199   c0.353,0,0.639-0.286,0.639-0.637C-313.095,64.919-313.381,64.633-313.733,64.633z"/>
	<rect x="-311.246" y="53.965" fill="#000000" width="13.474" height="11.944"/>
	<rect x="-326.571" y="43.066" fill="#000000" width="13.477" height="9.279"/>
	<path fill="#000000" d="M-311.247,43.705c0,0.353,0.286,0.639,0.639,0.639h12.199c0.352,0,0.637-0.286,0.637-0.639   c0-0.352-0.285-0.639-0.637-0.639h-12.199C-310.961,43.066-311.247,43.353-311.247,43.705z"/>
	<path fill="#000000" d="M-298.409,45.734h-12.199c-0.353,0-0.639,0.286-0.639,0.638s0.286,0.638,0.639,0.638h12.199   c0.352,0,0.637-0.286,0.637-0.638S-298.058,45.734-298.409,45.734z"/>
	<path fill="#000000" d="M-298.409,48.4h-12.199c-0.353,0-0.639,0.286-0.639,0.64c0,0.353,0.286,0.637,0.639,0.637h12.199   c0.352,0,0.637-0.284,0.637-0.637C-297.772,48.686-298.058,48.4-298.409,48.4z"/>
	<path fill="#000000" d="M-298.409,51.069h-12.199c-0.353,0-0.639,0.284-0.639,0.638c0,0.352,0.286,0.639,0.639,0.639h12.199   c0.352,0,0.637-0.287,0.637-0.639C-297.772,51.353-298.058,51.069-298.409,51.069z"/>
	<polygon fill="#000000" points="-325.328,34.866 -325.319,34.866 -323.416,37.55 -322.447,37.352 -322.447,32.277 -323.725,32.277    -323.69,34.849 -323.699,34.849 -325.525,32.277 -326.571,32.277 -326.571,37.438 -325.294,37.438  "/>
	<polygon fill="#000000" points="-318.381,36.238 -319.991,36.238 -319.991,35.423 -318.715,35.423 -318.715,34.284    -319.991,34.284 -319.991,33.478 -318.534,33.478 -318.534,32.277 -321.415,32.277 -321.415,37.438 -318.381,37.438  "/>
	<polygon fill="#000000" points="-315.531,37.438 -314.615,34.327 -314.606,34.327 -313.731,37.438 -312.3,37.438 -311.126,32.277    -312.488,32.277 -312.994,35.296 -313.003,35.296 -313.817,32.277 -315.283,32.277 -316.14,35.296 -316.149,35.296    -316.681,32.148 -318.06,32.405 -316.912,37.438  "/>
	<path fill="#000000" d="M-309.252,36.298c-0.404,0-0.799-0.163-1.141-0.344l-0.472,1.202c0.574,0.282,1.08,0.385,1.74,0.385   c1.124,0,1.886-0.822,1.886-1.869c0-0.642-0.462-1.089-1.089-1.319l-0.566-0.206c-0.248-0.094-0.487-0.146-0.487-0.412   c0-0.231,0.223-0.342,0.573-0.342c0.353,0,0.695,0.162,0.951,0.29l0.472-1.157c-0.462-0.205-0.873-0.352-1.499-0.352   c-0.969,0-1.903,0.617-1.903,1.672c0,0.856,0.454,1.26,1.071,1.492l0.549,0.205c0.334,0.128,0.497,0.197,0.497,0.429   C-308.67,36.187-308.884,36.298-309.252,36.298z"/>
	<path fill="#000000" d="M-325.932,40.828h19.94c-0.091-0.117-0.178-0.243-0.258-0.381c-0.206-0.238-0.384-0.495-0.51-0.781   c-0.016-0.038-0.025-0.076-0.041-0.114h-19.132c-0.354,0-0.64,0.287-0.64,0.639C-326.571,40.542-326.285,40.828-325.932,40.828z"/>
</g>
<g>
	<polygon fill="#000000" points="-198.895,34.949 -200.461,34.949 -200.461,42.679 -198.547,42.679 -198.6,38.826 -198.588,38.826    -195.737,42.845 -194.286,42.55 -194.286,34.949 -196.199,34.949 -196.146,38.801 -196.161,38.801  "/>
	<polygon fill="#000000" points="-188.428,36.746 -188.428,34.949 -192.741,34.949 -192.741,42.679 -188.195,42.679    -188.195,40.882 -190.607,40.882 -190.607,39.66 -188.695,39.66 -188.695,37.953 -190.607,37.953 -190.607,36.746  "/>
	<polygon fill="#000000" points="-182.556,38.016 -182.542,38.016 -181.231,42.679 -179.089,42.679 -177.329,34.949    -179.371,34.949 -180.128,39.469 -180.141,39.469 -181.362,34.949 -183.557,34.949 -184.841,39.469 -184.854,39.469    -185.649,34.753 -187.716,35.142 -185.996,42.679 -183.929,42.679  "/>
	<path fill="#000000" d="M-174.523,40.971c-0.604,0-1.196-0.243-1.708-0.515l-0.707,1.801c0.861,0.422,1.617,0.576,2.607,0.576   c1.681,0,2.825-1.235,2.825-2.799c0-0.962-0.695-1.631-1.632-1.977l-0.85-0.31c-0.372-0.141-0.731-0.217-0.731-0.614   c0-0.349,0.336-0.515,0.862-0.515c0.527,0,1.039,0.245,1.425,0.437l0.705-1.732c-0.692-0.311-1.309-0.528-2.245-0.528   c-1.451,0-2.853,0.924-2.853,2.502c0,1.286,0.683,1.888,1.606,2.237l0.822,0.306c0.5,0.193,0.743,0.295,0.743,0.642   C-173.652,40.804-173.972,40.971-174.523,40.971z"/>
	<path fill="#000000" d="M-167.135,44.148h-16.032h-7.52h-15.076c-0.418,0-0.756,0.337-0.756,0.753c0,0.417,0.338,0.754,0.756,0.754   h16.031h7.521h15.076c0.417,0,0.754-0.338,0.754-0.754C-166.381,44.484-166.718,44.148-167.135,44.148z"/>
	<path fill="#000000" d="M-190.687,31.693h-15.076c-0.418,0-0.756,0.339-0.756,0.754c0,0.417,0.338,0.752,0.756,0.752h16.031h7.521   h15.076c0.417,0,0.754-0.337,0.754-0.752c0-0.417-0.337-0.754-0.754-0.754h-16.032H-190.687z"/>
	<rect x="-206.179" y="47.952" fill="#000000" width="18.463" height="10.958"/>
	<path fill="#000000" d="M-170.124,48.335h-14.41c-0.417,0-0.754,0.337-0.754,0.752c0,0.418,0.337,0.754,0.754,0.754h14.41   c0.415,0,0.752-0.336,0.752-0.754C-169.372,48.673-169.709,48.335-170.124,48.335z"/>
	<path fill="#000000" d="M-170.124,51.484h-14.41c-0.417,0-0.754,0.338-0.754,0.756c0,0.416,0.337,0.755,0.754,0.755h14.41   c0.415,0,0.752-0.339,0.752-0.755C-169.372,51.822-169.709,51.484-170.124,51.484z"/>
	<path fill="#000000" d="M-170.124,54.636h-14.41c-0.417,0-0.754,0.336-0.754,0.752c0,0.417,0.337,0.755,0.754,0.755h14.41   c0.415,0,0.752-0.337,0.752-0.755C-169.372,54.973-169.709,54.636-170.124,54.636z"/>
	<path fill="#000000" d="M-170.124,57.785h-14.41c-0.417,0-0.754,0.336-0.754,0.755c0,0.415,0.337,0.752,0.754,0.752h14.41   c0.415,0,0.752-0.338,0.752-0.752C-169.372,58.122-169.709,57.785-170.124,57.785z"/>
	<path fill="#000000" d="M-170.124,60.935h-7.845c-0.038-0.005-0.075-0.011-0.113-0.011h-12.935h-1.477h-12.933   c-0.415,0-0.753,0.336-0.753,0.754c0,0.415,0.338,0.753,0.753,0.753h12.933h1.477h6.354c0.042,0.007,0.085,0.013,0.129,0.013h14.41   c0.415,0,0.752-0.337,0.752-0.754C-169.372,61.273-169.709,60.935-170.124,60.935z"/>
	<path fill="#000000" d="M-170.124,64.313h-7.827c-0.043-0.008-0.087-0.013-0.131-0.013h-12.935h-1.477h-12.933   c-0.415,0-0.753,0.336-0.753,0.754c0,0.415,0.338,0.753,0.753,0.753h12.933h1.477h6.355c0.042,0.007,0.084,0.012,0.127,0.012h14.41   c0.415,0,0.752-0.336,0.752-0.754C-169.372,64.651-169.709,64.313-170.124,64.313z"/>
	<path fill="#000000" d="M-163.808,26.882h-4.35h-1.916h-33.381h-1.917h-4.349h-2.85v2.848v5.97h-4.278h-2.85v2.851v6.366v5.208   v15.738c0,2.644,2.116,4.828,4.832,5.122c0.024,0.012,0.049,0.024,0.074,0.036c0.055-0.004,0.106-0.013,0.161-0.018   c0.128,0.008,0.256,0.018,0.386,0.018h2.308h43.217h2.308c3.008,0,5.453-2.315,5.453-5.158V41.305v-9.266V29.73v-2.848H-163.808z    M-212.532,57.951l-0.055,2.461l-0.148,5.47c0,1.271-0.861,2.179-2.216,2.179c-1.007-0.287-1.748-1.159-1.748-2.198l-0.148-5.468   v-10.27v-1.433V38.551h4.278v2.754h0.016l0.021,12.191V57.951z M-163.808,34.345v6.96v19.089l-0.149,5.468   c0,1.271-1.101,2.307-2.455,2.307h-5.247h-35.334h-0.664h-0.724h-1.927c0.363-0.69,0.57-1.466,0.57-2.288v-7.314l0.017-7.905h0.001   v-0.501l0.019-9.409c-0.005,0.017-0.013,0.034-0.019,0.052v-5.284v-5.79h4.409c0,0.001,0,0.002,0,0.002h36.409   c0,0-0.001-0.001-0.001-0.002h5.095V34.345z"/>
</g>
<g>
	<path d="M-534.476,32.871c-1.848-7.001-8.143-11.933-15.524-11.933c-7.382,0-13.677,4.931-15.524,11.933   c-6.603,0.875-11.737,6.343-11.737,12.843c0,7.154,6.099,12.974,13.595,12.974h27.332c7.497,0,13.595-5.82,13.595-12.974   C-522.739,39.214-527.873,33.746-534.476,32.871z M-536.334,54.688h-27.332c-5.291,0-9.595-4.026-9.595-8.974   c0-4.852,4.224-8.873,9.415-8.964c0.968-0.017,1.784-0.724,1.939-1.679c0.953-5.871,5.96-10.133,11.907-10.133   s10.954,4.262,11.907,10.133c0.155,0.955,0.971,1.663,1.939,1.679c5.191,0.091,9.415,4.112,9.415,8.964   C-526.739,50.662-531.044,54.688-536.334,54.688z"/>
	<circle cx="-560.812" cy="65.375" r="2.938"/>
	<circle cx="-550" cy="65.375" r="2.938"/>
	<circle cx="-539.188" cy="65.375" r="2.938"/>
	<circle cx="-555.688" cy="74.125" r="2.938"/>
	<circle cx="-544.875" cy="74.125" r="2.938"/>
</g>
<g>
	<path d="M-408.81,47.204c-1.848-7.002-8.144-11.933-15.524-11.933c-1.191,0-2.35,0.141-3.471,0.386   c-2.633-3.642-6.9-6.025-11.729-6.025c-7.995,0-14.5,6.505-14.5,14.5c0,3.856,1.531,7.348,3.997,9.946   c-0.988,1.793-1.557,3.822-1.557,5.969c0,7.154,6.099,12.974,13.595,12.974h27.332c7.496,0,13.595-5.82,13.595-12.974   C-397.073,53.547-402.207,48.08-408.81,47.204z M-439.534,33.632c3.077,0,5.834,1.343,7.755,3.459   c-3.917,2.041-6.901,5.653-8.078,10.113c-2.979,0.395-5.653,1.73-7.697,3.668c-1.539-1.826-2.479-4.171-2.479-6.74   C-450.034,38.343-445.324,33.632-439.534,33.632z M-410.668,69.021H-438c-5.29,0-9.595-4.026-9.595-8.974   c0-4.852,4.224-8.873,9.415-8.964c0.968-0.017,1.784-0.724,1.939-1.679c0.953-5.872,5.96-10.133,11.906-10.133   s10.954,4.262,11.907,10.133c0.155,0.955,0.971,1.663,1.938,1.679c5.191,0.091,9.415,4.112,9.415,8.964   C-401.073,64.995-405.377,69.021-410.668,69.021z"/>
	<path d="M-453.551,27.787l-4-3.917c-0.79-0.773-2.056-0.759-2.828,0.03c-0.773,0.789-0.76,2.055,0.029,2.828l4,3.917   c0.39,0.381,0.895,0.571,1.399,0.571c0.519,0,1.037-0.201,1.429-0.601C-452.749,29.826-452.762,28.56-453.551,27.787z"/>
	<path d="M-459.089,44.395l-5.598,0.059c-1.104,0.011-1.99,0.916-1.979,2.021c0.011,1.098,0.905,1.979,2,1.979   c0.007,0,0.015,0,0.021,0l5.598-0.059c1.104-0.012,1.99-0.917,1.979-2.021S-457.989,44.381-459.089,44.395z"/>
	<path d="M-436.505,26.724c0.007,0,0.015,0,0.021,0c1.104-0.011,1.991-0.916,1.979-2.021l-0.059-5.599   c-0.011-1.104-0.905-1.991-2.021-1.979c-1.104,0.011-1.991,0.916-1.979,2.021l0.059,5.599   C-438.493,25.842-437.6,26.724-436.505,26.724z"/>
</g>
</svg>