<svg height='100px' width='100px'  fill="#000000" xmlns="http://www.w3.org/2000/svg" viewBox="0 0 48 48" x="0px" y="0px"><title>Document</title><g><path d="M43,6.94c0-.56.1-.26-6.28-6.65C36.28-.13,37.85,0,12,0a1,1,0,0,0-1,1V6H6A1,1,0,0,0,5,7V47a1,1,0,0,0,1,1H36a1,1,0,0,0,1-1V42h5a1,1,0,0,0,1-1C43,7.81,43,7.21,43,6.94ZM39.59,6H37V3.41ZM35,46H7V8H29v5a1,1,0,0,0,1,1h5ZM31,9.41,33.59,12H31ZM37,40c0-27.3.11-26.95-.1-27.41-.11-.26.39.28-6.19-6.3C30.28,5.87,31.05,6,13,6V2H35V7a1,1,0,0,0,1,1h5V40Z"></path><path d="M30,18H12a1,1,0,0,0,0,2H30A1,1,0,0,0,30,18Z"></path><path d="M30,23H12a1,1,0,0,0,0,2H30A1,1,0,0,0,30,23Z"></path><path d="M30,28H12a1,1,0,0,0,0,2H30A1,1,0,0,0,30,28Z"></path><path d="M30,33H12a1,1,0,0,0,0,2H30A1,1,0,0,0,30,33Z"></path><path d="M30,38H12a1,1,0,0,0,0,2H30A1,1,0,0,0,30,38Z"></path></g></svg>