<svg xmlns="http://www.w3.org/2000/svg" xmlns:xlink="http://www.w3.org/1999/xlink" version="1.1" x="0px" y="0px" viewBox="0 0 512 512" enable-background="new 0 0 512 512" xml:space="preserve"><path d="M448.5,416c0,65.969-99.531,96-192,96s-192-30.031-192-96c0-54.563,68.125-84.469,144-93.219v32.469  c-64.766,8.188-112,32.125-112,60.75c0,35.344,71.609,64,160,64c88.375,0,160-28.656,160-64c0-28.625-47.25-52.563-112-60.75  v-32.469C380.375,331.531,448.5,361.438,448.5,416z M256.5,0c-61.844,0-112,50.156-112,112c0,56.375,41.797,102.563,96,110.375V416  h32V222.375c54.188-7.813,96-54,96-110.375C368.5,50.156,318.344,0,256.5,0z M224.5,96c-17.688,0-32-14.313-32-32s14.313-32,32-32  s32,14.313,32,32S242.188,96,224.5,96z"></path></svg>