<svg xmlns="http://www.w3.org/2000/svg" xmlns:xlink="http://www.w3.org/1999/xlink" version="1.1" x="0px" y="0px" viewBox="0 0 100 100" style="enable-background:new 0 0 100 100;" xml:space="preserve"><path d="M67.5,58.5C58.4,58.5,51,65.9,51,75s7.4,16.5,16.5,16.5S84,84.1,84,75S76.6,58.5,67.5,58.5z M67.5,88.5  C60.1,88.5,54,82.4,54,75s6.1-13.5,13.5-13.5S81,67.6,81,75S74.9,88.5,67.5,88.5z M76.2,76c0,0.8-0.7,1.5-1.5,1.5h-8.2  c-0.8,0-1.5-0.7-1.5-1.5v-9.9c0-0.8,0.7-1.5,1.5-1.5s1.5,0.7,1.5,1.5v8.4h6.7C75.5,74.5,76.2,75.2,76.2,76z M62.8,8c1.1,0,2,0.9,2,2  s-0.9,2-2,2H18.7c-1.1,0-2-0.9-2-2s0.9-2,2-2H62.8z M69.5,53.1V15c0-1.1-0.9-2-2-2H18c-1.9,0-3.5-1.3-3.5-3s1.6-3,3.5-3h49.5  c1.1,0,2-0.9,2-2s-0.9-2-2-2H18c-4.1,0-7.5,3.1-7.5,7v59c0,4.4,3.9,8,8.6,8h26.5c1,11.2,10.4,20,21.9,20c12.1,0,22-9.9,22-22  C89.5,63.5,80.7,54.1,69.5,53.1z M14.5,69V16.2c1,0.5,2.2,0.8,3.5,0.8h47.5v36.1C55,54,46.5,62.5,45.6,73H19.1  C16.6,73,14.5,71.2,14.5,69z M67.5,93c-9.9,0-18-8.1-18-18s8.1-18,18-18s18,8.1,18,18S77.4,93,67.5,93z M56,39.3c0-8.8-7.2-16-16-16  s-16,7.2-16,16c0,8.2,13,24.4,14.4,26.2l1.6,1.9l1.6-1.9C43,63.7,56,47.5,56,39.3z M28,39.3c0-6.6,5.4-12,12-12s12,5.4,12,12  c0,5.1-7.6,16-12,21.8C35.6,55.3,28,44.3,28,39.3z M40,30.8c-4.4,0-8,3.6-8,8s3.6,8,8,8s8-3.6,8-8S44.4,30.8,40,30.8z M40,42.8  c-2.2,0-4-1.8-4-4s1.8-4,4-4s4,1.8,4,4S42.2,42.8,40,42.8z"></path></svg>