<svg xmlns="http://www.w3.org/2000/svg" xmlns:xlink="http://www.w3.org/1999/xlink" version="1.1" x="0px" y="0px" viewBox="0 0 500 500" style="enable-background:new 0 0 500 500;" xml:space="preserve"><g><path d="M284.1,442.4h12.6v-6.3c0,0,27.4-6.3,31.6-25.3c4.2-19,14.7-25.3,14.7-25.3h-59h-59c0,0,10.5,6.3,14.7,25.3   c4.2,19,31.6,25.3,31.6,25.3v6.3H284.1z"></path><path d="M141.2,335h10h1.4h10c0,0,34.1-14.2,34.1-59.8c0-45.5-34.1-51.2-34.1-88.2s11.4-42.7,11.4-42.7h-21.3h-1.4h-21.3   c0,0,11.4,5.7,11.4,42.7S107,229.7,107,275.2C107,320.8,141.2,335,141.2,335z"></path><path d="M244.1,335h19.6h1.8h19.6c0,0,35.8-7.9,35.8-33.3s-25.2-40.2-25.2-60.8c0-20.6,14.3-23.8,14.3-23.8h-44.6h-1.8h-44.6   c0,0,14.3,3.2,14.3,23.8c0,20.6-25.2,35.5-25.2,60.8S244.1,335,244.1,335z"></path><path d="M378,442.4h9.3v-5.6c13,0,13-16.7,13-16.7v-48.3H378h-22.3v48.3c0,0,0,16.7,13,16.7v5.6H378z"></path><path d="M370.5,160.1h-6.3h-10.5c0,0,0,6.3,0,31.6s-14.7,50.6-14.7,94.8c0,44.2,19,48.5,19,48.5h6.3h6.3h6.3c0,0,19-4.2,19-48.5   c0-44.2-14.7-69.5-14.7-94.8s0-31.6,0-31.6H370.5z"></path><path d="M160.3,442.4h13.5v-5.3c0,0,26.8-15.8,30.6-37.9c3.3-19.3,7.7-21,8.8-21.1h-52.9h-52.9c1.1,0.1,5.5,1.8,8.8,21.1   c3.8,22.1,30.6,37.9,30.6,37.9v5.3H160.3z"></path><path d="M107.1,378.2h0.2C107.2,378.2,107.1,378.2,107.1,378.2z"></path><path d="M213.3,378.2h0.2C213.5,378.2,213.4,378.2,213.3,378.2z"></path><path d="M245.5,78c5.8,19,43.7,25.3,43.7,25.3v6.3h17.5h17.5v-6.3c0,0,37.9-6.3,43.7-25.3c5.8-19,20.4-25.3,20.4-25.3h-81.6h-81.6   C225.1,52.7,239.7,59,245.5,78z"></path><path d="M120.1,104v5.6h9.3h9.3V104c13,0,13-16.7,13-16.7V39h-22.3h-22.3v48.3C107.1,87.3,107.1,104,120.1,104z"></path><path d="M179.1,104v5.6h9.3h9.3V104c13,0,13-16.7,13-16.7V39h-22.3h-22.3v48.3C166.1,87.3,166.1,104,179.1,104z"></path><rect x="94.5" y="113.8" width="311.8" height="14.7"></rect><rect x="94.5" y="339.2" width="311.8" height="14.7"></rect><rect x="94.5" y="446.8" width="311.8" height="14.7"></rect></g></svg>