<svg xmlns="http://www.w3.org/2000/svg" xmlns:xlink="http://www.w3.org/1999/xlink" version="1.1" x="0px" y="0px" viewBox="0 0 100 100" style="enable-background:new 0 0 100 100;" xml:space="preserve"><path d="M84,5H16c-3.9,0-7,3.1-7,7s3.1,7,7,7h3v4c0,2.6,1.7,4.8,4,5.6V35c0,3,2.2,5.4,5,5.9V90c0,2.8,2.2,5,5,5h7h10h10h7  c2.8,0,5-2.2,5-5V40.9c2.8-0.5,5-2.9,5-5.9v-6.4c2.3-0.8,4-3,4-5.6v-4h3c3.9,0,7-3.1,7-7S87.9,5,84,5z M67,91h-5V49c0-1.1-0.9-2-2-2  s-2,0.9-2,2v42h-6V49c0-1.1-0.9-2-2-2s-2,0.9-2,2v42h-6V49c0-1.1-0.9-2-2-2s-2,0.9-2,2v42h-5c-0.6,0-1-0.4-1-1V41h36v49  C68,90.6,67.6,91,67,91z M73,35c0,1.1-0.9,2-2,2H29c-1.1,0-2-0.9-2-2v-6h46V35z M77,23c0,1.1-0.9,2-2,2H25c-1.1,0-2-0.9-2-2v-4h54  V23z M84,15h-5H21h-5c-1.7,0-3-1.3-3-3s1.3-3,3-3h68c1.7,0,3,1.3,3,3S85.7,15,84,15z"></path></svg>