<svg xmlns="http://www.w3.org/2000/svg" data-name="Layer 1" viewBox="0 0 100 100" x="0px" y="0px"><title>network_hubs</title><path d="M82.54,58.05A17.36,17.36,0,0,0,71.76,61.8l-15-14.3A17.36,17.36,0,0,0,60,37.4a17.58,17.58,0,0,0-.12-2L81.5,28.94a10,10,0,1,0-1.45-5.16c0,.13,0,.25,0,.38L58.6,30.6a17.43,17.43,0,0,0-27.72-6.19L19,14.45a10,10,0,1,0-3.2,3.83l11.91,10a17.35,17.35,0,0,0,.88,19.61L15.82,60A10,10,0,1,0,19,63.81L32.09,51.37a17.38,17.38,0,0,0,21.21-.27l15,14.3a17.39,17.39,0,0,0-2.89,13.53L48.78,84.85a10,10,0,1,0,1.34,5c0-.05,0-.11,0-.16l17-6A17.45,17.45,0,1,0,82.54,58.05Z"></path></svg>