<?xml version="1.0" encoding="UTF-8"?>
<svg width="1200pt" height="1200pt" version="1.1" viewBox="0 0 1200 1200" xmlns="http://www.w3.org/2000/svg">
 <path d="m630.67 462c-37.582 0.035156-73.613 14.996-100.17 41.59-26.555 26.598-41.457 62.648-41.434 100.23 0.023438 37.586 14.973 73.617 41.559 100.18 26.59 26.562 62.637 41.477 100.22 41.465 37.582-0.011719 73.621-14.949 100.19-41.527 26.57-26.578 41.5-62.621 41.5-100.2-0.039062-37.602-15-73.652-41.602-100.23-26.602-26.574-62.664-41.504-100.27-41.504zm0 253.33c-29.598 0-57.984-11.758-78.914-32.688-20.93-20.926-32.688-49.312-32.688-78.91s11.758-57.984 32.688-78.914c20.93-20.93 49.316-32.688 78.914-32.688 29.598 0 57.984 11.758 78.91 32.688 20.93 20.93 32.688 49.316 32.688 78.914-0.035156 29.586-11.805 57.953-32.727 78.875-20.918 20.918-49.285 32.688-78.871 32.723zm249.33 109.6c-6.2539-18.547-21.344-32.75-40.234-37.875-18.887-5.1211-39.09-0.48828-53.855 12.355-14.77 12.844-22.16 32.203-19.703 51.621 2.4531 19.418 14.426 36.332 31.926 45.098 13.934 6.9375 30.055 8.043 44.801 3.0664 14.789-4.8945 27.016-15.488 33.973-29.426 6.957-13.941 8.0703-30.078 3.0938-44.84zm-30.266 31.332c-3.3594 6.7617-9.2734 11.906-16.434 14.297-7.1602 2.3945-14.98 1.8359-21.727-1.5469-6.75-3.3828-11.875-9.3125-14.242-16.48-2.4414-7.1602-1.9102-15 1.4727-21.766 3.3828-6.7656 9.3359-11.895 16.527-14.234 2.9297-0.95312 5.9883-1.4492 9.0664-1.4688 5.9297 0.019532 11.703 1.9141 16.492 5.4102 4.7891 3.4961 8.3477 8.4141 10.176 14.059 2.3008 7.2148 1.5781 15.055-2 21.73zm-618.27-320.8c-20.91-1.6641-41.121 7.9492-53.023 25.227-11.898 17.277-13.68 39.59-4.668 58.535 9.0156 18.941 27.449 31.641 48.359 33.309l4.5352 0.79688c14.879 0.003907 29.211-5.6367 40.098-15.781s17.523-24.039 18.566-38.883c1.2578-15.445-3.6445-30.754-13.637-42.598-9.9922-11.84-24.262-19.246-39.695-20.605zm13.332 80h0.003906c-5.7969 4.8555-13.262 7.25-20.801 6.668-7.543-0.55469-14.555-4.0938-19.477-9.8359-4.9219-5.7422-7.3516-13.211-6.75-20.75 0.60156-7.5391 4.1875-14.527 9.9609-19.414 5.2812-4.4492 12.031-6.7773 18.934-6.5312h2.2656c7.5547 0.625 14.555 4.2227 19.465 10 4.8867 5.7266 7.2852 13.164 6.668 20.664-0.57422 7.5117-4.0664 14.5-9.7344 19.469zm512.13-173.33h0.003906c13.93 6.9375 30.051 8.043 44.801 3.0664 14.852-4.6562 27.238-15.039 34.422-28.852 7.1797-13.809 8.5625-29.914 3.8438-44.746-6.2539-18.547-21.344-32.754-40.234-37.875-18.887-5.125-39.09-0.49219-53.855 12.352-14.77 12.844-22.16 32.207-19.703 51.625 2.4531 19.418 14.426 36.332 31.926 45.098zm0-65.332h0.003906c3.4141-6.75 9.3555-11.879 16.531-14.266 2.9297-0.95312 5.9883-1.4492 9.0703-1.4688 5.9258 0.019532 11.699 1.9141 16.488 5.4102 4.7891 3.4961 8.3516 8.4141 10.176 14.059 1.7578 9.0742-1.0117 18.434-7.4219 25.094s-15.664 9.7812-24.797 8.3711c-9.1367-1.4141-17.012-7.1836-21.113-15.465-1.9766-7.0547-1.1641-14.598 2.2656-21.07zm-412.93 165.07h4.668c20.473-0.82422 39.004-12.363 48.77-30.379 9.7695-18.012 9.3281-39.84-1.1523-57.445-10.484-17.609-29.461-28.395-49.953-28.395-20.488 0-39.469 10.785-49.949 28.395-10.484 17.605-10.922 39.434-1.1523 57.445 9.7656 18.016 28.293 29.555 48.77 30.379zm6.9336-86.934c7.6211 0.47656 14.738 3.9922 19.75 9.7539 5.0117 5.7656 7.5039 13.297 6.918 20.914-0.54687 7.5938-4.082 14.664-9.8281 19.664-5.75 4.9961-13.242 7.5156-20.84 7-7.5664-0.59766-14.574-4.1992-19.469-10-4.9375-5.6953-7.3438-13.156-6.6641-20.664 0.44531-7.5391 3.875-14.59 9.5273-19.594 5.6562-5.0039 13.07-7.5469 20.605-7.0742zm10 190.4c-15.441-1.2539-30.754 3.6484-42.594 13.641-11.844 9.9922-19.25 24.262-20.605 39.695-1.2227 15.434 3.6914 30.727 13.68 42.559 9.9844 11.832 24.234 19.25 39.652 20.641h4.668c20.242-0.29688 38.914-10.988 49.414-28.301s11.355-38.809 2.2617-56.898c-9.0938-18.09-26.852-30.23-47.012-32.133zm-6.9336 86.934c-7.5078-0.55469-14.477-4.1094-19.332-9.8672-4.8906-5.7148-7.3125-13.133-6.7383-20.633 0.57422-7.5 4.1016-14.465 9.8047-19.367 5.1406-4.4492 11.73-6.8711 18.531-6.7969h2.2695c7.5938 0.54688 14.664 4.0781 19.664 9.8242 4.9961 5.75 7.5156 13.242 7 20.84-0.67578 7.5898-4.3477 14.602-10.199 19.48-5.8555 4.8789-13.41 7.2227-21 6.5195zm582.93-216.93c-25.23-0.035156-49.438 9.9609-67.293 27.781-17.855 17.824-27.895 42.012-27.906 67.242s10.004 49.426 27.844 67.266 42.039 27.855 67.266 27.844c25.23-0.011719 49.418-10.051 67.242-27.906 17.82-17.855 27.816-42.062 27.781-67.293-0.035157-25.164-10.051-49.293-27.844-67.09-17.797-17.793-41.922-27.809-67.09-27.844zm0 160c-17.188 0-33.668-6.8242-45.82-18.977-12.152-12.152-18.98-28.637-18.98-45.82 0-17.188 6.8281-33.672 18.98-45.824 12.152-12.152 28.633-18.977 45.82-18.977s33.668 6.8242 45.82 18.977c12.152 12.152 18.98 28.637 18.98 45.824-0.10547 17.129-6.9766 33.52-19.113 45.609-12.137 12.086-28.559 18.887-45.688 18.922zm-390.27 126c-24.402 0-47.801 9.6953-65.055 26.949-17.254 17.25-26.945 40.652-26.945 65.051 0 24.402 9.6914 47.801 26.945 65.055 17.254 17.254 40.652 26.945 65.055 26.945 24.398 0 47.801-9.6914 65.051-26.945 17.254-17.254 26.949-40.652 26.949-65.055-0.035157-24.387-9.7422-47.77-26.988-65.012-17.242-17.246-40.625-26.953-65.012-26.988zm0 153.73c-16.344-0.14062-31.961-6.7539-43.434-18.395-11.473-11.637-17.859-27.348-17.766-43.691 0.09375-16.34 6.6641-31.98 18.266-43.484 11.605-11.504 27.301-17.941 43.641-17.895 16.344 0.046876 32 6.5703 43.539 18.145 11.539 11.57 18.02 27.246 18.02 43.586 0 16.469-6.5781 32.25-18.27 43.844-11.691 11.594-27.531 18.031-43.996 17.891zm0-556.27c24.449 0.035157 47.91-9.6523 65.219-26.922 17.305-17.273 27.035-40.719 27.047-65.168 0.011718-24.449-9.6953-47.902-26.984-65.191-17.289-17.289-40.742-26.996-65.195-26.984-24.449 0.011719-47.891 9.7422-65.164 27.047-17.273 17.305-26.957 40.766-26.922 65.219 0.035156 24.387 9.7383 47.77 26.984 65.016s40.625 26.949 65.016 26.984zm0-153.87c16.438-0.10547 32.242 6.332 43.926 17.898 11.68 11.566 18.281 27.305 18.34 43.742 0.058594 16.441-6.4258 32.227-18.027 43.875-11.598 11.648-27.355 18.203-43.793 18.215-16.441 0.011719-32.207-6.5195-43.824-18.148-11.617-11.633-18.125-27.41-18.09-43.848 0.035156-16.316 6.5156-31.957 18.027-43.52 11.512-11.562 27.125-18.109 43.441-18.215z"/>
</svg>
