<svg xmlns="http://www.w3.org/2000/svg" viewBox="0 0 64 64" x="0px" y="0px"><g data-name="Layer 21"><path d="M61,36H57V28a1,1,0,0,0-1-1H33V22h6a1,1,0,0,0,1-1V12H38v8H26V4h6V9a1,1,0,0,0,1,1h6a1,1,0,0,0,.707-1.707l-6-6A1,1,0,0,0,33,2H25a1,1,0,0,0-1,1V21a1,1,0,0,0,1,1h6v5H8a1,1,0,0,0-1,1v8H3a1,1,0,0,0-1,1V47a1,1,0,0,0,1,1H13a1,1,0,0,0,1-1V37a1,1,0,0,0-1-1H9V29H19V50H15a1,1,0,0,0-1,1V61a1,1,0,0,0,1,1H25a1,1,0,0,0,1-1V51a1,1,0,0,0-1-1H21V29H31v7H27a1,1,0,0,0-1,1V47a1,1,0,0,0,1,1H37a1,1,0,0,0,1-1V37a1,1,0,0,0-1-1H33V29H43V50H39a1,1,0,0,0-1,1V61a1,1,0,0,0,1,1H49a1,1,0,0,0,1-1V51a1,1,0,0,0-1-1H45V29H55v7H51a1,1,0,0,0-1,1V47a1,1,0,0,0,1,1H61a1,1,0,0,0,1-1V37A1,1,0,0,0,61,36ZM34,5.414,36.586,8H34ZM12,38v8H4V38h8ZM24,60H16V52h8ZM36,46H28V38h8ZM48,60H40V52h8ZM60,46H52V38h8Z"></path><rect x="53" y="39" width="6" height="2"></rect><rect x="53" y="43" width="6" height="2"></rect><rect x="29" y="39" width="6" height="2"></rect><rect x="29" y="43" width="6" height="2"></rect><rect x="5" y="39" width="6" height="2"></rect><rect x="5" y="43" width="6" height="2"></rect><rect x="17" y="53" width="6" height="2"></rect><rect x="17" y="57" width="6" height="2"></rect><rect x="41" y="53" width="6" height="2"></rect><rect x="41" y="57" width="6" height="2"></rect><rect x="28" y="12" width="8" height="2"></rect><rect x="28" y="16" width="8" height="2"></rect></g></svg>