<svg xmlns="http://www.w3.org/2000/svg" data-name="Layer 1" viewBox="0 0 64 64" x="0px" y="0px"><path d="M1,63H18V40L9.5,33,1,40ZM9.5,40A2.5,2.5,0,1,1,7,42.5,2.5,2.5,0,0,1,9.5,40Z"></path><path d="M61.617,39.5a6.21414,6.21414,0,0,0-.11511-1.16736l1.49774-.83642a7.92607,7.92607,0,0,0-2.20031-3.69806l-.86841.485a1.10232,1.10232,0,0,1-1.145-.02685,6.663,6.663,0,0,0-.9837-.54816,1.03307,1.03307,0,0,1-.59662-.94611v-.96814a8.36618,8.36618,0,0,0-4.41132.00391v.96423a1.03307,1.03307,0,0,1-.59662.94611,6.65929,6.65929,0,0,0-.98364.54816,1.10242,1.10242,0,0,1-1.145.02685l-.86413-.48254A7.92612,7.92612,0,0,0,47,37.49612l1.498.83655a5.9766,5.9766,0,0,0,0,2.33478l-1.49781.8363a7.92612,7.92612,0,0,0,2.20032,3.69806l.86853-.48492a1.10269,1.10269,0,0,1,1.145.02685,6.65957,6.65957,0,0,0,.98358.54816,1.033,1.033,0,0,1,.59662.946v.96821a8.36782,8.36782,0,0,0,4.41132-.00391v-.9643a1.033,1.033,0,0,1,.59662-.946,6.65874,6.65874,0,0,0,.9837-.54822,1.10271,1.10271,0,0,1,1.145-.02679l.86413.4826A7.92671,7.92671,0,0,0,63,41.50394l-1.49811-.83649A6.21478,6.21478,0,0,0,61.617,39.5ZM55,42.5a3,3,0,1,1,3-3A3,3,0,0,1,55,42.5Z"></path><rect x="8.5" y="28" width="2" height="2"></rect><rect x="8.5" y="24" width="2" height="2"></rect><rect x="8.5" y="20" width="2" height="2"></rect><rect x="12.5" y="20" width="2" height="2"></rect><rect x="16.5" y="20" width="2" height="2"></rect><rect x="20.5" y="20" width="2" height="2"></rect><path d="M55,30V2a1,1,0,0,0-1-1H27a1,1,0,0,0-1,1V38a1,1,0,0,0,1,1H45l.05591-.05029A10.00039,10.00039,0,0,1,55,30ZM37,8.25H52v1.5H37Zm0,11H52v1.5H37ZM34,33H30V29h4Zm0-11H30V18h4Zm0-11H30V7h4ZM47,31.75H37v-1.5H47Z"></path></svg>