<svg xmlns="http://www.w3.org/2000/svg" viewBox="0 0 64 64" x="0px" y="0px"><g><g data-name="Glyph"><path d="M57,2H39a2.006,2.006,0,0,0-2,2V9a2.006,2.006,0,0,0,2,2h1V54a8,8,0,0,0,16,0V11h1a2.006,2.006,0,0,0,2-2V4A2.006,2.006,0,0,0,57,2ZM49,7a1,1,0,0,1,2,0V9H49ZM45,7a1,1,0,0,1,2,0V9H45ZM41,7a1,1,0,0,1,2,0V9H41ZM54,54a6,6,0,0,1-12,0V19H54Zm0-41H42V11H54Zm1-4H53V7a1,1,0,0,1,2,0Z"></path><path d="M33,59V34a2.006,2.006,0,0,0,2-2V27a2.006,2.006,0,0,0-2-2H7a2.006,2.006,0,0,0-2,2v5a2.006,2.006,0,0,0,2,2V59a3.009,3.009,0,0,0,3,3H30A3.009,3.009,0,0,0,33,59ZM29,30a1,1,0,0,1,2,0v2H29Zm-4,0a1,1,0,0,1,2,0v2H25Zm-4,0a1,1,0,0,1,2,0v2H21Zm-4,0a1,1,0,0,1,2,0v2H17Zm-4,0a1,1,0,0,1,2,0v2H13ZM9,30a1,1,0,0,1,2,0v2H9Zm0,4H31v2H9ZM9,59V42H31V59a1,1,0,0,1-1,1H10A1,1,0,0,1,9,59Z"></path><path d="M28.12,44.14c-4.5-.53-5.84.53-7.39,1.75-2.33,1.79-5.94,3.98-8.25,2.65a1,1,0,0,0-1.48.88V56a2.006,2.006,0,0,0,2,2H27a2.006,2.006,0,0,0,2-2V45.13A1,1,0,0,0,28.12,44.14Z"></path><path d="M48,58a4,4,0,0,0,4-4V25c-.04-.91-1.2-1.48-1.91-1.48-1.81-.16-3.17,3.19-4.78,2.53A1.006,1.006,0,0,0,44,27V54A4,4,0,0,0,48,58Z"></path></g></g></svg>