<svg xmlns="http://www.w3.org/2000/svg" xmlns:xlink="http://www.w3.org/1999/xlink" version="1.1" x="0px" y="0px" viewBox="0 0 52 52" enable-background="new 0 0 52 52" xml:space="preserve"><g><path d="M23.475,32.935l5.6,15.04h-23.9c-1.97,0-3.47-2.06-3.13-4.3l2.19-14.37L23.475,32.935z"></path><path d="M26.665,11.525c-0.47,3.16-3.38,7.39-5.14,9.7c1.68,0.28,2.79,0.7599,2.79,1.3c0,0.86-2.79,1.56-6.25,1.56   c-3.45,0-6.25-0.7-6.25-1.56c0-0.54,1.11-1.02,2.79-1.3c-1.75-2.31-4.66-6.54-5.13-9.7c-1.48,0.07-2.74,1.33-2.99,3.04l-1.73,11.32   l18.87,3.56l6.78-17.92H26.665z"></path><path d="M29.935,21.405l3.74-9.88h8.72c1.54,0,2.86,1.28,3.12,3.04l1.77,11.57L29.935,21.405z"></path><path d="M46.825,47.975h-14.48l-6.18-16.6l2.55-6.75l19.13,5.21l2.11,13.84C50.295,45.915,48.795,47.975,46.825,47.975z"></path><path d="M18.0661,4.025c-3.6797,0-6.6631,2.9913-6.6631,6.671c0,2.9754,4.3603,8.9578,6.03,10.8808   c0.3403,0.3877,0.9338,0.3877,1.2662,0c1.6697-1.923,6.0379-7.9055,6.0379-10.8808C24.737,7.0163,21.7457,4.025,18.0661,4.025z    M18.0661,14.613c-2.1604,0-3.9092-1.7567-3.9092-3.9171c0-2.1604,1.7488-3.9171,3.9092-3.9171   c2.1603,0,3.9171,1.7567,3.9171,3.9171C21.9831,12.8563,20.2264,14.613,18.0661,14.613z"></path></g></svg>