<svg xmlns="http://www.w3.org/2000/svg" xmlns:xlink="http://www.w3.org/1999/xlink" version="1.1" x="0px" y="0px" viewBox="0 0 32 32" enable-background="new 0 0 32 32" xml:space="preserve"><g><path d="M20,10c0.552,0,1-0.448,1-1V7c0-0.552-0.448-1-1-1s-1,0.448-1,1v2C19,9.552,19.448,10,20,10z"></path><path d="M23,10c0.552,0,1-0.448,1-1V7c0-0.552-0.448-1-1-1s-1,0.448-1,1v2C22,9.552,22.448,10,23,10z"></path><path d="M26,10c0.552,0,1-0.448,1-1V7c0-0.552-0.448-1-1-1s-1,0.448-1,1v2C25,9.552,25.448,10,26,10z"></path><path d="M20,18c0.552,0,1-0.448,1-1v-2c0-0.552-0.448-1-1-1s-1,0.448-1,1v2C19,17.552,19.448,18,20,18z"></path><path d="M23,18c0.552,0,1-0.448,1-1v-2c0-0.552-0.448-1-1-1s-1,0.448-1,1v2C22,17.552,22.448,18,23,18z"></path><path d="M26,18c0.552,0,1-0.448,1-1v-2c0-0.552-0.448-1-1-1s-1,0.448-1,1v2C25,17.552,25.448,18,26,18z"></path><path d="M20,26c0.552,0,1-0.448,1-1v-2c0-0.552-0.448-1-1-1s-1,0.448-1,1v2C19,25.552,19.448,26,20,26z"></path><path d="M23,26c0.552,0,1-0.448,1-1v-2c0-0.552-0.448-1-1-1s-1,0.448-1,1v2C22,25.552,22.448,26,23,26z"></path><path d="M26,26c0.552,0,1-0.448,1-1v-2c0-0.552-0.448-1-1-1s-1,0.448-1,1v2C25,25.552,25.448,26,26,26z"></path><path d="M27.04,3H12.96c-1.289,0-2.377,0.834-2.782,2.005L8,4.279V3c0-0.552-0.448-1-1-1H3C2.448,2,2,2.448,2,3v4   c0,0.552,0.448,1,1,1h4c0.552,0,1-0.448,1-1V6.388l2,0.667V15H6.618l-0.724-1.447c-0.339-0.678-1.45-0.678-1.789,0l-2,4   c-0.155,0.31-0.138,0.678,0.044,0.973C2.332,18.82,2.653,19,3,19h4c0.347,0,0.668-0.18,0.851-0.474   c0.182-0.295,0.199-0.663,0.044-0.973L7.618,17H10v7.946l-2.302,0.767C7.215,24.704,6.192,24,5,24c-1.654,0-3,1.346-3,3   s1.346,3,3,3c1.391,0,2.553-0.956,2.891-2.243l2.281-0.76C10.573,28.158,11.665,29,12.96,29H27.04c1.632,0,2.96-1.328,2.96-2.96   V5.96C30,4.328,28.672,3,27.04,3z M6,6H4V4h2V6z M4.618,17L5,16.236L5.382,17H4.618z M15.684,8.949C15.789,8.984,15.896,9,16,9   c0.419,0,0.809-0.265,0.949-0.684c0.175-0.524-0.108-1.09-0.632-1.265l-4.25-1.417C12.202,5.266,12.555,5,13,5h14.04   C27.569,5,28,5.431,28,5.96V11H12V7.721L15.684,8.949z M16,15h-4v-2h16v6H12v-2h4c0.552,0,1-0.448,1-1S16.552,15,16,15z M5,28   c-0.551,0-1-0.449-1-1s0.449-1,1-1s1,0.449,1,1S5.551,28,5,28z M28,26.04c0,0.53-0.431,0.96-0.96,0.96H12.96   c-0.414,0-0.76-0.266-0.895-0.634l4.25-1.417c0.524-0.175,0.807-0.741,0.632-1.265c-0.174-0.523-0.739-0.808-1.265-0.632L12,24.279   V21h16V26.04z"></path></g></svg>