<svg xmlns="http://www.w3.org/2000/svg" xmlns:xlink="http://www.w3.org/1999/xlink" xmlns:xodm="http://www.corel.com/coreldraw/odm/2003" xml:space="preserve" version="1.1" style="shape-rendering:geometricPrecision;text-rendering:geometricPrecision;image-rendering:optimizeQuality;" viewBox="0 0 100 100" x="0px" y="0px" fill-rule="evenodd" clip-rule="evenodd"><defs><style type="text/css">
   
    .fil0 {fill:black}
   
  </style></defs><g><path class="fil0" d="M75.04 41.95c0.62,-0.92 2.67,-4.07 2.54,-5.39 -18.08,-5.18 -10.56,-0.07 -26.82,3.15 -11.87,2.36 -10.38,-2.26 -15.86,3.57 2.07,-0.45 1.47,-0.88 3.52,-1.8 0.38,-0.13 0.8,0.07 0.93,0.45 0.13,0.38 -0.07,0.8 -0.45,0.93 -2.32,1.03 -1.06,1.42 -4.87,1.99 -0.17,0.02 -0.33,-0.03 -0.46,-0.11 -0.4,0.45 -0.84,0.95 -1.31,1.5 -5.03,5.83 -5,4.54 -8.17,5.91 5.27,0.78 13.05,-6.16 19.55,0.54 0.04,0.04 0.08,0.07 0.12,0.12 0.1,0.1 0.17,0.22 0.21,0.35 0.01,0.02 0.01,0.05 0.02,0.07 0.09,0.33 -0.01,0.69 -0.27,0.94l-0.04 0.04c-0.01,0.12 -0.01,0.25 0.01,0.39 0.28,0 0.56,0.01 0.83,0.01 -0.04,-0.56 -0.02,-0.62 0.11,-1.19 0.08,-0.34 0.42,-0.56 0.77,-0.47 0.35,0.08 0.56,0.43 0.48,0.77 -0.11,0.47 -0.08,0.43 -0.11,0.9 0,0.02 0,0.04 0,0.06 0.46,0.03 0.9,0.07 1.34,0.12 0.01,-0.39 0.01,-0.25 -0.09,-0.98 -0.08,-0.35 0.14,-0.7 0.49,-0.78 0.36,-0.08 0.71,0.14 0.79,0.49 0.14,1.06 0.13,0.72 0.12,1.41 0.47,0.06 0.95,0.11 1.41,0.17 -0.05,-0.51 -0.03,-0.22 -0.08,-1.12 0,-0.35 0.28,-0.63 0.63,-0.63 0.35,0 0.63,0.28 0.63,0.63 0.07,0.85 0.03,0.43 0.11,1.25 0.52,0.05 1.04,0.09 1.54,0.11 0.01,-0.37 0.01,-0.32 -0.08,-0.7 -0.07,-0.34 0.14,-0.68 0.48,-0.76 0.35,-0.07 0.69,0.14 0.77,0.49 0.09,0.43 0.11,0.52 0.12,0.97l0 0c0.46,-0.01 0.93,-0.05 1.38,-0.11 -0.09,-0.2 -0.1,-0.37 -0.14,-0.7 -0.07,-0.35 0.15,-0.69 0.5,-0.76 0.35,-0.07 0.69,0.16 0.76,0.5 0.06,0.38 0.14,0.47 0.2,0.73l0.91 -0.17c-0.01,-0.19 0.01,-0.39 0.02,-0.74 0,-0.36 0.29,-0.65 0.65,-0.65 0.35,0 0.64,0.29 0.64,0.65 -0.01,0.22 -0.02,0.36 -0.02,0.48 0.49,-0.1 0.93,-0.2 1.33,-0.31 -0.1,-0.48 -0.05,-0.23 -0.18,-0.87 -0.07,-0.35 0.15,-0.69 0.49,-0.77 0.35,-0.08 0.69,0.14 0.77,0.49 0.1,0.5 0.11,0.54 0.13,0.7 1.58,-0.78 2.06,-2.13 2.32,-5.44 -1.75,1.23 -3.75,2.8 -7.58,2.85 -0.42,0 -0.76,-0.34 -0.76,-0.76 0,-0.06 0,-0.13 0.02,-0.18 0.08,-0.34 0.38,-0.59 0.74,-0.59 0.11,-0.01 0.21,-0.02 0.31,-0.03 7.79,-0.85 7.84,-7.86 16.16,-2.38 0.68,-0.6 1.9,-1.78 1.48,-2.29 -2.39,-2.89 -6.33,1.99 -13.86,-5.22 -0.12,-0.12 -0.25,-0.24 -0.38,-0.37 -0.25,-0.26 -0.24,-0.67 0.01,-0.93 0.26,-0.25 0.68,-0.25 0.93,0.01 7.41,7.19 12.58,2.09 14.65,5.9 0.58,1.07 -0.53,6.08 -4.45,3.77 -2.84,-1.67 -4.48,-1.44 -6,-0.6 0.06,0.1 0.1,0.22 0.09,0.35 -0.27,6.23 -1.46,7.24 -6.45,8.29 0.04,0.11 0.07,0.19 0.21,0.62 0.23,0.28 0.19,0.69 -0.09,0.91 -0.27,0.23 -0.68,0.2 -0.91,-0.08 -0.39,-0.92 -0.39,-0.86 -0.48,-1.2 -0.36,0.07 -0.74,0.14 -1.13,0.22 -0.23,0.04 -0.46,0.08 -0.7,0.11 0.02,0.11 0.03,0.22 0.09,0.66 0,0.35 -0.28,0.64 -0.63,0.64 -0.35,0 -0.63,-0.29 -0.63,-0.64 -0.09,-0.37 -0.1,-0.4 -0.12,-0.53 -0.57,0.03 -1.16,0.03 -1.74,0.01l0 0.42c0,0.36 -0.29,0.65 -0.65,0.65 -0.36,0 -0.65,-0.29 -0.65,-0.65 0.01,-0.37 0.01,-0.37 0.01,-0.49 -0.58,-0.05 -1.17,-0.12 -1.75,-0.2 0,0.1 0,0.21 0,0.38 0,0.35 -0.29,0.63 -0.64,0.63 -0.35,0 -0.64,-0.28 -0.64,-0.63 0.01,-0.32 -0.05,-0.23 0.01,-0.32 -0.06,-0.13 -0.02,-0.05 -0.12,-0.27 -0.44,-0.08 -0.88,-0.16 -1.32,-0.24 0,0.05 -0.01,0.1 -0.01,0.3 0,0.35 -0.29,0.64 -0.64,0.64 -0.35,0 -0.64,-0.29 -0.64,-0.64 -0.01,-0.39 -0.01,-0.23 -0.01,-0.56 -0.63,-0.13 -1.25,-0.27 -1.86,-0.4 -0.53,4.2 -5.39,2.04 -9.49,2.07 -8.75,0.06 -3.7,0.86 -10.41,-1.86 -0.3,-0.12 -0.4,0 -0.63,0.13 4.15,3.73 -1.77,2.82 10.07,4.26 9.54,1.16 25.31,7.03 32.99,4.9 6.06,-1.68 7.49,-6.33 7.73,-12.37 0.01,-0.32 0.02,-0.47 0.02,-0.59 -2.35,0.31 -5.19,-0.33 -4.44,-2.88 0.04,-0.17 0.11,-0.35 0.19,-0.54 0.22,-0.5 0.8,-0.72 1.3,-0.51 0.49,0.22 0.72,0.8 0.51,1.29 -0.15,1.22 1.81,0.7 2.56,0.51 4.19,-1.05 1.08,12.81 -3.29,15.35 -10.02,5.83 -25.87,-1.64 -37.81,-3.26 -13.6,-1.84 -6,-0.96 -11.95,-5.62 -0.42,-0.25 -0.55,-0.8 -0.29,-1.22 0.07,-0.11 0.15,-0.2 0.25,-0.27 0.13,-0.15 0.33,-0.25 0.55,-0.23 0.94,-0.33 1.83,-0.9 2.84,-0.49 1.07,0.44 1.81,0.78 2.34,1.04 2.63,1.31 0.06,0.71 7.16,0.79 0.56,-2.91 4.29,-3.12 4.39,0.39 0,0.04 0,0.08 -0.01,0.11 2.22,0.37 3.89,0.53 4.13,-1.27l-0.05 0c-0.02,-0.12 -0.05,-0.22 -0.07,-0.32 -0.11,-0.45 -0.13,-0.73 -0.06,-1.07 -0.25,-0.28 -0.53,-0.58 -0.83,-0.87 -0.38,-0.37 -0.78,-0.71 -1.2,-0.91 -0.69,-0.34 -3.82,0.14 -7.37,0.66 0.28,3.76 -1.01,2.44 -4.34,2.66 -1.32,0.08 -2.34,-0.86 -3.15,-1.77 -3.23,0.18 -5.36,-0.19 -4.15,-1.99 0.79,-1.18 4.61,-0.85 9.67,-6.71 7.44,-8.63 5.33,-6.15 14.49,-6.59 13.93,-0.67 14.87,-7.97 27.16,-5.24 7.82,1.73 9.24,2.53 3.96,10 -0.32,0.37 -0.88,0.4 -1.24,0.07 -0.1,-0.09 -0.18,-0.19 -0.23,-0.31 -0.13,-0.3 -0.08,-0.67 0.16,-0.93zm-16.69 -1.53c9.6,5.02 -7.28,13.32 -5.34,3.15 0.5,-2.58 2.28,-3.21 4.81,-3.39 0.21,0 0.4,0.1 0.53,0.24zm-23.21 15.68c0.57,0.05 1.14,0.14 1.69,0.22 -0.3,-1.77 -1.36,-1.21 -1.69,-0.22zm-3.75 -3.15c-1.38,0.2 -2.79,0.39 -4.11,0.52 1.44,1.09 0.69,-0.31 4.18,0.62 0.01,-0.34 -0.03,-0.77 -0.07,-1.14zm0.04 1.5c-0.01,0.01 -0.01,0.02 -0.01,0.03l0.01 -0.03z"></path></g></svg>