<?xml version="1.0" encoding="UTF-8"?>
<svg width="1200pt" height="1200pt" version="1.1" viewBox="0 0 1200 1200" xmlns="http://www.w3.org/2000/svg">
 <path d="m398.14 1087c-32.121 0-64.172-6.2891-93.188-18.328-36.902-15.316-69.766-39.809-95.027-70.836-21.855-26.84-43.125-58.703-35.16-91.543l15.293 3.707c-6.3438 26.152 12.652 54.055 32.07 77.898 23.625 29.012 54.352 51.914 88.859 66.234 29.387 12.199 62.137 18.07 94.707 17.008 32.309-1.0664 66.098-9.0234 100.43-23.645 31.797-13.543 63.191-32.586 93.316-56.605l9.8086 12.305c-31.234 24.902-63.859 44.68-96.961 58.777-36.121 15.387-71.809 23.766-106.07 24.895-2.6875 0.085937-5.3828 0.13281-8.0703 0.13281z"/>
 <path d="m174.11 910.28c-0.03125-1.625-0.015625-3.3789 0.003906-5.1914 0.03125-3.293 0.0625-6.6953-0.20312-9.6445l-0.16797-1.8516 0.67578-1.7266c1.3789-3.5234 1.0312-7.3242 0.62891-11.723l-0.074219-0.82031 0.097656-0.82031c8.2852-69.793 46.242-123.61 82.953-175.64 8.9727-12.719 18.254-25.875 26.992-39.105 30.754-45.859 65.855-88.984 99.797-130.69 19.293-23.703 39.242-48.215 58.102-72.875l0.94531-1.2344 55.359-32.254c37.094-23.398 73.254-48.727 108.23-73.223 75.254-52.711 153.07-107.21 243.03-144.2l0.39844-0.14844 29.469-10.289c18.156-6.1719 35.605-10.688 52.477-15.047 16.594-4.293 33.754-8.7305 51.293-14.695l0.29688-0.09375c2.8867-0.85547 7.3828-3.4805 10.996-5.5938 2.7734-1.6211 5.3906-3.1484 7.6094-4.1172l6.2891 14.426c-1.3711 0.59766-3.707 1.9609-5.9609 3.2812-4.5195 2.6367-9.6328 5.625-14.297 7.043-18.047 6.1289-35.449 10.629-52.281 14.98-16.594 4.293-33.754 8.7305-51.293 14.695l-29.207 10.195c-88.262 36.312-161.87 87.871-239.79 142.45-35.16 24.629-71.52 50.098-108.98 73.719l-0.23438 0.14062-52.793 30.758c-18.723 24.434-38.406 48.617-57.453 72.016-33.719 41.43-68.586 84.27-98.902 129.48-8.8438 13.383-18.191 26.637-27.23 39.453-37.066 52.543-72.086 102.18-80.09 167.62 0.4375 4.8789 0.80078 10.309-1.0781 16.242 0.19531 3.1992 0.16406 6.4922 0.13281 9.457-0.015625 1.6562-0.03125 3.2656-0.007812 4.7539z"/>
 <path d="m821.49 712.02-15.332-3.5469c10.551-45.578 25.867-97.371 43.121-145.83 18.801-52.793 44.75-103.81 69.848-153.16 38.066-74.852 77.395-152.18 90.93-235.23-1.3125-0.085937-2.457-0.050781-3.0547 0.20703 0.074219-0.03125 0.32422-0.17969 0.56641-0.47266l-12.09-10.07c6.0117-7.2148 16.559-5.4883 22.867-4.4531 0.65234 0.10938 1.2695 0.20703 1.8203 0.28906l7.7734 1.125-1.1094 7.7734c-12.633 88.617-53.836 169.62-93.68 247.97-24.871 48.898-50.586 99.461-69.047 151.3-17.062 47.906-32.195 99.082-42.613 144.09z"/>
 <path d="m601.68 1009.6-7.1797-14.004 52.957-27.148c6.1016-3.125 12.41-6.3633 17.109-10.773 7.4727-7.0273 11.703-17.793 15.789-28.207l0.36328-0.92188c33.445-85.098 76.465-161.56 127.87-227.27l12.395 9.6953c-50.465 64.512-92.727 139.65-125.62 223.33l-0.35938 0.91406c-4.5039 11.473-9.6094 24.477-19.66 33.926-6.3164 5.9375-13.961 9.8555-20.703 13.309z"/>
 <path d="m480.9 571.07c-0.97266 0-1.9922-0.11719-3.043-0.40234-6.4766-1.7461-8.6602-7.957-9.4805-10.297l-23.324-66.426c-2.4766-7.0508-5.2852-15.043-6.0078-23.508l15.68-1.3438c0.55469 6.4766 2.9023 13.164 5.1758 19.633l22.949 65.352c48.871-26.293 88.555-70.801 109.05-122.36 0.77734-1.957 1.1406-3.1953 1.082-3.6875-0.26953-0.57812-2.2109-2.0977-2.9414-2.6719l-33.945-26.602 5.4023-6.2461c1.25-1.4453 2.4805-2.6328 3.5625-3.6836 2.6914-2.6055 2.9531-3.0625 2.9922-4.0586l15.723 0.59766c-0.19531 5.1602-2.293 8.75-4.6094 11.484l20.574 16.125c2.5859 2.0273 6.918 5.418 8.4336 10.973 1.5234 5.5898-0.54297 10.789-1.6523 13.582-22.07 55.535-65.035 103.39-117.88 131.3-1.3945 0.74219-4.2539 2.2461-7.7383 2.2461z"/>
 <path d="m608.59 460.41-3.7773-2.3555c-6.3711-3.9727-13.207-16.492-12.48-26.68l15.695 1.1211c-0.19141 2.6875 1.2344 6.3984 2.7695 9.082 22.621-11.871 54.676-30.383 66.441-37.332-3.0664-12.934-9.3086-24.879-17.828-34.617-3.3594-1.582-6.6992-3.9375-9.8984-7.0312-1.0703-1.0391-2.125-2.1211-3.1797-3.207-1.8555-1.9062-3.6484-3.7578-5.457-5.1953-1.7852-1.0508-3.6172-2.0195-5.4844-2.9062l5.6289-14.645c3.3711 1.0117 6.2422 2.6484 8.7891 4.5625 6.793 4.1172 13.031 9.168 18.559 14.953 0.875 0.17188 1.6484 0.14062 2.2734-0.11719 1.2148-0.49609 2.6172-2.0547 4.1641-4.6406 6.2695-10.473 8.0664-23.754 4.8125-35.523l14.926-4.9297c1.4141 3.668 4.8711 5.2461 7.5195 5.9219 5.5117 1.4062 11.922 0.070312 15.953-3.332 8.4609-7.1445 10.652-19.633 11.004-28.852 0.14844-3.8828 2.6016-7.2422 6.2461-8.5586 3.625-1.3125 7.6367-0.30078 10.219 2.5742 6.207 6.9141 7.8867 6.0039 9.3672 5.1992 1.4766-0.80078 1.8828-2.8164 1.9883-3.6484 0.375-2.9805-0.76172-6.1875-2.8945-8.1719l10.703-11.535c5.8203 5.4023 8.8125 13.711 7.8008 21.68-0.86719 6.8477-4.5469 12.5-10.105 15.508-7.4766 4.0469-13.953 2.6367-18.973-0.23438-2.3398 11.977-7.4961 21.543-15.199 28.051-7.8594 6.6367-19.637 9.2031-30.008 6.5547-0.4375-0.11328-0.87109-0.23437-1.2969-0.36328-0.60156 9.7148-3.4961 19.266-8.5547 27.723-1.8555 3.1016-4.7461 7.2891-9.3359 9.957 7.2383 10.906 12.348 23.375 14.68 36.539 1.7852 5.7227-3.6016 8.9453-5.707 10.203-1.4062 0.84375-3.4531 2.0508-6 3.543-5.0586 2.9609-12.105 7.0469-20.031 11.57-14.289 8.1562-34.449 19.48-49.367 27.102z"/>
 <path d="m775.36 302.29c-7.7969 0-16.438-4.3008-18.738-13.129l15.227-3.9688c0.13281 0.50391 2.0156 1.5664 4.043 1.3359 2.0625-0.23438 4.2734-1.2578 6.4492-2.5273-1.6719-10.777-3.1914-26.359-0.49609-37.414l15.289 3.7227c-1.7891 7.3359-1.2031 20.836 1.5703 36.109l0.92188 5.0742-4.2891 2.8672c-4.6445 3.1094-10.434 6.9766-17.664 7.7969-0.76172 0.089844-1.5352 0.13281-2.3125 0.13281z"/>
 <path d="m797.1 285.01c-4.8086 0-9.2852-0.94531-12.352-2.9961l8.7578-13.07-0.089844-0.054687c2.7773 1.4141 12.637-0.25781 14.863-2.5195 2.2695-2.6797 2.9062-7.2188 1.5977-11.531l-0.19922-0.63281c-0.85547-2.7188-2.2852-7.2695 0.066407-11.992 0.10937-0.23828 0.30078-0.74609 0.53516-1.3398 2.1016-5.3242 3.6094-8.6836 6.8672-10.453 18.07-9.8203 41.355-8.7617 67.316 3.0625l0.9375 0.42969c1.7188 0.79297 4.3242 1.9961 5.2773 1.8086 1.3477-0.26172 3.2578-4.3555 4.5234-7.0625 0.69531-1.4883 1.4102-3.0273 2.2305-4.5352 6.6328-12.203 20.566-20.457 39.234-23.246 5.2266-0.78125 10.457-1.1719 15.52-1.5508 8.1719-0.61328 15.883-1.1875 23.125-3.2852 11.652-3.375 19.422-13.699 20.781-27.617l15.66 1.5312c-2.3633 24.219-18.113 37.164-32.062 41.203-8.8086 2.5508-17.715 3.2148-26.324 3.8594-4.9961 0.375-9.7109 0.72656-14.371 1.4219-7.9141 1.1836-22.043 4.7305-27.734 15.199-0.58984 1.0859-1.1797 2.3438-1.7969 3.6758-2.7734 5.9336-6.5664 14.062-15.781 15.855-5.9492 1.1523-11.109-1.2266-14.875-2.9688l-0.86328-0.39453c-14.391-6.5508-34.848-12.496-51.699-4.3672-0.46484 1.0273-1.0352 2.4688-1.3242 3.207-0.22656 0.57422-0.4375 1.0977-0.62109 1.5391 0.10547 0.39844 0.26953 0.92188 0.39062 1.3086l0.23828 0.77344c2.8711 9.4414 1.0781 19.523-4.6758 26.312-4.4766 5.2812-14.375 8.4297-23.152 8.4297z"/>
 <path d="m868.45 238.27-13.902-7.3711c-0.18359 0.33984-0.23438 0.5625-0.23438 0.56641 0.23828-0.98828 0.058594-4.1758-0.046875-6.082-0.28516-5.0586-0.55078-9.8398 1.5234-13.762l13.906 7.3633c0.17969-0.33984 0.23438-0.5625 0.23438-0.5625-0.23828 0.98828-0.0625 4.1758 0.042968 6.0781 0.28906 5.0625 0.55859 9.8477-1.5234 13.77z"/>
 <path d="m902.71 228.46c-0.84766-0.41797-2.2539-1.0117-3.7422-1.6367-9.1406-3.8398-20.516-8.6211-20.383-18.484l15.734 0.20703c0.015625-1.1641-0.41406-1.9531-0.57812-2.1602 1.4297 1.7695 8.3672 4.6875 11.324 5.9297 1.793 0.75391 3.3438 1.4062 4.625 2.043z"/>
 <path d="m930.18 210.81c-0.76562-1.7852-1.1094-4.0469-1.6953-8.2266-0.21094-1.5-0.56641-4.0117-0.75781-4.7109 0.050781 0.19922 0.125 0.35938 0.17969 0.48438l14.465-6.1953c0.76562 1.7852 1.1094 4.0469 1.6953 8.2266 0.21094 1.5 0.56641 4.0117 0.75781 4.7109-0.050781-0.19922-0.125-0.35938-0.17969-0.48438z"/>
 <path d="m933.71 243.41-2.0469-5.8125c-3.9297-11.156 10.207-19.906 31.602-33.152 4.7852-2.9609 9.7266-6.0234 14.039-8.8984l8.7305 13.094c-4.5312 3.0234-9.5938 6.1562-14.488 9.1875-3.3438 2.0664-7.3008 4.5234-11.09 6.9766 10.637-1.418 20.633-3.4844 36.652-8.1445 0.55469-0.18359 2.2656-1.0547 3.2852-1.5781 1.8906-0.96484 3.6758-1.8789 5.3281-2.4219l4.8828 14.957c-0.51953 0.17969-2.0391 0.95703-3.043 1.4688-2.1367 1.0938-4.1562 2.1289-6.0547 2.6797-26.215 7.625-37.754 8.7383-58.695 10.762z"/>
 <path d="m799.32 424.07c-21.508 0-42.895-2.8203-63.691-8.4102-2.8281-0.76172-5.625-1.5781-8.3828-2.3867-17.285-5.0625-27.461-7.5391-35.73 0.47656l-10.953-11.297c15.254-14.785 34.301-9.207 51.109-4.2773 2.6445 0.77734 5.3281 1.5625 8.043 2.293 21.566 5.7969 43.844 8.4141 66.145 7.7812 1.7461-0.050781 2.8789-0.16797 3.3789-0.35156 0.40625-0.6875 0.84375-2.6367 1.082-3.7148 5.0078-22.496 13.32-44.059 24.707-64.09 25.391-44.664 65.664-83.688 97.914-112.69l10.523 11.699c-31.367 28.211-70.484 66.066-94.758 108.77-10.613 18.668-18.359 38.766-23.027 59.73-0.77734 3.4844-1.9453 8.75-6.3672 12.426-4.4648 3.7109-10.023 3.8711-13.008 3.957-2.3242 0.058594-4.6562 0.089844-6.9844 0.089844z"/>
 <path d="m738.12 411-9.1094-12.828c31.203-22.156 67.93-42.477 109.16-60.402l6.2734 14.43c-39.668 17.242-76.434 37.578-106.32 58.801z"/>
 <path d="m810.54 425.01-2.3828-15.555c20.785-3.1836 41.941-5.8594 62.402-8.4492 20.359-2.5742 41.41-5.2383 61.992-8.3906l2.3828 15.555c-20.785 3.1836-41.941 5.8594-62.402 8.4492-20.359 2.5742-41.41 5.2383-61.992 8.3906z"/>
 <path d="m957.88 341.77c-22.043-8.4648-51.727-17.434-88.227-26.66l3.8555-15.258c37.105 9.375 67.387 18.539 90.012 27.227z"/>
 <path d="m957.3 339.94c-7.043-4.5859-15.41-11.809-15.285-20.191 0.085937-5.7109 2.7305-10.293 4.8594-13.973 0.43359-0.74609 0.86719-1.4922 1.2695-2.2422 1.2188-2.2734 1.4375-3.957 1.3555-4.5078-0.20703-0.20313-0.64062-0.56641-0.96875-0.84375-1.5664-1.3086-3.9336-3.2891-5.2188-6.6055-1.6758-4.3125-1.7812-11.02 7.2461-18.465 4.9609-4.0938 9.8555-8.4102 14.547-12.82 3.6914-3.4688 7.457-7.4961 7.4141-11.031-0.47656-2-7.6211-6.3203-11.457-8.6445l-2.4375-1.4805 8.2266-13.414 2.3594 1.4336c9.2969 5.6289 18.914 11.449 19.043 21.914 0.11719 9.6289-6.1875 16.871-12.367 22.684-4.9414 4.6445-10.094 9.1875-15.312 13.496-0.61328 0.50781-1.082 0.9375-1.4414 1.293 0.87891 0.74609 1.8906 1.6602 2.8359 2.8672 4.3789 5.5977 4.3945 13.457 0.042969 21.566-0.47656 0.89062-0.98828 1.7812-1.5078 2.6758-1.2656 2.1914-2.4688 4.2734-2.707 5.8477 0.76953 1.3906 3.7617 4.4336 8.0977 7.2539z"/>
 <path d="m974.46 307.25c-3.6719-1.0938-8.8125-3.3281-14.262-5.6953-4.7812-2.0781-9.7188-4.2227-12.48-5.0469l4.4922-15.078c3.6719 1.0938 8.8125 3.3281 14.262 5.6953 4.7812 2.0781 9.7188 4.2227 12.48 5.0469z"/>
 <path d="m981.18 280.28c-2.8359-2.4023-8.0977-4.5-10.008-4.293l-1.6445-15.648c8.1484-0.875 17.516 4.2812 21.832 7.9453z"/>
 <path d="m496.1 886.4-14.281-6.6094c17.879-38.637 44.332-73.805 76.496-101.71l1.1289-0.97656c4.3516-3.7578 8.4609-7.3086 10.777-11.52 2.8086-5.1094 3.2969-11.719 3.8164-18.715l0.074219-1.0234c10.102-134.78 84.031-264.22 192.94-337.81l8.8086 13.039c-51.605 34.871-96.262 83.953-129.14 141.94-32.516 57.352-52.199 120.98-56.922 184.01l-0.074219 1.0117c-0.58984 7.9766-1.2617 17.023-5.7188 25.129-3.6797 6.6953-9.3125 11.559-14.281 15.852l-1.1055 0.95703c-30.492 26.445-55.574 59.789-72.523 96.422z"/>
 <path d="m614.45 790.12-8.2383-13.406c50.543-31.055 82.523-84.559 107.14-132.8 38.508-75.461 69.062-154.54 88.375-228.66l15.227 3.9648c-19.594 75.219-50.57 155.39-89.586 231.85-25.613 50.184-59.059 105.95-112.92 139.05z"/>
 <path d="m490.7 997.39-3.6484-12.473c-12.246-41.887-11.34-81.801 2.6953-118.63l14.703 5.6055c-11.461 30.078-13.27 62.562-5.4062 96.719 13.812-10.391 30.168-17.539 47.152-20.473l0.41797-0.070312c1.4922-0.25781 4.6016-0.79297 5.1406-1.3945 0.46484-0.51563 0.83984-3.0664 1.043-4.4375l0.15234-1.0195c2.7656-17.953 13.324-34.848 28.25-45.195 0.48438-0.33594 0.97266-0.66406 1.4648-0.99609 1.5938-1.0703 3.0977-2.0859 4.0078-3.1055 1.9766-2.207 2.8359-6.3281 3.5938-9.9609l15.164-72.637c1.4727-7.0586 2.582-13.762-0.03125-18.133-1.6172-2.7109-5.0039-4.9766-8.2773-7.1641l-21.117-14.125 8.75-13.078 21.117 14.125c4.2812 2.8633 9.6055 6.4258 13.039 12.18 5.5156 9.2344 3.9727 19.598 1.9219 29.414l-15.164 72.637c-1.043 5.0156-2.4766 11.883-7.2734 17.242-2.2188 2.4805-4.7305 4.1719-6.9453 5.6602-0.43359 0.29297-0.86328 0.57812-1.2891 0.875-11.445 7.9375-19.543 20.891-21.664 34.66l-0.13672 0.92188c-0.53516 3.6367-1.2734 8.6172-4.9062 12.66-4.1953 4.6641-9.9648 5.6562-14.18 6.3789l-0.40234 0.066407c-18.184 3.1445-35.523 11.93-48.82 24.73z"/>
 <path d="m602.14 1000.2c-4.1562-3.1875-9.0742-6.3633-14.277-9.7227-14.398-9.3008-30.723-19.848-37.469-35.441l14.441-6.2461c4.8516 11.211 18.434 19.984 31.562 28.469 5.4766 3.5391 10.652 6.8789 15.312 10.453z"/>
 <path d="m642.51 982.06c-31.523-20.203-47.098-56.766-54.609-83.879l15.164-4.2031c6.7812 24.469 20.602 57.316 47.938 74.836z"/>
 <path d="m672.3 958.86c-6.9844-8.1797-15.27-12.219-28.59-13.953-2.1719-0.29297-6.043 1.4258-11.883 11.219l-13.516-8.0547c3.0547-5.1289 12.375-20.723 27.434-18.773 12.238 1.5938 26.391 5.1328 38.523 19.336z"/>
 <path d="m700.13 913.24c-33.648-15.305-70.867-22.836-99.527-20.137l-1.4727-15.668c31.289-2.9375 71.477 5.0898 107.52 21.48z"/>
 <path d="m678.82 945.18c-11.668-12.883-11.695-31.973-0.0625-48.633l12.902 9.0039c-5.7852 8.293-9.1289 20.281-1.1758 29.066z"/>
 <path d="m673.88 902.88c-4.1328-0.29688-7.6602-2.0352-10.203-5.0234-3.3008-3.8828-4.6406-9.5352-3.9883-16.797 1.3281-14.746 13.68-28.613 27.527-30.902 6.0156-0.99609 11.875-0.55469 16.957 0.35938-0.18359-5.1289 0.70703-10.918 3.9922-15.598 3.1289-4.457 7.9648-7.1289 13.711-7.6133 0.89062-1.457 1.8555-4.6875 2.2461-6.0078 1.4531-4.8711 0.51172-5.793-4.7305-9.8906-5.043-3.9414-12.668-9.8984-11.531-22.012 0.92969-9.9062 7.4492-18.566 16.613-22.066 14.785-5.6484 29.855 1.7266 39.031 10.508l-10.879 11.371c-5.4375-5.207-14.594-10.211-22.539-7.1797-3.5508 1.3594-6.1914 4.9062-6.5547 8.8359-0.30078 3.2188 0.78125 4.4141 5.5508 8.1445 5.4922 4.293 14.688 11.477 10.121 26.785-1.6289 5.4727-5.0234 16.871-15.645 17.176-1.8555 0.050781-2.2695 0.64062-2.5156 0.99219-1.4492 2.0586-1.5859 7.3125-0.29297 11.242 1.1328 3.4492 0.25781 7.2188-2.2852 9.8438-2.6055 2.6953-6.4492 3.7109-10.039 2.6602-7.7109-2.2656-13.461-2.8867-18.645-2.0312-6.8594 1.1328-13.734 9.1367-14.426 16.793-0.29687 3.3203 0.16406 4.9375 0.37109 5.2773-0.13672-0.22656-0.55859-0.52734-0.81641-0.57422z"/>
 <path d="m754.45 778.72-15.684-1.2969c1.2305-14.879-5.625-30.367-17.469-39.461l-0.22266-0.17188c-2.1328-1.6289-5.7031-4.3594-6.8633-9.0977-0.87109-3.5508-0.17969-7.1602 1.9453-10.176 3.4297-4.8594 9.9297-7.1289 14.871-7.6328 22.738-2.3281 48.262 6.1484 64.566 14.852l-7.4062 13.883c-14.262-7.6094-36.355-15.023-55.562-13.078-0.12109 0.015626-0.23828 0.027344-0.35547 0.042969 15.121 12.398 23.789 32.656 22.18 52.137z"/>
 <path d="m766.71 772.54c-3.1641-1.4219-7.2617-2.4375-11.598-3.5117-4.8164-1.1953-9.7969-2.4297-14.246-4.4258l6.4375-14.359c3.1641 1.4219 7.2617 2.4375 11.598 3.5117 4.8164 1.1953 9.7969 2.4297 14.246 4.4258z"/>
 <path d="m770.66 720.14-15.465-2.8984c0.71094-3.8086 2.0117-8.3945 3.3828-13.258 3.4375-12.16 8.6328-30.543 3.5938-37.641l-8.3516-11.762 14.406-0.65234c16.855-0.76562 17.426-3.9062 18.801-11.508 1.1094-6.1211 2.6836-14.789 11.512-22.188-2.043-1.8906-4.7539-3.5664-8.2891-5.6914-3.1016-1.8594-6.6133-3.9648-10.059-6.707l-6.293-5.0078 5.1445-6.1836c7.3047-8.7773 17.227-10.73 25.98-12.457 5.7656-1.1367 11.211-2.2109 15.172-5.1016 4.5156-3.2969 6.6562-5.3789 7.6562-6.5391-0.33984-0.33594-0.70312-0.68359-1.0234-0.98828-3.7305-3.5664-10.684-10.203-8.9297-22.406 1.4883-10.375 9.0625-16.078 15.746-21.113 4.1992-3.1602 8.1602-6.1445 10.57-10.047 1.8711-3.0312 2.5664-7.7266 3.3008-12.699 0.87109-5.8867 1.8242-12.336 5.0156-17.93-5.5078-6.6719-9.6094-13.973-7.4062-21.008 2.707-8.6328 12.082-10.621 21.148-12.539 5.1211-1.0859 10.414-2.207 13.953-4.2656 3.707-2.1602 6.5312-6.5 7.9414-12.219 2.043-8.2578 0.70703-17.844-3.4023-24.422l13.344-8.3398c6.3516 10.16 8.3945 24.16 5.3398 36.535-2.4453 9.8867-7.875 17.715-15.297 22.039-5.7227 3.3359-12.574 4.7852-18.617 6.0664-2.8008 0.59375-6.7578 1.4297-8.8516 2.2734 0.72656 1.543 2.668 4.6953 7.8203 10.172l5.5664 5.9219-6.0977 5.375c-3.1367 2.7656-3.9883 8.5352-4.8906 14.641-0.89063 6.0352-1.9023 12.875-5.4805 18.664-3.9648 6.4219-9.5547 10.629-14.488 14.348-5.625 4.2383-9.1016 7.0273-9.6406 10.781-0.57422 4.0156 0.87891 5.5977 4.2188 8.7891 2.7773 2.6523 6.9727 6.6562 6.5586 12.906-0.38672 5.9023-4.6719 11.324-14.785 18.707-6.7734 4.9453-14.547 6.4805-21.406 7.832-3.3789 0.66406-6.25 1.2656-8.707 2.0352 6.4531 3.8867 13.508 8.4648 17.363 17.676l2.7734 6.625-6.3438 3.3672c-8.582 4.5508-9.4453 9.3125-10.641 15.902-1.9531 10.785-5.2344 20.051-23.059 23.301 2.0352 12.246-2.1758 27.141-5.7305 39.734-1.2656 4.5156-2.4688 8.7695-3.0547 11.879z"/>
 <path d="m899.09 468.35c-2.5391-0.27344-5.3672-1.3086-8.3594-2.4023-1.4492-0.53125-3.8711-1.418-4.6719-1.5391l1.7148-15.641c2.543 0.27344 5.3711 1.3086 8.3672 2.4062 1.4453 0.53125 3.8672 1.4141 4.668 1.5391z"/>
 <path d="m885.9 499.44-0.71484-0.17188c-5.8867-1.4023-15.734-3.7461-20.309-1.957l-5.7266-14.656c9.1562-3.5781 21.02-0.75391 29.68 1.3047l0.70703 0.16797z"/>
 <path d="m861.14 539.36c-1.207-1.0078-3.3633-2.2812-5.4453-3.5156-2.6172-1.5508-5.3242-3.1523-7.5-4.9648l10.07-12.09c1.207 1.0078 3.3672 2.2852 5.4492 3.5195 2.6172 1.5508 5.3203 3.1523 7.4961 4.9609z"/>
 <path d="m836.03 560.93 18.633-1.4492 1.2188 15.688-18.633 1.4492z"/>
 <path d="m839.57 606.18c-7.707-3.75-13.656-10.57-16.32-18.715l14.953-4.8945c1.3281 4.0547 4.4141 7.5938 8.2578 9.4609z"/>
 <path d="m804.23 631.63 2.8906-15.469 29.016 5.4219-2.8906 15.469z"/>
 <path d="m822.9 677.9c-8.8984-6.1875-20.922-11.84-31.371-14.754l4.2266-15.156c12.211 3.4023 25.715 9.7539 36.125 16.984z"/>
 <path d="m814.12 713.18c-16.34-4.8594-36.676-10.902-48.367-29.043l13.227-8.5234c7.9258 12.293 21.422 17.074 39.625 22.484z"/>
 <path d="m336.47 688.41c-3.8672 0-7.7344-0.65625-11.238-2.0117-4.7305-1.8281-8.9336-4.3203-13-6.7305-5.3633-3.1836-10.434-6.1875-15.586-6.8633l2.0508-15.602c8.3516 1.0977 15.371 5.2578 21.559 8.9297 3.6719 2.1797 7.1367 4.2305 10.645 5.5898 4.2578 1.6406 10.375 1.1211 13.641-1.1641 0.19141-0.13281 0.36328-0.26953 0.51563-0.39453l-31.562-27.344 10.301-11.895 38.117 33.02 0.066406 3.5039c0.125 6.4336-2.8633 12.117-8.4141 16.004-4.6445 3.25-10.863 4.957-17.094 4.957z"/>
 <path d="m358.38 674.99c-2.0469 0-4.1055-0.12891-6.1719-0.38672l1.957-15.613c25.539 3.1914 47.445-24.461 55.121-52.113 7.9883-28.773 1.4141-60.516-4.3828-88.52-0.015625-0.074219-0.03125-0.15234-0.054688-0.23047 0.25391 0.82031 1.5938 2.6641 4.125 3.1445l2.9375-15.457c2.5156 0.47656 6.9492 2.3281 8.4023 9.3555 6.1602 29.754 13.141 63.477 4.1367 95.922-4.7305 17.039-13.977 33.441-25.371 45.008-12.254 12.438-26.215 18.891-40.699 18.891z"/>
 <path d="m425.28 612.59c-2.1914 0-4.3945-0.097656-6.6016-0.29297l1.3867-15.676c15.055 1.3359 30.301-3.3516 39.789-12.227 6.7188-6.2891 10.027-13.98 9.8281-22.871l15.73-0.34766c0.29297 13.363-4.8281 25.363-14.809 34.703-11.402 10.676-27.984 16.711-45.324 16.711z"/>
 <path d="m283.99 779.41c-0.21484 0-0.43359-0.003906-0.64844-0.003906-19.902-0.27734-42.234-17.379-48.758-37.352l14.957-4.8867c4.3906 13.441 20.926 26.32 34.02 26.504 12.031 0.20312 28.68-7.7422 38.418-25.793 8.1289-15.066 9.3516-36.207 9.4727-54.891l15.734 0.10156c-0.13281 20.625-1.5898 44.152-11.359 62.266-11.191 20.75-31.48 34.055-51.836 34.055z"/>
 <path d="m213.16 798.18-3.7148-15.289c13.09-3.1836 31.555-12.773 39.992-24.281l12.691 9.3047c-11.254 15.355-33.273 26.453-48.969 30.266z"/>
 <path d="m205.26 819.43-5.1992-14.852c25.156-8.8008 51.363-24.516 66.766-40.023l11.164 11.086c-16.949 17.07-45.5 34.258-72.73 43.789z"/>
 <path d="m298.69 900.5-13.586-7.9375c8.5352-14.609 18.207-31.16 20.27-48.406 1.5117-12.633-0.89844-25.461-3.4492-39.043-0.54688-2.9219-1.1016-5.8594-1.6172-8.8203-12.488-2.5781-23.68-10.223-30.547-21.059l13.289-8.4258c3.4844 5.4922 8.8203 9.8438 14.875 12.348l0.007813-1.6367c-0.26953-4.418-0.28516-8.875 0.078124-13.371l15.711 0.66406-0.050781 12.316c0.54297 8.1602 2.1016 16.457 3.7188 25.082 2.6562 14.148 5.4023 28.781 3.6055 43.812-2.4453 20.492-12.996 38.547-22.305 54.477z"/>
 <path d="m377.12 951.13c-7.1367 0-13.855-1.7734-19.215-3.457-31.434-9.8867-58.715-30.398-82.789-48.492-13.121-9.8633-28.148-20.711-42.684-31.203-14.613-10.547-29.723-21.457-42.984-31.426l9.457-12.578c13.137 9.875 28.188 20.738 42.738 31.242 14.594 10.535 29.688 21.43 42.93 31.383 24.188 18.184 49.195 36.98 78.055 46.059 5.1914 1.6328 11.934 3.3867 18.016 2.4805 5.3086-0.79297 10.469-3.5508 16.176-6.8008l8.3945-4.7656c29.91-16.957 60.84-34.488 86.641-56.812l10.297 11.898c-26.98 23.348-58.602 41.27-89.18 58.605l-8.3711 4.75c-6.8438 3.8945-13.645 7.4883-21.629 8.6875-1.9648 0.30078-3.9258 0.42969-5.8516 0.42969z"/>
 <path d="m212.84 992.96-2.7891-15.488 0.95312-0.17187c31.961-5.7539 85.453-15.379 104.28-54.293l14.164 6.8555c-22.32 46.125-80.75 56.637-115.66 62.922z"/>
 <path d="m379.36 1078.6-15.371-3.3672c3.1406-14.344 8.7422-27.883 16.648-40.25 5.9688-9.3398 12.879-13.844 20.602-13.379 3.1758 0.19141 5.8086 1.2422 7.9258 2.0898 1.1602 0.46094 2.3594 0.94531 3.0117 0.99609 0.16797 0.019531 0.61719 0.046875 1.4023-0.71094 1.5625-1.5195 2.6094-4.4258 2.4805-6.9062-0.54297-10.637-28.051-57.691-41.117-67.707l9.5703-12.488c13.387 10.262 46.32 61.047 47.258 79.391 0.35938 7.0352-2.4102 14.312-7.2305 18.996-3.8047 3.6953-8.6562 5.5078-13.625 5.1094-3.0273-0.24219-5.5586-1.2578-7.5938-2.0664-1.1211-0.44922-2.3906-0.95703-3.0234-0.99219-1.1133-0.11719-3.4375 1.5078-6.4023 6.1484-6.9023 10.793-11.789 22.617-14.535 35.137z"/>
 <path d="m212.49 996.37-0.74219-15.719c19.934-0.94531 53.25-6.6914 82.906-14.301 35.738-9.1758 62.535-19.758 75.449-29.805l9.6602 12.418c-33 25.672-128.4 45.566-167.27 47.406z"/>
 <path d="m424.25 1079-14.992-4.7734c4.2773-13.434 3.0352-28.336-3.4023-40.879l14-7.1836c8.3203 16.215 9.9219 35.473 4.3945 52.836z"/>
 <path d="m448.73 1071.8c-0.93359-3.6016-5.5234-7.7695-10.91-9.9062-4.9844-1.9766-9.8047-2-12.891-0.058594l-8.3789-13.316c7.4297-4.6758 17.297-5.1289 27.074-1.2539 10.316 4.0938 18.109 11.98 20.34 20.586z"/>
 <path d="m468.95 1069.8-15.219-4c3.1641-12.039 12.859-21.883 25.934-26.336 13.07-4.4531 26.762-2.5664 36.613 5.0352l-9.6172 12.457c-5.6641-4.375-13.863-5.3477-21.93-2.5977-8.0586 2.7461-13.961 8.5195-15.781 15.441z"/>
 <path d="m479.21 1047.2c-9.1211-21.184-6.8477-43.949 6.7617-67.668l13.648 7.832c-11.164 19.457-13.113 36.992-5.957 53.613z"/>
 <path d="m337.24 1071c-5.2812 0-10.574-0.71875-15.699-2.1836-9.6875-2.7695-16.195-8.0234-18.824-15.195-0.73438-2.0039-1.0547-3.8789-1.3438-5.5352-0.19531-1.125-0.4375-2.5312-0.71484-3.0117-0.22656-0.39062-2.2734-0.99609-4.2734-0.15234-0.46094 0.19531-0.92969 0.61719-1.7891 1.4023-2.4375 2.2461-6.5234 6.0117-14.91 5.3359l-10.477-0.83594 3.7578-9.8164c3.4062-8.9023 4.9648-14.203 3.7539-21.719l-23.125 11.668-7.0859-14.051 23.465-11.84c2.3828-1.2031 9.6328-4.8594 16.121-0.36328 4.3633 3.0234 5.375 7.9844 5.7539 9.8555 1.1523 5.6719 1.2695 10.512 0.68359 15.07 7.6367-2.1914 17.219-0.16016 21.707 7.4922 1.7266 2.9453 2.2344 5.9102 2.6445 8.293 0.1875 1.0938 0.36719 2.125 0.60938 2.7891 0.79297 2.1602 3.9219 4.2109 8.375 5.4805 11.914 3.4023 25.598 1.0859 35.719-6.0508 4.7422-3.3438 13.367-4.8086 17.801-4.6172l-0.76562 15.719c-1.957-0.13672-6.6875 0.95703-8.0117 1.7852-9.7461 6.875-21.531 10.48-33.371 10.48z"/>
</svg>
