<svg xmlns="http://www.w3.org/2000/svg" xmlns:xlink="http://www.w3.org/1999/xlink" version="1.1" x="0px" y="0px" viewBox="0 0 100 100" enable-background="new 0 0 100 100" xml:space="preserve"><path d="M70.18,51.453l0.02-0.025V18.92L53.117,1.688H9.756v83.389h35.723l0.019-0.023c3.828,7.843,11.858,13.26,21.172,13.26  c13.02,0,23.574-10.555,23.574-23.574C90.244,62.914,81.529,53.151,70.18,51.453z M20.384,25.897h39.182  c1.51,0,2.732,1.313,2.732,2.931c0,1.619-1.223,2.931-2.732,2.931H20.384c-1.509,0-2.731-1.313-2.731-2.931  C17.653,27.21,18.875,25.897,20.384,25.897z M20.384,35.601h39.182c1.51,0,2.732,1.312,2.732,2.931c0,1.618-1.223,2.93-2.732,2.93  H20.384c-1.509,0-2.731-1.312-2.731-2.93C17.653,36.913,18.875,35.601,20.384,35.601z M41.541,60.867H19.209  c-0.859,0-1.557-1.313-1.557-2.932c0-1.618,0.697-2.93,1.557-2.93h22.331c0.857,0,1.557,1.312,1.557,2.93  C43.097,59.555,42.398,60.867,41.541,60.867z M19.904,51.164c-1.243,0-2.251-1.313-2.251-2.93c0-1.619,1.008-2.932,2.251-2.932  h32.262c1.242,0,2.248,1.313,2.248,2.932c0,1.617-1.006,2.93-2.248,2.93H19.904z M66.67,93.864  c-10.561,0-19.126-8.563-19.126-19.126c0-10.563,8.566-19.127,19.126-19.127c10.563,0,19.129,8.564,19.129,19.127  C85.799,85.302,77.232,93.864,66.67,93.864z M72.131,69.088c2.664,0,4.832-2.168,4.832-4.834s-2.168-4.834-4.832-4.834  s-4.834,2.168-4.834,4.834c0,0.198,0.037,0.387,0.061,0.58l-8.184,5.963c-0.795-0.576-1.766-0.925-2.82-0.925  c-2.664,0-4.832,2.168-4.832,4.833s2.168,4.832,4.832,4.832c1.057,0,2.027-0.35,2.822-0.926l8.205,5.966  c-0.047,0.267-0.084,0.536-0.084,0.815c0,2.665,2.17,4.832,4.834,4.832s4.832-2.167,4.832-4.832s-2.168-4.832-4.832-4.832  c-1.053,0-2.023,0.348-2.818,0.924l-8.207-5.968c0.047-0.265,0.084-0.533,0.084-0.812s-0.037-0.547-0.084-0.813l8.045-5.862  C69.975,68.682,71.002,69.088,72.131,69.088z M72.131,63.059c0.658,0,1.193,0.536,1.193,1.195c0,0.658-0.535,1.195-1.193,1.195  s-1.195-0.537-1.195-1.195C70.936,63.595,71.473,63.059,72.131,63.059z M56.354,75.898c-0.658,0-1.193-0.535-1.193-1.193  s0.535-1.195,1.193-1.195c0.66,0,1.197,0.537,1.197,1.195S57.014,75.898,56.354,75.898z M72.131,84.198  c0.658,0,1.193,0.536,1.193,1.194c0,0.659-0.535,1.193-1.193,1.193s-1.195-0.534-1.195-1.193  C70.936,84.734,71.473,84.198,72.131,84.198z"></path></svg>