<svg xmlns="http://www.w3.org/2000/svg" xmlns:xlink="http://www.w3.org/1999/xlink" version="1.1" x="0px" y="0px" viewBox="0 0 100 100" style="enable-background:new 0 0 100 100;" xml:space="preserve"><path d="M83.7,69.1c-3.1,0-5.7,2.6-5.7,5.7s2.6,5.7,5.7,5.7c3.1,0,5.7-2.6,5.7-5.7S86.8,69.1,83.7,69.1z"></path><path d="M89.5,82.6H77.9c-2.8,0-5,2.4-5,5.2v4.9h21.6v-4.9C94.5,85,92.3,82.6,89.5,82.6z"></path><path d="M50.6,1.2c-3.1,0-5.7,2.6-5.7,5.7s2.6,5.7,5.7,5.7c3.1,0,5.7-2.6,5.7-5.7S53.8,1.2,50.6,1.2z"></path><path d="M56.4,14.7H44.8c-2.8,0-5,2.4-5,5.2v4.9h21.6V20C61.5,17.1,59.2,14.7,56.4,14.7z"></path><path d="M17.2,69c-3.2,0-5.7,2.6-5.7,5.7c0,3.2,2.6,5.7,5.7,5.7s5.7-2.6,5.7-5.7C22.9,71.6,20.4,69,17.2,69z"></path><path d="M23,82.6H11.3c-2.8,0-5,2.4-5,5.3v4.9h21.8v-4.9C28.1,85,25.8,82.6,23,82.6z"></path><path d="M91,53.8c0.1,4.5-0.6,8.8-1.8,12.9l3.2,3.1c1.9-5,2.8-10.5,2.7-16c-0.3-18.8-12.3-34.7-29-41l0.1,4.3  C80.6,23.2,90.7,37.4,91,53.8z"></path><path d="M9,53.8c-0.1,4.5,0.6,8.8,1.8,12.9l-3.2,3.1c-1.9-5-2.8-10.5-2.7-16c0.3-18.8,12.3-34.7,29-41l-0.1,4.3  C19.4,23.2,9.3,37.4,9,53.8z"></path><path d="M66.1,91.5c-4.9,2.1-10.2,3.2-15.9,3.2c-5.2,0-10.2-1-14.8-2.7l-3,3c5.5,2.4,11.5,3.7,17.8,3.7  c6.8,0,13.1-1.5,18.8-4.2L66.1,91.5z"></path><path d="M47.4,41.1H32.7v13.6h14.7V41.1z M45,52.2h-9.8v-8.7H45V52.2z"></path><rect x="51.4" y="41.1" width="9.5" height="2.5"></rect><rect x="51.4" y="46.7" width="9.5" height="2.5"></rect><rect x="51.4" y="52.2" width="9.5" height="2.5"></rect><rect x="32.7" y="58" width="28.2" height="2.5"></rect><rect x="32.7" y="63.4" width="28.2" height="2.5"></rect><path d="M69.3,38.9h-0.9c-0.6-2.8-3.1-4.8-6-4.8H32c-3.4,0-6.2,2.8-6.2,6.2v26.5c0,3.4,2.8,6.2,6.2,6.2l40-0.1  l2.1,0.1c0.4,0,0.7-0.1,1-0.4c0.3-0.2,0.4-0.6,0.4-0.9V45C75.4,41.6,72.7,38.9,69.3,38.9z M32,70.2c-1.9,0-3.5-1.6-3.5-3.5V40.2  c0-1.9,1.6-3.5,3.5-3.5h30.3c1.9,0,3.5,1.6,3.5,3.5v26.5c0,1.3,0.4,2.5,1.1,3.5L32,70.2z M72.8,70.2l-0.7,0c0,0,0,0-0.1,0  c-1.9,0-3.5-1.6-3.5-3.5v-1.8H71v-2.5h-2.5V59H71v-2.5h-2.5v-3.1H71V51h-2.5v-3.1H71v-2.5h-2.5v-3.9h0.8c1.9,0,3.5,1.6,3.5,3.5V70.2  z"></path></svg>