<?xml version="1.0" encoding="UTF-8"?>
<svg width="1200pt" height="1200pt" version="1.1" viewBox="0 0 1200 1200" xmlns="http://www.w3.org/2000/svg">
 <g>
  <path d="m492.45 259.92c-0.61328 0-1.2227 0.097656-1.8086 0.29297l-42.293 14.129-26.699-4.6484 0.003907 0.003907c-1.9961-0.34766-4.0312 0.39453-5.3359 1.9453l-10.18 12.105-22.609 15.977c-0.26563 0.1875-0.51563 0.39453-0.74609 0.62109l-5.8555 5.8555c-0.50391 0.50391-0.90625 1.0977-1.1914 1.75l-6.1406 14.012-24.703 16.43c-0.36328 0.24219-0.69531 0.52734-0.99219 0.84375l-14.594 15.555h0.003907c-0.023438 0.027343-0.042969 0.050781-0.0625 0.078125l-9.6875 10.652v-0.003907c-0.17969 0.20312-0.34766 0.41406-0.5 0.63672l-20.34 30.027c-0.57812 0.85156-0.91406 1.8398-0.97266 2.8633l-0.90234 15.605-1.5938 4.0586v-0.003907c-0.375 0.95703-0.48438 2-0.31641 3.0156l0.83594 5.0117-1.5938 16.891-9.4414 6.2773v0.003906c-1.4727 0.97656-2.4102 2.5781-2.5352 4.3438l-0.95312 13.52c-0.015626 0.25781-0.015626 0.51562 0 0.77734l0.95312 14.594v-0.003906c0.0625 0.88281 0.32813 1.7422 0.77734 2.5039l9.6875 16.508v0.003906c0.24609 0.42188 0.54688 0.8125 0.89453 1.1562l13.355 13.254 1.582 7.9805c0.097656 0.51172 0.26562 1.0039 0.5 1.4648l5.8555 11.605c0.35547 0.70312 0.84766 1.3242 1.4531 1.8281l38.766 32.055v-0.003906c1.8711 1.5508 4.5195 1.7422 6.5938 0.47656l16.105-9.8164h18.953l13.766 3.6445 0.003906 0.003906c1.1562 0.30078 2.3789 0.23438 3.4961-0.19922l49.062-18.836 8.332 1.2656 7.3711 13.129c0.41406 0.74219 0.99219 1.3789 1.6875 1.8672l6.8086 4.7969h0.003906c1.0586 0.74219 2.3398 1.1055 3.6328 1.0195l26.48-1.6289 2.25 7.4102-0.90234 18.137-1.6602 11.711-6.7891 8.4727c-1.7148 2.1367-1.6719 5.1875 0.10938 7.2695l28.516 33.312 16.883 39.332 0.81641 4.0508 2.7891 19.789v9.1953l-10.23 11.918v0.003906c-0.55078 0.64062-0.94922 1.3945-1.1719 2.2109l-4.7969 17.461h0.003907c-0.22266 0.80859-0.26172 1.6523-0.11719 2.4766l3.832 22.258c0.09375 0.56641 0.27734 1.1172 0.53906 1.6289l22.906 44.77 4.6562 29.133c0.09375 0.59375 0.27734 1.168 0.55078 1.6992l25.891 50.734 1.6523 6.6797 0.92188 12.195c0.14453 1.9336 1.2617 3.6641 2.9688 4.5898l10.652 5.75v-0.003906c1.5703 0.84766 3.4453 0.91016 5.0703 0.16797l19.781-9 18.809 2.6445h-0.003907c0.69922 0.097656 1.4062 0.066406 2.0938-0.09375l16.398-3.8438v0.003906c0.77344-0.18359 1.5-0.52344 2.1328-1.0039l39.727-30.027c0.27344-0.20703 0.52734-0.4375 0.75781-0.6875l10.652-11.613v-0.003906c0.60938-0.66406 1.0547-1.4648 1.2969-2.3359l5.8555-21.293c0.30078-1.0977 0.26953-2.2617-0.097656-3.3398l26.285-13.559v-0.003906c1.8945-0.97656 3.082-2.9297 3.0859-5.0586v-21.297c0-0.57031-0.085937-1.1406-0.25781-1.6875l-3.6562-11.781 1.5312-1.2656 7.4492-4.5898h0.003906c0.44531-0.27734 0.85156-0.61719 1.207-1.0039l10.84-11.832 26.117-12.086c1.1719-0.54297 2.125-1.4688 2.7031-2.6211l7.7734-15.547h-0.003906c0.51562-1.0312 0.70312-2.1992 0.54297-3.3398l-1.6328-11.555 1.8672-3.1836c0.51562-0.87891 0.78516-1.875 0.78516-2.8906v-15.379l2.5156-6.8203v0.003906c1.0938-2.9492-0.41016-6.2266-3.3594-7.3203l-4.2266-1.5547-0.74609-17.402 2.5664-6.6719c0.63281-1.6602 0.45312-3.5195-0.48438-5.0312l-6.1602-9.9648 10.898-23.555 49.758-53.531c0.26563-0.28516 0.5-0.59766 0.69922-0.93359l41.742-68.891c0.69531-1.1484 0.96484-2.5039 0.75781-3.832l-3.9414-25.137v0.003906c-0.26953-1.7109-1.3008-3.2031-2.8047-4.0625-1.5-0.85938-3.3125-0.98828-4.918-0.35156l-9.4922 3.7539-27.27 8.4688-12.059 0.79688-6.7812-3.9805h0.003906c1.8477-2.1133 1.8789-5.2539 0.078126-7.4062l-20.34-24.27v-0.003907c-0.52734-0.63281-1.1875-1.1484-1.9375-1.5l-14.918-7.0273-15.613-26.492h0.003906c-0.55469-0.9375-1.3672-1.6992-2.3398-2.1914l-8.7461-4.4102-1.6719-22.031h0.003906c-0.10938-1.4375-0.76172-2.7773-1.8203-3.7539l-11.684-10.797-6.3359-14.453v-0.003906c-0.17578-0.39453-0.39844-0.77344-0.66016-1.1172l-27.887-37.398-12.391-22.051c-1.3047-2.3164-4.0352-3.418-6.582-2.6641l-8.4414 2.5078-51.422-8.3125-15.891-6.5625 0.003907-0.003906c-1.5273-0.63281-3.2578-0.57031-4.7344 0.17578l-15.445 7.7734-0.003906-0.003906c-1.332 0.67188-2.3477 1.8359-2.8281 3.2422l-2.3867 7.0078-3.125 2.2305-21.039-4.8828-12.34-13.215h-0.003906c-1.1992-1.2812-2.918-1.9375-4.668-1.7812l-9.2578 0.81641-16.625-7.625 3.4375-7.3711 0.003906 0.003907c0.85547-1.832 0.67578-3.9805-0.47266-5.6406l-8.7344-12.664v-0.003906c-1.0586-1.5508-2.8164-2.4805-4.6953-2.4805zm0.92188 11.387h43.578l5.1797 7.5273-4.4727 9.6094 0.003906 0.003907c-0.64062 1.3711-0.70703 2.9453-0.1875 4.3711 0.52344 1.4219 1.5898 2.5781 2.9688 3.2148l23.219 10.652v-0.003906c0.90234 0.41016 1.8945 0.58203 2.8789 0.49219l7.9805-0.71094 11.633 12.449c0.76953 0.82813 1.7695 1.4062 2.8711 1.6602l25.242 5.8555v0.003906c1.5938 0.36719 3.2695 0.035156 4.5977-0.91406l6.7109-4.7969c0.96484-0.69141 1.6914-1.668 2.0742-2.7891l2.2305-6.5352 11.035-5.5508 14.102 5.8164c0.40625 0.16797 0.83203 0.28906 1.2656 0.36328l53.348 8.6172c0.84375 0.13672 1.7109 0.082031 2.5352-0.16016l5.3242-1.582 10.336 18.395h0.003907c0.11719 0.21484 0.25391 0.42188 0.40234 0.62109l27.719 37.172 6.5547 14.957v-0.003906c0.31641 0.71875 0.77734 1.3672 1.3555 1.8984l10.918 10.082 1.75 23.004h-0.003907c0.15234 1.9883 1.332 3.7578 3.1172 4.6562l10.109 5.1094 15.664 26.559c0.57812 0.98438 1.4414 1.7734 2.4766 2.2617l15.367 7.2422 15.133 18.059-0.83594 0.47656c-1.7734 1-2.8789 2.875-2.8984 4.9141-0.019532 2.0352 1.0547 3.9297 2.8086 4.9609l16.5 9.6875c0.98437 0.58203 2.1211 0.85156 3.2617 0.77734l14.484-0.96484v0.003906c0.44531-0.03125 0.89062-0.11719 1.3164-0.25l28.113-8.7266c0.13672-0.042969 0.26953-0.089844 0.40234-0.14453l3.0664-1.2188 2.5234 16.047-40.367 66.621-49.977 53.777h0.003906c-0.40625 0.44141-0.74219 0.94141-0.99219 1.4844l-12.566 27.148-0.003907 0.003907c-0.80469 1.7383-0.68359 3.7656 0.32422 5.3945l6.2891 10.16-1.9766 5.1406 0.003907-0.003906c-0.28125 0.73047-0.40625 1.5078-0.375 2.2891l0.96484 22.355c0.097657 2.293 1.5625 4.3047 3.7148 5.1016l2.4375 0.90234-0.90234 2.4258h-0.003906c-0.23438 0.63281-0.35547 1.3008-0.35547 1.9766v14.855l-2.0938 3.5586h0.003906c-0.65234 1.1094-0.91016 2.4102-0.73047 3.6836l1.6719 11.762-6.0938 12.176-25.34 11.734c-0.68359 0.3125-1.2969 0.76172-1.8086 1.3164l-11.074 12.086-7.0938 4.3828c-0.21875 0.13672-0.42969 0.28906-0.62891 0.45312l-4.7969 3.9414c-1.7812 1.4688-2.5 3.8711-1.8164 6.082l4.5312 14.621v16.961l-30.777 15.871v-0.003906c-1.8203 0.94141-3 2.7891-3.082 4.8398-0.078125 2.0469 0.94531 3.9844 2.6914 5.0664l1.1797 0.73438-4.3633 15.871-9.375 10.211-38.34 28.988-14.188 3.3203-19.387-2.7305-0.003906-0.007812c-1.0742-0.14844-2.168 0.011718-3.1562 0.46094l-18.73 8.5078-5.4141-2.918-0.72656-9.5703h0.003906c-0.023437-0.3125-0.074218-0.625-0.14844-0.93359l-1.918-7.7734c-0.10156-0.42188-0.25391-0.83594-0.44922-1.2266l-25.793-50.527-4.6484-29.145c-0.09375-0.58594-0.28125-1.1562-0.55078-1.6875l-22.926-44.809-3.4766-20.152 4.1172-15.004 10.781-12.547-0.003907-0.003906c0.88672-1.0312 1.375-2.3516 1.375-3.7148v-11.711c0-0.26563-0.019531-0.53125-0.058593-0.79688l-2.8711-20.34h0.003906c-0.019531-0.10938-0.039062-0.21484-0.058594-0.32422l-0.96484-4.7969c-0.074218-0.38672-0.19141-0.76562-0.34375-1.1289l-17.473-40.672h0.003906c-0.22656-0.52734-0.53125-1.0234-0.90625-1.4609l-26-30.383 4.8164-6.0039c0.64062-0.80078 1.0547-1.7578 1.1992-2.7734l1.918-13.52h-0.003906c0.023438-0.17188 0.042969-0.34766 0.050781-0.51953l0.96484-19.379h-0.003906c0.035156-0.65234-0.046875-1.3086-0.23438-1.9375l-3.832-12.664c-0.76562-2.5312-3.1719-4.2031-5.8086-4.0391l-28.996 1.7891-4.1289-2.8984-8.0977-14.414h0.003907c-0.85938-1.5273-2.375-2.5781-4.1094-2.8398l-12.566-1.9141v-0.003906c-0.97656-0.14844-1.9766-0.042968-2.8984 0.3125l-48.758 18.719-12.707-3.3711c-0.47266-0.125-0.96094-0.19141-1.4531-0.19141h-21.293c-1.0469 0.003906-2.0742 0.29297-2.9688 0.83594l-14.004 8.5391-34.707-28.711-4.9727-9.8477-1.7695-8.9219h0.003906c-0.21875-1.1133-0.76562-2.1367-1.5703-2.9375l-14.062-13.965-8.6367-14.699-0.84375-12.863 0.73828-10.336 9.375-6.2188h-0.003906c1.4375-0.94922 2.3633-2.5 2.5273-4.2148l1.918-20.34h-0.003906c0.046875-0.49219 0.03125-0.98828-0.046875-1.4727l-0.70703-4.1953 1.3477-3.4375-0.003906-0.003906c0.21875-0.55859 0.34766-1.1484 0.38281-1.75l0.86328-14.934 19.238-28.387 9.3828-10.316 14.109-15.035 25.539-17h0.003907c0.91016-0.60547 1.625-1.457 2.0625-2.457l6.3867-14.562 4.7461-4.7539 22.816-16.113v-0.003906c0.40234-0.28125 0.76562-0.61719 1.082-0.99219l8.5391-10.16 24.879 4.332c0.92969 0.16406 1.8867 0.09375 2.7812-0.20312l42.781-14.297z"/>
  <path d="m893.72 713.17-6.8672 13.746-2.3281 8.7266-5.3633-2.2227-5.3242 14.945-2.418 2.043-2.8906 2.8867-3.3906 1.6328-1.1875 1.75h-0.30469l-18.09 6.418-7.5273 14.914 0.51172 24.125-7.625 7.1523-6.4375 12.871 1.1289 27.531 13.719 10.051 21.52-6.9375 1.0703-2.0938 29.762-57.699 3.3125-11.793 4.2148-6.1406 0.64844-5.6602 5.3242-6.5547-0.48047-27.531-10.977-22.168zm-0.27344 30.422 0.097657 5.207-1.543-2.1914zm-7.5742 4.9336 4.3516 1.7969 0.43359-0.90234-2.457 21.559-3.6758 5.3555-3.5 12.488-28.152 54.574-11.508 3.7148-4.5977-3.3594-0.78516-19.113 4.2148-8.4297 9.8359-9.2383-0.55078-26.355 4.1875-8.3047 11.938-4.2344h4.3828l2.8594-4.2148 2.3594-1.1289 3.9297-3.9297 4.3906-3.7031 2.3398-6.5742z"/>
 </g>
</svg>
