<svg xmlns="http://www.w3.org/2000/svg" xmlns:xlink="http://www.w3.org/1999/xlink" version="1.1" x="0px" y="0px" viewBox="-297.5 420.5 100 100" enable-background="new -297.5 420.5 100 100" xml:space="preserve"><g><path d="M-199.705,465.396c0-24.755-20.14-44.896-44.896-44.896c-0.001,0-0.002,0-0.003,0   c-25.561,0.002-46.355,14.188-46.355,31.625c0,2.479,0.439,4.936,1.266,7.322l-5.228,4.195c-0.001,0.001-0.001,0.002-0.002,0.003   c0,0,0,0,0,0c-0.013,0.011-0.018,0.026-0.03,0.036c-0.394,0.353-0.455,0.95-0.121,1.367c0.004,0.005,0.011,0.006,0.015,0.012   c2.44,2.99,4.005,8.474,4.163,14.484h-3.397c-0.042,0-0.079,0.02-0.12,0.024c-0.067,0.008-0.132,0.018-0.198,0.04   c-0.067,0.022-0.125,0.055-0.185,0.091c-0.035,0.021-0.074,0.027-0.107,0.053c-0.017,0.014-0.025,0.033-0.041,0.047   c-0.053,0.047-0.094,0.101-0.136,0.157c-0.037,0.049-0.075,0.096-0.101,0.15c-0.027,0.055-0.041,0.113-0.058,0.174   c-0.019,0.067-0.037,0.132-0.041,0.202c-0.001,0.021-0.013,0.04-0.013,0.062c0,0.042,0.019,0.078,0.024,0.118   c0.008,0.068,0.018,0.134,0.041,0.2s0.055,0.125,0.09,0.185c0.021,0.035,0.028,0.074,0.053,0.107c2.708,3.514,2.708,9.231,0,12.744   c-0.025,0.033-0.032,0.072-0.053,0.107c-0.036,0.06-0.068,0.117-0.091,0.185c-0.022,0.066-0.032,0.132-0.041,0.2   c-0.005,0.04-0.024,0.076-0.024,0.118c0,0.021,0.011,0.04,0.013,0.062c0.004,0.07,0.022,0.135,0.041,0.202   c0.017,0.061,0.031,0.119,0.058,0.174c0.026,0.055,0.064,0.102,0.102,0.15c0.042,0.057,0.083,0.11,0.136,0.157   c0.016,0.014,0.024,0.033,0.041,0.047c0.043,0.034,0.094,0.05,0.141,0.075c0.039,0.021,0.073,0.045,0.114,0.061   c0.037,0.015,0.073,0.023,0.111,0.033c-0.275,1.465,0.009,3.07,0.812,4.341c-0.078,1.559,0.565,3.187,1.679,4.356   c-0.031,0.052-0.066,0.098-0.088,0.155c-0.026,0.068-0.033,0.141-0.043,0.214c-0.007,0.048-0.028,0.091-0.028,0.141   c0,0.01,0.005,0.018,0.005,0.026c0.001,0.066,0.024,0.131,0.04,0.197c0.016,0.064,0.023,0.131,0.05,0.19   c0.004,0.009,0.002,0.018,0.007,0.026l1.152,2.348c0.486,0.991,0.881,3.614,0.669,5.794l-0.208,2.162   c-0.13,1.343,0.28,2.615,1.157,3.58c0.876,0.966,2.103,1.498,3.452,1.498h3.271c2.334,0,5.937-0.838,8.031-1.867l21.73-10.681   c2.326-1.144,4.148-4.07,4.148-6.662v-7.292h20.396c0.002,0,0.004-0.001,0.005-0.001   C-212.533,493.994-199.705,481.164-199.705,465.396z M-290.672,495.51l0.156,3.084h-1.619c-0.521-0.921-0.649-2.092-0.361-3.084   H-290.672z M-267.983,488.65c0.63,1,1.077,2.088,1.335,3.229l-3.536,1.796l-1.014-2.524L-267.983,488.65z M-290.29,503.094   c-0.749-0.623-1.267-1.559-1.412-2.5h1.286L-290.29,503.094z M-288.258,503.678l-0.155-3.084h1.79l0.181,3.084H-288.258z    M-284.444,503.586l-0.175-2.992h0.534c0.405,0,0.846-0.028,1.301-0.071l0.273,2.827   C-283.179,503.452-283.826,503.53-284.444,503.586z M-280.536,502.989l-0.266-2.758c0.628-0.12,1.261-0.264,1.891-0.433l0.519,2.66   C-279.061,502.651-279.782,502.83-280.536,502.989z M-276.481,501.813l-0.509-2.612c0.721-0.257,1.385-0.536,1.977-0.832   l0.753,2.604L-276.481,501.813z M-272.384,500.263l-0.814-2.813l1.972-1.001l1.177,2.931L-272.384,500.263z M-266.384,494.204   c0,1.435-0.313,2.828-0.867,4.115l-0.927,0.352l-1.258-3.133l3.043-1.545C-266.391,494.063-266.384,494.133-266.384,494.204z    M-272.845,492.417l0.871,2.168l-1.79,0.909l-0.612-2.117C-273.817,493.076-273.3,492.755-272.845,492.417z M-276.21,494.23   l0.632,2.185c-0.522,0.282-1.129,0.555-1.798,0.805l-0.472-2.42C-277.294,494.633-276.747,494.444-276.21,494.23z M-279.792,495.28   l0.497,2.55c-0.565,0.155-1.135,0.293-1.7,0.406l-0.268-2.771C-280.788,495.431-280.299,495.373-279.792,495.28z M-283.268,495.51   l0.292,3.024c-0.39,0.037-0.765,0.06-1.109,0.06h-0.651l-0.181-3.084H-283.268z M-286.921,495.51l0.181,3.084h-1.774l-0.155-3.084   H-286.921z M-250.704,501.29c0,1.831-1.388,4.06-3.031,4.867l-21.73,10.681c-1.833,0.901-5.106,1.662-7.148,1.662h-3.271   c-0.778,0-1.479-0.299-1.972-0.842c-0.493-0.543-0.722-1.269-0.647-2.044l0.208-2.162c0.232-2.391-0.147-5.406-0.864-6.867   l-0.445-0.907h3.478c2.803,0,7.216-0.807,9.837-1.799l7.272-2.752c-0.52,0.589-1.104,1.127-1.756,1.592   c-0.45,0.321-0.554,0.945-0.233,1.396c0.195,0.273,0.502,0.419,0.815,0.419c0.201,0,0.404-0.061,0.58-0.186   c1.73-1.234,3.078-2.881,3.977-4.747c0.039-0.066,0.068-0.133,0.091-0.205c0.742-1.611,1.16-3.374,1.16-5.191   c0-2.778-0.895-5.407-2.588-7.602l0,0l0-0.001c-0.538-0.696-0.822-1.533-0.822-2.42c0-1.19,0.544-2.315,1.46-3.065l0.436-0.024   c1.017,2.656,3.534,4.424,6.409,4.424c3.134,0,5.853-2.146,6.639-5.145l2.146-0.119V501.29z M-263.766,480.975l8.79-0.486   c-0.741,1.796-2.511,3.027-4.513,3.027C-261.305,483.516-262.923,482.521-263.766,480.975z M-228.307,491.997   c-0.002,0-0.003,0.001-0.005,0.001h-20.393v-11.856l7.541-0.417c0.551-0.03,0.974-0.502,0.942-1.054   c-0.03-0.551-0.477-1.009-1.054-0.942l-25.527,1.411c-2.775,0.26-5.061,1.271-6.898,2.083c-1.865,0.824-3.338,1.477-4.462,1.024   c-0.982-0.394-1.909-1.67-2.834-3.903c-0.212-0.51-0.797-0.754-1.307-0.541c-0.51,0.211-0.752,0.796-0.541,1.307   c1.158,2.795,2.41,4.382,3.939,4.994c0.518,0.208,1.036,0.297,1.56,0.297c1.404,0,2.85-0.639,4.454-1.349   c1.122-0.496,2.338-1.033,3.682-1.422c-0.374,0.789-0.584,1.657-0.584,2.552c0,0.994,0.239,1.946,0.696,2.802l-4.792,3.729   c-1.95,1.516-5.684,2.797-8.154,2.797h-10.411c-0.007-0.006-0.013-0.012-0.02-0.018c1.856-3.603,1.853-8.349-0.01-11.947h2.601   c0.552,0,1-0.447,1-1c0-6.448-1.494-12.305-4.029-15.949l5.015-4.025c0.013-0.011,0.018-0.025,0.029-0.036   c0.048-0.042,0.082-0.093,0.12-0.144c0.042-0.055,0.088-0.106,0.118-0.168c0.021-0.045,0.029-0.094,0.044-0.142   c0.023-0.075,0.048-0.148,0.053-0.228c0.003-0.044-0.008-0.088-0.011-0.133c-0.006-0.086-0.014-0.17-0.043-0.253   c-0.003-0.011-0.001-0.022-0.005-0.034c-0.907-2.374-1.367-4.833-1.367-7.309c0-16.335,19.899-29.625,44.358-29.625   c0.001,0,0.001,0,0.002,0c23.651,0.002,42.894,19.243,42.894,42.896C-201.705,480.063-213.639,491.997-228.307,491.997z"></path><path d="M-285.146,452.152c-0.552,0-1,0.447-1,1s0.448,1,1,1c2.078,0,4.011,1.225,5.493,2.99c-1.476,1.484-2.178,5-2.178,7.574   c0,2.59,0.686,4.6,1.817,5.629c-1.376,0.895-3.126,1.407-5.132,1.407c-0.552,0-1,0.447-1,1s0.448,1,1,1   c3.13,0,5.801-1.084,7.644-2.888c0.052-0.043,0.097-0.088,0.139-0.14c1.589-1.625,2.526-3.802,2.526-6.304   C-274.837,458.748-279.34,452.152-285.146,452.152z M-278.48,458.814c1.023,1.75,1.644,3.759,1.644,5.607   c0,1.789-0.594,3.348-1.629,4.567c-0.64-0.368-1.366-1.743-1.366-4.272C-279.832,462.063-279.082,459.723-278.48,458.814z"></path><path d="M-249.759,474.161l-16.17,0.895c-0.003,0-0.006,0.002-0.01,0.003c-0.005,0-0.009-0.002-0.014-0.002   c-4.258,0.334-5.913-0.971-6.524-1.782c-0.484-0.642-0.583-1.329-0.474-1.741c1.332-2.066,2.035-4.521,2.035-7.111   c0-2.244-0.519-4.602-1.5-6.822c-0.716-2.283-1.245-4.103,3.063-7.159c0.45-0.319,0.557-0.943,0.237-1.394   c-0.319-0.451-0.943-0.557-1.394-0.237c-5.529,3.923-4.609,6.855-3.797,9.442c0.011,0.037,0.025,0.073,0.041,0.108   c0.883,1.981,1.351,4.078,1.351,6.062c0,2.244-0.615,4.362-1.779,6.123c-0.042,0.063-0.076,0.131-0.102,0.201   c-0.335,0.896-0.321,2.348,0.724,3.732c0.774,1.027,2.654,2.631,6.837,2.631c0.445,0,0.918-0.019,1.417-0.058h0h0   c0.008-0.001,0.015,0,0.023-0.001c0,0,0.001,0,0.001,0l16.145-0.894c0.551-0.03,0.974-0.502,0.943-1.054   C-248.736,474.553-249.208,474.103-249.759,474.161z"></path></g></svg>