<svg xmlns="http://www.w3.org/2000/svg" data-name="Layer 1" viewBox="0 0 100 100" x="0px" y="0px"><title>icons</title><path d="M61.45,66.89C67.14,63.25,72.16,63.33,76,67a10.44,10.44,0,0,1-9.6,17.73c-5.48-1.34-7.91-5.19-8-12.78l-21-12.19c-2.84,2.32-6.09,3.45-9.81,2.52a10.15,10.15,0,0,1-5.91-3.94,10.53,10.53,0,0,1,1-13.53c3-3,8.76-4.95,14.71-.32L58.64,32c-.5-3.36-.13-6.5,2.08-9.17a10.12,10.12,0,0,1,5.61-3.55,10.43,10.43,0,0,1,9.78,17.62c-3.84,3.72-8.53,3.82-14.67.24L40.55,49.43v5.34Z"></path></svg>