<svg height='100px' width='100px'  fill="#000000" xmlns="http://www.w3.org/2000/svg" data-name="Layer 3" viewBox="0 0 64 64" x="0px" y="0px"><path d="M17,32A15,15,0,1,0,32,17,15.016,15.016,0,0,0,17,32ZM32,19A13,13,0,1,1,19,32,13.014,13.014,0,0,1,32,19Z"></path><path d="M19.706,43.707,16.414,47h7.6A17.1,17.1,0,0,1,19.706,43.707Z"></path><path d="M8.414,41,14,46.584l4.412-4.413Q17.984,41.6,17.6,41Z"></path><path d="M19.971,20a17.12,17.12,0,0,1,2.175-1.827,15.136,15.136,0,0,1,0-4.174H13.856A16.014,16.014,0,0,1,14,16.123,15.95,15.95,0,0,1,13.52,20Z"></path><path d="M21.427,35h9.805a23.085,23.085,0,0,0-2.69-4.751l-3.466-4.727c-.3-.416-.587-.851-.851-1.3A10.924,10.924,0,0,0,21.427,35Z"></path><path d="M25.7,41A10.93,10.93,0,0,0,32,43c.325,0,.646-.021.964-.049q-.039-.983-.158-1.951Z"></path><path d="M30.155,29.065a24.832,24.832,0,0,1,4.794,13.52,10.993,10.993,0,1,0-9.156-19.659,14.029,14.029,0,0,0,.9,1.413Z"></path><path d="M31.95,37H22.214a11.079,11.079,0,0,0,1.308,2H32.47C32.325,38.324,32.155,37.656,31.95,37Z"></path><path d="M4.156,51H31.862c.214-.656.394-1.325.549-2H3.6Q3.835,50.012,4.156,51Z"></path><path d="M45.955,41.68a17.157,17.157,0,0,1-4.272,4.273,3.229,3.229,0,0,0,4.272-4.273Z"></path><path d="M8.815,59.162l.738.83A3,3,0,0,0,11.8,61H24.206a3,3,0,0,0,2.24-1.007l.738-.83A23.053,23.053,0,0,0,31.1,53H4.912A23.015,23.015,0,0,0,8.815,59.162Z"></path><path d="M47.409,45.823a4.971,4.971,0,0,1-1.585,1.585L59.085,60.67a1.121,1.121,0,1,0,1.585-1.586Z"></path><path d="M15.753,37H4.049c-.205.658-.375,1.326-.52,2h13A16.719,16.719,0,0,1,15.753,37Z"></path><path d="M11.735,7.948A15.9,15.9,0,0,1,13.451,12h9.1a15.9,15.9,0,0,1,1.716-4.051l2.06-3.434A1,1,0,0,0,25.467,3H10.532a1,1,0,0,0-.858,1.515Z"></path><path d="M15,32a16.892,16.892,0,0,1,3.283-10H12.871a15.893,15.893,0,0,1-1.948,3.523L7.457,30.248A23.085,23.085,0,0,0,4.767,35H15.281A17.052,17.052,0,0,1,15,32Z"></path><path d="M5.584,41H3.193A23.315,23.315,0,0,0,3,43.864,23.038,23.038,0,0,0,3.237,47h8.348Z"></path><circle cx="47" cy="8" r="6"></circle><circle cx="56" cy="23" r="6"></circle></svg>