<svg xmlns="http://www.w3.org/2000/svg" xmlns:xlink="http://www.w3.org/1999/xlink" version="1.1" x="0px" y="0px" viewBox="0 0 24 24" enable-background="new 0 0 24 24" xml:space="preserve"><g><rect x="10" y="20" width="1" height="1"></rect><rect x="6" y="20" width="1" height="1"></rect><rect x="12" y="20" width="1" height="1"></rect><rect x="8" y="20" width="1" height="1"></rect><polygon points="22,21 24,21 23,19 21.882,19 22.382,20 22,20  "></polygon><rect x="20" y="20" width="1" height="1"></rect><polygon points="18,12 18.382,12 19.5,12 19,11 18,11  "></polygon><rect x="18" y="20" width="1" height="1"></rect><rect x="14" y="20" width="1" height="1"></rect><rect x="16" y="20" width="1" height="1"></rect><rect x="12" y="11" width="1" height="1"></rect><polygon points="6,12 6.618,12 7,12 7,11 6,11  "></polygon><polygon points="22,17 20.882,17 21.382,18 22.5,18  "></polygon><rect x="8" y="11" width="1" height="1"></rect><rect x="10" y="11" width="1" height="1"></rect><rect x="16" y="11" width="1" height="1"></rect><polygon points="20,13 18.882,13 19.382,14 20.5,14  "></polygon><polygon points="21.5,16 21,15 19.882,15 20.382,16  "></polygon><polygon points="3.5,16 4.618,16 5.118,15 4,15  "></polygon><polygon points="3,17 2.5,18 3.618,18 4.118,17  "></polygon><polygon points="2,19 1,21 3,21 3,20 2.618,20 3.118,19  "></polygon><rect x="4" y="20" width="1" height="1"></rect><polygon points="5,13 4.5,14 5.618,14 6.118,13  "></polygon><rect x="12" y="15" width="1" height="1"></rect><rect x="16" y="15" width="1" height="1"></rect><rect x="18" y="15" width="1" height="1"></rect><rect x="14" y="15" width="1" height="1"></rect><rect x="12" y="13" width="1" height="1"></rect><path d="M21,8c0-1.333,0-2.667,0-4c-2.333,1.92-4.667-1.92-7,0v9h1V7.506C17,7.069,19,9.646,21,8z"></path></g></svg>