<svg xmlns="http://www.w3.org/2000/svg" xmlns:xlink="http://www.w3.org/1999/xlink" version="1.1" x="0px" y="0px" viewBox="0 0 72 72" enable-background="new 0 0 72 72" xml:space="preserve"><g><path fill="#000000" d="M37.3,4.2h-4.7c-0.5,0-1-0.3-1.3-0.7c-1.1-1.8-3-2.9-5.2-2.9c-2.2,0-4.2,1.2-5.2,2.9   c-0.3,0.5-0.8,0.7-1.3,0.7h-4.7c-2.6,0-4.9,2-5.1,4.6c-0.2,2.9,2.1,5.2,4.9,5.2h22.8c2.8,0,5.1-2.4,4.9-5.2   C42.2,6.2,39.9,4.2,37.3,4.2z"></path><path fill="#000000" d="M68.6,28.1c0.2,0.2,0.4,0.2,0.6,0l1.9-1.9c0.5-0.5,0.5-1.2,0.1-1.6l-6.8-6.8c-0.4-0.4-1.1-0.4-1.6,0.1   l-1.9,1.9c-0.2,0.2-0.2,0.4,0,0.6L68.6,28.1z"></path><path fill="#000000" d="M46.9,56.1c-0.5,0.5-1.1,0.9-1.7,1.1l-11.8,4.9c-0.6,0.3-1.3,0.4-2,0.4c-1.3,0-2.6-0.5-3.5-1.4   c-1.4-1.4-1.8-3.6-1-5.5l5-11.8c0.3-0.6,0.7-1.2,1.1-1.7l18.4-18.4c0.2-0.2,0.4-0.6,0.4-0.9V10.5c0-0.4-0.4-0.8-0.8-0.8h-4.8   c-0.4,0-0.7,0.3-0.8,0.7c-0.3,1.5-0.9,3-2,4.1c-1.5,1.6-3.6,2.5-5.8,2.5H14.7c-2.2,0-4.3-0.9-5.8-2.5c-1.1-1.1-1.8-2.6-2-4.1   C6.8,10,6.4,9.7,6.1,9.7H1.3c-0.4,0-0.8,0.4-0.8,0.8v60.2c0,0.4,0.4,0.8,0.8,0.8h49.6c0.4,0,0.8-0.4,0.8-0.8V54.5   c0-1.2-1.4-1.8-2.3-0.9L46.9,56.1z"></path><path fill="#000000" d="M58.6,22L35.7,44.9c-0.1,0.1-0.2,0.3-0.3,0.4l-4.9,11.8c-0.2,0.4-0.1,0.9,0.2,1.1c0.3,0.3,0.7,0.4,1.1,0.2   l11.8-4.9c0.2-0.1,0.3-0.2,0.4-0.3l22.9-22.9c0.2-0.2,0.2-0.4,0-0.6L59.2,22C59,21.9,58.8,21.9,58.6,22z M41.6,52.1l-6.8,2.8   c-0.5,0.2-1-0.2-0.8-0.8l2.8-6.8c0.2-0.4,0.7-0.6,1.1-0.3l3.9,3.9C42.2,51.3,42,51.9,41.6,52.1z"></path></g></svg>