<svg xmlns="http://www.w3.org/2000/svg" viewBox="0 0 64 64" x="0px" y="0px"><title>Education - 64 Pixel - 40 Set - Expanded</title><g data-name="Layer 31"><path d="M16.5,39a1,1,0,0,1-.49-.13,1,1,0,0,1-.38-1.36l5-9a1,1,0,0,1,1.74,1l-5,9A1,1,0,0,1,16.5,39Z"></path><path d="M26.5,39a1,1,0,0,1-.87-.51l-5-9a1,1,0,0,1,1.74-1l5,9A1,1,0,0,1,27,38.87,1,1,0,0,1,26.5,39Z"></path><path d="M24.9,36.11H18.1a1,1,0,0,1,0-2h6.8a1,1,0,0,1,0,2Z"></path><path d="M14.5,50a1,1,0,0,1-.5-.13,1,1,0,0,1-.5-.87V44h-.62A5.38,5.38,0,0,1,7.5,38.63V28.38A5.38,5.38,0,0,1,12.88,23H31.13a5.38,5.38,0,0,1,5.37,5.38V38.63A5.38,5.38,0,0,1,31.13,44h-6L15,49.87A1,1,0,0,1,14.5,50ZM12.88,25A3.38,3.38,0,0,0,9.5,28.38V38.63A3.37,3.37,0,0,0,12.88,42H14.5a1,1,0,0,1,1,1v4.27l8.9-5.14a1.06,1.06,0,0,1,.5-.13h6.23a3.37,3.37,0,0,0,3.37-3.37V28.38A3.37,3.37,0,0,0,31.13,25Z"></path><path d="M46.5,22h-8a1,1,0,0,1,0-2h8a1,1,0,0,1,0,2Z"></path><path d="M42.5,22a1,1,0,0,1-1-1V19a1,1,0,0,1,2,0v2A1,1,0,0,1,42.5,22Z"></path><path d="M40.5,29a1,1,0,0,1-.89-.55,1,1,0,0,1,.44-1.34c1.15-.58,3.05-4.15,4-6.49a1,1,0,1,1,1.84.76c-.44,1.06-2.75,6.4-5,7.51A.93.93,0,0,1,40.5,29Z"></path><path d="M46.5,29a.94.94,0,0,1-.55-.17l-6-4a1,1,0,0,1,1.1-1.66l6,4A1,1,0,0,1,46.5,29Z"></path><path d="M48.5,41a1,1,0,0,1-.77-.36L43,35H35.5a1,1,0,0,1,0-2h8a1,1,0,0,1,.77.36l3.23,3.88V34a1,1,0,0,1,1-1h2.62a3.39,3.39,0,0,0,3.38-3.38V19.38A3.39,3.39,0,0,0,51.12,16H32.88a3.39,3.39,0,0,0-3.38,3.38V24a1,1,0,0,1-2,0V19.38A5.38,5.38,0,0,1,32.88,14H51.12a5.38,5.38,0,0,1,5.38,5.38V29.62A5.38,5.38,0,0,1,51.12,35H49.5v5a1,1,0,0,1-.66.94A1,1,0,0,1,48.5,41Z"></path></g></svg>