<svg xmlns="http://www.w3.org/2000/svg" xmlns:xlink="http://www.w3.org/1999/xlink" version="1.1" x="0px" y="0px" viewBox="0 0 100 100" enable-background="new 0 0 100 100" xml:space="preserve"><path d="M25,66.2c-3.9-4.7-6-10.4-6-16.2c0-15.1,13.9-27.4,31-27.4c17.1,0,31,12.3,31,27.4c0,15.1-13.9,27.4-31,27.4  c-2.4,0-4.9-0.3-7.2-0.7c-1.2-0.3-2-1.4-1.7-2.7c0.3-1.2,1.4-2,2.7-1.7c2,0.4,4.2,0.7,6.3,0.7c14.6,0,26.5-10.3,26.5-23  S64.6,27,50,27S23.5,37.3,23.5,50c0,5.3,2,10.2,5.8,14.3c0.6,0.6,0.7,1.5,0.5,2.3c-0.6,1.7-1.5,3.2-2.6,4.4c1.9-0.1,4-0.6,6-1.8  c1.1-0.6,2.4-0.3,3.1,0.8s0.3,2.4-0.8,3.1c-4.7,2.8-9.8,2.7-12.4,2.3c-1.3-0.2-2.3-1.1-2.5-2.3c-0.3-1.2,0.2-2.5,1.3-3.2  C23.2,68.9,24.3,67.7,25,66.2z M44.8,52.2h18c1.2,0,2.2-1,2.2-2.2s-1-2.2-2.2-2.2h-18c-1.2,0-2.2,1-2.2,2.2S43.5,52.2,44.8,52.2z   M44.8,43.6h18c1.2,0,2.2-1,2.2-2.2s-1-2.2-2.2-2.2h-18c-1.2,0-2.2,1-2.2,2.2S43.5,43.6,44.8,43.6z M44.8,60.9h18  c1.2,0,2.2-1,2.2-2.2c0-1.2-1-2.2-2.2-2.2h-18c-1.2,0-2.2,1-2.2,2.2C42.5,59.9,43.5,60.9,44.8,60.9z M37.2,38.7  c-1.4,0-2.6,1.2-2.6,2.6c0,1.4,1.2,2.6,2.6,2.6c1.4,0,2.6-1.2,2.6-2.6C39.8,39.9,38.7,38.7,37.2,38.7z M37.2,47.4  c-1.4,0-2.6,1.2-2.6,2.6c0,1.4,1.2,2.6,2.6,2.6c1.4,0,2.6-1.2,2.6-2.6C39.8,48.6,38.7,47.4,37.2,47.4z M37.2,56.1  c-1.4,0-2.6,1.2-2.6,2.6c0,1.4,1.2,2.6,2.6,2.6c1.4,0,2.6-1.2,2.6-2.6C39.8,57.2,38.7,56.1,37.2,56.1z"></path></svg>