<svg xmlns="http://www.w3.org/2000/svg" xmlns:xlink="http://www.w3.org/1999/xlink" version="1.1" x="0px" y="0px" viewBox="0 0 50 50" enable-background="new 0 0 50 50" xml:space="preserve"><rect x="12.6" y="22.306" width="4.75" height="3.375"></rect><rect x="21.642" y="22.306" width="4.75" height="3.375"></rect><rect x="12.6" y="29.243" width="4.75" height="3.375"></rect><rect x="21.642" y="29.243" width="4.75" height="3.375"></rect><path d="M39.538,41.239c-0.646,0.779-1.141,1.336-1.313,1.525l-0.642,0.707l-0.64-0.707c-0.173-0.189-0.668-0.746-1.315-1.525  c-1.154,0.324-1.938,0.916-1.938,1.604c0,1.029,1.742,1.863,3.893,1.863c2.152,0,3.895-0.834,3.895-1.863  C41.478,42.155,40.694,41.563,39.538,41.239z"></path><path d="M9.684,35.128V19.794h28.667v2.096c1.531,0.131,2.953,0.648,4.166,1.459V11.794c0-1.656-1.343-3-3-3h-2.684v1.875  c0,1.035-0.84,1.875-1.875,1.875c-0.061,0-0.117-0.012-0.177-0.018c0.551-0.326,0.923-0.92,0.923-1.607v-3.75  c0-1.035-0.839-1.875-1.875-1.875c-1.035,0-1.875,0.84-1.875,1.875v1.625H17.208v1.875c0,1.035-0.84,1.875-1.875,1.875  c-0.061,0-0.117-0.012-0.177-0.018c0.551-0.326,0.923-0.92,0.923-1.607v-3.75c0-1.035-0.839-1.875-1.875-1.875  c-1.035,0-1.875,0.84-1.875,1.875v1.625H8.517c-1.656,0-3,1.344-3,3v25c0,1.656,1.344,3,3,3h24.517  c-1.057-1.408-2.165-3.045-3.001-4.666H9.684z"></path><path d="M30.685,22.306v2.832c1.061-1.301,2.481-2.293,4.108-2.832H30.685z"></path><path d="M37.583,42.185c0,0,6.9-7.625,6.9-11.436s-3.09-6.898-6.9-6.898c-3.81,0-6.898,3.088-6.898,6.898  S37.583,42.185,37.583,42.185z M37.585,26.585c2.248,0,4.072,1.824,4.072,4.074s-1.824,4.074-4.072,4.074  c-2.25,0-4.075-1.824-4.075-4.074S35.335,26.585,37.585,26.585z"></path></svg>