<svg xmlns="http://www.w3.org/2000/svg" xmlns:xlink="http://www.w3.org/1999/xlink" version="1.1" x="0px" y="0px" viewBox="0 0 512 512" enable-background="new 0 0 512 512" xml:space="preserve"><path d="M454.7,372.6v-54c0-7.8-6.3-14.1-14.1-14.1H270.1V186.3h63.9c7.8,0,14.1-6.3,14.1-14.1V16.1c0-7.8-6.3-14.1-14.1-14.1H177.9  c-7.8,0-14.1,6.3-14.1,14.1v156.1c0,7.8,6.3,14.1,14.1,14.1h63.9v118.1H71.4c-7.8,0-14.1,6.3-14.1,14.1v54  C25.8,379.1,2,407.1,2,440.6C2,478.8,33.2,510,71.4,510s69.4-31.2,69.4-69.4c0-33.5-23.8-61.5-55.3-68v-39.9h156.3v39.9  c-31.6,6.5-55.3,34.5-55.3,68c0,38.3,31.2,69.4,69.4,69.4c38.3,0,69.4-31.2,69.4-69.4c0-33.5-23.8-61.5-55.3-68v-39.9h156.3v39.9  c-31.5,6.5-55.3,34.5-55.3,68c0,38.3,31.2,69.4,69.4,69.4c38.3,0,69.4-31.2,69.4-69.4C510,407.1,486.2,379.1,454.7,372.6z   M192.1,30.2h127.9v127.9H192.1V30.2z M112.7,440.6c0,22.7-18.5,41.2-41.2,41.2c-22.7,0-41.2-18.5-41.2-41.2s18.5-41.2,41.2-41.2  C94.2,399.3,112.7,417.8,112.7,440.6z M297.2,440.6c0,22.7-18.5,41.2-41.2,41.2c-22.7,0-41.2-18.5-41.2-41.2s18.5-41.2,41.2-41.2  C278.7,399.3,297.2,417.8,297.2,440.6z M440.6,481.8c-22.7,0-41.2-18.5-41.2-41.2s18.5-41.2,41.2-41.2c22.7,0,41.2,18.5,41.2,41.2  S463.3,481.8,440.6,481.8z"></path></svg>