<svg xmlns="http://www.w3.org/2000/svg" xmlns:xlink="http://www.w3.org/1999/xlink" version="1.1" x="0px" y="0px" viewBox="-17.5 -17.5 100 100" enable-background="new -17.5 -17.5 100 100" xml:space="preserve"><path d="M17.181,8.555c3.974,0,7.207-3.233,7.207-7.208c0-3.974-3.233-7.207-7.207-7.207c-3.975,0-7.207,3.233-7.207,7.207  C9.974,5.322,13.206,8.555,17.181,8.555z"></path><path d="M2.753,3.728c1.082,11.589,8.582,23.52,14.428,31.767c5.845-8.246,13.345-20.175,14.427-31.767  c0.536-5.75-0.447-10.149-2.923-13.078c-2.362-2.793-6.127-4.349-11.504-4.757c-5.377,0.408-9.142,1.964-11.504,4.757  C3.201-6.422,2.218-2.022,2.753,3.728z M17.181-7.359c4.801,0,8.707,3.906,8.707,8.707c0,4.801-3.906,8.708-8.707,8.708  c-4.802,0-8.707-3.906-8.707-8.708C8.474-3.453,12.379-7.359,17.181-7.359z"></path><path d="M31.75,53.971V30.335h-9.272c-1.601,2.506-3.208,4.827-4.688,6.892c-0.016,0.022-0.041,0.03-0.059,0.051  c-0.037,0.041-0.066,0.088-0.114,0.122c-0.021,0.016-0.047,0.021-0.069,0.035c-0.023,0.013-0.046,0.024-0.071,0.035  c-0.096,0.042-0.194,0.07-0.296,0.07l0,0H17.18c-0.101,0-0.2-0.028-0.296-0.07c-0.024-0.011-0.047-0.022-0.071-0.035  c-0.022-0.014-0.048-0.02-0.069-0.035c-0.047-0.034-0.077-0.08-0.113-0.122c-0.018-0.02-0.044-0.028-0.06-0.051  c-1.479-2.064-3.087-4.386-4.687-6.892H2.973l-5.585,23.636H31.75z"></path><polygon points="31.75,55.471 -2.967,55.471 -8.552,79.107 31.75,79.107 "></polygon><polygon points="67.966,55.471 33.25,55.471 33.25,79.107 73.552,79.107 "></polygon><polygon points="62.026,30.335 33.25,30.335 33.25,53.971 67.611,53.971 "></polygon></svg>