<svg xmlns="http://www.w3.org/2000/svg" xmlns:xlink="http://www.w3.org/1999/xlink" version="1.1" x="0px" y="0px" viewBox="0 0 66 66" enable-background="new 0 0 66 66" xml:space="preserve"><g><path d="M55.9,9.8C47.4,1.3,33.5,1.4,25,9.9c-7.3,7.4-8.3,18.7-3,27.1L17.1,42l-0.6-0.6c-0.4-0.4-1-0.4-1.4,0l-9.6,9.7   c-2.6,2.6-2.5,6.8,0,9.4l0.2,0.1c2.6,2.6,6.8,2.6,9.4,0l9.6-9.7c0.4-0.4,0.4-1,0-1.4l-0.6-0.6l4.9-4.9c8.4,5.3,19.7,4.3,27.1-3.2   C64.5,32.2,64.5,18.3,55.9,9.8z M22.7,47.5l-4.1-4.1l4.6-4.7c0.6,0.8,1.2,1.5,1.9,2.2c0.7,0.7,1.5,1.3,2.2,1.9L22.7,47.5z    M54.6,39.4c-7.7,7.7-20.3,7.9-28.1,0.1c-7.8-7.7-7.8-20.3-0.1-28.1c7.7-7.8,20.3-7.8,28.1-0.1C62.3,19,62.3,31.6,54.6,39.4z"></path><path d="M57.1,24.8c-4.4-6.1-10.3-9.5-16.6-9.5c-6.3,0-12.2,3.4-16.6,9.5c-0.3,0.3-0.3,0.8,0,1.2c4.4,6.1,10.3,9.5,16.6,9.5   c6.3,0,12.2-3.4,16.6-9.5C57.4,25.6,57.4,25.1,57.1,24.8z M40.5,34.5c-5,0-9.1-4.1-9.1-9.1c0-5,4.1-9.1,9.1-9.1   c5,0,9.1,4.1,9.1,9.1C49.6,30.4,45.5,34.5,40.5,34.5z"></path><path d="M40.5,20.6c-2.5,0-4.6,2.1-4.6,4.6s2.1,4.6,4.6,4.6c2.5,0,4.6-2.1,4.6-4.6S43,20.6,40.5,20.6z"></path></g></svg>