<svg xmlns="http://www.w3.org/2000/svg" data-name="Layer 1" viewBox="0 0 64 64" x="0px" y="0px"><title>Artboard 26</title><path d="M44,38v2.75H41.29V38Zm-8,0h4v3.37a.63.63,0,0,0,.63.63h4a.63.63,0,0,0,.62-.63V38h4a.71.71,0,0,1,.71.71V52a.71.71,0,0,1-.71.71H36a.71.71,0,0,1-.71-.71V38.67A.71.71,0,0,1,36,38ZM22.71,38v2.75H20V38Zm-8,0h4v3.37a.63.63,0,0,0,.62.63h4a.63.63,0,0,0,.63-.63V38h4a.71.71,0,0,1,.71.71V52a.71.71,0,0,1-.71.71H14.67A.71.71,0,0,1,14,52V38.67A.71.71,0,0,1,14.67,38ZM55.38,55.37H8.63V54H55.38ZM22.71,14v2.75H20V14Zm-8,0h4v3.37a.63.63,0,0,0,.62.63h4a.63.63,0,0,0,.63-.63V14h4a.71.71,0,0,1,.71.71V28a.71.71,0,0,1-.71.71H14.67A.71.71,0,0,1,14,28V14.67A.71.71,0,0,1,14.67,14Zm28.69,5.33v1.42H41.94V19.29Zm-4.69,0h2v2a.63.63,0,0,0,.62.63H44a.63.63,0,0,0,.63-.63v-2h2.06a.71.71,0,0,1,.71.71v8a.71.71,0,0,1-.71.71h-8A.71.71,0,0,1,38,28V20A.71.71,0,0,1,38.67,19.29ZM6.67,58h0A.7.7,0,0,1,6,57.33V6.67A.7.7,0,0,1,6.67,6h0a.71.71,0,0,1,.71.71V57.33A.71.71,0,0,1,6.67,58Zm2-26.66V30H55.38v1.42ZM57.33,58h0a.7.7,0,0,1-.7-.71V6.67a.7.7,0,0,1,.7-.71h0a.7.7,0,0,1,.71.71V57.33A.7.7,0,0,1,57.33,58Z"></path></svg>