<svg xmlns="http://www.w3.org/2000/svg" data-name="Layer 1" viewBox="0 0 64 64" x="0px" y="0px"><path d="M16.78,27a1,1,0,0,0,1.41.08L20.51,25a12,12,0,1,0-6.65-7.47l-2.31,2.06A1,1,0,0,0,11.46,21ZM25.33,5a9,9,0,1,1-9,9A9,9,0,0,1,25.33,5Z"></path><path d="M3.58,34.69A1,1,0,0,0,5,34.77l10.46-9.3-2.66-3L2.34,31.78a1,1,0,0,0-.09,1.42Z"></path><path d="M33,62H61a1,1,0,0,0,1-1V60a4,4,0,0,0-4-4H36a4,4,0,0,0-4,4v1A1,1,0,0,0,33,62Z"></path><path d="M36.5,55h3a.5.5,0,0,0,.5-.5V51h5a1,1,0,0,0,1-1V48a1,1,0,0,0-1-1H31a1,1,0,0,0-1,1v2a1,1,0,0,0,1,1h5v3.5A.5.5,0,0,0,36.5,55Z"></path><path d="M38.81,37.76,43,40.44a.45.45,0,0,0,.27.08.49.49,0,0,0,.42-.23l2.15-3.37h0l.77-1.21A6,6,0,0,0,52,39a5.94,5.94,0,0,0,3.42-1.08A10,10,0,0,1,57.5,44c0,4.31-3.32,8.53-7.7,10.62a.2.2,0,0,0,.09.38H57a.17.17,0,0,0,.12,0C60.2,52.65,62,48.6,62,44a13.86,13.86,0,0,0-4-10.27A5.84,5.84,0,0,0,58,33a6,6,0,0,0-5.82-6l.29-.46a.47.47,0,0,0,.07-.38l-.22-1a.53.53,0,0,1,.07-.37l.8-1.25a.49.49,0,0,1,.47-.23l1.61.16a.48.48,0,0,0,.47-.22l1.18-1.85a.5.5,0,0,0-.15-.69L50.86,17a.5.5,0,0,0-.69.15L49,19a.49.49,0,0,0,0,.52l.83,1.39a.49.49,0,0,1,0,.53L49,22.67a.52.52,0,0,1-.32.22l-1,.21a.55.55,0,0,0-.32.22L40.54,34.11h0l-1.88,3a.53.53,0,0,0-.07.37A.52.52,0,0,0,38.81,37.76ZM52,37a4,4,0,0,1-2-.56l2-2,2,2A3.86,3.86,0,0,1,52,37Zm4-4a3.86,3.86,0,0,1-.57,2l-2-2,2-2A3.86,3.86,0,0,1,56,33Zm-5.21-3.81A4,4,0,0,1,52,29a3.86,3.86,0,0,1,2,.57l-2,2-2-2A3.73,3.73,0,0,1,50.79,29.19ZM48.56,31l2,2-2,2A4,4,0,0,1,48,33.51,2.92,2.92,0,0,1,48,33,4,4,0,0,1,48.56,31Zm-7.17,3.68,3.37,2.15-1.61,2.53-3.38-2.15Z"></path><path d="M25.64,60.77a2.55,2.55,0,0,0,.06-2.52.71.71,0,0,0-.1-.14L19,49.66V46h1a2,2,0,0,0,2-2V43a2,2,0,0,0-2-2H10a2,2,0,0,0-2,2v1a2,2,0,0,0,2,2h1v3.66L4.4,58.11a.42.42,0,0,0-.09.14A2.54,2.54,0,0,0,6.53,62h17A2.5,2.5,0,0,0,25.64,60.77Zm-7.51-6.28L16.79,55.8a.2.2,0,0,0-.06.18l.32,1.85a.2.2,0,0,1-.29.21l-1.67-.87a.15.15,0,0,0-.18,0L13.24,58a.2.2,0,0,1-.29-.21L13.27,56a.23.23,0,0,0,0-.18l-1.35-1.31a.2.2,0,0,1,.11-.34l1.86-.27a.19.19,0,0,0,.15-.11l.83-1.69a.2.2,0,0,1,.36,0L16,53.77a.21.21,0,0,0,.15.11l1.86.27A.2.2,0,0,1,18.13,54.49ZM17,45.5v2.69c-1.44.32-2.55.72-4,1V45.5A1.5,1.5,0,0,0,11.5,44H10V43H20v1H18.5A1.5,1.5,0,0,0,17,45.5Z"></path></svg>