<svg xmlns="http://www.w3.org/2000/svg" xmlns:xlink="http://www.w3.org/1999/xlink" version="1.1" x="0px" y="0px" viewBox="0 0 100 100" style="enable-background:new 0 0 100 100;" xml:space="preserve"><path d="M82.3,25L63,5.8C62.4,5.3,61.7,5,61,5H21c-2.9,0-5.3,2.4-5.3,5.3v79.5c0,2.9,2.4,5.3,5.3,5.3h58c2.9,0,5.3-2.4,5.3-5.3V30  C84.3,28.1,83.6,26.4,82.3,25z M79.1,27.5h-16c-0.7,0-1.3-0.6-1.3-1.3v-16L79.1,27.5z M79,91.5H21c-1,0-1.8-0.8-1.8-1.8V10.3  c0-1,0.8-1.8,1.8-1.8h37.4v17.8c0,2.6,2.1,4.7,4.7,4.7h17.7v58.8C80.8,90.7,80,91.5,79,91.5z M67.3,74.8l-0.1-0.1V45.8h-29v0.1  l-0.1-0.1l-6,6.5l0.1,0.1v28.9h29v-0.1l0.1,0.1L67.3,74.8z M38.3,72.7l-3,3.3V55.3h3V72.7z M41.3,55.3h17v16.5h-17V55.3z M61.2,54.4  l3-3.3v20.6h-3V54.4z M62.3,48.8l-3.2,3.5H41.3v-3.5H62.3z M38.3,50.1v2.2h-2L38.3,50.1z M37.2,78.3l3.2-3.5h17.8v3.5H37.2z   M61.2,74.8h2l-2,2.2V74.8z"></path></svg>