<svg xmlns="http://www.w3.org/2000/svg" data-name="Layer 1" viewBox="0 0 64 64" x="0px" y="0px"><title>Untitled-1</title><path d="M47,11.26H57.78A1.56,1.56,0,0,0,59.34,9.7V1.56A1.56,1.56,0,0,0,57.78,0H47a1.56,1.56,0,0,0-1.56,1.56V4.74h-9a.89.89,0,0,0-.89.89V31.11h-4V24.44a1.39,1.39,0,0,0-1.39-1.39H6.05a1.39,1.39,0,0,0-1.39,1.39V39.56A1.39,1.39,0,0,0,6.05,41H30.11a1.39,1.39,0,0,0,1.39-1.39V32.89h4V58.37a.89.89,0,0,0,.89.89h9v3.18A1.56,1.56,0,0,0,47,64H57.78a1.56,1.56,0,0,0,1.56-1.56V54.3a1.56,1.56,0,0,0-1.56-1.56H47a1.56,1.56,0,0,0-1.56,1.56v3.18H37.32V41.68h8.14v3.18A1.56,1.56,0,0,0,47,46.42H57.78a1.56,1.56,0,0,0,1.56-1.56V36.72a1.56,1.56,0,0,0-1.56-1.56H47a1.56,1.56,0,0,0-1.56,1.56V39.9H37.32V24.1h8.14v3.18A1.56,1.56,0,0,0,47,28.84H57.78a1.56,1.56,0,0,0,1.56-1.56V19.14a1.56,1.56,0,0,0-1.56-1.56H47a1.56,1.56,0,0,0-1.56,1.56v3.18H37.32V6.52h8.14V9.7A1.56,1.56,0,0,0,47,11.26Zm1.57-7.78h6.13a.49.49,0,1,1,0,1H48.59a.49.49,0,1,1,0-1Zm0,3.32h7.62a.49.49,0,1,1,0,1H48.59a.49.49,0,0,1,0-1ZM8.84,26.56H19.68a.5.5,0,0,1,0,1H8.84a.5.5,0,1,1,0-1ZM27.33,37.44H8.84a.49.49,0,0,1-.5-.49.5.5,0,0,1,.5-.5H27.33a.5.5,0,0,1,.49.5A.49.49,0,0,1,27.33,37.44Zm-19-3.79a.49.49,0,0,1,.5-.49H23.5a.49.49,0,1,1,0,1H8.84A.49.49,0,0,1,8.34,33.65Zm19-2.81H8.84a.49.49,0,1,1,0-1H27.33a.49.49,0,1,1,0,1ZM48.59,56.22h6.13a.49.49,0,1,1,0,1H48.59a.49.49,0,1,1,0-1Zm0,3.32h7.62a.49.49,0,0,1,0,1H48.59a.49.49,0,0,1,0-1Zm0-20.9h6.13a.49.49,0,1,1,0,1H48.59a.49.49,0,1,1,0-1Zm0,3.32h7.62a.49.49,0,1,1,0,1H48.59a.49.49,0,0,1,0-1Zm0-20.9h6.13a.49.49,0,1,1,0,1H48.59a.49.49,0,1,1,0-1Zm0,3.32h7.62a.49.49,0,1,1,0,1H48.59a.49.49,0,1,1,0-1Z"></path></svg>