<svg height='100px' width='100px'  fill="#000000" xmlns="http://www.w3.org/2000/svg" data-name="Layer 1" viewBox="0 0 96 96" x="0px" y="0px"><title>Artboard 47</title><path d="M92.54,85.51l-8.9-8.9a4.9,4.9,0,0,0-5.31-1.11L76.1,73.27a16.77,16.77,0,0,0,3.62-10.41c0-.5,0-1-.07-1.48a40.86,40.86,0,0,0-5.83-45.33s0,0,0,0a2,2,0,0,0-.59-.65A40.76,40.76,0,0,0,43.62,2H42.39A40.89,40.89,0,0,0,12.81,15.36a2,2,0,0,0-.62.67s0,0,0,0a40.82,40.82,0,0,0,.23,54.18,1.71,1.71,0,0,0,.18.2,41,41,0,0,0,48.8,9.2c.49,0,1,.07,1.48.07A16.77,16.77,0,0,0,73.27,76.1l2.23,2.23a4.9,4.9,0,0,0,1.11,5.31l8.9,8.9a5,5,0,1,0,7-7ZM6.06,45H21.54a71.84,71.84,0,0,0,2.6,17.86,50,50,0,0,0-9.72,3.62A36.81,36.81,0,0,1,6.06,45Zm8.4-25.46a50.62,50.62,0,0,0,9.68,3.6A71.84,71.84,0,0,0,21.54,41H6.06A36.83,36.83,0,0,1,14.46,19.54ZM79.94,41H64.46a71.84,71.84,0,0,0-2.6-17.86,50.37,50.37,0,0,0,9.68-3.6A36.83,36.83,0,0,1,79.94,41ZM60.43,46.2A16.84,16.84,0,0,0,46.18,60.57l-1.18,0V45H60.47C60.46,45.41,60.44,45.8,60.43,46.2ZM45,6.27c4.54,1.15,8.76,6.17,11.69,13.93A70.93,70.93,0,0,1,45,21.45ZM41,21.45A70.93,70.93,0,0,1,29.31,20.2C32.23,12.45,36.45,7.43,41,6.27Zm-13,2.6a74.2,74.2,0,0,0,13,1.42V41H25.54A67.79,67.79,0,0,1,28,24.05ZM41,45V60.53A74.42,74.42,0,0,0,28,62a67.79,67.79,0,0,1-2.5-17Zm0,19.55V79.73c-4.5-1.17-8.77-6.25-11.68-13.93A70.92,70.92,0,0,1,41,64.55ZM45,41V25.47a74.2,74.2,0,0,0,13-1.42,67.79,67.79,0,0,1,2.5,17ZM60.63,19.33A36.26,36.26,0,0,0,54,7.7,37.26,37.26,0,0,1,68.7,16.47,49.15,49.15,0,0,1,60.63,19.33Zm-35.26,0a46.94,46.94,0,0,1-8.06-2.86A37.31,37.31,0,0,1,32,7.72,36.25,36.25,0,0,0,25.37,19.33Zm0,47.34A36.07,36.07,0,0,0,32,78.32a37,37,0,0,1-14.71-8.77A47.34,47.34,0,0,1,25.37,66.67ZM45,79.74V64.53l1.09,0a16.81,16.81,0,0,0,5.35,10.66A13,13,0,0,1,45,79.74Zm5-16.88v0s0,0,0,0a12.9,12.9,0,1,1,0,.08ZM64.44,46.08l0-1.08H79.94a37.38,37.38,0,0,1-2,10.27A16.88,16.88,0,0,0,64.44,46.08ZM54.07,78.31c.2-.23.41-.47.61-.72.19.11.39.21.59.31ZM89.71,89.72A1,1,0,0,1,89,90a1,1,0,0,1-.69-.28l-8.9-8.91a.94.94,0,0,1-.29-.68,1,1,0,0,1,.28-.69h0a1,1,0,0,1,.69-.28.94.94,0,0,1,.68.29l8.9,8.9a1,1,0,0,1,0,1.38Z"></path></svg>