<svg xmlns="http://www.w3.org/2000/svg" viewBox="0 0 64 64" x="0px" y="0px"><title>map location,placeholder,pin,location</title><g data-name="Layer 3"><path d="M21.45,28.19l9.74,14a1,1,0,0,0,.82.43,1,1,0,0,0,.82-.43l9.75-14a17.83,17.83,0,0,0,3.11-8.49,14.45,14.45,0,0,0,.21-2.37,13.89,13.89,0,1,0-27.78,0,12.84,12.84,0,0,0,.21,2.29A17.89,17.89,0,0,0,21.45,28.19ZM32,12a5.27,5.27,0,1,1-5.27,5.28A5.28,5.28,0,0,1,32,12Z"></path><path d="M32,20.6a3.27,3.27,0,1,0-3.27-3.27A3.27,3.27,0,0,0,32,20.6Z"></path><path d="M57.09,27.84a1,1,0,0,0-1-.88h-8a1,1,0,0,0,0,2h7.07l3.66,29.61H5.14L8.81,29h7.06a1,1,0,0,0,0-2H7.93a1,1,0,0,0-1,.88L3,59.44a1,1,0,0,0,1,1.12H60a1,1,0,0,0,1-1.12Z"></path><path d="M42.38,41.79c-.9,0-1.74.09-2.52.16a1,1,0,0,0,.1,2h.1c.73-.07,1.54-.12,2.39-.15l.55,0a1,1,0,1,0-.1-2Z"></path><path d="M48.57,33.31a9.5,9.5,0,0,1,1-.08,1,1,0,0,0,1-1,1,1,0,0,0-1-1h0a12,12,0,0,0-1.28.1,1,1,0,0,0,.13,2Z"></path><path d="M44.94,42.62a1,1,0,0,0,1,.86h.15a23,23,0,0,0,3.07-.65,1,1,0,0,0-.56-1.92,21.79,21.79,0,0,1-2.8.59A1,1,0,0,0,44.94,42.62Z"></path><path d="M36.78,42.44a14.56,14.56,0,0,0-3,1,1,1,0,0,0,.42,1.91,1,1,0,0,0,.43-.1,12.68,12.68,0,0,1,2.63-.88,1,1,0,0,0,.75-1.2A1,1,0,0,0,36.78,42.44Z"></path><path d="M50.79,41.25a1,1,0,0,0,.83.44,1,1,0,0,0,.56-.17,6.51,6.51,0,0,0,2.28-2.66A1,1,0,0,0,52.64,38a4.52,4.52,0,0,1-1.58,1.84A1,1,0,0,0,50.79,41.25Z"></path><path d="M12.46,53.55a7.36,7.36,0,0,0,3.27,1.07h.09a1,1,0,0,0,.1-2,5.24,5.24,0,0,1-2.38-.77,1,1,0,0,0-1.08,1.69Z"></path><path d="M52.86,35.35a2.25,2.25,0,0,1,.09.35,1,1,0,0,0,1,.82l.19,0a1,1,0,0,0,.79-1.17A5.22,5.22,0,0,0,53,32.19a1,1,0,0,0-1.4.23,1,1,0,0,0,.23,1.39A2.85,2.85,0,0,1,52.86,35.35Z"></path><path d="M11.81,46.71a1,1,0,0,0-1.38.33,4,4,0,0,0-.59,2.08,4.51,4.51,0,0,0,.34,1.69,1,1,0,0,0,.93.63,1,1,0,0,0,.37-.07,1,1,0,0,0,.56-1.3,2.7,2.7,0,0,1-.2-1,1.93,1.93,0,0,1,.3-1A1,1,0,0,0,11.81,46.71Z"></path><path d="M31,45.12c-.55.4-1.1.84-1.69,1.31l-.7.55a1,1,0,0,0,.62,1.79,1,1,0,0,0,.62-.22l.7-.55c.57-.46,1.1-.88,1.63-1.27A1,1,0,1,0,31,45.12Z"></path><path d="M16.15,43.62a13.28,13.28,0,0,0-3.07,1.14,1,1,0,0,0,.47,1.88,1.11,1.11,0,0,0,.46-.11,12.1,12.1,0,0,1,2.57-1,1,1,0,1,0-.43-2Z"></path><path d="M26.29,48.74c-.56.39-1.17.79-1.84,1.21l-.62.37a1,1,0,0,0,.51,1.86.9.9,0,0,0,.5-.14q.33-.18.66-.39c.7-.44,1.34-.86,1.93-1.27A1,1,0,0,0,27.68,49,1,1,0,0,0,26.29,48.74Z"></path><path d="M18.8,54.43l.21,0a17.11,17.11,0,0,0,3-1,1,1,0,0,0,.53-1.31,1,1,0,0,0-1.31-.54,13.91,13.91,0,0,1-2.67.85,1,1,0,0,0,.2,2Z"></path></g></svg>