<svg xmlns="http://www.w3.org/2000/svg" xmlns:xlink="http://www.w3.org/1999/xlink" version="1.1" x="0px" y="0px" viewBox="0 0 64 64" style="enable-background:new 0 0 64 64;" xml:space="preserve"><g><path d="M60,35H36c-0.552,0-1,0.448-1,1v24c0,0.552,0.448,1,1,1h24c0.552,0,1-0.448,1-1V36C61,35.448,60.552,35,60,35z M42,58V46   l12,6L42,58z M58,42H38v-4h20V42z"></path><path d="M43.5,21c-0.604,0-1.165,0.3-1.5,0.803L39.868,25h5.455l0.678-1.695L45,21.803C44.665,21.3,44.104,21,43.5,21z"></path><path d="M60,3H36c-0.552,0-1,0.448-1,1v24c0,0.552,0.448,1,1,1h24c0.552,0,1-0.448,1-1V4C61,3.448,60.552,3,60,3z M38,6h20v4H38V6z    M40,14c1.105,0,2,0.895,2,2c0,1.105-0.895,2-2,2s-2-0.895-2-2C38,14.895,38.895,14,40,14z M36.132,27l4.204-6.307   C41.043,19.633,42.226,19,43.5,19s2.457,0.633,3.164,1.693l0.238,0.357l1.426-3.564C48.933,15.976,50.374,15,52,15   s3.067,0.976,3.672,2.485L59.477,27H36.132z"></path><path d="M52,17c-0.804,0-1.516,0.482-1.814,1.229L47.477,25h9.047l-2.709-6.771C53.516,17.482,52.804,17,52,17z"></path><path d="M28,35H4c-0.552,0-1,0.448-1,1v24c0,0.552,0.448,1,1,1h24c0.552,0,1-0.448,1-1V36C29,35.448,28.552,35,28,35z M6,38h20v4H6   V38z M5,45h4v2H5V45z M5,53h8v2H5V53z M27,59H5v-2h22V59z M27,55H15v-2h12V55z M27,51H5v-2h22V51z M27,47H11v-2h16V47z"></path><path d="M28,3H4C3.448,3,3,3.448,3,4v24c0,0.552,0.448,1,1,1h24c0.552,0,1-0.448,1-1V4C29,3.448,28.552,3,28,3z M19,15h-5   c-0.552,0-1,0.448-1,1v1h6v2h-6v5c0,1.654-1.346,3-3,3s-3-1.346-3-3s1.346-3,3-3c0.352,0,0.686,0.072,1,0.184V16   c0-1.654,1.346-3,3-3h5V15z M26,10H6V6h20V10z"></path></g></svg>