<svg xmlns="http://www.w3.org/2000/svg" xmlns:xlink="http://www.w3.org/1999/xlink" version="1.1" x="0px" y="0px" viewBox="0 0 100 100" enable-background="new 0 0 100 100" xml:space="preserve"><g><g><path d="M35.774,26.716h0.927l-0.003,13.43c0,0.499,0.203,0.989,0.558,1.345c0.355,0.352,0.843,0.554,1.345,0.554H62.52    c0.508,0,0.984-0.196,1.345-0.557c0.359-0.358,0.555-0.837,0.555-1.342v-13.43h0.925c0.564,0,1.099-0.247,1.46-0.679    c0.361-0.435,0.511-1.001,0.415-1.557l-1.451-8.146c-0.162-0.905-0.955-1.569-1.875-1.569H37.228    c-0.919,0-1.715,0.664-1.874,1.569L33.9,24.48c-0.1,0.556,0.053,1.122,0.417,1.557C34.679,26.469,35.21,26.716,35.774,26.716z     M60.617,38.24H40.503V26.716h20.114V38.24z M38.82,18.568h23.479l0.775,4.344h-25.03L38.82,18.568z"></path><path d="M15.442,58.187h0.925v13.428c0,0.498,0.202,0.99,0.557,1.342c0.354,0.355,0.844,0.56,1.346,0.56h23.918    c0.507,0,0.985-0.2,1.345-0.56c0.357-0.357,0.557-0.835,0.557-1.342V58.187h0.923c0.563,0,1.097-0.249,1.458-0.68    c0.364-0.435,0.514-1.003,0.416-1.557l-1.454-8.148c-0.162-0.903-0.953-1.569-1.871-1.569H16.896c-0.92,0-1.716,0.663-1.874,1.569    l-1.455,8.148c-0.1,0.554,0.053,1.123,0.417,1.557C14.345,57.938,14.879,58.187,15.442,58.187z M40.285,69.709H20.171V58.187    h20.114V69.709z M18.488,50.039h23.479l0.774,4.342H17.714L18.488,50.039z"></path><path d="M54.324,47.804l-1.45,8.146c-0.101,0.555,0.053,1.124,0.415,1.556c0.361,0.433,0.891,0.68,1.455,0.68h0.927l-0.002,13.427    c0,0.503,0.202,0.991,0.558,1.348c0.353,0.353,0.844,0.555,1.344,0.555h23.92c0.509,0,0.986-0.197,1.345-0.559    c0.362-0.358,0.555-0.835,0.555-1.344V58.185h0.925c0.564,0,1.098-0.247,1.46-0.68c0.362-0.432,0.511-1,0.414-1.556l-1.453-8.146    c-0.16-0.907-0.953-1.571-1.87-1.571H56.198C55.277,46.232,54.486,46.897,54.324,47.804z M79.588,69.709H59.474V58.185h20.114    V69.709z M57.79,50.039h23.481l0.774,4.342H57.016L57.79,50.039z"></path><path d="M91.754,67.688c-1.051,0-1.902,0.851-1.902,1.901v9.343H10.151v-8.574c0-1.051-0.851-1.902-1.901-1.902    c-1.051,0-1.902,0.851-1.902,1.902v10.476c0,0.501,0.204,0.992,0.556,1.345c0.357,0.354,0.845,0.556,1.346,0.556h83.505    c0.507,0,0.983-0.197,1.345-0.556c0.36-0.359,0.558-0.836,0.558-1.345V69.589C93.657,68.539,92.802,67.688,91.754,67.688z"></path></g></g></svg>