<?xml version="1.0" encoding="UTF-8"?>
<svg width="1200pt" height="1200pt" version="1.1" viewBox="0 0 1200 1200" xmlns="http://www.w3.org/2000/svg">
 <path d="m538.64 286.69h124.6c17.391 0 32.109-14.156 32.109-32.109 0-17.719-14.391-32.016-32.109-32.016h-124.6c-17.719 0-32.109 14.297-32.109 32.016s14.391 32.109 32.109 32.109z"/>
 <path d="m703.03 331.45h-204.19c-15.234 0-27.609 12.375-27.609 27.609v103.45c0 15.234 12.375 27.609 27.609 27.609h204.19c15.234 0 27.609-12.375 27.609-27.609v-103.45c0-15.234-12.375-27.609-27.609-27.609zm-210.74 27.609c0-3.6094 2.9531-6.5625 6.5625-6.5625 221.06 0.75 202.6-1.3594 207.19 1.2656v94.688c0 9.5156-7.6875 17.109-17.109 17.109h-195.42c-2.6719-4.875-0.51562 5.625-1.2188-106.5z"/>
 <path d="m520.18 397.55h161.48c5.6719 0 10.266-4.875 10.266-10.922 0-6-4.5938-10.922-10.266-10.922h-161.48c-5.6719 0-10.266 4.875-10.266 10.922 0.046875 6.0469 4.6406 10.922 10.266 10.922z"/>
 <path d="m520.18 445.78h161.48c5.6719 0 10.266-4.875 10.266-10.922 0-6-4.5938-10.922-10.266-10.922h-161.48c-5.6719 0-10.266 4.875-10.266 10.922 0.046875 6.0469 4.6406 10.922 10.266 10.922z"/>
 <path d="m457.45 136.69h64.406c4.1719 0 7.5469-3.375 7.5469-7.5469s-3.375-7.5469-7.5469-7.5469h-64.406c-4.1719 0-7.5469 3.375-7.5469 7.5469-0.046875 4.1719 3.3281 7.5469 7.5469 7.5469z"/>
 <path d="m542.39 136.69h9.75c4.1719 0 7.5469-3.375 7.5469-7.5469s-3.375-7.5469-7.5469-7.5469h-9.75c-4.1719 0-7.5469 3.375-7.5469 7.5469-0.046875 4.1719 3.375 7.5469 7.5469 7.5469z"/>
 <path d="m871.26 922.92c-4.1719 0-7.5469 3.375-7.5469 7.5469v64.406c0 4.1719 3.375 7.5469 7.5469 7.5469s7.5469-3.375 7.5469-7.5469v-64.406c0-4.1719-3.375-7.5469-7.5469-7.5469z"/>
 <path d="m871.26 892.64c-4.1719 0-7.5469 3.375-7.5469 7.5469v9.75c0 4.1719 3.375 7.5469 7.5469 7.5469s7.5469-3.375 7.5469-7.5469v-9.75c0-4.125-3.375-7.5469-7.5469-7.5469z"/>
 <path d="m513.74 789.32h175.13c24.469 0 45.141-19.875 45.141-45.141 0-24.891-20.25-45-45.141-45h-175.13c-24.844 0-45.141 20.016-45.141 45 0 24.891 20.25 45.141 45.141 45.141z"/>
 <path d="m744.79 834.52h-286.97c-19.078 0-34.547 15.516-34.547 34.547v145.4c0 19.078 15.516 34.547 34.547 34.547h287.02c19.078 0 34.547-15.516 34.547-34.547v-145.4c0-19.031-15.516-34.547-34.594-34.547zm-300.52 34.594c0-7.4531 6.0469-13.5 13.5-13.5 305.81 0.42188 286.08-0.89062 291.24 0.84375v138.24c0 13.406-10.781 24.047-24.047 24.047h-279.84c-1.6406-5.0625-0.42188 5.4844-0.84375-149.63z"/>
 <path d="m487.82 923.21h226.97c7.9688 0 14.438-6.8438 14.438-15.328s-6.4688-15.328-14.438-15.328h-226.97c-7.9688 0-14.438 6.8438-14.438 15.328 0 8.4375 6.4688 15.328 14.438 15.328z"/>
 <path d="m487.82 990.98h226.97c7.9688 0 14.438-6.8438 14.438-15.328s-6.4688-15.328-14.438-15.328h-226.97c-7.9688 0-14.438 6.8438-14.438 15.328s6.4688 15.328 14.438 15.328z"/>
 <path d="m958.64 513.89h-112.12c7.0312-14.672 2.2969-5.9062 3.7031-323.58h5.0625c14.859 0 26.953-12.188 26.953-27.141v-48.422c0-15-12.094-27.141-26.953-27.141l-510.32-0.046875c-15 0-27.141 12.188-27.141 27.141v48.422c0 15 12.188 27.141 27.141 27.141h6.75c1.4531 325.36-3.4219 308.11 3.8438 323.58h-113.91c-18.703 0-33.891 15.094-33.891 33.703v68.016c0 18.703 15.188 33.891 33.891 33.891h13.688v414.94c0 25.688 21.141 48 48 48h596.21c26.344 0 47.812-21.516 47.812-48l-0.09375-414.94h11.391c18.562 0 33.703-15.188 33.703-33.891v-68.016c-0.046875-18.562-15.141-33.656-33.703-33.656zm-571.18-0.1875v-310.74h441.71v295.18c0 8.4375-6.7031 15.188-15.141 15.797-299.29-0.14062-422.34 0.1875-426.56-0.23438zm-48.609-350.53v-48.422c0-3.375 2.7188-6.0938 6.0938-6.0938h510.32c3.3281 0 5.9062 2.6719 5.9062 6.0938v48.422c0 3.3281-2.7188 6.0938-5.9062 6.0938h-510.32c-3.2344 0-6.0938-2.8594-6.0938-6.0938zm560.63 928.22-594.47 0.375c-1.1719-0.42188-2.3438-0.51562-3.6562-0.60938v-419.76h624.84v393.05c0 14.859-12 26.953-26.719 26.953zm71.766-475.82c0 7.0781-5.6719 12.844-12.656 12.844h-717.05c-7.0781 0-12.844-5.7656-12.844-12.844v-68.016c0-6.9844 5.7656-12.656 12.844-12.656 141.52 0.1875 300.47 0.42188 717.05 0 7.0781 0 12.656 5.5312 12.656 12.656z"/>
</svg>
