<svg xmlns="http://www.w3.org/2000/svg" xmlns:xlink="http://www.w3.org/1999/xlink" xmlns:serif="http://www.serif.com/" viewBox="0 0 63 96" version="1.1" xml:space="preserve" style="" x="0px" y="0px" fill-rule="evenodd" clip-rule="evenodd" stroke-linejoin="round" stroke-miterlimit="2"><g transform="matrix(1,0,0,1,-22.5429,-2.47478)"><path d="M53.987,97.525C53.987,97.525 85.431,53.001 85.431,33.919C85.432,16.565 71.342,2.475 53.987,2.475C36.633,2.475 22.543,16.564 22.543,33.919C22.543,53.001 53.987,97.525 53.987,97.525ZM53.987,9.795C66.273,9.795 76.247,19.77 76.247,32.055C76.247,44.341 66.273,54.315 53.987,54.315C41.702,54.315 31.727,44.341 31.727,32.055C31.727,19.77 41.702,9.795 53.987,9.795ZM62.702,14.671L62.775,14.652L62.886,14.647L63.089,14.681L63.266,14.734L63.565,14.846L63.896,14.99L64.184,15.141L64.397,15.293L64.59,15.453L64.716,15.575L64.898,15.784L65.01,15.939L65.163,16.198L65.275,16.43L65.397,16.738L65.503,17.054L65.515,17.125L65.514,17.179L65.51,17.207L65.51,17.209L65.491,17.277L65.412,17.427L65.253,17.65L64.961,18.028L64.569,18.516L63.924,19.299L63.187,20.184L62.538,20.955L61.76,21.873L60.702,23.114L59.865,24.088L59.508,24.494L58.966,25.07L58.38,25.674L57.763,26.3L56.999,27.063L56.452,27.599L55.878,28.154L55.313,28.684L54.879,29.075L54.583,29.32L54.383,29.458L54.277,29.507L54.203,29.528L54.147,29.534L54.09,29.531L54.035,29.519L53.97,29.492L53.922,29.461L53.88,29.423L53.845,29.379L53.599,29.787L53.66,30.126L53.729,30.413L53.853,30.864L53.924,31.096L54.749,33.689L54.77,33.784L54.773,33.833L54.799,33.87L54.822,33.913L54.844,33.985L54.85,34.034L54.843,34.157L54.791,34.631L54.731,35.027L54.642,35.524L54.572,35.874L54.396,36.703L54.292,37.215L54.202,37.725L54.148,38.098L54.1,38.556L54.101,38.56L54.102,38.603L54.098,38.646L54.089,38.688L54.074,38.729L54.056,38.767L54.032,38.803L54.005,38.836L53.973,38.865L53.939,38.89L53.901,38.912L53.887,38.918L53.67,39.077L53.048,39.562L52.402,40.052L51.872,40.438L51.275,40.852L50.863,41.126L50.363,41.446L49.968,41.688L49.556,41.93L49.056,42.211L48.574,42.467L48.153,42.68L47.582,42.958L47.019,43.223L46.465,43.477L45.834,43.757L45.134,44.059L44.379,44.372L43.664,44.659L42.922,44.946L42.243,45.199L41.413,45.496L40.785,45.711L39.899,46L39.862,46.006L39.823,46.008L39.785,46.006L39.71,45.989L39.674,45.975L39.64,45.957L39.608,45.935L39.579,45.91L39.552,45.882L39.529,45.851L39.493,45.783L39.481,45.747L39.473,45.709L39.469,45.671L39.469,45.632L39.473,45.594L39.481,45.557L39.51,45.485L39.682,45.199L40.002,44.726L40.462,44.078L40.918,43.453L41.546,42.605L42.27,41.639L43.59,39.884L43.948,39.39L44.331,38.915L44.684,38.496L45.044,38.08L45.503,37.559L45.971,37.038L46.495,36.465L46.99,35.938L47.236,35.684L47.523,35.406L47.757,35.21L47.934,35.05L48.115,34.918L48.242,34.852L48.349,34.812L48.398,34.801L48.998,34.615L49.422,34.488L50.1,34.292L51.869,33.794L52.709,33.552L53.509,33.311L52.914,31.44L52.761,30.92L52.652,30.5L52.566,30.092L52.534,29.841L52.534,29.627L52.564,29.475L52.608,29.368L52.895,28.893L52.955,28.78L52.956,28.779L52.971,28.701L52.982,28.666L52.654,28.479L52.593,28.464L52.528,28.434L52.482,28.402L52.442,28.363L52.408,28.318L52.376,28.255L52.357,28.187L52.352,28.116L52.358,28.06L52.379,27.992L52.451,27.8L52.618,27.485L52.899,27.024L53.193,26.567L53.656,25.873L54.083,25.247L54.44,24.732L54.979,23.965L55.496,23.24L55.997,22.55L56.428,21.974L56.675,21.66L57.351,20.837L58.089,19.945L58.956,18.903L59.612,18.12L60.395,17.193L61.009,16.471L61.56,15.833L62.059,15.268L62.348,14.955L62.567,14.747L62.647,14.695L62.698,14.672L62.702,14.671ZM54.028,34.919L52.119,35.844L51.583,36.296L50.58,37.129L49.015,38.418L47.73,39.472L46.649,40.355L45.287,41.464L44.489,42.112L43.474,42.932L42.438,43.764L41.647,44.393L41.03,44.876L41.873,44.577L42.741,44.254L43.327,44.028L44.03,43.747L44.688,43.475L45.286,43.22L45.903,42.949L46.536,42.663L47.182,42.36L47.744,42.089L48.247,41.836L48.751,41.567L49.201,41.314L49.764,40.98L50.173,40.725L50.65,40.416L51.202,40.04L51.751,39.648L52.193,39.321L52.748,38.895L53.401,38.389L53.452,37.936L53.494,37.648L53.581,37.151L53.686,36.626L53.861,35.798L53.944,35.388L54.028,34.919ZM52.87,34.246L51.978,34.502L50.463,34.928L49.707,35.145L49.12,35.321L48.563,35.49L48.562,35.49L48.552,35.494L48.55,35.495L48.547,35.495L48.545,35.496L48.542,35.497L48.478,35.529L48.036,35.903L48.035,35.904L47.742,36.183L47.353,36.589L46.873,37.104L46.344,37.686L45.958,38.118L45.506,38.632L45.029,39.189L44.689,39.599L44.4,39.975L44.201,40.253L43.779,40.818L43.012,41.835L42.208,42.908L41.666,43.637L41.165,44.32L42.006,43.654L42.891,42.945L43.749,42.253L44.795,41.406L46.425,40.08L48.288,38.555L49.502,37.558L50.353,36.855L51.064,36.266L51.899,35.564L52.87,34.246ZM52.966,28.973L52.97,28.988L52.964,28.961L52.966,28.973ZM52.96,28.942L52.962,28.949L52.96,28.937L52.96,28.942ZM56.489,26.567L56.373,26.261L56.244,26.021L56.109,25.84L55.941,25.678L55.661,25.494L55.63,25.478L55.225,25.372L54.926,25.327L54.903,25.326L54.891,25.328L54.369,26.088L53.896,26.793L53.56,27.31L53.274,27.772L53.173,27.949L53.172,27.95L53.466,28.132L53.727,28.311L54.097,28.598L54.215,28.704L54.553,28.414L55.007,27.999L55.589,27.446L56.117,26.933L56.489,26.567ZM52.765,28.478L52.767,28.478L52.771,28.477L52.765,28.478ZM52.788,28.474L52.78,28.475L52.802,28.47L52.788,28.474ZM62.932,15.375L62.661,15.663L62.195,16.186L61.664,16.799L60.937,17.652L60.157,18.578L59.374,19.513L58.194,20.933L57.43,21.86L57.105,22.26L56.705,22.788L56.312,23.324L55.82,24.008L55.35,24.672L55.721,24.76L55.907,24.823L56.11,24.931L56.342,25.089L56.483,25.208L56.653,25.382L56.819,25.6L56.987,25.896L57.042,26.016L57.572,25.482L58.153,24.888L58.714,24.303L59.074,23.914L59.686,23.206L60.491,22.267L61.474,21.111L62.385,20.033L63.14,19.131L63.712,18.44L64.2,17.841L64.543,17.409L64.772,17.103L64.679,16.85L64.553,16.567L64.367,16.26L64.249,16.116L63.976,15.866L63.777,15.725L63.365,15.533L63.04,15.408L62.934,15.376L62.932,15.375Z"></path></g></svg>