<svg xmlns="http://www.w3.org/2000/svg" xmlns:xlink="http://www.w3.org/1999/xlink" version="1.1" x="0px" y="0px" viewBox="0 0 100 100" style="enable-background:new 0 0 100 100;" xml:space="preserve"><g><g><path d="M50,100c-2,0-4-0.5-5.8-1.5l-35-19.2C5.4,77.2,3,73.2,3,68.8V31.2c0-4.4,2.4-8.4,6.2-10.5l35-19.2c3.6-2,7.9-2,11.5,0    l35,19.2c3.8,2.1,6.2,6.1,6.2,10.5v37.6c0,4.4-2.4,8.4-6.2,10.5l-35,19.2C54,99.5,52,100,50,100z M50,4c-1.3,0-2.6,0.3-3.9,1    l-35,19.2c-2.6,1.4-4.1,4.1-4.1,7v37.6c0,2.9,1.6,5.6,4.1,7l35,19.2c2.4,1.3,5.3,1.3,7.7,0l35-19.2c2.6-1.4,4.2-4.1,4.2-7V31.2    c0-2.9-1.6-5.6-4.2-7L53.8,5C52.6,4.3,51.3,4,50,4z"></path></g></g><g><path d="M72.2,79.7c-0.2,0-0.3,0-0.5-0.1l-18.1-4.5c-1.1-0.3-1.7-1.3-1.5-2.4c0.3-1.1,1.4-1.7,2.4-1.5l18.1,4.5   c1.1,0.3,1.7,1.3,1.5,2.4C73.9,79.1,73.1,79.7,72.2,79.7z"></path><path d="M28.1,80.6c-0.8,0-1.5-0.4-1.8-1.2c-0.5-1,0-2.2,1-2.7l5.4-2.5c1-0.5,2.2,0,2.7,1c0.5,1,0,2.2-1,2.7L29,80.4   C28.7,80.5,28.4,80.6,28.1,80.6z"></path><path d="M29.4,72.9c-1.3,0-2.4-0.4-3.3-1.3c-1.4-1.4-1.7-3.6-0.8-5.7c1.4-3.5,3.4-6.5,5.7-8.8c6.1-6.1,14.6-7.5,14.9-7.5   c0.6-0.1,1.3,0.1,1.7,0.6c0.5,0.4,0.7,1.1,0.6,1.7c-0.1,0.4-1.4,8.8-7.5,14.9c-2.4,2.4-5.3,4.3-8.8,5.7l0,0   C31,72.8,30.2,72.9,29.4,72.9z M43.5,54.3c-2.7,0.9-6.5,2.5-9.6,5.6c-2,2-3.6,4.5-4.9,7.5c-0.3,0.7-0.2,1.2-0.1,1.4   c0.2,0.2,0.7,0.2,1.4-0.1c0,0,0,0,0,0c3-1.2,5.5-2.9,7.5-4.9C40.9,60.8,42.6,56.9,43.5,54.3z"></path><path d="M52.9,89.4c-0.6,0-1.2-0.1-1.7-0.4c-2.1-1-4-2.3-5.5-3.9C42,80.9,41,75.2,41,75c-0.1-0.6,0.1-1.3,0.6-1.7   c0.5-0.5,1.1-0.7,1.7-0.6c0.2,0,5.4,0.9,9.2,5.1c1.5,1.6,2.7,3.6,3.6,6c0.7,1.8,0.4,3.6-0.8,4.7C54.6,89.1,53.8,89.4,52.9,89.4z    M45.9,77.8c0.6,1.5,1.5,3.2,2.7,4.6c1,1.1,2.2,2,3.6,2.7c-0.7-1.9-1.7-3.4-2.8-4.6C48.4,79.2,47.1,78.4,45.9,77.8z"></path><path d="M18.9,64.5c-0.2,0-0.5,0-0.7-0.1c-0.2-0.1-4.3-1.7-5.3-5.6c-0.4-1.5-0.3-3.2,0.2-5l0,0c0.4-1.4,1.5-2.5,2.9-2.9   c1.2-0.4,2.5-0.2,3.4,0.6c1.4,1.1,2.3,2.5,2.7,4c1,3.7-1.2,7.6-1.5,8C20.3,64.2,19.6,64.5,18.9,64.5z M17,54.8   c-0.1,0-0.1,0.1-0.1,0.1c0,0,0,0,0,0c-0.3,1.1-0.4,2.1-0.2,2.9c0.2,0.8,0.7,1.4,1.3,1.9c0.3-1,0.5-2.1,0.3-3.1   C18.1,55.9,17.7,55.3,17,54.8z M15,54.3L15,54.3L15,54.3z"></path><path d="M48.1,71.5c-0.4,0-0.7-0.1-1-0.3l-3.8-2.3c-0.9-0.6-1.2-1.8-0.7-2.8c0.6-0.9,1.8-1.2,2.8-0.7l3.8,2.3   c0.9,0.6,1.2,1.8,0.7,2.8C49.4,71.2,48.8,71.5,48.1,71.5z"></path><path d="M38.4,87c-1.1,0-2-0.9-2-2v-3.7c0-1.1,0.9-2,2-2s2,0.9,2,2V85C40.4,86.1,39.5,87,38.4,87z"></path><path d="M60.9,86.5c-0.5,0-1-0.2-1.4-0.6c-0.8-0.8-0.8-2,0-2.8l3-3c0.8-0.8,2-0.8,2.8,0s0.8,2,0,2.8l-3,3   C61.9,86.3,61.4,86.5,60.9,86.5z"></path><path d="M80.9,59.9c-0.9,0-1.7-0.6-1.9-1.6c-0.2-1.1,0.4-2.1,1.5-2.4l4.1-0.9c1.1-0.2,2.1,0.4,2.4,1.5c0.2,1.1-0.4,2.1-1.5,2.4   l-4.1,0.9C81.2,59.9,81,59.9,80.9,59.9z"></path><path d="M28.7,55.8c-0.4,0-0.8-0.1-1.2-0.4l-4.1-3c-0.9-0.7-1.1-1.9-0.4-2.8s1.9-1.1,2.8-0.4l4.1,3c0.9,0.7,1.1,1.9,0.4,2.8   C29.9,55.5,29.3,55.8,28.7,55.8z"></path><path d="M52,63c-1.1,0-2-0.9-2-2v-4c0-1.1,0.9-2,2-2s2,0.9,2,2v4C54,62.1,53.2,63,52,63z"></path><path d="M77.1,54.3c-1.1,0-2-0.9-2-2v-4c0-1.1,0.9-2,2-2s2,0.9,2,2v4C79.1,53.4,78.2,54.3,77.1,54.3z"></path><path d="M19.9,71.3c-0.2,0-0.4,0-0.6-0.1L15.3,70c-1.1-0.3-1.7-1.4-1.3-2.5c0.3-1.1,1.4-1.7,2.5-1.3l4.1,1.2   c1.1,0.3,1.7,1.4,1.3,2.5C21.6,70.7,20.8,71.3,19.9,71.3z"></path><g><g><path d="M62.7,58.8c3.3-5.8-2.2-7.9-2.2-7.9l0,0c0,0-4.6,4.9,6,9.7l0,0c-1.4-0.5-6-2.5-8.1,1.8"></path><path d="M58.3,64.4c-0.3,0-0.6-0.1-0.9-0.2c-1-0.5-1.4-1.7-0.9-2.7c0.6-1.2,1.6-2.4,3-3.2c-1.1-1.2-1.7-2.4-2-3.7     c-0.5-2.8,1-4.7,1.4-5.1c0.5-0.6,1.4-0.9,2.2-0.6c0.3,0.1,3.1,1.3,4.2,4.2c0.5,1.4,0.5,2.9,0,4.5c0.6,0.3,1.2,0.7,2,1     c1,0.5,1.4,1.6,1,2.6c-0.4,1-1.6,1.5-2.6,1.1l-0.1,0c-3-1.2-4.6-0.9-5.5,0.9C59.8,64,59.1,64.4,58.3,64.4z"></path></g><path d="M78,77.3c-0.8,0-1.6-0.5-1.9-1.3c-0.3-0.8-0.8-1.6-1.4-2.4l-0.2-0.3c-3.1-4.5-7.7-4.7-9.8-3.4c-0.6,0.3-1.3,0.4-1.9,0.1    c-0.6-0.3-1-0.8-1.1-1.5c-0.2-1-0.2-2.1,0-3.1c0.4-2.1,1.8-3.9,3.8-5.2c0-1.5,0.2-4.1,2.1-6.1c0.8-0.8,1.8-1.5,3-1.9    c0.7-0.3,1.5-0.1,2,0.4c0.6,0.5,0.8,1.2,0.6,1.9c0,0,0,0.1,0,0.1c-0.4,1.9,0.8,4.5,3.8,5.9l0,0c3.9,1.8,6,1.6,7.3,1.3    c0.6-0.2,1.2,0,1.7,0.3c0.5,0.4,0.8,0.9,0.8,1.6c0,0.4,0,0.9-0.1,1.3c-0.3,1.9-1.6,4.2-3.4,5.4c0.1,2.4-1.2,5.1-3.9,6.3    c-0.3,0.1-0.6,0.3-0.9,0.4C78.5,77.2,78.2,77.3,78,77.3z M67.5,65.2c3.6,0,7.6,1.8,10.4,5.8l0.2,0.3c0.3,0.4,0.6,0.8,0.8,1.2    c0.7-0.8,0.7-2,0.5-2.6c-0.2-0.5-0.1-1.1,0.2-1.6c0.3-0.5,0.8-0.8,1.3-0.9c0.3-0.1,0.9-0.7,1.4-1.3c-2-0.1-4.2-0.7-6.8-1.8    c-2.7-1.3-4.7-3.4-5.7-5.8c-0.2,0.7-0.2,1.4-0.2,1.8c0.1,1.3-0.6,2.6-1.7,3.3c-0.5,0.3-1.3,0.9-1.8,1.7    C66.5,65.3,67,65.2,67.5,65.2z"></path></g><g><path d="M50,48.1c-0.9,0-1.7-0.4-2.2-1.1c-4.1-5.3-10.9-14.9-10.9-20.2c0-7.2,5.9-13,13.1-13c0,0,0,0,0,0h0    c7.2,0,13.1,5.8,13.1,13c0,5.4-6.8,15-10.9,20.2c-0.2,0.3-0.4,0.5-0.7,0.7C51.1,48,50.5,48.1,50,48.1z M49,44.7    C49,44.7,49,44.7,49,44.7C49,44.7,49,44.7,49,44.7z M51,44.7C51,44.7,51,44.7,51,44.7C51,44.7,51,44.7,51,44.7z M50,17.8    c-5,0-9.1,4-9.1,9c0,2.8,3.5,9.2,9.1,16.6c5.6-7.4,9.1-13.8,9.1-16.6C59.1,21.8,55,17.8,50,17.8z"></path></g><path d="M50,29.8L50,29.8c-1.9,0-3.5-1.6-3.5-3.5c0-1.9,1.5-3.5,3.4-3.5l0,0c0,0,0.1,0,0.1,0c1.9,0,3.5,1.6,3.5,3.5   C53.5,28.2,51.9,29.8,50,29.8z"></path></g></svg>