<svg xmlns="http://www.w3.org/2000/svg" xmlns:xlink="http://www.w3.org/1999/xlink" version="1.1" x="0px" y="0px" viewBox="0 0 100 100" enable-background="new 0 0 100 100" xml:space="preserve"><path d="M50,5C25.147,5,5,25.147,5,50c0,24.854,20.147,45,45,45c24.854,0,45-20.146,45-45C95,25.147,74.854,5,50,5z M23.642,71.239  c1.657-0.465,3.413-0.831,4.548-1.819c4.766-5.829,7.206-15.765,8.994-24.96c0.742-3.816,1.561-7.837,2.426-12.026  c0.641-3.1,2.332-12.421,6.467-9.802c1.949,1.234,2.916,4.439,3.738,7.378c1.666,5.933,2.914,11.573,4.447,17.584  c0.631,2.476,1.631,6.179,3.032,7.983c0.424,0.544,1.304,1.305,1.918,1.517c1.226,0.417,2.619-0.097,3.84,0.201  c2.075,0.504,3.349,2.949,4.446,4.951c1.046,1.903,2.271,4.254,3.538,5.76c1.595,1.897,3.265,3,6.771,3.134  C59.955,71.375,41.664,71.171,23.642,71.239z"></path></svg>