<svg xmlns="http://www.w3.org/2000/svg" viewBox="0 0 512 512" x="0px" y="0px"><path d="M395.5625,158.65625,373.57812,144H307.31348l-13.65625,13.65674A8.00076,8.00076,0,0,1,288,160H275.31348l-13.65625,13.65674A8.00076,8.00076,0,0,1,256,176H232a8.00076,8.00076,0,0,1-5.65723-2.34326L196.68652,144H186.42188L140.4375,174.65625a7.99771,7.99771,0,0,1-8.875,0l-20.499-13.66553-36.09278,14.437a7.99656,7.99656,0,0,1-8.62793-1.771L44.68652,152H32V292.686l10.34277-10.34278A8.00076,8.00076,0,0,1,48,280H80a7.99723,7.99723,0,0,1,2.9707.57227l75.10254,30.04052,20.26953-20.26953A8.00076,8.00076,0,0,1,184,288h24a8.00076,8.00076,0,0,1,5.65723,2.34326L227.31348,304H286.459l38.57032-15.42773A7.99723,7.99723,0,0,1,328,288h40a8.00643,8.00643,0,0,1,2.53027.41064L441.29785,312H480V160H400A8.00221,8.00221,0,0,1,395.5625,158.65625ZM88,256H64V240H88Zm32-48H96V192h24Zm24,48H128V240h16Zm48-40H168V200h24Zm40,48H216V248h16Zm48-48V200h24v16Zm48,32H304V232h24Zm112,8h16v16H440Zm-16,0H400V240h24Zm-16-48H384V192h24Z"></path><path d="M437.46973,327.58936,366.70215,304H329.541L290.9707,319.42773A7.99723,7.99723,0,0,1,288,320H224a8.00076,8.00076,0,0,1-5.65723-2.34326L204.68652,304h-17.373l-21.65625,21.65674a7.99656,7.99656,0,0,1-8.62793,1.771L78.459,296H51.31348L32,315.3139V480H480V328H440A8.00643,8.00643,0,0,1,437.46973,327.58936ZM72,328H88v16H72Zm80,136H136V448h16Zm0-48a8.00055,8.00055,0,0,1-3.00195,6.24707l-40,32A8.0027,8.0027,0,0,1,104,456H88a7.99869,7.99869,0,0,1-7.15527-4.42236l-24-48a7.99983,7.99983,0,0,1,1.498-9.23438l24-24A8.00076,8.00076,0,0,1,88,368h16a8.00076,8.00076,0,0,1,5.65723,2.34326L123.31348,384H144a8.00008,8.00008,0,0,1,8,8Zm272-64h16v16H424Zm-176,0h16v16H248Zm-72,0a8.00035,8.00035,0,0,1,2.34277-5.65674l16-16a8.00122,8.00122,0,0,1,11.31446,0l24,24a7.99971,7.99971,0,0,1-1.541,12.5166l-40,24A8.00028,8.00028,0,0,1,176,384Zm16,96H176V432h16Zm111.44629-13.07568a8.00254,8.00254,0,0,1-4.6377,4.5664l-64,24a8.00119,8.00119,0,0,1-10.39843-4.96093l-16-48a8.00127,8.00127,0,0,1,6.59765-10.46827l64-8a8.01,8.01,0,0,1,8.14746,4.36084l16,32A7.99664,7.99664,0,0,1,303.44629,434.92432Zm-5.10352-61.26758a7.99983,7.99983,0,0,1-1.498-9.23438l8-16a7.99873,7.99873,0,0,1,10.126-3.85009l40,16A7.99922,7.99922,0,0,1,360,368v8a7.99943,7.99943,0,0,1-3.5625,6.65625l-24,16a7.9999,7.9999,0,0,1-10.09473-.99951ZM344,456H328V440h16Zm24-24H352V416h16Zm24-96h16v16H392Zm68.20605,49.19482A8.0001,8.0001,0,0,1,464,392v48a7.99967,7.99967,0,0,1-5.46973,7.58936l-24,8a7.99778,7.99778,0,0,1-8.93066-2.78956l-24-32a8.00015,8.00015,0,0,1,2.82227-11.95507l48-24A8.002,8.002,0,0,1,460.20605,385.19482Z"></path><path d="M114.34277,397.65674,100.68652,384h-9.373l-17.5791,17.57959L92.94434,440h8.249L136,412.15479V400H120A8.00076,8.00076,0,0,1,114.34277,397.65674Z"></path><polygon points="226.676 414.728 236.964 445.594 284.87 427.629 275.376 408.64 226.676 414.728"></polygon><path d="M420.42188,47.15527,392,32.94434,363.57812,47.15527a8.00329,8.00329,0,0,1-6.10839.43409L310.70215,32H281.88867L235.57812,55.15527a8.00257,8.00257,0,0,1-7.15624,0L182.11133,32H153.4502L90.80859,55.49072a8.00153,8.00153,0,0,1-6.9248-.63086L47.03906,32.75293,32,37.76611V136H48a8.00076,8.00076,0,0,1,5.65723,2.34326l20.26953,20.26953,35.10254-14.04052a7.9962,7.9962,0,0,1,7.4082.77148L136,158.38525l43.5625-29.0415A8.00221,8.00221,0,0,1,184,128h16a8.00076,8.00076,0,0,1,5.65723,2.34326L235.31348,160h17.373l13.65625-13.65674A8.00076,8.00076,0,0,1,272,144h12.68652l13.65625-13.65674A8.00076,8.00076,0,0,1,304,128h72a8.00221,8.00221,0,0,1,4.4375,1.34375L402.42188,144H480V34.24609L425.94043,47.76123A8.00675,8.00675,0,0,1,420.42188,47.15527ZM72,120H48V104H72Zm48.80371-33.20264h-16v-16h16ZM208,72h16V88H208Zm32,56H224V112h16Zm88-48H304V64h24Zm32,24H344V88h16Zm88,24H432V112h16Zm-8-48H424V64h16Z"></path><polygon points="342.408 372.78 315.863 362.162 313.734 366.42 329.02 381.706 342.408 372.78"></polygon><polygon points="200 347.313 192 355.313 192 369.871 211.098 358.412 200 347.313"></polygon><polygon points="448 434.234 448 404.944 420.151 418.869 434.94 438.587 448 434.234"></polygon></svg>