<svg xmlns="http://www.w3.org/2000/svg" xmlns:xlink="http://www.w3.org/1999/xlink" xmlns:serif="http://www.serif.com/" viewBox="0 0 100 100" version="1.1" xml:space="preserve" style="" x="0px" y="0px" fill-rule="evenodd" clip-rule="evenodd" stroke-linejoin="round" stroke-miterlimit="2"><g transform="matrix(1,0,0,1,5.31368,0.410775)"><g transform="matrix(0.99029,0,0,0.514336,-8.56809,29.5265)"><path d="M54.009,23.818C53.863,23.672 53.69,23.672 53.544,23.818L39.218,38.144C39.05,38.312 38.945,38.644 38.945,39.007C38.945,39.37 39.05,39.703 39.218,39.87L53.544,54.196C53.69,54.342 53.863,54.342 54.009,54.196L68.336,39.87C68.503,39.703 68.608,39.37 68.608,39.007C68.608,38.644 68.503,38.312 68.336,38.144L54.009,23.818ZM53.777,25.776L67.007,39.007C67.007,39.007 53.777,52.238 53.777,52.238C53.777,52.238 40.546,39.007 40.546,39.007L53.777,25.776Z"></path></g><g transform="matrix(0.99029,0,0,0.514336,5.61904,22.1579)"><path d="M54.009,23.818C53.863,23.672 53.69,23.672 53.544,23.818L39.218,38.144C39.05,38.312 38.945,38.644 38.945,39.007C38.945,39.37 39.05,39.703 39.218,39.87L53.544,54.196C53.69,54.342 53.863,54.342 54.009,54.196L68.336,39.87C68.503,39.703 68.608,39.37 68.608,39.007C68.608,38.644 68.503,38.312 68.336,38.144L54.009,23.818ZM53.777,25.776L67.007,39.007C67.007,39.007 53.777,52.238 53.777,52.238C53.777,52.238 40.546,39.007 40.546,39.007L53.777,25.776Z"></path></g><g transform="matrix(0.99029,0,0,0.514336,5.61904,36.895)"><path d="M54.009,23.818C53.863,23.672 53.69,23.672 53.544,23.818L39.218,38.144C39.05,38.312 38.945,38.644 38.945,39.007C38.945,39.37 39.05,39.703 39.218,39.87L53.544,54.196C53.69,54.342 53.863,54.342 54.009,54.196L68.336,39.87C68.503,39.703 68.608,39.37 68.608,39.007C68.608,38.644 68.503,38.312 68.336,38.144L54.009,23.818ZM53.777,25.776L67.007,39.007C67.007,39.007 53.777,52.238 53.777,52.238C53.777,52.238 40.546,39.007 40.546,39.007L53.777,25.776Z"></path></g><g transform="matrix(0.99029,0,0,0.514336,-8.56809,44.2635)"><path d="M54.009,23.818C53.863,23.672 53.69,23.672 53.544,23.818L39.218,38.144C39.05,38.312 38.945,38.644 38.945,39.007C38.945,39.37 39.05,39.703 39.218,39.87L53.544,54.196C53.69,54.342 53.863,54.342 54.009,54.196L68.336,39.87C68.503,39.703 68.608,39.37 68.608,39.007C68.608,38.644 68.503,38.312 68.336,38.144L54.009,23.818ZM53.777,25.776L67.007,39.007C67.007,39.007 53.777,52.238 53.777,52.238C53.777,52.238 40.546,39.007 40.546,39.007L53.777,25.776Z"></path></g><g transform="matrix(0.99029,0,0,0.514336,-22.7552,36.895)"><path d="M54.009,23.818C53.863,23.672 53.69,23.672 53.544,23.818L39.218,38.144C39.05,38.312 38.945,38.644 38.945,39.007C38.945,39.37 39.05,39.703 39.218,39.87L53.544,54.196C53.69,54.342 53.863,54.342 54.009,54.196L68.336,39.87C68.503,39.703 68.608,39.37 68.608,39.007C68.608,38.644 68.503,38.312 68.336,38.144L54.009,23.818ZM53.777,25.776L67.007,39.007C67.007,39.007 53.777,52.238 53.777,52.238C53.777,52.238 40.546,39.007 40.546,39.007L53.777,25.776Z"></path></g><g transform="matrix(0.99029,0,0,0.514336,-36.9423,29.5265)"><path d="M54.009,23.818C53.863,23.672 53.69,23.672 53.544,23.818L39.218,38.144C39.05,38.312 38.945,38.644 38.945,39.007C38.945,39.37 39.05,39.703 39.218,39.87L53.544,54.196C53.69,54.342 53.863,54.342 54.009,54.196L68.336,39.87C68.503,39.703 68.608,39.37 68.608,39.007C68.608,38.644 68.503,38.312 68.336,38.144L54.009,23.818ZM53.777,25.776L67.007,39.007C67.007,39.007 53.777,52.238 53.777,52.238C53.777,52.238 40.546,39.007 40.546,39.007L53.777,25.776Z"></path></g><g transform="matrix(0.99029,0,0,0.514336,19.8062,29.5265)"><path d="M54.009,23.818C53.863,23.672 53.69,23.672 53.544,23.818L39.218,38.144C39.05,38.312 38.945,38.644 38.945,39.007C38.945,39.37 39.05,39.703 39.218,39.87L53.544,54.196C53.69,54.342 53.863,54.342 54.009,54.196L68.336,39.87C68.503,39.703 68.608,39.37 68.608,39.007C68.608,38.644 68.503,38.312 68.336,38.144L54.009,23.818ZM53.777,25.776L67.007,39.007C67.007,39.007 53.777,52.238 53.777,52.238C53.777,52.238 40.546,39.007 40.546,39.007L53.777,25.776Z"></path></g><g transform="matrix(0.99029,0,0,0.514336,-8.56809,14.7894)"><path d="M54.009,23.818C53.863,23.672 53.69,23.672 53.544,23.818L39.218,38.144C39.05,38.312 38.945,38.644 38.945,39.007C38.945,39.37 39.05,39.703 39.218,39.87L53.544,54.196C53.69,54.342 53.863,54.342 54.009,54.196L68.336,39.87C68.503,39.703 68.608,39.37 68.608,39.007C68.608,38.644 68.503,38.312 68.336,38.144L54.009,23.818ZM53.777,25.776L67.007,39.007C67.007,39.007 53.777,52.238 53.777,52.238C53.777,52.238 40.546,39.007 40.546,39.007L53.777,25.776Z"></path></g><g transform="matrix(0.99029,0,0,0.514336,-22.7552,22.1579)"><path d="M54.009,23.818C53.863,23.672 53.69,23.672 53.544,23.818L39.218,38.144C39.05,38.312 38.945,38.644 38.945,39.007C38.945,39.37 39.05,39.703 39.218,39.87L53.544,54.196C53.69,54.342 53.863,54.342 54.009,54.196L68.336,39.87C68.503,39.703 68.608,39.37 68.608,39.007C68.608,38.644 68.503,38.312 68.336,38.144L54.009,23.818ZM53.777,25.776L67.007,39.007C67.007,39.007 53.777,52.238 53.777,52.238C53.777,52.238 40.546,39.007 40.546,39.007L53.777,25.776Z"></path></g></g><g transform="matrix(1,0,0,1,-14.6871,-15.237)"><path d="M50.25,50L64.687,57.619L50.25,65.237L35.813,57.619L50.25,50Z"></path></g><g transform="matrix(1,0,0,1,-14.3525,-15.0511)"><path d="M50.25,50L64.687,57.619L50.25,65.237L35.813,57.619L50.25,50Z"></path></g></svg>