<svg xmlns="http://www.w3.org/2000/svg" xmlns:xlink="http://www.w3.org/1999/xlink" version="1.1" x="0px" y="0px" viewBox="0 0 64 64" style="enable-background:new 0 0 64 64;" xml:space="preserve"><g><path d="M30,13.9c0.6,0.4,1.2,0.6,2,0.6c0.7,0,1.4-0.2,2-0.6c1-0.6,1.7-1.8,1.7-3.1c0-2-1.6-3.7-3.7-3.7s-3.7,1.6-3.7,3.7   C28.3,12.1,29,13.3,30,13.9z"></path><path d="M35.7,14.9c-1,0.9-2.3,1.4-3.7,1.4s-2.7-0.5-3.7-1.4c-1.2,1-2,2.6-2,4.3v0.4c0,0.5,0.4,0.9,0.9,0.9h9.5   c0.5,0,0.9-0.4,0.9-0.9v-0.4C37.7,17.5,36.9,16,35.7,14.9z"></path><path d="M35.7,51.2c-1,0.9-2.3,1.4-3.7,1.4s-2.7-0.5-3.7-1.4c-1.2,1-2,2.6-2,4.3v0.4c0,0.5,0.4,0.9,0.9,0.9h9.5   c0.5,0,0.9-0.4,0.9-0.9v-0.4C37.7,53.8,36.9,52.3,35.7,51.2z"></path><path d="M32,50.8c0.7,0,1.4-0.2,2-0.6c1-0.6,1.7-1.8,1.7-3.1c0-2-1.6-3.7-3.7-3.7s-3.7,1.6-3.7,3.7c0,1.3,0.7,2.4,1.7,3.1   C30.6,50.6,31.3,50.8,32,50.8z"></path><path d="M13,34.1c2,0,3.7-1.6,3.7-3.7c0-2-1.6-3.7-3.7-3.7s-3.7,1.6-3.7,3.7C9.3,32.5,11,34.1,13,34.1z"></path><path d="M18.7,39.2v-0.4c0-1.7-0.8-3.3-2-4.3c-1,0.9-2.3,1.4-3.7,1.4c-1.4,0-2.7-0.5-3.7-1.4c-1.2,1-2,2.6-2,4.3v0.4   c0,0.5,0.4,0.9,0.9,0.9h9.5C18.2,40.2,18.7,39.7,18.7,39.2z"></path><path d="M47.3,30.5c0,1.3,0.7,2.5,1.7,3.1c0.6,0.4,1.2,0.6,2,0.6c0.7,0,1.4-0.2,2-0.6c1-0.6,1.7-1.8,1.7-3.1c0-2-1.6-3.7-3.7-3.7   C49,26.8,47.3,28.4,47.3,30.5z"></path><path d="M54.7,34.6c-1,0.9-2.3,1.4-3.7,1.4c-1.4,0-2.7-0.5-3.7-1.4c-1.2,1-2,2.6-2,4.3v0.4c0,0.5,0.4,0.9,0.9,0.9h9.5   c0.5,0,0.9-0.4,0.9-0.9v-0.4C56.7,37.1,55.9,35.6,54.7,34.6z"></path><path d="M48.5,43.6c-0.4-0.3-1-0.1-1.3,0.3c-1.7,2.6-4,4.8-6.7,6.3c-0.4,0.2-0.6,0.8-0.4,1.3c0.2,0.3,0.5,0.5,0.8,0.5   c0.1,0,0.3,0,0.4-0.1c3-1.6,5.6-4,7.4-6.9C49.1,44.4,49,43.9,48.5,43.6z"></path><path d="M22.6,16.6c-3,1.6-5.6,4-7.4,6.9c-0.3,0.4-0.1,1,0.3,1.3c0.2,0.1,0.3,0.1,0.5,0.1c0.3,0,0.6-0.2,0.8-0.4   c1.6-2.6,4-4.8,6.7-6.3c0.4-0.2,0.6-0.8,0.4-1.3C23.6,16.6,23,16.4,22.6,16.6z"></path><path d="M23.4,50.1c-2.7-1.5-5.1-3.6-6.7-6.3c-0.3-0.4-0.8-0.6-1.3-0.3c-0.4,0.3-0.6,0.8-0.3,1.3c1.8,2.9,4.4,5.3,7.4,6.9   c0.1,0.1,0.3,0.1,0.4,0.1c0.3,0,0.6-0.2,0.8-0.5C24.1,50.9,23.9,50.4,23.4,50.1z"></path><path d="M40.6,18.3c2.7,1.5,5.1,3.6,6.7,6.3c0.2,0.3,0.5,0.4,0.8,0.4c0.2,0,0.3,0,0.5-0.1c0.4-0.3,0.6-0.8,0.3-1.3   c-1.8-2.9-4.4-5.3-7.4-6.9c-0.5-0.2-1-0.1-1.3,0.4C39.9,17.5,40.1,18,40.6,18.3z"></path></g></svg>