<?xml version="1.0" encoding="UTF-8"?>
<svg width="1200pt" height="1200pt" version="1.1" viewBox="0 0 1200 1200" xmlns="http://www.w3.org/2000/svg">
 <g fill="none" stroke="#000" stroke-linecap="round" stroke-linejoin="round" stroke-miterlimit="10">
  <path transform="scale(12)" d="m44.687 75.296c-0.22591 0.065105-0.50391 0.10384-0.69596 0.047852-0.13509-0.040039-0.1429-0.33106-0.36198-0.22494-0.10091 0.049154-0.11003 0.31315-0.10189 0.40885 0.03711 0.40592 0.82715 1.0492 1.1709 1.2871 0.089843 0.061849 0.2321 0.11198 0.31315 0.18913 0.096028 0.091146 0.12598 0.20898 0.2181 0.30013 0.12109 0.12012 0.30794 0.12207 0.37598 0.31087 0.064128 0.17611-0.16016 0.26009-0.097005 0.42904 0.06901 0.18294 0.28516 0.16699 0.38704 0.30306 0.10612 0.1429 0.10286 0.30892 0.18197 0.46484 0.089844 0.17611 0.33887 0.69694 0.50391 0.75814-0.016927 0.36686 0.57715 0.94303 0.88704 1.2008 0.47884 0.39909 0.91406 0.77604 1.3398 1.2031-0.010091-0.097005 0.046875-0.19499 0.054036-0.26986 0.15202 0.028971 0.29199 0.10189 0.38314 0.21191 0.079102-0.31087 0.15495-1.04 0.054037-1.3431 0.30208-0.24707 0.036132-0.52995-0.25293-0.58398-0.066081 0.10189-0.19499 0.13704-0.26497 0.21908-0.34603-0.24089-0.061849-0.3151-0.14909-0.53906-0.072916-0.19206-0.34212-0.19206-0.19206-0.47396-0.21289-0.13704-0.44303-0.29199-0.45312-0.54688 0.091146-0.015951 0.16504-0.10091 0.26497-0.111 0.11784-0.54394-0.66699-0.1429-0.91406-0.14811-0.012045-0.07194-0.011068-0.13704 0-0.20703 0.11393-0.001953 0.21191-0.061849 0.31185-0.064127-0.038086-0.028972-0.30501-0.13216-0.31999-0.16113-0.055013-0.10807-0.036133-0.32715-0.10091-0.43294-0.18294-0.29688-0.52409-0.27214-0.72494-0.49414 0.028972 0.05599 0.051107 0.19694 0.079102 0.25488-0.36686 0.049154-0.23698-0.24284-0.37402-0.45801-0.12402-0.19499-0.36784-0.36393-0.53613-0.51986-0.34994-0.32292-0.52409-0.80208-0.98014-0.87598-0.041015-0.088867 0.024089-0.092122 0.040039-0.13314"/>
  <path transform="scale(12)" d="m51.971 80.215c-0.025065 0.017903-0.3099-0.51204-0.31901-0.73503 0.55599-0.18197-0.40202-0.57812-0.46289-0.80599-0.028972-0.1071 0.080078-0.34603 0.074869-0.36296 0.018881 0.068034-0.11198-0.347-0.11914-0.24186 0.011067-0.16406 0.073893-0.38086 0.089844-0.58496 0.27116-0.12207 0.54199 0.059896 0.72396-0.095052 0.092122 0.12988 0.20801 0.18685 0.33984 0.25912 0.16113-0.27214-0.10514-0.49512 0.14811-0.77506 0.15299-0.16894 0.34408-0.10612 0.59114-0.18587 0.57389-0.1849 0.71289-0.7679 0.97103-1.248 0.12891 0.003906 0.24805 9.76e-4 0.375 9.76e-4 0.23796 0.5459 0.59896-0.81185 0.73991-0.98307 0.24512 0.097982 0.90006-0.12402 0.6569 0.46094 0.50195 0.011067 0.72298 0.23698 1.1501 0.33789-0.16699 0.23112-0.49186 0.29785-0.77995 0.278 0.30501 0.33398 0.26204 0.50391-0.32389 0.46387-0.001953 0.20085 0.17513 0.36198 0.22494 0.59603 0.046875 0.22103 0.037109 0.51595 0.040039 0.73503-0.043945 0.013997-0.082031 0.001953-0.12598 0.014974 0.098959 0.20215 0.60384 0.45996 0.79004 0.63997-0.19792 0.34408-0.62207-0.11914-0.88997 0.278-0.18685 0.27702 0.055013 0.69987-0.26693 0.87793-0.029948-0.055989-0.058919-0.086914-0.089843-0.12891-0.10384 0.13412-0.12793 0.26888-0.20085 0.41309-0.014974 0.029948-0.18001 0.35286-0.17415 0.32096-0.052084 0.27506 0.10612 0.49186-0.068034 0.79199-0.092123 0.15788-0.44401 0.5-0.64095 0.45801-0.040039-0.009115-0.080078-0.26693-0.18197-0.3291-0.13997-0.083984-0.26497-0.075846-0.40885 0.00293-0.01888-0.11589-0.10384-0.18099-0.10807-0.31087-0.16211-0.012044-0.33398-0.012044-0.49609 0 0.00586 0.041993 0.014974 0.098959 0.022136 0.13607-0.18392-0.024088-0.36686 0.042969-0.53288 0.083008-0.051107-0.153-0.05599-0.30404-0.013021-0.45215-0.23991 0.036133-0.38607 0.236-0.64388 0.13314"/>
  <path transform="scale(12)" d="m50.068 82.21c-0.16016 0.096029-0.69596-0.081055-0.6429 0.31608 0.31901 0.036132 0.46712 0.34115 0.27604 0.60384 0.46289-0.1709 0.73112-0.12891 1.2031-0.085938 0.58594 0.055013 0.69792 0.11784 1.138 0.4209 0.44206 0.30404 0.75716 0.17513 1.2269 0.13509 0.26693-0.023112 1.139 0.22689 0.79915-0.27995-0.12988-0.19401-0.79004-0.28092-1.0309-0.40202-0.43001-0.21615-0.63216-0.35286-1.0579-0.27897-0.37402 0.066081-0.56803 0.15006-0.94694-0.047851-0.15006-0.078125-0.24414-0.23014-0.39616-0.30013-0.15885-0.07194-0.46191-0.032878-0.42904-0.081055"/>
  <path transform="scale(12)" d="m59.533 74.229c-0.17708 0.375 0.17188 1.0241 0.77799 0.65495 0.032878 0.05306 0.078125 0.094076 0.10384 0.12988 0.081054-0.19401-0.077149-1.234 0.36198-0.83496 0.013021-0.30501-0.16016-0.77409-0.32194-1.016 0.28711-0.13216 0.20085-0.48014-0.097006-0.58887-0.15104 0.1429-0.17904 0.3291-0.052083 0.48698-0.22591 0.078125-0.54688-0.016927-0.54915 0.32487-0.13086 0.15006-0.30794 0.31087-0.54492 0.23307 0.061849-0.088867 0.044921-0.23307 0.082031-0.31087-0.23796-0.047852-0.47005 0.070963-0.51107 0.31185-0.52409-0.083985-0.45801 0.51986-0.45898 0.84994 0.26888-0.22591 0.15885-0.5599 0.514-0.69499 0.28906-0.11003 0.5 0.083007 0.68913 0.22884 0.019856 0.089843 0.016927 0.2959 0.005859 0.35384-0.044922 0.01595-0.091146 0.01888-0.13802 0.009114"/>
  <path transform="scale(12)" d="m51.739 67.131c-0.061849-0.064127-1.0791 0.15397-0.70801-0.51302 0.17806-0.32096 0.86003-0.28092 1.1689-0.39909-0.17415 0.30208-0.48112 0.62891-0.40397 1.0072 0.043946-0.031901 0.05599-0.080078 0.036133-0.14193"/>
  <path transform="scale(12)" d="m57.724 64.765c0.014974-0.083008 0.82715-1.8929 0.18587-1.627-0.5179 0.21387-0.64193 1.7161-0.093099 1.6729"/>
  <path transform="scale(12)" d="m58.095 69.126c-0.012044 0.004882 0.07194 0.077148-0.038086 0.041015-0.10384-0.34408 0.35612-0.60514 0.46484-0.86588 0.14616-0.34994-0.15104-0.63216-0.004883-0.89193-1.1029-1.126-0.80208 1.1071-1.1201 1.3971-0.044922-0.07194-0.15202-0.13704-0.19792-0.22396-0.39616 0.59505 0.82585 0.90788 0.33106 1.2852 0.17513 0.091146 0.41894 0.13997 0.60384 0.22591 0.015951-0.30404-0.027995-0.63216 0.054037-0.92188"/>
  <path transform="scale(12)" d="m68.859 80.215c-0.37598-0.022136-0.66602-0.43197-1.0199-0.65104-0.23796-0.14714-1.3229-0.16016-0.99186 0.27995-0.58691 0.19987-1.002 0.98503-1.5501 0.27897-0.22103-0.28613 0.13314-1.7259-0.80013-1.25-0.35612-0.33496-0.861 0.10091-1.1351 0.32194 0.14714 0.10807 0.34212 0.11589 0.52311 0.097982 0.078125 0.16895 0.068034 0.389 0.013998 0.55306 0.347 0.16406 0.71094-0.15202 1.1009-0.088867 0.027018 0.14193 0.042969 0.31185 0.045898 0.44987-0.35384 0.003906-0.77116 0.080078-1.099 0.013997 0.028971 0.31413 0.81087 0.10189 0.36914 0.64486 0.27604 0.15397 0.43913-0.11784 0.51497-0.36914 0.15104 0.2819 0.46289 0.19792 0.67806 0.37305 0.14616 0.11914 0.081054 0.26107 0.24088 0.36393 0.089844 0.057943 0.31413 0.079102 0.41699 0.095053 0.43001 0.069987 0.4821 0.06608 0.82715 0.37012 0.21387 0.18913 0.33398 0.40397 0.65006 0.37891 0.063151 0.16309 0.11686 0.3291 0.15495 0.49512 0.18197 0.035156 0.29492 0.31803 0.12207 0.47591-0.13216 0.11914-0.33789-0.10807-0.5599 0.029948-0.63216 0.39714 0.16699 1.056 0.39193 0.25 0.21191 0.16992 1.1989 0.48698 1.152 0.69108z"/>
  <path transform="scale(12)" d="m62.781 57.666c0.82194-0.025065-0.26693 1.251 0.50293 1.153 0.014974-0.042968 0-0.082031 0.013998-0.12598 0.05013 0.031901 0.22493 0.05013 0.27506 0.081055 0.049153-0.33496 0.23014-0.71712 0.21908-1.0039-0.01888-0.47786-0.43685-0.31999-0.55501-0.611-0.16894 0.16504-0.58398 0.39193-0.50911 0.63314 0.053059-0.01888 0.10091-0.044922 0.14616-0.079102"/>
  <path transform="scale(12)" d="m63.431 56.831c-0.003907 0.028971-0.060873 0.10612-0.00293 0.061849 0.21712-0.036133 0.26986-0.16406 0.41894-0.28613 0.11784-0.096029 0.12988-0.19596 0.2819-0.28613 0.031901-0.019857 0.2679-0.05013 0.31315-0.056966 0.3151-0.056966 0.96712-0.012044 1.0391-0.44792 0.27506 0.22298 0.56315 0.35384 0.79199 0.055013 0.098958-0.12891 0.1071-0.45508 0.18197-0.62012 0.083984-0.18685 0.31803-0.097005 0.23014-0.45508 0.2321 9.76e-4 0.25195 0.21094 0.18587 0.40397 0.14388 0 0.63802-0.33789 0.77214-0.45605 0.139-0.12109 0.20996-0.27702 0.33398-0.38216 0.15592-0.13314 0.32585-0.17708 0.45215-0.361 0.22884-0.33301 0.22689-0.72884 0.19499-1.0199-0.031901-0.29004-0.24805-0.81901 0.31901-0.6429 0.069011 0.34798 0.3151 0.079102 0.46387 0.27116 0.12012 0.15397 0.031901 0.38802 0.007161 0.55599-0.042969 0.30013-0.22298 0.68294-0.28385 1.014-0.49805-0.030925-0.15495 0.63704-0.27897 0.87988-0.4069 0.068034-0.11784 0.48112-0.14095 0.66699-0.030924 0.26009-0.23405 0.49186-0.36296 0.60286 0.035156-0.067058 0.042969-0.21094 0.07487-0.29004-0.32389-0.15788-0.35384 0.31315-0.66894 0.28906-0.00586 0.077148-0.051107 0.13607-0.061849 0.2181-0.23405-0.095052-0.37891 0.089844-0.59896 0.054036-0.23307-0.038086-0.25293-0.30208-0.54688-0.22689-0.12891 0.27116 0.19694 0.4209 0.05306 0.64616-0.010091 0.015951-0.48991 0.16602-0.52506 0.18001-0.1071 0.042969-0.27995 0.45898-0.3151-0.042969-0.016927-0.2321 0.34505-0.35514 0.084961-0.5599-0.48893-0.38704-1.8109 0.45801-2.36 0.41406-0.021159-0.10286 0.041016-0.13411 0.039062-0.13216"/>
  <path transform="scale(12)" d="m68.488 51.727c-0.13802 0.025065-0.486-0.139-0.33789-0.38509 0.10807-0.18001 0.69987 0.013997 0.49512-0.4541 0.16113 0.007162 0.32715 0.00586 0.486-0.003906 0.078125-0.47103 0.52897-1.1309 0.14095-1.5251 0.30892-0.3431 0.43913 0.24805 0.61003 0.40885 0.1901 0.18001 0.50293 0.2181 0.74089 0.27604 0.2679 0.065104 0.78516 0.044922 0.83594 0.33594 0.086914 0.49805-0.49609 0.28288-0.74609 0.37207-0.33301 0.11784-0.22005 0.40495-0.47298 0.59114-0.41797 0.30794-0.39095-0.1429-0.63704-0.26888-0.65007-0.33398-0.74414 0.45898-1.068 0.74512"/>
  <path transform="scale(12)" d="m29.004 30.5c-0.063151 0.18685-0.2041 0.30892-0.41699 0.35514-0.79915-0.89095-1.693-0.2819-2.5329 0.27116-0.38704 0.25391-0.55208 0.51107-0.87793 0.69499-0.39714 0.22494-0.95215 0.29102-1.3219 0.611-0.26204 0.22591-0.49609 0.56185-0.75098 0.847-0.40788 0.45703-0.66699 0.37695-1.1322 0.64909-1.194 0.69987-1.2249 2.249-0.83203 3.4619 0.21094 0.65202 0.7181 1.2471 0.83496 1.8789 0.11914 0.6429-0.34505 0.95801-0.41699 1.5299-0.11198 0.89193 0.32194 1.8962 0.41699 2.7161 0.056966 0.49414-0.18815 1.126-0.29199 1.5931l0.049154-0.027994c-0.19206-0.007162-0.36686-0.13216-0.55697-0.010092-0.097006 0.061849-0.067058 0.19499-0.14616 0.26595-0.067057 0.060872-0.13216 0.042969-0.20898 0.099935-0.22298 0.16504-0.35612 0.16016-0.61003 0.20085-0.25814 0.041016-0.4209 0.10189-0.66406 0.17415-0.47298 0.14095-0.94499 0.15592-1.4391 0.070963-0.27995-0.046875-0.63216-0.23796-0.83203 0.067058-0.18815 0.28906 0.037109 1.026 0.038086 1.3581l-0.035156 0.043945c0.21908 0.13216 0.30501 0.56706 0.44889 0.75716-0.083008 0.021159-0.18587 0.11784-0.26986 0.13704 0.016927 0.042968 0.041016 0.081054 0.05013 0.13216 0.63704-0.01888 1.293-1.015 1.7679-0.18197 0.27702-0.23796 0.59408-0.34896 0.73112 0.097005 0.058919 0.19303 0.027995 0.9069-0.056966 1.0632-0.31185-0.41699-0.66016-0.139-1.0101 0.097005 0.11588 0.14616 0.18815 0.34408 0.17708 0.55208-0.1569-0.023112-0.25716-0.1429-0.27506-0.31413-0.18197 0.013998-0.36686 0.058919-0.55013 0.097982 0.35286 0.28288 0.55111 0.75716 0.87793 1.0221 0.1709 0.139 0.54492 0.19596 0.6071 0.35807 0.069987 0.18001-0.39193 0.36198 9.76e-4 0.50716 0.059896-0.36296 0.39388-0.29297 0.63802-0.17285 0.038086 0.28288 0.12207 0.33301 0.23893 0.50098 0.12305 0.17806 0.38997 0.077148 0.23503 0.41992-0.22884 0.50814-0.83301 0.001953-1.1559 0.14616 0.024088 0.4209 0.49902 0.43294 0.49707 0.77409-0.088867-0.025065-0.22494 0-0.31185-0.033854 0.12207 0.25716 0.389 0.36686 0.50814 0.59798 0.10189 0.19694 0.088867 0.55501 0.088867 0.78906 0 0.46615 0.007162 0.36003-0.37305 0.472-0.23112 0.068034-0.57292 0.28516-0.83496 0.22591-0.12695-0.027995-0.18392-0.18685-0.28809-0.222-0.061849-0.021159-0.32812-0.024089-0.37012-0.055013-0.20312-0.15007-0.23112-0.38997-0.46289-0.59505l0.067057 0.023111c-0.153-0.094075-0.45801-0.077148-0.58398-0.18099-0.1071-0.087891-0.11784-0.51009-0.10514-0.64811 0.31999-0.12207 0.139-0.44499 0.29915-0.69792 0.14193-0.22298 0.48991-0.083008 0.36393-0.39616-0.009114-0.022135-0.18294-0.070963-0.22689-0.12109-0.059895-0.068034-0.056966-0.18001-0.10286-0.24414-0.1569-0.2181-0.20801-0.23698-0.47884-0.18197l-0.044922 0.058919c-0.64616 0.13086-1.8132-0.68392-2.0189-1.2992-0.56315-0.033855-0.74609-0.072917-1.2041-0.27116-0.41309-0.17904-0.73503-0.38509-1.21-0.3571-0.014974 0.48796 0.49902 0.42513 0.63412 0.80599 0.057942 0.16309-0.17415 0.86296-0.23991 1.1211-0.2321 0.13704-0.48991 0.24284-0.75293 0.15104l0.044922 0.03711c-0.95703 0.20996-1.9141-0.30013-2.8529-0.40592-1.042-0.11784-2.1429-0.022135-3.125 0.35905 0.051107-0.051107 0.095053-0.10807 0.15007-0.15397-0.064128 0.036133-0.10286 0.10091-0.15007 0.15397 0.14095 0.068034 0.26497 0.16797 0.36491 0.28906-0.48307 0.13704-1.6449-0.39193-1.8841 0.278-0.14909 0.41602 0.54102 0.87598 0.091146 1.2409 0.11393 0.05599 0.17904 0.014974 0.1901-0.11198-0.62402 0.81999 0.62891 1.376 1.1859 1.654h0.41699c0.278 0 0.55697-0.278 0.83496-0.41699 0.97396-0.139 1.8089 0.41699 2.7829 0-0.079102 0.091146-0.18587 0.12012-0.30208 0.083008 0.094075-0.046875 0.19694-0.075846 0.30208-0.083008-0.054037 0.15397-0.10189 0.31315-0.10286 0.47786l-0.21484 0.13216c0.25293 0.41797-0.14616 0.83301 0.49805 1.068 0.13086 0.48503-0.30404 0.48893-0.49512 0.79004-0.22005 0.34701-0.031901 0.77409-0.05306 1.1501-0.01888 0.33984-0.17806 0.62402-0.14193 0.98405 0.038086 0.37012 0.125 0.54102 0.044922 0.90885-0.099935 0.46191-0.12402 0.45996 0.13997 0.89193 0.222 0.361 0.51888 0.72786 0.75293 1.112 0.37598 0.61589 0.79915 1.138 1.377 1.5869-0.23698 0.67708-0.36296 0.80306-0.12695 1.4691 0.5599 0.088867 0.86588 0.49512 1.0951 0.98014 0.19499 0.41406 0.71615 1.043 0.79004 1.4971 0.046875 0.29102-0.011068 0.43392 0.045898 0.72786 0.05599 0.29004 0.13704 0.55892 0.20508 0.83887 0.10091 0.41504 0.091146 0.70508 0.58301 0.6901 0.25912-0.008138 0.86393-0.10091 1.124-0.18001 0.33008-0.099935 0.72005-0.38086 1.0651-0.55794 0.236-0.12109 0.403-0.1709 0.64909-0.22298 0.096029-0.019857 0.20312 0.025065 0.32715-0.008138 0.061849-0.016927 0.15006-0.11914 0.22103-0.14909 0.27995-0.11914 0.63412-0.25488 0.93099-0.32292-0.008138-0.036133 0.032878-0.095052 0.047852-0.12012-0.030925-0.036132-0.063151-0.069987-0.092123-0.10384 0.36198-0.46387 1.306-0.9681 1.901-0.9349 9.76e-4 -0.13802 0.15495-0.49512 0.27214-0.56315 0.13314-0.078125 0.31185 0.067058 0.47786-0.041992 0.111-0.072916 0.099935-0.33301 0.24088-0.44596 0.092123-0.073894 0.32292-0.027018 0.44596-0.11003 0.042969-0.31706 0.01888-0.66797 0.15592-0.96191 0.28809 0.59408 0.875-0.16504 0.95996-0.514-0.023112 0.095052-0.054036-0.34603-0.054036-0.33691-0.003906-0.058919 0.12793-0.16894 0.10905-0.2679-0.040039-0.20703-0.37891-0.31999-0.51595-0.42904-0.17513-0.13997-0.31803-0.35384-0.50814-0.48698-0.222-0.1569-0.51888-0.05599-0.70801-0.27702-0.13314-0.15592-0.12012-0.36491-0.17188-0.55794-0.056966-0.20996-0.1709-0.42611-0.19596-0.73698-0.061849 0.036133-0.21094 0.13607-0.26204 0.17904 0 0.13704-0.07487 0.26009-0.059896 0.40104-0.11393 0.009115-0.19694 0.099935-0.31087 0.10905 0.055013 1.167-1.181 0.56413-1.8561 0.77604-0.007161-0.28288-0.004883-1.0661-0.1429-1.2949-0.43099-0.71908-0.28092 0.68587-0.31803 0.778-0.003907-0.25391-0.36784-0.59212-0.51204-0.73991 0.056967-0.33008 0.099935-0.34798-0.099935-0.60807-0.083007-0.10807-0.26595-0.027995-0.33887-0.111-0.075846-0.085938-0.040039-0.27409-0.089843-0.38704-0.23796-0.52506-0.24609-0.88607-0.81901-1.0781 0.041992-0.032877 0.069011-0.057942 0.12598-0.088867-0.041016-0.14616 0.010091-0.25911 0.052083-0.403 0.083984 0.047852 0.27995 0.041993 0.36588 0.082032 0.008138-0.07487 0.05892-0.1569 0.065105-0.22201 0.16602 0.12598 0.32194 0.060873 0.51009 0.13412 0.29492 0.11588 0.23405 0.051107 0.44108 0.32812 0.26107 0.34896 0.28711 0.639 0.15788 1.0579 0.41016 0.057942 0.67415-0.015951 1.0609 0.10189 0.34701 0.10612 0.37598 0.12891 0.66895 0.37012 0.22005 0.18197 0.48796 0.37793 0.74088 0.31706 0.30208-0.072916 0.47005-0.45605 0.81608-0.49414 0.91211-0.10091 0.25 0.84603 0.63704 1.21 0.27702 0.26107 0.8929 0.064128 1.223 0.094076 0.49902 0.043945 0.95898 0.45508 1.4801 0.34603 0.25586-0.054037 0.36686-0.17513 0.60514-0.20898 0.18099-0.025065 0.44596 0.045899 0.64714 0.033854 0.48796-0.029947 0.94499-0.31608 1.2529 0.044922 0.33984 0.39811 0.25814 0.65885 0.82812 0.89193-0.55501 0.71712 0.80892 0.37793 1.0199 0.36914 0.067058 0.55404-0.50293 0.38704-0.77702 0.58496 0.18685 0.278 0.3291 0.78809 0.69401 0.91602 0.28906 0.10091 0.41602-0.28809 0.72786-0.12305 0.12402-0.13216 0.29199-0.18913 0.47103-0.18815-0.054037-0.15788-0.045899-0.3431-0.041992-0.52311 0.023111 0.19499 0.21614 0.30306 0.41406 0.3099-0.041992 0.027994-0.064128 0.064127-0.12598 0.092122-0.012044 0.18294 0.018881 0.39714-0.041992 0.56087-0.046875 0.12695-0.28092 0.13412-0.29688 0.31185-0.01888 0.20703 0.29395 0.35807 0.36491 0.52116 0.066081 0.15397 0.049154 0.28809 0.068034 0.4541 0.043945 0.389 0.001953 0.80111 0.036133 1.1989 0.045898 0.53288 0.278 0.74707 0.55501 1.154 0.24512 0.35905 0.22689 0.69303 0.37305 1.0801 0.14616 0.389 0.45508 0.66016 0.5931 1.0579 0.19206 0.55404 0.27604 1.2829 0.63411 1.7611 0.50488 0.67611 0.77702-0.41699 1.139-0.77702 0.26693-0.26497 0.46289-0.27604 0.42513-0.73405 0.35514-0.11784 0.3151-1.7559 0.31803-2.098 0.001953-0.3099 0.15885-0.74186 0.38411-0.96094 0.18685-0.18392 0.78385-0.23991 0.62598-0.56608 0.40495-0.33691 0.7959-0.722 1.207-1.068 0.32292-0.27311 0.47396-0.61588 0.75293-0.9349 0.39714 0.61914 0.61491-0.41992 0.66016-0.5599 0.11003-0.33984 0.15397-0.16504 0.36393-0.41992 0.097982-0.11914 0.12598-0.27897 0.19401-0.44792 0.054036 0.10514 0.19596 0.22591 0.26693 0.32715 0.023112-0.057942 0.14714-0.15495 0.17415-0.22103 0.26595 0.20215 0.55111 0.15202 0.56706-0.23405 0.16309 0.10807 0.38086 0.125 0.56315 0.153-0.05599-0.1849-0.40592-1.1462 0.068034-0.90104-0.051107 0.13997-0.05306 0.30794-0.068034 0.45215 0.060872-0.028971 0.20703-0.013997 0.2679-0.038086 0.038086 0.28613 0.32585 0.58789 0.4209 0.92415 0.14616 0.51595 0.222 0.46289 0.60384 0.75098 0.75293 0.56803 0.85384 1.5609 0.97298 2.4199 0.30306 0.07487 0.46615 0.22591 0.66113-0.15104 0.12402 0.11198 0.29102 0.153 0.44694 0.030925 9.76e-4 -0.21484 0.011067-0.46908 0.10091-0.65104 0.07194 0.26302 0.15202 0.40788 0.28092 0.65885 0.08789 0.17188 0.17188 0.32389 0.2181 0.50814 0.10189 0.403 0.11393 0.7181 0.25586 1.1169 0.11914 0.33398 0.28809 0.75912 0.32487 1.112 0.027018 0.25911-0.16211 0.84896 0.12012 0.9821 0.007161 0.5-0.63216 0.89193-0.41211 1.488 0.30404-0.20606 0.48112 0.16211 0.61588 0.40592 0.083008 0.15202 0.12793 0.38412 0.22005 0.51497 0.057943 0.081055 0.19401 0.066081 0.23014 0.13412 0.10807 0.20085 0.10514 0.54004 0.23307 0.79102 0.13607 0.26595 0.34212 0.46615 0.47591 0.73893 0.23991 0.48893 0.58594 1.415 1.196 1.5739 0.63997 0.16699 0.51693-0.71615 0.00586-0.79004-0.11686-0.69108 0.16113-1.4391-0.37793-1.957-0.43392-0.41699-1.056-0.58691-1.4889-1.0049 0.12402-0.11491 0.10807-0.21484 0.13704-0.36296-0.361-0.070964-0.18392-0.56413-0.58887-0.52506-0.05306-0.4209 0.125-0.91504 0.17806-1.3379 0.064127-0.50586 0.097005-1.0212 0.23991-1.5241 0.47786-0.15495 0.25391 0.29297 0.41895 0.49707 0.12891 0.16016 0.40202 0.17285 0.59505 0.32096 0.27702 0.21191 0.55208 1.0801 0.96387 0.75586 0.12695 0.40202 0.39486 0.2679 0.55404 0.50814 0.12793 0.19401 0.084961 0.55306 0.16309 0.78288 0.34798-0.045899 0.4541-0.16504 0.72494-0.35612-0.013997-0.014974-0.075846-0.039063-0.093099-0.05306 0.021159-0.064128 0.095052-0.31087 0.13216-0.34115 0.18815-0.15104 0.21484 0.041992 0.43001 0.013021 0.27702-0.03711 0.60189-0.16113 0.80111-0.37305 0.3151-0.33301 0.30404-0.85807 0.3571-1.3571 0.049154-0.45215 0.16699-1.154-0.13509-1.5212-0.11296-0.13704-0.33106-0.16113-0.47689-0.36491-0.139-0.19401-0.24902-0.37988-0.38704-0.55892-0.25586-0.33106-0.6071-0.61686-0.80697-0.97494-0.19206-0.34408-0.023112-0.83203 0.14616-1.207 0.26497-0.58496 1.1829-1.179 1.6979-0.70085-9.77e-4 -0.055013 0.017904-0.12109 0.017904-0.17611 0.023112 0.001954 0.092122 0.082032 0.095052 0.081055 0.54492-0.13509 0.10807 0.37793 0.22786 0.55404 0.013998 0.021158 0.15006 0.16211 0.17806 0.18197 0.14193-0.15104 0.16797-0.37988 0.14616-0.58301 0.58398-0.024089 1.0661-0.21289 1.5661-0.51693-0.091146-0.23112 0.06608-0.51302 0.27409-0.64486 0.068034 0.69596 0.70996 0.26986 1.0758 0.13509 0.39193-0.14486 0.74609-0.21908 0.89388-0.68913 0.010091-9.77e-4 0.10384 0.029947 0.11784 0.032877 0.1569-0.22494 0.52409-0.11914 0.43392-0.54297 0.32292-0.059895 0.039062-0.40202 0.22396-0.61588 0.084961 0.1071 0.22591 0.13086 0.31803 0.18587-0.012044-0.079101 0.025065-0.18587 0.013997-0.26497 0.30501-0.022135 0.37012-0.35286 0.37109-0.60286 0.49414 0.10514 0.22103-0.3571 0.53288-0.4209 0.003906-0.17285 0.023112-0.12891 0.092122-0.27897-0.085938-0.25488 0.05306-0.486 0.10905-0.7321 0.015951 0.055013 0.043946 0.10384 0.056967 0.16113 0.20703-0.23991 0.083007-0.45313 0.12402-0.72396-0.17806 0.049154-0.39095 0.11686-0.58984 0.079102 0.012045-0.30794 0.61393-0.52995 0.87109-0.63997-0.18685-0.58203-1.0781-0.24707-1.3379-0.73796 0.38412-0.032878 0.75098 0.18197 1.151 0.1709-0.066081-0.24414-0.33789-0.13509-0.49609-0.31413-0.083984-0.097005-0.12598-0.55208-0.18392-0.69792-0.083008-0.21094-0.14909-0.37598-0.25488-0.56608-0.081054-0.14388-0.019857-0.19108-0.12695-0.30404-0.092122-0.096029-0.25-0.016927-0.32812-0.14095-0.18001-0.28613 0.49805-0.72005 0.74707-0.92708 0.23991-0.19987 0.9401-0.31803 0.91797-0.71289-0.11003 0.01302-0.38216 0.10807-0.50391 0.053059-0.19889-0.088867-0.045899-0.19401-0.18294-0.32715-0.19206-0.1849-0.35807-0.31315-0.64388-0.22298-0.05306 0.28809-0.24902 0.68197-0.60286 0.58789-0.014974-0.25293 0.060873-0.54004-0.13607-0.71908-0.028972 0.023112-0.015951 0.05599-0.05306 0.083008-0.12793-0.070963-0.58887-0.46484-0.59798-0.61003-0.017904-0.27409 0.278-0.39486 0.48893-0.23796 0.34505-0.29394 0.84701-0.51302 1.277-0.77799 0.222-0.13704 0.42904-0.60807 0.76595-0.31706 0.37207 0.32389-0.25488 0.56413-0.21387 0.86296 0.027018 0 0.095052-0.003906 0.11914 0.003906-0.47201 0.39388 0.37402 0.10384 0.54785 0.00293 0.33496-0.19401 0.52506-0.26009 0.90397-0.24186 0.28906 0.013021 0.4681-0.043945 0.59212 0.24186 0.021159 0.046875-0.096029 0.64486-0.13802 0.73796-0.18685-0.05306-0.24088-0.016927-0.31185 0.18392 0.26693-0.027995 0.53516 0.041992 0.65397 0.27604 0.26204 0.024088 0.36491 0.23405 0.63704 0.20312-0.073894 0.072916-0.10905 0.22884-0.17904 0.30599 0.059896 0.011068 0.12012 0.047852 0.18001 0.061849-0.007161 0.10807-0.004883 0.16992-0.080078 0.26204-0.065104-0.21289-0.11784-0.125-0.23405-0.21484-0.009115 0.19401-0.009115 0.39616 0 0.58984 0.60807-0.017903-0.55404 1.0469 0.264 0.97396 0.019857-0.29915 0.56901-0.30404 0.79785-0.36393 0.45801-0.12012 0.50586-0.047851 0.50716-0.46191 9.77e-4 -0.33203-0.05013-0.60091-0.12695-0.89388-0.097005-0.36686-0.236-0.43001-0.46387-0.73405-0.11491-0.15397-0.375-0.5651-0.38314-0.74902-0.017904-0.39388 0.46289-0.55697 0.74512-0.76693 0.48014-0.35807 0.39714-0.98796 0.95312-1.2288-0.35514-0.57585 0.2959-0.54492 0.389-0.96484 0.001953-0.011067 0.00293-0.022135 0.00586-0.033854l0.58984 0.10091c0.10286 0.11784 0.38086 0.53516 0.52116 0.39616 1.252-0.55599 1.9479-1.6699 2.9229-2.7829 0.69596-0.83496 1.252-1.8099 1.113-2.9229 0-0.27799 0.27799-0.55697 0.38802-0.82715 0.24414-0.46712 0.11003-0.65885-0.23698-1.0199 0.472 0.25912-0.1569-0.6709-0.25586-0.77214-0.26693-0.27214-0.60384-0.46615-0.9069-0.14388-0.21289 0.22689-0.23698 0.54915-0.61784 0.5651 0.038086-0.1071 0.038086-0.22201-0.001953-0.33008-0.12207 0.056966-0.23893 0.12207-0.35286 0.19206 0.037109-0.3099 0.037109-0.44889 0.037109-0.72689-0.139-0.27897-0.69596-0.139-0.55697-0.27897 0.83496-1.3919 2.2269-2.5049 3.6191-3.2008 0.97396-0.55697 2.2269-0.139 3.3398-0.27897 0.139 0 0.278-0.278 0.41699-0.41699 0.41797-0.139 0.41797 0.139 0.45215 0.23014 0.11393-0.13509 0.080078-0.13086 0 0 0.42415-0.083985 0.79102 0.31803 1.2191 0.18685-0.12891 0.13802-0.28613 0.27506-0.486 0.27116 0.030924-0.011068 0.085937-0.013998 0.12012-0.024089-0.041992 0.00293-0.070964 0.011068-0.12012 0.024089 0.625 0.42513 1.182-0.27116 1.8779-0.13216 0-0.27897-0.139-0.41797-0.27799-0.55697 0.89909-0.77604 2.099-2.6439 3.4359-1.5329 0.026042-0.065104 0.07194-0.12598 0.081055-0.19694-0.049154 0.23991-0.13086 0.47396-0.24414 0.69108 0.13412 0.001953 0.23014 0.093099 0.23991 0.22786 0.24512-0.58008 1.0811-0.44108 1.2201-0.85807 0.278-0.55697 0.41699-0.69596 0.69596-0.83496 0.27799-0.139 0.69596 0 0.69596 0.278 0 0.139-0.55697 0.139-0.55697 0.41699 0 0.55697-0.41797 1.2529-1.1149 1.221-0.021159 0.067058-0.041016 0.11393-0.028971 0.17806 0.06608-0.083008 0.047851-0.078125 0.028971-0.17806-0.83301 0.72786-1.529 1.9801-2.6429 2.1201-1.5309 1.3929-0.97493 3.6201-0.41699 5.29 0.69596-0.139 0.97494-0.69596 1.1139-1.3919 0-0.139 0.55599-0.139 0.55599-0.278 0.13997-0.83496 0.55697-0.97494 1.2529-1.1139 0.13997-0.41797 0-1.113 0.45312-1.3962 0.051107 0.12207 0.059896 0.25293 0.067057 0.38509 0.51009-0.022136-0.024088-0.63802-0.030924-0.84115-0.004883-0.14486 0.66992-0.82096 0.14714-0.81901-0.18685 0-0.52214 0.65202-0.58691 0.068034-0.05013-0.4349 0.4349-0.99902 0.67904-1.2949-0.41992-0.21387 0.49609-0.2959 0.62012-0.29492 0.48112 0.003906 0.56315-0.43294 1.0492-0.49902-0.010091 0.13704-0.035156 0.27214-0.058919 0.4069 0.40397-0.12891 0.7321-0.49186 1.1781-0.4821-0.042969 0.026041-0.084961 0.05306-0.12695 0.082031 0.25 0.029948 0.5459-0.17904 0.78092-0.049154 0.18685 0.10384 0.18392 0.36198 0.32389 0.50912 0.092123-0.50586 0.68815-0.69792 1.099-0.87207 0.66406-0.27995 1.2881-0.64095 1.9382-0.94987 0.33008-0.1569 0.69694-0.35905 1.0589-0.42904 0.36003-0.069987 0.53711 0.22201 0.83789 0.21289 0.58105-0.01595 0.21387-0.94401-0.28092-0.889 0.49414-0.47298-0.58691-0.44889-0.52116-0.86686-0.33594-0.011068-0.6429-0.12207-0.90397-0.32096 0.42904-0.095052 0.78809-0.073893 1.2259-0.037109 0.20085 0.016927 1.3118 9.76e-4 0.99088-0.38412 0.15006 0.067057 0.32096 0.036133 0.41699-0.10091-0.11588-0.082032-0.23405-0.16113-0.36296-0.222 0.16797-0.055013 0.18815-0.22201 0.12891-0.37305 0.10286-0.013021 0.20508-0.033855 0.30501-0.061849-0.043946-0.065104-0.036133-0.14909-0.078125-0.21387 0.21908-0.035157 0.63997-0.031902 0.69401 0.25391 0.051107 0.27311-0.33594 0.33594-0.26693 0.61296 0.38802-0.20312 0.95085-0.21908 1.359-0.058919 0.37109 0.14486 0.36198 0.48014 0.639 0.71484 0.44889 0.38216 1.3779 0.33691 1.609-0.27214-0.14193 0.029947-0.27995-0.017904-0.361-0.13802 0.32096 0.083984 0.111-0.20215 0-0.2959-0.10905-0.093099-0.45085-0.22396-0.10384-0.30599 0.40299-0.095052 0.91113 0.74284 1.027-0.051107 0 0.066081 0.004883 0.10091-0.013021 0.16602-0.05306-0.29915 0.23014-0.10612 0.38509-0.078125 0.14714-1.0719-1.1689-0.86393-1.832-1.0729 0.051107 0.088867 0.13704 0.15202 0.22884 0.16309-0.064128-0.066081-0.14388-0.12305-0.22884-0.16309 0.29394 0.23112 0.33203 0.82194-0.13314 0.76107-0.49609-0.065105-0.60514-0.75391-0.80013-1.111-0.49609-0.90592-1.6549-0.903-2.5391-1.181-0.51693-0.16211-0.93392-0.48893-1.4359-0.67708-0.49902-0.18685-1.029-0.25716-1.556-0.31185-0.5179-0.054036-1.042-0.086914-1.5501-0.21387-0.23503-0.058919-0.30794-0.11491-0.50195 0.021159-0.11296 0.079101-0.11784 0.19596-0.23112 0.30599 0.72786 0.47884-0.11198 1.3519-0.69596 0.83398-0.12402-0.10905-0.20312-0.30306-0.33496-0.42415-0.065105-0.059896-0.16699-0.091146-0.22201-0.14714-0.037109-0.038086 0.012045-0.17708-0.05306-0.20996-0.33301-0.16699-0.1569 0.34212 0 0-0.33496 0.19596-0.1569 0.34212 0 0-0.36393 0.22494-0.78092 0.085937-1.1989 0.22494-1.113 0.139-2.2269-0.139-3.3398-0.139-0.13997 0-0.27799-0.139-0.27799-0.27897-0.13997-0.69596-0.69596-1.2529-1.3919-1.2529-0.97396 0-1.9489 0.41797-2.917 0.31706 0.13802-0.063151 0.30892-0.06901 0.45215-0.022135-0.13802 0.041016-0.30404 0.027018-0.45215 0.022135 0.16211-0.14616 0.11393-0.39714-0.12598-0.45085-0.1849-0.041992-0.22005 0.14486-0.36784 0.16602-0.25488 0.037109-0.19499-0.15592-0.37109-0.30501-0.19206-0.16309-0.48307-0.12793-0.71484-0.10384 0.072916-0.12402 0.18392-0.22201 0.31901-0.27116-0.28288-0.35384-0.93815-0.49284-1.363-0.375-0.44499 0.12305-0.72298 0.6071-1.2321 0.50716 0.14811-0.10905 0.29492-0.22103 0.41797-0.35807-0.3099-0.019856-0.61588 0.055013-0.92611 0.030925 0.34212-0.51009 1.141-0.17708 1.4821-0.68815-0.98307-0.34994-2.0111 0.19987-3.0072-0.040039 0.13704 0.42611-0.80794 0.25-1.0231 0.3151 0.017904 0.041992 0.035156 0.083984 0.051107 0.12598 0.20801-0.13509 0.61296-0.26888 0.72591 0.05306-0.19694 0.082032-0.37695 0.20508-0.58887 0.24805 0.10286 0.20898 0.29297 0.36686 0.068034 0.54102-0.21712 0.16797-0.67188-0.03711-0.90397-0.077149 0.01302 0.18392 0.001953 0.37207-0.061849 0.5459-0.17611-0.32096-0.45508-0.59896-0.73307-0.59896-0.83496 0-1.5309 0-2.349-0.2679-0.18913 0.06901-0.16504 0.35612-0.38607 0.41894 0.38607 0.66699-0.58398 0.42806-0.87207 0.2959-0.3291-0.15007-1.1071-0.58496-1.165-0.99805 0.16699 0.041992 0.62598 0.14714 0.67513-0.12207 0.046875-0.26009-0.278-0.13216-0.4209-0.20996-0.39616-0.21712 0.036133-0.111 0.084961-0.21908 0.066081-0.14616-0.20996-0.35807 0.11491-0.34896-0.41699-0.46908-1.0781-0.20606-1.5931-0.42904-0.26204-0.11296-0.42285-0.39193-0.7321-0.37305-0.27214 0.017904-0.45606 0.28092-0.73014 0.30892 0.27995 0.46484-0.50911 0.65299-0.79297 0.41113l0.18099-0.013021c0.069011 0.026042 0.13704 0.063152 0.20085 0.099935-0.078125-0.003906-0.15592-0.001953-0.23307-0.014974 0.077148 0.008138 0.15495 0.010092 0.23307 0.014974-0.8099-0.20703-1.665-0.094075-2.471-0.31901 0.041992 0.029948 0.084961 0.058919 0.12891 0.087891-0.025065-0.21387 0.084961-0.41602 0.24414-0.55208-0.97396-0.139-1.8099 0.278-2.8519 0.44206-0.12891-0.05892-0.34896-0.38216-0.26888-0.49414-0.44206 0.41016-0.83984-0.25-1.2939-0.16797-0.40592 0.072917-0.063151 0.30501 0.18913 0.31087-0.62012 0.14811-1.264 0.26888-1.8509 0.52604-0.4349 0.1901-0.95312 0.62891-1.4499 0.38997 0.66211-0.82194 1.8021-0.82389 2.6019-1.4391-0.069987-0.063151-0.14616-0.12109-0.22591-0.1709 0.61686-0.27116 1.276-0.43294 1.876-0.74609 0.15299-0.080078 0.44108-0.18294 0.44792-0.38997 0.010092-0.2679-0.41797-0.38607-0.6071-0.44694 0.26107 0.046875 0.51693 0.14193 0.78613 0.125-1.1038-0.8571-2.6481-1.276-3.986-0.74284 0.059896 9.76e-4 0.12012 9.76e-4 0.18001 0-0.26139-0.14062 0.16862-0.53874-0.22135-0.6276-0.30013-0.069011-0.49186 0.42611-0.81315 0.39388 0.083008-0.10286 0.16016-0.20996 0.23014-0.32194-0.21387-0.010091-0.70898 0.041992-0.81413-0.20703-0.16602-0.39811 0.49414-0.42708 0.72103-0.40397-0.28288-0.66016-1.9339-0.12207-2.224 0.347-0.25586 0.41406 0.33008 0.361 0.31315 0.68099-0.025065 0.45898-1.1751 0.18587-1.4141 0.1901 0.45898-0.15592-0.042968 0.35189-0.20605 0.42188-0.55501 0.23796-1.266 0.06901-1.8431 0.033854 0.072917-0.1849 0.25195-0.2959 0.44499-0.32096-0.49902 0.007161-1 0.035156-1.488 0.14714 0.15104-0.093099 0.34212-0.061849 0.44108 0.088867-0.88314 0.70801-1.8581 0.42904-2.693 0.56803-1.113 0.13997-1.3919 1.2529-2.0879 1.8099-0.55697 0.69596-1.5309 0-2.3659 0.139-0.55697 0.139-0.83496 0.83496-0.60091 1.2259-0.036132-0.19401-0.11296-0.37891-0.21191-0.54915 0.059896 0.18685 0.13412 0.36914 0.21191 0.54915 0.018881-0.083008 0.041993-0.16504 0.043946-0.25098-0.086914 0.43099 0.66113 0.31999 0.89193 0.37109 0.19694 0.042969 0.42708 0.16309 0.20085 0.26204-0.061849 0.027019-0.14714-0.20085 0.007162-0.18815 0.11588 0.010091 0.16309 0.070964 0.13509 0.19401-0.07487 0.32585-0.86296 0.21289-1.0859 0.17513-0.5791-0.097005-1.167-0.58301-1.765-0.3099 0.069011 0.095052 0.15006 0.10091 0.2321 0.016927-0.15006-0.040039-0.24512 0.039063-0.14714 0.17415-0.054036-9.77e-4 -0.10807-0.009115-0.16113-0.023112 0.055013 0.001953 0.10807 0.010091 0.16113 0.023112-0.29915-9.77e-4 -1.418-0.069987-0.97396 0.41699 0.36914 0.40592 1.2689 0.17285 1.3919 0.83496-0.52702-0.05599-0.075846-0.27116 0 0-0.69596-0.27897-1.6699-0.139-2.2269-0.83496 0-0.139 0.41797-0.55697 0.27897-0.83496l-0.27897-0.139c-1.113 0.69596-0.69596 2.2269-0.41699 3.2021 0.69596 0 1.6699-0.278 2.0879 0.55599 0 0.139 0 0.27897 0.026042 0.35091 0.066081 0.51009 0.32292 0.57389 0.8099 0.48503-0.53092 0.55111-1.1299 0.041992-1.4261-0.45606-0.32096-0.54102-0.65788-0.74707-1.266-0.42904 0.26107 0.57389 0.3571 9.77e-4 0 0 0.18587 0.32812 0.32487 0.46712 0.18587 0.74609-0.55697 0.97494-1.8089 2.2269-3.0618 1.3919 0-0.139-0.139-0.139-0.139-0.278s0.139-0.278 0.139-0.278c1.1139 0.139 2.2269-0.41797 2.5049-1.5319 0-0.139-0.139-0.278-0.139-0.278-0.27897 0-0.41699 0-0.75293-0.10286 0.038086 0.01888 0.077148 0.033854 0.11784 0.045898 0.2181-0.778 0.079102-1.613-0.33789-2.3089-0.139-0.278 0.139-0.55697 0.139-0.83496s-0.278-0.41699-0.41699-0.55697c-1.2529-0.41797-1.6709 1.1139-2.6211 1.7129-0.010091 0.15006 0.15202 0.15788 0.25391 0.096028-0.022135 0.43685-0.13411 0.87695 0.1569 1.251 0.20605 0.26497 0.57194 0.40397 0.44694 0.80794 0.16016-0.111 0.35286-0.17188 0.54785-0.16211-0.038086 0.19108-0.038086 0.33008-0.038086 0.46908l-0.278 0.13997"/>
 </g>
</svg>
