<?xml version="1.0" encoding="UTF-8"?>
<svg width="1200pt" height="1200pt" version="1.1" viewBox="0 0 1200 1200" xmlns="http://www.w3.org/2000/svg">
 <g>
  <path d="m622.92 984.65c-5.1953 0-9.5625-1.5117-13.066-4.5234l-0.61328 0.3125c-1.7539 0.89844-3.875 0.88672-5.6406-0.097656-1.1523-0.63672-2.293-1.2227-3.4453-1.8008-2.9297-1.5-5.9766-3.0586-8.7461-5.2422-2.4102-1.8594-3.6836-4.4141-4.6914-6.4688-0.32422-0.67188-0.66016-1.3438-1.043-1.957-1.5-2.3867-3.0859-6.5391 0.28906-10.656l-6.6367-9.0586c-0.97266-1.3086-1.3438-2.9648-1.0664-4.5859 0.27734-1.6094 1.2109-3.0352 2.5664-3.9375l2.0273-1.4141c1.1406-0.80469 2.2578-1.5977 3.3945-2.3047-2.8906-2.3516-5.3047-5.2305-7.4766-8.0742l-2.1602 0.97266c-1.4766 0.68359-3.2148 0.69531-4.7383 0.085938-1.5234-0.625-2.7227-1.8477-3.3125-3.3828l-0.73047-1.9336c-0.3125-0.875-0.625-1.7539-0.99609-2.6055-7.7031-1.2109-9.0117-8.0273-9.4688-10.414-0.046876-0.22656-0.097657-0.49219-0.15625-0.75781-0.74219 0.33594-1.5703 0.52734-2.4492 0.52734l-8.1719 0.023438c-2.7344 0-5.3984-0.023438-8.0742-0.10938-3.9609-0.19141-6.5273-3.4453-7.4414-5.3398-1.5117-3.2266-3.0977-4.0078-4.5469-4.1992-0.33594 0.9375-0.61328 1.7773-0.64844 2.4102-0.25391 4.2461-0.085937 7.7891 0.52734 10.812 0.71875 3.6016 0.92578 7.5-2.293 11.746-0.75781 1.0078-1.3789 2.5938-2.1133 4.4141-0.44531 1.1055-0.88672 2.2578-1.4141 3.4219-0.92578 2.0273-2.8789 3.3828-5.1133 3.5156l-0.50391 0.035156-5.4844 11.879c-0.875 1.8945-2.6992 3.2148-4.7656 3.4453-2.1602 0.22656-4.1406-0.63672-5.4258-2.2812-0.91016-1.1992-1.7383-2.3047-2.4844-3.3594-1.3555-1.8594-2.4258-3.3477-3.5508-4.3555-1.0195-0.9375-2.5195-1.7773-4.2461-2.7617-0.98438-0.55078-2.0039-1.1289-3.0352-1.7539-2.7461-1.7031-3.6602-5.2695-2.0625-8.0898l2.3164-4.0781c1.7031-3.0117 3.3711-5.9766 5.125-8.9023 1.5352-2.6055 1.8125-6.1445 0.74219-9.4688-1.0312-3.1797-3.0977-5.6523-5.6758-6.7578l-5.2695-2.293c-1.9805-0.83984-3.3477-2.6992-3.6016-4.8242-0.23828-2.1484 0.68359-4.2461 2.4102-5.5195 0.74219-1.0781 0.070312-2.7344-0.35938-3.8281l-0.046874-0.097656c-4.3438-0.25391-7.9688-1.8242-10.559-5.6289-0.085938 0-0.68359-0.35938-1.0938-0.61328-1.3789-0.83984-3.2891-1.9922-4.7031-3.9961-1.4141-2.0039-2.5078-4.2461-3.5508-6.5273-0.60156-1.2852-1.1992-2.5781-1.9062-3.7812-0.99609-1.6797-1.5234-2.0898-1.5859-2.125-6.8867-2.7109-16.789-7.9453-20.074-20.438-0.19141-0.70703-0.70703-1.8945-2.1484-3.7422l-1.5-0.23828-4.0781 0.10938c-1.9453 0-3.7578-0.9375-4.8828-2.5312-1.1406-1.5859-1.4141-3.6133-0.76953-5.4492 0-0.66016-1.0938-1.4414-1.8008-1.9688l-1.2109-0.89844c-4.8711-3.7422-6.2148-8.7109-3.8633-14.293 1.8242-4.3555 0.070313-7.9062-3.2031-13.801l-0.46875-0.85156c-1.2461-0.035157-2.5195-0.13281-3.7812-0.23828-3.6016-0.27734-6.9492-0.35938-9.0703 0.9375-3.0234 1.8359-6.2891 2.6875-8.7461 2.2578-1.0078-0.070313-1.6328-0.070313-2.7734 1.8477-2.8789 4.8711-7.2734 7.1055-10.801 8.8906-1.0195 0.51562-2.0391 1.0195-3.0117 1.6211-0.9375 0.57422-3.0352 1.1055-4.1406 1.1055-1.0781 0-2.1836-0.19141-3.2031-0.52734-10.332-3.3945-19.609-7.5-28.262-12.539-0.61328-0.34766-2.7344-0.50391-3.5273-0.5625l-1.2383-0.078125c-2.4375-0.046875-6.793-0.12109-10.176-4.0195l-0.097656 0.625c-3.3125 0.011719-7.4883 3.2148-7.8594 4.8242-0.9375 4.2461-1.668 8.543-2.3984 12.84l-1.2734 7.2617c-0.30078 1.9805-0.75781 4.9805-3.4453 6.8516l-1.8008 1.2852c-9.6953 6.8984-19.703 14.051-33.875 14.52-6.707 0.22656-10.922 2.4258-13.668 7.1641-3.4453 5.8906-10.223 9.5742-15.301 11.641-4.5859 1.8242-4.3672 2.9297-3.9375 5.3164 0.28906 1.6328 0.23828 3.0977 0.17969 4.2617-0.035157 13.922-2.8906 17.941-15.059 20.785-1.4414 3.875-4.3086 6.3477-8.7344 7.5469-6.4453 1.7266-12.816 3.6719-19.176 5.6289-2.0273 2.2695-3.3828 3.8164-4.6328 5.4609-5.8555 7.8125-13.055 9.9492-20.941 6.3477-0.12109 0.046875-0.25391 0.097656-0.37109 0.14453-0.76953 0.25391-1.5469 0.51562-2.2578 0.68359-1.8945 0.74219-4.332 1.4883-6.4922 0.96094-1.7383-0.38281-3.4453-0.94922-5.1602-1.5234-1.6211-0.53906-3.2266-1.1172-4.8828-1.3672-1.0664-0.16797-2.1367-0.20312-3.2266-0.20312l-3.0703 0.070312c-3.0117 0.085938-6.5625 0.17969-8.4609-2.2305-4.9062 3.1328-11.762 2.3164-15.816 1.0078-3.1445-1.0195-6.3594-1.8242-9.8047-2.7109l-5.0742-1.2969c-2.6289-0.70703-4.4531-3.0859-4.4531-5.7969v-2.3867l-2.2695-0.011719c-3.3125 0-6-2.6875-6-6l0.011719-1.8711c0-0.25391 0.011719-0.48047 0.011719-0.71875-1.5977 0.71875-3.457 1.1055-5.3164 1.1055-4.7656 0-8.4727-2.5547-11.16-4.7656-2.3516-1.957-5.7344-3.3477-9.2891-4.8242-1.8242-0.75781-3.6953-1.5352-5.5312-2.4102-1.6328-0.76953-2.8086-2.2578-3.2539-3.9961-0.42187-1.7539-0.035156-3.6133 1.0547-5.0508l3.0977-4.0312c2.9883-3.8984 6.1211-7.9805 9.1211-12.168 0.35938-0.51562 0.68359-1.4648 0.73047-2.2188 0.12109-1.8125 0.070312-3.6484 0.035156-5.4844-0.046875-2.4844-0.085937-4.9688 0.14453-7.4297 0.21484-2.3867 0.68359-4.7539 1.1523-7.1172 0.35938-1.7773 0.74219-3.5625 0.92578-5.3398 0.23828-2.2578 0.3125-4.5469 0.40625-6.8281 0.10938-2.6875 0.22656-5.3516 0.51562-8.0156 0.39453-3.5156 1.5586-6.8867 3.2539-9.5273 3.0234-4.668 6.2773-9.0977 9.6719-13.188-1.2227-2.1602-1.1289-4.9453 0.50391-6.8984 2.1484-2.5938 4.7539-4.1758 7.0664-5.5547 3.3477-2.0391 4.2969-2.8086 4.5469-4.3906 0.22656-1.4297 0.53906-2.832 0.86328-4.2461 1.0938-4.7773 1.3438-6.793-0.26562-9-0.97266-1.332-1.3555-3.0117-1.0547-4.6445 0.28906-1.6328 1.2617-3.0703 2.6641-3.9609l4.6914-3.0117c0.71875-0.44531 0.99609-0.78125 1.043-0.875 0 0.011719-0.011719 0.011719-0.011719 0.011719-0.070312 0-0.25391-0.51562-0.83984-1.2852-5.2188-7.0312-5.2812-13.273-0.22656-20.27 0.76953-1.1055 2.543-3.625 5.9648-3.625 2.4102 0.16797 3.9727-1.0781 6.5391-3.0469 2.207-1.6797 4.7031-3.5742 7.9453-4.6914 9.1445-3.0977 14.977-1.3203 19.934 4.8945 3.1094 3.875 6.3945 5.7344 11.004 6.1797 3.7305 0.37109 6.3125 2.7617 8.3984 4.6914 0.49219 0.45703 0.98438 0.91016 1.4648 1.2969 0.52734 0.40625 1.0312 0.83984 1.5352 1.2852 5.0273-1.7266 8.4102 0.39453 10.633 1.6797 1.6445 0.79297 3.2773 1.0664 5.1953 1.3672 4.1641 0.68359 9.8516 1.6094 14.594 7.1172 1.2969 1.5117 5.5312 2.5078 8.9297 3.3008 1.9805 0.46875 3.9609 0.9375 5.7734 1.5117 0.94922 0.30078 1.9062 0.55078 2.8906 0.78125 1.2461-6.5508 6.3945-10.754 10.754-13.824-1.3086-9.2148 5.2578-16.68 13.188-23.473l-3.9609-9.6367c-2.7969-6.9609-2.2578-13.871 1.5352-19.992 2.4492-3.9258 2.207-5.207 1.7031-6.2539-0.10938-0.21484-0.63672-0.71875-1.0781-0.9375-0.74219-0.35937-1.8125-0.63672-2.9648-0.91016-2.7461-0.67188-6.707-1.6445-9.7422-5.0742-1.7539-1.0938-2.9648-2.9766-2.9648-5.0742 0.035156-0.085938-0.97266-0.50391-1.6445-0.76953-1.0547-0.44531-2.1133-0.88672-3.0586-1.4414-2.7852-1.6094-3.4062-4.4141-3.7188-5.7617l-2.3516-10.066c-0.5625-0.64844-0.97266-1.3906-1.1641-2.2188-0.43359-1.9219-0.25391-3.9102 0.81641-5.3398l-0.42188-1.6094c-0.49219-1.8359-0.070313-3.8164 1.1406-5.3047 1.1992-1.4766 2.9883-2.5195 4.9453-2.2188l3.7812-0.058594c4.2109-0.19141 8.8672-0.58984 14.137 2.8086 0.43359 0.011719 0.80469 0.035156 1.1523 0.046875-0.19141-0.66016-0.25391-1.3438-0.21484-2.0508 0.15625-2.1016 1.3906-3.9727 3.2773-4.9219 12.863-6.5156 24.504-7.1523 35.508-2.0156 2.7109 1.2617 5.0156 4.0781 5.7461 7.0195 0.17969 0.50391 0.43359 0.74219 1.5469 1.043 3.6016 1.043 6.8398 2.7461 8.9648 3.9492 1.6211 0.94922 3.5898 0.53906 5.5078-0.88672 2.7344-2.0273 5.9141-2.5195 8.4844-2.9141l1.3086-0.21484c2.5547-0.45703 3.9102-1.2461 5.2188-3.0469 3.7812-5.2188 9.3594-8.2305 17.062-9.2539 4.8711-0.63672 9.7422-2.0039 14.867-3.457 1.4648-0.42188 2.9297-0.82812 4.3906-1.2344 0.38281-0.37109 0.81641-0.69531 1.3086-0.92578 1.1289-0.52734 2.0391-0.81641 3.5273-0.82812 0.14453-1.2109 0.13281-2.6289 0.097656-4.332-0.046875-2.0391-0.058593-3.9961 0.20312-5.7852 0.22656-1.5 0.99609-2.8555 2.1836-3.793l2.375-1.8828c1.2461-0.97266 2.3164-1.8008 3.3125-2.7227 4.7383-4.4297 10.367-9.6602 19.246-7.9336 0 0 0.83984 0.058594 1.1406 0.070313 0-0.15625 0.33594-0.81641 0.63672-2.3867 0.3125-1.6445 1.3086-3.0859 2.7461-3.9727 1.4414-0.88672 3.168-1.1172 4.7773-0.66016l10.609 3 2.832-6.3594c0.67188-1.5 1.9062-2.6523 3.4453-3.2148 1.5117-0.5625 3.2383-0.45703 4.7031 0.26562l3.4922 1.6562c2.6758 1.2461 5.0625 2.375 7.2617 3.793 1.4141 0.92578 2.5938 0.058594 3.0469-2.2695 0.10938-0.5625-0.046875-1.7539-0.19141-2.8203-0.20312 0.011718-0.38281 0.035156-0.57422 0.046874-2.1367 0.21484-4.2461-0.70703-5.4961-2.4492-1.2461-1.7383-1.4883-4.0195-0.61328-5.9883l0.64844-1.5c0.60156-1.4023 1.1289-2.6055 1.8125-3.6953 2.5312-3.9961 2.5781-8.1719 0.16797-12.395-3.457-6.0352-3.3477-11.746-3.2539-17.258 0.058594-3.0352 2.375-6.0352 5.3867-6.3594l0.011719-0.30078c0.058593-3.2266 0.13281-6.5625 0.82812-9.9961 0.875-4.2109 2.0625-8.9766 5.1367-12.637 3.4805-4.1875 8.9648-6.3125 11.914-7.2109 2.3281-0.70703 5.1367-0.74219 8.1719-0.55078 0.76953 0.046875 1.5586 0.097656 2.3281 0.097656l1.6211-0.023437c2.2305-0.011719 2.3164-0.10938 2.832-0.58984 2.7461-2.6289 6.5273-2.6289 7.957-2.6289l4.3555 0.13281c3.3125 0 7.1172 2.6523 7.1172 5.9766v11.172c0 2.5664-1.6328 4.8477-4.0547 5.6758l-0.13281 0.035156c0.66016 3.0469 1.0938 6.5039 0.92578 10.234 0.83984 0.27734 1.6328 0.61328 2.3516 0.94922 0.81641 0.37109 1.1172 0.43359 1.1406 0.43359 2.7461-3.5039 6.8164-3.5039 8.3516-3.5039 0.85156 0 1.7656 0.035156 2.6992 0.085938l1.2227 0.035156c0.625-2.0273 1.4648-4.1875 2.6758-6.1797 0.46875-0.75781 0.46875-1.1289 0.46875-1.1406-9.8164-6.5742-10.105-15.828-9.4805-22.234 0.76953-7.8828 1.3438-15.781 1.8008-23.688l-3.3477 2.1133c-2.6406 1.6445-6.0469 1.0312-7.957-1.4141l-1.8125-2.3633c-1.2227 0.79297-1.5352 1.3789-1.6914 2.2695-1.1289 6.9727-6.9375 8.3281-9.1328 8.832-9.4688 2.2188-20.016 3.6836-28.402-0.21484-6.3477-2.9648-11.207-7.4141-14.148-10.621-2.0156-2.1836-2.9531-5.3867-2.7109-9.2656 0.19141-3.0234 1.1641-6.8516 2.9141-10.105l-4.1758-5.6289c-1.7539-2.3633-1.5352-5.6406 0.50391-7.7539l2.6641-2.6992c2.0039-2.0039 3.9492-3.9492 5.7109-6.0352-0.058594 0 0.14453-0.70703 0.26562-1.1758l2.3516-7.0195-0.19141-0.37109c-1.4023-2.7461-3.1797-6.1797-4.2344-10.031-0.99609-3.5742 0.011719-7.7148 2.7461-11.328 0.74219-0.97266 1.5469-1.8359 2.4102-2.5781-0.67188-2.0508-0.19141-4.332 1.3203-5.9531 6.9258-7.4297 13.801-12 21.672-14.363 4.1172-1.2461 4.7773-1.8359 4.8828-7.1992l0.21484-3.4219c0.12109-1.668 0.91016-3.2031 2.2188-4.2617 1.2852-1.043 2.9766-1.5117 4.6211-1.2734l11.652 1.6797c0.82812 0.12109 1.6914 0.33594 2.5195 0.55078 0.46875 0.12109 1.1641 0.30078 1.3906 0.3125 1.8359-0.19141 3.6953-0.40625 5.5547-0.66016-0.34766-1.0078-0.43359-2.1133-0.20312-3.2148 1.8945-8.7969 6.0469-14.902 12.695-18.66 3.7812-2.1367 7.4883-4.4023 11.207-6.6602l3.457-2.1016c0.74219-0.45703 1.4766-0.98438 2.1836-1.5234l3.8047-3.0117c2.6641-2.1367 5.3164-4.2617 8.1133-6.2148 1.5117-1.0547 1.8125-1.6094 1.8359-1.6562-0.011719 0 0.011719-0.50391-0.55078-1.7773-2.5547-5.9531-0.33594-10.152 1.9805-12.625 3.8867-4.1758 7.7539-8.3984 11.543-12.695 1.8125-7.957 5.2578-13.367 11.074-17.074 4.2344-2.6875 6.8398-4.5586 7.4648-7.8594 0.5625-3.1094 2.8789-4.9805 4.8359-6.2656 3.7695-2.5078 7.6211-4.9922 11.449-7.4766l14.867-9.6719c2.2578-1.4414 5.1953-1.2461 7.1992 0.48047 1.4297 1.2109 2.0156 1.7031 2.5781 2.2422 0.66016 0.625 2.0742 1.957 2.6289 2.1367 1.6094-1.0547 3.1445-1.6094 4.5703-1.9062 0.16797-1.2344 0.71875-2.4102 1.5977-3.3477 0.80469-1.1289 2.0625-1.9453 3.4062-2.293 4.5-1.1055 7.4648-4.2461 11.387-9.6484 3.1797-4.3789 6.8164-8.4375 11.879-8.4375 2.4375 0 4.4883 0.91016 6.2656 2.3398 0.96094-0.78125 2.1367-1.4531 3.5508-1.8359 1.5234-1.8828 4.0195-3.4453 8.1602-3.4453l1.7148 0.023437c1.1758-0.070312 1.8828-0.10938 2.5781-0.10938 5.3398 0 8.7227 2.2188 10.824 4.7539 0.85156-0.17969 2.0273-0.28906 3.2266-0.28906 5.6055 0 10.754 2.4258 13.453 6.3242 2.1602 3.1094 1.2344 6.8867 0.73047 8.375-0.60156 1.7539-1.2344 3.4688-1.8828 5.1836l0.69531 0.35937c2.0625-1.4297 4.3789-3 7.0312-4.1406 2.7227-1.1875 5.4375-1.7383 8.3164-2.3281 1.1641-0.23828 2.3633-0.49219 3.6602-0.79297 2.0508-0.51562 4.1992 0.10938 5.6758 1.6094 1.4766 1.5 2.0625 3.6602 1.5469 5.6992l-0.85156 3.4062c-0.46875 1.8945-0.89844 3.6133-1.3555 5.3047 3.5625-0.26562 6.2383 0.74219 8.3516 1.5234l1.6094 0.5625c2.1484 0.58984 3.7188 1.0078 5.293 1.9453 3.9961 2.375 7.8125 2.375 12.602 0.14453 1.8594-0.86328 3.5898-1.2734 5.2812-1.2734 2.6172 0 6.3008 0.99609 9.0859 5.7734 2.3633 4.0938 6.5742 6.3359 11.438 8.9297 2.5312 1.3438 5.0391 2.6992 7.3672 4.2969 2.3398 1.6094 4.8359 3 7.4297 4.4531l3.875 2.207c2.3398 1.3672 3.4688 4.1289 2.7617 6.7422l-0.68359 2.5781c1.0078-0.42188 2.0742-0.68359 3.1094-0.76953 1.0312-0.085937 2.0742-0.13281 3.1211-0.15625l-15.277-30.672c-0.75781-1.5352-0.83984-3.3125-0.20312-4.9062 0.63672-1.5859 1.9062-2.832 3.5273-3.4219l3.2773-1.1992c3.5898-1.3203 6.9961-2.5664 10.453-3.6484 4.1523-1.2734 8.375 2.5938 8.9648 3.2891l2.5781 3.0703c3.3945 4.0312 6.9102 8.207 9.9375 12.805 1.4531 2.1836 1.7383 4.5469 1.7539 6.793 6.6953-0.63672 8.5938-3.2148 9.6836-5.9297 1.0664-2.6406 2.7227-4.7266 4.1758-6.5625 4.5586-5.7852 6.0703-10.43 5.3398-15.602-0.45703-3.2773 1.0312-7.2227 3.5625-9.3711 5.5312-4.6797 11.137-9.2266 16.824-13.848l5.3633-4.3555c2.1602-1.7539 5.1719-1.7773 7.2969-0.20312l12.551-18.406c0.20312-0.30078 0.42188-0.5625 0.66016-0.81641l-2.3164-1.5547c-2.0391-1.332-3.0703-3.7695-2.6172-6.1562 0.45703-2.3984 2.3164-4.2734 4.7148-4.7539l38.965-7.8359c0.070312-0.023438 1.3906-0.5625 1.4648-0.60156 1.7031-0.61328 4.4648-0.43359 6.0117 0.50391 0.046875 0.023437 0.32422 0.21484 0.60156 0.40625 9.5391 1.9453 15.348 8.5312 20.484 14.375 5.6523 6.3945 11.23 12.266 16.801 18.121l3.3242 3.5039c4.4023 4.6094 5.2578 9.4688 2.5078 14.438-3.2773 5.9648-4.0781 12.215-2.3984 19.105 2.0898 8.6406 1.2617 17.977-2.4258 27.73-4.0195 10.598-2.9141 20.461 3.5508 32.004 3.2148 5.7109 5.8555 11.699 8.4258 17.496 1.5586 3.5039 3.1094 7.0195 4.7773 10.477 0.058593 0.046875 0.60156 0.51562 1.2461 0.80469 4.1055 1.7891 8.3398 3.2891 12.613 4.7031 7.8359 2.5938 7.3438 9.0586 7.0078 10.98-1.043 5.9414 0.79297 11.207 6.3242 18.203 0.14453 0.16797 0.79297 1.1406 0.91016 1.3086 8.0273 9.3242 11.566 19.414 10.645 30.191 1.2227 0.058594 2.4609 0.17969 3.793 0.3125l2.7852 0.25391c3.1328 0.23828 5.5547 2.8438 5.5547 5.9883v33.434c4.0312-0.30078 8.0156 0.49219 11.328 1.2109 1.4414 0.3125 2.8789 0.625 4.3203 0.81641 4.7539 0.64844 8.2578 3.1445 10.391 7.4141 1.1172 2.2188 2.2695 4.4023 3.4922 6.7188l1.7891 3.3945c1.3555 2.6055 0.63672 5.8086-1.7148 7.5859l-7.8008 5.8555c0.75781-0.023437 1.7656-0.070313 2.6641-0.19141 8.3047-1.1523 13.262 2.2578 16.152 9.8516 1.4648 3.8984 3.2656 7.6562 5.0742 11.41 1.7539 3.625 3.4805 7.2617 4.957 10.992 0.43359 1.0938 0.73047 1.3906 0.74219 1.4023 0.22656-0.035157 1.3789-0.3125 2.0156-0.43359 8.2578-4.9688 16.465-2.9141 22.754 5.9023 0.011718 0 1.6328 0.28906 1.6445 0.28906 5.2812-1.0664 11.016-1.8945 17.027-2.4492h0.15625c3.9961 0 7.4414 1.5586 9.4453 3.875 2.207 2.543 4.2109 5.2812 6.3242 8.1953l2.4609 3.3594c1.9805 2.6641 1.4414 6.4219-1.2227 8.3984l-22.309 16.656c-1.3438 0.99609-3.0469 1.3906-4.7148 1.0781-1.0078-0.19141-1.9453-0.63672-2.7109-1.2852l-13.668 5.8438c-1.6094 0.70703-3.2383 1.0547-4.8125 1.0547-2.3164 0-5.6992-0.75781-8.5938-4.4023-0.5625-0.70703-0.86328-0.85156-0.86328-0.85156-0.070312 0.023437-0.63672 0.070312-1.9062 0.625-3.8516 1.668-5.5547 3.5039-7.2461 7.8594-2.1133 5.3984-6.7422 9.2148-10.824 12.574-1.043 0.85156-2.0898 1.7148-3.0469 2.5664-1.8828 1.6914-4.0781 2.3281-5.6758 2.7852-0.46875 0.13281-1.1875 0.34766-1.4023 0.46875-8.9883 5.6172-18.637 5.4492-29.773-1.0664-2.4375-1.4141-5.0273-2.5938-7.6211-3.7305-2.7227 5.3164-7.9922 7.4531-12.191 8.6172-1.3438 0.38281-3.4453 2.5195-5.125 4.2461-0.81641 0.82812-1.6328 1.6562-2.4375 2.4102-2.4258 2.293-5.4492 5.1484-10.094 5.4609-0.58984 1.4883-1.1875 2.9531-1.7656 4.4297-2.4102 5.9414-4.6914 11.555-5.9297 17.316-1.2969 6.0586-1.7266 12.348-2.1719 19.031-0.15625 2.3281-0.3125 4.6797-0.50391 6.9961 2.3398 3.6367 4.7031 7.2461 7.1172 10.922l0.97266-1.1523c1.4023-1.6914 3.6133-2.4609 5.7734-2.0273 2.1602 0.43359 3.8984 2.0156 4.5469 4.1172l1.5586 4.9336c1.2734 4.0547 2.5195 7.9805 3.6016 11.941 0.42188 1.5586 0.875 2.0391 1.9219 2.5781 3.1094 1.5977 6.1328 3.3125 9.1562 5.0391 2.6523 1.5234 5.293 3.0352 8.0039 4.4531 4.6328 2.4375 6.4688 6.2266 5.6289 11.578-1.7148 10.668-5.3633 18.77-11.531 25.547-4.3672 4.8008-7.8711 10.883-11.34 19.703-3.0352 7.7266-14.148 11.688-20.699 9.7695-3.9258-1.1758-7.8594-2.4102-11.785-3.6602-8.2695-2.6055-16.812-5.3047-25.246-7.1758-11.316-2.4961-23.051-4.3906-34.402-6.2383-4.8828-0.79297-9.7695-1.5977-14.652-2.4258l-3.3125-0.49219c-2.4492-0.32422-4.8711-0.68359-7.2461-1.2969-5.1016-1.3438-11.051-0.14453-17.293 1.3672-2.4375 0.58984-4.8711 1.1758-7.332 1.5977-7.6797 1.332-15.289 3.0703-22.848 4.9062-0.875 0.22656-2.1016 0.94922-3.1797 1.9062-1.2227 1.0938-2.4844 2.1719-3.7422 3.2383-2.6172 2.2188-5.0391 4.2461-6.875 6.3828l10.246 2.3633c2.9141 0.67188 4.8945 3.3945 4.6328 6.3828-0.99609 11.039-7.4297 17.375-13.391 22.453-2.4961 2.1367-4.9336 4.3438-7.3672 6.5508-2.9297 2.6641-5.8555 5.3164-8.8906 7.8477-2.6758 2.2422-7.0781 3.625-10.211 3.2148-3.9961-0.58984-7.9219-1.4883-11.977-2.4375l-4.5859-1.043c-2.7461-0.61328-4.7148-3.0469-4.7148-5.8555 0-1.1406-0.058594-2.2812-0.10938-3.4062-0.14453-3.1562-0.27734-6.4062 0.45703-9.8047 0.070313-0.34766 0.16797-0.70703 0.26562-1.043-0.9375-0.27734-1.9219-0.64844-2.9414-1.1055-1.957-0.86328-4.0312-1.3906-6.1562-1.957l-3.3242-0.92578c-2.8203-0.83984-4.6211-3.6133-4.2461-6.5391l0.38281-2.9531c-4.1289 1.7773-8.1484 3.5273-12.121 5.3281-0.023438 0.085938-0.046875 0.16797-0.070312 0.25391-0.58984 1.9336-0.94922 3.3359-1.0078 4.5703-0.34766 6.2031-3.8164 10.414-9.5039 11.629-0.15625 0.17969-0.46875 1.4648-0.68359 2.3164-0.49219 1.9062-0.67188 2.832-0.83984 3.7578-0.39453 2.0391-0.83984 4.3438-1.8125 6.6367-1.1992 2.832-4.043 6.2031-7.7266 7.3672 0.12109 1.4414 0.097656 2.6172 0.046875 3.7812-0.023438 0.67188-0.070313 1.332 0 2.0039 0.74219 8.1484-0.68359 16.246-4.3555 24.793-0.38281 0.91016-0.46875 1.5-0.46875 1.7539 0.035156-0.17969 0.74219 0.035156 1.9453 0.058594 0.78125 0.011718 1.5234 0.070312 2.5312 0.16797l1.4531 0.14453c2.3867 0.20312 4.4297 1.7891 5.1953 4.0547 0.75781 2.2695 0.10938 4.7773-1.6797 6.3828-1.3672 1.2344-2.7344 2.375-4.0547 3.4922-2.6406 2.2188-4.9062 4.1289-6.6367 6.2539-4.7539 5.8789-11.027 8.1836-19.066 7.2344-4.9219-0.58984-8.6406 0.57422-11.82 4.0195-0.70703 0.74219-1.4297 1.5352-1.5703 1.8242 0.30078 1.9922-0.23828 4.1992-1.5859 6.6367-2.3281 4.2461-4.7031 8.543-7.3086 12.684-1.8242 2.9023-5.1367 4.0547-6.9492 4.4883-3.1328 0.75781-6.3359 1.2969-9.5391 1.8008-3.9727 0.625-7.9336 1.1992-12.109 1.8008l-0.50391 0.070313v7.2617c0 3.3125-2.6875 6-6 6-1.2461 0-2.4609-0.058594-3.6484-0.10938-1.9062-0.097657-3.793-0.13281-4.957 0.085937 2.7969 4.0547 3.6016 9.0586 2.4102 15 7.332 3.1094 10.223 9.9609 11.773 15.254 0.88672 3.0234 2.1836 5.9297 3.4453 8.8203l1.8242 4.2852c1.0781 2.6289 0.15625 5.6523-2.1953 7.2344-2.8203 1.9062-5.8203 3.7305-9.0234 4.8125-0.070312 1.4297-0.66016 2.8203-1.7383 3.9102-2.6406 2.6523-6.0859 5.6055-10.465 6.7305 0.23828 1.9062 0.16797 3.7188 0.097656 5.3398l-0.058594 2.1602c0 2.8789-2.0508 5.3516-4.8711 5.8906-2.4727 0.5-4.875 0.80078-7.1758 0.80078zm-11.703-17.953c1.9219 0 3.793 0.92578 4.9453 2.6055 1.6797 2.4609 3.5742 3.2773 6.9375 3.3477-0.011718-0.35938-0.046874-0.69531-0.097656-0.99609-0.17969-0.92578-0.68359-2.1367-1.2109-3.3945l-0.91016-2.2695c-0.81641-2.2305-0.25391-4.7266 1.4414-6.3828 1.6914-1.668 4.2227-2.1719 6.4062-1.2617 0.50391 0.20312 0.94922 0.33594 1.3438 0.44531-1.8828-1.8828-3.5391-4.5117-3.9727-8.3633-0.28906-2.6406 1.1758-5.1484 3.6133-6.1914 2.4102-1.0547 5.2578-0.35938 6.9727 1.6914 2.4727 2.9648 4.0195 2.9648 4.6094 2.9648 1.1523 0 2.5195-0.49219 3.9609-1.2227-1.3672-3.1328-2.6992-6.2891-3.6719-9.5625-1.8711-6.3711-4.0195-7.8008-7.3203-8.2188-1.6562-0.20312-3.5391-1.4883-4.5117-2.8203-1.1875-1.6211-1.9805-4.3555-1.2852-6.2383 2.8555-7.7891 1.3555-10.141-3.0977-12.434-2.0039-1.043-3.2539-3.1211-3.2539-5.375 0.023437-2.2578 1.2969-4.3203 3.3242-5.3281 1.1289-0.55078 2.1484-1.1289 3.0977-1.6562 2.4492-1.3438 4.7539-2.6289 7.5859-3.2656 1.6094-0.33594 3.3477-0.64844 5.375-0.48047v-6.2656c0-2.9766 2.1836-5.5078 5.125-5.9414l5.6641-0.81641c4.1289-0.60156 8.0391-1.1641 11.965-1.7773 2.8789-0.45703 5.7617-0.92578 8.6055-1.6211 0.046875-0.011719 0.085937-0.011719 0.097656-0.011719 2.2812-3.6836 4.3789-7.4766 6.457-11.27-0.42187-5.1602 2.6641-8.4727 4.7031-10.668 5.9766-6.4219 13.297-9 22.211-7.9336 3.6367 0.43359 6.168-0.20312 8.3164-2.8672 1.043-1.2852 2.1602-2.4609 3.3125-3.5742-1.1523-0.81641-2.1367-1.8359-2.9023-3.0234-1.332-2.0508-3.168-6.457-0.38281-12.887 2.8555-6.6602 3.9844-12.852 3.4219-18.938-0.10938-1.1758-0.085938-2.3633-0.035156-3.5625 0.023437-0.71875 0.085937-1.4297-0.011719-2.1367-0.85156-6.3125 2.125-10.801 8.3516-12.66 0.75781-1.7383 1.043-3.2383 1.3438-4.8242 0.23828-1.1875 0.46875-2.3633 0.76953-3.5273 0.98438-3.9727 2.5938-10.477 10.078-12.023 0.10938-3.0586 0.74219-5.4844 1.4297-7.7266 0.625-2.1484 1.6328-5.5781 5.0039-7.1523 5.9648-2.7461 11.988-5.3281 18.312-8.0508l5.3281-2.293c1.957-0.85156 4.2461-0.60156 5.9883 0.71875 1.7266 1.2852 2.6172 3.4062 2.3398 5.5547l-1.0664 8.2578c2.0742 0.57422 4.0938 1.2109 6.0117 2.0625 1.4297 0.63672 2.1602 0.74219 2.4258 0.74219 0.035157-0.070313 0.26562-0.33594 0.5625-0.91016 0.89844-1.7656 3.2539-3.1328 5.2305-3.3594l1.2109-0.17969c2.2422-0.40625 4.4023 0.50391 5.7617 2.2695 1.3438 1.7656 1.6094 4.1406 0.68359 6.1562l-0.73047 1.6445c-0.57422 1.3203-1.0547 2.3867-1.6562 3.3594-0.625 1.0312-1.3672 2.0508-2.125 3.0586-0.73047 0.97266-1.7148 2.2812-1.8242 2.8555-0.35937 1.6797-0.32422 3.707-0.23828 5.8672l0.16797 0.035156c3.7188 0.86328 7.3086 1.7148 10.957 2.2422-0.070312-0.046875 0.53906-0.30078 0.81641-0.53906 2.9023-2.4258 5.7109-4.9805 8.5195-7.5234 2.5195-2.293 5.0508-4.5977 7.6562-6.8047 3.8164-3.2539 6.4922-6.0234 7.9688-9.3594l-12.023-2.7617c-1.5859-0.35938-2.9414-1.3555-3.7812-2.7461-0.83984-1.3906-1.0781-3.0586-0.67188-4.6328 2.1484-8.1484 8.3984-13.441 13.922-18.121 1.1875-0.98438 2.3516-1.9805 3.5039-3.0117 1.8359-1.6445 4.7539-3.7422 8.3398-4.6328 6.3945-1.5586 14.855-3.5391 23.629-5.0625 2.207-0.38281 4.4023-0.92578 6.6016-1.4531 7.3086-1.7539 15.648-3.2656 23.148-1.2969 1.8828 0.49219 3.8398 0.74219 5.8086 1.0078 1.2461 0.17969 2.4961 0.33594 3.7305 0.55078 4.8477 0.83984 9.707 1.6328 14.555 2.4102 11.508 1.8594 23.41 3.793 35.051 6.3594 8.9648 1.9805 17.773 4.7539 26.281 7.4531 3.8633 1.2227 7.7266 2.4375 11.605 3.5898 2.9297 0.35938 5.5938-1.7031 6.1328-2.7109 2.6992-6.8398 6.6953-15.719 13.609-23.328 4.4297-4.8594 7.1289-10.848 8.4727-18.805-2.6992-1.4531-5.1719-2.8555-7.6328-4.2617-2.8789-1.6445-5.7617-3.2773-8.7109-4.8008-4.1758-2.1484-6.7188-5.3516-8.0039-10.105-0.5625-2.0508-1.1641-4.1055-1.7891-6.1562-1.1406 0.86328-2.543 1.3789-4.0195 1.2344-1.8945-0.10938-3.625-1.1172-4.668-2.6992l-2.4609-3.7422c-3.2266-4.9062-6.3242-9.6484-9.3945-14.398-0.89844-1.3906-1.9336-3.6016-1.7031-6.1445 0.23828-2.5664 0.40625-5.1719 0.58984-7.7656 0.44531-6.793 0.92578-13.824 2.3984-20.746 1.4648-6.7695 4.043-13.129 6.5273-19.285 0.80469-1.9922 1.6211-3.9844 2.375-5.9766 1.0938-2.8906 4.6094-6.0352 8.3633-6.0352l1.332 0.10938c0.33594 0 1.4766-1.0664 2.2305-1.7773 1.1758-1.0938 1.8477-1.7891 2.5312-2.4961 2.8203-2.8906 6.0352-6.168 10.488-7.4141 4.7539-1.3203 5.0508-2.5078 5.2305-4.8477 0.13281-1.6914 1.3438-3.6484 2.6875-4.6914 1.7891-1.3906 4.6211-2.0039 6.6367-1.043l4.2344 1.8945c3.4922 1.5234 6.9961 3.0703 10.297 4.9922 7.2461 4.2344 12.023 4.6094 17.41 1.2344 1.5586-0.97266 3.1211-1.4141 4.3672-1.7891 0.45703-0.13281 0.92578-0.22656 1.3203-0.43359 0.79297-0.75781 1.9453-1.7148 3.1211-2.6758 3.1094-2.5547 6.3008-5.1953 7.2734-7.6797 2.8672-7.3555 6.8281-11.555 13.691-14.508 7.1523-3.0703 12.59-1.6328 16.895 3.7695l17.438-7.957c1.6562-0.71875 3.4922-0.61328 5.0156 0.14453l13.031-9.7305c-1.5469-2.125-3.0586-4.1523-4.7148-6.0469-4.9922 0.74219-10.297 1.5-15.18 2.4961-5.9883 1.2227-10.57-0.625-13.754-5.0625-0.94922-1.332-2.7617-3.5391-4.2617-3.5391-0.75781 0-1.8242 0.43359-3.0117 1.2227-1.8711 1.2461-3.8281 1.3203-4.8828 1.3672-1.2734 0.19141-2.2578 0.27734-3.1562 0.27734-3.707 0-8.7227-1.5117-11.605-8.7617-1.3672-3.4805-3-6.8516-4.6211-10.223-1.957-4.0781-3.8984-8.1602-5.4844-12.371-1.2344-3.2383-1.8711-2.3984-3.3008-2.1953-7.8359 1.0664-14.879-0.97266-20.148-6.2891-1.2109-1.2344-1.8359-2.9297-1.7148-4.6562 0.12109-1.7266 0.99609-3.3125 2.3867-4.3555l11.699-8.7852c-1.043-1.9688-2.0273-3.8633-2.9883-5.7734-0.38281-0.74219-0.45703-0.80469-1.2852-0.91016-1.7539-0.23828-3.4922-0.61328-5.2578-0.98438-4.5586-0.98438-8.4961-1.5859-11.988 0.26562-1.8594 0.98438-4.1172 0.9375-5.9023-0.16797-1.8008-1.0781-2.9023-3.0352-2.9023-5.1367v-35.844c-0.60156-0.035156-1.1875-0.070312-1.7656-0.070312l-1.2852 0.023437c-3.2148 0-5.7227-1.0312-7.4531-3.0586-1.1992-1.4023-2.4727-3.8984-1.8477-7.8477 1.332-8.3516-1.0664-15.938-7.3555-23.184-0.20312-0.22656-1.043-1.4141-1.2109-1.6797-5.0508-6.4336-10.379-14.867-9.2031-25.957-4.3203-1.4648-8.3867-2.9414-12.312-4.668-3.2148-1.4023-5.9141-3.8516-7.2344-6.5508-1.7539-3.5742-3.3594-7.2344-4.9805-10.871-2.5547-5.7852-4.9688-11.258-7.8945-16.477-8.2578-14.711-9.6367-28.094-4.3203-42.121 2.8555-7.5703 3.5156-14.328 1.9805-20.664-2.3398-9.707-1.1875-18.961 3.4336-27.48-0.12109-0.13281-0.30078-0.33594-0.55078-0.60156l-3.3359-3.5039c-5.6875-5.9766-11.363-11.953-16.812-18.133-4.8594-5.5078-8.7969-9.9961-14.746-10.98-0.61328-0.10938-1.1641-0.27734-1.6562-0.48047-0.37109 0.12109-0.71875 0.21484-1.0664 0.27734l-24.742 4.9805c5.6406 4.4023 6.2539 9.1211 2.3281 16.262-0.79297 1.4414-2.1484 2.4961-3.7305 2.9141-1.5859 0.42188-3.2773 0.17969-4.6914-0.69531l-4.2734-2.6406-13.645 20.027c-1.0547 1.5469-2.7617 2.5078-4.6445 2.6172-1.8594 0.16797-3.6836-0.68359-4.8828-2.1133l-0.34766-0.40625-0.81641 0.67188c-5.3984 4.3789-10.727 8.6992-15.949 13.105 0.89844 8.125-1.5469 15.742-7.4766 23.258-1.4531 1.8477-2.4844 3.1445-2.9023 4.1875-3.2891 8.1602-10.055 12.684-20.074 13.441-0.15625 0.011718-1.1992 0.046874-1.3438 0.046874-1.6914 0-3.3594-0.23828-4.7773-0.46875l-1.2109-0.16797c-2.9141-0.28906-5.1953-2.6523-5.3867-5.5781-0.097656-1.4531-0.070312-2.8438-0.035156-4.1406 0.023437-0.88672 0.058594-2.0898-0.023437-2.4844-2.3633-3.4062-5.5078-7.1406-8.8203-11.09l-1.4766-1.7656c-1.3906 0.48047-2.7969 0.97266-4.2227 1.4883l16.633 33.371c0.92578 1.8594 0.82812 4.0664-0.26562 5.832s-3.0234 2.8438-5.1016 2.8438l-7.1523-0.058594c-1.4023 0-2.7734 0.023438-4.1289 0.10938-1.2617 2.3516-2.4258 4.7539-3.5898 7.1641-0.94922 1.9688-1.8945 3.9258-2.8906 5.8555 3.4805 4.8242 6.6836 9.4922 9.8867 14.195l3.9492 5.7344c1.043 1.5 1.332 3.3945 0.80469 5.1367-0.51563 1.7539-1.8008 3.1562-3.4922 3.8398-1.7891 0.71875-3.5391 1.0781-5.1953 1.0781-5.3281 0-8.3516-3.5156-10.211-5.7969-5.7461 2.4375-11.676 2.1719-17.41-0.73047-2.0039-1.0078-4.2227-1.8242-6.5742-2.6289 0.14453 1.1289 0.88672 2.4102 3.2891 4.4297 3.0117 2.5312 5.9023 5.2188 8.7852 7.8945l3.6367 3.3594c1.3672 1.2461 2.0898 3.0586 1.9336 4.9062l-0.097656 1.2461c-0.23828 3.0469-2.7344 5.5195-5.7852 5.6289-0.50391 0.011718-1.0547 0.12109-1.6094 0.20312-3.4062 0.50391-6.4219 0.34766-8.6523-1.1055-5.4961-3.5742-11.52-4.9336-18.348-4.2461-1.5977 0.16797-3.1914 0.13281-4.7773 0.011719-2.4609-0.14453-6.0234-0.66016-8.4102-3.5391-2.3633-2.8672-2.2305-6.4062-1.9219-8.832l0.625-4.4766c0.43359-3.0352 0.875-6.0586 1.1055-9.1094-4.5859-3.1211-9.625-7.1523-14.914-10.691-6.0703-4.0664-7.1641-9.793-7.7031-14.832-0.25391-2.375 0.92578-4.6914 3.0117-5.8672 2.0625-1.1758 4.668-1.0078 6.5742 0.44531l2.7852 2.0039c2.2305 1.5703 4.2617 3.0469 6.0117 4.8008 5.1484 5.1367 11.051 7.2109 21.059 7.4141l1.332 0.011719c10.477 0 17.566-2.5078 23.711-8.3984 0.43359-0.42188 0.89844-0.81641 1.3906-1.2227 1.9062-4.8477 3.2539-9.9844 4.6211-15.098l0.30078-1.1641c-2.8203-1.5859-5.5195-3.1211-8.0742-4.8711-1.9688-1.3438-4.1055-2.4727-6.2383-3.6016-5.5078-2.9297-11.723-6.2383-15.805-12.875-8.4609 3.7695-16.078 3.2148-23.074-0.96094-0.19141-0.097657-0.92578-0.30078-1.4141-0.43359-0.070312-0.011719-1.2109-0.34766-1.2734-0.35938-0.78125-0.23828-1.5352-0.51562-2.2812-0.79297-1.3438-0.50391-2.2188-0.81641-2.9648-0.81641-0.37109 0.070312-2.4727 0.27734-2.8555 0.27734-3.2891 0-6.3008-1.4766-8.2578-4.043-2.1133-2.7617-2.8086-6.4688-1.9453-10.223-0.12109 0.046876-0.23828 0.097657-0.33594 0.14453-1.9453 0.82812-3.6953 2.0898-5.3984 3.2891-0.9375 0.64844-1.8477 1.2852-2.7734 1.8711-1.8242 1.1758-4.1406 1.2617-6.0234 0.25391l-8.6055-4.5117c-2.6758-1.4141-3.875-4.5977-2.8086-7.4297l1.1172-2.8906c0.68359-1.7773 1.3555-3.5273 1.9922-5.3047-1.0195-0.35938-2.7344-0.51563-3.8164-0.17969-0.58984 0.17969-2.1133 0.39453-2.7227 0.39453-1.332 0-5.8555-0.28906-7.8125-4.043-0.40625-0.80469-0.52734-1.0195-1.9688-1.0195-0.17969 0.011719-2.3984 0.10938-2.5781 0.10938l-0.96094-0.011718c-1.1641 1.7891-3.1445 3.0977-5.207 3.1328-0.15625 0.27734-0.3125 0.57422-0.44531 0.82812-0.45703 0.875-0.92578 1.7539-1.4531 2.5312-1.1406 1.6797-2.6289 2.7461-5.0625 2.6406-2.0273-0.035156-3.8984-1.0781-4.9805-2.7969-0.74219-1.1758-1.3086-1.9922-1.7539-2.543-0.42188 0.53906-1.1055 1.3789-2.0156 2.6289-3.457 4.7656-7.3203 9.5625-13.152 12.422 0.37109 1.6562 0.035157 3.3945-0.9375 4.7891-0.99609 1.4141-2.5547 2.3281-4.2734 2.5078-1.8828 0.20313-4.7031 0.023438-5.6172 0.27734-1.9805 1.3438-4.4297 2.125-6.8398 2.125-4.2109 0-7.2227-2.2188-9.5156-4.2734l-11.09 7.1992c-3.7812 2.4609-7.5977 4.9062-11.352 7.4141 0 0-0.011719 0-0.011719 0.011719-2.0508 7.6211-8.0273 11.41-12.469 14.23-2.8906 1.8477-4.4141 4.3555-5.0898 8.3867-0.35938 2.1836-1.4883 4.3086-3.4219 6.5039-3.8516 4.3672-7.7891 8.6875-11.762 12.949 3.4453 6.9961 1.6797 12.898-5.1602 17.699-2.5781 1.8125-5.0391 3.7812-7.5 5.7617l-3.9609 3.1328c-1.0664 0.81641-2.1602 1.5977-3.2891 2.293l-3.4453 2.0898c-3.8281 2.3281-7.6562 4.6562-11.543 6.8516-2.375 1.3555-4.0938 3.2031-5.3047 5.8555l4.3555 1.6328c2.1602 0.80469 3.6602 2.7617 3.875 5.0391 0.21484 2.2812-0.88672 4.5-2.8438 5.6992-0.63672 0.38281-1.1641 0.75781-1.6328 1.0938-1.3438 0.96094-2.8672 2.0273-5.0273 2.4102-5.3867 0.96094-10.836 1.7656-16.297 2.3164-2.6758-0.035156-4.2852-0.32422-5.4844-0.64844-0.43359-0.10938-0.86328-0.23828-1.3086-0.30078l-5.1484-0.74219c-1.0078 7.9805-5.0039 12.371-13.164 14.844-4.7383 1.4414-8.9648 3.9609-13.332 8.0273l0.32422 0.60156c1.0312 1.8828 0.97266 4.1758-0.14453 6.0117s-2.9883 2.9297-5.2812 2.8672c-0.23828 0.21484-1.4766 1.7383-1.5859 2.4961 0.68359 2.1953 2.0742 4.8945 3.2891 7.2852 0.53906 1.0547 1.043 2.0391 1.4531 2.9141 0.64844 1.4023 0.73047 3.0117 0.22656 4.4766l-2.6602 7.5938c-0.74219 2.6406-1.3555 4.8008-2.9414 6.6953-1.6797 2.0039-3.4922 3.875-5.3633 5.7734l3.7422 5.0625c1.8828 2.543 1.4766 6.1211-0.94922 8.1602-1.2461 1.1172-2.6758 5.8438-2.2305 7.4297 2.6523 2.6523 6.3359 5.4492 9.8867 7.1055 5.4258 2.5078 12.758 1.2461 20.555-0.5625 0.10938-0.011719 0.17969 0 0.25391 0 1.6445-7.3906 7.5234-10.152 11.461-12.012 2.5195-1.2109 6.6016-0.96094 8.3281 1.2969l1.5469 2.0039 6.8281-4.2852c1.7031-1.0664 3.8047-1.2109 5.6406-0.39453 1.8242 0.81641 3.1328 2.4961 3.4688 4.4766 0.16797 0.96094 0.34766 1.8359 0.53906 2.6523 0.44531 2.0391 0.89844 4.1523 0.78125 6.5039-0.48047 8.9766-1.1172 17.941-1.9805 26.867-0.57422 5.832 0.43359 8.6055 3.9609 10.992 5.9141 3.9961 7.2617 11.004 3.3594 17.438-1.1289 1.8359-1.7656 4.3906-2.2188 6.4219-0.37109 1.7148 0.26562 2.8438 2.8555 6.1094 0.085937 0.10937 0.16797 0.21484 0.25391 0.3125l21.637-12.84c2.4844-1.4766 5.7461-0.96094 7.6445 1.2969l1.2461 1.4648c1.9062-1.2344 3.7422-2.4609 5.4492-3.8516 0.10937-0.13281 0.44531-0.80469 0.51562-1.2852 0.37109-2.7969 0.58984-5.6406 0.80469-8.4844 0.26562-3.3711 0.53906-6.7422 1.0195-10.094 0.81641-5.5664 1.8711-11.102 2.8789-16.391l1.2109-6.4805c0.34766-1.9219 1.6211-3.5508 3.3945-4.3789l6.8398-3.168-6.3359-8.1953c-1.2109-1.5469-1.5703-3.6016-0.97266-5.4844 0.60156-1.8711 2.0742-3.3359 3.9492-3.9258 5.4102-1.6562 11.102-0.74219 15.684 0.9375-0.070313-4.2109-0.085938-8.2578 0.30078-12.406 0.33594-3.5156-0.61328-5.5781-3.7422-8.1484-5.3047-4.332-10.488-11.965-5.0898-23.664l3.5508-7.6914c2.7344-5.9414 5.4727-11.879 8.2578-17.797 1.0664-2.2188 2.6875-3.8164 3.7578-4.8828 0.86328-0.85156 1.7773-1.6562 2.6992-2.4609 1.1289-0.99609 2.2695-1.9688 3.2266-3.1094 1.3672-1.6562 2.6172-3.4062 3.8633-5.1602 1.2969-1.8125 2.6055-3.625 3.9961-5.3398 1.7891-2.2422 4.6797-3.8984 7.5117-4.2852 1.2852-0.39453 3.9609-3.4922 4.1289-4.9219-2.7734-8.2422-2.2578-17.508 1.668-27.672 0.79297-2.0273 2.6289-3.4805 4.7773-3.7812 3.3828-0.46875 3.3828-0.46875 8.207-4.3789 2.3398-1.9219 5.6406-2.9766 9.2773-2.9766 6.0859 0 13.211 2.9531 14.473 9.4453 0.75781 3.9492 2.9766 7.2109 6.0234 11.387 1.6445 2.2695 2.8438 6.1094 1.8945 9.6016-3.2891 12.254-9.9844 29.258-30 35.941-1.1758 6.5742-4.4531 11.746-8.2305 16.453 2.7344 2.3047 4.9336 5.4609 4.8828 10.031 3.6602 4.5977 4.2461 9.4688 2.0508 14.293-0.15625 0.34766-0.3125 1.1055-0.46875 1.8242-0.26562 1.2227-0.60156 2.7344-1.2969 4.2734-1.3438 3.0234-0.66016 6.1562 0.60156 11.016l0.011719 0.085937 3.1328 1.2617c3.7188 1.5234 7.2109 2.9766 10.57 3.4453 4.6797 0.66016 7.7773 2.5078 9.8867 4.8242 4.332-5.2812 9.8398-9.5391 17.941-10.691 4.8594-4.7539 9.5156-5.6406 13.789-3.9844 3.1562-3.707 8.8906-6.793 16.043-4.5586 2.7969 0.875 6.4453 2.6875 7.7891 6.2773 0.25391 0.71875 0.26562 0.74219 1.2109 0.97266 1.2852 0.32422 2.543 0.78125 3.793 1.2617 0.76953 0.28906 1.5469 0.60156 2.3281 0.80469 3.6836 0.97266 5.3164 3.0859 6.0469 4.6914 1.6562 3.625-0.058594 7.0938-0.70703 8.3867-0.9375 1.8945-2.7852 3.1562-4.8828 3.3242-2.1367 0.085937-4.1523-0.76953-5.3633-2.4961-2.6523 0.80469-5.207 1.7656-7.7539 2.7344-2.3633 0.88672-4.7266 1.7773-7.0312 2.7969-3.625 8.5703-9.6719 10.285-14.102 10.285-0.71875 0-1.4648-0.035156-2.2578-0.13281l-3.1211-0.33594c-3.8984-0.42188-7.8125-0.83984-11.664-1.5977-2.2422-0.44531-3.8281-1.6914-5.1133 0.9375-0.80469 1.668-2.0156 2.5938-2.6641 3.0859l-1.3672 1.2227c-0.43359 0.38281-1.1055 0.96094-1.2461 1.1992-0.80469 1.2109-1.7266 2.5781 1.0078 6.0469 1.0312 1.3203 1.8594 2.8086 2.6875 4.3086 0.44531 0.82812 0.86328 1.6562 1.4141 2.4102 3.1562 4.3555 3.2773 9.0703 0.37109 13.645-0.82812 1.2969-1.3906 2.7617-2.0156 4.2969l-1.1875 2.7852c-1.0664 2.3867-3.5156 3.7812-6.1445 3.5039-2.4961-0.27734-4.5469-2.0898-5.1602-4.5117-0.22656 0.035157-0.76953 0-1.5703 0.011719h-0.011718c-4.5977 0-7.5859-2.7344-9.0469-5.0742-0.33594-0.52734-0.66016-1.0547-0.97266-1.5977-1.8242 2.8438-3.5898 5.6289-5.2812 8.4375l-1.1523 1.8594c-1.5586 2.5078-3.0352 4.8711-3.6602 7.0938-3.6953 13.32-7.0195 26.746-10.355 40.188l-0.80469 3.2656c-1.3203 5.2578-4.4883 8.4375-9.4336 9.4688-3.0703 0.63672-6.1094 1.5117-9.1211 2.4258-1.1289 4.4414-4.9805 6.3359-6.6602 7.1523-2.3867 1.3789-6.3477 1.4414-8.2578-0.57422-2.9531-3.0859-5.1484-5.375-5.8672-5.7852-0.26562 0.10938-0.86328 0.19141-1.6094 0.26562-1.0547 0.12109-2.4844 0.70703-3.8633 1.2969-1.1523 0.49219-2.2422 1.0664-3.3125 1.6445-3.7188 1.9688-8.5781 4.4531-14.531 3.7578-1.2852-0.15625-2.3398-0.28906-3.3359-0.28906-4.5859 3.5508-9.7188 3.6953-13.836 3.8164-2.7461 0.085938-4.1172 0.50391-4.8242 0.82813-1.5586 0.73047-3.0234 1.0938-4.4531 1.0938-5.6406 0-7.5586-5.0273-8.2695-6.9258-0.023438-0.046875-0.046875-0.10938-0.058594-0.15625-1.9453 0.75781-4.2109 0.46875-5.9297-0.89844l-0.33594-0.27734-1.2461 0.64844c-2.4844 1.2734-5.4961 0.69531-7.3086-1.4141l-1.4766-1.7266c-3.8984 3.625-8.5938 5.4844-12.949 6.8164-1.4883 0.45703-3.0586 0.32422-4.4414-0.37109l-3.2773-1.6562c-1.8594-0.96094-3.1094-2.8203-3.2539-4.9062l-0.011718-0.14453-7.3086-3c-2.4961-1.0195-4.0078-3.5742-3.6836-6.2539 0.070312-0.64844 0.22656-1.3789 0.39453-2.1484 0.12109-0.49219 0.27734-1.2344 0.27734-1.5117-2.1016-6.8633 0.55078-12.84 3.0977-17.23 0.75781-1.2969 1.5977-2.5547 2.4258-3.7812l0.94922-1.4414c0.9375-1.4414 2.4492-2.4102 4.1523-2.6641 0.3125-0.035157 0.69531 0 0.94922-0.058594-1.3789-1.5352-1.9062-3.7188-1.1523-5.8086 1.9922-5.4102 1.8125-11.125-0.55078-18.504-1.0078-3.1211 0.68359-6.4688 3.7695-7.5117l1.3672-0.46875v-0.91016c-3.7578 3.1094-7.5859 3.1328-10.176 3.1562-0.011718 0-1.7031 0.023438-1.7148 0.023438-1.0195 0-2.0508-0.058594-3.0859-0.12109-1.4883-0.097656-3.2031-0.16797-3.9258 0.058594-2.7617 0.83984-5.1484 2.1484-6.2148 3.4219-1.3789 1.668-2.1602 5.375-2.5781 7.3672-0.48047 2.3516-0.53906 5.0039-0.60156 7.8242l-0.046874 2.2578 0.60156 1.8242c0.40625 1.6914 0.058594 3.4805-0.96094 4.8945-1.0195 1.4141-2.6055 2.3164-4.332 2.4844l-0.61328 0.046875c0.13281 2.3516 0.55078 4.3086 1.6328 6.2031 4.0078 6.9844 4.4023 14.711 1.2461 21.684 2.293 1.5469 3.7422 4.043 4.1289 7.2734l0.15625 1.2109c0.25391 1.9453 0.58984 4.3438 0.097657 6.8867-2.0039 10.199-12.961 15.516-21.348 10.031-1.2227-0.78125-2.5195-1.4414-3.8984-2.1016l-2.4492 5.4961c-1.2227 2.7344-4.2461 4.1641-7.1172 3.3477l-10.246-2.9023c-2.9297 5.0898-7.5234 6-10.43 6-0.98438 0-2.0625-0.097657-3.2383-0.32422-2.9141-0.058594-5.3047 1.6914-8.4492 4.6211-1.5977 1.4766-2.9023 2.5078-4.4648 3.7188l-0.16797 0.13281c0 0.52734 0.023437 1.0547 0.035156 1.6094 0.097657 4.6914 0.25391 11.773-5.8203 17.473-2.1484 2.0273-5.4492 2.1719-7.7383 0.39453-1.5117 0.40625-3 0.82812-4.5 1.2461-5.3281 1.5-10.824 3.0586-16.57 3.8164-4.4414 0.57422-7.1055 1.8828-8.9141 4.3789-3.1328 4.3203-7.2109 6.8164-12.816 7.8125l-1.5859 0.25391c-1.0078 0.15625-2.7109 0.42188-3.1914 0.70703-5.7227 4.2461-12.863 4.9219-18.551 1.7031-2.5312-1.4297-4.5469-2.3398-6.3477-2.8555-1.9219-0.53906-7.7148-2.1836-9.7188-9.0117-4.5977-2.0156-9.2031-2.5195-14.258-1.5117l1.8359 1.2969c1.5234 1.0664 2.4492 2.7734 2.5312 4.6328 0.085938 1.8594-0.69531 3.6484-2.1133 4.8477-4.8359 4.0938-9.5898 4.8594-15.059 2.2422-0.75781-0.35938-2.1719-0.55078-3.5273-0.74219l-2.3047-0.34766c-2.6172-0.097657-5.1133-0.16797-7.3906-1.8125-1.1055-0.79297-2.3164-1.1289-4.4141-1.1523-0.023437 0.96094-0.27734 1.8945-0.73047 2.7344l1.9453 8.3047c2.5312 1.043 7.2969 3.0586 8.6406 8.543 0.058594 0.085937 0.10938 0.15625 0.16797 0.23828 0.42188 0.64844 1.2617 0.94922 3.7578 1.5586 1.6328 0.39453 3.4688 0.85156 5.3398 1.7656 2.8672 1.3906 5.3633 3.8516 6.6719 6.5742 3.7578 7.9453-0.51562 14.809-2.3398 17.746-1.8008 2.8789-1.9805 5.7227-0.60156 9.1797l5.6055 13.598c1.0195 2.4609 0.28906 5.2812-1.7539 6.9609-14.184 11.496-12.898 14.52-11.773 17.184 1.1055 2.5938 0.25391 5.5938-2.0391 7.2344l-1.9688 1.3789c-6.7695 4.6914-8.3398 6.3594-6.9844 10.824 0.63672 2.0391 0.13281 4.2617-1.3203 5.832-1.4531 1.5703-3.5898 2.2695-5.7344 1.7656l-3.6836-0.78125c-2.8438-0.58984-5.4492-1.1406-7.9688-1.9336-1.5352-0.49219-3.2148-0.875-4.8828-1.2617-5.3516-1.2617-11.41-2.6875-15.266-7.1523-1.8125-2.1133-3.793-2.5195-7.4414-3.1094-2.4609-0.39453-5.2578-0.85156-8.0625-2.207-0.13281-0.070312-1.0078-0.51562-1.1406-0.60156-1.0195-0.57422-1.4023-0.66016-1.4414-0.66016-1.043 1.2617-2.1484 2.0273-3.7812 2.1602-1.5469 0.14453-2.832-0.44531-4.0664-1.5469l-1.7031-1.5586c-0.91016-0.83984-1.7539-1.6445-2.6641-2.3516-0.73047-0.57422-1.4531-1.2344-2.1719-1.8945-0.66016-0.60156-1.6328-1.5-2.0391-1.7148-7.2227-0.625-13.5-4.1055-18.613-10.5-1.4648-1.8359-2.3047-1.8359-2.9141-1.8359-0.89844 0-2.1484 0.26562-3.7695 0.82812-1.3906 0.46875-2.9297 1.6445-4.5352 2.8672-2.7969 2.1367-6.1914 4.7148-10.871 5.3633-1.0664 1.7383-0.79297 2.5195 0.94922 4.8594 3.3008 4.4414 3.4453 8.3164 2.9766 10.789-0.45703 2.4375-1.957 5.9023-6.457 8.7109l-0.13281 0.085937c1.332 4.8125 0.27734 9.3945-0.53906 13.02-0.25391 1.1406-0.52734 2.2812-0.70703 3.4219-1.1406 7.3438-6.3711 10.512-10.199 12.816-0.42188 0.25391-0.82812 0.50391-1.2344 0.74219 0.37109 2.4258-0.21484 5.4102-3.0234 8.7461-3.2031 3.8164-6.2656 7.9922-9.1211 12.395-0.69531 1.0664-1.2227 2.6992-1.4023 4.332-0.26562 2.3633-0.35938 4.7656-0.45703 7.1641-0.097657 2.543-0.20313 5.0742-0.46875 7.5977-0.22656 2.1836-0.66016 4.3203-1.0938 6.4805-0.38281 1.9219-0.78125 3.8398-0.96094 5.7852-0.17969 2.0391-0.13281 4.0938-0.097656 6.1562 0.046875 2.1602 0.085937 4.3203-0.058594 6.4688-0.20312 3.0117-1.2617 6.0859-2.9414 8.4375-2.543 3.5508-5.1836 7.0195-7.7539 10.379 3.6133 1.5234 7.2461 3.2383 10.43 5.8555 4.0547 3.3477 3.8633 2.2695 5.6992 1.1758 6.3945-3.875 14.641 0.83984 15.086 8.3398h2.2812c3.3125 0 6 2.6875 6 6l0.48047 3.8633c3.707 0.9375 7.1641 1.8125 10.559 2.9141 3.0586 0.99609 4.2109 1.5859 6.2031-0.12109 1.1523-0.96094 2.4102-1.7539 3.7695-2.6055l1.4648-0.91016c1.5117-1.0078 3.3477-1.2617 5.1016-0.70703 1.7148 0.53906 3.0977 1.8125 3.7578 3.4805l0.58984 1.4648c2.6875-0.085937 5.2578-0.10937 7.8125 0.28906 2.3164 0.34766 4.6094 1.0938 6.875 1.8477 0.98438 0.33594 1.9688 0.67188 2.9648 0.94922 0.92578-0.34766 1.5352-0.55078 2.125-0.69531l1.1641-0.35938c1.2852-0.44531 2.9023-0.98437 4.7148-0.98437 1.0195 0 2.9297 0.45703 3.8164 0.96094 1.1055 0.60156 2.1016 0.92578 2.8438 0.92578 0.43359 0 1.7539 0 4.2109-3.2539 1.4883-1.9688 3.1211-3.8164 4.7383-5.6641 1.2617-1.4141 2.7461-3.0859 5.1719-3.793 6.707-2.0742 13.488-4.1523 20.352-5.9883 1.4531-3.2383 4.1289-6.5508 7.7148-7.3203 3.8984-0.82812 6.1328-1.5 6.6484-2.0039 0.22656-0.37109 0.51562-1.8008 0.51562-6.3359l0.046875-1.6328c0.023438-0.57422 0.058594-1.2852 0.011719-1.5703-1.6094-8.6992 2.1836-14.965 11.258-18.602 4.5-1.8242 8.125-4.332 9.4062-6.5391 4.8477-8.3398 12.793-12.758 23.641-13.129 10.559-0.33594 18.312-5.8789 27.301-12.289l0.37109-0.26562c0.023437-0.13281 0.046874-0.22656 0.046874-0.23828l1.2461-7.1641c0.75781-4.4883 1.5352-8.9648 2.5078-13.402 1.5977-7.1875 10.754-14.23 18.492-14.23l2.0742-0.035156c1.7539 0 5.832 0 8.1133 3.4336-0.023437-0.023438 0.78125-0.011719 1.3789-0.011719l1.9219 0.070312c2.8672 0.21484 5.9023 0.55078 8.6641 2.1602 7.6562 4.4414 15.816 8.1016 24.961 11.184 0.73047-0.39453 1.4648-0.76953 2.2188-1.1641 2.9766-1.5 4.8477-2.5195 5.8906-4.2852 3.4922-5.8789 8.3281-8.4961 14.688-7.6562-0.011718-0.085938 0.38281-0.25391 0.97266-0.625 4.2852-2.5781 8.4961-2.8672 11.293-2.8672 1.6328 0 3.2773 0.12109 4.9219 0.25391 1.3203 0.10938 2.6641 0.22656 3.9727 0.22656l1.2109-0.046875c3.793-0.13281 6.4336 3.0469 7.4297 4.8594l1.2109 2.207c3.5391 6.3828 7.9336 14.328 3.7578 24.254l1.0781 0.85156c1.7656 1.2852 5.0625 3.6953 6.3594 7.6328 0.61328 0.058593 1.1875 0.14453 1.7383 0.25391 2.8438 0.60156 5.5938 2.2695 7.3203 4.5 2.2188 2.8086 3.625 5.4609 4.3086 8.1016 1.5 5.7227 5.3164 9.3359 13.176 12.457 3.5273 1.3906 5.7852 4.668 7.1875 6.9844 0.92578 1.5703 1.7148 3.2383 2.4727 4.8828 0.74219 1.6211 1.4648 3.2383 2.4727 4.668-0.023437-0.023438 0.58984 0.3125 1.1289 0.64844 1.4141 0.85156 3.3594 2.0391 4.7656 4.1055 0.52734 0.035156 2.293 0.25391 2.5547 0.25391 2.8555 0 6.707 1.1523 8.832 6.6602 1.2344 3.0703 2.9414 7.3086 2.0273 11.578 5.2305 2.6758 9.2539 7.5352 11.195 13.547 2.1602 6.6484 1.4883 13.68-1.8359 19.273-1.4883 2.5195-2.9297 5.0625-4.3789 7.6328 1.3906 0.85156 2.7734 1.7891 4.0781 2.9766 0.49219 0.45703 0.94922 0.91016 1.3906 1.3906l2.8203-6.1211c0.92578-2.0039 2.8672-3.3242 5.0742-3.4688l0.33594-0.023437c0.92578-2.3164 1.9062-4.7031 3.5742-6.875 0.30078-0.53906 0.32422-0.875 0.085937-2.1484-0.81641-4.0312-1.0547-8.5938-0.74219-13.906 0.17969-2.6992 1.0547-5.0156 1.8242-7.0664 0.25391-0.69531 0.52734-1.3789 0.74219-2.1016 0.66016-2.0742 2.3867-3.6367 4.5352-4.0664 1.6094-0.32422 3.1445-0.48047 4.5859-0.48047 4.7773 0 11.258 1.7266 15.574 9.6484 1.7656 0.035156 3.5742 0.046875 5.4102 0.046875l2.3633-0.011719c-0.011719-0.58984-0.058593-1.1172-0.15625-1.5469-1.3555-6.0469-1.9062-6.6719-3.7422-7.1172-3.793-0.89844-6.6016-4.3438-7.5859-7.1758-0.5625-1.6094-1.8945-2.4492-5.0273-4.1523-0.011718 0-1.0664-0.57422-1.0781-0.58984l-1.2461-0.60156c-1.1406-0.52734-2.543-1.1875-3.8984-2.2188l-1.5117-1.1523c-5.3281-4.0195-11.34-8.543-13.836-16.598-1.2227-1.1172-2.4961-2.1367-3.7695-3.1562-4.5117-3.625-9.5898-7.7031-12.098-14.531-0.058593-0.058594-0.10937-0.097657-0.13281-0.10938-11.039-9.1445-17.82-20.195-20.207-32.867-0.058594-0.28906-0.25391-0.97266-0.875-2.1133-1.1523-2.0742-2.3398-4.0938-3.6367-6.2656-6.2656-0.94922-8.2812-7.5469-9.1914-10.488-0.070313-0.25391-0.35938-1.6094-0.40625-1.8594-2.1133-5.6172-0.3125-10.453 4.8945-13.488 0.35938-0.21484 0.74219-0.43359 1.1055-0.67188-1.9805-1.7773-2.5664-4.7148-1.332-7.1523l2.1719-4.2852c0.78125-1.5586 2.2188-2.6992 3.9102-3.1094 1.7266-0.40625 3.4922-0.070312 4.9219 0.9375 0.40625 0.14453 1.5977-0.44531 2.3633-0.81641 1.8242-0.88672 4.1055-2.0039 6.9102-2.1484 1.5859-0.22656 3.2539 0.50391 4.4414 1.6328 1.1992 1.1406 1.8711 2.7227 1.8711 4.3555l-0.046875 2.1602c-0.023437 1.0312-0.085937 2.0039 0.035157 2.9531 0.25391 1.9805 0.55078 3.9375 0.86328 5.9023 0.12109 0.78125 0.25391 1.5859 0.35938 2.3633 1.5352-0.76953 3.3477-0.86328 4.9805-0.22656 2.6641 1.0781 5.6641 4.4883 5.125 7.2969l-1.1758 6.0117c0.79297 1.0664 1.7148 2.2422 2.6523 3.3945 0.52734 0.63672 1.2109 1.2461 1.8711 1.8828 2.2305 2.1016 4.9922 4.7031 5.5664 8.6172 0.60156 4.0312 2.5312 6.4219 7.668 9.4805 2.2305 1.3203 4.2617 2.9648 6.2891 4.6328 0.96094 0.78125 1.9219 1.5859 2.9297 2.3164 1.2227 0.91016 2.4258 1.7656 3.4805 2.2422 2.1602 0.96094 4.3203 1.8594 6.4922 2.7617 3.5156 1.4648 7.0195 2.9297 10.43 4.5859 2.7617 1.3438 6.2891 4.3203 7.2461 8.3164 0.17969 0.74219 0.39453 1.0664 3.5898 2.1719 6.8281 2.3516 10.105 4.957 10.453 13.523 0.046875 1.3555 0.40625 2.6875 0.73047 3.9961l0.50391 1.5469c0.5625 1.4023 1.4141 3.5273 1.1523 6.0352l-0.32422 3.0234c-0.58984 5.6055-1.1992 11.398-2.7734 17.09l-0.50391 1.7891c-1.9219 6.7422-2.1953 8.9766-0.19141 10.871 1.8828 1.7656 2.4102 4.5469 1.3203 6.8867-0.49219 1.0547-1.0781 2.0742-1.6445 3.0234-0.085937 0.13281-0.15625 0.25391-0.23828 0.38281 0.21484 0.75781 0.34766 1.5 0.48047 2.1602 0.046875 0.26562 0.12109 0.61328 0.17969 0.92578 4.957 0.46875 7.2969 4.5469 7.7539 5.3984 0.12109 0.22656 0.23828 0.44531 0.33594 0.67188l0.83984-0.38281c2.5781-1.1523 5.6523-0.35938 7.3203 1.957l2.1016 2.8672c5.3047 7.1172 9.2031 10.512 15.887 9.4922 5.7461-0.78125 8.8555 1.2461 10.488 2.9531 3.168 3.3359 3.3477 8.1016 3.1562 11.867-0.085938 1.7773-0.96094 3.4219-2.375 4.4883-1.4023 1.0547-3.2539 1.4531-4.957 1.0547l-4.4297-1.0312c-3.7422-0.86328-7.3906-1.7266-11.051-2.5078-0.5625-0.13281-0.94922-0.22656-1.2461-0.28906-0.16797 0.097656-0.32422 0.20312-0.50391 0.28906l6.3242 8.6289c1.8711 2.5547 1.4414 6.1328-0.99609 8.1602-0.3125 0.25391-0.64844 0.51562-0.98438 0.74219 0.16797 0.3125 0.3125 0.625 0.46875 0.9375 0.39453 0.80469 1.0078 2.0273 1.3203 2.3398 1.8711 1.4531 4.2734 2.6875 6.8281 3.9844 0.30078 0.16797 0.625 0.3125 0.92578 0.48047l1.9062-0.97266c0.90625-0.35937 1.8555-0.5625 2.7891-0.5625zm-137.57-183.73c2.0273 0 3.9258 1.0938 5.0273 2.9766l1.8359 3.1211c1.3555 2.2812 2.6172 4.4023 3.793 6.5742 1.1172 1.9805 1.8242 3.8516 2.1836 5.6875 1.8711 10.02 7.1172 18.457 16.02 25.824 0.85156 0.53906 2.8203 1.8359 3.5273 4.4297 1.1758 4.1758 4.6211 6.9258 8.6055 10.141 1.7539 1.4023 3.5039 2.8086 5.1133 4.3555 0.53906 0.50391 1.9219 1.8359 2.4375 3.9492 1.1758 4.7383 5.1602 7.7383 9.7695 11.207l1.5859 1.1992c0.3125 0.25391 0.99609 0.5625 1.6562 0.86328 0.68359 0.30078 1.3438 0.625 1.9805 0.97266 4.5859 2.4727 9.4922 5.125 11.652 11.281 4.0938 0.83984 6.6602 3.1211 8.3281 5.8086 0.25391-0.9375 0.50391-1.8359 0.74219-2.6992l0.48047-1.6914c1.2969-4.7383 1.8359-9.7812 2.3984-15.156l0.32422-3.0859c-0.71875-1.1406-1.0664-2.0742-1.2734-2.9883-0.625-2.5547-1.0938-4.6797-1.1758-6.793-0.046874-1.1172-0.12109-1.7031-0.17969-2.0039-0.046875 0.10938-0.76953-0.16797-2.0742-0.61328-3.4805-1.2109-9.7305-3.3594-11.473-10.801 0.097656 0.38281-0.45703-0.097657-0.79297-0.26563-3.1914-1.5352-6.5039-2.9141-9.8047-4.2969-2.2578-0.9375-4.5117-1.8828-6.7422-2.8672-2.1602-0.96094-4.0195-2.2695-5.7461-3.5508-1.1875-0.86328-2.293-1.7773-3.4219-2.7109-1.5586-1.2734-3.1094-2.5664-4.8008-3.5898-5.8203-3.4688-11.988-8.3164-13.402-18.047h-0.011718c-0.17969 0-1.2227-0.97266-1.9062-1.6328-1.0547-0.98438-2.1016-1.9922-2.9414-3.0234-1.2734-1.5703-2.4961-3.1797-3.5039-4.5-1.6094 1.4141-3.875 1.8477-5.9531 1.1523-2.3867-0.85156-3.9961-3.1211-3.9961-5.6641l0.046876-3.4336c0.035156-1.7773 0.097656-3.3008-0.070313-4.8008-0.19141-1.7539-0.44531-3.5156-0.70703-5.2578-0.21484 0.19141-0.42188 0.35938-0.66016 0.52734l-2.6875 1.8945c-1.9336 1.3906-3.7812 2.7344-5.7227 3.8867 0.15625 0.60156 0.23828 1.0938 0.30078 1.4648 0.14453 0.57422 0.39453 1.4531 0.66016 2.1836 0.19531-0.015626 0.38672-0.027344 0.57812-0.027344zm32.41-225.12h0.20312c1.8242 0.058594 3.5273 0.94922 4.6211 2.4258l7.3672 9.9492c0.20312 0 0.39453-0.011719 0.61328-0.023438 3.7695-0.10937 5.4102-0.20312 7.043-1.5586 2.7227-2.2422 7.4766-2.4375 11.746-1.9453 3.4805-0.12109 5.3633-1.0664 7.8711-2.4102 1.3789-0.73047 2.7734-1.4648 4.2109-2.0625 2.207-0.94922 4.6094-1.9062 7.3203-2.207 6.7812-0.73047 8.6406 0.44531 12.742 4.3555 1.2227-2.293 3.6016-3.793 5.3633-4.332 4.043-1.2344 8.1133-2.4609 12.238-3.3125l1.043-3.875c3.3594-13.535 6.7305-27.07 10.453-40.5 1.0781-3.8867 3.1797-7.2617 5.0391-10.234l1.0547-1.7266c2.3398-3.8867 4.8125-7.7266 7.4297-11.785l3.4336-5.3633c1.1406-1.7773 2.8789-2.8203 5.2578-2.7734 2.1133 0.058594 4.0312 1.2461 5.0625 3.0977l1.8125 3.3242c1.1641 2.1367 2.2188 4.1055 3.3711 5.9883 1.3203 0.046875 2.8906 0.17969 4.4648 0.60156 0.22656-0.39453 0.44531-0.78125 0.69531-1.1641-0.81641-1.332-1.5352-2.6172-2.2422-3.9102-0.48047-0.89844-0.9375-1.8008-1.5586-2.5938-6.6836-8.5078-4.5352-15.625-1.5703-20.102 0.75781-1.1406 1.6562-2.0391 2.4727-2.7969-0.73047-1.0938-1.2617-1.9219-1.5586-3.1211-0.88672-3.793-1.7383-4.2227-4.1172-4.5469-4.8594-0.68359-9.2539-2.4844-13.477-4.2344l-3.4805-1.4023c-2.5938-0.99609-5.5664-3.5156-6.4219-6.8984-1.6562-6.457-3.3477-13.043-0.20312-20.074 0.17969-0.40625 0.33594-1.1641 0.50391-1.8945 0.25391-1.1992 0.58984-2.6875 1.2461-4.2109 0.37109-0.81641 0.44531-0.96094-0.46875-1.9336-1.0547-1.0938-3.3125-3.4219-2.7344-6.8164 0.21484-1.0938 0.25391-1.3672-3.8398-3.625-1.5977-0.875-3.0977-2.6406-3.4219-4.4141-0.3125-1.7773-0.22656-3.8281 0.96094-5.207 5.2422-6.0703 9.4219-10.922 10.094-17.09 0.30078-2.9141 2.2695-4.6914 3.3242-5.6406 1.5703-1.4883 3.0234-2.0391 4.1523-2.3984 11.594-3.7188 18.348-12.035 22.598-27.805-3.0234-3.5273-6.7695-8.6641-8.1133-15.492 0.085938 0.67188-1.1641 0.19141-2.7109 0.19141-1.0312 0-1.6211 0.22656-1.7539 0.30078-5.1484 4.1992-6.875 5.5078-10.414 6.3125-1.9062 6.2656-1.9805 11.785-0.25391 17.16 1.0547 3.2539 0.32422 7.1406-2.0391 10.945-2.2812 3.6484-6.7812 8.1719-11.953 8.8906-1.0938 1.5-2.2422 3.1211-3.3945 4.7383-1.4141 1.9805-2.8438 3.9609-4.3906 5.832-1.3438 1.6211-2.9297 3.0469-4.5352 4.4648-0.74219 0.64844-1.4883 1.2969-2.1953 1.9922-0.33594 0.34766-1.1758 1.1758-1.3555 1.5117-2.7461 5.832-5.4727 11.746-8.1953 17.652l-3.5508 7.7031c-2.2305 4.8008-1.0938 6.9961 1.7773 9.3359 6.2539 5.1133 8.8203 11.016 8.1133 18.562-0.39453 4.2109-0.30078 8.6289-0.21484 13.309 0.046875 2.2188 0.097656 4.4883 0.097656 6.8047 0 1.9336-0.92578 3.7422-2.4961 4.8711-1.5703 1.1289-3.5898 1.4414-5.3984 0.81641-1.4648-0.49219-2.8906-1.0547-4.2969-1.6445l1.8477 2.3984c1.1172 1.4414 1.5117 3.3125 1.0781 5.0898-0.43359 1.7773-1.6562 3.2539-3.3008 4.0195l-10.875 5.0352-0.66016 3.5039c-0.98438 5.125-2.0039 10.488-2.7852 15.887-0.45703 3.0703-0.69531 6.1797-0.9375 9.2891-0.23828 3.0469-0.48047 6.1094-0.875 9.1445-0.48047 3.4688-2.293 6.8867-4.7656 8.9297-2.4258 2.0039-5.0508 3.707-7.8008 5.4727l-3.1211 2.0273c-2.5195 1.7031-5.9414 1.2344-7.9062-1.1055l-1.4023-1.6328-22.078 13.105c-1.3906 0.83984-3.1328 1.0781-4.6914 0.61328-1.5859-0.44531-2.9141-1.5234-3.6836-2.9883-0.63672-1.1875-1.4766-2.2578-2.3047-3.3008-0.97266 2.5195-2.1836 4.9336-3.8164 7.2969-1.1172 1.6211-1.5586 4.7031-1.9922 7.6797-0.14453 0.94922-0.26562 1.8945-0.43359 2.832 0.28906 0.22656 0.5625 0.49219 0.80469 0.76953l3.2031 3.7305 0.49219-0.25391c1.6562-0.83984 3.5625-0.875 5.1953-0.14453l2.7969-3.3008c1.1406-1.3398 2.8086-2.1094 4.5703-2.1094zm-33.934 1.5977c0.86328 0.14453 1.7539 0.27734 2.6875 0.39453 0.625 0.085937 1.1641 0.13281 1.6562 0.13281-0.070312 0.26562 0.085938 0.43359 0.51562-1.7266 0.23828-1.1641 0.40625-2.3867 0.58984-3.6133 0.60156-4.1641 1.2617-8.8672 4.0078-12.805 1.6328-2.375 2.6641-4.8828 3.5039-7.7656-4.1875 3.0703-9.6602 2.1484-12.695 0.76953-0.085937-0.035156-0.15625-0.058594-0.21484-0.097656-1.1875 1.4414-2.9648 2.3047-4.7891 2.3281l1.3555 1.1406c1.6445 1.3672 2.9883 2.4844 4.2617 3.6719 1.5586 1.4141 4.4766 4.0938 3.7695 8.0156-0.46875 2.6055-1.2969 5.9414-3.625 8.4727-0.33984 0.35938-0.67578 0.71875-1.0234 1.082zm178.58-105.78c1.0195 0.10938 2.0625 0.27734 3.1328 0.49219 3.5039 0.68359 7.0781 1.0547 10.645 1.4414l3.2031 0.34766c1.9805 0.058594 2.7617 0.046875 3.9258-2.5781 0.99609-2.2812 3.168-5.2188 6.2383-6.5898 2.5312-1.1172 5.1016-2.0898 7.6797-3.0586 0.19141-0.070313 0.37109-0.14453 0.57422-0.21484-0.68359-0.83984-1.2617-1.7773-1.7539-2.832-0.19141-0.085938-0.40625-0.16797-0.66016-0.25391-0.55078-0.17969-1.043-0.26562-1.4297-0.26562-0.40625 0-1.6797 0-4.0078 4.6562-0.91016 1.8008-2.6641 3.0352-4.6797 3.2656-2.0391 0.23828-3.9961-0.55078-5.293-2.1133-0.57422-0.68359-0.97266-0.99609-1.1758-1.1289-0.085937 0.10938-0.49219 0.35938-1.1172 0.9375-2.3164 2.125-4.5586 3.3125-6.8633 3.6367-3.375 0.46484-6.0156 1.918-8.418 4.2578zm88.645-111.77c1.9688 0 3.8984 0.13281 5.7969 0.40625-2.9023-3.2891-5.293-7.8828-4.0664-14.27 0.085937-0.39453 0.046874-1.2852 0-2.1367l-0.058594-2.3867v-0.085937h-0.32422l-1.5703-0.011719c-1.9219-0.035156-3.8984-0.13281-5.9141-0.33594 0.96094 1.8359 1.4531 3.9844 1.2852 5.9883-0.25391 3.2891-0.71875 6.5898-1.1875 9.8867l-0.44531 3.1797 0.75781 0.046875c2.668-0.19531 4.2031-0.28125 5.7266-0.28125zm18.457-21.082c2.3281 0.81641 4.668 1.7266 6.9258 2.8672 3.4062 1.7148 6.1211 1.4531 9.8047-0.92578 0.035156-0.011719 0.058593-0.035156 0.097656-0.058594-1.2109-1.7148-2.4102-3.4062-3.6484-5.1016-0.73047-0.99609-1.2852-2.0039-1.6797-3.0117-3.5703 2.7383-7.3711 4.7891-11.5 6.2305z"/>
  <path d="m121.55 311.54h-0.13281c-1.668-0.035157-3.2539-0.76953-4.3438-2.0039-0.86328-0.070312-1.7266-0.13281-2.5781-0.19141-3.6367-0.25391-7.3906-0.51562-11.207-1.5-3.3359-0.875-5.6992-3.1094-7.5977-4.9062-0.625-0.58984-1.2461-1.1875-1.8828-1.6797-0.097657-0.058594-1.043-0.83984-1.1289-0.91016-0.070312-0.058593-0.13281-0.10937-0.17969-0.14453-3.4062 0.21484-6.9727 0.60156-10.645 0.99609l-4.7539 0.50391c-1.7148 0.13281-3.3594-0.37109-4.6211-1.5234-1.2617-1.1406-1.9805-2.7461-1.9805-4.4531l0.003906-13.129c0-0.74219 0.14453-1.4648 0.38281-2.125l-1.7891 0.35938c-2.6055 0.46875-5.125-0.80469-6.3359-3.0859l-5.1133-9.6367c-0.875-1.6797-0.91016-3.6602-0.13281-5.3516-1.6445-1.0938-2.6758-2.9531-2.6758-4.9922 0-1.0664 0.27734-2.9766 0.82812-3.8867 1.2344-2.1016 2.3984-4.0938 2.7617-4.9453-0.085937 0.16797-0.25391-0.23828-0.42188-0.63672-0.61328-1.5859-0.53906-3.3477 0.22656-4.8711 0.74219-1.5117 2.1133-2.6523 3.7422-3.1094l1.5352-0.40625c3.5273-0.91016 3.5625-1.0312 3.9375-2.5664 1.0781-4.3906 5.0156-6.6367 8.1836-8.4375 0.86328-0.50391 1.7383-0.97266 2.4492-1.5 1.7266-1.2852 4.0195-1.5117 5.9648-0.66016 5.2695 2.3164 10.656 6.5625 14.293 11.508 0.23828-0.21484 0.48047-0.43359 0.74219-0.64844 1.668-1.332 6.5898-1.9688 10.453-0.63672 0.50391-0.14453 0.99609-0.28906 1.5-0.43359 4.8594-1.4297 11.195-2.7344 16.691-0.78125l3.1797-1.6094c0.69531-2.9414 1.8828-6.8281 6.1445-7.5977 4.9062-0.91016 10.344-0.12109 13.871 3.7812-0.22656-0.27734 0.3125-0.25391 0.9375-0.14453 1.0938-0.66016 2.3867-0.94922 3.707-0.83984 2.2422 0.22656 4.1758 1.6914 4.9922 3.793l1.0195 2.5547c0.80469 2.0273 1.6211 4.0547 2.3398 6.1211 0.43359 1.2344 0.88672 2.543 1.2461 3.4062 1.2969-0.046875 2.6641-0.22656 4.3906-0.43359 2.3281-0.26562 4.6094 0.83984 5.832 2.8438 1.2227 2.0039 1.1523 4.5352-0.16797 6.4805-1.2852 1.8945-1.8828 3.4688 1.3672 7.8477 0.98438 1.3203 1.3789 3 1.0938 4.6211-0.097656 0.55078-0.26562 1.0781-0.50391 1.5859 0.25391 0.79297 0.32422 1.6445 0.23828 2.4844-0.20312 1.6328-1.043 3.1211-2.3516 4.1055-1.2734 0.96094-2.6289 1.7891-3.9609 2.5938-2.9141 1.7539-4.3438 2.6875-5.0039 4.6445-1.332 3.9102-5.7461 8.6055-10.57 9.3711-2.1484 0.34766-3.9375 1.4883-6.2148 2.9414l-1.7539 1.1055c-1.8828 1.1523-3.9375 2.0156-6.0117 2.8672-1.2461 0.51562-2.4961 1.0195-3.6836 1.6562-2.7461 1.4883-5.293 3.1328-7.5586 4.9062-0.80469 0.63672-1.6445 1.6094-2.6172 2.7344l-1.7188 2.0234c-1.1406 1.2344-2.7383 1.9414-4.418 1.9414zm-28.188-23.41c3.4688 0 5.6289 1.8242 7.0547 3.0352 1.6328 1.2734 2.5781 2.1602 3.5273 3.0469 0.75781 0.73047 1.9336 1.8359 2.4258 2.0273 2.6758 0.69531 5.7227 0.89844 8.9531 1.1289 1.6914 0.12109 3.3594 0.23828 5.0391 0.42188 0.76953-0.82812 1.6094-1.6328 2.5781-2.3867 2.7734-2.1719 5.8906-4.2109 9.2539-6.0117 1.5469-0.83984 3.1914-1.5117 4.8242-2.1953 1.4766-0.61328 2.9648-1.1875 4.2969-2.0039l1.5586-0.98437c2.8906-1.8477 6.1797-3.9375 10.766-4.668 0.085937-0.10938 0.91016-0.97266 1.1289-1.4297 1.7539-5.1953 5.375-8.0156 8.5195-9.9961-0.085937-0.55078-0.085937-1.1289 0-1.6914 0.10938-0.73047 0.34766-1.4297 0.70703-2.0508-0.96094-2.0273-1.7539-4.5-1.7891-7.2617-5.9766-0.98438-7.6562-5.7617-9.5625-11.195-0.43359-1.2461-0.88672-2.4492-1.3438-3.6133-0.28906-0.046876-0.57422-0.10938-0.86328-0.15625-2.4492-0.43359-5.7734-1.0195-8.207-3.5391-0.15625 0.60156-0.30078 1.1758-0.45703 1.6797-0.71875 2.2422-2.7969 4.4141-5.1367 4.6914-0.19141 0.023437-0.38281 0.035156-0.57422 0.046875l-5.3867 2.7227c-1.7891 0.91016-3.9844 0.89844-5.7617-0.10938-2.8672-1.668-6.3359-0.75781-10.488 0.45703-1.2344 0.35938-2.4727 0.71875-3.707 1.0078-1.1875 0.27734-2.375 0.21484-3.4922-0.20312-0.34766-0.13281-0.75781-0.27734-1.1875-0.43359-0.070312 0.20312-0.15625 0.39453-0.21484 0.57422-0.035156 0.070312-0.070312 0.15625-0.097656 0.23828v0.26562c-0.10938 2.4961-1.3086 4.8711-3.6953 5.6523l-1.8047-4.3984 0.20312 4.9336-1.6797 0.55078c-1.8477 0.64844-3.9609 0.27734-5.543-0.94922-1.5859-1.2227-2.4492-3.1445-2.3164-5.125 0.14453-2.125-3.457-7.6211-8.9766-11.051-0.10938 0.058594-0.21484 0.12109-0.3125 0.17969-0.94922 0.53906-2.5312 1.4414-2.9414 1.8711-1.1523 5.4102-4.8008 7.8359-8.2422 9.1445-0.13281 1.1406-0.46875 2.2578-1.0312 3.4922 2.1602 0.26562 4.0547 0.035156 5.8672-0.86328 3.3125-1.6562 7.3203 0.86328 8.6992 2.3633 1.1406 1.2344 2.1484 3.6484 2.0039 5.3164-0.26562 3.2656-1.7656 6.0469-4.1289 8.0156 3.3594 1.4648 5.8789 4.3555 7.4297 8.5781 0.55078 1.5 1.6562 5.3633-0.023437 8.8672-0.45703 0.97266-1.1406 1.7891-1.9922 2.4492 2.0391-0.19141 4.0781-0.33594 6.1094-0.44531 0 0.003906 0.011719 0.003906 0.011719 0.003906z"/>
  <path d="m320.93 629.81c-1.0664 0-2.6641-0.16797-4.1875-0.9375-2.2188-1.1641-4.8477-1.4023-7.8945-1.7031-1.7383-0.16797-3.4805-0.33594-5.207-0.64844-6.1328-1.1172-12.684-3.5039-19.441-7.1172-1.5703-0.83984-3.1797-1.6562-4.0938-1.6562-0.14453 0-0.49219 0-1.2109 0.37109-5.3633 2.8438-10.547 1.7539-14.629-3.0859-0.21484-0.21484-0.76953-0.51562-1.4023-0.81641-5.8086 6.0234-9.8047 3.8633-13.848 0.81641-2.8086-2.125-5.1367-3.625-7.3086-4.7148-0.058593-0.035156-0.097656-0.070312-0.12109-0.097656-5.5664 3.7188-10.586 3.1914-15.121 3.0234-1.8711-0.10938-3.7695-0.22656-5.6992 0.058593-2.0391 0.25391-4.1289-0.49219-5.4609-2.0898-1.332-1.5977-1.7539-3.7695-1.0938-5.7461l1.0312-3.1445c0.875-2.7227 1.6914-5.2305 2.6758-7.668 1.2461-3.0977 4.4414-4.7031 7.0078-5.1836 1.9336-0.35938 4.0664-0.35938 6.0977-0.10938 3.5039 0.42188 6.457-0.35938 9.8164-2.5781l-0.98438 0.011719c-1.957 0-3.793-0.96094-4.9219-2.5547-1.1172-1.6094-1.3789-3.6602-0.71875-5.4961 0.38281-1.0547 0.68359-2.1484 0.96094-3.2148 0.875-3.2148 1.8594-6.8633 4.7266-9.5508 2.6758-2.5195 6.1562-3.1797 9.1094-3.6016 0.25391-1.1758 0.45703-2.3633 0.67188-3.5508 1.3438-7.4766 3.0234-16.754 11.676-23.305 2.5547-1.9336 6.1914-1.5234 8.2422 0.96094 1.6914-0.44531 3.5391-0.45703 5.1719-0.15625l0.78125-3.168c-3.2773-4.9062-4.4648-11.844-3.1562-17.867-6.0117-4.7266-7.2617-10.273-3.8281-16.934-0.10937-1.1055-0.097656-2.125-0.011718-3.0469-0.30078-0.085938-0.60156-0.17969-0.88672-0.3125-1.8242-0.79297-3.1445-2.4492-3.5039-4.4023-1.3555-7.3203-0.22656-14.426 3.2773-20.723-0.32422-1.0078-0.57422-2.2188-0.39453-3.625 0.43359-3.7578 1.4648-12.59 12.121-15.852 2.0156-0.61328 3.7695-3.1797 5.2305-7.6211l0.42188-1.2969c1.3438-4.1523 2.8672-8.8438 5.7109-12.852 3.2031-4.5117 7.7656-6.8047 13.609-6.8047 2.5195 0 5.1602 0.45703 7.7148 0.92578l1.7148 0.30078c3.1328 0.53906 5.7617 1.8242 8.3164 3.0703 0.97266 0.48047 1.9688 0.97266 3.0234 1.4141 1.7031 0.71875 2.9648 2.1836 3.4453 3.9609 0.48047 1.7891 0.12109 3.6953-0.98438 5.1719l-2.1836 2.8789c-1.5586 2.0625-3.0703 4.0547-4.5234 6.0703-0.35938 0.50391-0.74219 1.0195-1.1055 1.5352 6.7578 2.1719 13.848 6.3477 18.551 14.93 1.3789 2.5195 0.78125 5.6641-1.4297 7.5l-3.3359 2.7344c-2.6172 2.1133-5.2578 4.2461-7.7383 6.5625-0.15625 0.16797-0.53906 0.83984-0.80469 1.2852-0.875 1.5234-2.0898 3.625-4.3438 5.0625-1.4141 0.91016-2.8789 1.6797-4.332 2.375 2.5195 3.0352 5.1367 6.2539 7.6211 9.5625 1.7891 2.375 3.6367 6.3594 3.4062 10.402-0.43359 8.1953 1.3438 16.199 3.2266 24.672l1.2852 5.9766c0.97266 4.5 2.4961 11.52-2.2188 16.586 0.68359 1.8359 1.3086 3.625 1.8945 5.4375 0.625 2.0039 1.2734 4.8477 0.16797 7.5859 0.13281 0.085938 0.26562 0.17969 0.43359 0.28906 6.0703 3.8398 9.9102 10.32 10.836 18.238 1.0312 8.9414-1.9688 18.215-7.8359 24.203-1.0781 1.1055-2.3164 1.7383-3.4062 2.1367 0.58984 1.5 0.79297 2.8789 0.81641 4.0312 0.085937 2.6875-0.74219 6.7422-5.1016 10.859-2.0781 1.9414-4.8633 2.2305-6.3242 2.2305zm-40.812-24.047c3.6953 0 6.7188 1.4531 9.7422 3.0703 5.6758 3.0234 11.027 5.0039 15.926 5.8906 1.3789 0.25391 2.7969 0.37109 4.2109 0.51562 3.168 0.28906 6.6836 0.63672 10.262 2.0508 0.058594-0.13281 0.085938-0.22656 0.097657-0.25391-0.023438-0.15625-0.34766-0.82812-1.5352-1.8125-1.4297-1.1992-2.2188-2.9883-2.1484-4.8594 0.085937-1.8594 1.0312-3.5898 2.5547-4.6562l1.0547-0.76953c1.1289-0.83984 2.2305-1.6445 3.4336-2.2695 1.1406-0.60156 2.2578-0.88672 3.0977-1.1055 0.035156 0 0.070312-0.011719 0.10938-0.023438 2.9883-3.4688 4.5117-8.7734 3.9258-13.812-0.27734-2.4609-1.3555-6.9727-5.3398-9.4922-7.2852-4.6445-7.2461-9.9961-5.543-14.039-0.83984-2.7344-1.5977-4.7539-2.3867-6.8633l-0.96094-2.6055c-1.0664-2.9141 0.26562-6.1562 3.0703-7.4883 1.2617-0.60156 1.5-0.71875 0.46875-5.4492l-1.5-6.9375c-1.9688-8.8789-4.0078-18.07-3.4805-27.91 0.011719-0.39453-0.3125-1.6094-1.0312-2.5547-3.0117-4.0195-6.2148-7.8594-9.168-11.41l-3.2031-3.8633c-1.1875-1.4414-1.6328-3.3477-1.2109-5.1602s1.668-3.3242 3.3477-4.1055l3.2891-1.4297c2.2812-0.96094 4.6562-1.9336 6.7695-3.2891-0.035156-0.085937 0.17969-0.52734 0.43359-0.97266 0.70703-1.2227 1.5859-2.7344 3.0117-4.0664 2.3516-2.1836 4.8242-4.2344 7.2852-6.2383-3.4922-3.6836-8.5312-5.7969-15.984-6.8281-2.0625-0.28906-3.8164-1.6211-4.668-3.5273-0.82812-1.9062-0.625-4.1055 0.55078-5.8203l1.7539-2.5312c1.5703-2.3047 3.0469-4.4531 4.5703-6.5508 0.76953-1.0664 1.5586-2.1367 2.3516-3.2031-0.625-0.23828-1.2109-0.42188-1.7539-0.50391l-1.8477-0.32422c-1.8359-0.33594-3.7305-0.73047-5.543-0.73047-2.1719 0-3.0117 0.61328-3.8047 1.7383-1.7773 2.5078-2.8906 5.9648-4.0781 9.625l-0.43359 1.332c-1.0312 3.1211-4.1406 12.613-13.129 15.359-2.3281 0.71875-3.1094 1.4141-3.6016 4.8594 0.3125 0.78125 0.51562 1.3203 0.73047 1.9453 0.58984 1.7891 0.28906 3.7578-0.78125 5.293-0.52734 0.76953-0.99609 1.5469-1.4023 2.3398l0.71875-0.63672c1.7891-1.5352 4.2734-1.8711 6.4219-0.89844 2.1367 0.98438 3.4922 3.1094 3.4922 5.4492v9.6836c0 3.1797-2.4844 5.8086-5.6641 5.9883-1.3906 0.085938-2.0508 0.35938-2.1836 0.46875 0.023438-0.058594-0.023437 0.42188 0.22656 1.7148 0.46875 2.5781-0.67188 4.5234-1.1523 5.3516-0.46875 0.85156-0.67188 1.3438-0.74219 1.5977 0.15625 0.058593 0.57422 0.48047 1.4297 1.1172l2.8789 2.0391c2.4844 1.7773 3.2539 5.125 1.7656 7.8008-1.8242 3.2891-0.74219 9.3594 1.3555 11.316 1.6094 1.4883 2.2695 3.7188 1.7539 5.832l-3 12.18c-0.76953 3.168-3.9492 5.1367-7.1523 4.4297-0.96094-0.21484-1.9688-0.5625-3-0.9375-0.78125-0.27734-1.8711-0.66016-2.293-0.66016-1.1875 1.2734-2.8086 1.9805-4.5703 1.9922-1.0664-0.035156-2.0898-0.32422-2.9648-0.86328-1.9062 3.2891-2.6406 7.2969-3.4336 11.723-0.51562 2.8672-1.043 5.7227-1.8477 8.4258-0.625 2.0508-2.2695 3.625-4.3555 4.1289-1.1992 0.28906-2.5078 0.48047-3.8047 0.66016-0.98437 0.13281-2.375 0.32422-3.1328 0.55078 1.2461 0.046875 2.4844 0.16797 3.6953 0.37109 4.0078 0.67187 8.1016 4.5703 8.9023 8.5078 1.1289 5.7344-5.1484 9.6602-6.4062 10.391-1.6445 0.94922-3.2891 1.4141-4.6211 1.7891-0.64844 0.19141-1.6094 0.46875-1.8828 0.63672-1.1992 0.82812-2.3984 1.5469-3.6133 2.1719 1.0547 0.28906 1.9805 0.66016 2.6992 1.0195 2.5078 1.2617 5.0898 2.8672 8.0273 5.0156 0.27734-0.34766 0.57422-0.67188 0.89844-1.0078 1.8594-1.9922 5.6523-3.3477 8.0156-2.0625 0.69531 0.37109 1.4141 0.68359 2.1484 0.99609 2.2812 0.99609 5.1367 2.2422 7.2461 4.7539 2.0352-1 4.3164-1.5977 6.6328-1.5977z"/>
  <path d="m196.38 567.95c-1.6094 0-3.2266-0.058594-4.8477-0.19141-3.2539-0.27734-7.8477-1.2969-10.176-7.043-1.9805-4.8359-4.1875-9.6133-6.4922-14.328-2.2578-4.6328-1.3906-9 2.3867-12.312 2.9141-2.543 5.7969-5.1367 8.6875-7.7148 3.7578-3.3711 7.5234-6.7422 11.352-10.02-0.86328-1.6914-1.6094-3.3477-2.3164-5.0273l-1.2852-2.9023c-1.9219-4.0938-2.1836-7.8242-0.78125-11.113 1.4141-3.3242 4.3438-5.7617 8.7344-7.2734 2.9023-0.99609 5.5781-1.9062 8.5547-2.0898 2.8555-0.16797 4.9336-1.6211 7.957-5.5195l5.832 2.3633-4.7891-3.6133c4.5703-6.0859 10.188-8.1953 18.84-6.6836 10.223 1.7891 17.902 6.1914 24.203 13.848 0.85156 1.043 1.9453 1.8828 2.9883 2.7344l1.9688 1.6562c2.1719 1.9219 2.6523 5.125 1.1406 7.6094l-2.5781 4.3438c-1.8477 3.168-3.6016 6.1211-5.5781 8.9141-2.3516 3.3008-3.5508 7.0938-3.7695 11.914-0.43359 9.5039-4.4648 17.004-8.3516 24.266-4.0195 7.5-9.6016 11.496-18.098 12.961-3.2148 0.55078-6.4062 1.2344-9.6016 1.9062-7.6836 1.625-15.617 3.3164-23.98 3.3164zm-10.188-25.742c2.2695 4.7031 4.3672 9.3008 6.2773 13.98 1.332-0.27734 2.6406-0.23828 3.9102-0.23828 7.1055 0 14.074-1.4883 21.469-3.0469 3.3477-0.71875 6.707-1.4297 10.078-2.0039 4.7891-0.81641 7.2852-2.6055 9.5391-6.8047 3.4062-6.3594 6.6367-12.359 6.9492-19.141 0.3125-7.1289 2.2695-13.117 5.9766-18.324 1.7773-2.4961 3.3242-5.1719 4.9922-8.0156l0.058594-0.097656c-0.88672-0.80469-1.7539-1.6562-2.4961-2.5664-4.4141-5.3867-9.6602-8.3633-16.98-9.6367-3.1445-0.55078-4.8945-0.97266-7.1992 2.0742-0.085937 0.12109-0.76953 0.94922-0.86328 1.043-3.9375 5.0625-8.7969 9.9961-17.004 10.488-1.3438 0.085937-3.0352 0.66016-4.8242 1.2734-1.1992 0.40625-1.7773 0.70703-2.0508 0.875 0.097656 0.15625 0.22656 0.58984 0.52734 1.2344l1.4414 3.2383c0.74219 1.7539 1.5 3.5039 2.4492 5.1602 1.9219 3.3242 3.0117 8.3164-2.6875 13.199-3.9961 3.4062-7.8945 6.8984-11.797 10.402-2.582 2.3125-5.1719 4.6289-7.7656 6.9062z"/>
  <path d="m378.95 915.38c-4.3086 0-8.8555-2.1602-12.145-5.7617-3.0234-3.3125-4.4766-7.2852-4.1172-11.184 0.74219-8.0742 1.7031-15.383 2.8789-22.332 1.2109-7.1172 1.4766-12.145-0.74219-16.812-3.0117-6.3594 0.97266-10.559 2.4727-12.145 0.3125-1.7539 1.6094-3.2891 3.168-4.1758 1.5586-0.88672 3.6367-1.043 5.2695-0.38281 2.3633 0.89844 4.8008 1.8242 6.1328 2.1836 0.085937-0.12109 0.17969-0.23828 0.26562-0.35938l-0.39453-0.99609c-1.3906-3.5391-2.7852-7.0312-3.9492-10.621-0.71875-2.207-0.49219-4.2344-0.33594-5.7227 0.046875-0.40625 0.12109-0.81641 0.097656-1.2227-0.5625-1.3672-1.1406-2.0508-1.7031-2.7461l-1.0664-1.3555c-1.4766-1.9453-1.6211-4.5977-0.37109-6.6953 2.0273-3.3945 5.3984-9.0703 13.789-9.0703-0.33594-0.097656 0.94922-1.4023 1.7266-2.1953l1.1875-1.1875c2.4258-2.3867 8.7109-4.9219 13.367-0.3125 0.15625 0.15625 0.58984 0.49219 1.6211 1.0078 3.1445 1.5586 6.5742 4.8008 5.0898 11.473-0.55078 2.5078-0.83984 5.0742-1.1406 7.6445-0.20312 1.6445-0.38281 3.2773-0.63672 4.8945-0.33594 2.293-0.85156 4.2461-1.5859 5.9141-0.67188 1.5352-1.4414 3.0117-2.207 4.4766-0.50391 0.97266-1.0195 1.9453-1.4883 2.9297l-0.93359 1.9375c-0.5625 1.1289-1.4883 2.9648-1.5469 3.6953 0.070312 0.011719 0.38281 0.34766 1.1758 0.82812 2.3047 1.4141 3.4219 3.5898 4.1758 5.0273l1.1172 2.0156c2.2578 3.9727 6.4922 11.352-0.33594 19.488-0.046875 0.20312-0.22656 1.6211-0.33594 2.5547-0.17969 1.3203-0.34766 2.6641-0.66016 3.8867-0.43359 1.7148-0.96094 3.3828-1.4883 5.0625l-0.44531 1.4297c-0.097657 0.32422-0.50391 1.2852-0.66016 1.5977l-2.3516 17.484c-0.35938 2.5938-2.3516 4.6445-4.9336 5.0898l-2.6523 0.39453c-1.5117 0.22656-2.9531 0.39453-4.3203 0.81641-0.99609 0.28906-1.9336 0.74219-2.8789 1.1641-1.5469 0.70703-3.0977 1.3789-4.7148 1.8242-1.0898 0.3125-2.2188 0.45703-3.3945 0.45703zm-2.6289-59.793c3.1914 7.8594 2.2578 15.719 1.0938 22.535-1.1406 6.6602-2.0508 13.668-2.7617 21.434-0.035156 0.30078 0.22656 1.1055 1.043 1.9922 1.2227 1.332 3.3711 1.8125 3.3945 1.8242 1.043-0.28906 2.0156-0.74219 2.9883-1.1992 1.4414-0.66016 2.8906-1.2969 4.4023-1.7539 1.3086-0.38281 2.6758-0.66016 4.0781-0.88672l1.9805-14.062c0.097657-0.63672 0.63672-2.1719 0.92578-2.7461l0.35938-1.1875c0.45703-1.4648 0.92578-2.9414 1.2969-4.4141 0.19141-0.75781 0.27734-1.6094 0.37109-2.4492 0.33594-2.6992 0.75781-6.0469 3.0703-8.7969 1.2734-1.5117 1.4414-1.7148-0.88672-5.7969-0.46875-0.80469-0.92578-1.6211-1.3438-2.4375-2.5195-1.6562-4.1758-3.4453-5.2188-5.2695-3.1641 3.9453-7.125 5.8789-14.793 3.2148zm10.801-37.453c0.25391 0.34766 0.46875 0.71875 0.69531 1.0938 0.98438 1.7266 1.5977 3.8047 1.7266 5.9023 0.058593 1.0664-0.023438 2.1484-0.14453 3.2148 0.76953 3.4688 1.8242 6.3359 2.9297 9.1562 0.058594-0.10938 0.10938-0.21484 0.16797-0.3125l0.79297-1.6328c0.55078-1.1758 1.1406-2.2812 1.7266-3.4062 0.63672-1.2227 1.2734-2.4375 1.8242-3.6953 0.28906-0.69531 0.53906-1.6445 0.73047-2.8906 0.22656-1.5 0.39453-3.0117 0.5625-4.5234 0.30078-2.6172 0.625-5.2305 1.1289-7.7891-0.38281-0.23828-0.74219-0.45703-1.0938-0.69531-2.3633 2.3867-5.543 5.4375-9.7695 5.4375-0.54688-0.074219-0.91797-0.015625-1.2773 0.14062z"/>
  <path d="m480.71 977.23c-2.6758 0-5.3867-0.011719-8.1133-0.058594-2.7734-0.085937-6.3477-1.6094-7.7656-4.7773-0.14453-0.070312-1.1172-0.30078-1.7539-0.45703-0.86328-0.20312-1.7383-0.40625-2.6055-0.69531-2.8203-0.91016-5.7461-1.6094-8.6641-2.293-6.7578-1.5977-13.738-3.2383-20.281-7.4648-0.80469-0.51562-2.3398-0.89844-3.9727-1.3203-1.1523-0.28906-2.3281-0.60156-3.5391-0.98437-2.7617-0.88672-4.4883-3.6133-4.1289-6.4805l0.63672-5.4727c0.53906-4.8242 1.0781-9.8281 2.2305-14.82 1.2461-5.5547 6.3711-9.4336 12.445-9.4336 3.1211 0.070313 5.9023 0.085938 8.7109 0.085938l9.7812-0.023438 5.0039 0.023438c1.3438 0.011718 3.6719 0.23828 5.7852 1.3555 1.5352-1.1172 4.6211-1.6797 7.5586-1.0664 2.2305 0.46875 4.3906 0.98438 6.5625 1.5 2.5781 0.625 5.1719 1.2344 7.7656 1.7539 4.5117 0.91016 8.1484 3.3008 10.211 6.7422 1.957 3.2383 2.3867 7.1875 1.2227 11.148-0.28906 0.98437-0.27734 1.2969-0.27734 1.332 3.2383 3.5039 3.4688 7.2109 3.6484 9.9102 0.058593 0.76953 0.097656 1.5352 0.22656 2.2305 1.2461 6.9102-1.9453 10.754-5.207 12.828-0.10938 0.22656-0.21484 0.46875-0.32422 0.71875-0.38281 0.85156-0.81641 1.7656-1.3555 2.7109-1.0781 1.8594-3.0586 3.0117-5.207 3.0117zm-6.25-12.035c2.0742 0.035157 4.1758 0.035157 6.2539 0.035157h4.8359c0.79297-1.5859 1.9453-3.3359 3.9844-4.4531-0.16797-1.7773-0.26562-3.0234-0.33594-4.2617-0.058593-0.81641-0.14453-2.0625-0.27734-2.4609-4.3438-4.4023-3.7188-9.2891-2.6289-12.973 0.12109-0.39453 0.26563-1.1289 0.011719-1.5469-0.22656-0.38281-0.96094-0.89844-2.293-1.1758-2.7461-0.55078-5.4609-1.1992-8.1836-1.8359-1.668-0.39453-3.3242-0.79297-5.0039-1.1758-2.0508 1.9336-4.2344 2.2812-5.5781 2.2812-2.9766 0-5.2695-1.6094-6.9375-3l-14.398 0.40625c-2.8906 0-5.7734-0.023437-8.6641-0.085937-1.7773 4.4297-2.293 9.0703-2.7852 13.57l-0.058593 0.49219c1.8828 0.52734 3.793 1.1992 5.6289 2.375 4.8242 3.1094 10.512 4.4414 16.547 5.8672 3.2383 0.75781 6.4688 1.5352 9.625 2.5547 0.55078 0.19141 1.1172 0.30078 1.6562 0.43359 2.3242 0.57422 6.0078 1.4492 8.6016 4.9531z"/>
  <path d="m670.56 1029.7c-0.76953 0-1.5352-0.058594-2.2188-0.14453-4.0078-0.49219-8.0039-1.2734-12-2.0625l-2.1836-0.42188c-2.1719-0.39453-4.7656-0.85156-6.8633-2.8086-3.6836-3.4922-8.6289-4.5117-14.34-5.6992-0.23828-0.046875-1.0312-0.26562-1.2461-0.33594-11.746-3.4062-13.391-5.4102-14.785-17.902-0.34766-3.1562 1.8008-6.0234 4.9219-6.5742 7.9219-1.4141 15.406 0.19141 22.43 1.7383l3.6602 0.78125c3.9258 0.80469 6.9492 1.0781 9.8047 0.82812 10.488-0.97266 20.281-0.81641 28.344 2.7461 2.3633 1.0547 5.6172 1.2852 9.0469 1.5352 1.8711 0.14453 3.7422 0.27734 5.5781 0.53906 3.2266 0.44531 5.4961 3.3828 5.1367 6.625-1.0078 8.8555-2.9531 11.977-12.457 12.996-7.0312 0.75781-11.316 2.3516-14.773 5.5078-2.3906 2.1758-5.7031 2.6523-8.0547 2.6523zm-40.559-24.453c0.71875 0.19141 2.8906 0.81641 5.0156 1.4297 6.9258 1.4883 14.363 3.0234 20.508 8.832l3.1562 0.21484c3.6953 0.73047 7.4023 1.4648 11.137 1.9219l0.74219 0.046875c0.46875 0 0.75781-0.058594 0.82812-0.085937 3.3125-3.1562 7.2344-5.0391 11.23-6.2383-0.48047-0.16797-0.94922-0.34766-1.4141-0.5625-6.0859-2.7109-13.957-2.543-22.367-1.7656-4.0547 0.34766-8.1953 0.023438-13.32-1.0195l-3.8164-0.82812c-4.0664-0.89062-7.9297-1.7305-11.699-1.9453z"/>
  <path d="m288.23 886.84c-3.7812 0-5.7227-1.6562-6.6836-3.0352 0 0-0.53906-0.625-0.74219-0.83984-0.12109 0.085937-0.66016 0.25391-1.5977 0.79297-1.4141 0.82812-3.1562 1.043-4.7266 0.53906-1.5977-0.48047-2.9023-1.5977-3.6484-3.0859-5.9297-11.965-6.2266-17.184 3.4922-26.531 1.4883-1.4414 3.6133-2.0156 5.6406-1.4883l3.7305 0.875c3.1211 0.69531 6.3242 1.4141 9.4219 2.7227 3.7305 1.5859 7.0078 5.3164 8.0039 9.0977 2.0742 7.7891 0.23828 14.41-5.1719 18.637-2.7383 2.1484-6.6016 2.3164-7.7188 2.3164zm-0.046874-12.012 0.046874 6.0117v-6c-0.011718 0-0.023437 0-0.046874-0.011719zm-7.1055-3.8633c2.2812 0 5.3633 0.68359 8.2578 3.5156 0.33594-0.49219 1.1289-1.9922 0.19141-5.5312-0.12109-0.26562-0.74219-0.92578-1.0938-1.1172-2.2578-0.9375-4.7383-1.4648-7.3555-2.0508l-0.70703-0.17969c-1.6914 1.8477-1.9688 3-1.0195 5.4844 0.58984-0.074219 1.1641-0.12109 1.7266-0.12109z"/>
 </g>
</svg>
