<svg xmlns:dc="http://purl.org/dc/elements/1.1/" xmlns:cc="http://creativecommons.org/ns#" xmlns:rdf="http://www.w3.org/1999/02/22-rdf-syntax-ns#" xmlns:svg="http://www.w3.org/2000/svg" xmlns="http://www.w3.org/2000/svg" xmlns:sodipodi="http://sodipodi.sourceforge.net/DTD/sodipodi-0.dtd" xmlns:inkscape="http://www.inkscape.org/namespaces/inkscape" version="1.1" x="0px" y="0px" viewBox="0 0 100 100"><g transform="translate(0,-952.36218)"><path style="text-indent:0;text-transform:none;direction:ltr;block-progression:tb;baseline-shift:baseline;color:#000000;enable-background:accumulate;" d="m 16.766181,1012.969 c -6.231091,6.2311 -6.231189,16.3962 -1.87e-4,22.6272 6.230936,6.2309 16.396111,6.2309 22.627189,-2e-4 l 15.556379,-15.5563 c 5.940387,-5.9404 6.268481,-15.4383 0.862001,-21.72124 a 3.0090872,3.0091436 45 1 0 -4.57418,3.91104 c 3.402386,3.9539 3.240978,9.7962 -0.530437,13.5675 l -15.556303,15.5564 c -3.954096,3.9541 -10.188031,3.9541 -14.142006,2e-4 -3.954025,-3.9541 -3.953927,-10.1879 1.19e-4,-14.142 l 14.849243,-14.8493 a 3.0002437,3.0003 45 1 0 -4.242564,-4.24254 L 16.766181,1012.969 z m 28.284283,-28.28427 c -5.940384,5.94038 -6.268485,15.43827 -0.862007,21.72117 a 3.0090881,3.0091445 45 0 0 4.574131,-3.9111 c -3.40238,-3.95393 -3.240952,-9.79612 0.530435,-13.56751 l 15.556354,-15.55634 c 3.954061,-3.95407 10.188006,-3.95414 14.142012,-1.3e-4 3.953999,3.954 3.95393,10.18794 -1.29e-4,14.14201 l -14.849243,14.84927 a 3.0002437,3.0003 45 1 0 4.242538,4.2425 l 14.849242,-14.84926 c 6.231129,-6.23105 6.231189,-16.39621 2.29e-4,-22.62717 -6.230996,-6.231 -16.396114,-6.2309 -22.627213,2.1e-4 l -15.556349,15.55635 z" fill="#000000" fill-opacity="1" stroke="none" marker="none" visibility="visible" display="inline" overflow="visible"></path></g></svg>