<svg xmlns="http://www.w3.org/2000/svg" xmlns:xlink="http://www.w3.org/1999/xlink" viewBox="0 0 68 25" version="1.1" x="0px" y="0px"><title>dent, pit, road, obstacle, land</title><desc>Created with Sketch.</desc><g stroke="none" stroke-width="1" fill="none" fill-rule="evenodd"><g transform="translate(-536.000000, -453.000000)" fill="#000000" fill-rule="nonzero"><path d="M538,453 L549,453 C553.066121,453 555.584547,454.512037 559.252114,458.171288 C559.431061,458.34983 560.051032,458.972605 560.164214,459.085786 C563.778023,462.699596 566.024175,464 570,464 C573.975825,464 576.221977,462.699596 579.835786,459.085786 C579.948968,458.972605 580.568939,458.34983 580.747886,458.171288 C584.415453,454.512037 586.933879,453 591,453 L602,453 C603.104569,453 604,453.895431 604,455 L604,476 C604,477.104569 603.104569,478 602,478 L538,478 C536.895431,478 536,477.104569 536,476 L536,455 C536,453.895431 536.895431,453 538,453 Z"></path></g></g></svg>