<svg xmlns="http://www.w3.org/2000/svg" data-name="Layer 1" viewBox="0 0 100 100" x="0px" y="0px"><defs><style>.cls-1{fill-rule:evenodd;}</style></defs><title>Webshop Collection outlined</title><path class="cls-1" d="M72.43,34.73h0a2.11,2.11,0,0,0-.18-.52l-.06-.12a2.1,2.1,0,0,0-.33-.45l-13.2-13.2a2.11,2.11,0,0,0-.45-.33L58.08,20a2.12,2.12,0,0,0-.52-.18h0a2.12,2.12,0,0,0-.41,0H29.65a2.13,2.13,0,0,0-2.13,2.13v56.1a2.13,2.13,0,0,0,2.13,2.13h40.7a2.13,2.13,0,0,0,2.13-2.13V35.15A2.12,2.12,0,0,0,72.43,34.73ZM59.28,27.08,65.22,33H59.28Zm8.95,48.84H31.78V24.08H55V35.15a2.13,2.13,0,0,0,2.13,2.13H68.22Z"></path><path class="cls-1" d="M56.75,49.15A3.76,3.76,0,0,0,53,45.4H45.46a3.76,3.76,0,0,0-3.76,3.76v7.53a3.76,3.76,0,0,0,3.76,3.76H53a3.76,3.76,0,0,0,3.76-3.76V55.32L60.07,57a.91.91,0,0,0,1.32-.82V49.69a.91.91,0,0,0-1.32-.82l-3.32,1.65Z"></path></svg>