<svg xmlns:dc="http://purl.org/dc/elements/1.1/" xmlns:cc="http://creativecommons.org/ns#" xmlns:rdf="http://www.w3.org/1999/02/22-rdf-syntax-ns#" xmlns:svg="http://www.w3.org/2000/svg" xmlns="http://www.w3.org/2000/svg" xmlns:sodipodi="http://sodipodi.sourceforge.net/DTD/sodipodi-0.dtd" xmlns:inkscape="http://www.inkscape.org/namespaces/inkscape" version="1.1" x="0px" y="0px" viewBox="0 0 100 100"><g transform="translate(0,-952.36218)"><path style="font-size:medium;font-style:normal;font-variant:normal;font-weight:normal;font-stretch:normal;text-indent:0;text-align:start;text-decoration:none;line-height:normal;letter-spacing:normal;word-spacing:normal;text-transform:none;direction:ltr;block-progression:tb;writing-mode:lr-tb;text-anchor:start;baseline-shift:baseline;opacity:1;color:#000000;fill:#000000;fill-opacity:1;stroke:none;stroke-width:2;marker:none;visibility:visible;display:inline;overflow:visible;enable-background:accumulate;font-family:Sans;-inkscape-font-specification:Sans" d="M 12.9375 7 A 1.0001 1.0001 0 0 0 12 8 L 12 92 A 1.0001 1.0001 0 0 0 13 93 L 37 93 A 1.0001 1.0001 0 0 0 38 92 L 38 74.71875 L 52.25 70.96875 A 1.0001 1.0001 0 0 0 52.6875 70.71875 L 74.34375 49.71875 A 1.0001 1.0001 0 1 0 72.96875 48.28125 L 52.03125 68.59375 L 48.9375 65.5 L 75 39.40625 L 79.28125 43.6875 A 1.0001 1.0001 0 0 0 80.71875 43.6875 L 86.78125 37.65625 C 87.613082 36.8301 88.009926 35.72965 88 34.65625 C 87.9904 33.61446 87.596925 32.57652 86.8125 31.78125 L 76.375 21.1875 C 75.590677 20.39233 74.535774 20.0086 73.5 20 C 72.43022 19.991 71.348921 20.38988 70.53125 21.21875 L 38 54.53125 L 38 8 A 1.0001 1.0001 0 0 0 37 7 L 13 7 A 1.0001 1.0001 0 0 0 12.9375 7 z M 14 9 L 36 9 L 36 59.625 L 32.03125 74.71875 A 1.0001 1.0001 0 0 0 33.25 75.96875 L 36 75.25 L 36 91 L 14 91 L 14 76 L 25 76 A 1.0001 1.0001 0 1 0 25 74 L 14 74 L 14 59 L 25 59 A 1.0001 1.0001 0 1 0 25 57 L 14 57 L 14 42 L 25 42 A 1.0001 1.0001 0 1 0 25 40 L 14 40 L 14 25 L 25 25 A 1.0001 1.0001 0 1 0 25 23 L 14 23 L 14 9 z M 73.5 22 C 74.028084 22.004 74.526389 22.17696 74.9375 22.59375 L 85.375 33.1875 C 85.786325 33.60451 85.994977 34.14117 86 34.6875 C 86.0053 35.25846 85.804046 35.82389 85.375 36.25 L 80 41.5625 L 66.59375 28.15625 L 71.96875 22.625 C 72.399281 22.18857 72.949664 21.99524 73.5 22 z M 65.1875 29.59375 L 68.5625 33 L 42.5 59.0625 L 39.40625 55.96875 L 65.1875 29.59375 z M 70 34.40625 L 73.5625 38 L 47.5 64.0625 L 43.9375 60.5 L 70 34.40625 z M 38.53125 57.9375 L 50.0625 69.46875 L 34.40625 73.59375 L 38.53125 57.9375 z " transform="translate(0,952.36218)"></path></g></svg>