<svg xmlns="http://www.w3.org/2000/svg" xmlns:xlink="http://www.w3.org/1999/xlink" version="1.1" x="0px" y="0px" viewBox="0 0 64 64" style="enable-background:new 0 0 64 64;" xml:space="preserve"><g><path d="M60,33H36c-1.654,0-3,1.346-3,3v24c0,1.654,1.346,3,3,3h24c1.654,0,3-1.346,3-3V36C63,34.346,61.654,33,60,33z M61,60   c0,0.552-0.448,1-1,1H36c-0.552,0-1-0.448-1-1V36c0-0.552,0.448-1,1-1h24c0.552,0,1,0.448,1,1V60z"></path><path d="M37,43h22v-6H37V43z M39,39h18v2H39V39z"></path><path d="M60,1H36c-1.654,0-3,1.346-3,3v24c0,1.654,1.346,3,3,3h24c1.654,0,3-1.346,3-3V4C63,2.346,61.654,1,60,1z M61,28   c0,0.552-0.448,1-1,1H36c-0.552,0-1-0.448-1-1V4c0-0.552,0.448-1,1-1h24c0.552,0,1,0.448,1,1V28z"></path><path d="M59,5H37v6h22V5z M57,9H39V7h18V9z"></path><path d="M28,33H4c-1.654,0-3,1.346-3,3v24c0,1.654,1.346,3,3,3h24c1.654,0,3-1.346,3-3V36C31,34.346,29.654,33,28,33z M29,60   c0,0.552-0.448,1-1,1H4c-0.552,0-1-0.448-1-1V36c0-0.552,0.448-1,1-1h24c0.552,0,1,0.448,1,1V60z"></path><path d="M5,43h22v-6H5V43z M7,39h18v2H7V39z"></path><path d="M28,1H4C2.346,1,1,2.346,1,4v24c0,1.654,1.346,3,3,3h24c1.654,0,3-1.346,3-3V4C31,2.346,29.654,1,28,1z M29,28   c0,0.552-0.448,1-1,1H4c-0.552,0-1-0.448-1-1V4c0-0.552,0.448-1,1-1h24c0.552,0,1,0.448,1,1V28z"></path><path d="M5,11h22V5H5V11z M7,7h18v2H7V7z"></path><path d="M54.447,51.105l-12-6c-0.311-0.154-0.679-0.14-0.973,0.044C41.18,45.332,41,45.653,41,46v12   c0,0.347,0.18,0.668,0.475,0.851C41.635,58.95,41.817,59,42,59c0.153,0,0.306-0.035,0.447-0.105l12-6   C54.786,52.725,55,52.379,55,52S54.786,51.275,54.447,51.105z M43,56.382v-8.764L51.764,52L43,56.382z"></path><path d="M11,16v5.184C10.686,21.072,10.352,21,10,21c-1.654,0-3,1.346-3,3s1.346,3,3,3s3-1.346,3-3v-5h6v-2h-6v-1   c0-0.552,0.448-1,1-1h5v-2h-5C12.346,13,11,14.346,11,16z M10,25c-0.552,0-1-0.448-1-1s0.448-1,1-1s1,0.448,1,1S10.552,25,10,25z"></path><path d="M40,19c1.654,0,3-1.346,3-3s-1.346-3-3-3s-3,1.346-3,3S38.346,19,40,19z M40,15c0.552,0,1,0.448,1,1s-0.448,1-1,1   s-1-0.448-1-1S39.448,15,40,15z"></path><path d="M52,15c-1.626,0-3.067,0.976-3.672,2.486l-1.426,3.564l-0.238-0.357C45.957,19.633,44.774,19,43.5,19   s-2.457,0.633-3.164,1.693L36.132,27h23.345l-3.805-9.515C55.067,15.976,53.626,15,52,15z M45.323,25h-5.455L42,21.803   C42.335,21.3,42.896,21,43.5,21s1.165,0.3,1.5,0.803l1.001,1.502L45.323,25z M47.477,25l2.709-6.771C50.484,17.482,51.196,17,52,17   s1.516,0.482,1.814,1.229L56.523,25H47.477z"></path><rect x="5" y="45" width="4" height="2"></rect><rect x="11" y="45" width="16" height="2"></rect><rect x="5" y="49" width="22" height="2"></rect><rect x="5" y="53" width="8" height="2"></rect><rect x="15" y="53" width="12" height="2"></rect><rect x="5" y="57" width="22" height="2"></rect></g></svg>