<svg xmlns="http://www.w3.org/2000/svg" xmlns:xlink="http://www.w3.org/1999/xlink" version="1.1" x="0px" y="0px" viewBox="0 0 100 100" enable-background="new 0 0 100 100" xml:space="preserve"><path d="M54.5,60.57c-0.458,0.364-0.819,0.21-1.214-0.306c-0.364-0.476-1.447-3.125-1.802-2.996  c-0.356,0.13,0.517,2.855,0.543,3.453c0.03,0.648-0.147,1-0.731,1.015c-1.958,0.054-4.137-1.754-5.072-4.328  c-2.524-6.934,0.405-9.662,1.631-10.108c1.227-0.447,5.226-0.239,7.749,6.694C56.541,56.568,56.033,59.354,54.5,60.57z   M25.946,39.605c0.476-0.366,2.207-2.644,2.517-2.426c0.31,0.216-1.239,2.622-1.42,3.193c-0.196,0.621-0.115,1.005,0.446,1.17  c1.875,0.559,4.449-0.623,6.019-2.867c4.233-6.043,2.111-9.438,1.04-10.186c-1.068-0.749-4.985-1.582-9.216,4.461  c-1.571,2.242-1.802,5.065-0.636,6.637C25.043,40.058,25.433,40.001,25.946,39.605z M76.365,54.218  c-0.552-1.183-3.527-3.863-10.212-0.745c-2.483,1.156-4.094,3.486-3.871,5.431c0.066,0.581,0.432,0.726,1.076,0.641  c0.594-0.08,3.232-1.188,3.392-0.843c0.161,0.342-2.384,1.651-2.826,2.056c-0.48,0.439-0.602,0.812-0.199,1.235  c1.345,1.422,4.164,1.685,6.647,0.526C77.058,59.402,76.917,55.402,76.365,54.218z M61.194,33.3c0.56-0.166,0.641-0.55,0.444-1.169  c-0.18-0.571-1.729-2.977-1.419-3.194c0.311-0.217,2.042,2.061,2.517,2.427c0.515,0.398,0.903,0.453,1.251-0.019  c1.167-1.571,0.935-4.395-0.636-6.637c-4.231-6.045-8.147-5.21-9.217-4.46c-1.069,0.748-3.191,4.142,1.04,10.186  C56.745,32.676,59.317,33.859,61.194,33.3z M60.872,51.463c0.083,0.645,0.319,0.957,0.898,0.872  c1.935-0.286,3.768-2.446,4.243-5.143c1.281-7.267-2.077-9.446-3.363-9.671c-1.285-0.227-5.187,0.672-6.467,7.938  c-0.477,2.698,0.506,5.353,2.229,6.284c0.514,0.278,0.843,0.065,1.141-0.513c0.276-0.532,0.883-3.329,1.256-3.263  C61.182,48.033,60.794,50.868,60.872,51.463z M66.686,71.2c-5.652-4.744-9.218-2.924-10.057-1.924c-0.84,1-2.012,4.828,3.641,9.57  c2.098,1.762,4.889,2.238,6.557,1.212c0.498-0.306,0.478-0.698,0.126-1.244c-0.323-0.505-2.441-2.428-2.197-2.72  c0.243-0.29,2.505,1.464,3.058,1.693c0.601,0.25,0.989,0.203,1.205-0.343C69.739,75.628,68.785,72.96,66.686,71.2z M39.298,37.52  c-1.285-0.227-5.186,0.672-6.467,7.938c-0.476,2.698,0.507,5.353,2.229,6.284c0.514,0.278,0.843,0.065,1.141-0.513  c0.276-0.532,0.882-3.329,1.255-3.263s-0.014,2.901,0.063,3.496c0.083,0.645,0.319,0.957,0.898,0.872  c1.935-0.286,3.768-2.446,4.243-5.143C43.943,39.925,40.584,37.746,39.298,37.52z M32.271,59.997  c-7.266-1.279-9.445,2.077-9.671,3.364c-0.227,1.286,0.673,5.187,7.939,6.467c2.696,0.476,5.351-0.506,6.284-2.229  c0.278-0.514,0.063-0.843-0.513-1.141c-0.534-0.277-3.329-0.881-3.262-1.255c0.065-0.374,2.901,0.012,3.494-0.063  c0.645-0.083,0.958-0.32,0.873-0.9C37.129,62.305,34.969,60.474,32.271,59.997z"></path></svg>