<svg xmlns:dc="http://purl.org/dc/elements/1.1/" xmlns:cc="http://creativecommons.org/ns#" xmlns:rdf="http://www.w3.org/1999/02/22-rdf-syntax-ns#" xmlns:svg="http://www.w3.org/2000/svg" xmlns="http://www.w3.org/2000/svg" xmlns:sodipodi="http://sodipodi.sourceforge.net/DTD/sodipodi-0.dtd" xmlns:inkscape="http://www.inkscape.org/namespaces/inkscape" version="1.1" x="0px" y="0px" viewBox="0 0 100 100"><g transform="translate(0,-952.36218)"><path style="text-indent:0;text-transform:none;direction:ltr;block-progression:tb;baseline-shift:baseline;color:#000000;enable-background:accumulate;" d="M 19.8125,958.36438 A 2.0001999,2.0001499 0 0 0 18,960.36433 l 0,83.99787 a 2.0001999,2.0001499 0 0 0 2,2 l 60,0 a 2.0001999,2.0001499 0 0 0 2,-2 l 0,-66.96705 a 2.0001999,2.0001499 0 0 0 -0.75,-1.56246 l -21,-17.03082 A 2.0001999,2.0001499 0 0 0 59,958.36438 l -39,0 a 2.0001999,2.0001499 0 0 0 -0.1875,0 z m 2.1875,3.9999 34.9375,0 L 56,976.20768 a 2.0002,2.00015 0 0 0 1.90625,2.1562 L 78,979.3326 l 0,63.0297 -56,0 0,-79.99802 z m 38.8125,2.0312 L 74,975.11396 60.125,974.45773 60.8125,964.39548 z m -33,25.9681 A 2.0001999,2.0001499 0 0 0 26,992.36353 l 0,38.09277 a 2.0002002,2.0001502 0 0 0 0,0.2188 l 0,3.7811 a 2.0002002,2.0001502 0 0 0 0,0.2188 l 0,1.6874 a 2.0001999,2.0001499 0 0 0 2,2 l 44,0 a 2.0001999,2.0001499 0 0 0 2,-2 l 0,-43.99887 a 2.0001999,2.0001499 0 0 0 -2,-1.99995 l -44,0 a 2.0001999,2.0001499 0 0 0 -0.1875,0 z m 2.1875,3.9999 40,0 0,30.37422 -8.65625,-7.8748 a 2.0002002,2.0001502 0 0 0 -1.65625,-0.5 2.0002002,2.0001502 0 0 0 -1.09375,0.5625 l -6.96875,6.9686 -6.125,-6.8748 a 2.0002002,2.0001502 0 0 0 -1.8125,-0.6563 2.0002002,2.0001502 0 0 0 -0.90625,0.4063 L 30,1026.6127 30,994.36348 z m 12,3.9999 c -3.842304,0 -7,3.15762 -7,6.99982 0,3.8422 3.157696,6.9998 7,6.9998 3.842304,0 7,-3.1576 7,-6.9998 0,-3.8422 -3.157696,-6.99982 -7,-6.99982 z m 0,3.99992 c 1.680543,0 3,1.3193 3,2.9999 0,1.6805 -1.319457,2.9999 -3,2.9999 -1.680543,0 -3,-1.3194 -3,-2.9999 0,-1.6806 1.319457,-2.9999 3,-2.9999 z m 1.75,18.7183 11.8125,13.2809 -25.5625,0 0,-2.7187 13.75,-10.5622 z m 16.3125,0.031 9.59375,8.7185 A 2.0022756,2.0022256 0 0 0 70,1030.1126 l 0,4.2499 -9.09375,0 -6.625,-7.4686 5.78125,-5.7811 z" fill="#000000" fill-opacity="1" stroke="none" marker="none" visibility="visible" display="inline" overflow="visible"></path></g></svg>