<svg xmlns="http://www.w3.org/2000/svg" xmlns:xlink="http://www.w3.org/1999/xlink" version="1.1" x="0px" y="0px" viewBox="0 0 100 100" style="enable-background:new 0 0 100 100;" xml:space="preserve"><path d="M61.65,20.83c0.8-2.71,0.67-5.68-0.48-8.43c-1.81-4.3-5.63-7.06-10.21-7.37c-0.63-0.04-1.29-0.04-1.92,0  c-4.58,0.31-8.4,3.07-10.21,7.37c-1.15,2.75-1.28,5.72-0.48,8.43C23.08,25.76,12,40.11,12,57c0,20.95,17.05,38,38,38s38-17.05,38-38  C88,40.11,76.92,25.76,61.65,20.83z M42.52,13.95c1.21-2.88,3.75-4.72,6.79-4.93C49.54,9.01,49.77,9,50,9s0.46,0.01,0.69,0.02  c3.04,0.21,5.58,2.05,6.79,4.93c1.26,3,0.74,6.39-1.36,8.83L50,29.93l-6.12-7.15C41.78,20.34,41.26,16.95,42.52,13.95z M50,91  c-18.75,0-34-15.25-34-34c0-15.32,10.18-28.29,24.13-32.53c0.22,0.31,0.45,0.62,0.71,0.91l7.64,8.92C48.86,34.74,49.42,35,50,35  s1.14-0.26,1.52-0.7l7.64-8.92c0.26-0.29,0.49-0.6,0.71-0.91C73.82,28.71,84,41.68,84,57C84,75.75,68.75,91,50,91z M48.59,17.41  C48.21,17.04,48,16.53,48,16c0-0.53,0.21-1.04,0.59-1.41c0.74-0.75,2.08-0.75,2.82,0C51.79,14.96,52,15.47,52,16  c0,0.53-0.21,1.04-0.59,1.41C51.04,17.79,50.53,18,50,18S48.96,17.79,48.59,17.41z M76.17,44.4c-1.81-4.3-5.63-7.06-10.21-7.37  c-0.64-0.04-1.29-0.04-1.92,0c-4.58,0.31-8.4,3.07-10.21,7.37c-1.85,4.41-1.08,9.38,2.01,12.98l7.64,8.92  C63.86,66.75,64.42,67,65,67s1.14-0.25,1.52-0.7l7.64-8.92C77.25,53.78,78.02,48.81,76.17,44.4z M71.12,54.78L65,61.93l-6.12-7.15  c-2.1-2.44-2.62-5.83-1.36-8.83c1.21-2.88,3.75-4.72,6.8-4.93C64.54,41.01,64.77,41,65,41s0.46,0.01,0.69,0.02  c3.04,0.21,5.58,2.05,6.79,4.93C73.74,48.95,73.22,52.34,71.12,54.78z M66.41,46.59C66.79,46.96,67,47.47,67,48  c0,0.53-0.21,1.04-0.59,1.42c-0.09,0.09-0.19,0.17-0.3,0.24s-0.22,0.14-0.35,0.19c-0.12,0.05-0.24,0.09-0.37,0.11  C65.26,49.99,65.13,50,65,50c-0.53,0-1.04-0.21-1.41-0.58C63.21,49.04,63,48.53,63,48c0-0.53,0.21-1.04,0.59-1.41  c0.09-0.1,0.19-0.18,0.3-0.25s0.22-0.14,0.34-0.19c0.12-0.05,0.25-0.08,0.38-0.11c0.26-0.05,0.52-0.05,0.78,0  c0.13,0.03,0.25,0.06,0.37,0.11c0.13,0.05,0.24,0.12,0.35,0.19S66.32,46.49,66.41,46.59z M35.95,49.03c-0.63-0.04-1.27-0.04-1.91,0  c-4.58,0.31-8.4,3.07-10.21,7.37c-1.85,4.41-1.08,9.38,2.01,12.98l7.64,8.92C33.86,78.75,34.42,79,35,79s1.14-0.25,1.52-0.7  l7.64-8.92c3.09-3.6,3.86-8.57,2.01-12.98C44.36,52.1,40.54,49.34,35.95,49.03z M41.12,66.78L35,73.93l-6.12-7.15  c-2.1-2.44-2.62-5.83-1.36-8.83c1.21-2.88,3.75-4.72,6.79-4.93C34.54,53.01,34.77,53,35,53s0.46,0.01,0.69,0.02  c3.04,0.21,5.58,2.05,6.79,4.93C43.74,60.95,43.22,64.34,41.12,66.78z M36.96,59.61C36.99,59.74,37,59.87,37,60  c0,0.53-0.21,1.04-0.58,1.41C36.04,61.79,35.53,62,35,62s-1.04-0.21-1.41-0.59C33.21,61.04,33,60.53,33,60  c0-0.13,0.01-0.26,0.04-0.39c0.02-0.13,0.06-0.25,0.11-0.38c0.05-0.12,0.12-0.23,0.19-0.34c0.07-0.11,0.15-0.21,0.25-0.3  c0.46-0.47,1.15-0.69,1.8-0.55c0.13,0.02,0.25,0.06,0.38,0.11c0.12,0.05,0.23,0.12,0.34,0.19s0.21,0.15,0.31,0.25  c0.09,0.09,0.17,0.19,0.24,0.3c0.08,0.11,0.14,0.22,0.19,0.34C36.9,59.36,36.94,59.48,36.96,59.61z"></path></svg>