<svg xmlns="http://www.w3.org/2000/svg" xmlns:xlink="http://www.w3.org/1999/xlink" version="1.1" x="0px" y="0px" viewBox="0 0 64 64" enable-background="new 0 0 64 64" xml:space="preserve"><g><path d="M50.73,17c-3.517,0-6.378,2.861-6.378,6.378c0,1.427,0.488,2.831,1.376,3.954l5.002,6.289l5.005-6.292   c0.886-1.12,1.374-2.524,1.374-3.951C57.108,19.861,54.247,17,50.73,17z M50.73,25.756c-1.311,0-2.378-1.067-2.378-2.378   c0-1.311,1.067-2.378,2.378-2.378c1.311,0,2.378,1.066,2.378,2.378C53.108,24.689,52.041,25.756,50.73,25.756z"></path><path d="M32,30.379c-3.517,0-6.378,2.861-6.378,6.378c0,1.427,0.488,2.831,1.376,3.954L32,47l5.005-6.292   c0.886-1.12,1.374-2.524,1.374-3.951C38.378,33.24,35.517,30.379,32,30.379z M32,39.135c-1.311,0-2.378-1.067-2.378-2.378   c0-1.311,1.067-2.378,2.378-2.378c1.311,0,2.378,1.066,2.378,2.378C34.378,38.068,33.311,39.135,32,39.135z"></path><path d="M13.27,17.167c-3.517,0-6.378,2.861-6.378,6.378c0,1.427,0.488,2.831,1.376,3.954l5.002,6.289l5.005-6.292   c0.886-1.12,1.374-2.524,1.374-3.951C19.648,20.028,16.787,17.167,13.27,17.167z M13.27,25.923c-1.311,0-2.378-1.067-2.378-2.378   c0-1.311,1.067-2.378,2.378-2.378c1.311,0,2.378,1.066,2.378,2.378C15.648,24.856,14.581,25.923,13.27,25.923z"></path><g><path d="M31.498,28.437l0.895-0.149l8.091-1.671l5.152,14.782l-7.883,1.457l-2.063,2.594l10.671-1.973l0.753-0.139l1.978,0.353    l13.927,2.487L55.734,30.42l-1.514,1.904l5.076,10.982l-11.026-1.97l-4.976-14.274c-0.453-0.914-0.735-1.908-0.829-2.925    l-0.202-0.034l0,0c-0.126-0.021-0.255-0.019-0.38,0.007l-2.122,0.438l-7.368,1.52l-0.834,0.172l-0.106-0.022l-1.568-0.329    l-5.744-1.204l-2.475-0.52l-0.117-0.024c-0.093,1.285-0.488,2.538-1.144,3.644l-4.756,13.644L4.604,43.61l4.909-11.455    l-1.537-1.932L0.982,46.543l13.837-2.736l2.358-0.467l0.431,0.084l10.766,2.106l-2.086-2.623l-7.957-1.555l5.089-14.598    l6.465,1.356L31.498,28.437z"></path></g></g></svg>