<?xml version="1.0" encoding="UTF-8"?>
<svg width="1200pt" height="1200pt" version="1.1" viewBox="0 0 1200 1200" xmlns="http://www.w3.org/2000/svg">
 <path d="m709.15 1153.5c-0.73047 0-1.4414-0.12109-2.1367-0.39453l-14.09-5.3633-11.965-3.8867c-15.238-5.0391-17.977-31.453-18.371-36.707-0.14453-1.9453 0.68359-3.8398 2.1953-5.0898l3.1797-2.6055c0.70703-9.3945 2.6055-19.645 5.6523-30.492 7.668-27.395 10.367-53.258 12.168-70.332 1.5352-14.652 2.3164-21.301 4.6445-25.031 2.9414-7.0781 4.3906-73.715 2.5078-81.984-1.4023-0.91016-11.988-3.2773-17.195-3.2773-5.7734 0-18.77-3.4453-22.812-9.1211-0.9375-1.3086-2.1016-2.5078-3.1445-3.5898-1.4531-1.5469-2.832-3-3.7812-4.6445-1.4531-0.9375-3.4219-2.3633-4.8477-5.6055 0 0.16797-0.67188-0.27734-1.1172-0.53906-5.9766-3.6836-5.7734-7.8242-4.5586-10.668 0.39453-0.91016 0.32422-3.2148-0.097657-3.9102-1.1406-1.2227-3.2266-4.1523-5.3398-7.1992-1.7539-2.5078-3.5156-5.0898-4.7539-6.5391-2.3047-2.293-17.051-9.4688-20.207-10.285-5.4844-1.4023-11.508-6.1211-11.891-12.07-0.035156-0.39453-0.23828-1.2617-0.43359-2.2578-1.1992-5.8555-1.8711-10.262 0.26563-13.715 0.38281-0.63672 0.79297-1.7539 1.2617-2.9023 0.91016-2.2578 1.7383-4.2617 2.7969-5.832-0.046875-0.070313-0.097656-0.12109-0.13281-0.19141-1.0938-1.5469-2.2188-3.1211-2.3047-5.3633-0.625-5.3398-0.83984-13.402 1.5703-20.387 0.94922-2.7852 1.6797-6.168 2.375-9.3242 1.4648-6.707 2.5312-11.555 5.4961-14.27 0.74219-0.68359 1.668-1.668 2.6641-2.7227 3.8047-4.0781 6.6367-6.8867 9.7188-7.9453 0.34766-0.51562 0.76953-1.1055 1.3203-1.668 0.20313-3.707-0.33594-12.938-1.1289-21.539l-0.88672-0.37109c-1.4414-0.63672-2.5938-1.7773-3.1914-3.2383l-2.4102-5.8555c-0.67188-0.27734-1.5859-0.66016-2.5195-1.0078l-1.5859 0.86328-9.0977 9.793c-1.0547 1.2461-2.5547 1.9688-4.1758 2.0898-1.5352 0.097656-3.1914-0.46875-4.3906-1.5469-1.8594-1.668-5.5664-3.8398-7.8711-5.1133-2.4375 0.25391-4.7539 0.5625-5.4258 0.76953-0.53906 0.14453-1.3555 0.27734-1.9219 0.27734-4.1289 0-6.2031-3.3242-8.2188-6.5391-0.55078-0.88672-1.4531-2.3398-2.207-3.3008-0.097656 0.070313-0.20312 0.14453-0.27734 0.19141-1.2852 0.86328-3.2266 2.1602-5.8555 2.1602-3 0-5.5938-1.5977-7.6797-4.7383l-2.1016-3c-2.4258-3.3945-4.7266-6.6133-5.1016-10.824-0.75781-3.0703-7.7383-13.152-11.375-13.895-2.2422-0.44531-3.7578-0.53906-4.9336-0.53906l-2.0156 0.023437c-1.7539 0-3.7188-0.16797-6.1562-1.3789-3.7812 0.34766-6.8281-1.5977-10.129-4.7773-5.1953-4.9922-15.238-14.676-19.934-16.668-1.7539-0.14453-3.2891 0.21484-4.9688 0.66016-3.6836 0.98438-8.9648 2.4375-16.488 1.7539-13.273-1.1055-43.332-15.301-46.727-16.922l-7.3086-1.9219c-0.5625-0.16797-1.0938-0.39453-1.5859-0.70703l-10.223-6.4219c-0.058594 0-11.711-6.1211-13.285-18.469-0.52734-4.1406-0.51562-7.7773-0.49219-11.102 0.023437-3.8984 0.046875-6.9844-0.98438-9.5039-1.0312-2.5078-5.5078-9.5625-9.1094-15.238-6.5508-10.297-8.8555-14.113-9.5508-16.703-2.1953-1.7266-5.0156-4.1758-4.8477-8.5312 0.058594-1.2461-0.12109-3.0859-0.28906-4.5117-2.1367-2.0625-4.0312-3.9844-5.7344-5.7734 0.94922 3.0469 2.125 6.4922 2.5547 7.3555 0.27734 0.30078 1.6562 2.125 2.3164 9.7812 0.16797 0.35938 0.82813 2.0156 1.2227 2.4844 2.9297 2.0508 4.4531 5.0508 4.7266 5.6289 0.30078 0.63672 0.48047 1.3086 0.55078 2.0039l0.33594 3.9375c0.12109 1.3906-0.19141 7.6797-0.19141 7.6797-0.14453 2.9766-2.4609 5.3633-5.4375 5.6523l-2.0156 0.19141c-1.0078 0.085938-2.1836-0.085937-3.1562-0.57422-5.207-2.4961-6.6836-5.0156-7.1406-6.9102-0.35938-0.67188-0.98438-1.5977-1.6211-2.5664-2.0508-3.1797-3.2539-5.1133-3.6602-7.0547-0.67188-1.0195-1.5234-2.543-2.0742-5.1367-1.4531-7.0938-2.1484-10.934-2.4258-13.246-0.25391-0.10938-0.52734-0.23828-0.85156-0.37109-2.7617-1.1641-7.5586-4.1289-7.5586-4.1289-2.2578-1.3789-3.3008-4.0781-2.6289-6.6367-0.79297-1.2461-1.0664-2.7344-1.1055-4.0664-0.21484-0.39453-0.38281-0.82812-0.52734-1.3086-0.40625-1.332-0.75781-4.0195 1.4141-6.8867-0.26562 0.25391-0.33594-0.875-0.35938-1.6328-0.023437-1.1992-0.035156-2.3164 0.070313-3.2266 0.011719-0.15625 0.011719-0.34766 0-0.58984-2.5078-1.6094-5.6875-4.3555-6.8633-8.4961-0.37109-1.3906-0.83984-4.4023-1.3789-8.1484-0.71875-5.0508-2.6406-18.457-4.4141-21.086l-1.7773-1.7773c-1.7148-1.7539-1.7148-1.7539-3.625-2.7969-0.57422-0.3125-1.0664-0.51562-1.4883-0.69531-4.2617-1.8008-6.0117-4.2227-6.9102-9.5508-0.83984-5.2695-2.6992-21.383-2.4727-28.906 0.16797-4.7539-1.3789-16.129-2.1953-21.434-1.2227-3.4219 0.91016-8.3047 3.1445-13.402 1.6445-3.7305 2.5938-6.1914 3.3359-8.1719 1.0547-2.7734 1.8125-4.7383 3.3125-7.4648l1.5469-2.8203c2.1719-3.9609 4.8594-8.8789 6-12 0.85156-2.2578 2.1602-9.2148 3.0117-13.812 0.74219-3.9375 1.4023-7.3438 1.8125-8.6758 0.023438-0.44531-0.43359-2.1016-0.68359-2.9766-0.51563-1.8008-0.98438-3.5039-0.73047-5.3867 0.13281-0.81641 0.097656-2.0625-0.32422-3.5039-0.16797-0.33594-0.66016-1.0938-1.1758-1.9453-2.1836-3.6133-4.668-7.6914-3.9727-11.855 0.16797-0.91016 0.26563-1.8008 0.37109-2.6875 0.30078-2.5078 0.60156-4.9062 1.6445-6.9492 0.34766-0.78125 0.86328-1.4766 1.3906-2.1016 0-0.011718 0-0.011718 0.011719-0.011718 0.28906-0.35938 0.60156-0.69531 0.88672-0.99609-0.046875-0.35938-0.22656-3.4805-0.75781-5.8438-0.17969-0.78125-0.20313-1.6094-0.058594-2.3984 0 0 0.66016-3.5898 1.7773-6.6953 0.57422-1.5586 1.5977-6.2656 2.1367-9.1445l0.33594-3.3125c-1.332-2.1602-2.0898-5.2305-1.4648-9.2539 0.25391-1.668 0.097656-2.8789-0.058594-4.1641-0.23828-1.8711-0.5625-4.6094 1.0781-7.2734 0.17969-1.0781 0.25391-3.4336 0.30078-4.9062 0.15625-4.6211 0.28906-7.1172 1.5586-9.2148 0.23828-0.40625 0.43359-1.6914 0.58984-2.7227-0.023438-1.1641-1.2344-4.1406-1.7383-5.4102-0.35938-0.76953-1.0312-1.5859-1.668-2.4375-2.1836-2.9414-4.4414-5.9883-4.043-9.625-0.046875-0.74219-0.9375-4.7539-1.9219-8.2812-0.12109-0.64844-0.23828-1.2969-0.34766-1.957-3.0977 1.9688-4.6797 2.125-5.3984 2.1953l-0.99609 0.25391c-2.4102 0.60156-4.5586 1.0938-6.4336 1.0938-1.6328 0-4.1289-0.91016-5.3516-2.125-0.78125 0.76953-1.7539 1.4414-2.9297 1.8711-1.2109 0.45703-4.9688 1.6211-6.8047 2.1836l-5.6172 4.2227c-2.0273 1.5977-4.7891 2.2422-7.4531 2.8555-1.0195 0.25391-2.0156 0.42188-2.7109 0.74219-3.0117 1.2969-4.4141 1.9062-7.8477 2.6875-2.207 0.46875-6.0117 0.70703-11.352 0.70703l-1.7383-0.011719c-1.9453-0.035156-3.7578-1.0078-4.8594-2.6172-1.7031-2.4844-3.3711-6.1914-1.7148-9.6953 0.89844-1.9336 3.6484-3.7422 5.7617-3.9258 1.8828-0.16797 2.6172-0.22656 4.5-0.66016 1.0195-1.2227 2.7969-2.9766 6.1094-3.2539 0.43359-0.10937 1.9219-0.875 2.9414-1.5859 3.2773-2.5078 5.4609-3.457 6.793-3.8398 0.75781-0.79297 1.5352-1.5586 2.5781-2.2305 0.085938-0.058593 0.19141-0.12109 0.30078-0.19141 0.20312-0.14453 0.43359-0.28906 0.61328-0.40625-0.34766-1.9336-0.53906-3.9961 0.49219-7.2461 0.23828-0.71875 0.37109-2.3047 0.51563-3.7188 0.39453-4.2617 0.94922-10.105 4.7539-14.855 1.2617-1.6211 2.125-2.9141 2.8203-3.9844 1.5977-2.4258 3.1094-4.7148 6.5625-6.4453 1.7148-0.85156 2.7109-1.1406 3.5039-1.332 0.035157-0.035156 0.43359-0.3125 1.0781-0.78125 3.6602-2.6055 7.4141-4.8008 9.1094-5.5664 1.2617-0.57422 3.0469-0.80469 4.5469-0.34766 0.16797-0.058593 0.38281-0.14453 0.63672-0.23828 2.0898-0.74219 3.1797-1.2734 4.043-1.7266 0.55078-0.26562 1.1055-0.55078 1.7539-0.81641-1.0938-3.3008-2.4258-8.3164 1.5977-11.746 0.66016-0.55078 1.0938-0.97266 1.4766-1.3438 1.1172-1.0547 2.3633-2.2578 4.8594-3.3945 0.55078-0.25391 1.1875-0.74219 1.8477-1.2461 1.0781-0.83984 2.3047-1.8008 3.9727-2.3984 2.9766-1.043 6.3594-1.8125 8.9023-0.66016 0.44531-0.73047 0.99609-1.5117 1.7031-2.3984 0.88672-1.1289 1.1289-1.5 1.3203-1.8477 0.63672-1.1523 1.2227-2.0742 3.9492-5.2305 1.6445-1.8945 1.9453-2.5781 2.0508-2.7852 1.4414-3.168 3.8164-3.7695 5.3867-4.1875 3.2656-1.1055 5.375-1.5586 7.957-0.80469 0.20312-0.19141 0.58984-0.44531 1.0078-0.69531 1.8945-1.1641 4.5117-2.7344 7.7031-3.7422 3.1797-1.0195 6.1445-1.0938 7.8477-0.80469 1.1641-0.45703 2.2812-0.67188 3.5039-0.67188 1.957-0.33594 3.1211-0.625 4.3906-0.625 2.4609 0 5.8203 1.0312 7.7656 5.9414 0.21484 0.50391 1.4141 1.9219 2.293 2.9648 1.1055 1.2969 2.2188 2.6406 3.1094 3.9844 1.6562 2.543 2.0898 3.6719 2.6289 5.4727l1.3906 4.1992c0.50391 1.5703 1.043 3.2031 1.5469 3.9492 1.5234 2.1719 2.6055 4.8828 3.5625 7.2734l0.33594 0.83984c0.85156-0.27734 1.8008-0.48047 2.832-0.5625 2.5078-0.21484 4.4141-0.3125 5.9414-0.38281 1.5117-0.085938 2.8086-0.14453 3.2891-0.27734 0.26562-0.097656 0.63672-0.28906 1.0195-0.48047 1.3906-0.70703 3.4922-1.7539 6.4336-2.0039l5.9766-0.53906c0.19141-0.011719 1.5234-0.17969 1.7148-0.17969 4.9922 0 8.6758 3.5039 9.1445 8.7227 0.15625 1.7383 0.46875 3.625 0.75781 5.1719 1.5703 0.74219 3.0234 1.8125 3.9727 3.3945 0.80469 0.96094 4.3789 4.1172 4.3789 4.1172l3.6836 4.1289c0.51562 0.61328 0.92578 1.2969 1.1758 2.0625 0.13281 0.38281 0.76953 2.3867 0.94922 4.2344 0.046874 0.63672 0.023437 1.3203-0.13281 2.0898 1.8945-0.37109 3.2891-0.81641 3.3008-0.82812 0.44531-0.14453 0.91016-0.25391 1.3672-0.27734h0.097656c2.6875 0 4.7266 0.625 6.2031 1.6094 1.2227-0.50391 2.2812-0.96094 2.9883-1.2969 1.8711-3.0352 4.2461-6.4922 8.5664-6.4922 2.2578 0 4.332 1.0312 5.8789 2.9141 2.0391 2.6055 2.0391 2.6055 2.9023 2.9648 1.5469 0.28906 2.6875 0.61328 5.2578 1.8477 2.3633 1.1289 4.5352 1.6914 6.2148 2.1484l2.1836 0.61328c0.17969 0.058594 0.33594 0.12109 0.49219 0.17969 2.1602-2.2578 5.3984-2.2188 8.0508-1.0664 1.9336 0.81641 3.3008 2.1836 4.2461 3.6484 0.53906-0.32422 0.83984-0.46875 1.043-0.57422 1.0195-1.3203 1.2734-1.7266 1.7773-2.7852-1.6797-1.8008-2.9531-4.1875-3.2656-8.1953 0-0.058593-0.011718-0.058593 0.097657-0.058593-0.82812-0.83984-1.4766-1.9062-1.7266-2.9766-0.66016-2.7969 0.66016-4.6914 2.1719-6.8516 0.98438-1.3789 1.5352-2.2812 2.0156-3.0977 1.0312-1.6914 1.8594-3.0586 4.4766-6.0977-0.875-2.1016-1.7031-5.3516 0.625-9.168 1.0938-1.8008 1.8125-3.1445 2.4492-4.3086 0.81641-1.5352 1.5234-2.832 2.5781-4.4297 0.39453-0.625 0.61328-1.1406 0.80469-1.5859 0.82812-1.9453 1.8125-3.8398 4.6211-5.8789 1.957-1.4414 3.5625-2.6289 5.4727-3.3711-5.2695-2.6406-5.8789-6.2383-5.6758-8.4102 0.035156-0.44531-0.035157-0.94922-0.070313-1.4297-0.17969-2.1836-0.42188-5.1719 1.7773-7.5586 1.1406-1.2344 3.1797-2.1133 4.8477-2.1133 0.023438 0 1.2344 0.10938 1.2461 0.12109 0.61328 0.10937 2.8086 0.70703 5.125 1.7656-1.1641-1.7539-1.8594-4.0078-1.8125-6.7188-0.058594 0.25391-0.30078-0.16797-0.51562-0.55078-1.5859-2.9414-5.2812-9.8516 3.0469-18.254 7.7656-7.8359 11.219-11.219 13.98-13.055 0.71875-0.45703 1.5-1.1055 2.3867-1.8125 3.0234-2.4102 6.4688-5.1602 10.02-5.9297 0.30078-0.070312 0.81641-0.39453 1.3555-0.74219 1.4023-0.89844 3.5273-2.2578 6.5273-2.2578 0.40625 0 1.6094 0.12109 1.9922 0.20312 4.0195 0.81641 11.051 2.2578 11.578 9.1445 0.070312 0.73047 0.17969 1.5586 0.28906 2.3984 0.30078 2.293 0.625 4.668 0.37109 6.8281 0 0-1.7891 11.746-5.5664 14.93-0.046875 0.046875-0.91016 0.74219-0.96094 0.78125-0.46875 0.35938-1.5352 1.2109-2.1836 1.7891l-1.0312 4.4883c0.99609 4.3438 0.92578 7.7031-0.21484 9.9844-0.64844 1.4297-1.6914 2.5078-2.5195 3.2539-0.14453 1.4023-0.51563 3.4688-1.2852 6.7578-0.58984 2.5195-2.7344 4.3672-5.3164 4.5977-0.10938 0.011719-0.21484 0.011719-0.3125 0.023438 0.52734 0.98437 0.76953 2.1133 0.69531 3.2539-0.12109 1.5586-0.33594 2.9023-0.66016 4.0547 0.88672 0.26562 1.6914 0.60156 2.3984 0.99609 2.8203 1.5859 5.5312 3.1562 7.9688 4.7539 1.5 0.97266 3.3359 2.543 5.1602 4.1406 1.0938 0.96094 2.1953 1.9336 3.1914 2.6875 1.1055 0.80469 2.4375 1.6562 3.7578 2.4844 1.6914 1.0781 3.3711 2.1484 4.8125 3.2383 0.64844 0.48047 1.8945 0.94922 3.2266 1.4414 1.7383 0.66016 3.7188 1.3906 5.6641 2.6523 3.8867 2.4375 5.293 8.3516 7.1523 17.809 0.23828 1.1641 0.42188 2.1836 0.58984 2.9297 1.6211 1.4023 6.3359 5.1719 8.4609 6.6367 1.5-0.13281 2.2812-0.19141 3.0586-0.19141 6.2656 0 8.9023 3.8984 9.9102 6.2266 1.957 4.3789 4.5859 12.348 4.8359 14.652 0.46875 2.0156 1.1875 4.9922-0.70703 7.6211 0.085938 0.058594 0.17969 0.12109 0.25391 0.19141 1.9336 1.5117 3.8281 4.3438 3.3828 7.7891-0.28906 2.2305-1.6211 5.2812-6.3242 7.3086-0.22656 0.097656-0.44531 0.17969-0.67188 0.26562 2.0039 1.9805 4.0078 4.5703 3.2539 8.1133-0.64844 2.9531-2.9023 5.0742-6.7305 6.3008-2.0156 0.63672-3.1797 0.875-4.7656 0.73047-0.49219 0.26562-1.1289 0.64844-1.9219 1.1172-1.1055 0.64844-2.125 1.1992-3.1094 1.6562 0.058593 0.17969 0.10937 0.34766 0.15625 0.51563 0.71875 2.6289 0.58984 4.5859 0.42187 5.8789 2.3164 1.9922 4.4531 3.0859 6.7188 3.5625 1.2461 0.26562 2.5547 0.68359 3.7422 1.1172 0.21484-1.4297 0.96094-2.7969 1.7539-4.2734 0.44531-0.82812 0.43359-1.2617 0.42188-1.7773-0.046875-1.6211 0.61328-3.7695 1.7383-4.9336 1.1406-1.1758 2.7461-1.8477 4.3672-1.8477 2.4375 0 3.8984 1.3086 5.1953 2.4727 2.3398 2.1016 3.8516 4.3555 5.6055 6.9609 0.73047 1.0938 1.5352 2.293 2.5195 3.6602 1.6445 2.2422 3.2656 5.2188 4.7539 7.9805 0.9375 1.7383 2.3516 4.3555 2.9531 5.0156 1.8359 1.6562 2.6523 3.9844 3.5039 6.4688 0.42188 1.2227 1.2109 3.4922 1.7773 4.0312 0.28906-0.12109 0.875-0.058594 1.2617-0.058594 0.78125-0.070312 1.1641-0.10938 1.5977-0.10938 1.5859 0 3.1094 0.42188 5.3516 1.1992 2.5195 0.86328 5.3164 1.9062 7.6797 2.7852 0.35938 0.13281 0.71875 0.25391 1.0547 0.38281 0.86328-0.58984 1.8359-0.9375 2.8438-0.9375 5.543 0 6.0234 5.4375 6.2266 7.7656l0.046875 0.64844c1.4141 0.43359 2.5547 0.67188 3.5039 0.86328 1.6562 0.33594 3.3594 0.70703 5.2422 1.6914 4.5234 2.3164 5.6641 6.9375 6.4062 9.9844 1.1172 4.6094-2.0156 9.0352-4.0938 11.977-1.2852 2.2578-2.543 3.2656-3.3711 3.8398-0.76953 3.6602-2.8203 9.3008-5.0625 12.707-2.832 5.3633-6.168 6.3008-12.66 7.2344-2.1484 0.28906-4.2969 0.49219-6.3945 0.67188 3.9844 3.8867 2.0156 8.2188 0.25391 12.07-1.1055 2.4102-2.3867 4.1172-3.6133 5.3633 0.21484 0.21484 0.42188 0.42188 0.66016 0.64844 0.69531 0.71875 1.2617 1.4297 1.7031 2.1719 1.4297 0.25391 1.8359 0.22656 2.3164 0.22656 1.7031 0 2.5664 0.37109 5.0508 1.4297 4.4023 1.8828 7.6797 2.7461 7.8594 2.7969 2.3867 0.63672 4.1641 2.6758 4.4531 5.125 0.011719 0.10938 0.17969 1.5703 0.52734 2.7227 1.3789 4.1641-1.5586 7.4648-6.875 13.477-1.4297 1.6211-2.8086 3.1094-3.3594 3.9844-1.1172 2.4375-8.3867 12.301-15.254 14.242-0.38281 0.10937-0.73047 0.35937-1.2852 0.81641-0.99609 0.78125-2.6523 2.1016-5.1367 2.1016-5.293 0-6.8516-5.2812-7.4531-7.2617-0.22656-0.75781-0.35937-1.5-0.44531-2.2422-0.30078 0.19141-0.61328 0.37109-0.9375 0.5625-1.4648 0.85156-2.5312 1.3438-3.4219 1.7539-1.1055 0.51562-1.1758 0.53906-1.8242 1.2227l-1.4531 1.5117c-0.48047 0.48047-0.9375 0.91016-1.2969 1.3086-0.097656 0.79297-0.26562 1.5469-0.45703 2.3633-0.17969 0.73047-0.49219 2.0898-0.48047 2.5664 0.27734 1.0547 0.51562 2.0391 0.60156 3.0703 0.14453 0.23828 0.25391 0.45703 0.33594 0.70703 1.5469 4.0195-0.38281 5.7617-6.1328 10.934-5.7969 5.2578-10.512 5.7344-13.273 5.8203-0.875 1.5586-0.98438 2.0273-1.5234 4.4766-0.91016 4.1289-1.5586 6.457-2.2578 8.7461-0.5625 2.0625-1.7773 3.4805-2.6641 4.5117-0.70703 0.82812-1.2734 1.5-1.8125 2.9414 0.875 1.7891 1.1641 4.2109 0.3125 5.8789-2.2578 4.5234-7.957 3.3477-9.4062 3.5625-0.44531 2.9141-0.75781 7.3203-0.79297 10.176 4.4883 5.2188 0.86328 10.488-0.35938 12.266-0.82812 1.1992-1.2344 1.8242-1.4023 2.2305-0.49219 2.0898-1.7383 3.0703-3.625 4.5586-1.3086 1.0547-2.3164 2.0039-3.3125 2.9531-1.2461 1.1758-2.4961 2.3516-4.1758 3.6953-1.1875 0.92578-2.3516 1.7031-3.4805 2.4258-0.91016 0.58984-2.293 1.4766-2.4961 1.8594-1.1523 2.2695-3 4.2734-4.4883 5.8906-0.46875 0.52734-0.91016 0.97266-1.1758 1.332-0.32422 0.70703-1.1406 1.7031-2.0039 2.7461-0.50391 0.625-1.1055 1.2734-1.4141 1.8828 0.046875 0.69531-0.66016 1.9062-1.0664 2.6406l-6 2.543 5.9023-1.043c0.40625 2.3047 0.57422 4.9219 0.71875 7.2344 0.070312 1.2109 0.10938 2.293 0.21484 3.0859 0.9375 1.6328 1.5 3.7812 2.2305 6.8516l0.43359 1.7539c0.53906 2.2188 2.4375 7.043 3.0352 8.0625 0.78125 1.332 3.3828 4.2969 3.4336 4.332 0.88672 1.043 1.4023 2.3516 1.4531 3.7422 0.085938 2.6523 0.070312 9.2383-1.8242 12.91-0.011719 5.6875-5.2188 7.0664-7.4414 7.668-0.50391 0.13281-1.7539 0.28906-2.2812 0.28906-5.8906 0-10.523-5.3984-15.133-11.426-0.22656-0.27734-0.42187-0.55078-0.60156-0.78125-4.8242-1.7539-5.2305-6.9375-5.3984-9.2656l-0.33594-3.8516c-0.66016-1.3789-1.6094-3.7578-2.207-6.7812-0.13281-0.66016-0.21484-1.2734-0.27734-1.8828l-0.875 0.070313c-1.5352 0.97266-4.1406 1.9922-9.5508-0.3125-5.7344-2.4102-7.9922-3.9609-10.609-6.2891-0.66016-0.57422-1.668-0.55078-4.1172-0.32422l-9.4062 0.78125c-0.023437 0.14453-0.046875 0.27734-0.070312 0.42187-1.0547 4.6094-4.6797 7.6797-9.4805 8.1484-1.1172 0.097656-2.1133 0.12109-3.0859 0.15625-0.82813 0.023438-1.6562 0.035156-2.5195 0.12109-1.3906 2.0508-3.6836 2.8438-5.6172 2.8438-1.8008 0-3.8047-0.57422-7.668-2.1953-3.3359-1.4141-5.6523-2.5938-7.4414-3.5039-1.5234-0.78125-2.7344-1.3906-3.1797-1.3906l-2.1133 0.3125c-0.73047 0.39453-1.9453 1.0312-4.2227 2.0625-5.293 2.3984-14.16 8.3281-16.883 10.633-0.25391 0.57422-0.58984 1.1523-1.0664 1.7148 1.0781 1.1172 3.793 3.7422 3.793 7.8359 0 1.8828-0.63672 4.7148-3.5898 7.4531-2.125 1.957-3.6367 2.9297-4.7383 3.6016-0.42188 0.96094-0.91016 1.6914-1.3555 2.2422 0.83984 3.4453 0.86328 5.9414 0.88672 8.1602 0.011718 1.0938 0.023437 2.2422 0.14453 3.5625l1.1055 13.211c-0.011719-0.011718 0-0.023437 0-0.023437 0.046875 0 0.68359 1.5977 4.4531 5.0039 3.9727 3.5391 5.8203 5.7109 8.2305 10.727 0.21484 0.43359 0.625 1.2734 0.875 2.3516 2.375 1.3789 5.7227 1.9453 8.0039 2.3398 1.3906 0.23828 2.5195 0.45703 3.2266 0.69531 1.5859 0.51563 2.293 0.74219 5.0273 0.85156l1.6445 0.035156c2.5195 0 5.2695-0.21484 9.2383-0.55078 4.5352-0.38281 5.3398-0.85156 5.7461-1.2461 0.25391-0.25391 0.5625-0.50391 0.88672-0.73047 1.1172-2.6172 1.7383-4.4766 2.1953-5.8672 0.94922-2.8672 1.8477-5.5781 5.2578-7.9062 1.3438-2.5078 3.5039-4.0078 8.4844-6.0859 2.4258-1.0078 4.3086-2.1133 5.7969-2.9766 2.3984-1.3789 4.4766-2.5781 7.0312-2.5781 3.2383 0 5.9414 1.9688 7.2461 5.2578 1.668 3.9844 1.7891 5.7969 1.4297 8.5664-0.27734 2.7109-0.83984 4.1875-1.332 5.4844-0.25391 0.63672-0.52734 1.3789-0.82812 2.4102-0.42188 1.332-0.53906 1.8594-0.64844 2.3984-0.16797 0.76953-0.32422 1.5469-0.88672 3.3477l-1.1172 3.2383c-0.52734 1.5-1.0195 2.832-1.3555 4.3086-0.52734 2.3398-1.3672 5.9766-1.5586 7.9688-0.070313 0.66016-0.35938 1.9688-0.76953 3.5625-0.13281 0.46875-0.30078 1.1523-0.48047 1.8711 8.2695-0.68359 18.898-1.2852 21.59-0.81641 6.2656 1.1523 19.609 17.723 20.594 20.762 0.99609 2.832-0.13281 5.4844-0.875 7.2227-0.22656 0.53906-0.5625 1.332-0.60156 1.6445 0.085938 1.0312 0.085938 2.7227 0.085938 4.5703 0 1.8711 0 5.1602 0.15625 6.6133 0.48047 0.83984 0.73047 1.5234 0.875 2.0156 1.1641 1.4531 3.0469 3.9375 3.9258 5.0898 0.9375 0.73047 2.6875 2.1133 4.0195 3.2773 1.1406 0.96094 5.5195 3.0469 6.9961 3.2148 2.4844 0.14453 3.5508 0.49219 7.0664-0.53906 1.0078-0.34766 2.9141-1.5234 5.0625-2.7617 10.223-5.832 16.129-7.6445 19.922-3.7422 2.7227 2.7617 2.7852 6.3477 2.832 8.9766 0.023438 0.86328 0.046875 2.293 0.23828 2.7227l1.0078 0.88672c2.2578-6.1211 3.3242-7.4297 4.1523-8.1602 0.28906-0.61328 0.73047-1.4297 1.3789-2.6289 2.8086-5.1367 3.7578-6.5625 8.832-8.3867 0.92578-0.32422 1.7773-0.53906 2.6289-0.61328 0.45703-0.39453 1.0664-0.96094 1.8828-1.7148 10.234-9.5156 12.539-10.379 13.656-10.801 0.13281-0.12109 0.83984-0.68359 1.6211-1.2617 2.9766-2.2305 5.1367-3.8398 7.8828-3.8398 2.375 0 4.8477 1.5977 5.8086 3.7695 0.16797 0.39453 0.28906 0.79297 0.38281 1.1758 1.3906-1.1055 3.3008-1.8945 5.9648-1.8945 3.4453 0.070312 5.3281 0.70703 7.1992 2.4102 4.0547 1.2227 6.7578 2.4102 8.1836 3.0977 1.2344 0.16797 3.4062 0.42188 5.1367 0.42188l13.105-1.0781c5.3164-0.46875 11.195-1.3789 12.539-1.9688 2.1953-2.1367 3.9492-2.8789 7.1992-3.168 5.3867-0.30078 9.0977 1.668 12.898 5.0625l1.2461 1.2227c0.097656 0.097656 0.15625 0.16797 0.17969 0.21484l1.5859-0.14453c2.3398-0.21484 4.6797 1.0312 5.8086 3.1445 0.69531 1.2852 0.875 2.7617 0.57422 4.1523 0.046875-0.023437 0.10938-0.023437 0.15625-0.023437 2.1367-1.332 3.8398-1.5469 8.8789 0.023437l2.8672 0.83984c4.2969 1.2461 8.3633 2.4102 11.398 6.168l1.043 1.2227c0.74219 0.79297 1.2461 1.5234 1.6328 2.2578 1.8594 0.30078 3.6953 0.32422 5.6406 0.98438 4.1055 1.3789 6.3945 1.5469 8.0508 1.3555l2.0508 5.832-0.66016-5.9766c1.3203-0.14453 4.1875-0.44531 7.8594-0.44531 20.016 0 33.719 8.6992 38.688 24.516 4.1523 6.7695 4.9922 12.348 5.1602 14.484 0.83984 0.16797 1.6797 0.37109 2.4844 0.63672 5.5938 1.9219 9.1914 2.1602 11.82 2.3164l2.6172 0.12109c1.9219 0.046875 3.3945 0.14453 7.6328 1.1289 1.7539 0.023438 2.9297-0.23828 4.2461-0.51562 1.7891-0.34766 3.6602-0.74219 5.6289-0.74219 4.8359 0 7.5977 2.3867 9.0469 4.4023 0.38281 0.53906 0.71875 1.0781 0.98438 1.6445 1.5234-0.98438 3.9727-1.5977 10.055-1.6445 3.9375-0.023437 4.9219-0.5625 6.1797-1.2617 2.6758-1.4531 4.9805-2.7461 12.504-1.9219 10.691 1.2227 14.293 1.6445 20.496 6.6367 0.91016 0.74219 1.1875 0.70703 1.5977 0.70703 2.9297 0 5.6875 0.34766 8.6172 2.9531 4.6562 4.1992 6.8281 10.332 6.3359 17.785-0.52734 7.2227-2.8086 13.777-6.6367 19.055-1.3203 1.8477-2.2578 2.9023-3.0703 3.8398-1.2227 1.3789-2.0156 2.3164-4.7031 7.6211-2.293 4.6211-4.9062 7.9922-7.2227 10.945-2.5547 3.2539-4.7539 6.0977-6.4219 10.355-2.1367 5.4375-0.89844 17.629 1.2617 27.277 0.51562 2.2695 0.68359 3.6133-0.058594 5.8789-0.13281 0.39453-0.33594 1.0547-0.57422 2.5078-0.63672 3.8633-2.6172 7.8008-4.2109 10.969-0.71875 1.4297-1.3906 2.6758-1.6914 3.6367-0.69531 2.2305-1.9219 3.9375-3.3359 5.9023-1.5977 2.2305-3.793 5.293-6.5508 10.824-0.26562 0.53906-0.46875 0.96094-0.61328 1.2852 0.5625 1.0312 0.88672 2.1602 0.85156 3.1914-0.14453 3.5391-2.0391 4.7148-7.668 8.2305-3.3125 2.0898-9.3008 5.2578-16.066 8.7852-10.188 5.3398-29.137 15.301-31.738 18.816-0.81641 2.3867-1.9688 4.0312-2.7344 5.1367-0.085937-0.12109-0.14453 0.27734 0.15625 1.7773 0.035157-0.27734 0.57422-0.023437 0.97266 0.16797 1.7539 0.79297 5.375 2.4375 5.8555 6.7305 0.50391 4.5-2.7969 7.9219-9.5156 13.031l-4.6914 3.5898c-8.8672 6.793-8.8672 6.793-11.566 11.699l-2.2695 4.1992c-2.2422 4.1758-2.3984 4.4297-6.0859 9.0703-1.5352 1.9453-2.0742 2.7461-2.4102 3.2773-1.0195 1.5234-1.4766 1.9922-4.7539 5.207-1.4414 1.4531-2.0391 2.1133-2.293 2.4375-0.68359 1.1289-1.2227 1.5469-3.457 3.2539-3.2773 2.4844-5.1133 2.9766-7.3438 3.4219-0.69531 0.12109-1.5586 0.27734-2.9141 0.76953l-2.4492 0.91016c-2.3047 0.86328-3.6953 1.3555-6.0859 1.7148 0.74219 1.3086 1.2344 2.7461 1.332 4.3086 0.15625 2.4375-0.71875 4.7773-2.4375 6.6602-1.5234 1.6445-2.4609 2.7617-3.1562 3.5898-2.125 2.5078-3.1211 3.4922-6.8984 5.3164-1.4297 0.70703-2.375 1.4531-3.2266 2.1133-1.5586 1.1992-3.5039 2.7227-6.6016 3.3711-3.1562 0.70703-9.5156 2.4609-10.633 2.8789-0.625 0.23828-1.8008 0.53906-3.2031 0.86328-0.57422 0.12109-1.4766 0.32422-2.293 0.5625-1.0781 6.0703-3.168 16.477-11.398 17.809-4.1172 0.68359-7.3906-0.21484-9.5273-0.81641-0.13281-0.023437-0.25391-0.070313-0.35938-0.097656-0.48047 0.30078-0.88672 0.58984-1.1992 0.79297-0.035156 3.5156-0.9375 7.7148-1.7031 9.7695-1.332 3.7422-5.0039 6.0703-7.6445 7.5-0.78125 0.39453-1.5469 0.68359-2.2305 0.86328-0.16797 0.73047-0.32422 1.4531-0.46875 2.0625 0.25391 1.2852 0.25391 2.8555-0.20312 4.8008-0.12109 0.51562-0.37109 1.6914-5.1836 14.699 0.023438 0-12.887 39.121-17.82 44.605-1.8242 2.0625-2.3516 2.6523-3.2891 3.2383 0.55078 1.1055 1.1523 2.3867 1.8359 3.8633l15.422 19.922c1.0664 1.3789 1.4883 3.168 1.1406 4.8711-0.35938 1.7148-1.4414 3.1914-2.9766 4.0312l-4.8125 2.6758c-0.78906 0.33594-1.7852 0.59766-2.793 0.59766zm-34.273-44.207c1.2344 9.5391 4.9219 21.516 9.8281 23.137l16.391 5.6055-7.7148-9.9609c-0.26562-0.34766-0.50391-0.73047-0.69531-1.1289 0 0-0.50391-1.1055-1.1406-2.4375-0.085937 0-0.15625 0.023438-0.22656 0.023438h-0.011718c-2.4844 0-4.7773-1.5977-5.6641-3.9102-1.5859-4.1758 1.4531-6.8398 4.3906-9.4453 3.3477-2.9766 4.3438-3.6133 5.207-4.0781l0.52734-0.96094c2.6523-3.6836 13.117-33.324 15.406-40.453 2.3633-6.4219 4.2227-11.531 4.7539-13.262-0.34766-1.0547-0.40625-2.207-0.13281-3.3242 0.011719-0.023438 1.1055-4.4297 1.332-6.0469 0.51562-3.5156 2.9414-5.6992 7.2109-6.4453 2.375-1.0312 2.8438-1.5469 2.8906-1.5977 0.19141-0.70703 0.81641-4.1992 0.70703-5.6992-0.57422-5.7617 4.3906-8.9023 7.0664-10.598 4.4531-2.7852 7.2227-1.8242 9.7578-1.1055 1.1406 0.30078 2.1367 0.58984 3.2539 0.58984 0.88672-0.51562 1.7891-3.5898 2.6992-8.7461 0.34766-1.9688 0.53906-3.0703 1.1055-4.1758 1.8125-3.4453 5.7109-4.3555 10.223-5.3867 0.73047-0.16797 1.3672-0.30078 1.7656-0.44531 1.9336-0.70703 8.9414-2.6055 12.18-3.3242 0.40625-0.070313 0.67188-0.23828 1.8359-1.1523 1.3438-1.0547 2.9141-2.2305 5.293-3.3945 1.8242-0.88672 1.8242-0.88672 2.9648-2.2578 0.49219-0.58984 1.1055-1.3086 1.9062-2.2305-0.96094-0.9375-2.3047-2.0898-3.2539-2.8555-3.707-3.1211-7.5352-6.3477-7.7891-10.895-0.13281-2.2578 0.68359-4.4023 2.2695-6.0977 1.2461-1.3086 3.3125-3.4453 6.4336-3.4453 1.9688 0 5.4609 0.79297 6.625 6.2148 0.097656 0.39453 0.23828 1.0547 0.35937 1.2461 0.14453 0.097656 0.27734 0.16797 0.40625 0.23828 0.875-0.32422 2.0039-0.63672 3.4336-0.74219 2.2578-0.19141 2.6172-0.32422 4.8711-1.1992l2.6523-0.98437c2.2188-0.79297 3.6133-1.0547 4.7539-1.2617 0.98438-0.19141 1.043-0.21484 2.3047-1.1758l1.0664-0.81641c0.53906-0.73047 1.4414-1.7773 3.5039-3.8398 2.8438-2.7852 2.8906-2.8789 3.2266-3.3711 0.42188-0.63672 1.0938-1.6211 2.8906-3.9375 3.2266-4.0547 3.2266-4.0547 5.0039-7.3789l1.9336-3.5625c4.3086-7.8711 5.1367-8.5078 15.215-16.223l4.6797-3.5898c0.79297-0.61328 1.4883-1.1523 2.0625-1.6211-1.7148-1.3555-3.2266-3.2773-3.8047-6.168-1.1875-5.7617-0.38281-8.2305 1.7539-11.27 0.53906-0.76953 1.0195-1.4531 1.5977-3.0234 2.0273-5.4844 11.039-10.969 37.105-24.66 6.4336-3.3711 12.156-6.3711 15.301-8.3398 0.30078-0.19141 0.60156-0.37109 0.86328-0.53906 0.046875-2.1367 0.76953-4.6211 2.1836-7.3789 3.1797-6.3477 5.7852-10.008 7.5234-12.422 0.68359-0.96094 1.5117-2.1367 1.6445-2.4844 0.42187-1.4023 1.332-3.3242 2.4102-5.4609 1.2344-2.4375 2.7461-5.4609 3.0977-7.5234 0.28906-1.8242 0.57422-2.9023 0.78125-3.6367-1.7539-8.0156-4.6445-24.562-0.75781-34.477 2.3047-5.8789 5.2695-9.6836 8.1367-13.355 2.1602-2.7617 4.1875-5.3633 5.9648-8.9297 3.2148-6.3711 4.5234-8.0156 6.3945-10.152 0.625-0.70703 1.3203-1.5234 2.3633-2.9766 3.1797-4.3789 4.1406-9.3945 4.3789-12.84 0.25391-3.6836-0.55078-6.3945-2.3633-8.0391-2.9883 0.12109-6.1211-0.25391-9.7695-3.2773-3.3125-2.6758-3.8516-2.8086-14.305-4.0078-3.1211-0.37109-3.7422-0.37109-5.3281 0.51562-2.5781 1.4023-5.4375 2.6992-11.867 2.7461-3.8398 0.046875-4.8477 0.30078-4.957 0.34766-1.7656 1.1758-3.6133 1.6211-6.8281 1.6211-5.2188-0.14453-8.6992-0.23828-10.188-4.1758-0.23828-0.61328-0.33594-1.2617-0.33594-1.9219-0.33594 0.070312-0.71875 0.16797-1.0938 0.23828-2.7617 0.5625-6.3945 1.1289-9.3711 0.44531-3.3008-0.76953-4.0195-0.79297-5.0898-0.81641-0.625 0-1.2852-0.023437-2.2305-0.070312-3.8984-0.25391-8.8203-0.5625-15.863-3-3.1445-1.0312-7.668 1.1992-7.7031 1.2227-2.4844 1.7773-5.9023 1.4297-7.957-0.83984-2.0508-2.2695-2.0625-5.7227-0.035157-7.9922l4.7539-5.3867c-0.40625-1.7148-1.3438-4.4531-3.4336-7.7383-0.3125-0.46875-0.55078-1.0078-0.71875-1.5469-3.2148-11.09-12.434-16.715-27.406-16.715-3.0703 0-5.4492 0.25391-6.5625 0.37109l-1.4023 0.14453c-3.2266 0.34766-7.2734 0.070313-13.199-1.9219-0.83984-0.30078-1.3789-0.34766-1.6914-0.34766-0.76953 0.34766-3.5039 1.1055-4.3438 1.1055-0.61328 0-6-0.19141-6.6016-6.9102-0.023438-0.32422-0.046875-0.58984-0.070313-0.81641-0.33594-0.37109-0.70703-0.79297-1.1289-1.332-0.61328-0.74219-2.7109-1.3555-5.3633-2.1367l-3.0977-0.91016c-0.26563-0.097656-0.50391-0.16797-0.71875-0.23828-0.67188 0.25391-1.3672 0.42188-2.1484 0.51563-5.6758 1.0781-8.7852 0.27734-13.188-2.9297-2.3047-1.7148-4.6797-3.4453-4.6445-6.3711-0.58984-0.46875-1.0664-0.96094-1.4648-1.3555-2.6172-2.4102-3.793-2.7617-4.4648-2.7617h-0.035156c-0.71875 0.63672-1.6094 1.2617-2.9414 1.9453-3.5391 1.8008-12.109 2.7852-16.895 3.1914l-12.469 1.0547c-0.16797 0.023437-1.4766 0.070313-1.6445 0.070313-3.2773 0-7.8945-0.70703-7.8945-0.70703-0.74219-0.12109-1.4297-0.34766-2.0898-0.73047 0 0-2.1602-1.1992-5.832-2.2695-1.4141-0.42188-2.4844-0.86328-3.3242-1.332-0.33594 0.91016-0.66016 1.668-1.0547 2.4102-0.74219 1.3086-1.6328 2.9297-3.2148 3.8633 0.46875 1.7773 0.64844 3.8398 0.63672 6.4453-0.011719 2.207-1.2461 4.2461-3.2148 5.2695-0.91016 0.46875-7.3438 2.9766-11.555 1.2227-5.832-2.4609-4.9062-9.3945-4.1055-15.539 0.023437-0.12109 0.035156-0.23828 0.058593-0.34766-1.5234 1.2852-3.5273 3.0703-6.0859 5.4375-3.3242 3.0977-5.3281 4.9453-8.4961 4.9453-0.68359 0.097656-1.1055 0.21484-1.4297 0.37109 0.13281 0.097656-0.27734 0.96094-1.0547 2.3633-0.89844 1.6445-1.2734 2.4102-1.4648 2.8086-0.3125 0.68359-1.0312 1.668-1.7148 2.3398-0.75781 1.6211-2.3633 5.9766-3.5391 9.4922-0.97266 2.9297-4.0195 4.6445-7.0547 3.9609l-2.7461-0.66016c1.1172 0.98437 1.8359 2.3633 1.9922 3.9102 3.2539 32.207 1.0664 33.277-2.5547 35.09-0.14453 0.81641-1.7539 3.3008-5.6523 4.2617-0.49219 0.37109-3.1445 3.2148-4.5703 4.7148-1.2617 1.3555-2.4375 2.5781-3.3359 3.3945-0.22656 0.61328-1.1992 5.0391-1.8359 7.9688-0.79297 3.6133-1.6562 7.4297-2.7461 10.668-1.2617 3.6602-1.6445 8.7617-1.0781 14.531 1.8477 2.6523 3.707 5.4375 3.9727 8.9766 0.17969 1.9688 0.35938 4.0547-1.4648 6.0703-0.85156 0.91016-1.9805 1.5469-3.2031 1.8242-0.14453 0.34766-0.27734 0.68359-0.39453 0.98438-0.76953 1.8711-1.5469 3.6836-2.207 4.7383 0.28906 0.023438 0.97266 3.3477 1.2969 4.9688 0.30078 1.5 0.5625 2.8086 0.64844 3.6836 0.15625 0.12109 1.4141 1.0312 2.9297 1.4023 3.4336 0.88672 22.309 9.2539 26.387 14.207 1.3555 1.5977 3.4219 4.5234 5.4102 7.3789 1.7539 2.5078 3.4219 4.9688 4.4297 6.0703 3.0859 3.3477 3.9258 8.7227 3.2031 13.129 1.8008 1.2461 3.5391 2.7461 4.5977 5.0898 1.3672 1.0312 3.168 2.1602 4.332 4.5977 0.22656 0.34766 1.2734 1.4531 2.0391 2.2695 1.4141 1.4766 2.9648 3.1445 4.2227 4.9219 1.2734 1.2461 8.8789 4.0547 12.984 4.0547 0.28906 0 24.238 0.83984 28.5 11.207 2.3984 5.9297 2.2422 83.184-3.5898 92.438-0.99609 1.9219-1.9922 11.484-2.8672 19.895-1.8359 17.508-4.6211 43.969-12.551 72.324-3.1094 11.062-4.9062 21.324-5.3867 30.562-0.085938 1.7148-0.875 3.2773-2.1953 4.3555zm-93.133-419.76c0.94922 0 1.8711 0.23828 2.7227 0.66016 0.52734 0.25391 3.7422 1.9219 7.0195 4.0312l2.9883-3.168c-1.4023 0.046875-2.8555-0.023437-4.3086-0.097656-4.8711-0.34766-12.023-4.0078-14.52-6.2148-1.6211-1.4297-3.9492-3.2148-3.9844-3.2383-0.43359-0.32422-0.81641-0.70703-1.1523-1.1523-0.011719-0.023438-2.6172-3.4453-3.9102-4.9922-1.3438-1.5977-1.8828-2.9531-2.2812-4.1055-1.5352-1.9688-1.6914-4.8477-1.6914-12.516 0-1.5469 0.011719-2.9297-0.046875-3.7695-0.25391-2.6992 0.66016-5.0898 1.3555-6.7422-2.2578-2.8555-8.7109-10.152-11.27-11.953-0.046875 0.070313 0.046875 0-0.76953 0.070313-3.793 0-11.953 0.51562-22.367 1.4297-3.2539 0.046875-5.1953-0.98438-6.5898-2.8086-2.9883-3.8867-1.5234-9.5156-0.22656-14.484 0.20312-0.76953 0.38281-1.4023 0.45703-1.8242 0.21484-2.2305 1.1523-6.5391 1.7891-9.3477 0.44531-1.9688 1.0664-3.7188 1.7539-5.6641l0.97266-2.832c0.34766-1.1641 0.46875-1.6914 0.58984-2.2305 0.16797-0.78125 0.32422-1.5586 0.89844-3.4062 0.38281-1.2969 0.76953-2.3047 1.1055-3.1797 0.097656-0.23828 0.16797-0.43359 0.22656-0.61328-1.3203 0.71875-2.8438 1.4766-4.5859 2.1953-1.5586 0.66016-2.3984 1.0781-2.8438 1.3203-0.60156 1.1289-1.5352 2.3164-3.3711 3.5273-0.30078 0.39453-0.44531 1.0078-0.73047 1.8359-0.58984 1.7539-1.3789 4.1758-2.9023 7.6328-2.3047 5.2578-3.2539 7.4023-7.1992 7.4297-0.26562 0.32422-1.2109-0.097656-1.7656-0.25391-2.0742 0.66016-4.4648 0.98438-7.332 1.2227-4.3906 0.37109-7.4648 0.61328-10.246 0.61328l-2.1602-0.046876c-3.7422-0.16797-5.5547-0.5625-8.2188-1.4297-0.30078-0.097656-0.86328-0.16797-1.5352-0.27734-3.4336-0.58984-9.1797-1.5703-13.824-4.9688-2.7227-1.9688-5.3047-3.8398-4.5469-7.7266-1.1875-2.2578-2.1484-3.3125-4.7266-5.6289-5.375-4.8359-8.0391-8.9414-8.4102-12.898l-1.0938-13.234c-0.15625-1.5977-0.16797-3.0352-0.19141-4.4023-0.023438-2.0625-0.035157-3.5625-0.57422-5.5312-1.4648-5.2578 0.39453-8.1836 2.1836-10.129 0.66016-2.7227 2.9531-4.1172 4.3203-4.9453 0.43359-0.25391 0.98438-0.60156 1.6914-1.1406-0.38281-0.40625-0.73047-0.76953-0.81641-0.89844-1.7383-2.3164-1.8125-4.7148-1.8711-6.4453l-0.058593-1.2227c-0.16797-1.9688 0.25391-4.7383 2.9883-6.9844 4.8008-7.3438 21.926-15.312 22.141-15.406 2.5781-1.1641 3.3711-1.6328 3.7422-1.8359 0.68359-0.40625 2.3281-0.96094 3.1211-1.0664l1.6328-0.26563c4.8945-0.91016 7.6914 0.53906 11.426 2.4375 1.6094 0.80469 3.6836 1.8711 6.6602 3.1445 0.3125 0.13281 0.625 0.25391 0.875 0.35938 1.1523-0.82812 2.3398-1.1992 3.0703-1.3555 1.8945-0.43359 3.6016-0.58984 5.2578-0.67188-0.085937-0.33594-0.14453-0.71875-0.17969-1.0938-0.14453-1.668 0.53906-3.6602 1.668-4.8828 2.3164-2.5547 5.7617-2.5938 9.3945-2.6406 0.74219-0.011719 1.4414-0.011719 1.9688-0.058594l10.117-0.83984c6.2773-0.58984 9.7305 0.28906 13.117 3.3359 1.5117 1.3438 2.5938 2.2188 7.2734 4.1875 0.12109 0.058593 0.23828 0.10937 0.33594 0.15625 0.76953-0.32422 1.7148-0.58984 2.8672-0.68359l5.6523-0.48047c4.0547-0.023437 8.207 1.6211 8.7109 9.4805 0.046876 0.74219 0.085938 1.5859 0.25391 2.4258 0.52734 2.6523 1.5 4.4141 1.5117 4.4414 0.40625 0.74219 0.69531 1.6094 0.75781 2.4375l0.44531 4.9922c1.2461 0.78125 2.0508 1.8125 3.5742 3.8164 0.82812 1.0781 2.8672 3.7422 4.5703 5.4375 0.035156-0.070313 0.070312-0.14453 0.10938-0.21484 0.23828-0.63672 0.44531-2.7852 0.49219-5.0156-1.1289-1.3789-2.6055-3.2539-3.2539-4.3555-1.2852-2.207-3.5898-8.1719-4.3203-11.219l-0.45703-1.8828c-0.26562-1.1406-0.76953-3.2383-1.0664-3.8398-1.3086-1.7656-1.4648-4.3203-1.6914-8.1953-0.12109-1.8594-0.22656-3.9844-0.55078-5.8438-0.81641-4.6562 0.22656-7.3203 1.4766-9.5273 0.33594-2.1367 2.0898-4.2734 3.625-6.168 0.35938-0.44531 0.70703-0.83984 0.91016-1.1758 0.57422-1.1172 1.5703-2.1953 2.7227-3.4453 0.875-0.96094 2.2188-2.4102 2.6523-3.2656 1.7148-3.2656 4.3438-4.9688 6.6719-6.4688 0.80469-0.52734 1.6797-1.0664 2.5195-1.7383 1.3555-1.0938 2.3633-2.0508 3.3828-3.0117 1.2344-1.1641 2.4609-2.3164 4.1172-3.6367l0.15625-0.13281c0.42187-0.91016 1.0547-2.0156 2.0898-3.5391-0.71875-1.1289-1.3203-2.6055-1.3906-4.5586-0.035156-1.8242-0.22656-17.219 4.1172-21.648 1.3906-1.4023 3.7422-2.375 6-1.9336 0.070312-0.27734 0.15625-0.55078 0.25391-0.82812 1.3086-3.9492 3.1328-6.0977 4.2227-7.3672 0.92578-2.2578 1.5-4.3438 2.3164-8.0625 1.0195-4.5703 1.2461-5.1836 3.6953-9.3125 2.5664-4.3789 6.6836-4.4883 8.6641-4.5469 1.7148-0.046875 3.1914-0.085937 6.1211-2.7461 0.67188-0.60156 1.2344-1.1055 1.7148-1.5352 0.035156-0.21484 0.085937-0.42188 0.14453-0.64844-0.22656-0.42188-0.45703-1.3086-0.5625-2.6055-0.23828-2.1016 0.30078-4.4297 0.74219-6.3008 0.12109-0.51562 0.25391-0.98438 0.28906-1.332-0.40625-2.9531 2.1367-5.543 4.5977-8.0508l1.332-1.3789c2.1484-2.1953 3.625-2.9648 5.4844-3.8164 0.625-0.28906 1.3672-0.64844 2.4102-1.2461 2.0391-1.1875 3.1211-2.2305 4.0664-3.1445 0.085938-0.085938 1.043-0.97266 1.1289-1.043 1.2344-1.9219 3.5156-5.207 9.3945-9.9375 1.7539-1.4023 3.1797-2.375 4.6211-2.8672-2.0039-0.68359-3.5625-1.7383-4.2109-3.9102-0.19141-0.046875-0.39453-0.10938-0.60156-0.16797-2.3281-0.68359-6.2031-1.8008-6.3711-6.2383-0.070313-1.7148 0.71875-3.3828 1.9688-4.6094 0.68359-3.0586 2.9414-4.7539 4.1641-5.6641 0.5625-0.40625 1.043-0.76953 1.4766-1.2344-0.058594 0-0.12109 0.011719-0.17969 0.011719-2.7344 0.25391-2.9531 0.33594-6.7578 1.9219l-1.2734 0.52734c-0.19141 0.83984-0.51562 1.7148-0.94922 2.5938-1.9062 3.6836-2.4102 4.6562-4.0547 6.0859-3.5742 3.5742-6.7305 5.4727-15.086 7.1172-2.7734 0.5625-4.0664 0.73047-4.3906 0.73047-2.7969 0-5.293-1.9453-5.9141-4.6797-0.63672-2.7227 1.3086-5.8555 3.8164-7.0781 0.22656-0.12109 0.69531-0.33594 1.0547-0.55078 0.3125-0.80469 0.55078-1.2852 1.0781-2.0898 0.27734-0.42187 0.83984-1.2734 2.4258-4.1992 2.1484-4.0312 3.3008-5.4375 4.7891-6.7422 2.1133-3.7695 5.0273-5.5781 7.3789-7.0195 0.85156-0.53906 1.7383-1.0312 2.4609-1.6914 2.9531-2.7344 5.832-3.2148 8.1484-3.5898 0.79297-0.14453 1.7031-0.27734 2.7617-0.60156 2.8672-0.875 6.8516-1.1523 11.461-1.4531 3.1328-0.21484 6.5508-0.44531 9.8984-0.88672 1.8359-0.26562 2.8906-0.48047 3.4922-0.625 0.25391-0.46875 0.49219-0.875 0.79297-1.3203 1.2344-1.8594 2.9414-6.3477 3.3945-8.8789 0.78125-4.1758 3.1797-6 4.4766-6.8516 0.22656-0.33594 0.49219-0.71875 0.76953-1.1289 0.50391-0.70703 1.5586-2.207 2.0039-3.1445-0.17969-0.69531-0.38281-1.4023-0.5625-1.6797 0.058594 0.20313-0.51562 0.058594-1.6445-0.17969-1.3672-0.27734-3.0234-0.63672-5.1953-1.332-4.9062-1.5586-6.875-3.3594-7.5234-6.8984-0.79297-0.28906-1.7148-0.625-2.6992-0.99609-2.2695-0.83984-4.9805-1.8477-7.3906-2.6875-0.91016-0.3125-1.4531-0.49219-1.8242-0.5625-1.043 0.085938-2.6289 0.14453-4.9219-0.21484-7.0195-1.1172-9.3945-8.0156-10.691-11.723-0.27734-0.83984-0.51562-1.6328-0.81641-2.1953-1.3789-1.0781-2.9141-3.9102-4.8477-7.5117-1.2344-2.2695-2.5312-4.7539-3.8984-6.6133-0.20312-0.27734-0.39453-0.5625-0.60156-0.82812-1.6094 1.9336-3.7695 3.7578-5.9883 5.4492-1.7891 1.3672-4.2109 1.6328-6.2266 0.66016-1.2344-0.57422-3.7578-1.6328-5.3164-1.957-4.5-0.96094-8.7109-3.168-12.504-6.5742-3.9102-3.5273-4.0781-6.8047-3.6836-9.8164 0.023438-0.25391 0.058594-0.43359 0.070313-0.60156l-1.1641-0.39453c-2.1016-0.70703-4.4766-1.5-6.7422-4.8477-0.085937 0.097656-1.7383-0.30078-2.6875-0.53906-1.9688-0.50391-3.4453-0.53906-5.6875-0.61328-1.1758-0.023438-2.5078-0.058594-4.0938-0.14453-0.16797 0.40625-0.37109 0.82812-0.625 1.2461-0.67188 1.1523-2.7461 4.7266-2.6641 15.238 0.070313 7.0664 0.085938 8.3398-1.8711 10.309-0.085938 0.097656-0.17969 0.17969-0.26562 0.25391-0.17969 0.70703-0.20312 0.9375-0.19141 1.0078 0.058593 0.28906 0.61328 1.4531 0.98437 2.2305 0.085938 0.16797 0.16797 0.32422 0.23828 0.49219 4.1875 1.8828 5.2305 4.0938 6.5508 7.4531 0.33594 0.88672 0.78125 2.0273 1.4531 3.5273 2.2578 5.0391 1.8008 7.8125 1.1406 10.223 2.4961 9.0352-4.9688 13.129-8.5664 15.098-0.76953 0.42188-1.5352 0.82812-2.2305 1.2734-1.2344 0.79297-1.5469 1.0938-1.6328 1.1875 0.011718 0.17969-0.13281 2.0898-0.16797 2.7227 1.1523 2.3984 2.3164 4.6562 2.5195 9.8867 0.16797 5.3281 0.23828 7.9805-2.9648 10.691-0.22656 0.20313-0.42188 0.35938-0.89844 1.1289-2.3867 3.8164-5.375 5.7461-8.8789 5.7461-1.3789 0-2.4961-0.28906-3.3008-0.51562-7.5117-0.68359-11.102-11.762-12.613-18.324-0.91016-3.8398-0.71875-6-0.55078-7.7383 0.10938-1.1406 0.19141-1.957-0.10938-3.7695-0.21484-1.2969-0.37109-1.6914-0.38281-1.7031 0.058594 0.19141-0.3125 0.058594-0.76953-0.17969-0.79297-0.42188-1.7148-0.91016-2.7734-1.5859-1.332-0.81641-1.5469-0.82812-2.9023-0.875-1.3086-0.035156-2.7617-0.097656-4.7539-0.53906-1.1406-0.26562-1.9453-0.39453-2.6758-0.52734-2.3398-0.40625-4.0547-0.75781-8.0898-2.3398-2.8672-1.1055-6.6719-3.1797-6.7812-8.293-1.3672-1.2461-2.7109-1.8242-4.7539-2.7109-0.89844-0.38281-1.8359-0.79297-2.832-1.2734-4.0078-1.9062-6.457-3.0859-8.1953-3.5391-6.2891-1.6211-7.4023-7.6914-8.2305-12.121-0.10938-0.30078-0.67188-0.625-1.0938-0.83984-0.92578-0.51562-1.8711-1.0547-2.7969-1.7539-4.7656-2.6641-5.293-5.4609-5.6289-9.1914-0.32422-3.7422 0.51562-6.6367 1.2617-9.1797 0.34766-1.2109 0.74219-2.5078 1.0078-4.0664 0.83984-5.0039 2.7617-6.7422 5.8086-9.0352 1.3086-0.99609 3.2031-2.3984 5.9648-5.0625 4.3438-4.1875 6.625-5.9766 9.9609-5.9141l0.25391-0.79297c1.957-6.0469 6.3359-7.2344 8.9648-7.9453 1.1523-0.30078 2.0508-0.55078 3.0234-1.1875l1.2969-0.83984c-0.058594-0.25391-0.10938-0.48047-0.14453-0.70703-2.293-3.5039-1.3555-6.1562-0.83984-7.1641 1.0781-2.1719 3.9961-3.3008 6.0703-3.3477 0.48047 0 0.82812 0 1.1875-0.023437l0.97266-2.1367c1.8359-4.2852 5.2812-4.7656 6.6836-4.7656 1.7773 0 3.1797 0.67188 4.1758 1.3672 0.5625-0.23828 1.2852-0.61328 2.1719-1.2461l1.8125-1.2461c2.1602-1.5 3.7578-2.543 5.0625-3.8633 0.625-0.66016 0.74219-1.1875 0.94922-3.0859-0.46875-0.46875-1.8359-1.9922-2.4492-4.7031-0.66016-2.9531-0.10938-5.0156 0.20312-6.1211-0.63672-2.8906-0.78125-4.4023-0.78125-4.4023-0.058594-0.70703-0.22656-3.6484 1.0195-7.6328 1.5977-5.2812 5.543-5.8555 7.1641-5.8555l0.023437 0.25391c1.1055-0.67188 2.1016-1.043 2.8555-1.2852 2.8789-3.4688 8.7734-2.207 12.793-0.16797l1.1875 0.58984c3.9844 1.4766 5.5938 5.1719 7.6445 9.8398l0.64844 1.4766c0.16797 0.35938 0.30078 0.69531 0.42188 0.99609 1.2734 0.64844 2.7969 1.7383 4.5977 3.6016 2.5547 1.8711 8.0273 6.8164 8.4609 12.098 0.42188 5.3047-1.7266 7.6562-3.7578 9.4453-1.1992 1.1406-1.5 2.2422-1.6445 4.0078 0.035156 0.28906 0.20312 0.80469 0.3125 1.3203 1.3789 5.9141-0.40625 8.8086-2.5195 10.246 1.8242 1.0664 4.1758 2.5781 6.6953 4.6211l1.3789 1.1172c4.1172 3.3477 7.1055 5.7617 10.262 9.4062 0.94922 1.0664 1.3086 1.2852 1.3906 1.332 0.070312-0.035156 1.2617-0.14453 4.4414-2.0039 0.35938-0.21484 0.71875-0.42188 1.043-0.61328-0.42188-0.12109-0.85156-0.25391-1.2969-0.39453-6.6367-2.1836-7.5117-5.8438-7.0781-8.543 0.21484-1.3438 1.4414-5.7344 8.2305-5.7344l1.5859 0.023437c0.63672 0 1.2617-0.011719 1.8711-0.058593-1.6797-0.94922-3.457-2.0625-5.2578-3.3477-5.0156-3.6484-7.3906-5.7969-7.5859-9.9492-0.75781-1.8477-0.38281-4.4414 0.73047-6.0977 1.6914-2.5195 4.3906-3.2539 6.6016-3.457-0.38281-0.13281-0.74219-0.27734-1.1055-0.46875-2.7617-1.4141-12.133-8.8789-13.727-10.945-1.1875-1.6094-1.5-3.2031-2.3281-7.4531-0.50391-2.5547-1.6211-8.2578-2.5547-10.402-0.79297-0.39453-1.7383-0.74219-2.7109-1.1172-1.9336-0.73047-4.1406-1.5586-6.168-3.0586-1.2461-0.9375-2.6641-1.8242-4.0664-2.7227-1.5586-0.98438-3.1211-1.9805-4.5-2.9883-1.2734-0.96094-2.6172-2.125-3.9375-3.2891-1.332-1.1758-2.6641-2.3633-3.7812-3.0977-2.2578-1.4648-4.7266-2.8906-7.2617-4.3203-0.035156 0-1.2969-0.46875-5.0156-0.46875-1.7656 0-3.6016 0.10938-5.2422 0.25391-2.1953 0.19141-6.8633 4.0938-8.8672 5.7461l-1.1992 0.98438c-0.23828 1.9453-0.74219 4.4414-2.0156 8.4609 1.2461 0.99609 2.1953 2.4258 2.6875 4.1992l0.035156 0.14453c0.23828 0.32422 0.43359 0.66016 0.60156 0.99609-0.070313-0.25391 0.25391-0.058594 0.625 0.26562 1.5586 1.2461 3.9102 3.1211 5.8203 6.4453 1.8477 3.168 2.6641 5.5547 1.5352 8.9766-0.25391 5.4609-1.5117 7.7266-2.9648 10.332l-1.1523 2.125c-2.1016 4.1055-2.9141 5.3047-6.0117 6.7422-2.8086 1.3906-4.2109 1.7891-5.5781 1.7891-2.1367 0-4.4883-1.2969-5.5664-3.1445-0.66016-1.1523-0.86328-2.7227-0.69531-4.1992 0-1.9336-0.035156-4.0781-0.097656-5.7852-2.3984-0.12109-4.5859-1.3789-6.0352-3.4922-0.55078-0.81641-0.98438-1.5977-1.2969-2.3164-0.17969-0.10938-0.33594-0.21484-0.50391-0.30078 0.30078 1.6914 0.38281 3.5898-1.1523 5.4844-0.34766 0.44531-0.76953 0.82812-1.2344 1.1523-0.9375 1.9219-1.8359 3.3125-3.9492 5.5312-1.2969 1.3555-1.8359 1.9336-3.168 2.5938-0.28906 0.15625-0.875 0.48047-2.9414 1.9922-2.8086 2.0391-4.7773 2.8555-6.8398 2.8555-2.0156 0-4.3906-1.2461-5.5078-2.9297-0.5625-0.85156-0.91016-1.8008-1.043-2.8203-1.0195 0.28906-1.8594 0.45703-2.7969 0.45703-1.0195 0-2.7461-0.50391-3.6484-0.98438l-1.7148-0.50391c-2.125-0.57422-5.0156-1.3438-8.293-2.9141-0.78125-0.38281-1.2344-0.58984-1.5352-0.68359-0.74219-0.070313-1.668-0.27734-3.2266-0.9375-1.6211-0.68359-2.7969-1.4023-3.7695-2.207-0.27734 0.32422-0.60156 0.66016-0.94922 0.94922-0.64844 0.52734-1.9062 1.5859-11.438 5.2578-1.7539 0.68359-3.7188 0.48047-5.3047-0.49219-0.68359-0.42188-1.2461-0.97266-1.7148-1.5977-1.5 0.32422-3.3359 0.66016-5.3047 0.80469-1.1406 0.097657-1.9062 0.20313-2.4727 0.27734-0.88672 0.12109-1.5 0.16797-2.0039 0.16797-1.957 0-3.3359-0.67188-4.3203-1.2461-3.3828-2.0039-4.2461-6.0703-4.4648-8.3164-0.17969-1.9453 0.60156-3.8633 2.0898-5.1367 0.14453-0.12109 0.27734-0.25391 0.43359-0.37109l-1.5859-1.8008c-3.0234-2.6758-4.5234-4.2461-5.293-5.1836-0.25391-0.070313-0.53906-0.15625-0.75781-0.19141-2.3047-0.44531-4.1875-2.1953-4.7383-4.4883 0 0-0.92578-3.7695-1.4648-7.7031l-4.1523 0.40625c-0.625 0.058594-1.0938 0.27734-2.1133 0.78125-0.9375 0.46875-1.8594 0.89844-2.832 1.2227-1.9805 0.58984-3.7578 0.67188-6.2266 0.79297-0.97266 0.046875-2.125 0.10938-3.5039 0.20312-1.4141 3.4453-4.8945 5.1484-10.414 5.1484-4.9922-0.035156-9.9492-0.058593-10.297-5.6992-0.15625-2.4609 1.5977-4.7539 3.8633-5.832l-0.50391-1.2461c-0.71875-1.7891-1.5234-3.8164-2.293-4.9219-1.5117-2.2305-2.3047-4.6914-3.0859-7.0547l-1.4648-4.4297c-0.27734-0.91016-0.3125-1.0312-1.1758-2.3398-0.61328-0.92578-1.4414-1.8828-2.2422-2.832-1.1172-1.3086-2.2578-2.6641-3.1797-4.1406-0.67188 0.097656-1.1641 0.10938-1.5352 0.10938-0.96094 0.50391-2.2578 0.83984-3.6016 0.83984-0.43359 0-1.7891-0.19141-2.2188-0.27734-0.64844-0.085938-1.2617-0.035156-2.5078 0.35938-1.8359 0.57422-3.4922 1.5703-5.1016 2.543-2.9414 1.7656-5.7344 3.6367-10.031 2.1953-0.27734 0.097656-0.51563 0.17969-0.74219 0.25391-0.61328 0.94922-1.4648 2.1133-2.7852 3.6367-2.1133 2.4492-2.3398 2.8672-2.543 3.2148-0.35938 0.67188-0.74219 1.3906-2.3867 3.457-0.76953 0.98438-0.94922 1.3672-0.94922 1.3906-0.12109 0.76953-0.33594 2.0898-1.2461 3.6836-1.4648 2.543-3.0586 3.6133-4.5703 4.4766-1.9062 1.1992-3.2031 1.5703-4.4883 1.5703-1.9922 0-4.2734-0.9375-5.7852-3.3008-0.97266 0.74219-2.2305 1.6562-3.8164 2.375-0.63672 0.28906-0.71875 0.37109-1.5234 1.1406-0.046875 0.058593-0.10938 0.10937-0.15625 0.15625 0.12109 0.39453 0.25391 0.80469 0.37109 1.1406 0.9375 2.7969 2.0039 5.9766 0.99609 9.2148-0.46875 1.5352-1.7383 5.6172-6.2539 5.6289h-0.011719c-0.71875 0-1.4297-0.15625-2.125-0.42187-0.15625 0.085937-0.33594 0.17969-0.5625 0.27734-1.1875 0.60156-2.6523 1.332-5.375 2.293-2.3633 0.86328-3.875 1.3789-5.7969 1.0312-1.3438 0.78125-3.3945 2.0508-5.5664 3.6016-2.293 1.6445-3.457 2.2422-5.1719 2.6641-1.5117 0.67188-1.6445 0.75781-2.9297 2.7344-0.83984 1.2734-1.8828 2.8438-3.4336 4.8242-1.6094 2.0039-1.9336 5.4844-2.2305 8.5547-0.21484 2.207-0.39453 4.2734-1.0195 6.2266-0.25391 0.76953-0.25391 0.76953-0.097656 1.6445 0.22656 1.1875 0.5625 2.9883 0.26562 5.7461-0.035156 0.34766-0.085938 0.83984-0.17969 1.3906 0.98438-0.30078 2.0742-0.64844 2.9531-0.92578 0.16797-0.43359 0.37109-0.85156 0.58984-1.1992l1.4023-2.2578c0.49219-0.78125 1.1523-1.4414 1.9219-1.9336 10.812-6.7305 12.098-6.8398 13.441-6.9609 2.9414-0.21484 5.8555 1.7266 6.625 4.5352 0.25391 0.89844 0.26562 1.7656 0.14453 2.5938 0.12109-0.097656 0.21484-0.19141 0.28906-0.26562 0.69531-2.6641 3.1211-4.8008 5.9023-4.8008 5.5312 0 6.0977 3.2773 8.4609 17.102 1.3555 4.7539 2.125 8.543 2.1953 10.945 0.39453 0.66016 1.1992 1.7383 1.7148 2.4375 1.2227 1.6445 2.3633 3.1914 3.0586 4.8477 1.8242 4.5469 3.1094 8.0625 2.6992 11.074-0.40625 2.7461-0.79297 5.3398-2.2188 7.8594 0.13281 0.12109 0.13281 1.8008 0.070312 3.5391-0.15625 4.6211-0.3125 7.6328-1.5 9.8984 0.27734 2.4375 0.50391 4.7773 0.046875 7.8242-0.058593 0.44531-0.085937 0.76953-0.085937 0.99609 1.3555 1.2617 2.0898 3.1094 1.8828 5.0273l-0.68359 6.5039c-0.3125 1.8125-1.6211 8.5664-2.7461 11.566-0.44531 1.2461-0.79297 2.6406-0.99609 3.5742 0.75781 3.9844 1.4297 11.207-2.3984 15.348l-0.39453 0.43359c-0.14453 0.21484-0.28906 0.42187-0.44531 0.625 0.28906-0.35938 0.13281 1.2461 0 2.3164-0.13281 1.1055-0.26562 2.2188-0.45703 3.2539 0.23828 0 1.7031 2.4258 2.4102 3.6016 1.1289 1.8594 2.0273 3.3359 2.4609 4.8945 0.81641 2.8438 1.0664 5.9141 0.63672 8.5312 0.12109-0.5625 0.25391-0.16797 0.42188 0.38281 0.69531 2.4727 1.7383 6.2031 0.5625 9.8281-0.3125 1.0547-0.82812 3.9492-1.4531 7.2734-1.3789 7.3672-2.4492 12.816-3.5625 15.758-1.4141 3.9102-4.2461 9.0586-6.7305 13.609l-1.5234 2.7852c-1.2227 2.2305-1.8008 3.793-2.6523 6.0117-0.80469 2.125-1.8125 4.7539-3.5742 8.7227-1.5352 3.5391-2.1484 5.3164-2.3633 6.0977 0.55078 3.5039 2.6641 17.617 2.4375 24.301-0.20312 6.3594 1.5117 21.59 2.3047 26.578 0.046876 0.23828 0.085938 0.42188 0.12109 0.60156 0.80469 0.34766 1.4648 0.66016 2.2188 1.0664 3.3359 1.8242 4.0938 2.5312 6.4336 4.9336l1.8945 1.9062c3.6133 3.6016 5.2578 11.352 7.5586 27.336 0.25391-2.125 1.6328-4.0312 3.7422-4.8711 0.63672-0.25391 8.7109-2.6992 13.441-0.70703 1.7773 0.74219 4.2461 2.4844 5.7461 6.5273 1.7656 4.7656 1.5586 10.934-0.45703 15.781 1.3906 3.457 8.9531 12.422 16.98 20.051 0.9375 0.88672 1.5586 2.0625 1.7773 3.3359 0.070312 0.46875 0.67188 4.043 0.74219 7.2852 2.0156 1.6094 4.2461 3.707 4.5859 7.3203 0.45703 0.80469 4.7773 7.6328 7.9453 12.613 5.2305 8.2305 8.7461 13.859 10.094 17.113 1.9453 4.7656 1.9062 9.3125 1.8711 14.148-0.023437 2.832-0.058594 5.9531 0.39453 9.4922 0.75781 5.9648 7.2461 9.5391 7.3086 9.5625l9.9102 6.2031 7.4648 2.0898c9.625 4.4766 34.129 15.348 43.535 16.152 5.5195 0.46875 8.9766-0.49219 12.359-1.4023 4.2461-1.1289 8.7109-1.8242 12.793-0.097656 6.2148 2.6523 14.855 10.691 23.184 18.707 0.9375 0.91016 1.5352 1.4297 1.9062 1.7148 1.6562-0.19141 3.6953 0.25391 5.5938 1.3086l0.81641 6.1445 0.74219-6 1.2617-0.023437c1.7383 0 3.9844 0.12109 7.3086 0.76953 10.559 2.1602 20.508 18.984 20.953 24.66 0.085937 0.91016 1.3906 2.7461 2.8906 4.8477 0.33594 0.46875 0.69531 0.96094 1.0547 1.4766 1.4297-0.79297 3.0469-1.4297 5.0156-1.5977h0.046876c6.5508 0 9.9492 5.4609 12.434 9.4453 0.085938 0.12109 0.15625 0.23828 0.23828 0.37109 2.1953-0.32422 4.5977-0.53906 5.8672-0.66016 0.19141 0.003906 0.375-0.019531 0.52734-0.019531zm-241.27-167.2c0.66016 0.37109 1.3555 0.74219 2.0039 1.0664l-0.74219-2.9023c-0.023437 0-1.1875-3.0859-2.0508-5.3398-0.070312 0.33594-0.16797 0.69531-0.26562 1.043 0.33594 1.0781 0.38281 2.2578 0.058594 3.4336 0.53906 0.83984 0.83984 1.7773 0.99609 2.6992zm337.67-164.14c0.39453 0.38281 0.74219 0.80469 1.0078 1.2734 2.0039 3.4453 0.21484 6.6133-1.7031 9.9609-0.42188 0.74219-0.83984 1.4531-1.0547 1.957-0.32422 1.1875-1.1406 2.4258-2.1602 4.0078-0.011719 0.023437-0.023437 0.046875-0.035156 0.058594 1.7031-1.7539 3.3477-3.8164 3.9258-4.9219 0.73047-1.5859 2.2578-3.3359 5.1133-6.5625 0.81641-0.92578 1.9453-2.207 2.8789-3.3125-1.332-0.49219-2.8906-1.0938-4.5859-1.8008l-1.0664-0.44531c-0.64062-0.007812-1.3867-0.070312-2.3203-0.21484zm-137.09-78.887c2.7461 1.0547 3.6133 1.2109 5.0273 1.4531 0.88672 0.15625 1.8945 0.32422 3.2773 0.64844 1.0195 0.22656 1.7773 0.23828 2.4727 0.25391 2.6172 0.085938 5.0898 0.33594 8.8438 2.6758 0.80469 0.49219 1.5 0.85156 2.1016 1.1758 3.6602 1.9453 6.3125 3.8398 7.3672 10.598 0.52734 3.2891 0.33594 5.3047 0.21484 6.7695-0.12109 1.2461-0.17969 1.9336 0.27734 3.8867 0.83984 3.6484 2.2578 7.1992 3.2383 8.9648 0.71875-1.0195 1.2969-1.7266 1.8125-2.2695-0.011719-0.57422-0.035156-1.3086-0.070312-2.2695-0.085938-2.3867-0.37109-2.8438-0.68359-3.3242-1.0938-1.7148-2.125-3.7422-1.8125-7.8359 0.45703-6.5898 1.5586-9.4219 7.2461-13.117 0.9375-0.60156 1.957-1.1641 2.9883-1.7383 0.74219-0.39453 1.8359-0.99609 2.5547-1.4883-0.63672-2.7227-0.23828-4.6445 0.21484-6.2539 0.10938-0.32422 0.070312-0.81641-0.51562-2.1367-0.76953-1.7266-1.2852-3.0352-1.6914-4.0547-0.25391-0.625-0.39453-1.0781-0.60156-1.4414-2.4102-0.63672-5.3164-2.8555-5.5664-5.3516-2.543-5.0625-3.2266-7.4414-1.332-13.633 0.34766-1.1289 0.78125-2.0273 1.2617-2.7617 0-0.73047-0.011719-1.6562-0.023438-2.8203-0.10938-12.371 2.3984-18.145 4.3086-21.406-0.085938-0.78125 0.046875-2.1953 0.80469-3.5742-2.1602-0.058594-4.1523-0.92578-5.6055-2.4609-1.9219-2.0039-2.7617-4.8359-2.5781-8.6875 0.058593-1.2461-0.023438-2.3047-0.070313-3.2031-0.21484-3.1562-0.69531-10.547 9.875-11.449 1.5-0.13281 2.5781-0.22656 3.4062-0.28906-0.13281-0.83984-0.20312-1.7383-0.12109-2.6641 0.22656-3.0117 0.92578-7.3906 4.332-10.859l0.76953-0.73047c-0.76953-1.1055-2.7344-2.9883-4.1992-4.1172-0.71875-0.68359-1.2461-1.1758-1.6445-1.5-2.6641-0.33594-4.2969-1.9062-5.3281-4.6094-0.20312-0.51562-0.50391-1.332-1.0547-2.6055l-0.64844-1.4766c-0.61328-1.3672-1.332-3.0352-1.7891-3.8047-0.45703-0.21484-0.94922-0.45703-1.4766-0.73047-0.19141-0.097656-0.40625-0.21484-0.66016-0.32422-1.0312 0.625-2.0039 0.91016-2.6406 1.1055-1.1992 0.66016-2.207 1.1055-3.1328 1.3906-0.046875 0.45703-0.046875 0.74219-0.046875 0.78125 0.011719 0 0.16797 1.043 0.57422 2.8672 0.68359 2.5664 0.14453 4.5977-0.15625 5.6875 1.4766 1.8477 3.0703 4.3203 2.5938 8.9141-0.52734 5.2812-1.332 7.2109-4.3086 10.262-1.957 1.9805-4.1055 3.457-6.8047 5.3281l-1.6914 1.1758c-4.7266 3.4219-8.543 3.7188-9.9727 3.8164-0.13281-0.023437-0.23828 0-0.34766 0-0.023438 0.070313-0.058594 0.14453-0.097657 0.21484-0.67187 1.4297-1.6914 2.4375-2.7969 3.1445 0.28906 0.55078 0.49219 1.1289 0.5625 1.7148 0.52734 3.9609-2.3984 5.8203-4.7539 7.3203l-4.5977 2.9531c-2.5195 1.6445-4.8594 2.2695-6.4062 2.6992-0.42188 0.12109-0.82812 0.19141-1.1875 0.34766l-0.13281 1.7266c-1.2227 3.9609-2.3867 5.6406-6.5742 7.1523-1.8477 0.64844-2.7852 0.85156-4.0938 0.625-0.50391 0.44531-1.1641 1.0547-2.0156 1.8711-3.2891 3.1562-5.5195 4.8242-7.0781 6-0.53906 0.40625-0.97266 0.69531-1.2734 1.0078-0.25391 2.4844-0.74219 4.2461-1.2461 5.8906-0.64844 2.1953-0.94922 3.3125-0.81641 4.7383v0.035157c0.26562 0.16797 0.55078 0.35938 0.83984 0.58984 0.48047 0.34766 0.94922 0.60156 1.4023 0.83984 2.2578 1.2461 6.0586 3.3125 7.1172 9.2266 0.14453 0.74219 0.38281 2.1133 0.63672 3 2.4961 0.79297 5.0898 2.0273 8.2578 3.5508l3.3008 1.5c2.7617 1.1992 5.8906 2.543 9.0469 5.7852 1.9492 1.8945 2.6445 3.8008 2.918 5.3008zm83.305-98.594 1.1641 5.4961 0.10937-5.6055c-0.43359 0.039063-0.86328 0.085938-1.2734 0.10938zm-84.875-20.352c1.6797 0 4.3789 0.57422 5.9648 3.9258 0.046875-0.17969 0.085937-0.33594 0.12109-0.50391-0.058593-0.097656-0.12109-0.20312-0.19141-0.3125-0.79297-1.3906-1.7773-2.1836-2.9297-3.0977-0.80469-0.66016-1.7383-1.3906-2.5781-2.3633-0.74219-0.61328-1.2852-1.3906-1.7031-2.2188-0.76953-0.21484-1.5352-0.5625-2.2188-0.99609-0.28906 0.96094-0.74219 2.1602-1.4531 3.6484 0.44531 0.25391 0.92578 0.52734 1.3789 0.75781 0.69531 0.35938 1.2734 0.83984 1.7656 1.4141 0.60547-0.16797 1.2188-0.25391 1.8438-0.25391zm26.977-8.4961 0.46875 5.7344 0.80469-5.9414c-0.27734 0.17188-0.91406 0.078125-1.2734 0.20703zm-2.125-51.984c0.26562 0 1.3438 0.097656 2.2578 0.035156 0.14453-0.86328 0.15625-1.1875 0.15625-1.2109-0.32422-3.6953 2.2695-5.9883 3.4453-6.9961-0.14453-0.14453-0.42187-1.8008-0.75781-3.0859-0.25391-0.94922-0.27734-1.9453-0.058594-2.8906l1.6094-7.0078c0.69531-2.8906 3.0859-4.9688 6.1211-7.3672 0.74219-1.8242 1.9453-6.2383 2.0898-7.5859 0.097656-0.81641-0.16797-2.7344-0.32422-3.9961-0.035156-0.30078-0.085938-0.60156-0.12109-0.88672-0.55078-0.14453-1.1758-0.25391-1.6328-0.34766-1.4023 1.0078-3.1562 2.125-5.5664 2.6523-0.98438 0.3125-3.7422 2.5195-5.0742 3.5742-1.3086 1.043-2.4844 1.957-3.3477 2.5078-1.7539 1.1758-5.8906 5.293-12 11.449-1.6328 1.6445-1.7656 2.4102-1.7656 2.4258 0.023437 0.26562 0.49219 1.1289 0.79297 1.6914 0.75781 1.4414 1.8008 3.3594 1.9219 5.7969 2.4258 0.92578 4.7266 3.3945 5.2578 9.4219 0.023437 0.22656 0.023437 0.44531 0.023437 0.67188 2.9414 0.15625 6.0586 0.94922 6.9258 1.1758-0.035156-0.027344-0.023437-0.027344 0.046876-0.027344zm-30.742 277.09c-2.8203 0-5.2578-1.9688-5.8672-4.7031-0.28906-0.27734-0.55078-0.52734-0.75781-0.74219-1.7773-0.57422-3.1328-1.6914-3.9375-2.3398l-0.21484-1.1055c-0.32422 0.23828-0.67188 0.42188-1.0195 0.58984l-0.50391 0.21484c-0.97266 0.38281-1.957 0.5625-2.7734 0.71875-1.2227 0.22656-1.7266 0.37109-2.0273 0.46875-0.58984 0.19141-1.8594 0.40625-2.4727 0.40625-0.42188 0-1.0078-0.046875-2.2188-0.22656-8.375-1.2617-9.6016-5.5195-9.7695-7.2969-0.26562-2.5781 1.1758-5.0391 3.5508-6.0977 9.5742-4.2109 12.996-5.3984 14.484-5.7617 1.0781-0.69531 3.5156-2.7617 5.5195-4.4648l4.4141-3.7188c1.8125-1.5 4.3086-1.8008 6.457-0.75781l2.4961 1.2227c2.7852 1.3438 4.2969 3.1562 4.4883 5.3633 0.63672 0.61328 1.2734 1.332 1.8945 2.2305 0.60156 0.74219 3.3008 2.7734 4.9219 4.0078 5.6758 4.2734 10.164 7.668 8.7227 12.84-1.4414 5.1367-5.3164 5.4609-7.1875 5.6172-1.4141 0.13281-4.3555 0.37109-10.656 1.8945-6.6562 1.6406-6.6562 1.6406-7.543 1.6406zm-4.1289-17.965c0.40625 0.27734 0.80469 0.58984 1.1758 0.88672 2.3633 0.67188 3.9258 2.2422 4.8477 3.1797 1.0312 0.097656 1.9219 0.30078 2.6992 0.61328 0.035156-0.011719 0.058594-0.011719 0.097656-0.023438 0.98438-0.25391 1.9062-0.45703 2.7617-0.64844-2.5781-1.9922-4.332-3.5039-5.4844-5.125-0.50391-0.70703-0.88672-0.9375-1.5352-1.3203-0.32422-0.20312-0.63672-0.40625-0.91016-0.625-1.3984 1.1914-2.5977 2.1992-3.6523 3.0625z"/>
</svg>
