<svg xmlns="http://www.w3.org/2000/svg" xmlns:xlink="http://www.w3.org/1999/xlink" version="1.1" x="0px" y="0px" viewBox="0 0 100 100" enable-background="new 0 0 100 100" xml:space="preserve"><path fill="#000000" stroke="#E61951" stroke-width="2" stroke-miterlimit="10" d="M87.658-11.685"></path><g><defs><polygon id="n" points="57.149,54.385 52.994,50.254 50.251,52.981 57.229,59.919 69.25,47.246 70.581,45.842     67.758,43.195   "></polygon></defs><clipPath id="m"><use xlink:href="#n" overflow="visible"></use></clipPath><rect x="49.235" y="42.179" clip-path="url(#m)" fill="#000000" width="22.362" height="18.755"></rect></g><g><defs><path id="l" d="M28.414,48.477c3.534,0,6.399-0.591,6.399-1.32c0-0.729-2.865-1.32-6.399-1.32s-6.399,0.591-6.399,1.32    C22.016,47.885,24.88,48.477,28.414,48.477z"></path></defs><clipPath id="k"><use xlink:href="#l" overflow="visible"></use></clipPath><rect x="21" y="44.82" clip-path="url(#k)" fill="#000000" width="14.829" height="4.672"></rect></g><g><defs><path id="j" d="M60.103,93.775c7.685,0,13.915-0.864,13.915-1.93c0-1.066-6.23-1.93-13.915-1.93s-13.915,0.864-13.915,1.93    C46.188,92.911,52.418,93.775,60.103,93.775z"></path></defs><clipPath id="i"><use xlink:href="#j" overflow="visible"></use></clipPath><rect x="45.173" y="88.9" clip-path="url(#i)" fill="#000000" width="29.86" height="5.891"></rect></g><g><defs><path id="h" d="M60.408,65.337c7.741,0,14.016-6.275,14.016-14.016c0-7.741-6.275-14.016-14.016-14.016    c-7.741,0-14.016,6.275-14.016,14.016C46.391,59.061,52.667,65.337,60.408,65.337z M53.055,74.901    c-1.525-2.6-6.808-11.387-8.506-14.208c-0.162-0.252-0.317-0.511-0.465-0.773c-0.04-0.066-0.064-0.107-0.064-0.107    c-0.732-1.308-1.306-2.716-1.701-4.197c-0.391-1.48-0.6-3.035-0.6-4.636c0-10.132,8.345-18.348,18.639-18.348S79,40.848,79,50.98    c0,3.424-0.954,6.622-2.611,9.365c0,0-0.02,0.037-0.05,0.086c-0.017,0.027-0.033,0.057-0.05,0.083    c-0.85,1.412-6.927,11.494-8.625,14.386c-0.583,1-1.549,2.644-2.588,4.414c-0.384,0.655-0.779,1.329-1.167,1.992    c-1.832,3.122-3.549,6.048-3.549,6.048s-1.717-2.926-3.549-6.048c-0.388-0.664-0.783-1.338-1.167-1.992    C54.604,77.544,53.639,75.901,53.055,74.901z"></path></defs><clipPath id="g"><use xlink:href="#h" overflow="visible"></use></clipPath><rect x="40.704" y="31.617" clip-path="url(#g)" fill="#000000" width="39.312" height="56.754"></rect></g><g><defs><path id="f" d="M28.475,34.745c3.096,0,5.606-2.51,5.606-5.606c0-3.096-2.51-5.606-5.606-5.606    c-3.096,0-5.607,2.51-5.607,5.606C22.869,32.235,25.379,34.745,28.475,34.745z M25.534,38.57c-0.61-1.04-2.723-4.555-3.402-5.683    c-0.065-0.101-0.127-0.205-0.186-0.309c-0.016-0.027-0.025-0.043-0.025-0.043c-0.293-0.523-0.522-1.087-0.68-1.679    C21.084,30.264,21,29.643,21,29.002c0-4.053,3.338-7.339,7.455-7.339c4.118,0,7.457,3.286,7.457,7.339    c0,1.37-0.382,2.649-1.045,3.746c0,0-0.008,0.015-0.02,0.035c-0.007,0.011-0.013,0.023-0.02,0.033    c-0.34,0.565-2.771,4.598-3.45,5.754c-0.233,0.4-0.619,1.058-1.035,1.765c-0.154,0.262-0.312,0.531-0.467,0.797    c-0.733,1.249-1.42,2.419-1.42,2.419s-0.687-1.17-1.42-2.419c-0.155-0.266-0.313-0.535-0.467-0.797    C26.154,39.628,25.768,38.971,25.534,38.57z"></path></defs><clipPath id="e"><use xlink:href="#f" overflow="visible"></use></clipPath><rect x="19.984" y="20.647" clip-path="url(#e)" fill="#000000" width="16.944" height="23.92"></rect></g><g><defs><polygon id="d" points="29.689,29.032 31.563,30.802 30.486,31.82 28.564,30.004 26.642,31.82 25.565,30.802     27.343,29.123 25.469,27.353 26.546,26.335 28.468,28.15 30.39,26.335 31.467,27.353   "></polygon></defs><clipPath id="c"><use xlink:href="#d" overflow="visible"></use></clipPath><rect x="24.453" y="25.319" clip-path="url(#c)" fill="#000000" width="8.125" height="7.516"></rect></g><g><defs><path id="b" d="M57.01,23.085C54.334,13.881,46.754,7.167,37.735,6.832c1.528-0.397,3.12-0.607,4.756-0.607    c9.522,0,17.566,7.11,20.147,16.86h4.754l-7.211,7.516l-7.211-7.516H57.01z M36.215,7.562c0.214-0.083,3.417,0.56,3.145,0.687    c-4.614,2.16-8.16,6.852-8.964,12.4c-0.613-0.135-1.251-0.206-1.905-0.206c-0.691,0-1.363,0.079-2.008,0.229    C27.213,14.585,31.056,9.562,36.215,7.562z"></path></defs><clipPath id="a"><use xlink:href="#b" overflow="visible"></use></clipPath><rect x="25.469" y="5.209" clip-path="url(#a)" fill="#000000" width="42.939" height="26.407"></rect></g></svg>