<svg xmlns="http://www.w3.org/2000/svg" xmlns:xlink="http://www.w3.org/1999/xlink" version="1.1" x="0px" y="0px" viewBox="0 0 2048 2048" style="enable-background:new 0 0 2048 2048;" xml:space="preserve"><g><path d="M933.1,1059.7l-62-330.3c-25.1-31.1-106.8-153,36.6-276.8c-45.7-78.6-25-135.2,20.5-168.1c26.3-19,61.4-28.5,95.9-28.5   c34.5,0,69.6,9.5,95.9,28.5c45.5,32.9,66.2,89.5,20.5,168.1c143.4,123.8,61.6,245.7,36.6,276.8l-62.5,332.5l-31.4-5.9l31.5,5.9   c-2.9,15.5-16.6,26.3-31.9,26.1H964.9C948.5,1088,934.9,1075.6,933.1,1059.7L933.1,1059.7z M900.9,715.1l31.4-5.9l59.1,314.8h65.3   l58.7-312.5c0.8-6.6,3.6-13,8.5-18.2l23.3,21.9l-23.3-21.9c0.3-0.3,97.4-101.1-43.3-206.9c-0.5-0.3-1-0.6-1.5-1   c-14.3-10.4-17.5-30.4-7.2-44.7l0.1,0.1c39-54,33.3-88.1,10.6-104.5c-15-10.9-36.6-16.3-58.6-16.3s-43.6,5.4-58.6,16.3   c-22.4,16.2-28.3,49.6,9.1,102.4c0.5,0.5,0.9,1.1,1.3,1.7c10.5,14.2,7.5,34.2-6.6,44.8l-0.1-0.1c-134,99.4-57,194.7-46.2,206.8   c4.7,4.5,8.1,10.4,9.4,17.3L900.9,715.1L900.9,715.1z"></path><path d="M518,1120h1012c17.7,0,32,14.3,32,32v184c0,17.7-14.3,32-32,32H518c-17.7,0-32-14.3-32-32v-184   C486,1134.3,500.3,1120,518,1120z M1498,1184H550v120h948V1184z"></path><path d="M642,1336c0-17.7-14.3-32-32-32s-32,14.3-32,32v424c0,17.7,14.3,32,32,32s32-14.3,32-32V1336z"></path><path d="M1406,1760c0,17.7,14.3,32,32,32s32-14.3,32-32v-424c0-17.7-14.3-32-32-32s-32,14.3-32,32V1760z"></path><path d="M872,1458.7c0-17.7-14.3-32-32-32s-32,14.3-32,32V1760c0,17.7,14.3,32,32,32s32-14.3,32-32V1458.7L872,1458.7z"></path><path d="M1056,1458.7c0-17.7-14.3-32-32-32s-32,14.3-32,32V1760c0,17.7,14.3,32,32,32s32-14.3,32-32V1458.7L1056,1458.7z"></path><path d="M1240,1458.7c0-17.7-14.3-32-32-32s-32,14.3-32,32V1760c0,17.7,14.3,32,32,32s32-14.3,32-32V1458.7L1240,1458.7z"></path></g></svg>