<svg xmlns="http://www.w3.org/2000/svg" xmlns:xlink="http://www.w3.org/1999/xlink" version="1.1" x="0px" y="0px" viewBox="0 0 100 100" enable-background="new 0 0 100 100" xml:space="preserve"><path d="M50,5C25.147,5,5,25.147,5,50c0,24.854,20.147,45,45,45c24.854,0,45-20.146,45-45C95,25.147,74.854,5,50,5z M80.977,68.937  h-11.69v-5.426h5.376v-7.289H61.773V45.647H56.43v-5.424h5.434v-5.7H38.838v5.7h5.2v5.424h-5.142v9.718h11.571v8.146h5.493v5.426  H44.271v-5.426h5.143v-7.092H25.075v7.092h5.639v5.426H19.025v-5.426h4.995v-8.146h13.823v-9.718H32.35v-5.424h5.434V33.47H49.59  v-8.245h-5.316v-5.424h11.688v5.424h-5.317v8.245h12.272v6.754h5.202v5.424h-5.29v9.521h12.888v8.344h5.26V68.937z"></path></svg>