<svg xmlns="http://www.w3.org/2000/svg" xmlns:xlink="http://www.w3.org/1999/xlink" version="1.0" x="0px" y="0px" viewBox="0 0 100 100" enable-background="new 0 0 100 100" xml:space="preserve"><g><g><path fill="#000000" d="M50,16.5c-19.574707,0-35.5,15.925293-35.5,35.5S30.425293,87.5,50,87.5    c19.5751953,0,35.5-15.925293,35.5-35.5S69.5751953,16.5,50,16.5z M50,84.5c-17.9204102,0-32.5-14.5795898-32.5-32.5    S32.0795898,19.5,50,19.5c17.9208984,0,32.5,14.5795898,32.5,32.5S67.9208984,84.5,50,84.5z"></path><path fill="#000000" d="M67.5449219,53.5146484c4.7890625,0,8.6855469-3.8959961,8.6855469-8.6850586    s-3.8964844-8.6855469-8.6855469-8.6855469s-8.6845703,3.8964844-8.6845703,8.6855469    S62.7558594,53.5146484,67.5449219,53.5146484z M67.5449219,39.144043c3.1347656,0,5.6855469,2.550293,5.6855469,5.6855469    c0,3.1347656-2.5507812,5.6850586-5.6855469,5.6850586s-5.6845703-2.550293-5.6845703-5.6850586    C61.8603516,41.6943359,64.4101562,39.144043,67.5449219,39.144043z"></path><path fill="#000000" d="M57.6152344,29.7929688l-7.6201172-5.5361328    c-0.5263672-0.3818359-1.2373047-0.3818359-1.7636719,0l-7.6201172,5.5361328    c-0.5253906,0.3818359-0.7456055,1.059082-0.5449219,1.6767578l2.9106445,8.9580078    c0.2011719,0.6181641,0.7768555,1.0366211,1.4267578,1.0366211h9.4194336c0.6494141,0,1.2255859-0.418457,1.4267578-1.0366211    l2.9101562-8.9580078C58.3603516,30.8515625,58.140625,30.1748047,57.6152344,29.7929688z M52.7333984,38.4643555h-7.2397461    l-2.2373047-6.8852539l5.8569336-4.2548828l5.8564453,4.2553711L52.7333984,38.4643555z"></path><path fill="#000000" d="M38.3354492,57.9140625l4.109375-7.1171875    c0.2680664-0.4638672,0.2680664-1.0356445,0-1.5l-4.109375-7.1176758c-0.2675781-0.4638672-0.7626953-0.75-1.2988281-0.75    h-8.2182617c-0.5361328,0-1.03125,0.2861328-1.2988281,0.75l-4.109375,7.1176758c-0.2680664,0.4643555-0.2680664,1.0361328,0,1.5    l4.109375,7.1171875c0.2675781,0.4643555,0.7631836,0.75,1.2988281,0.75h8.2182617    C37.5722656,58.6640625,38.0678711,58.378418,38.3354492,57.9140625z M29.6845703,55.6640625L26.440918,50.046875    l3.2436523-5.6176758h6.4858398l3.2436523,5.6176758l-3.2436523,5.6171875H29.6845703z"></path><path fill="#000000" d="M50.9609375,62.3725586H38c-0.8286133,0-1.5,0.6713867-1.5,1.5v12.9609375    c0,0.8286133,0.6713867,1.5,1.5,1.5h12.9609375c0.828125,0,1.5-0.6713867,1.5-1.5V63.8725586    C52.4609375,63.0439453,51.7890625,62.3725586,50.9609375,62.3725586z M49.4609375,75.3334961H39.5v-9.9609375h9.9609375    V75.3334961z"></path><path fill="#000000" d="M72.5654297,58.5H57.1699219c-0.5361328,0-1.03125,0.2861328-1.2988281,0.75    c-0.2685547,0.4643555-0.2685547,1.0361328,0,1.5l7.6982422,13.3334961c0.2675781,0.4643555,0.7626953,0.75,1.2988281,0.75    s1.03125-0.2861328,1.2988281-0.75L73.8642578,60.75c0.2685547-0.4643555,0.2685547-1.0361328,0-1.5    C73.5966797,58.7856445,73.1015625,58.5,72.5654297,58.5z M64.8681641,70.3334961L59.7675781,61.5h10.2001953    L64.8681641,70.3334961z"></path></g></g></svg>