<svg xmlns="http://www.w3.org/2000/svg" xmlns:xlink="http://www.w3.org/1999/xlink" version="1.1" x="0px" y="0px" viewBox="-255 347 100 100" enable-background="new -255 347 100 100" xml:space="preserve"><g><path fill="none" stroke="#000000" stroke-width="0.75" stroke-linecap="round" stroke-linejoin="round" stroke-miterlimit="10" d="   M-217.417,391.488"></path></g><g><path d="M-205,441.875c-24.744,0-44.875-20.131-44.875-44.875s20.131-44.875,44.875-44.875s44.875,20.131,44.875,44.875   C-160.125,421.744-180.256,441.875-205,441.875z M-205,352.875c-24.331,0-44.125,19.794-44.125,44.125s19.794,44.125,44.125,44.125   s44.125-19.794,44.125-44.125S-180.669,352.875-205,352.875z"></path></g><g><g><path d="M-213.599,437.9c-0.245,0-0.489-0.033-0.728-0.103c-0.834-0.214-1.539-0.743-1.935-1.452    c-0.363-0.648-0.443-1.391-0.226-2.09c0.468-1.508,2.024-2.431,3.462-2.059c0.736,0.221,1.329,0.634,1.727,1.198    c0.432,0.627,0.604,1.382,0.486,2.127c-0.123,0.772-0.552,1.44-1.208,1.881C-212.499,437.73-213.049,437.9-213.599,437.9z     M-213.687,432.861c-0.903,0-1.784,0.65-2.084,1.617c-0.155,0.501-0.097,1.034,0.164,1.502c0.297,0.531,0.834,0.93,1.473,1.093    c0.004,0.001,0.008,0.002,0.012,0.003c0.558,0.163,1.17,0.055,1.682-0.294c0.484-0.324,0.798-0.813,0.887-1.377    c0.088-0.555-0.04-1.116-0.36-1.581c-0.298-0.423-0.753-0.736-1.313-0.904C-213.378,432.881-213.533,432.861-213.687,432.861z"></path></g></g><g><g><path d="M-224.486,433.674c-0.102,0-0.203-0.006-0.301-0.018c-0.409-0.065-0.788-0.207-1.143-0.421c0,0,0,0,0-0.001    c-0.739-0.447-1.26-1.159-1.431-1.953c-0.156-0.725-0.014-1.456,0.401-2.061c0.893-1.302,2.652-1.731,3.924-0.955    c0.315,0.191,0.586,0.446,0.806,0.758c0.223,0.284,0.385,0.588,0.486,0.913c0.226,0.721,0.167,1.491-0.167,2.169    c-0.346,0.701-0.954,1.213-1.711,1.44C-223.912,433.631-224.205,433.674-224.486,433.674z M-225.542,432.594    c0.272,0.164,0.562,0.271,0.859,0.32c0.252,0.028,0.551-0.002,0.846-0.087c0.554-0.167,1-0.541,1.252-1.054    c0.248-0.503,0.292-1.076,0.123-1.613c-0.074-0.238-0.195-0.464-0.372-0.69c-0.17-0.241-0.367-0.426-0.594-0.563    c-0.936-0.57-2.244-0.239-2.916,0.738c-0.296,0.433-0.398,0.958-0.286,1.479C-226.5,431.717-226.104,432.252-225.542,432.594z"></path></g></g><g><g><path d="M-233.533,426.435c-0.018,0-0.035,0-0.052,0c-0.81-0.016-1.551-0.365-2.086-0.987c-0.579-0.643-0.874-1.469-0.809-2.269    c0.061-0.737,0.416-1.399,1.001-1.865c1.227-0.976,3.036-0.872,4.031,0.232c0.998,1.18,0.97,2.9-0.057,4.011    C-232.021,426.116-232.759,426.435-233.533,426.435z M-233.552,421.399c-0.512,0-1.037,0.165-1.459,0.501    c-0.421,0.335-0.677,0.811-0.721,1.34c-0.048,0.596,0.178,1.218,0.621,1.707c0.002,0.003,0.004,0.005,0.006,0.008    c0.394,0.459,0.939,0.719,1.534,0.729c0.585,0.008,1.132-0.221,1.516-0.638c0.771-0.832,0.789-2.126,0.043-3.008    C-232.394,421.616-232.965,421.399-233.552,421.399z"></path></g></g><g><g><path d="M-240.148,416.851c-0.286,0-0.572-0.044-0.848-0.132c-0.729-0.26-1.344-0.828-1.698-1.564l0,0    c-0.355-0.736-0.417-1.572-0.169-2.293c0.27-0.732,0.842-1.318,1.574-1.612c0.691-0.277,1.441-0.281,2.166-0.004    c0.721,0.259,1.295,0.761,1.609,1.41c0.313,0.651,0.348,1.413,0.099,2.146c-0.22,0.715-0.7,1.317-1.346,1.685    C-239.188,416.727-239.667,416.851-240.148,416.851z M-240.217,411.79c-0.246,0-0.513,0.042-0.792,0.154    c-0.536,0.216-0.954,0.642-1.148,1.169c-0.181,0.527-0.131,1.155,0.139,1.715c0,0,0,0,0,0.001c0.27,0.56,0.729,0.989,1.263,1.179    c0.529,0.17,1.125,0.106,1.623-0.175c0.615-0.349,0.885-0.88,1.003-1.264c0.189-0.556,0.166-1.116-0.061-1.589    c-0.228-0.471-0.651-0.838-1.193-1.032C-239.604,411.864-239.891,411.79-240.217,411.79z"></path></g></g><g><g><path d="M-243.622,405.736c-0.585,0-1.152-0.18-1.592-0.519c-0.606-0.452-1.027-1.177-1.151-1.984l0,0    c-0.123-0.809,0.063-1.625,0.511-2.239c0.493-0.623,1.214-1.011,1.989-1.075c0.742-0.063,1.479,0.166,2.067,0.644    c0.608,0.455,1.01,1.104,1.119,1.817c0.109,0.715-0.081,1.452-0.535,2.078c-0.492,0.659-1.081,1.056-1.801,1.213    C-243.215,405.715-243.419,405.736-243.622,405.736z M-245.623,403.12c0.094,0.614,0.408,1.161,0.862,1.5    c0.417,0.321,1.025,0.439,1.587,0.318c0.536-0.117,0.98-0.42,1.356-0.926c0.334-0.46,0.477-1.002,0.398-1.52    c-0.08-0.518-0.377-0.994-0.839-1.34c-0.449-0.363-0.997-0.533-1.544-0.486c-0.569,0.047-1.099,0.331-1.454,0.78    C-245.58,401.892-245.716,402.506-245.623,403.12L-245.623,403.12z"></path></g></g><g><g><path d="M-243.626,394.091c-0.079,0-0.159-0.003-0.238-0.01c-0.774-0.064-1.496-0.451-1.98-1.063    c-0.457-0.626-0.643-1.442-0.52-2.251l0,0c0.124-0.808,0.544-1.533,1.155-1.989c0.587-0.452,1.409-0.622,2.196-0.449    c0.72,0.157,1.308,0.552,1.797,1.209c0.457,0.63,0.647,1.368,0.538,2.082c-0.109,0.714-0.511,1.363-1.131,1.828    C-242.322,393.864-242.963,394.091-243.626,394.091z M-245.623,390.88c-0.093,0.614,0.043,1.229,0.376,1.685    c0.347,0.438,0.876,0.723,1.444,0.77c0.557,0.043,1.099-0.125,1.534-0.478c0.473-0.355,0.771-0.831,0.851-1.35    c0.079-0.518-0.063-1.059-0.401-1.524c-0.374-0.501-0.818-0.804-1.354-0.921c-0.561-0.122-1.17-0.002-1.583,0.314    C-245.214,389.718-245.529,390.265-245.623,390.88L-245.623,390.88z"></path></g></g><g><g><path d="M-240.212,382.962c-0.366,0-0.729-0.07-1.077-0.211c-0.731-0.293-1.304-0.878-1.572-1.604    c-0.25-0.728-0.188-1.564,0.167-2.3l0,0c0.355-0.736,0.97-1.305,1.688-1.561c0.752-0.241,1.566-0.156,2.245,0.23    c0.646,0.367,1.125,0.968,1.35,1.695c0.246,0.723,0.211,1.484-0.103,2.134c-0.313,0.65-0.887,1.152-1.615,1.413    C-239.487,382.894-239.851,382.962-240.212,382.962z M-242.019,379.171c-0.27,0.56-0.319,1.188-0.136,1.724    c0.191,0.519,0.61,0.945,1.145,1.16c0.649,0.262,1.238,0.144,1.619-0.001c0.549-0.197,0.973-0.564,1.2-1.036    c0.228-0.472,0.25-1.032,0.065-1.578c-0.122-0.394-0.392-0.925-1.006-1.273c-0.498-0.283-1.094-0.346-1.635-0.172    C-241.288,378.182-241.749,378.611-242.019,379.171L-242.019,379.171z"></path></g></g><g><g><path d="M-233.558,373.354c-0.673,0-1.358-0.22-1.92-0.667c-0.585-0.466-0.941-1.129-1.001-1.866    c-0.065-0.8,0.229-1.626,0.809-2.268c0.535-0.622,1.276-0.972,2.085-0.987c0.781-0.021,1.552,0.304,2.082,0.877    c1.027,1.11,1.055,2.831,0.065,4.001C-231.983,373.047-232.763,373.354-233.558,373.354z M-233.533,368.315    c-0.013,0-0.026,0-0.039,0c-0.595,0.011-1.14,0.271-1.534,0.73c-0.002,0.002-0.004,0.005-0.006,0.007    c-0.443,0.49-0.669,1.112-0.621,1.708c0.043,0.529,0.299,1.005,0.721,1.34c0.907,0.72,2.284,0.652,3.008-0.149    c0.738-0.873,0.719-2.166-0.051-2.999C-232.431,368.546-232.968,368.315-233.533,368.315z"></path></g></g><g><g><path d="M-224.438,366.12c-0.958,0-1.931-0.479-2.522-1.341c-0.415-0.604-0.557-1.335-0.401-2.061    c0.171-0.793,0.692-1.505,1.431-1.953l0,0c0.354-0.214,0.733-0.355,1.126-0.42c0.391-0.045,0.791-0.006,1.18,0.108    c0.759,0.228,1.368,0.74,1.713,1.441c0.333,0.677,0.393,1.448,0.166,2.17c-0.101,0.326-0.264,0.629-0.498,0.927    c-0.206,0.294-0.478,0.549-0.794,0.743C-223.466,365.996-223.951,366.12-224.438,366.12z M-225.542,361.407    c-0.563,0.341-0.959,0.876-1.087,1.469c-0.112,0.521-0.011,1.046,0.286,1.478c0.671,0.979,1.979,1.312,2.915,0.74    c0.229-0.14,0.425-0.325,0.583-0.55c0.188-0.24,0.309-0.465,0.383-0.703c0.169-0.539,0.125-1.112-0.123-1.615    c-0.252-0.513-0.698-0.887-1.255-1.054c-0.291-0.086-0.589-0.114-0.862-0.085C-224.98,361.134-225.27,361.243-225.542,361.407    L-225.542,361.407z"></path></g></g><g><g><path d="M-213.674,361.883c-1.237,0-2.416-0.859-2.813-2.139c-0.217-0.699-0.137-1.441,0.226-2.09    c0.396-0.709,1.102-1.238,1.936-1.453c0.774-0.221,1.613-0.078,2.308,0.397c0.654,0.439,1.083,1.107,1.206,1.879    c0.118,0.745-0.054,1.5-0.484,2.124c-0.4,0.567-0.992,0.979-1.714,1.197C-213.23,361.855-213.453,361.883-213.674,361.883z     M-213.6,356.85c-0.176,0-0.352,0.024-0.522,0.074c-0.004,0.001-0.008,0.002-0.012,0.003c-0.639,0.163-1.176,0.562-1.473,1.093    c-0.261,0.467-0.319,1-0.164,1.501c0.352,1.132,1.498,1.83,2.559,1.555c0.546-0.165,1.001-0.479,1.301-0.904    c0.318-0.461,0.446-1.022,0.358-1.577c-0.089-0.564-0.403-1.053-0.885-1.375C-212.794,356.976-213.199,356.85-213.6,356.85z"></path></g></g><g><g><path d="M-202.159,361.018c-0.044,0-0.088-0.001-0.132-0.003c-1.487-0.073-2.701-1.417-2.704-2.995    c-0.001-0.733,0.293-1.418,0.831-1.93c0.589-0.56,1.424-0.856,2.281-0.811l0,0c0.414,0.022,0.807,0.118,1.167,0.286    c0.34,0.171,0.644,0.422,0.913,0.751c0.5,0.618,0.714,1.384,0.604,2.158c-0.105,0.749-0.491,1.418-1.085,1.885    c-0.254,0.203-0.549,0.358-0.926,0.485C-201.512,360.959-201.833,361.018-202.159,361.018z M-202.054,356.025    c-0.608,0-1.183,0.218-1.593,0.608c-0.387,0.368-0.6,0.86-0.599,1.385c0.002,1.186,0.896,2.194,1.991,2.248    c0.27,0.015,0.534-0.029,0.793-0.127c0.304-0.103,0.526-0.218,0.712-0.367c0.443-0.349,0.729-0.846,0.809-1.403    c0.08-0.565-0.078-1.126-0.444-1.579c-0.198-0.243-0.427-0.434-0.658-0.55c-0.262-0.122-0.562-0.195-0.879-0.211l0,0    C-201.966,356.026-202.01,356.025-202.054,356.025z"></path></g></g><g><g><path d="M-190.894,363.562c-0.302,0-0.613-0.054-0.909-0.162c-1.397-0.509-2.159-2.151-1.698-3.661    c0.215-0.701,0.698-1.269,1.363-1.598c0.726-0.362,1.609-0.398,2.42-0.1c0.389,0.143,0.735,0.351,1.031,0.618    c0.291,0.302,0.503,0.63,0.649,0.996c0.294,0.733,0.272,1.527-0.062,2.235c-0.322,0.683-0.889,1.209-1.595,1.481    c-0.334,0.129-0.681,0.192-1.044,0.185C-190.789,363.56-190.841,363.562-190.894,363.562z M-190.832,358.591    c-0.342,0-0.676,0.074-0.973,0.221c-0.478,0.237-0.826,0.645-0.979,1.146c-0.347,1.134,0.209,2.362,1.237,2.736    c0.251,0.091,0.52,0.13,0.794,0.112c0.279,0.006,0.545-0.041,0.79-0.135c0.525-0.203,0.946-0.594,1.187-1.102    c0.243-0.517,0.259-1.098,0.043-1.636c-0.109-0.272-0.273-0.527-0.475-0.737c-0.205-0.184-0.47-0.342-0.768-0.452l0,0    C-190.257,358.643-190.548,358.591-190.832,358.591z"></path></g></g><g><g><path d="M-180.686,369.399c-0.59,0-1.189-0.204-1.784-0.609c-1.209-0.899-1.458-2.687-0.57-3.993    c0.412-0.605,1.043-1.006,1.777-1.128c0.796-0.134,1.654,0.085,2.344,0.601c0.631,0.44,1.04,1.188,1.124,2.051    c0.068,0.789-0.184,1.54-0.711,2.118c-0.51,0.558-1.207,0.896-1.965,0.952C-180.542,369.396-180.614,369.399-180.686,369.399z     M-180.796,364.381c-0.115,0-0.23,0.009-0.344,0.028c-0.53,0.088-0.984,0.376-1.279,0.811c-0.666,0.979-0.493,2.307,0.384,2.96    c0.516,0.35,1.012,0.505,1.505,0.463c0.57-0.042,1.091-0.294,1.471-0.709c0.384-0.421,0.567-0.97,0.518-1.544    c-0.063-0.643-0.357-1.193-0.811-1.507c-0.004-0.002-0.008-0.005-0.012-0.008C-179.791,364.553-180.298,364.381-180.796,364.381z"></path></g></g><g><g><path d="M-172.776,377.925c-0.945,0-1.853-0.451-2.384-1.278c-0.882-1.169-0.608-2.945,0.626-3.936    c0.57-0.458,1.295-0.658,2.033-0.563c0.812,0.104,1.571,0.56,2.086,1.251c0.005,0.007,0.01,0.013,0.014,0.02    c0.459,0.708,0.612,1.57,0.421,2.364c-0.181,0.746-0.635,1.36-1.281,1.732C-171.741,377.793-172.265,377.925-172.776,377.925z     M-172.858,372.875c-0.442,0-0.863,0.146-1.207,0.42c-0.921,0.74-1.137,2.051-0.479,2.923c0.618,0.96,1.89,1.235,2.909,0.647    c0.466-0.268,0.795-0.715,0.926-1.258c0.143-0.591,0.028-1.236-0.314-1.77c-0.393-0.524-0.966-0.868-1.571-0.946    C-172.685,372.881-172.771,372.875-172.858,372.875z"></path></g></g><g><g><path d="M-167.687,388.399c-1.3,0-2.48-0.833-2.794-2.068c-0.486-1.375,0.296-2.987,1.753-3.562    c0.684-0.272,1.441-0.248,2.133,0.069c0.744,0.341,1.331,0.999,1.61,1.804c0.003,0.01,0.006,0.019,0.009,0.028    c0.217,0.835,0.098,1.715-0.329,2.415c-0.389,0.638-0.996,1.078-1.709,1.238C-167.238,388.375-167.464,388.399-167.687,388.399z     M-167.749,383.333c-0.239,0-0.477,0.045-0.703,0.134c-1.086,0.429-1.675,1.616-1.312,2.647c0.279,1.089,1.438,1.736,2.586,1.479    c0.513-0.116,0.95-0.434,1.232-0.897c0.319-0.523,0.408-1.186,0.247-1.82c-0.214-0.607-0.654-1.1-1.209-1.355    C-167.179,383.396-167.465,383.333-167.749,383.333z"></path></g></g><g><g><path d="M-165.952,399.915c-0.068,0-0.136-0.003-0.204-0.008c-1.58-0.121-2.8-1.435-2.718-2.928    c-0.082-1.453,1.138-2.766,2.718-2.886c0.725-0.054,1.439,0.187,2.001,0.683c0.613,0.542,0.989,1.347,1.03,2.207    c0,0.012,0,0.023,0,0.035c-0.041,0.86-0.417,1.664-1.03,2.206C-164.664,399.674-165.296,399.915-165.952,399.915z     M-165.953,394.835c-0.049,0-0.098,0.002-0.146,0.006c-1.177,0.089-2.085,1.048-2.026,2.138c-0.059,1.13,0.851,2.09,2.026,2.18    c0.521,0.042,1.039-0.137,1.447-0.497c0.459-0.405,0.741-1.01,0.777-1.662c-0.036-0.652-0.318-1.256-0.777-1.662    C-165.022,395.011-165.479,394.835-165.953,394.835z"></path></g></g><g><g><path d="M-167.748,411.418c-0.333,0-0.663-0.063-0.979-0.188c-1.457-0.575-2.239-2.188-1.743-3.594    c0.356-1.414,1.907-2.311,3.457-1.962c0.714,0.161,1.32,0.602,1.709,1.239c0.427,0.699,0.546,1.579,0.329,2.414    c-0.003,0.01-0.006,0.019-0.009,0.028c-0.279,0.805-0.865,1.463-1.609,1.805C-166.966,411.332-167.358,411.418-167.748,411.418z     M-167.689,406.35c-0.965,0-1.836,0.604-2.064,1.504c-0.373,1.063,0.216,2.25,1.302,2.68c0.495,0.194,1.044,0.176,1.546-0.054    c0.554-0.255,0.994-0.748,1.208-1.354c0.161-0.635,0.072-1.298-0.246-1.82c-0.282-0.463-0.721-0.782-1.233-0.897    C-167.35,406.368-167.521,406.35-167.689,406.35z"></path></g></g><g><g><path d="M-172.861,421.875c-0.611,0-1.195-0.202-1.672-0.585c-1.235-0.991-1.509-2.768-0.611-3.96    c0.805-1.253,2.518-1.634,3.884-0.846c0.645,0.371,1.1,0.985,1.28,1.73c0.191,0.794,0.038,1.656-0.421,2.365    c-0.004,0.007-0.009,0.014-0.014,0.02c-0.515,0.691-1.275,1.148-2.087,1.252C-172.622,421.867-172.742,421.875-172.861,421.875z     M-172.777,416.825c-0.697,0-1.363,0.329-1.752,0.934c-0.673,0.895-0.457,2.206,0.465,2.945c0.41,0.329,0.932,0.473,1.468,0.403    c0.606-0.077,1.179-0.422,1.572-0.945c0.343-0.535,0.457-1.18,0.314-1.771c-0.131-0.543-0.46-0.989-0.925-1.257    C-171.998,416.926-172.393,416.825-172.777,416.825z"></path></g></g><g><g><path d="M-180.796,430.369c-0.156,0-0.313-0.013-0.467-0.038c-0.733-0.122-1.365-0.523-1.777-1.129    c-0.889-1.307-0.639-3.094,0.558-3.983c0.68-0.463,1.351-0.661,2.016-0.609c0.754,0.056,1.451,0.394,1.96,0.951    c0.528,0.578,0.78,1.329,0.713,2.114c-0.085,0.867-0.494,1.615-1.125,2.056C-179.476,430.146-180.14,430.369-180.796,430.369z     M-180.684,425.351c-0.444,0-0.892,0.158-1.364,0.479c-0.865,0.644-1.037,1.972-0.371,2.95c0.295,0.435,0.75,0.723,1.279,0.811    c0.608,0.105,1.25-0.069,1.776-0.464c0.003-0.003,0.007-0.006,0.011-0.008c0.453-0.315,0.748-0.866,0.812-1.513    c0.05-0.57-0.135-1.119-0.52-1.54c-0.379-0.415-0.899-0.667-1.465-0.709C-180.578,425.353-180.631,425.351-180.684,425.351z"></path></g></g><g><g><path d="M-190.832,436.159c-0.457,0-0.904-0.101-1.306-0.3c-0.664-0.33-1.148-0.897-1.363-1.599    c-0.461-1.51,0.301-3.151,1.698-3.66c0.349-0.127,0.714-0.183,1.096-0.156c0.311-0.015,0.682,0.056,1.015,0.185    c0.705,0.271,1.271,0.797,1.594,1.48c0.334,0.706,0.355,1.5,0.063,2.235c-0.148,0.366-0.36,0.694-0.631,0.978    c-0.314,0.285-0.661,0.492-1.05,0.636l0,0C-190.081,436.092-190.459,436.159-190.832,436.159z M-190.866,431.189    c-0.246,0-0.469,0.039-0.68,0.116c-1.029,0.374-1.585,1.602-1.238,2.736c0.154,0.501,0.502,0.908,0.98,1.146    c0.541,0.271,1.21,0.294,1.827,0.067c0.3-0.11,0.564-0.269,0.788-0.471c0.185-0.194,0.345-0.442,0.456-0.719    c0.215-0.538,0.199-1.12-0.044-1.636c-0.24-0.508-0.661-0.899-1.187-1.102c-0.242-0.094-0.5-0.138-0.762-0.135    C-190.772,431.19-190.82,431.189-190.866,431.189z"></path></g></g><g><g><path d="M-202.054,438.725c-0.8,0-1.561-0.292-2.11-0.814c-0.538-0.512-0.833-1.197-0.832-1.931    c0.003-1.578,1.217-2.922,2.705-2.995c0.373-0.016,0.738,0.043,1.093,0.176c0.363,0.121,0.659,0.276,0.917,0.482    c0.591,0.466,0.977,1.135,1.082,1.883c0.109,0.775-0.104,1.541-0.604,2.156c-0.266,0.325-0.577,0.583-0.902,0.748    c-0.375,0.175-0.768,0.27-1.18,0.291C-201.94,438.724-201.997,438.725-202.054,438.725z M-202.162,433.731    c-0.03,0-0.061,0.001-0.092,0.003c-1.095,0.054-1.989,1.062-1.991,2.247c-0.001,0.525,0.211,1.017,0.599,1.386    c0.439,0.418,1.073,0.635,1.725,0.604l0.001-0.001c0.315-0.016,0.614-0.088,0.89-0.215c0.221-0.113,0.449-0.305,0.648-0.548    c0.365-0.45,0.522-1.011,0.442-1.577c-0.079-0.556-0.365-1.054-0.807-1.4c-0.189-0.151-0.411-0.267-0.701-0.364    C-201.688,433.775-201.926,433.731-202.162,433.731z"></path></g></g><g display="none"><g display="inline"><path fill="none" stroke="#000000" stroke-width="0.75" stroke-linecap="round" stroke-linejoin="round" stroke-miterlimit="10" d="    M-188.671,377.525c-0.091,0.364,0.304,2.976,0.304,2.976c1.215,1.215,1.579,6.711,1.579,6.711c0.972,2.186,1.64,4.524,1.64,4.524    s1.032,1.609,1.245,2.49c0.213,0.881-0.85,1.427-0.85,1.427s-0.729,0.364-1.215,0c-0.486-0.364-1.025,0-1.025,0    s-0.463,0.638-0.068,1.835s-1.063,1.323-1.063,1.323c1.249,1.549-0.606,2.869-0.606,2.869c0.968,1.29,0.645,2.258,0,3.225    c-0.645,0.968-3.763,0.968-3.763,0.968s-7.203-0.215-5.698,2.365c1.505,2.58,0.968,2.795,0.968,2.795    c-1.398,5.053,0.215,7.74,2.903,9.998s4.73,6.235,4.73,6.235c-14.19,3.118-17.093,0-17.093,0    c-7.31-6.45-14.298-5.483-14.298-5.483s-2.458,0.201-0.434-2.605c2.024-2.806,4.177-5.808,4.177-5.808s-0.196-4.699-0.718-5.678    s-0.653-4.604-0.653-4.604"></path><path fill="none" stroke="#000000" stroke-width="0.75" stroke-linecap="round" stroke-linejoin="round" stroke-miterlimit="10" d="    M-221.873,394.053c-5.09-4.242-3.328-8.549-3.328-8.549c-3.524-5.417,4.177-10.996,4.177-10.996    c-1.436-6.232,4.699-5.515,4.699-5.515c0.392-2.154,5.743-2.415,5.743-2.415c0.392-1.893,7.537-0.979,7.537-0.979    c1.272-0.783,5.841,0.522,5.841,0.522s5.269-0.825,7.636,3.263c4.829,4.634,0.898,8.141,0.898,8.141    c-4.519-0.473-5.335,2.105-5.335,2.105s-2.741,0.457-2.349,2.937c0,0-5.678,1.958-4.177,3.785c0,0-0.848,2.023,1.37,2.545    c0,0,1.697,1.566-0.979,2.415c-2.676,0.848-3.72,0-3.72,0s-1.305-0.783-2.415-4.438c0,0-2.385-1.978-4.024-0.747    c-1.639,1.231-2.009,2.748-2.009,2.748s-0.82,2.051-0.082,4.143c0.141,0.399,0.263,0.773,0.368,1.117    c0.371,1.215,0.855,2.385,1.329,3.563c0.472,1.171,0.558,2.656,0.046,3.076c-0.718,0.587-1.109,1.37-4.111,2.314    c-3.002,0.943-3.85,0-3.85,0S-223.384,399.868-221.873,394.053"></path></g></g><g><path d="M-197.944,428.321c-3.723,0.001-7.88-0.463-10.688-2.148c-5.901-3.544-13.143-4.166-13.215-4.172   c-0.186-0.002-0.594-0.121-0.783-0.554c-0.522-1.193,1.109-3.872,4.986-8.188c-0.253-1.262-1.62-8.228-1.337-10.225   c0.029-0.205,0.216-0.354,0.424-0.318c0.205,0.029,0.348,0.219,0.318,0.424c-0.287,2.024,1.35,10.073,1.367,10.154   c0.024,0.117-0.009,0.238-0.089,0.326c-5.135,5.69-5.114,7.192-4.986,7.517c0.037,0.093,0.107,0.111,0.146,0.114   c0.089,0.007,7.5,0.642,13.555,4.278c5.082,3.051,15.228,1.855,17.922,1.469c-2.146-2.492-10.772-13.104-7.855-19.357   c0.015-0.031,0.033-0.061,0.056-0.086c0.075-0.088,1.878-2.176,5.642-2.058c1.69,0.055,2.872-0.321,3.433-1.075   c0.537-0.724,0.388-1.658,0.168-2.314c-0.045-0.173-0.865-3.618,1.933-6.837c0.106-0.122,0.279-0.162,0.428-0.1   c0.462,0.192,1.801,0.609,2.44,0.236c0.129-0.076,0.305-0.222,0.351-0.615c0.174-1.507-2.376-5.836-3.372-7.377   c-0.044-0.067-0.064-0.147-0.06-0.227c0.003-0.058,0.332-5.79-1.833-9.132c-0.113-0.174-0.063-0.406,0.11-0.519   c0.174-0.111,0.406-0.063,0.519,0.111c2.145,3.31,2.001,8.564,1.959,9.462c0.6,0.937,3.647,5.811,3.421,7.768   c-0.076,0.67-0.432,1.01-0.716,1.177c-0.877,0.514-2.261,0.117-2.849-0.092c-2.343,2.871-1.619,5.905-1.611,5.936   c0.388,1.156,0.292,2.193-0.286,2.971c-0.496,0.67-1.612,1.441-4.056,1.379c-3.135-0.113-4.773,1.505-5.021,1.763   c-2.959,6.537,8.1,18.879,8.212,19.003c0.092,0.102,0.121,0.245,0.076,0.374s-0.156,0.224-0.29,0.247   C-189.812,427.685-193.579,428.321-197.944,428.321z"></path></g><g><path d="M-217.048,403.645c-0.88,0-1.661-0.204-2.34-0.614c-3.201-1.932-2.953-7.713-2.873-8.833   c-3.44-3.407-5.122-7.086-4.999-10.939c0.211-6.604,5.594-11.301,5.823-11.498c0.074-0.067,8.489-7.619,24.271-6.013   c5.469,0.559,8.852,2.197,10.055,4.87c1.558,3.463-1.148,7.292-1.265,7.453c-0.089,0.124-0.243,0.179-0.391,0.146   c-2.485-0.588-5.906,1.38-10.162,5.84l-0.228,0.237c-0.825,0.852-0.112,3.277,0.829,5.262c0.184,0.389,0.03,1.009-0.374,1.508   c-0.288,0.355-1.124,1.144-2.636,0.788c-2.082-0.492-5.112-4.583-5.241-4.757c-2.027-1.938-3.412-0.744-3.47-0.692   c-0.179,0.146-3.961,3.294-1.452,8.146c2.715,5.25,1.34,6.377,1.037,6.55C-213.046,402.794-215.252,403.645-217.048,403.645z    M-201.537,366.271c-12.667,0-19.329,5.983-19.401,6.05c-0.063,0.055-5.375,4.695-5.572,10.966   c-0.116,3.679,1.533,7.21,4.899,10.497c0.082,0.08,0.122,0.191,0.112,0.304c-0.006,0.064-0.573,6.448,2.5,8.3   c1.795,1.085,4.538,0.435,8.146-1.928c0.012-0.009,1.097-0.909-1.312-5.566c-2.796-5.405,1.585-9.024,1.63-9.06   c0-0.001,1.923-1.723,4.52,0.769c0.869,1.171,3.345,4.164,4.851,4.52c1.034,0.24,1.6-0.205,1.849-0.492   c0.294-0.34,0.342-0.678,0.311-0.755c-0.81-1.708-1.978-4.774-0.689-6.104l0.224-0.233c1.626-1.704,6.502-6.81,10.618-6.105   c0.509-0.799,2.253-3.858,1.057-6.512c-1.087-2.409-4.265-3.899-9.445-4.428C-198.743,366.34-200.175,366.271-201.537,366.271z"></path></g></svg>