<?xml version="1.0" encoding="UTF-8"?>
<svg width="1200pt" height="1200pt" version="1.1" viewBox="0 0 1200 1200" xmlns="http://www.w3.org/2000/svg">
 <g>
  <path d="m644.58 453.66c-30.188-0.1875-61.125 15.938-89.297 42.797-21.422 20.438-41.156 46.734-58.547 77.109-1.4531 2.5781-2.9062 5.2031-4.3125 7.7812-31.312 0.60938-60.516 4.5-86.25 12.047-45.984 13.453-79.875 38.812-89.625 75.234l-0.046875 0.046875v0.23438c-3.75 14.719-3.1406 30.234 1.0781 45.469-14.391 13.781-21.094 34.828-15.656 55.266 7.9688 29.812 39.141 47.766 68.906 39.75 4.875-1.3125 9.4688-3.2812 13.641-5.7188 11.812 9.4688 24.703 18.469 38.578 27-1.4062 31.266 0.28125 60.609 4.9219 86.906 10.406 58.922 36.469 106.27 81.938 118.45 45.516 12.188 91.688-15.797 130.18-61.594 15.328-18.281 29.812-39.844 43.031-64.031 34.125 2.0156 66.047 0.51562 94.5-4.5 58.922-10.406 106.27-36.422 118.45-81.938s-15.797-91.734-61.594-130.18c-22.734-19.078-50.531-36.891-82.219-52.5 0-20.344-1.2656-40.031-4.0781-58.406 4.2188-2.3906 8.1562-5.3906 11.766-8.9531 21.797-21.797 21.844-57.75 0.046875-79.594-14.953-14.953-36.516-19.641-55.688-14.109-11.109-11.297-24.234-19.594-38.859-23.672l0.046875-0.046875c-0.09375 0-0.14062-0.046875-0.23438-0.09375-6.8438-1.8281-13.734-2.7656-20.672-2.7656zm3.2812 37.734c2.625 0.23438 5.1562 0.65625 7.5938 1.2656 6.2812 1.7812 12.234 5.1094 18.047 10.125-14.578 21.797-12.281 51.938 6.9375 71.109 8.6719 8.6719 19.547 13.828 30.891 15.609 1.6406 11.062 2.5781 22.875 3.0938 35.062-21.844-8.7656-44.906-16.641-69.234-23.156-37.172-9.9375-74.297-16.312-109.69-18.844 14.391-23.578 29.859-43.828 45.703-59.016 25.453-24.328 48.422-33.656 66.703-32.203zm72.375 23.859c4.7812 0 9.5156 1.875 13.266 5.625 7.5 7.5 7.4531 19.078-0.046875 26.531-7.5 7.5-19.031 7.5-26.531 0-6.5625-6.5625-7.3594-16.219-2.4375-23.531 0.70312-1.0312 1.5-2.0156 2.4375-2.9531 3.75-3.75 8.5312-5.625 13.312-5.625zm-204.94 104.06c37.781 1.3125 78.984 7.3125 120.1 18.328 28.031 7.5 54.375 16.875 78.609 27.375-1.875 35.109-7.6406 72.75-17.672 110.3-9.2812 34.688-21.422 66.844-35.156 95.438-26.906-2.9531-55.125-8.0625-83.953-15.797-41.719-11.25-81.094-26.906-114.84-45.094 2.7188-29.484 8.0625-60.75 16.641-92.766 9.375-34.969 21.891-68.156 36.328-97.828zm-41.859 0.60938c-12.094 27.328-22.453 56.766-30.703 87.469-7.4062 27.562-12.609 54.656-15.938 80.859-6.3281-4.3125-12.422-8.7188-18.094-13.219 4.125-10.688 5.0625-22.734 1.9219-34.547-7.0312-26.203-31.969-43.266-58.125-41.578-1.4062-7.5-1.3125-14.391 0.28125-20.672 5.25-19.312 25.266-37.594 63.891-48.891 16.594-4.875 35.812-8.0156 56.719-9.4688zm277.13 62.906c23.016 12.422 43.312 25.828 59.812 39.656 40.219 33.75 56.062 67.266 49.5 91.781s-37.078 45.562-88.781 54.703c-20.672 3.6562-44.344 5.1562-69.797 4.5469 12.141-27.281 22.781-56.906 31.219-88.5v0.046875-0.046875c9.1875-34.5 15.188-69 18-102.19zm-395.29 53.484c8.8125-0.60938 16.734 4.9688 19.172 13.922 2.7188 10.219-3.0469 20.203-13.266 22.969-10.219 2.7188-20.25-3.0469-23.016-13.266-2.7188-10.219 3.0938-20.203 13.312-22.969 1.2656-0.32812 2.5312-0.5625 3.7969-0.65625zm105.05 114.7c32.719 16.219 68.953 29.953 107.11 40.219v-0.046875c0.046874 0.046875 0.046874 0.046875 0.046874 0 25.453 6.7969 50.438 11.672 74.719 15-9.8438 16.547-20.156 31.453-30.703 44.062-33.75 40.219-67.266 56.062-91.781 49.5-24.516-6.5625-45.562-37.078-54.703-88.781-3.1875-18.047-4.6875-38.297-4.6406-60z"/>
  <path d="m580.08 673.82c-39.797 10.641-63.703 52.078-53.016 91.875 10.641 39.797 52.078 63.703 91.875 53.016 39.797-10.641 63.703-52.078 53.016-91.875-10.641-39.797-52.078-63.703-91.875-53.016zm9.7031 36.234c20.203-5.4375 40.5 6.2812 45.938 26.531 5.4375 20.203-6.2812 40.5-26.531 45.938-20.203 5.4375-40.5-6.2812-45.938-26.531-5.4375-20.203 6.2812-40.5 26.531-45.938z"/>
  <path d="m262.5 75c-30.844 0-56.25 25.406-56.25 56.25v37.5h-131.26c-10.359 0-18.75 8.3906-18.75 18.75v918.74c0 10.359 8.3906 18.75 18.75 18.75h1050c10.359 0 18.75-8.3906 18.75-18.75v-918.74c0-10.359-8.3906-18.75-18.75-18.75h-131.26v-37.5c0-30.844-25.406-56.25-56.25-56.25s-56.25 25.406-56.25 56.25v37.5h-112.5v-37.5c0-30.844-25.406-56.25-56.25-56.25s-56.25 25.406-56.25 56.25v37.5h-112.5v-37.5c0-30.844-25.406-56.25-56.25-56.25s-56.25 25.406-56.25 56.25v37.5h-112.5v-37.5c0-30.844-25.406-56.25-56.25-56.25zm0 37.5c10.594 0 18.75 8.1562 18.75 18.75v112.5c0 10.594-8.1562 18.75-18.75 18.75s-18.75-8.1562-18.75-18.75v-112.5c0-10.594 8.1562-18.75 18.75-18.75zm225 0c10.594 0 18.75 8.1562 18.75 18.75v112.5c0 10.594-8.1562 18.75-18.75 18.75s-18.75-8.1562-18.75-18.75v-112.5c0-10.594 8.1562-18.75 18.75-18.75zm225 0c10.594 0 18.75 8.1562 18.75 18.75v112.5c0 10.594-8.1562 18.75-18.75 18.75s-18.75-8.1562-18.75-18.75v-112.5c0-10.594 8.1562-18.75 18.75-18.75zm225 0c10.594 0 18.75 8.1562 18.75 18.75v112.5c0 10.594-8.1562 18.75-18.75 18.75s-18.75-8.1562-18.75-18.75v-112.5c0-10.594 8.1562-18.75 18.75-18.75zm-843.74 93.75h112.5v37.5c0 30.844 25.406 56.25 56.25 56.25s56.25-25.406 56.25-56.25v-37.5h112.5v37.5c0 30.844 25.406 56.25 56.25 56.25s56.25-25.406 56.25-56.25v-37.5h112.5v37.5c0 30.844 25.406 56.25 56.25 56.25s56.25-25.406 56.25-56.25v-37.5h112.5v37.5c0 30.844 25.406 56.25 56.25 56.25s56.25-25.406 56.25-56.25v-37.5h112.5v150h-1012.5zm0 187.5h1012.5v693.74h-1012.5z"/>
 </g>
</svg>
