<svg xmlns="http://www.w3.org/2000/svg" xmlns:xlink="http://www.w3.org/1999/xlink" version="1.1" x="0px" y="0px" viewBox="0 0 100 100" style="enable-background:new 0 0 100 100;" xml:space="preserve"><path d="M31.8208008,10H11c-0.5522461,0-1,0.4472656-1,1v8.9101562c0,0.5527344,0.4477539,1,1,1h2.4231567L11.965332,34.1513672  c-0.1552734,1.4111328,0.2988281,2.8261719,1.2460938,3.8828125c0.3830566,0.4277344,0.8353882,0.7772217,1.3295898,1.0471191  v40.0085449H11c-0.5522461,0-1,0.4472656-1,1V89c0,0.5527344,0.4477539,1,1,1h20.8208008c0.5522461,0,1-0.4472656,1-1v-8.9101562  c0-0.5527344-0.4477539-1-1-1h-3.5405273v-40.041748c0.4689941-0.2648926,0.8977661-0.604248,1.2641602-1.0129395  c0.9472656-1.0576172,1.4013672-2.4726562,1.2460938-3.8837891l-1.4573975-13.2412109h2.4876709c0.5522461,0,1-0.4472656,1-1V11  C32.8208008,10.4472656,32.3730469,10,31.8208008,10z M30.8208008,88H12v-6.9101562h18.8208008V88z M26.2802734,79.0898438  h-9.7392578V39.6772461c0.1310425,0.010498,0.262146,0.0209961,0.3945312,0.0209961h8.8847656  c0.1543579,0,0.3074951-0.0102539,0.4599609-0.0244141V79.0898438z M28.8022461,34.3701172  c0.0947266,0.859375-0.1708984,1.6865234-0.7470703,2.3300781c-0.5766602,0.6435547-1.3706055,0.9980469-2.2348633,0.9980469  h-8.8847656c-0.3369141,0-0.6572876-0.0690918-0.9640503-0.1729736c-0.0502319-0.024292-0.104126-0.0357666-0.1586304-0.0515137  c-0.4177856-0.1685791-0.7984619-0.4239502-1.1116943-0.7735596c-0.5766602-0.6435547-0.8422852-1.4707031-0.7475586-2.3300781  l1.4819336-13.4599609h11.8852539L28.8022461,34.3701172z M30.8208008,18.9101562H12V12h18.8208008V18.9101562z"></path><path d="M60.4106445,79.0898438h-3.5410156V55.28125c0-0.2705078-0.1098633-0.5302734-0.3041992-0.71875l-3.3564453-3.25v-5.453125  c0-0.5527344-0.4477539-1-1-1h-8.0786133c-0.5522461,0-1,0.4472656-1,1v33.2304688h-3.5410156c-0.5522461,0-1,0.4472656-1,1V89  c0,0.5527344,0.4477539,1,1,1h20.8212891c0.5522461,0,1-0.4472656,1-1v-8.9101562  C61.4106445,79.5371094,60.9628906,79.0898438,60.4106445,79.0898438z M45.1303711,46.859375h6.0786133v4.8769531  c0,0.2705078,0.1098633,0.5302734,0.3041992,0.71875l3.3564453,3.25v23.3847656h-9.7392578V46.859375z M59.4106445,88H40.5893555  v-6.9101562h18.8212891V88z"></path><path d="M89,79.0898438h-3.5410156v-39.041748c0.4691772-0.2651367,0.8981323-0.6047363,1.2646484-1.013916  C87.6708984,37.9775391,88.125,36.5625,87.9697266,35.1513672l-1.5117188-13.7304688  c-0.0561523-0.5068359-0.484375-0.890625-0.9941406-0.890625h-7.331543c-0.5522461,0-1,0.4472656-1,1v5.5537109h-6.2036133  c-0.5097656,0-0.9379883,0.3837891-0.9941406,0.890625l-0.7900391,7.1767578  c-0.1552734,1.4111328,0.2988281,2.8261719,1.2460938,3.8828125c0.3829346,0.4274902,0.835083,0.7769775,1.3291016,1.046875  v14.0029297c0,0.4013672,0.2402344,0.7636719,0.609375,0.9208984l5.159668,2.1875l-5.159668,2.1875  c-0.3691406,0.1572266-0.609375,0.5195312-0.609375,0.9208984v18.7890625h-3.5405273c-0.5522461,0-1,0.4472656-1,1V89  c0,0.5527344,0.4477539,1,1,1H89c0.5522461,0,1-0.4472656,1-1v-8.9101562C90,79.5371094,89.5522461,79.0898438,89,79.0898438z   M71.1328125,35.3701172l0.6918945-6.2861328h6.3076172c0.5522461,0,1-0.4472656,1-1v-5.5537109h5.4355469l1.4135742,12.8398438  c0.0947266,0.859375-0.1708984,1.6865234-0.7475586,2.3300781s-1.3701172,0.9980469-2.234375,0.9980469h-8.8847656  c-0.3372803,0-0.657959-0.0692139-0.9649658-0.1733398c-0.0497437-0.0239258-0.1030273-0.0352783-0.1569214-0.0509033  c-0.4180298-0.1685791-0.7990723-0.4239502-1.1124878-0.7738037C71.3037109,37.0566406,71.0380859,36.2294922,71.1328125,35.3701172  z M73.7197266,60.9628906l6.7211914-2.8496094c0.3691406-0.1572266,0.609375-0.5195312,0.609375-0.9208984  s-0.2402344-0.7636719-0.609375-0.9208984l-6.7211914-2.8496094V40.6772461  c0.1312256,0.010498,0.2624512,0.0209961,0.3950195,0.0209961h8.8847656c0.1541748,0,0.3071899-0.010376,0.4594727-0.0244141  v38.4160156h-9.7392578V60.9628906z M88,88H69.1791992v-6.9101562H88V88z"></path></svg>