<?xml version="1.0" encoding="UTF-8"?>
<svg width="1200pt" height="1200pt" version="1.1" viewBox="0 0 1200 1200" xmlns="http://www.w3.org/2000/svg">
 <g>
  <path d="m851.18 316.22c-217.64-248.57-483.07-308.64-592.88-134.16-109.82 174.5-22.453 517.43 195.16 766.01 217.61 248.57 483.06 308.66 592.89 134.16 109.8-174.5 22.441-517.45-195.17-766.01zm189.72 759.8c-108.14 171.79-370.43 112.45-584.71-132.3-214.26-244.75-300.6-583.66-192.47-755.46 108.14-171.79 370.43-112.46 584.69 132.3 214.3 244.77 300.64 583.67 192.49 755.46z"/>
  <path d="m771.64 442.6c-93.816-107.17-199.8-156.57-277.97-136.7 1.5117 1.043 3.3594 1.7539 3.4805 3.5508 77.113-19.367 180.57 30.336 272.83 135.76 128.58 146.83 180.37 350.17 115.52 453.25-64.895 103.11-222.28 67.465-350.84-79.391-114.94-131.26-170.55-300.86-134.26-410.46-1.7266-0.097657-2.2578-3.3711-3.1562-4.4023-36 111.25 19.523 284.7 135.77 417.47 130.56 149.18 289.81 185.21 355.75 80.496 65.867-104.67 13.438-310.44-117.13-459.57z"/>
  <path d="m811.4 379.4c-174.12-198.84-386.44-246.91-474.3-107.32-87.875 139.57-17.965 413.94 156.12 612.79 174.11 198.86 386.45 246.91 474.31 107.32 87.852-139.58 17.965-413.94-156.13-612.79zm151.79 607.84c-86.484 137.45-296.34 89.988-467.76-105.83-171.43-195.81-240.49-466.92-153.97-604.37 86.508-137.45 296.33-89.965 467.75 105.84 171.45 195.82 240.52 466.9 153.98 604.36z"/>
  <path d="m478.22 314.7 0.14453 1.0703-1.6211 0.34766-0.21484 2.2891h1.9453l2.5664-0.23828 1.332-1.582-1.4141-0.55469-0.76953-0.88672-1.1641-1.8984-0.55078-2.6484-2.1836 0.44141-0.61328 0.9375v1.0664l1.043 0.71094z"/>
  <path d="m476.36 315.59 0.12109-1.4414-1.2852-0.55078-1.7891 0.40625-1.332 2.1367v1.3789h1.5508z"/>
  <path d="m439.49 321.7-0.39453 1.0195h-1.9062v0.98438h0.45703s0.023438 0.21484 0.058594 0.48047l1.1758-0.097657 0.73047-0.45703 0.19141-0.91016 0.94922-0.085938 0.37109-0.76953-0.86328-0.17969z"/>
  <path d="m434.57 323.48-0.070312 0.96094 1.3789-0.12109 0.13281-0.96094-0.82812-0.64844z"/>
  <path d="m517.61 354.25c-0.023437-2.125-0.13281-4.2344-0.33594-6.3008-0.67188-6.9258-2.3164-13.559-4.8008-19.766-0.19141-0.46875-0.35938-0.9375-0.55078-1.3906-3.3008-7.8008-7.9453-14.902-13.621-21.035-0.37109-0.39453-0.75781-0.79297-1.1289-1.1875-1.0664-1.1172-2.1719-2.207-3.3125-3.2539-12.91-11.746-30.047-18.926-48.84-18.926-18.949 0-36.215 7.2969-49.164 19.234-3.0117 2.7852-5.7852 5.8203-8.3047 9.0703-9.4922 12.266-15.145 27.637-15.145 44.305 0 40.043 32.566 72.613 72.613 72.613 28.164 0 52.609-16.129 64.645-39.625 2.5781-5.0273 4.5859-10.379 5.9297-15.996 0.34766-1.4141 0.63672-2.8438 0.89844-4.2969 0.73047-4.1289 1.1289-8.3633 1.1289-12.695 0.011718-0.24609-0.011719-0.5-0.011719-0.75zm-13.668-29.008 0.42188-0.48047c0.55078 1.0781 1.0664 2.1719 1.5586 3.2656l-0.69531-0.023438-1.2969 0.17969v-2.9414zm-10.488-12.672 0.011719-3.2539c1.1406 1.2109 2.2422 2.4492 3.2891 3.7422l-1.3086 1.957-4.5703-0.046875-0.28906-0.94922zm-87.59-8.0625v-0.13281h1.4531l0.12109-0.49219h2.375v1.0312l-0.68359 0.91016h-3.2773zm3.9023 4.4414-3.2773 0.21484-0.625-0.74219 2.3164-0.67188s1.4531-0.25391 1.5859-0.25391c0.12891 0 0 1.4531 0 1.4531zm98.805 27.621h-5.3164l-3.2383-2.4102-3.4062 0.33594v2.0742h-1.0781l-1.1641-0.82812-5.9023-1.5v-3.8164l-7.4766 0.58984-2.3164 1.2461h-2.9648l-1.4648-0.14453-3.6016 1.9922v3.7695l-7.3672 5.3047 0.61328 2.2695h1.5l-0.39453 2.1602-1.0469 0.38281-0.058593 5.6641 6.3711 7.2461h2.7734l0.16797-0.44531h4.9805l1.4414-1.3203h2.8203l1.5469 1.5586 4.2109 0.43359-0.55078 5.6055 4.668 8.2578-2.4609 4.7031 0.16797 2.2188 1.9453 1.9336v5.3281l2.543 3.4219v4.4297h2.1953c-12.238 15.012-30.852 24.637-51.684 24.637-36.742 0-66.637-29.891-66.637-66.637 0-9.2539 1.9062-18.059 5.3164-26.074v-2.0898l2.3867-2.8906c0.82812-1.5586 1.7148-3.0859 2.6641-4.5703l0.10938 1.2227-2.7617 3.3477-2.375 2.8906v5.8711l2.7617 1.332v5.2695l2.6523 4.5234 2.1602 0.33594 0.27734-1.5586-2.543-3.9258-0.50391-3.8164h1.5l0.63672 3.9258 3.6836 5.375-0.94922 1.7383 2.3398 3.5742 5.8086 1.4414v-0.9375l2.3281 0.32422-0.22656 1.668 1.8242 0.32422 2.8203 0.76953 3.9844 4.5469 5.0898 0.38281 0.50391 4.1523-3.4922 2.4375-0.16797 3.707-0.50391 2.2695 5.0391 6.3125 0.38281 2.1602s1.8242 0.50391 2.0508 0.50391c0.22656 0 4.0938 2.9297 4.0938 2.9297v11.398l1.3789 0.38281-0.9375 5.2578 2.3164 3.1094-0.43359 5.2188 3.0703 5.3984 3.9492 3.4453 3.9727 0.070312 0.38281-1.2617-2.9141-2.4609 0.16797-1.2227 0.51562-1.4883 0.10938-1.5234-1.9688-0.058593-0.96484-1.2539 1.6328-1.5703 0.22656-1.1992-1.8242-0.51562 0.10938-1.1172 2.6055-0.38281 3.9609-1.8945 1.3281-2.4414 4.1523-5.3164-0.94922-4.1641 1.2734-2.2188 3.8164 0.12109 2.5664-2.0273 0.82813-8.0273 2.8438-3.625 0.50391-2.3281-2.6055-0.82812-1.7266-2.8086-5.8672-0.058593-4.6562-1.7656-0.22656-3.3242-1.5156-2.7227-4.2109-0.070313-2.4375-3.8047-2.1602-1.0547-0.10938 1.1641-3.9375 0.23828-1.4414-2.0039-4.0938-0.82813-3.3828 3.8984-5.3164-0.89844-0.38281-5.9883-3.875-0.67188 1.5469-2.9414-0.44531-1.6797-5.1016 3.3945-3.2031-0.38281-1.1406-2.5078 0.69531-2.5938 1.7656-3.2539 4.0664-2.0625 7.8594-0.011718-0.011719 2.3984 2.8203 1.3086-0.22656-4.0938 2.0391-2.0508 4.1055-2.7109 0.27734-1.8945 4.1055-4.2617 4.3555-2.4102-0.38281-0.3125 2.9531-2.7734 1.0781 0.28906 0.49219 0.625 1.1172-1.2461 0.27734-0.13281-1.2227-0.16797-1.2461-0.42188v-1.1992l0.66016-0.53906h1.4531l0.67188 0.28906 0.57422 1.1641 0.70703-0.10938v-0.097656l0.20312 0.058593 2.0391-0.30078 0.28906-0.99609 1.1641 0.28906v1.0781l-1.0781 0.74219 0.15625 1.1875 3.6953 1.1523s0 0.011719 0.011719 0.046875l0.85156-0.070312 0.058593-1.6094-2.9297-1.332-0.15234-0.76172 2.4375-0.82812 0.10938-2.3281-2.5469-1.5469-0.16797-3.9258-3.4922 1.7148h-1.2734l0.33594-2.9883-4.7539-1.1172-1.9688 1.4766v4.5352l-3.5273 1.1172-1.4141 2.9531-1.5352 0.25391v-3.7695l-3.3242-0.45703-1.6562-1.0781-0.67188-2.4492 5.9414-3.4805 2.9023-0.875 0.30078 1.9453 1.6094-0.085937 0.13281-0.98438 1.6914-0.23828 0.023438-0.34766-0.73047-0.28906-0.16797-1.043 2.0898-0.17969 1.2461-1.3086 0.070312-0.097656 0.011719 0.011718 0.38281-0.39453 4.3672-0.55078 1.9453 1.6445-5.0742 2.7109 6.457 1.5234 0.82812-2.1602h2.8203l0.99609-1.8828-1.9922-0.50391v-2.375l-6.2539-2.7617-4.3203 0.49219-2.4375 1.2734 0.16797 3.1094-2.543-0.38281-0.39453-1.7266 2.4375-2.2188-4.4297-0.22656-1.2734 0.38281-0.55078 1.5 1.668 0.27734-0.33594 1.6562-2.8203 0.17969-0.44531 1.1055-4.0938 0.12109s-0.10938-2.3281-0.27734-2.3281 3.2031-0.058594 3.2031-0.058594l2.4492-2.375-1.332-0.67188-1.7656 1.7266-2.9414-0.16797-1.7773-2.4375-3.7344-0.007813-3.9375 2.9297h3.6016l0.32422 1.0547-0.9375 0.86328 3.9961 0.12109 0.61328 1.4414-4.4883-0.17969-0.22656-1.1055-2.8203-0.61328-1.5-0.82812-3.3594 0.023438c11.004-8.0156 24.527-12.742 39.145-12.742 16.848 0 32.242 6.2891 43.992 16.645l-0.79297 1.4141-3.0703 1.2109-1.2969 1.4023 0.30078 1.6445 1.5859 0.22656 0.96094 2.3867 2.7344-1.1172 0.44531 3.2031h-0.81641l-2.2422-0.32422-2.4961 0.42188-2.4102 3.3945-3.4453 0.53906-0.50391 2.9531 1.4648 0.33594-0.42188 1.8945-3.4219-0.69531-3.1445 0.69531-0.67188 1.7539 0.53906 3.6719 1.8359 0.86328 3.0977-0.023438 2.0898-0.19141 0.63672-1.668 3.2539-4.2344 2.1484 0.43359 2.1133-1.9062 0.39453 1.5 5.207 3.5039-0.63672 0.85156-2.3398-0.13281 0.89844 1.2734 1.4414 0.3125 1.6914-0.70703-0.035156-2.0391 0.74219-0.37109-0.60156-0.63672-3.4805-1.9336-0.91016-2.5781h2.8789l0.92578 0.91016 2.4844 2.1484 0.10938 2.5938 2.5781 2.7461 0.96094-3.7578 1.7773-0.97266 0.33594 3.0703 1.7383 1.9062 3.4805-0.058594c0.67187 1.7383 1.2734 3.4922 1.8008 5.2812zm-96.562-21.191 1.7539-0.82812 1.5703 0.37109-0.53906 2.125-1.7031 0.53906zm9.2539 4.9805v1.3672h-3.9844l-1.5-0.40625 0.37109-0.96094 1.9219-0.78125h2.6172v0.78125zm1.8477 1.9219v1.3203l-0.99609 0.64844-1.2461 0.22656v-2.1953zm-1.1289-0.54297v-1.5703l1.3672 1.2461zm0.625 3.1953v1.2852l-0.94922 0.96094h-2.1133l0.32422-1.4531 0.99609-0.085938 0.20312-0.50391zm-6.8164-0.99609 1.5352-1.6562h2.207l-2.8203 3.9375-1.1641-0.625zm10.547 0.53906v1.2969h-2.1133l-0.57422-0.83984v-1.1992h0.16797zm-1.9453-1.7656 0.60156-0.63672 1.0195 0.63672-0.81641 0.67188zm85.262 17.223 0.21484-0.25391c0.085937 0.37109 0.17969 0.74219 0.26562 1.1406z"/>
  <path d="m658.3 492.82c-82.836 0-149.99 67.141-149.99 149.98 0 82.836 67.141 149.99 149.99 149.99 82.824 0 149.98-67.152 149.98-149.99 0-82.836-67.141-149.98-149.98-149.98z"/>
  <path d="m746.09 402.02c-16.152 0-29.23 13.094-29.23 29.23 0 16.141 13.078 29.23 29.23 29.23s29.23-13.094 29.23-29.23c0-16.137-13.082-29.23-29.23-29.23zm-13.645 39.734c-2.8789 0-5.2578-2.3516-5.2578-5.2578 0-2.8906 2.3633-5.2422 5.2578-5.2422 2.9023 0 5.2578 2.3516 5.2578 5.2422-0.003906 2.9023-2.3555 5.2578-5.2578 5.2578zm10.5-10.5c-2.9023 0-5.2578-2.3516-5.2578-5.2578 0-2.9023 2.3398-5.2422 5.2578-5.2422 2.8789 0 5.2578 2.3398 5.2578 5.2422-0.003906 2.9023-2.3789 5.2578-5.2578 5.2578zm8.3867 21c-2.9023 0-5.2578-2.3516-5.2578-5.2578 0-2.8906 2.3398-5.2422 5.2578-5.2422 2.8789 0 5.2578 2.3516 5.2578 5.2422 0 2.9023-2.3672 5.2578-5.2578 5.2578zm11.531-21.363c-3.2383 0-5.8555-2.6172-5.8555-5.8438 0-3.2266 2.6289-5.8438 5.8555-5.8438 3.2148 0 5.832 2.6172 5.832 5.8438 0 3.2305-2.6172 5.8438-5.832 5.8438z"/>
  <path d="m325.34 516.98c0 13.34-10.816 24.156-24.156 24.156s-24.156-10.816-24.156-24.156 10.816-24.156 24.156-24.156 24.156 10.816 24.156 24.156"/>
  <path d="m941.34 787.55c0 22.801-18.469 41.305-41.316 41.305-22.801 0-41.293-18.516-41.293-41.305 0-22.824 18.492-41.316 41.293-41.316 22.848 0 41.316 18.492 41.316 41.316z"/>
  <path d="m1071.4 1072.1c0 27.461-22.262 49.727-49.727 49.727-27.465 0-49.727-22.266-49.727-49.727 0-27.465 22.262-49.73 49.727-49.73 27.465 0 49.727 22.266 49.727 49.73"/>
  <path d="m307.62 154.49c0 27.465-22.266 49.727-49.73 49.727-27.461 0-49.727-22.262-49.727-49.727 0-27.465 22.266-49.727 49.727-49.727 27.465 0 49.73 22.262 49.73 49.727"/>
  <path d="m417.18 838.87c-0.32422 4.5117-0.92578 9.625-2.7617 15.84 5.8086 13.922 5.543 26.172-0.73047 35.398-15.047 22.152-58.609 18.719-115.44-19.922-56.832-38.629-78.73-79.848-63.66-102.01 4.9453-7.2734 16.957-10.633 27.898-11.797 3.5625-3.8164 6.1797-6.0352 12.672-9.3828-27.254-6.7422-54.469-6.7305-63.047 5.9023-16.598 24.434 20.734 78.742 83.398 121.34 62.664 42.59 126.93 57.301 143.53 32.867 9.5195-13.996-1.2773-42.402-21.859-68.238z"/>
  <path d="m237.06 798.98c16.285 37.848 89.496 99.359 142.3 100.73 26.016-20.387 39.961-54.289 33.215-88.969-9.5625-49.309-57.301-81.539-106.62-71.977-33.262 6.457-58.738 30.266-68.891 60.219z"/>
  <path d="m231.95 823.51c-0.50391 7.6797-0.046875 15.551 1.4883 23.449 9.5625 49.32 57.312 81.551 106.62 71.977 7.332-1.4141 14.27-3.6836 20.762-6.6719-53.559-15.492-110.86-64.695-128.87-88.754z"/>
 </g>
</svg>
