<svg xmlns="http://www.w3.org/2000/svg" xmlns:xlink="http://www.w3.org/1999/xlink" version="1.1" x="0px" y="0px" viewBox="0 0 100 100" enable-background="new 0 0 100 100" xml:space="preserve"><path fill-rule="evenodd" clip-rule="evenodd" d="M37.05,89.775l-3.3-1.4l-4.351-2.85c0.134,0.033,0.284,0.066,0.45,0.1l6.25,2.05  L37.05,89.775z M29.75,70.175l0.2,0.601c0.233,0.967,0.55,2.133,0.949,3.5c0.101,0.467,0.233,0.883,0.4,1.25l4.2,11.05v0.1  l-4.3-1.399c-0.601-0.233-0.934-0.367-1-0.4c-1.033-0.4-2.134-0.866-3.301-1.4l-0.55-0.199l-1.1-0.65  c-0.434-0.366-0.884-0.8-1.351-1.3l-3.3-3.2l-0.2-0.25l-0.05-0.15c-0.7-0.699-1.366-1.517-2-2.449  c-0.899-1.167-1.767-2.45-2.6-3.851l-1.8-3.149c-0.601-1.267-1.15-2.667-1.65-4.2l-0.45-1.65l0.351,0.3h0.05l1.45,0.851l0.05,0.05  l8.5,4.15c1.1,0.433,2.217,0.8,3.35,1.1c0.267,0.134,0.483,0.2,0.65,0.2L29.75,70.175z M11.45,39.175  c1.733,1.7,3.899,3.283,6.5,4.75c3.166,1.867,6.517,3.384,10.05,4.55c-0.167,1.467-0.25,2.834-0.25,4.101H27.5  c-1.2,0-2.233,0.399-3.101,1.2C23.467,54.708,23,55.792,23,57.025c0,0.566,0.133,1.083,0.399,1.55  c0.2,0.633,0.634,1.517,1.301,2.649l2.5,4c0.033,0.134,0.133,0.2,0.3,0.2s0.316-0.066,0.45-0.2l0.6-1.149l1.05,5.05l-3.7-1.05  c-1.166-0.333-2.267-0.717-3.3-1.15c-0.666-0.233-1.649-0.633-2.95-1.2c-0.966-0.466-2.133-1.05-3.5-1.75l-4.699-2.85l-0.101-0.35  l-0.05-0.051v-0.1c-0.833-3.333-1.25-6.816-1.25-10.45C10.05,46.309,10.517,42.642,11.45,39.175z M28.399,32.425  c0,0.767,0.134,1.417,0.4,1.95c0.2,0.634,0.5,1.316,0.9,2.05l0.149,0.3c-0.866,3.567-1.467,7.167-1.8,10.801  c-3.467-1.134-6.667-2.567-9.6-4.301c-2.7-1.566-4.95-3.232-6.75-5c0.233-0.899,0.583-1.966,1.05-3.199v0.05  c0.133,0.2,0.383,0.35,0.75,0.45c0.366-0.101,0.6-0.25,0.7-0.45l5.649-9.351c1.033-1.732,1.817-3.183,2.351-4.35  c1.467,1.934,3.566,3.717,6.3,5.35c0.267,0.134,1.05,0.518,2.35,1.15c-0.1,0.033-0.399,0.217-0.899,0.55  C28.917,29.592,28.399,30.925,28.399,32.425z M38.95,14.125c-2.301,4.066-3.884,7.184-4.75,9.35l-1.45,3.45H32.7l-0.95,0.3  c-1.533-0.666-2.467-1.1-2.8-1.3c-2.834-1.633-4.95-3.45-6.351-5.45c0-0.033,0-0.066,0-0.1l0.2-0.4  c3.767-3.699,7.917-6.566,12.45-8.6c0.8,0.833,1.866,1.65,3.2,2.45L38.95,14.125z M39.399,13.375l-0.449-0.25  c-1.2-0.7-2.134-1.4-2.801-2.1c1.934-0.867,3.9-1.517,5.9-1.95C41.184,10.408,40.3,11.842,39.399,13.375z M8.45,24.825  c-0.667-1.101-1.134-1.934-1.4-2.5c-0.566-0.967-1.066-2.05-1.5-3.25c-0.333-0.8-0.517-1.617-0.55-2.45v-0.65  c0-2.399,0.816-4.416,2.45-6.05c1.633-1.566,3.633-2.35,6-2.35c2.333,0,4.316,0.783,5.949,2.35c1.601,1.634,2.4,3.65,2.4,6.05  c0,0.934-0.133,1.801-0.4,2.601l-0.1,0.5l-0.3,0.7c-0.467,1.233-1.351,2.916-2.65,5.05l-4.85,8.1l-0.15-0.2L8.45,24.825z   M7.5,16.425c0,1.634,0.6,3.033,1.8,4.2c1.167,1.134,2.566,1.7,4.2,1.7c1.6,0,2.983-0.566,4.149-1.7c1.167-1.1,1.75-2.5,1.75-4.2  c0-1.6-0.583-2.983-1.75-4.149c-1.166-1.2-2.55-1.801-4.149-1.801c-1.634,0-3.033,0.601-4.2,1.801C8.1,13.441,7.5,14.825,7.5,16.425  z M51.6,31.725v18.95l-2.05,0.15c-7.533,0-14.417-1.017-20.65-3.05c0.334-3.367,0.834-6.667,1.5-9.9l3.2,5.05  c0.067,0.134,0.184,0.2,0.351,0.2c0.166,0,0.3-0.066,0.399-0.2l3.15-5.2c0.833-1.466,1.35-2.517,1.55-3.149l0.2-0.5  c0.133-0.634,0.2-1.184,0.2-1.65c0-0.666-0.067-1.217-0.2-1.649l0.5,0.149c3.066,0.533,6.35,0.8,9.85,0.8H51.6z M68.5,89.625  l1.05-2.05l7.15-2.45c-2.134,1.566-4.367,2.867-6.7,3.9L68.5,89.625z M51.6,88.675h-1.55c-1.467-0.033-2.517-0.1-3.15-0.2  c-0.166-0.033-0.466-0.05-0.899-0.05l-2.2-0.25c-0.2-0.033-0.5-0.05-0.9-0.05l-6.25-1.2l-3.3-7.7l-0.149-0.8  c-0.4-0.933-0.767-1.983-1.101-3.149c-0.166-0.434-0.316-0.834-0.45-1.2l-0.949-3.75l1.85,0.35c0.934,0.2,1.884,0.384,2.85,0.55  l0.5,0.051c0.2,0.1,0.334,0.133,0.4,0.1c1,0.2,2.05,0.333,3.15,0.4L51.6,72.225V88.675z M51.6,92.525h-1.2l-6.949-0.75  c-1.601-0.367-3.25-0.834-4.95-1.4l-0.25-0.05l-1.2-2.4l5.8,1.05c0.334,0,0.617,0.018,0.851,0.051l2.3,0.3c0.3,0,0.55,0,0.75,0  l4.85,0.25V92.525z M58.05,89.375c0.4,0,0.733-0.05,1-0.15l9.35-1.3l-1.149,2.15l-0.4,0.1l-0.149,0.15h-0.051l-3.5,1.05  c-0.933,0.267-1.949,0.483-3.05,0.65l-3,0.399l-4.649,0.05v-2.899L58.05,89.375z M51.6,51.575v19.85l-12.1-0.5  c-0.467-0.033-1.5-0.166-3.101-0.399l-6-1.101l-1.1-6.399l1.05-1.851c0.4-0.7,0.834-1.566,1.3-2.6v-0.3  C31.883,57.809,32,57.392,32,57.025c0-1.233-0.434-2.317-1.3-3.25c-0.567-0.533-1.25-0.884-2.051-1.051c0-1.466,0.051-2.8,0.15-4  c6.3,1.934,13.217,2.9,20.75,2.9L51.6,51.575z M74.55,70.975c-0.167,0.634-0.283,1.117-0.35,1.45l-1.45,4.7  c0,0.066-0.066,0.233-0.2,0.5v0.05l-3.7,9.15c-0.767,0.233-1.533,0.434-2.3,0.6l-3.3,0.55l-9.851,0.75H52.45v-16.5l3.6-0.25  c0.566-0.033,1.017-0.05,1.35-0.05c-0.566,0.2-1.066,0.533-1.5,1l-0.1,0.15v0.05l-0.25,0.25c-0.733,0.833-1.15,1.8-1.25,2.9  l-0.05,0.649c0,0.334,0.033,0.65,0.1,0.95c0.067,0.4,0.2,0.75,0.4,1.05l1.05,2.55l3.6,5.851c0.067,0.167,0.167,0.283,0.301,0.35  c0.233,0.033,0.416-0.033,0.55-0.2L65,79.025v-0.2c0.066-0.033,0.1-0.101,0.1-0.2c0.134-0.5,0.2-1.066,0.2-1.7  c0-0.6-0.066-1.2-0.2-1.8c-0.2-0.533-0.45-1.033-0.75-1.5l-0.649-0.7c-0.367-0.333-0.783-0.649-1.25-0.95  c-0.367-0.166-0.801-0.316-1.301-0.449L63,71.225c0.566-0.033,1.434-0.183,2.6-0.449l0.5-0.101c1.4-0.267,2.584-0.55,3.55-0.85  c0.4-0.066,1.483-0.351,3.25-0.851l2.25-0.85L74.55,70.975z M94.3,55.875c0.1-0.133,0.216-0.267,0.35-0.4  c-0.066,0.434-0.134,0.95-0.2,1.551l-0.6,3.25c-0.2,0.399-0.316,0.816-0.35,1.25c-0.2,0.699-0.518,1.767-0.95,3.199l-2,4.551  c-0.366,0.666-0.884,1.566-1.55,2.699l-0.301,0.601c-0.366,0.533-1.016,1.45-1.949,2.75c-0.334,0.434-0.634,0.85-0.9,1.25l-4.7,4.95  c-0.399,0.366-0.816,0.733-1.25,1.1c-1.066,0.566-2.166,1.083-3.3,1.55c-1.333,0.601-2.316,1.033-2.95,1.3l-0.5,0.101  c-1.433,0.5-2.517,0.833-3.25,1c0.801-1.767,1.25-2.733,1.351-2.9l2.1-5.6c0.167-0.267,0.267-0.533,0.3-0.8l0.45-1.301l2-8.149h0.15  c0.467-0.167,1.55-0.65,3.25-1.45l0.55-0.25h0.15l4.199-2.35l0.351-0.15l1.399-0.9c2-1.232,3.684-2.466,5.05-3.699l0.9-0.9h0.05  L94.3,55.875z M77.3,47.925l-0.1-1.8l3.85-2.2c5.033-2.933,8.634-6.2,10.8-9.8c1.1,2.667,1.916,5.533,2.45,8.6  c0.466,2.2,0.7,4.684,0.7,7.45c0,1.101-0.051,1.95-0.15,2.55l-0.1,1.2c-0.367,0.467-0.7,0.934-1,1.4l-2.101,2.05v0.1h-0.1  l-0.9,0.851c-1.433,1.366-3.05,2.583-4.85,3.649l-6,3.301c-0.267,0.1-0.467,0.183-0.6,0.25l-2.851,1.3l0.15-0.8  c0.8-4.567,1.149-9.084,1.05-13.551C77.55,51.075,77.467,49.559,77.3,47.925z M76.399,46.825l0.101,1.1  c0.133,1.667,0.2,3.2,0.2,4.601c0.066,4.366-0.317,8.85-1.15,13.449l-0.05,0.75l-0.15,0.45l-5.95,1.851l-8.949,1.699H60.35l-7.3,0.7  h-0.6V51.525c7.3-0.233,14.916-1.75,22.85-4.551c0.134,0.101,0.25,0.134,0.35,0.101L76.399,46.825z M71.3,26.275  c1.134,2.767,2.083,5.6,2.85,8.5c-0.533,0.166-1.066,0.483-1.6,0.949c-0.866,0.867-1.3,1.934-1.3,3.2  c0,0.601,0.116,1.134,0.35,1.601c0.233,0.666,0.684,1.566,1.351,2.699l1.899,3c-7.733,2.733-15.2,4.2-22.399,4.4v-18.9  c7.1-0.366,13.217-2.033,18.35-5L71.3,26.275z M60.7,15.125c0.733-0.3,1.566-0.733,2.5-1.3c0.533-0.3,1.05-0.634,1.55-1  c2.5,4.333,4.583,8.566,6.25,12.7l-0.7,0.399c-4.934,2.9-10.883,4.567-17.85,5v-14.1C55.417,16.658,58.167,16.092,60.7,15.125z   M51.6,16.075h-0.7c-3.899,0-7.3-0.7-10.199-2.101l-0.5-0.199c1.066-1.801,2.083-3.467,3.05-5c0.066-0.033,0.133-0.051,0.2-0.051  c2.6-0.566,5.316-0.866,8.149-0.899V16.075z M50.899,16.875h0.7v14.05h-2c-3.399,0-6.583-0.3-9.55-0.899l-1.1-0.25  c-0.301-0.467-0.667-0.884-1.101-1.25c-1-1.101-2.3-1.65-3.899-1.65H33.7l1.3-3.1c0.866-2.101,2.434-5.184,4.7-9.25l0.699,0.25  C43.467,16.175,46.967,16.875,50.899,16.875z M62.25,8.975l2.05,3.15c-0.633,0.434-1.15,0.767-1.55,1c-0.7,0.4-1.5,0.767-2.4,1.1  c-2.3,1-4.933,1.584-7.899,1.75V7.825h0.1c3.4,0,6.55,0.316,9.45,0.95C62.1,8.875,62.184,8.941,62.25,8.975z M63.55,9.225  c1.033,0.268,1.983,0.551,2.85,0.851c-0.399,0.5-0.866,0.983-1.399,1.45C64.533,10.792,64.05,10.025,63.55,9.225z M77.55,19.075  c-1.167,2.133-3.116,4.116-5.85,5.95c-1.733-4.267-3.851-8.5-6.351-12.7c0.767-0.667,1.4-1.351,1.9-2.05  c4.066,1.5,7.816,3.616,11.25,6.35C78.3,17.458,77.983,18.275,77.55,19.075z M78.3,19.475c0.434-0.666,0.75-1.383,0.95-2.149  l0.149,0.1l0.25,0.4c0.2,0.5,0.518,1.066,0.95,1.7l3.9,6.35c0.167,0.233,0.399,0.35,0.699,0.35c0.4,0,0.65-0.116,0.75-0.35  l0.601-1.05l0.1,0.2l0.45,0.449c1.733,2.467,3.166,4.934,4.3,7.4l0.05,0.25c-1.967,3.7-5.566,7.066-10.8,10.1l-3.199,1.851l1.05-1.9  c0.667-1.233,1.116-2.1,1.35-2.6l0.101-0.3c0.166-0.5,0.25-0.95,0.25-1.351c0-1.3-0.417-2.366-1.25-3.2  c-0.9-0.833-1.967-1.25-3.2-1.25l-0.8,0.101c-0.801-3.066-1.767-5.967-2.9-8.7C74.917,23.975,77,21.842,78.3,19.475z M81.35,9.025  c1.067-1.033,2.334-1.551,3.8-1.551c1.5,0,2.767,0.518,3.8,1.551c1,1.033,1.5,2.3,1.5,3.8c0,0.633-0.066,1.2-0.199,1.7l-0.101,0.399  c-0.433,0.967-1.083,2.2-1.95,3.7l-3,5.15l-3.149-5.15c-0.4-0.667-0.667-1.167-0.8-1.5l-0.101-0.25l-0.25-0.4l-0.05-0.05  c-0.3-0.433-0.55-0.933-0.75-1.5l-0.05-0.149c-0.233-0.5-0.35-1-0.35-1.5v-0.45C79.7,11.325,80.25,10.059,81.35,9.025z   M88.149,10.275c-0.733-0.834-1.716-1.25-2.95-1.25c-1.133,0-2.1,0.383-2.899,1.149c-0.833,0.9-1.25,1.884-1.25,2.95  c0,1.1,0.417,2.083,1.25,2.95c0.8,0.833,1.767,1.25,2.899,1.25c1.2,0,2.15-0.417,2.851-1.25c0.866-0.867,1.3-1.851,1.3-2.95  C89.35,11.992,88.949,11.042,88.149,10.275z"></path></svg>