<?xml version="1.0" encoding="UTF-8"?>
<svg width="1200pt" height="1200pt" version="1.1" viewBox="0 0 1200 1200" xmlns="http://www.w3.org/2000/svg">
 <g>
  <path d="m92.398 441.6h-7.1992c-1.1992 0-1.1992 0-2.3984-1.1992l-9.6016-6c0-0.003906-1.1992-1.2031-1.1992-2.4023v-18c0-2.3984 2.3984-3.6016 3.6016-3.6016h15.602c2.3984 0 4.8008-2.3984 3.6016-4.8008l-1.2031-9.5977c-2.3984-9.6016 6-18 15.602-16.801l118.8 15.602c1.1992 0 2.3984 0 3.6016-1.1992l3.6016-4.8008c4.8008-7.1992 14.398-10.801 22.801-10.801l30 2.3984c10.801 1.1992 19.199 12 15.602 22.801l-1.2109 4.8008c0 1.1992-1.1992 2.3984-2.3984 2.3984l-14.398 8.3984c-4.8008 3.6016-4.8008 10.801 1.1992 13.199 4.8008 2.3984 10.801 1.1992 13.199-3.6016 1.1992-1.1992 1.1992-1.1992 2.3984-1.1992l19.199-3.6016c9.6016-1.1992 18 2.3984 22.801 10.801l3.6016 6c1.1992 1.1992 2.3984 2.3984 3.6016 2.3984 4.8008 0 8.3984 3.6016 8.3984 8.3984v12c0 8.3984-7.1992 15.602-16.801 14.398l-37.199-3.6016c-2.3984 0-4.8008 2.3984-4.8008 4.8008 2.3984 9.6016-2.3984 20.398-10.801 25.199l-31.199 20.398c-1.1992 1.1992-2.3984 2.3984-2.3984 3.6016v12c0 2.3984-2.3984 3.6016-3.6016 3.6016l-1.1992 0.011718c-1.1992 0-2.3984-1.1992-3.6016-1.1992l-9.6016-13.199c-1.1992-1.1992-2.3984-2.3984-4.8008-1.1992l-25.199 7.1992c-1.1992 0-2.3984 1.1992-2.3984 2.3984l-7.1992 15.602c-1.1992 2.3984 0 4.8008 2.3984 6l10.801 3.6016c1.1992 0 2.3984 2.3984 2.3984 3.6016l0.003906 9.5938c0 2.3984 1.1992 3.6016 3.6016 3.6016l6 1.1992c7.1992 1.1992 12 7.1992 13.199 14.398 0 2.3984 2.3984 3.6016 3.6016 3.6016h56.398c1.1992 0 2.3984 0 3.6016 1.1992l13.199 14.398c1.1992 1.1992 2.3984 1.1992 3.6016 1.1992h13.199c2.3984 0 3.6016 2.3984 3.6016 3.6016v8.3984c0 2.3984 1.1992 3.6016 3.6016 3.6016l26.398 3.6016c1.1992 0 2.3984 1.1992 2.3984 2.3984l14.398 24c4.8008 8.3984 3.6016 19.199-3.6016 26.398l-9.6016 10.801c-1.1992 1.1992-1.1992 2.3984-1.1992 3.6016l1.1992 3.6016c2.3984 16.801-3.6016 32.398-15.602 43.199l-22.801 20.398c-9.6016 8.3984-15.602 20.398-15.602 33.602v22.801c0 1.1992 1.1992 3.6016 2.3984 3.6016l10.801 6c2.3984 1.1992 2.3984 3.6016 2.3984 4.8008l-1.1992 2.3984c-3.6016 9.6016-14.398 13.199-22.801 8.3984l-3.6016-2.3984c-8.3984-4.8008-12-13.199-10.801-22.801l1.1992-4.8008c0-1.1992 0-3.6016-2.3984-3.6016-7.1992-4.8008-12-13.199-12-22.801v-69.602c0-1.1992-1.1992-2.3984-2.3984-3.6016l-8.3984-4.8008c-9.6016-6-14.398-18-10.801-28.801l1.1992-2.3984c0-1.1992 0-3.6016-1.1992-4.8008l-22.801-19.199c-1.1992-1.1992-1.1992-2.3984-1.1992-3.6016v-19.199c0-2.3984 1.1992-3.6016 3.6016-3.6016l6-1.1992c1.1992 0 2.3984-1.1992 2.3984-2.3984l3.6016-12c0-1.1992 0-3.6016-1.1992-4.8008l-3.6016-3.6016c-1.1992-1.1992-3.6016-1.1992-4.8008 0l-6 3.6016c-2.3984 1.1992-6 0-6-2.3984l-1.1992-10.801c0-1.1992-1.1992-2.3984-2.3984-3.6016l-13.199-4.8008c-1.1992 0-2.3984-2.3984-2.3984-3.6016 0-2.3984-1.1992-3.6016-3.6016-3.6016l-28.801-7.1992c-8.3984-2.3984-13.199-12-9.6016-20.398 1.1992-1.1992 0-3.6016-1.1992-4.8008l-22.801-21.602c-1.1992-1.1992-1.1992-2.3984-1.1992-3.6016l4.8008-52.801c0-2.3984 1.1992-3.6016 3.6016-3.6016 7.1992-1.1992 13.199-7.1992 13.199-14.398l1.1992-9.6016c0-1.1992 0-1.1992-1.1992-2.3984l-10.801-16.801c-1.1992-1.1992-2.3984-1.1992-3.6016-2.3984l-32.398-2.3984c-2.3984 0-3.6016 1.1992-4.8008 3.6016-3.5938 9.6094-9.5938 14.41-17.996 14.41z"/>
  <path d="m351.6 411.6-14.398-2.3984c-6-1.1992-8.3984-6-7.1992-12l1.1992-4.8008c1.1992-2.3984 0-4.8008-1.1992-7.1992l-9.6016-19.199c-1.1992-1.1992-1.1992-2.3984-1.1992-3.6016v-4.8008c0-3.6016 2.3984-7.1992 7.1992-8.3984l66-19.199c2.3984-1.1992 6 0 7.1992 1.1992l40.801 26.398c2.3984 1.1992 3.6016 3.6016 3.6016 6l4.8008 21.602c1.1992 4.8008-1.1992 9.6016-6 10.801l-27.602 10.801c-2.3984 1.1992-3.6016 2.3984-4.8008 3.6016l-16.801 27.602c-2.3984 3.6016-7.1992 6-10.801 3.6016l-6-2.3984c-1.1992 0-3.6016-1.1992-4.8008-2.3984l-16.801-20.398c0-3.6133-1.1992-4.8125-3.5977-4.8125z"/>
  <path d="m1138.8 398.4c-1.1992-2.3984-3.6016-2.3984-4.8008-2.3984l-50.398 7.1992c-1.1992 0-3.6016 0-4.8008-1.1992l-14.398-16.801c-1.1992-1.1992-1.1992-1.1992-2.3984-1.1992l-67.199-12h-2.3984l-36 7.1992c-14.398 3.6016-30-1.1992-40.801-10.801-7.1992-7.1992-16.801-10.801-27.602-10.801h-82.801c-1.1992 0-2.3984 0-2.3984 1.1992l-18 12c-1.1992 1.1992-2.3984 2.3984-2.3984 3.6016 0 6-3.6016 10.801-9.6016 13.199l-12 3.6016c-3.6016 1.1992-8.3984 0-9.6016-4.8008-1.1992-1.1992-2.3984-2.3984-4.8008-2.3984h-50.402-1.1992l-34.801-10.801c-8.3984-2.3984-16.801-2.3984-25.199 1.1992l-9.6016 4.8008c-8.3984 3.6016-14.398 9.6016-16.801 18l-3.6016 9.6016c-2.3984 7.1992-2.3984 14.398 1.1992 20.398l3.6016 6c1.1992 1.1992 2.3984 2.3984 4.8008 2.3984h4.8008c7.1992 0 14.398-4.8008 16.801-12 0-1.1992 1.1992-2.3984 3.6016-3.6016l7.1992-2.3984c3.6016-1.1992 6 1.1992 7.1992 4.8008l1.1992 13.199c1.1992 8.3984-4.8008 16.801-12 19.199l-19.199 7.1992c-2.3984 1.1992-6-1.1992-6-3.6016l-2.3984-9.6016c0-2.3984-2.3984-3.6016-3.6016-3.6016l-8.3984-1.1992c-3.6016 0-6 1.1992-6 4.8008v12c0 2.3984-1.1992 3.6016-3.6016 4.8008l-18 4.8008c-1.1992 0-2.3984 1.1992-2.3984 2.3984l-6 12c-1.1992 1.1992-1.1992 3.6016 0 4.8008l2.3984 4.8008c1.1992 3.6016-1.1992 7.1992-4.8008 7.1992-8.3984 0-13.199 7.1992-12 14.398l2.3984 9.6016c0 2.3984 2.3984 3.6016 4.8008 3.6016h14.398c2.3984 0 3.6016-1.1992 4.8008-3.6016l2.3984-7.1992c0-2.3984 2.3984-3.6016 4.8008-3.6016l15.602 1.1992c1.1992 0 2.3984 0 2.3984-1.1992l8.3984-4.8008c2.3984-1.1992 4.8008-1.1992 7.1992 1.1992l8.3984 12c1.1992 1.1992 1.1992 2.3984 1.1992 4.8008v1.1992c-1.1992 3.6016 3.6016 8.3984 7.1992 6l2.3984-1.1992c2.3984-1.1992 3.6016-3.6016 2.3984-6l-4.8008-14.398c-1.1992-2.3984 0-4.8008 2.3984-6h1.1992c2.3984-1.1992 4.8008 0 6 1.1992l6 7.1992c6 8.3984 18 12 27.602 8.3984h1.1992c2.3984-1.1992 3.6016 0 4.8008 1.1992l14.398 14.398c1.1992 1.1992 1.1992 2.3984 1.1992 4.8008l-2.3984 13.199c0 2.3984-2.3984 3.6016-3.6016 3.6016l-40.801 9.6016h-3.6016l-22.801-10.801c-1.1992 0-2.3984-1.1992-2.3984-2.3984-4.8008-9.6016-14.398-16.801-26.398-16.801l-18-1.1992c-1.1992 0-2.3984 0-3.6016 1.1992l-30 24c-15.602 12-25.199 30-27.602 49.199 0 1.1992-1.1992 2.3984-2.3984 3.6016l-3.6016 2.3984c-1.1992 1.1992-2.3984 2.3984-2.3984 4.8008 0 16.801 7.1992 33.602 20.398 44.398l10.801 9.6016c1.1992 1.1992 2.3984 1.1992 3.6016 1.1992h46.801c1.1992 0 2.3984 0 2.3984 1.1992l13.199 8.3984c1.1992 1.1992 2.3984 2.3984 2.3984 3.6016l1.1992 22.801c0 2.3984 1.1992 3.6016 2.3984 4.8008l15.602 7.1992c2.3984 1.1992 3.6016 2.3984 2.3984 4.8008l-4.8008 42c-1.1992 9.6016 1.1992 18 6 26.398l6 8.3984c0 1.1992 1.1992 1.1992 1.1992 2.3984l1.1992 12c1.1992 13.199 10.801 24 24 26.398 9.6016 1.1992 19.199-1.1992 26.398-8.3984l7.1992-6c12-12 18-27.602 18-44.398v-13.199c0-1.1992 1.1992-3.6016 2.3984-3.6016l10.801-8.3984c9.6016-7.1992 14.398-18 14.398-30v-30c0-1.1992 0-2.3984 1.1992-3.6016l22.801-25.199c1.1992-1.1992 1.1992-2.3984 1.1992-4.8008-2.3984-10.801-10.801-19.199-21.602-22.801l-2.3984-1.1992c-8.3984-2.3984-14.398-9.6016-14.398-18 0-4.8008-2.3984-9.6016-6-13.199l-8.3984-8.3984c-1.1992-1.1992-1.1992-2.3984-1.1992-3.6016l1.1992-15.602c0-2.3984 2.3984-4.8008 4.8008-4.8008l-3.5742 0.015624c1.1992 0 3.6016 1.1992 3.6016 2.3984l20.398 24c1.1992 1.1992 1.1992 2.3984 1.1992 3.6016v12c0 2.3984 1.1992 4.8008 3.6016 4.8008l7.1992 2.3984h3.6016l22.801-13.199c8.3984-4.8008 10.801-15.602 4.8008-22.801l-15.602-22.801c-2.3984-3.6016 0-7.1992 3.6016-7.1992l13.199-1.1992c2.3984 0 3.6016 1.1992 4.8008 3.6016l4.8008 12c0 1.1992 1.1992 1.1992 1.1992 2.3984l26.398 19.199h1.1992l16.801 7.1992c2.3984 1.1992 3.6016 2.3984 3.6016 4.8008l-2.4023 7.1992c-1.1992 10.801 2.3984 20.398 9.6016 27.602l15.602 14.398c6 6 16.801 3.6016 20.398-4.8008l16.801-45.602c1.1992-2.3984 3.6016-3.6016 6-3.6016l15.602 2.3984c1.1992 0 3.6016 1.1992 3.6016 3.6016l13.199 37.199c0 1.1992 1.1992 1.1992 1.1992 2.3984l4.8008 4.8008c3.6016 3.6016 8.3984 1.1992 8.3984-3.6016l-1.1992-8.3984c0-3.6016 2.3984-6 4.8008-4.8008 1.1992 0 2.3984 1.1992 3.6016 1.1992 4.8008 4.8008 10.801 6 16.801 2.3984l10.801-7.1992c1.1992-1.1992 2.3984-2.3984 2.3984-4.8008l-1.207-45.59c0-2.3984 1.1992-4.8008 3.6016-4.8008l13.199-3.6016c1.1992 0 3.6016-1.1992 3.6016-3.6016l6-21.602c0-1.1992 0-3.6016-1.1992-4.8008l-8.3984-9.6016c-6-7.1992-7.1992-16.801-2.3984-25.199l2.3984-6c1.1992-1.1992 2.3984-2.3984 3.6016-2.3984 4.8008 0 9.6016-3.6016 12-8.3984l30-63.602c1.1992-2.3984 4.8008-3.6016 7.1992-2.3984l7.1992 3.6016c1.1992 1.1992 2.3984 2.3984 2.3984 3.6016v16.801c0 2.3984 1.1992 3.6016 2.3984 4.8008 6 3.6016 13.199 0 16.801-6l10.801-22.801c0-1.1992 1.1992-1.1992 2.3984-2.3984l24-14.398c8.3984-2.4062 12-12.004 7.1992-20.406z"/>
  <path d="m765.6 746.4c-2.3984 0-6 1.1992-7.1992 3.6016l-9.6016 13.199c-1.1992 1.1992-1.1992 3.6016-1.1992 4.8008v20.398c0 2.3984 1.1992 3.6016 2.3984 6l3.6016 3.6016c2.3984 3.6016 7.1992 3.6016 10.801 2.3984 2.3984-1.1992 3.6016-3.6016 4.8008-6l7.1992-36c1.1992-3.6016-1.1992-7.1992-3.6016-8.3984l-1.1992-1.1992c-2.4023-1.1992-4.8008-2.4023-6-2.4023z"/>
  <path d="m561.6 459.6 8.3984-2.3984c2.3984-1.1992 4.8008-3.6016 4.8008-6v-16.801c0-3.6016-2.3984-6-6-6-2.3984 0-6 2.3984-6 4.8008l-1.1992 4.8008c0 2.3984-2.3984 4.8008-4.8008 4.8008h-4.8008c-3.6016 0-4.8008 3.6016-4.8008 6v2.3984c0 3.6016 2.3984 6 4.8008 6l7.1992 1.1992c0 1.1992 1.1992 1.1992 2.4023 1.1992z"/>
  <path d="m1018.8 733.2-3.6016-4.8008c-1.1992-1.1992-3.6016-2.3984-4.8008-2.3984l-18 3.6016c-1.1992 0-2.3984 1.1992-3.6016 2.3984l-10.801 13.199s-1.1992 1.1992-2.3984 1.1992l-8.3984 3.6016c-8.3984 4.8008-13.199 13.199-13.199 22.801l1.1992 18c0 2.3984 2.3984 4.8008 4.8008 4.8008h34.801c1.1992 0 2.3984 0 3.6016 1.1992l9.6016 8.3984c1.1992 0 1.1992 1.1992 2.3984 1.1992l27.602 6c2.3984 0 4.8008 0 6-2.3984l14.398-19.199c1.1992-1.1992 1.1992-2.3984 1.1992-3.6016v-22.801-2.3984l-15.602-36c0-1.1992-1.1992-2.3984-2.3984-2.3984-3.6016-1.1992-8.3984 1.1992-8.3984 4.8008 0 3.6016-3.6016 6-7.1992 6l-3.6016-1.1992c-2.4023 2.3984-3.6016 1.1953-3.6016-0.003906z"/>
  <path d="m1051.2 506.4 3.6016 7.1992c1.1992 2.3984 1.1992 4.8008 0 6l-12 31.199c-1.1992 2.3984-1.1992 4.8008 0 7.1992l3.6016 6c1.1992 3.6016 4.8008 4.8008 8.3984 4.8008 3.6016 0 6-1.1992 8.3984-4.8008l14.398-25.199c1.1992-1.1992 1.1992-3.6016 1.1992-6l-5.9961-28.797c0-2.3984-2.3984-6-4.8008-7.1992l-4.8008-2.3984c-2.3984-1.1992-6-1.1992-9.6016 0-2.3984 3.5977-3.5977 8.3984-2.3984 11.996z"/>
  <path d="m1077.6 795.6-2.3984 3.6016s0 1.1992-1.1992 1.1992l-7.1992 13.199c0 1.1992-1.1992 2.3984-2.3984 2.3984l-19.199 15.602c-2.3984 2.3984-3.6016 6-2.3984 9.6016l1.1992 2.3984c1.1992 2.3984 3.6016 4.8008 7.1992 4.8008h9.6016c3.6016 0 6-2.3984 7.1992-4.8008l7.1992-22.801c0-1.1992 1.1992-2.3984 2.3984-3.6016l10.801-8.3984c3.6016-2.3984 3.6016-7.1992 1.1992-10.801l-1.1992-1.1992c-2.4062-4.8008-7.207-4.8008-10.805-1.1992z"/>
 </g>
</svg>
