<?xml version="1.0" encoding="UTF-8"?>
<svg width="1200pt" height="1200pt" version="1.1" viewBox="0 0 1200 1200" xmlns="http://www.w3.org/2000/svg">
 <path d="m94.801 600 2.3984-4.8008v-7.1992l-2.3984 8.3984-2.3984 6-2.3984 4.8008-2.3984 6 4.8008-7.1992zm-8.4023 115.2 2.3984 1.1992 2.3984 6 2.4062-2.3984 1.1992 3.6016c0-7.1992-1.1992-14.398-2.3984-21.602l2.3984-4.8008v-14.398h3.6016l-4.8008-9.6016v-3.6016l-3.6016-9.5977 1.1992-8.3984 2.3984-2.3984-1.1992-4.8008h2.3984v-3.6016l-4.7969-7.2031v-3.6016l-1.1992-4.8008-1.1992 0.003907-1.1992 7.1992-2.4023 6-3.6016 3.6016-1.1992 3.6016c-1.1992 3.6016-1.1992 8.3984-2.3984 12l-2.3984 1.1992-1.2031 1.1992v7.1992l-1.1992 1.1992-1.1992-3.6016v6c1.1992 4.8047 1.1992 9.6016 2.3984 15.602l2.3984 8.3984 1.1992 2.3984 2.3984 12 2.3984 1.1992h1.1992l1.207 4.8047 1.1992-3.6016zm705.6-567.6v4.8008l1.1992 1.1992 10.801 1.1992 4.8008 1.1992 4.8008-3.6016-2.3984-2.3984c1.1992 1.1992 1.1992 1.1992 2.3984 2.3984v1.1992h7.1992l4.8008-1.1992-3.6016 2.3984 3.6016 1.1992h4.8008l6-1.1992h6l-2.4023 1.2031h-3.6016l-3.6016 1.1992-1.1992 1.1992 8.3984 3.6016 1.1992-1.1992 6 1.1992 4.8008 2.3984c3.6016-1.1992 6-2.3984 9.6016-3.6016l2.3984-2.3984 2.3984-1.1992h9.6055l-2.3984-2.3984-3.6016-1.1992 2.3984-1.1992-2.3984-2.3984c-4.8008 0-8.3984-1.1992-13.199-2.3984-4.8008-2.3984-8.3984-4.8008-13.199-7.1992l-8.3984-1.1992h-3.6016l-1.1992 1.1992 8.3984 4.8008 1.1992 2.3984-8.3984-3.6055-3.6016-1.1992 1.1992 2.3984-6-1.1992-3.6016 2.3984-1.1992-2.3984h-3.6016l-3.6016 3.6016v-1.1992l2.3984-4.8008 1.1992-1.1992c-3.6016-1.1992-6-1.1992-9.6016-2.3984l-7.1992 1.1992h-4.8008l-8.3984 2.3984 6 2.3984zm-720 388.8-1.1992-6v-4.8008c-2.3984 19.199-3.6016 37.199-4.8008 56.398l1.1992-2.3984 2.4023-3.5977c1.1992-10.801 2.3984-21.602 2.3984-32.398zm36 13.203 2.3984-3.6016 2.3984-7.1992v-7.1992l1.2031-3.6016v-2.3984l-1.1992 2.3984-2.3984-2.3984h-2.4023l-2.3984 8.3984-2.3984 13.199-1.1992-3.6016-1.2031 8.4023v3.6016l1.1992 6 1.1992-3.6016 1.1992 2.3984-1.1992 2.3984v3.6016l1.1992 2.3984 3.6016 0.003906 1.1992 6 1.1992-3.6016 1.2031 4.8008 2.3984 4.8008 1.1992-3.6016-1.1992-2.3984 1.1992-4.8008-4.8008-6-1.1992 1.1992-2.3984-1.1992v-7.1992zm-13.199 201.6-2.3984-6-4.8008-6v3.6016l-2.3984-2.3984c1.1992 3.6016 2.3984 8.3984 3.6016 12v1.1992l2.3945 2.3984 2.3984 2.3984h2.4023l6 3.6016 2.3984-2.3984-4.8008-6zm21.598-159.6v6l1.1992 1.1992v6l2.3984-1.1992-1.1992-6v-3.6016l3.6016 2.3984-1.1992-10.801-1.1992-3.5977h-3.6016l2.3984 7.1992v3.6016zm-7.1992 170.4-1.1992-2.3984 1.1992 2.3984h-2.3984v4.8008h3.5977l2.3984-1.1992-1.1992-3.6016zm4.8008-27.602 3.6016-2.3984v7.1992l2.3984 3.6016v-2.3984l-1.1992-6-4.8008-10.801v-2.3984l-4.8008-12 2.3984-2.3984 1.1992-4.8008 2.3984 1.1992v-3.6016l-7.1953 1.1992v2.3984l-4.8008-8.3984v-6h3.6016l6 1.1992 3.6016 2.3984 2.3984-1.1992 2.3984-8.3984-1.1992-2.4023-3.6016 6h-4.7969l-4.8008-2.3984-3.6016-2.3984-2.3984 6v28.801l2.3984 6h1.1992l2.3984 8.3984 1.2031 7.1992 1.1992 3.6016 2.3984-1.1992c-1.1992-7.1992-3.6016-15.602-4.8008-22.801l2.3984-2.3984 1.1992 8.3984 3.6016 6zm716.4-614.4h2.3984l3.6016 2.3984c2.3984 1.1992 6 2.3984 8.3984 3.6016h1.1992c-4.8008-2.3984-9.6016-4.8008-15.602-8.3984l0.003907 2.3984-3.6016-2.3984-2.3984 1.1992 2.3984 1.1992zm21.602 13.199 4.8008 1.1992 7.1992 3.6016h1.1992l-4.8008-3.6016v-1.1992c-3.6016-1.1992-6-3.6016-9.6016-4.8008l-2.3984 1.1992zm-21.602-6 4.8008 2.3984h2.3984l1.1992-1.1992-4.8008-3.6016-3.6016-2.3984-4.8008-1.1992h-1.1992v2.3984h-2.3984l6 3.6016zm-18-13.199 3.6016 1.1992h2.3984v-1.1992l-2.3984-1.1992-3.6016 1.1992-2.3984-1.1992h-1.1992zm-10.797 2.3984 1.1992 1.1992 3.6016-1.1992h8.4023l-3.6016-1.1992h-15.602l2.3984 1.1992zm3.5977-8.3984 3.6016 1.1992 1.1992-1.1992c-3.6016-1.1992-8.3984-3.6016-12-4.8008 1.1992 1.1992 3.6016 2.3984 4.8008 3.6016zm-2.3984 26.398c3.6016 0 7.1992-1.1992 7.1992 0l-2.3984 2.3984 2.3984 1.1992 3.6016-1.1992 2.3984-2.3984 6-2.3984-2.3984-2.3984-3.6016-2.4023h-2.3984v1.1992c-2.3984-1.1992-4.8008-2.3984-7.1992-3.6016l-2.4023 0.003906 1.1992 2.3984 9.6016 3.6016h-3.6016l-7.1992-2.4023h-8.3984v1.1992l2.3984 4.8008zm40.801 2.4023 6 2.3984h-3.6016l2.3984 1.1992 9.6016 2.3984 3.6016 1.1992 2.3984 0.003906v-2.3984l-6-3.6016-4.8008-1.1992-2.3984-2.3984-2.3984-1.1992-1.1992 1.1992h-4.8008zm-505.2 861.6 1.1992-2.3984h6l2.3984-2.3984-1.1992-2.3984-1.1992-3.6016-1.1992-4.8008v-2.3984l-1.1992-4.8008v-7.1992l2.3984-2.3984 0.003906-6.0039-1.1992-4.8008-2.3984-3.6016-1.1992-6v-3.6016l-2.4062-5.9961-4.8008-6-1.1992-4.8008-1.1992-3.6016-3.6016-6c-6-4.8008-12-8.3984-18-13.199l-3.6016-7.1992-1.1992 1.1992-3.6016-3.6016-2.3984 1.1992-4.8008-8.3984-4.8008-4.8008v-1.1992c-3.6016-2.3984-7.1992-4.8008-10.801-7.1992l-8.3984-4.8008-3.6016-4.8008-1.1992-3.6016-3.5938-7.1953-2.3984-1.1992c-2.3984-3.6016-4.8008-7.1992-6-10.801v-3.6016l-7.2031-7.2031-3.6016 2.3984-3.6016-6v-2.3984l-1.1992-4.8008-3.6016-4.8008-1.1992-3.6016-1.1992-1.1992-1.1992-4.793-2.3984-3.6016-1.1992 2.3984v10.801l1.1992 2.4023-1.1992 1.1992 1.1992 6 2.3984 4.8008v2.3984l2.3984 3.6016 0.003906 6 1.1992 3.6016v7.2031l-2.3984 2.3984-6-3.6016-1.1992-2.3984-3.6016-2.3984h-1.1992c-3.6016-3.6016-6-6-9.6016-8.3984l-4.8008-2.3984-6-4.8008-1.1992-2.3984 1.1992-3.6016v-3.6016l-1.1992-3.6055h1.1992l1.1992-6v-3.6016l-3.6016-4.8008-1.1992 1.1992-2.3984-1.1992-2.3984 2.4023-3.6016-2.3984-1.1992 1.1992-4.8008-2.3984-3.6016-3.6016-3.6016-2.3984-2.3984 1.1992 4.8008 3.6016 1.1992 3.6016-3.5977 1.1953-2.3984-1.1992-2.3984 2.3984-1.2031 4.8008 1.1992 3.6016-1.1992 1.1992v6l2.3984 2.3984-3.6016-1.1992h-2.3984l-3.6016-4.8008-4.7969-3.5977-2.3984 2.3984v1.1992l-2.4023-1.1992 4.8008 6-1.1992 1.1992v2.3984l-1.1992 3.6016 2.3984 6-2.3984-2.3984v3.6016l2.3984 3.5977-1.1992 1.1992-4.8008-7.1992v6c0 2.3984 1.1992 4.8008 2.3984 7.1992v3.6016l1.1992 3.6016v2.3984l-2.3984 1.1992-2.3984-1.1992v1.1992h-1.1992l-1.1992 2.3984-1.1992-1.1992h-1.2031l-1.1992 2.3984v2.4023l-1.1992 2.3984 1.1992 4.8008-3.6016-6 4.7969 9.6016 1.1992 4.8008c1.1992 2.3984 3.6016 4.8008 4.8008 7.1992 2.3984 2.3984 4.8008 6 6 8.3984l-2.3984-2.3984 4.8008 7.1992-2.3984-3.6016c2.3984 3.6016 4.8008 6 7.1992 9.6016l3.6016 6c10.801 15.602 24 31.199 36 45.602l3.6016 3.6016h1.1992l2.3984 2.3984v-3.6016h1.1992l-1.1992-3.6016h2.3984l3.6016 1.1992h3.5977l-1.1992-2.3984-2.3984-3.5977 2.3984-1.1992 1.1992-2.3984 3.6016 2.3984 2.3984-1.1992 3.6016-1.1992h7.1992l6 3.6016h3.6016l8.3984 4.8008v1.1992l3.6016 2.3984 6 4.8008 3.6016 2.3984 4.8008 3.6016-1.1992-4.8008 1.1992-2.3984v-4.8008l3.6016 4.8008v2.3984l1.1992 3.6016v3.6016l3.6016-1.1992-1.1992-3.6016 4.8008 4.8008v2.3984l4.8008 1.1992 3.6016 2.3984 3.6016 3.6016 3.6016 4.8008 6 3.6016 6 2.3984 2.3984 1.1992c2.3984 1.1992 6 2.3984 8.3984 3.6016l1.1992-3.6016 2.3984-1.1992 1.1992 2.3984 3.6016 2.3984 6 2.3984zm20.402 20.402-4.8008-6-3.6016-1.1992c-1.1992 0-3.6016 1.1992-4.8008 1.1992l-6-2.3984-3.5977-1.2031 2.3984 2.3984 6 4.8008 3.6016 3.6016 7.1992 6h4.8008v-3.6016zm148.8-1.1992-3.6016 2.3984c-2.3984-1.1992-3.6016-3.6016-4.8008-4.8008l-3.6016 2.3984v3.6016l-2.3984 1.1992-1.1992 3.6016-2.3984 2.3984-4.8008 2.3984-3.6016 2.3984-3.6016 1.1992-4.8008 4.8008-1.1992 3.6016 2.3984 2.3984 6.0039 0.003907 3.6016 2.3984h6c2.3984-1.1992 3.6016-2.3984 6-3.6016l2.3984-4.8008v-3.6016l4.8008-2.3984h4.8008l-3.6016-2.3945 2.3984-1.1992 3.6016-3.6016 1.1992-3.6016-1.1992-2.3984zm-368.4-294-1.1992 3.6016 3.6016 1.1992 2.3984-0.003906 4.8008 2.3984 4.8008 3.6016-2.3984-7.1992-6-3.6016zm27.602-10.801-1.1992-3.6016-8.3984-4.8008-2.3984 2.3984-7.2031 1.2031 2.3984 4.8008 4.8008 2.3984 2.3984 6c2.3984 0 4.8008 1.1992 7.1992 1.1992l1.1992 2.3984-3.6016-1.1992-4.8008 2.3984 4.8008 4.8008 2.3984 7.2031h2.3984l1.1992-3.6016 9.6016 8.3984 4.8008 1.1992 12 8.3984 3.6016 7.1992 3.6016 9.6016-3.6016 2.3984-1.1992 6 7.2031 0.007812 1.1992-1.1992 6 2.3984 7.1992 7.1992 6 1.1992 3.6016 1.1992 4.8008-2.3984-2.4023-6 3.6016-2.3984 4.8008-2.3984 9.6016 4.8008 4.8008 7.1992 4.8008 4.8008 6 4.8008c4.8008 1.1992 8.3984 2.3984 13.199 3.6016l2.3984 2.3984h4.8008v-2.3984l-8.4023-3.6055 2.3984-2.3984-6-1.1992v-3.6016h-3.6016l-5.9961-9.6016-7.1992-6-2.4023-6h6l-2.3984-4.8008-12-6-1.1992-4.8008c-3.6016-3.6016-6-6-9.6016-9.6016l-13.199-6-12-7.1992-7.1992-2.3984c-3.6016-2.3984-7.1992-4.8008-10.801-7.1992h-4.8008l-6 4.8008-3.6016 8.3984-6-6zm957.6-212.4-2.3984 4.7969-1.1992 1.1992-1.1992 3.6016-1.1992-3.6016-2.4023-1.1953-1.1992-3.6016-1.1992-4.8008-3.6016-6-2.3984-6-2.3984-3.6016-1.2031-4.7969c-1.1992-10.801-4.8008-20.398-6-30l-1.1992-2.3984c-1.1992-3.6016-2.3984-6-3.6016-9.6016l-1.1992-3.5977v-15.602l-1.1992-2.3984 1.1992-1.1992 2.3984 1.1992 1.1992-2.3984 2.3984 3.6016h1.1992v-2.3984l1.1992 1.1992c0-1.1992 0-1.1992-1.1992-2.3984-1.1992-1.1992-1.1992-3.6016-2.3984-4.8008-28.801-73.199-73.199-138-128.4-190.8v1.1953c-4.8008-3.6016-8.3984-6-12-9.6016h-3.6016c-8.3984-7.1992-15.602-15.602-21.602-24v-1.1992l-4.8008-3.6016-1.1992-1.1992c-13.199-9.6016-26.398-19.199-40.801-28.801h-1.1992l-1.1992-1.1992c-1.1992-1.1992-2.3984-1.1992-3.6016-2.3984l-7.1992-3.6016-4.8008-1.1992h-2.3945l4.8008 4.8008 7.1992 4.8008 2.3984 1.1992 6 2.3984 6 4.8008h-1.1992l4.8008 4.8008-6-4.8008-4.8008-1.1992v1.1992l4.8008 3.6016-2.3984 1.1992-1.1992 1.1992-6-1.1992-1.1992 1.1992-6-2.3984-3.6016-1.1992-1.1992 1.1992-2.4023 1.1992 2.3984 1.1992 4.8008 1.1992 1.1992 3.6016-6-2.3984-1.1992 1.1992-6 2.3984h-6l1.1992-3.6016-7.1992-2.3984-2.3984 1.1992c-4.8008 0-9.6016-1.1992-14.398-1.1992l-7.1992-1.1992h-4.8008v1.1992l-3.6016 1.1992-4.8008-3.6016-1.1992 3.6016-10.801-3.6016h-2.3984l1.1992 2.3984-1.1992 1.1992-4.8008-2.3984-4.8008 2.3984-3.6016 2.3984h-6l-3.6016 2.3984-2.3984 2.3984h-4.8008l-8.3984-2.3984c-4.8008 0-9.6016-1.1992-14.398-1.1992l-7.1992-1.1992-4.8008 1.207h-12l-10.801-1.1992-4.8008 1.1992h-7.1992v-1.1992h-8.3984l-1.2031 1.1992-4.8008-2.3984-7.1992-1.1992-6 3.5977h-4.8008l-8.3984 2.3984-4.8008 1.1992-4.8008 2.3984-1.1992 2.3984-6 2.3984h-9.6016l-2.3984 2.3984 7.1992 1.1992 6 2.3984 4.8008 2.3984 7.1992 2.3984 4.8008 3.6016h-12v-2.3984h-4.8008l-12 3.6016-7.1992 2.3984 7.1992 3.6016 2.3984 2.3984 8.3984 1.1992 7.1992-1.1992 4.8008 1.1992 1.1992-2.3984 6-1.1992h3.6016l-3.6016 2.3984 3.6016 1.1992 2.3984 3.6016-3.5938 2.4102h-4.8008l-3.6016 2.3984-3.5977-1.1992h-4.8008l-1.1992 3.6016-4.8008 3.6016-2.3984 3.6016 4.8008 2.3984v3.5977h3.6016l6 2.3984 8.3984-1.1992 4.8008 2.3984-1.1992 2.3984 1.1992 3.6016h3.6016l6-2.3984 3.6016 3.6016 1.1992-2.3984 4.8008 3.6016 2.3984-2.3984-0.003906 2.3945 7.1992-2.3984-2.3984 3.6016v4.8008l-3.6016 2.3984-1.1992 1.1992-8.3984 4.8008-2.3984 2.3984-8.3984 1.1992-6 3.6016-6.0039 2.3984-7.1992 3.6016 1.1992 1.1992 12-2.3984c6-2.3984 12-4.8008 18-7.1992h4.8008l7.1992-3.6016 1.1992-3.6016 8.3984-4.8008 1.1992-2.3984 12-4.7969 3.6016-4.8008-4.8008-2.3984 7.1992-4.8008 2.3984-4.8008 6-6 2.3984 1.1992-4.8008 2.3984v6l2.3984 3.6016 6-1.1992 4.8008-2.3984 6-1.1992h2.3984l-3.6016-4.8008 6-1.1992 7.1992 2.3984 12 2.3984 7.1992-1.1992c4.8008 1.1992 10.801 1.1992 15.602 2.3984l14.398 6 7.1992 1.1992h13.199l6 6 9.6016 4.8008 3.6016 3.6016 6 1.1992 4.8008 2.3984 2.3984 3.6016 8.3984 4.8008 3.6016 4.8008 8.3984 2.3984 1.1992 4.8008 6 6 10.801 2.3984c7.1992 3.6016 13.199 6 19.199 8.3984h1.1992l4.8008 3.6016 3.6016 6 0.011719 2.3984-6-6-8.3984-1.1992v1.1992l3.6016 3.6016 4.8008 6 6 9.6016 6 13.199 1.1992 7.1992 4.8008 6 2.3984 7.1992 1.1992 6 4.8008 3.6016 3.6016 6 7.1992 4.8008 3.6016 2.3984-0.003907 2.3984 8.3984 10.801 8.3984 7.1992 2.3984 4.8008 2.3984 1.1992h4.8008l2.3984 1.1992h3.6016l1.1992 2.3984 2.3984 1.1992 4.8008 3.6016c6 9.6016 13.199 19.199 19.199 27.602h1.207l6 4.8008 1.1992 3.6016-1.1992 3.5977h-2.3984v1.1992l4.8008 4.8008 3.6016 1.1992 2.3984 2.3984v-1.1992c2.3984 2.3984 4.8008 3.6016 7.1992 6l2.3984 4.8008 1.1992 6 2.3984 1.1992 4.8008 3.6016 3.6016 4.8008 2.3984 4.8008h1.1992l1.1992-3.6016v-1.1992c-1.1992-2.3984-2.3984-4.8008-4.8008-7.1992h-2.3984l-1.1992-4.8008c-1.1992-2.3984-3.6016-4.8008-4.8008-7.1992l-3.5977-7.2031-8.3984-8.3984-2.3984-4.8008h-1.2031l-1.1992-2.3984h-1.1992l-1.1992-2.3984-4.8008-4.8008-2.3984-3.6016-2.4023-6-2.3984-3.6016v-3.6016l3.6016 2.3984v-1.1992l4.8008 2.3984 1.1992 3.6016 3.6016 6 4.8008 6 2.3984 3.6016c2.3984 2.3984 4.8008 4.8008 7.1992 7.1992h2.3984l2.3984 6 3.6016 3.6016 2.3984 1.1992 1.1992 4.8008 1.1992 2.3984 4.8008 2.3984 3.6016 4.8008 4.8008 6 6 7.1992 2.3984 3.6016 1.1992 3.6016 2.3984 3.6016 1.1992 4.8008v2.3984l1.1992 2.3984-1.1992 1.1992 1.1992 3.6016 2.3984 4.8008 4.8008 3.6016 1.1992 1.1992 3.6016 2.3984h2.3984l1.1992 2.3984 7.2031 7.2031h2.3984l3.6016 3.6016 4.7969 2.3984 1.1992-1.1992 1.1992-3.6016 1.1992-1.1992v1.1992l1.1992 2.3984c1.1992 4.8008 3.6016 8.3984 4.8008 12l1.1992 1.1992h1.1992l1.1992 1.1992c-2.3906-15.598-3.5898-31.195-7.1914-45.598zm-542.4-310.8 1.1992 3.6016-3.5977-1.2031 2.3984-3.6016c-8.3984-3.6016-18-7.1992-26.398-9.6016l-7.1992-2.3984-14.398-2.3984h-10.801l-15.602-2.3984-3.6016 2.3984 3.6016 3.6016-7.1992 1.1992-6-4.8008h-9.6016l-8.3984-1.1992h-8.4023l-7.1992 1.1992-4.8008-1.1992v-3.6016l-2.3984-2.3984-8.3984-1.1992h-16.801l-7.1992-4.8008v-3.6016c-19.199-3.6016-19.199-3.6016-27.602-6l-6 1.1992-2.3984 4.8008-4.8047-1.1992-3.6016 1.1992-3.6016-2.3984-5.9961 1.1992-1.1992-2.3984-8.3984 4.8008-1.2031-2.4023 4.8008-4.8008 3.6016-1.1992 2.3984-3.6016v-3.6016h-3.6016l-3.5977-1.1953-4.8008 3.6016-7.1992-2.4023 2.3984-2.3984-3.6016-2.3984h-3.6016l-2.3984 1.1992 3.6016-3.6016h-2.3984v-2.3984l2.3984-1.1992c3.6016 0 7.1992-1.1992 10.801-1.1992l3.6016-2.3984 2.3984-2.3984 1.1992-2.3984-2.3984-1.2109c-144 72-250.8 207.6-283.2 370.8l2.3984-4.8008 1.1992-1.1992 2.3984 3.6016-1.1992 3.6016-1.1992 6h1.1992l2.4023-8.4023h3.6016l3.6016-3.6016 2.3984-3.6016v3.6016l2.3984-3.5977h3.6016c3.6016-4.8008 8.3984-8.3984 12-13.199 6-9.6016 10.801-19.199 16.801-28.801h2.3984c2.3984-4.8008 3.6016-8.3984 6-13.199l-1.1992-2.3984 1.1992-4.8008 2.3984-1.1992 2.3984-6 0.003906-7.2031 1.1992-8.3984 2.3984-8.3984-1.1992-4.8047 3.6016-4.8008 4.8008-3.6016 3.6016-3.6016h3.6016l1.1992-3.6016-2.3984-1.1992-1.1992-3.6016-6 4.8008-1.1992-2.3984 1.1992-3.6016-1.1992-2.3984 1.1992-6 3.6016-3.6016h3.6016l4.8008-4.8008 4.8008-6 4.8008-2.3984v4.8008l-4.8125 4.8047-1.1992 3.6016-3.6016 3.6016 4.8008-1.1992 2.3984-4.8008 6-1.1992 1.1992 2.3984 1.1992 1.1992v1.1992l-2.3984 3.6016v1.1992l-1.1992 1.1992-2.3984 3.6016v1.1992l1.1992 1.1992v1.1992h1.1992l1.1992-1.1992 1.1992 2.3984v7.1992l-3.6016 1.1992-1.1992 8.3984-3.6016 6-1.1953 4.8047h3.6016l6-2.3984 4.8008-1.1992 3.6016-3.6016 3.6016-9.6016 1.1992-4.8008v-9.6016l-1.1992-3.6016-1.207-1.1953 1.1992-1.1992 1.1992-3.6016 2.3984-1.1992 3.6016-1.1992 3.5977-3.5977 2.3984-1.1992 2.3984-6 2.3984-2.3984 3.6016-2.3984 1.1992 1.1992 2.3984-2.3984 8.3984-3.6016 1.1992 3.6016h2.3984l9.6016-4.8008c8.3984-6 16.801-13.199 26.398-19.199l3.6016-4.8008 13.199-9.6016 8.3984-10.801 7.1992-8.3984 7.1992-6 3.6016-6-2.3984-8.3984-4.8008-1.1992-4.8008 3.6016-3.6016-2.3984 1.1992-4.8008-5.9805-1.2109c15.602-8.3984 32.398-15.602 49.199-24h15.602l13.199 2.3984 8.3984-2.3984h7.1992l-3.6016 4.8008c7.1992 0 13.199-1.1992 20.398-1.1992l-2.3945-3.6016 16.801-10.801 14.398-1.1992 1.1992 7.1992 16.801-6 6-4.8008h7.1992l-8.3984 8.3984-12 4.8008c-9.6016 3.6016-18 8.3984-26.398 13.199l-9.6016 1.2031-1.1992 3.6016-6 3.6016-7.1992 8.3984c-2.3984 8.3984-4.8008 16.801-6 25.199v4.8008l12-6 4.8008-7.1992 9.6016-1.1992 4.8008-7.1992 12-2.3984-1.1992-2.3984 4.8008-6 5.9922-0.007812 4.8008-9.6016-6-1.1992 1.1992-2.3984 9.6016-6 3.6016-3.6016 7.1992 1.1992 7.1992-2.3984 1.1992 2.3984 16.801-4.8008 7.1992 4.8008 3.6016-2.3984c7.1992-2.3984 13.199-4.8008 20.398-7.1992l6-1.1992 18-4.8008 9.6016 1.1992 2.3984-1.1992v-2.3984l-2.3984-1.1992-2.4023-4.8008-4.8008-3.6016h7.1992l8.3984-3.6016 3.6016-2.3984-2.3984-2.3984h4.8008l-1.1992 2.3984 2.3984 2.3984 7.1992-1.1992 6 1.1992 1.1992 2.3984 7.1992 1.1992 4.8008 2.3984h6l2.3984-1.1992v-6l9.6016-1.1992 6-2.3984-10.801-4.8008zm-52.801 812.4h-4.8008l-6-2.3984-2.3984-4.8008-3.6016-1.1992 1.1992 3.6016-7.1992-6-3.6016-4.8008-6-1.1992-4.7969-3.6016h-2.3984l3.6016 4.8008 7.1992 4.8008 3.6016 2.3984v1.1992l3.6016 1.1992 1.1992 3.6016v4.8008l-4.8047 2.3984v2.3984l8.3984 2.3984 3.6016 3.6016-2.3984 4.8008 2.3984 1.1992 1.1992 2.3984 4.8008-2.3984c2.3984-2.3984 3.6016-4.8008 4.8008-7.1992l1.1992-1.1992-1.1992-2.3984 1.1992-1.1992h6l1.1992-3.6016 1.1992-4.8008-3.6016-1.1992zm2.4023-148.8v3.6016zm-394.8-157.2v-7.1992l-1.1992-3.6016-2.4023-1.1992-1.1992-4.8008-1.1992 2.3984v6l2.3984 12 2.3984 6 1.1992-1.1992-2.3984-4.8008v-4.8008zm7.1992 75.602 2.3984-2.3984-2.3984-1.2031-1.1992 1.1992h-2.3984l-3.6016 1.1992v2.3984l-3.6016 2.3984v7.2031l1.1992 1.1992 2.3984-1.1992 1.1992-7.1992 2.3984-1.1992zm-28.801-152.4-3.6016 2.3984-1.1992-4.8008-2.3984 2.4023-2.3984 2.3984-1.1992 7.1992 1.1992 2.3984 2.3984-4.7969 2.3984 1.1992 1.2031-3.5977 2.3984 4.8008-1.1992 3.6016 1.1992 7.1992 4.8008 6 1.1992-3.6016-1.1992-7.1992 2.3984-4.8008 1.1992 9.6016 1.1992-8.3984c0-4.8008-1.1992-9.6016-1.1992-14.398l1.1992-3.6016-3.5977-4.8047v7.1992l-3.6016 0.003906zm7.1992 147.6h-2.3984l-2.3984-3.6016-2.3984 1.1992c1.1992 1.1992 1.1992 2.3984 1.1992 3.6016l4.8008 1.1992h4.8008l-1.1992-4.8008zm-12-172.8-1.1992 6c-1.1992 1.1992-2.3984 3.6016-2.3984 4.8008l2.3984 7.1992 1.1992-2.3984 1.1992-6 1.1992-2.3984 1.1992-8.3984-2.3945 7.1953 1.1992-6zm170.4 162-3.6016 2.3984-1.1992 2.4023h-3.6016l-1.1992-4.8008h-1.1992v3.6016h-3.6016l-6-1.1992v2.3984l4.8008 2.3984 6 2.3984h3.6016c2.3984-1.1992 4.8008-2.3984 7.1992-3.6016l1.1992-2.3984h3.6016l1.1992-4.8008v-4.8008l-1.1992-1.1992h-4.8008zm-2.4023-436.8-4.8008 6-6 9.6016h-6l-4.8008 6-2.3984 8.3984h6l6-8.3984 6 6 8.3984-7.1992 9.6016-1.1992 2.3984-8.3984-4.7969 2.3945-7.2031-4.7969zm-102 106.8 3.6016-2.3984 7.1992-12-2.3984-7.1992 6 1.1992 7.1992-3.6016 9.6016-1.1992-2.3984 6 2.3984 3.6016 10.801-8.3984 9.5977-0.003906 8.3984-3.6016 4.8008-4.8008v-3.6016l4.8008-6 3.6016-10.801 8.3984-7.1992 2.3984-6 1.1992-10.801-6 1.1992-4.8008 4.8008-2.3984 8.3984-7.1992 9.6016c-4.8008 3.6016-9.6016 6-14.398 9.6016l-2.3984-3.6016-10.801 13.199-4.8008-2.3984-10.801 1.1992-6 4.8047-6 3.6016-4.8008 4.8008-4.8008 2.3984v6l2.3984 2.3984-3.6016 7.1992zm128.4-129.6 1.1992-13.199 2.3984-7.1992 3.6016-7.1992c1.1992-3.6016 2.3984-7.1992 3.6016-10.801l-2.3984 1.1992v3.6016l-6 2.3984-6 9.6016-1.2031 7.1992-6 9.6016-3.6016 4.8008-7.2031 14.398-2.3984 6 6-4.8008 2.3984 3.6016 2.3984-4.8008-1.1992-8.3984 8.3984-9.6016z"/>
</svg>
