<?xml version="1.0" encoding="UTF-8"?>
<svg width="1200pt" height="1200pt" version="1.1" viewBox="0 0 1200 1200" xmlns="http://www.w3.org/2000/svg">
 <g>
  <path d="m450 675c0-82.727-67.273-150-150-150s-150 67.273-150 150 67.273 150 150 150 150-67.273 150-150z"/>
  <path d="m413.78 825h-227.56c-61.34 0-111.22 49.77-111.22 110.93v151.57c0 20.727 16.773 37.5 37.5 37.5h375c20.727 0 37.5-16.773 37.5-37.5v-151.57c0-61.156-49.879-110.93-111.22-110.93z"/>
  <path d="m825 907.06v180.44c0 15.16 9.1172 28.859 23.145 34.645 14.027 5.8594 30.141 2.6016 40.871-8.1289l48.484-64.016 48.488 64.016c7.1758 7.1758 16.77 10.984 26.512 10.984 4.8359 0 9.7031-0.91406 14.355-2.8555 14.027-5.7852 23.145-19.484 23.145-34.645v-180.44c-33.141 19.238-71.496 30.441-112.5 30.441s-79.359-11.203-112.5-30.441z"/>
  <path d="m937.5 525c-103.38 0-187.5 84.117-187.5 187.5s84.117 187.5 187.5 187.5 187.5-84.117 187.5-187.5-84.117-187.5-187.5-187.5z"/>
  <path d="m841.55 509.29c13.293-40.957 20.945-85.043 20.945-134.29 0-16.148-10.328-30.469-25.637-35.578l-86.863-28.957v-85.465c0-82.707-67.293-150-150-150s-150 67.293-150 150v85.465l-86.863 28.957c-15.309 5.1094-25.637 19.43-25.637 35.578 0 44.141 6.1758 84.117 16.902 121.5 76.75 23.488 133.1 94.164 133.1 178.5 0 8.7695-1.418 17.152-2.5898 25.605 12.336 11.727 25.215 23.316 38.934 34.746l52.148 43.449c6.9609 5.8047 15.477 8.6992 24.008 8.6992s17.047-2.8945 24.004-8.6992l52.148-43.449c12.988-10.82 25.105-21.805 36.855-32.887 3.7969-85.414 55.273-158.44 128.55-193.18zm-316.55-284.29c0-41.363 33.637-75 75-75s75 33.637 75 75v60.469l-63.137-21.047c-7.7266-2.5625-16.004-2.5625-23.73 0l-63.133 21.047zm183.55 204.27-75 150c-5.3828 10.766-15.637 18.312-27.539 20.25-2.0156 0.33203-4.0312 0.47656-6.0078 0.47656-9.8516 0-19.445-3.8828-26.516-10.988l-75-75c-14.648-14.648-14.648-38.379 0-53.027s38.379-14.648 53.027 0l38.195 38.195 51.746-103.45c9.2656-18.531 31.789-25.965 50.316-16.773 18.535 9.2656 26.039 31.789 16.777 50.32z"/>
 </g>
</svg>
