<svg xmlns="http://www.w3.org/2000/svg" xmlns:xlink="http://www.w3.org/1999/xlink" version="1.1" x="0px" y="0px" viewBox="0 0 64 64" style="enable-background:new 0 0 64 64;" xml:space="preserve"><g><rect x="9" y="51" width="14" height="5"></rect><rect x="41" y="51" width="14" height="5"></rect><rect x="25" y="51" width="14" height="5"></rect><rect x="25" y="37" width="14" height="5"></rect><rect x="33" y="44" width="14" height="5"></rect><rect x="17" y="44" width="14" height="5"></rect><path d="M49.293,16.707C49.488,16.902,49.744,17,50,17s0.512-0.098,0.707-0.293L56,11.414c0.78-0.78,0.78-2.048,0-2.828L55.414,8   c-0.779-0.78-2.049-0.78-2.828,0l-5.293,5.293c-0.391,0.391-0.391,1.023,0,1.414L49.293,16.707z"></path><path d="M32,33.125c0.115,0,0.232-0.02,0.344-0.061l14-5.125C46.738,27.795,47,27.42,47,27v-9c0-0.552-0.448-1-1-1h-9   c-0.424,0-0.801,0.267-0.943,0.667l-5,14.125c-0.129,0.365-0.036,0.772,0.24,1.044C31.487,33.024,31.741,33.125,32,33.125z"></path></g></svg>