<svg xmlns="http://www.w3.org/2000/svg" xmlns:xlink="http://www.w3.org/1999/xlink" version="1.1" x="0px" y="0px" viewBox="0 0 128 128" enable-background="new 0 0 128 128" xml:space="preserve"><path fill="none" stroke="#000000" stroke-width="4" stroke-linecap="round" stroke-linejoin="round" stroke-miterlimit="10" d="  M86.475,54.964"></path><path fill="none" stroke="#000000" stroke-width="4" stroke-linecap="round" stroke-linejoin="round" stroke-miterlimit="10" d="  M26,46.569"></path><path d="M41.768,66.426h18.98c1.727,5.564,10.532,9.685,21.485,9.685c12.232,0,21.814-5.133,21.814-11.685  c0-2.953-1.924-5.733-5.419-7.828c-0.947-0.569-2.175-0.261-2.744,0.687c-0.568,0.947-0.26,2.176,0.687,2.743  c1.298,0.778,3.476,2.385,3.476,4.398c0,3.635-7.316,7.685-17.814,7.685s-17.815-4.05-17.815-7.685s7.316-7.685,17.815-7.685  c1.356,0,2.712,0.071,4.029,0.211c1.102,0.115,2.083-0.678,2.201-1.776c0.117-1.099-0.679-2.084-1.777-2.2  c-1.458-0.155-2.956-0.234-4.453-0.234c-10.954,0-19.759,4.12-21.485,9.685h-18.98V59.57l20.131-19.406  c3.128,4.372,10.94,7.405,20.335,7.405c12.232,0,21.814-5.133,21.814-11.685c0-2.953-1.924-5.733-5.419-7.828  c-0.947-0.569-2.175-0.261-2.744,0.687c-0.568,0.947-0.26,2.176,0.687,2.743c1.298,0.778,3.476,2.385,3.476,4.398  c0,3.635-7.316,7.685-17.814,7.685s-17.815-4.05-17.815-7.685S71.735,28.2,82.233,28.2c1.356,0,2.712,0.071,4.029,0.211  c1.102,0.12,2.083-0.678,2.201-1.776c0.117-1.099-0.679-2.084-1.777-2.2c-1.458-0.155-2.956-0.234-4.453-0.234  C70,24.2,60.418,29.333,60.418,35.885c0,0.047,0.012,0.092,0.013,0.139L41.768,54.015v-6.672c0-1.104-0.896-2-2-2H26  c-1.104,0-2,0.896-2,2s0.896,2,2,2h11.768v21.156c-0.008,0.108-0.009,0.215,0,0.322v7.836H26c-1.104,0-2,0.896-2,2s0.896,2,2,2  h13.768c1.104,0,2-0.896,2-2v-5.292l18.738,18.014c0.88,6.088,10.097,10.731,21.728,10.731c12.232,0,21.814-5.133,21.814-11.685  c0-2.953-1.924-5.733-5.419-7.828c-0.947-0.568-2.175-0.26-2.744,0.687c-0.568,0.947-0.26,2.176,0.687,2.743  c1.298,0.778,3.476,2.385,3.476,4.398c0,3.635-7.316,7.685-17.814,7.685c-10.43,0-17.712-3.997-17.806-7.613  c0.001-0.046,0.001-0.091,0-0.137c0.086-3.618,7.371-7.619,17.807-7.619c1.356,0,2.712,0.071,4.029,0.211  c1.102,0.115,2.083-0.678,2.201-1.776c0.117-1.099-0.679-2.084-1.777-2.2c-1.458-0.155-2.956-0.234-4.453-0.234  c-9.836,0-17.947,3.321-20.752,8.027L41.768,69.817V66.426z"></path></svg>