<svg xmlns="http://www.w3.org/2000/svg" xmlns:xlink="http://www.w3.org/1999/xlink" version="1.1" x="0px" y="0px" viewBox="0 0 69 69" style="enable-background:new 0 0 69 69;" xml:space="preserve"><g><path d="M65.32324,60.3252H3.67676c-0.55273,0-1,0.44727-1,1s0.44727,1,1,1h61.64648c0.55273,0,1-0.44727,1-1   S65.87598,60.3252,65.32324,60.3252z"></path><path d="M17.4209,19.25146c-0.11432,0-2.79681-0.0351-2.91571-0.03662c1.40546,1.31921,2.28973,3.18756,2.28973,5.2627   c0,2.07764-0.88635,3.948-2.2948,5.26758h8.14734v-5.26758C22.64746,21.5957,20.30273,19.25146,17.4209,19.25146z"></path><path d="M9.56934,29.7041c2.88184,0,5.22559-2.34473,5.22559-5.22656s-2.34375-5.22607-5.22559-5.22607   s-5.22656,2.34424-5.22656,5.22607S6.6875,29.7041,9.56934,29.7041z"></path><polygon points="31.86133,36.81543 38.68848,36.81543 36.2373,32.18848  "></polygon><path d="M14.49493,17.21484h44.89862c2.93817,0,5.25977-2.38287,5.25977-5.27002c0-2.90576-2.35938-5.27002-5.25977-5.27002   H14.49982c1.40857,1.31946,2.2951,3.18982,2.2951,5.26758C16.79492,14.02277,15.90631,15.89508,14.49493,17.21484z"></path><polygon points="41.9834,36.81543 49.39453,36.81543 45.3916,30.14258  "></polygon><path d="M9.56934,17.16895c2.88184,0,5.22559-2.34473,5.22559-5.22656s-2.34375-5.22607-5.22559-5.22607   s-5.22656,2.34424-5.22656,5.22607S6.6875,17.16895,9.56934,17.16895z"></path><path d="M29.36621,55.37714v-2.67499c0-0.55273,0.44727-1,1-1h25.43066c0-8.57672,0-16.99713,0-27.22461   c0-2.88184-2.34375-5.22607-5.22559-5.22607H22.40723c1.37891,1.31689,2.24023,3.17285,2.24023,5.22607v31.02637   c0,1.19885,0.95337,2.16364,1.85742,2.30273c0.10016,0.0141,0.42828,0.06,0.32813,0.0459   C28.3938,57.83594,29.35889,56.65845,29.36621,55.37714z M28.53906,22.46484c0-0.55225,0.44727-1,1-1h21.62109   c0.55273,0,1,0.44775,1,1c0,0.10181-0.00525,15.46863-0.00354,15.36804c-0.01031,0.60394-0.52124,0.98254-0.99646,0.98254H29.53906   c-0.53241,0-1-0.44592-1-1V22.46484z M29.53906,41.00781h21.62109c0.55273,0,1,0.44727,1,1s-0.44727,1-1,1H29.53906   c-0.55273,0-1-0.44727-1-1S28.98633,41.00781,29.53906,41.00781z M29.53906,45.82129h21.62109c0.55273,0,1,0.44727,1,1   s-0.44727,1-1,1H29.53906c-0.55273,0-1-0.44727-1-1S28.98633,45.82129,29.53906,45.82129z"></path><path d="M62.0498,55.01465v-1.3125c-2.07202,0.00012-27.67798,0.00177-30.68262,0.00195v1.66016   c0,0.00415-0.00098,0.00818-0.00098,0.01233v0.12537c0,0.85254-0.24609,1.66211-0.68359,2.34766l28.5166,0.01074   C60.77148,57.86035,62.0498,56.58398,62.0498,55.01465z"></path><path d="M64.65332,24.4751c0-2.90039-2.35938-5.26025-5.25977-5.26025h-3.88641c1.40546,1.31921,2.28973,3.18756,2.28973,5.2627   v5.26758h1.59668C62.29395,29.74512,64.65332,27.38086,64.65332,24.4751z"></path><path d="M36.60352,29.49707c0.31934,0.04395,0.59766,0.23828,0.74902,0.52344l2.98145,5.62793l4.09668-8.02148   c0.16504-0.32324,0.49316-0.53174,0.85645-0.54443c0.35742-0.01416,0.70508,0.17285,0.8916,0.48486l3.98145,6.63708V23.46484   H30.53906v11.83752l5.20313-5.50159C35.96387,29.56641,36.28711,29.45508,36.60352,29.49707z"></path></g></svg>