<?xml version="1.0" encoding="UTF-8"?>
<svg width="1200pt" height="1200pt" version="1.1" viewBox="0 0 1200 1200" xmlns="http://www.w3.org/2000/svg">
 <path d="m123.95 368.85h743.62v-58.469h-743.62zm733.04 178.97h-49.031c-12.949 0-23.449-10.508-23.449-23.461s10.5-23.457 23.449-23.457h49.031c12.953 0 23.449 10.504 23.449 23.457s-10.496 23.461-23.449 23.461zm-416.77 0h-122.58c-12.949 0-23.445-10.508-23.445-23.461s10.496-23.457 23.445-23.457h122.58c12.953 0 23.449 10.504 23.449 23.457s-10.496 23.461-23.449 23.461zm-196.12 0h-122.58c-12.949 0-23.449-10.508-23.449-23.461s10.5-23.457 23.449-23.457h122.58c12.949 0 23.449 10.504 23.449 23.457s-10.5 23.461-23.449 23.461zm-122.58-415.77h122.58c12.949 0 23.449 10.504 23.449 23.457 0 12.957-10.5 23.457-23.449 23.457h-122.58c-12.949 0-23.449-10.5-23.449-23.457 0-12.953 10.5-23.457 23.449-23.457zm196.12 0h122.58c12.953 0 23.449 10.504 23.449 23.457 0 12.957-10.496 23.457-23.449 23.457h-122.58c-12.949 0-23.445-10.5-23.445-23.457 0-12.953 10.496-23.457 23.445-23.457zm490.32 0h49.031c12.953 0 23.449 10.504 23.449 23.457 0 12.957-10.496 23.457-23.449 23.457h-49.031c-12.949 0-23.449-10.5-23.449-23.457 0-12.953 10.5-23.457 23.449-23.457zm-540.41 761.15c0 12.953-10.5 23.457-23.449 23.457h-122.58c-12.949 0-23.449-10.504-23.449-23.457 0-12.957 10.5-23.457 23.449-23.457h122.58c12.949 0 23.449 10.5 23.449 23.457zm50.098-23.457h122.58c12.953 0 23.449 10.5 23.449 23.457 0 12.953-10.496 23.457-23.449 23.457h-122.58c-12.949 0-23.445-10.504-23.445-23.457 0-12.957 10.496-23.457 23.445-23.457zm650.44-559.37c12.949 0 23.449-10.508 23.449-23.461v-263.46c0-12.953-10.5-23.457-23.449-23.457h-944.62c-12.953 0-23.449 10.504-23.449 23.457v263.46c0 12.953 10.496 23.461 23.449 23.461h53.605v58.469h-53.605c-12.953 0-23.449 10.5-23.449 23.457v263.46c0 12.957 10.496 23.457 23.449 23.457h53.605v58.469h-53.605c-12.953 0-23.449 10.504-23.449 23.457v263.46c0 12.953 10.496 23.457 23.449 23.457h680.04c-7.4492-25.043-11.477-51.555-11.477-78.988 0-96.555 49.594-181.72 124.62-231.39h-692.68v-58.469h844.12c12.949 0 23.449-10.5 23.449-23.457v-263.46c0-12.957-10.5-23.457-23.449-23.457h-53.609v-58.469zm24.555 657.57c0 12.953-10.5 23.457-23.449 23.457-12.949 0-23.449-10.504-23.449-23.457v-101.44c0-12.953 10.5-23.457 23.449-23.457 12.949 0 23.449 10.504 23.449 23.457zm0 93.414c0 12.957-10.5 23.457-23.449 23.457-12.949 0-23.449-10.5-23.449-23.457v-28.301c0-12.953 10.5-23.457 23.449-23.457 12.949 0 23.449 10.504 23.449 23.457zm-23.449-323.21c-127.27 0-230.82 103.59-230.82 230.92 0 127.33 103.55 230.92 230.82 230.92 127.27 0 230.82-103.59 230.82-230.92 0-127.32-103.55-230.92-230.82-230.92z" fill-rule="evenodd"/>
</svg>
