<svg xmlns="http://www.w3.org/2000/svg" xmlns:xlink="http://www.w3.org/1999/xlink" version="1.1" x="0px" y="0px" viewBox="0 0 100 100" style="enable-background:new 0 0 100 100;" xml:space="preserve"><g><g><path d="M50,100c-2,0-4-0.5-5.8-1.5l-35-19.2C5.4,77.2,3,73.2,3,68.8V31.2c0-4.4,2.4-8.4,6.2-10.5l35-19.2c3.6-2,7.9-2,11.5,0    l29.5,16.2c1,0.5,1.3,1.7,0.8,2.7s-1.7,1.3-2.7,0.8L53.8,5c-2.4-1.3-5.3-1.3-7.7,0l-35,19.2c-2.6,1.4-4.1,4.1-4.1,7v37.6    c0,2.9,1.6,5.6,4.1,7l35,19.2c2.4,1.3,5.3,1.3,7.7,0l35-19.2c2.6-1.4,4.2-4.1,4.2-7V31.2c0-1.6-0.5-3.1-1.3-4.4    c-0.6-0.9-0.4-2.2,0.6-2.8s2.2-0.4,2.8,0.6c1.3,2,2,4.3,2,6.6v37.6c0,4.4-2.4,8.4-6.2,10.5l-35,19.2C54,99.5,52,100,50,100z"></path></g></g><g><g><path d="M74.8,38l1.2-4c0-0.1,0.1-0.2,0.3-0.3l3.8-2.3c0.1-0.1,0.3-0.1,0.5-0.1s0.3,0.2,0.4,0.3l1.9,3.7c0.1,0.1,0.1,0.3,0,0.4    l-1.2,3.9c-0.1,0.3-0.3,0.4-0.6,0.4c-0.1,0-0.1,0-0.2,0l-5.7-1.4c-0.2,0-0.3-0.1-0.4-0.3C74.7,38.3,74.7,38.1,74.8,38z"></path><path d="M59.7,47.7c-0.4,0-0.8-0.1-1.2-0.4c-0.9-0.6-1.1-1.9-0.5-2.8c0.8-1.1,0.9-1.8,0.8-2c0-0.1-0.4-0.7-2.6-1.3    c-1.1-0.3-1.7-1.4-1.4-2.4s1.4-1.7,2.4-1.4c1.9,0.5,4.5,1.4,5.4,3.8c0.6,1.7,0.2,3.6-1.4,5.7C60.9,47.4,60.3,47.7,59.7,47.7z"></path><path d="M67.4,26.6c-0.6,0-1.1-0.2-1.5-0.7c-1.7-2-2.5-5-2.2-7.6c0.2-1.3,1-2.3,2.2-2.9c1.2-0.5,2.5-0.4,3.6,0.3    c1.6,1,4.7,2.8,8.3,2.9c1.1,0,2,1,1.9,2.1c0,1.1-1,1.9-2.1,1.9c-4-0.2-7.6-1.9-9.9-3.4c-0.1,1.5,0.6,3.2,1.3,4    c0.7,0.8,0.6,2.1-0.2,2.8C68.3,26.5,67.9,26.6,67.4,26.6z"></path><path d="M94.7,66.2c-0.6,0-1.2-0.3-1.6-0.7l-9.3-11.4c-0.1-0.1-0.2-0.2-0.2-0.4c-1.2-2.5-4.7-7.8-7.5-8.2c-1.2-0.2-4,0.5-6.5,1.1    c-5.2,1.2-10.2,2.3-12.6,0c0,0-3.5-3.5-3.5-6.7c0-5.2,11-14.4,14.4-17.1c4.5-3.6,8-5.7,15.6-2.6c2.2-3.1,6.6-5.2,11.4-2.9    c0.9,0.4,1.6,1.2,1.9,2.1s0.3,2-0.1,2.9c-1,2.1-3.2,4.9-5.7,6.2c-3.6,1.9-5.2,2.3-8.1,1.1c-1-0.4-1.5-1.6-1.1-2.6s1.6-1.5,2.6-1.1    c1.3,0.5,1.6,0.6,4.7-1c1.6-0.9,3.2-2.9,3.8-4.2c-3.8-1.6-6.1,1.5-6.3,1.8c-1,1.5-2.9,2-4.5,1.4c-5.9-2.4-7.9-1.1-11.8,2    c-8.8,7-12.9,12.5-12.9,14c0,0.8,1.3,2.8,2.3,3.8c1,0.8,6.3-0.5,8.9-1c3.2-0.7,6-1.4,7.9-1.1c5.3,0.7,9.6,8.6,10.4,10.2L96.3,63    c0.7,0.9,0.6,2.1-0.3,2.8C95.6,66.1,95.2,66.2,94.7,66.2z"></path><path d="M73,30.2c-0.1,0.7-0.5,1.1-1.2,1.1s-1.1-0.5-1.1-1.1c0-0.7,0.4-1.2,1.2-1.2C72.5,29,72.9,29.5,73,30.2z"></path></g><g><path d="M83.3,19.1"></path></g><g><path d="M29.2,56.7c-1.1,0-2-0.9-2-2V41.3c0-1.1,0.9-2,2-2s2,0.9,2,2v13.4C31.2,55.8,30.3,56.7,29.2,56.7z"></path><path d="M33.8,43c-1.8,0-3.4-0.7-4.7-2c-1.7-1.7-2.4-4.1-1.7-6.5c1.1-4.2,3-7.6,5.5-10.1c6.6-6.6,17-6.6,17.4-6.6c1.1,0,2,0.9,2,2    c0,0.4,0,10.8-6.6,17.4c-2.6,2.6-6,4.4-10.1,5.5l0,0C35,42.9,34.4,43,33.8,43z M48.1,22c-3,0.3-8.6,1.5-12.4,5.3    c-2.1,2.1-3.6,4.9-4.5,8.3c-0.3,1,0,1.9,0.7,2.6c0.7,0.7,1.7,0.9,2.6,0.7l0,0c3.5-0.9,6.3-2.5,8.3-4.5C46.7,30.6,47.8,25,48.1,22z    "></path><path d="M25.8,49.3c-0.5,0-1-0.1-1.5-0.2c-3-0.9-5.5-2.5-7.4-4.6c-4.7-5.4-4.7-13.8-4.7-14.1c0-1.1,0.9-2,2-2    c0.3,0,7.9,0,12.7,5.5c1.8,2.1,3.2,4.9,4,8.3l0,0c0.5,2.2-0.1,4.4-1.7,5.8C28.3,48.8,27.1,49.3,25.8,49.3z M16.4,32.6    c0.3,2.5,1.1,6.5,3.5,9.3c1.4,1.6,3.2,2.7,5.6,3.4c0.4,0.1,0.7,0,1-0.3c0.4-0.3,0.7-1.1,0.5-2l0,0c-0.6-2.7-1.7-4.9-3.1-6.5    C21.7,33.9,18.5,32.9,16.4,32.6z"></path><path d="M44.8,58.2H15c-1.1,0-2-0.9-2-2s0.9-2,2-2h29.8c1.1,0,2,0.9,2,2S45.9,58.2,44.8,58.2z"></path></g><path d="M73.9,68.5h-48c-1.1,0-2-0.9-2-2s0.9-2,2-2h48c1.1,0,2,0.9,2,2S75,68.5,73.9,68.5z"></path><path d="M73.9,75.9h-48c-1.1,0-2-0.9-2-2s0.9-2,2-2h48c1.1,0,2,0.9,2,2S75,75.9,73.9,75.9z"></path><path d="M67.3,83.2H32.6c-1.1,0-2-0.9-2-2s0.9-2,2-2h34.7c1.1,0,2,0.9,2,2S68.4,83.2,67.3,83.2z"></path></g></svg>