<svg xmlns="http://www.w3.org/2000/svg" xmlns:xlink="http://www.w3.org/1999/xlink" version="1.1" x="0px" y="0px" viewBox="0 0 100 100" enable-background="new 0 0 100 100" xml:space="preserve"><path d="M32.9,17.3c-4.7,2.6-8.1,6.3-10.5,11.3h10.4L32.9,17.3z M33.9,13.9c0.2,0,0.3,0,0.5,0c10.9,0,20.3,5.8,25.6,14.5  c1.6,2.6,2.7,5.5,3.4,8.6h22.4c0.6,0,1,0.3,1,0.7V69c0,0.1,0,0.1,0,0.2l0,0l8.3,12.1c0,0.6-0.5,2-1.1,2H25.7c-0.6,0-1.1-1.4-1.1-2  l5.5-8.5c-14.3-2-25.4-14.4-25.4-29.3C4.8,38,6.3,32.6,9,28.3C14.2,19.7,23.3,14,33.9,13.9z M84,66.4V40.2c0-0.3-0.4-0.6-0.9-0.6  H63.8h-2.5H50.9h-2.5H36.7c-0.5,0-0.9,0.3-0.9,0.6v1.6v2.5l0,0v10.6l0,0v2.5v9.1c0,0.4,0.4,0.6,0.9,0.6h1.1h3.5h6.5h3.9h0.7H70h3.2  H83C83.5,67.2,84,66.9,84,66.4z M50.7,36.9h10.2c-0.5-2.1-1.3-4-2.2-5.8h-9.4C49.8,33,50.4,34.8,50.7,36.9z M48.3,28.6h8.9  c-4.1-6.3-10.7-10.6-18.4-11.9C43,19.6,46.2,23.8,48.3,28.6z M35.7,36.9h12.4c-0.3-2.1-0.8-4-1.6-5.8H35.7V36.9z M35.7,28.6h9.8  c-2.2-4.6-5.5-8.3-9.8-11V28.6z M32.9,31.1H21.5c-1,2.8-1.7,5.9-1.9,9.2c0,0.5-0.1,1-0.1,1.5h13.4V31.1z M32.7,69.1V69V57.4h-9.8  c2.3,4.6,5.6,8.7,9.8,11.8C32.7,69.1,32.7,69.1,32.7,69.1z M32.7,54.9V44.2H19.5c0.2,3.8,0.9,7.3,2.3,10.6H32.7z M30,70.3  c-4.3-3.4-7.6-7.9-9.9-12.9H11C15.1,64.2,22,69,30,70.3z M19.7,28.6c2.1-4.7,5.2-8.7,9.2-11.7c-7.1,1.5-13.3,5.7-17.1,11.7H19.7z   M9.8,54.9h9.4c-1.3-3.3-2-7-2.1-10.6H7.4C7.4,48,8.2,51.6,9.8,54.9z M18.7,31.1h-8.5C8.6,34.3,7.6,38,7.4,41.7H17  c0-0.5,0-1.1,0.1-1.7C17.2,36.9,17.8,33.9,18.7,31.1z"></path><rect x="38.9" y="42.4" width="41.3" height="5.8"></rect><polygon points="78.6,57.1 76.2,58.3 78,61.8 76.4,62.6 74.6,59.2 72.3,60.3 71.4,50.9 "></polygon><path d="M65.6,58l-0.1-0.1l0,0C65.6,57.9,65.6,58,65.6,58z M66.1,51V64H39V51H66.1z M54.7,58C54.7,57.9,54.8,57.9,54.7,58L54.7,58  C54.8,57.9,54.7,57.9,54.7,58z"></path></svg>