<svg xmlns="http://www.w3.org/2000/svg" xmlns:xlink="http://www.w3.org/1999/xlink" version="1.1" x="0px" y="0px" viewBox="0 0 64 64" enable-background="new 0 0 64 64" xml:space="preserve"><g><path fill="#000000" d="M15.483,22.227c-0.185,1.642,0.201,3.061,0.212,4.7c0.011,1.613-0.807,3.491,0.275,5.028   c2.078,2.952,5.358-0.987,5.524-3.184c0.132-1.767-2.926-8.094-5.28-7.491C15.747,21.4,15.537,21.752,15.483,22.227z"></path><path fill="#000000" d="M6.56,46.766c0.044,0.13,0.076,0.265,0.094,0.405C6.623,47.035,6.592,46.899,6.56,46.766z"></path><path fill="#000000" d="M30.09,21.049c0.201-0.105,0.421,0.105,0.323,0.31c-0.094,0.196-0.173,0.367-0.237,0.544   c-0.36,0.989,0.42,1.838,1.1,2.456c1.473,1.339,1.677,3.432,2.751,5.026c0.661,0.981,1.382,1.331,2.501,1.653   c1.239,0.357,2.523,0.557,3.811,0.593c0.757,0.021,1.517-0.014,2.269,0.074c1.969,0.231,3.79,1.295,5.711,1.674   c0.258,0.051,0.247,0.432-0.014,0.463c-0.005,0.001-0.009,0.001-0.014,0.002c-0.515,0.057-1.046,0.054-1.558-0.029   c-1.649-0.269-3.155-1.192-4.866-0.868c-1.075,0.204-2.182,0.276-3.269,0.129c-1.044-0.141-1.983-0.673-3.014-0.847   c-1.898-0.32-3.634-1.442-4.658-3.079c-0.689-1.101-0.914-2.423-1.132-3.684c-0.113-0.654-0.423-1.687-0.701-2.289   c-0.165-0.356-0.25-0.711-0.017-1.131C29.315,21.617,29.624,21.292,30.09,21.049z"></path><path fill="#000000" d="M56.227,11.537C50.044,3.893,39.802,1.648,34.24,0.989c-0.025-0.004-0.084-0.019-0.126-0.031   c-0.071-0.017-0.141-0.034-0.21-0.052l-0.157-0.034c-0.024-0.003-0.047-0.005-0.07-0.008h-4.491l-0.097,0.01   c-6.158,0.67-11.644,1.582-16.415,5.938c-4.072,3.721-6.794,8.968-7.663,14.774c-0.325,2.177,0.275,3.62,0.802,4.89   c0.237,0.567,0.458,1.1,0.609,1.713c0.26,1.056-0.437,2.242-1.175,3.497c-0.076,0.13-0.153,0.26-0.227,0.388   c-1.142,1.969-2.128,3.669-0.476,6.624c0.262,0.466,0.586,0.877,0.871,1.238c0.334,0.424,0.51,0.672,0.594,0.831   c0.054,0.102-0.032,0.181-0.018,0.279c0.02,0.146,0.125,0.298,0.153,0.451c0.065,0.347-0.01,0.701,0.04,1.04   c0.039,0.263,0.065,0.751,0.196,0.979c0.12,0.21,0.026,0.524,0.005,0.752c-0.057,0.625,0,1.136,0.839,1.136   c0.928,0,1.28-0.273,1.245-1.104c-0.008-0.206-0.021-0.413-0.034-0.623c-0.01-0.124-0.04-0.243-0.09-0.35   c0.336,0.006,0.674,0.011,1.01,0.015c-0.074,0.227-0.118,0.527-0.153,0.924c-0.057,0.625,0,1.136,0.839,1.136   c0.928,0,1.28-0.273,1.245-1.104c-0.008-0.206-0.021-0.413-0.034-0.623c-0.008-0.111-0.032-0.214-0.074-0.311   c0.329,0.004,0.657,0.008,0.986,0.008c-0.069,0.222-0.109,0.514-0.143,0.894c-0.057,0.625,0,1.136,0.839,1.136   c0.928,0,1.28-0.273,1.245-1.104c-0.008-0.206-0.021-0.413-0.034-0.623c-0.008-0.103-0.031-0.202-0.067-0.292   c0.325,0.002,0.651,0.004,0.976,0.002c-0.069,0.22-0.109,0.508-0.141,0.881c-0.057,0.625,0,1.136,0.839,1.136   c0.928,0,1.28-0.273,1.245-1.104c-0.008-0.206-0.021-0.413-0.034-0.623c-0.008-0.103-0.031-0.202-0.067-0.292   c0.325,0,0.649-0.002,0.976-0.004c-0.069,0.222-0.107,0.512-0.141,0.886c-0.057,0.625,0,1.136,0.839,1.136   c0.52,0,0.858-0.086,1.05-0.307l-0.18,1.574c-0.206-0.182-0.485-0.28-0.78-0.245c-0.692,0.083-0.835,0.464-0.929,1.517   c-0.007,0.076-0.012,0.15-0.014,0.222c-0.239-0.018-0.478-0.034-0.716-0.048c0.001-0.045,0-0.091-0.002-0.14   c-0.008-0.206-0.021-0.413-0.036-0.623c-0.04-0.571-0.552-0.997-1.121-0.929c-0.691,0.083-0.835,0.464-0.929,1.517   c-0.003,0.031-0.005,0.061-0.007,0.091c-0.241-0.006-0.483-0.01-0.725-0.013c0-0.015,0-0.029,0-0.044   c-0.008-0.206-0.021-0.413-0.036-0.623c-0.04-0.571-0.552-0.997-1.121-0.929c-0.691,0.083-0.835,0.464-0.929,1.517   c-0.002,0.027-0.004,0.053-0.006,0.079c-0.242,0.003-0.484,0.007-0.725,0.012c0-0.019,0-0.037-0.001-0.057   c-0.008-0.206-0.021-0.413-0.036-0.623c-0.04-0.571-0.552-0.997-1.121-0.929c-0.691,0.083-0.835,0.464-0.929,1.517   c-0.005,0.051-0.008,0.101-0.011,0.15c-0.24,0.008-0.48,0.017-0.72,0.026c0.001-0.045,0-0.092-0.002-0.142   c-0.008-0.203-0.02-0.405-0.035-0.611c-0.036-0.517-0.452-0.946-0.97-0.949c-0.483-0.002-0.798,0.258-0.942,0.674   c-0.124,0.358-0.133,0.741-0.153,1.115c-0.332,0.163-0.532,0.366-0.648,0.719c-0.141,0.427-0.207,0.875-0.225,1.323   c-0.023,0.04-0.039,0.085-0.044,0.134l0.041-0.002c-0.017,0.861,0.128,1.736,0.209,2.603c0.166,1.784,0.338,3.627,0.653,5.459   c0.516,2.98,2.565,4.689,5.623,4.689c0.39,0,0.8-0.027,1.222-0.082c3.642-0.478,6.899-1.958,10.049-3.39   c2.204-1.001,4.284-1.948,6.467-2.563c4.867-1.373,4.305-6.055,4.066-8.055c-0.046-0.382-0.126-0.81-0.212-1.263   c-0.136-0.726-0.497-2.657-0.218-3.119c0.023-0.031,0.04-0.048,0.05-0.057c0.008-0.002,0.021-0.002,0.038-0.002   c0.416,0,1.18,0.363,1.794,0.653c0.321,0.151,0.651,0.309,0.978,0.441c1.259,0.508,2.59,0.766,3.96,0.766   c0.714,0,1.444-0.071,2.168-0.212c2.934-0.571,5.994-2.03,8.849-4.217c5.679-4.353,9.096-10.916,9.14-17.559   C60.366,19.446,58.909,14.851,56.227,11.537z M19.705,43.679c-0.008-0.111-0.032-0.214-0.074-0.311   c0.037,0,0.074-0.001,0.112-0.001l-0.037,0.321C19.705,43.685,19.705,43.682,19.705,43.679z M49.02,39.2   c-2.42,1.855-4.964,3.083-7.359,3.549c-1.431,0.279-2.831,0.157-4.107-0.361c-0.231-0.092-0.5-0.22-0.787-0.357   c-0.987-0.466-2.105-0.997-3.323-0.997c-1.194,0-2.21,0.514-2.94,1.482c-1.24,1.648-0.775,4.118-0.437,5.923   c0.073,0.393,0.143,0.766,0.174,1.03c0.376,3.144-0.13,3.812-1.49,4.196c-2.445,0.69-4.748,1.736-6.976,2.749   c-3.047,1.385-5.923,2.693-9.036,3.1c-0.267,0.034-0.523,0.053-0.758,0.053c-1.318,0-1.887-0.47-2.105-1.729   c-0.294-1.694-0.451-3.388-0.619-5.182c-0.074-0.801-0.153-1.617-0.242-2.438c4.905-0.19,12.783,0.977,15.592-4.314   c0.918-1.73,0.842-3.364,0.768-4.945c-0.042-0.895-0.085-1.821,0.054-2.761c0.062-0.418,0.23-0.453,0.411-0.453   c0.531,0,1.389,0.51,1.902,0.815c0.173,0.103,0.323,0.192,0.444,0.254c0.504,0.259,0.972,0.386,1.43,0.386   c0.644,0,1.192-0.247,1.771-0.508c0.251-0.113,0.51-0.23,0.795-0.336c0.429-0.16,1.128-0.166,1.803-0.172   c1.308-0.011,2.66-0.022,3.146-1.019c0.139-0.286,0.25-0.587,0.319-0.898c0.056-0.253,0.075-0.511,0.073-0.77   c-0.002-0.205,0-0.468-0.174-0.612c-0.118-0.097-0.541-0.097-0.603-0.092c-0.076,0.006-0.152,0.013-0.229,0.013   c-1.325,0-4.669-0.331-5.025-0.374c-0.385-0.047-0.777-0.116-1.192-0.189c-0.753-0.133-1.533-0.27-2.304-0.27   c-0.981,0.003-2.074,0.488-3.037,0.916c-0.373,0.166-0.726,0.323-1.047,0.441c-1.08,0.399-2.508,0.914-3.975,1.357   c-0.251,0.076-0.476,0.138-0.679,0.195c-1.523,0.423-2.005,0.654-1.996,2.692v0c0.001,0.281,0.295,0.464,0.548,0.342v0   c1.275-0.614,2.609-1.131,3.966-1.536c0.259-0.077,0.533-0.149,0.783-0.149c0.154,0,0.282,0.028,0.391,0.084   c0.441,0.228,0.512,0.939,0.355,1.523c-0.257,0.957-0.917,1.78-1.764,2.283c-0.41,0.243-0.918,0.211-1.31-0.06   c-0.002-0.001-0.003-0.002-0.005-0.004c-0.627-0.432-1.41-0.554-2.164-0.644c-2.787-0.332-5.606-0.405-8.408-0.214   c0.103-1.522-0.827-2.701-1.436-3.472c-0.223-0.283-0.435-0.552-0.558-0.772c-0.659-1.179-0.598-1.287,0.449-3.09   c0.071-0.122,0.143-0.244,0.216-0.369c0.966-1.646,2.17-3.694,1.562-6.158c-0.216-0.879-0.514-1.597-0.777-2.231   c-0.451-1.081-0.747-1.797-0.569-2.991c0.749-5.001,3.071-9.499,6.54-12.667c3.955-3.613,8.611-4.391,14.276-5.014   c0.014-0.001,0.028-0.002,0.042-0.002h3.856c0.026,0.003,0.066,0.009,0.091,0.012c0.128,0.034,0.287,0.067,0.467,0.087   c5.02,0.594,14.247,2.582,19.639,9.248c2.164,2.674,3.341,6.464,3.312,10.67C56.725,30.001,53.832,35.514,49.02,39.2z"></path></g></svg>