<svg xmlns="http://www.w3.org/2000/svg" viewBox="0 0 64 64" x="0px" y="0px"><title>research, magnifier, analyzing, analysis, science, search, find</title><g><path d="M6.47,14.53V5.77a1,1,0,0,1,1-1h8.76a1,1,0,0,1,0,2H8.47v7.76a1,1,0,0,1-2,0ZM16.23,53H8.47V45.24a1,1,0,0,0-2,0V54a1,1,0,0,0,1,1h8.76a1,1,0,0,0,0-2ZM44.61,6.77h7.76v7.76a1,1,0,0,0,2,0V5.77a1,1,0,0,0-1-1H44.61a1,1,0,0,0,0,2ZM30.55,45.49a15.24,15.24,0,1,1,12.89-7.11l0,0,0,0A15.19,15.19,0,0,1,30.55,45.49Zm8.2-25.64A13.15,13.15,0,0,0,30.54,17a1,1,0,0,0,0,2,11.14,11.14,0,0,1,7,2.42,1,1,0,0,0,.62.22,1,1,0,0,0,.62-1.79Zm2.63,4.61a1,1,0,0,0,.3-1.38q-.23-.36-.48-.69a1,1,0,0,0-1.61,1.18c.15.2.28.39.41.6a1,1,0,0,0,.84.45A1,1,0,0,0,41.38,24.46Zm4.94,18-2-2a17.07,17.07,0,0,1-3.52,3.53L42.8,46A18.92,18.92,0,0,0,46.32,42.5ZM56.8,53l-9-9a21.37,21.37,0,0,1-3.52,3.53l9,9A2.5,2.5,0,0,0,56.8,53Z"></path></g></svg>