<svg xmlns:dc="http://purl.org/dc/elements/1.1/" xmlns:cc="http://creativecommons.org/ns#" xmlns:rdf="http://www.w3.org/1999/02/22-rdf-syntax-ns#" xmlns:svg="http://www.w3.org/2000/svg" xmlns="http://www.w3.org/2000/svg" xmlns:sodipodi="http://sodipodi.sourceforge.net/DTD/sodipodi-0.dtd" xmlns:inkscape="http://www.inkscape.org/namespaces/inkscape" viewBox="0 0 8.4666667 8.4666667" version="1.1" x="0px" y="0px"><g><path style="color:#000000;font-style:normal;font-variant:normal;font-weight:normal;font-stretch:normal;font-size:medium;line-height:normal;font-family:sans-serif;font-variant-ligatures:normal;font-variant-position:normal;font-variant-caps:normal;font-variant-numeric:normal;font-variant-alternates:normal;font-feature-settings:normal;text-indent:0;text-align:start;text-decoration:none;text-decoration-line:none;text-decoration-style:solid;text-decoration-color:#000000;letter-spacing:normal;word-spacing:normal;text-transform:none;writing-mode:lr-tb;direction:ltr;text-orientation:mixed;dominant-baseline:auto;baseline-shift:baseline;text-anchor:start;white-space:normal;shape-padding:0;clip-rule:nonzero;display:inline;overflow:visible;visibility:visible;opacity:1;isolation:auto;mix-blend-mode:normal;color-interpolation:sRGB;color-interpolation-filters:linearRGB;solid-color:#000000;solid-opacity:1;vector-effect:none;fill:#000000;fill-opacity:1;fill-rule:nonzero;stroke:none;stroke-width:0.52916664;stroke-linecap:butt;stroke-linejoin:round;stroke-miterlimit:4;stroke-dasharray:none;stroke-dashoffset:0;stroke-opacity:1;paint-order:fill markers stroke;color-rendering:auto;image-rendering:auto;shape-rendering:auto;text-rendering:auto;enable-background:accumulate" d="m 4.2323016,0.39609843 c -1.3119938,0 -2.3807341,1.07080627 -2.3807331,2.38280037 -2.7e-6,6.9e-4 -2.7e-6,0.00138 0,0.00207 0,1.7169479 1.3234315,3.3614431 2.1755745,4.3971504 0.1059201,0.1316866 0.3064576,0.1316866 0.4123777,0 0.852146,-1.0357082 2.175576,-2.6802025 2.175576,-4.3966336 4.2e-6,-8.6e-4 4.2e-6,-0.00172 0,-0.00258 -8e-7,-1.3119968 -1.0708055,-2.38280034 -2.3828005,-2.38280037 z m 0,0.79530027 c 0.873618,0 1.5880168,0.7138821 1.5880168,1.5875001 0,0.873618 -0.7143988,1.5859496 -1.5880168,1.5859496 -0.8736189,0 -1.5859495,-0.7123316 -1.5859495,-1.5859496 0,-0.873618 0.7123306,-1.5875001 1.5859495,-1.5875001 z m 0,0.5291667 c -0.5876361,0 -1.0562661,0.4706984 -1.0562661,1.0583334 1.1e-6,0.587635 0.46863,1.0588501 1.0562661,1.0588501 0.5876351,0 1.0588501,-0.4712151 1.0588501,-1.0588501 0,-0.587635 -0.471215,-1.0583334 -1.0588501,-1.0583334 z m 0.3963583,0.3958415 c 0.07449,-3.038e-4 0.1345473,0.060922 0.1328084,0.1353923 v 0.324528 L 4.986261,2.7944017 C 5.1120541,2.9180873 4.92717,3.1070913 4.8007425,2.9840542 l -0.039274,-0.038241 v 0.2299602 c 2.816e-4,0.07266 -0.058086,0.1319502 -0.1307412,0.1328084 H 3.8359434 C 3.7632882,3.307724 3.7049206,3.2484335 3.7052022,3.1757738 V 2.9458136 L 3.665928,2.9840542 C 3.5394931,3.1077331 3.3539746,2.9180806 3.4804095,2.7944017 l 0.6604249,-0.640271 c 0.023637,-0.022896 0.054958,-0.036162 0.08785,-0.037207 0.036283,-0.00153 0.071599,0.011926 0.097669,0.037207 l 0.1715659,0.1663981 v -0.06873 C 4.4961472,2.18323 4.547072,2.1246774 4.6152241,2.1169237 c 0.00447,-3.999e-4 0.00895,-5.724e-4 0.013436,-5.168e-4 z M 4.2323016,2.4331834 3.9661681,2.6920824 c 0.00292,0.013225 0.00379,0.026819 0.00258,0.040308 V 3.0424486 H 4.4979187 V 2.6905321 Z m -1.387512,4.1191283 c -0.00362,9.82e-5 -0.00724,2.704e-4 -0.010852,5.167e-4 -0.0064,4.581e-4 -0.012774,0.00115 -0.01912,0.00207 -0.5592429,0.0615 -0.9744183,0.1487377 -1.2578043,0.2790526 -0.141693,0.06516 -0.277012,0.1316966 -0.344165,0.3147097 -0.03358,0.09151 -0.02464,0.2120646 0.01757,0.2966225 0.04221,0.08456 0.1029191,0.1383255 0.1663981,0.1834515 0.253918,0.180502 0.617816,0.2586525 1.1074259,0.3302125 0.4896101,0.07156 1.0880791,0.1116211 1.7280598,0.1116211 0.63998,0 1.2410348,-0.040063 1.7306438,-0.1116211 0.4896099,-0.07156 0.853508,-0.1497105 1.107426,-0.3302125 0.06348,-0.04513 0.1236692,-0.098897 0.1658813,-0.1834515 0.04221,-0.08456 0.051141,-0.2051155 0.01757,-0.2966225 C 7.1866724,6.9655956 7.0518675,6.8991064 6.9101744,6.8339482 6.6267885,6.7036333 6.2095458,6.6163964 5.6503029,6.5548956 5.2886216,6.5043877 5.2297889,7.0549352 5.5939759,7.0819951 c 0.432412,0.04755 0.6895679,0.1214377 0.8945189,0.1896525 -0.157172,0.05615 -0.288349,0.1180426 -0.6015135,0.1638144 -0.4564145,0.06671 -1.0367486,0.1054201 -1.6541628,0.1054201 -0.617415,0 -1.1961992,-0.038712 -1.6526122,-0.1054201 C 2.2670411,7.389692 2.1358645,7.3277927 1.9786925,7.2716476 2.1836435,7.2034277 2.4407995,7.1295481 2.8732114,7.0819951 3.2142196,7.0523456 3.1870125,6.5453004 2.8447896,6.5523117 Z"></path></g></svg>