<svg xmlns="http://www.w3.org/2000/svg" viewBox="0 0 128 128" x="0px" y="0px"><g><path d="M56.049,33.144c.827,2.014,4.326,1.476,6.012,1.4,1.564-.072,3.1-.1,4.679-.048,3.789.137,3.684-3.227,3.973-6.092a100.723,100.723,0,0,1-14.857-.345C55.712,29.749,55.447,31.683,56.049,33.144Z"></path><path d="M54.58,25.518c2.737.169,5.49.265,8.235.354,5.354.176,10.684.232,15.933-1a.029.029,0,0,1,.024-.008c.041-.35.068-.718.09-1.084a.489.489,0,0,0,.111-.273,27.638,27.638,0,0,0,.037-3.179.476.476,0,0,0-.289-.7c-.078-.027-.156-.04-.234-.06a.747.747,0,0,0-.3-.333,11.891,11.891,0,0,0-4-1.488.759.759,0,0,0-.595.158.744.744,0,0,0-.276.55l-.086,1.71a.75.75,0,0,0,.74.87c.024,0,.05,0,.075,0,.956-.1,1.92-.2,2.883-.3a.414.414,0,0,0,.268.054l.826-.1c.017.531.02,1.062.006,1.592-10.073,1.058-19.974,1.949-29.868-.621a2.074,2.074,0,0,1,1.11-1.467.738.738,0,0,0,.226.1c.749.181,1.54.347,2.418.506a.767.767,0,0,0,.134.012.75.75,0,0,0,.708-1c-.1-.279-.181-.56-.257-.839a.75.75,0,0,0-.36-.461.74.74,0,0,0-.582-.061.64.64,0,0,1-.115.019,8.145,8.145,0,0,0-2.024.387.744.744,0,0,0-.385.323,3.66,3.66,0,0,0-1.852,2.225l-.021,0C46.312,25.558,51.61,25.342,54.58,25.518Z"></path><path d="M54.684,20.2a1.454,1.454,0,0,1,.1.273,79.173,79.173,0,0,0,16.824.016,1.168,1.168,0,0,1-.04-.345c.107-2.542.289-5.073.6-7.591.033-.11.059-.229.086-.365a22.3,22.3,0,0,0,.364-2.411,2.116,2.116,0,0,0-.268-1.4,2.188,2.188,0,0,0-.911-.721.736.736,0,0,0-.074-.062c-.053-.032-.115-.06-.17-.091a2.23,2.23,0,0,1-.229-.158.494.494,0,0,0-.275-.113C66.785,5.3,60.08,5.169,56,6.935a3.967,3.967,0,0,0-1.677.922,2.86,2.86,0,0,0-.464,2.483C53.672,13.632,53.219,17.268,54.684,20.2ZM71.051,8.983a.716.716,0,0,0,.322-.12,1.142,1.142,0,0,1,.236.974c-.028.231-.052.485-.077.746-5.469.547-11.311.912-16.688-.282-.074-.611-.161-1.36.185-1.737h0a.74.74,0,0,0,.331.174,36.229,36.229,0,0,0,7.591.719C65.662,9.456,68.4,9.244,71.051,8.983Z"></path><path d="M104.224,92.886a.11.11,0,0,1-.032-.033v.017c.041.016-.169.016-.425.128-.129.064-.233.12-.386.2l-.233.144-.112.072a.081.081,0,0,0-.04.025l-.032.024c-.257.216-.53.433-.8.658-.257.265-.515.537-.787.811-1.036,1.171-2.039,2.624-3.235,4.181a34.676,34.676,0,0,1-4.431,4.544c-.794.786-1.661,1.468-2.544,2.2-.441.369-.883.73-1.332,1.107l-.723.586c-.249.177-.506.345-.762.522-.506.353-1.02.706-1.541,1.067-.554.314-1.109.627-1.67.948a14.718,14.718,0,0,1-1.75.874c-.61.258-1.2.586-1.838.787a32.037,32.037,0,0,1-8.035,1.911c-.706.064-1.436.152-2.135.192-.69.024-1.38.04-2.079.064-1.476.016-2.833,0-4.278-.016a86.972,86.972,0,0,1-16.165-1.549c-.634-.128-1.261-.264-1.887-.393-.617-.169-1.236-.345-1.846-.514s-1.219-.337-1.814-.5c-.57-.209-1.124-.41-1.677-.611s-1.108-.393-1.645-.593l-.1-.033-.08-.04-.025-.008-.055-.024-.2-.1-.4-.185c-.265-.128-.53-.256-.8-.377-.522-.265-1.06-.466-1.549-.771-.49-.289-.98-.577-1.461-.867-.241-.136-.474-.28-.714-.417-.233-.152-.45-.337-.683-.5-.441-.33-.883-.667-1.316-.988-.208-.168-.441-.321-.626-.5s-.362-.346-.538-.514c-.361-.345-.706-.682-1.051-1.011l-.257-.249L30,103.04l-.1-.105-.08-.1c-.2-.233-.338-.434-.482-.634-.273-.41-.521-.8-.763-1.172-.481-.755-.931-1.469-1.388-2.119a9.385,9.385,0,0,0-1.34-1.646c-.049-.04-.081-.056-.113-.08l-.008.04c.008,0,.008.008.016.008l.065.056c0,.008-.065.056-.105.1l-.008.072h-.008c-.056,0-.024-.032.016-.072l.008-.081.016-.08c-.04,0-.08-.024-.1-.008a.63.63,0,0,0-.353.337,4.964,4.964,0,0,0-.289,1.606c-.033.553-.04,1.091-.105,1.645a30.205,30.205,0,0,0,5.787,8.645,44.3,44.3,0,0,0,9.055,7.055,1.97,1.97,0,0,1-.057-.45,1.564,1.564,0,0,1,.731-1.211,4.537,4.537,0,0,1,1.942-.618,11.9,11.9,0,0,1,1.75-.089c.562,0,1.107.008,1.637.008.53.016,1.036.072,1.541.1,3.99.33,7.008.948,9.327,1.277,1.164.185,2.143.313,2.962.409.811.12,1.469.185,1.983.233,1.027.1,1.477.2,1.477.289s-.45.144-1.493.184a17.622,17.622,0,0,1-2.031-.032c-.835-.032-1.83-.1-3-.24-2.352-.217-5.4-.747-9.3-1.012-.482-.024-.987-.072-1.5-.08-.505.008-1.035.008-1.573.016a10.907,10.907,0,0,0-1.622.088,3.521,3.521,0,0,0-1.42.434c-.169.12-.209.2-.217.289a1.172,1.172,0,0,0,.209.521,5.308,5.308,0,0,0,1.268,1.18c.177.129.361.241.546.353a24.6,24.6,0,0,0,3.026,1.172c5.322,1.638,10.651,1.855,16.166,1.951A59.639,59.639,0,0,0,80.7,119.093a22.736,22.736,0,0,0,7.024-3.6,2.92,2.92,0,0,0,.32-.538,1.488,1.488,0,0,0,.153-.369c0-.009,0-.009.008-.009,0-.016,0-.024-.008-.016h-.016l-.457.105c-.3.072-.6.136-.9.2-1.2.264-2.32.521-3.387.762q-3.228.553-5.764.987c-1.7.249-3.179.466-4.463.659-5.128.754-7.087.963-7.119.794s1.878-.666,6.975-1.637q1.914-.35,4.438-.8c1.686-.321,3.58-.682,5.716-1.092,1.051-.248,2.159-.513,3.331-.786.3-.072.594-.145.89-.209l.458-.112c.289-.057.586-.12.875-.177s.61-.136.891-.176c-.048.305-.089.61-.136.914,0,.009-.008.025-.008.033a49.9,49.9,0,0,0,5.329-5.659c3.443-4.166,7.272-8.91,9.5-14.055,0-.12.015-.233.015-.361a3.906,3.906,0,0,0-.048-.778A1.285,1.285,0,0,0,104.224,92.886Z"></path><path d="M106.183,73.341c-1.124-5.892-3.877-11.077-7.248-15.981-3.4-4.945-6.59-9.359-11.679-12.706-3.684-2.416-8.7-3.725-11.847-6.767a4.016,4.016,0,0,1-.916-2.849c.041-2.328-.023-4.639-.168-6.959-.176.024-.345.04-.514.056a12.361,12.361,0,0,0-.827,2.785c-.023.474-.072.939-.136,1.405a9.871,9.871,0,0,0,.458,3.66,6.355,6.355,0,0,0,2.031,3.034,31.313,31.313,0,0,0,3.226,1.951c2.208,1.188,4.415,2.215,6.429,3.451a24.03,24.03,0,0,1,5.178,4.35c.321.434.634.867.946,1.285A12.9,12.9,0,0,1,92,51.332c.521.859,1.043,1.7,1.509,2.512.465.827.939,1.614,1.42,2.352.458.747.948,1.469,1.429,2.159a88.988,88.988,0,0,1,4.92,7.65,26.539,26.539,0,0,1,3.733,11.349,18.38,18.38,0,0,1-.121,3.251c-.128.77-.393,1.292-.409,1.589,0-.305.057-.835.112-1.621a21.646,21.646,0,0,0-.1-3.171,27.562,27.562,0,0,0-3.981-10.956c-1.309-2.279-3.018-4.736-4.985-7.5-.5-.69-1-1.4-1.484-2.175q-.759-1.144-1.469-2.376c-.474-.827-.987-1.629-1.509-2.464a12.983,12.983,0,0,0-.851-1.22c-.3-.393-.6-.8-.907-1.2a22.9,22.9,0,0,0-4.929-4.1c-1.934-1.179-4.125-2.183-6.381-3.4a30.887,30.887,0,0,1-3.4-2.055,7.482,7.482,0,0,1-2.424-3.588,9.07,9.07,0,0,1-.321-1.2,3.685,3.685,0,0,1-1.822,1.365c-2.6.915-6.109.4-8.854.441-2.006.041-5.177.273-6.582-1.573-.032.321-.064.642-.12.955a9.309,9.309,0,0,1-.69,2.4L53.5,39.3c-.112.161-.232.313-.345.473a7.932,7.932,0,0,1-.754.867,15.525,15.525,0,0,1-3.516,2.5c-2.408,1.324-4.792,2.3-6.782,3.588a12.854,12.854,0,0,0-1.39,1.043c-.449.385-.9.771-1.34,1.156-.875.762-1.742,1.477-2.544,2.215A26.572,26.572,0,0,0,34.6,53.354c-.329.386-.7.731-.988,1.132s-.562.8-.843,1.2a42.428,42.428,0,0,0-2.737,4.728c-1.541,3.082-2.656,5.892-3.7,8.3a40.285,40.285,0,0,0-2.922,10.619,14.7,14.7,0,0,1-.4,3.275,15.448,15.448,0,0,1-.064-3.315,35.88,35.88,0,0,1,2.6-10.917c1-2.416,2.063-5.249,3.587-8.4A41.281,41.281,0,0,1,31.9,55.1c.28-.418.57-.835.858-1.261.3-.417.683-.786,1.028-1.2a26.074,26.074,0,0,1,2.3-2.328c.81-.762,1.685-1.484,2.552-2.255l1.332-1.164a14.586,14.586,0,0,1,1.5-1.148c2.119-1.388,4.527-2.383,6.847-3.676,2.28-1.276,4.7-2.962,4.985-5.835a20.271,20.271,0,0,0,.16-3.789,13.653,13.653,0,0,1-.105-2.071c-.047-.834-.112-1.7-.144-2.552h-.032c-.538-.056-1.075-.112-1.6-.185-.241,3.372.345,7.714-1.654,10.515-2.416,3.379-6.782,4.278-10.282,6.2-5.586,3.074-9.456,8.877-12.4,14.432A47.11,47.11,0,0,0,21.5,76.7a50.673,50.673,0,0,0,2.264,21.367,4.721,4.721,0,0,1,.216-1.06,2.086,2.086,0,0,1,1-1.163,1.493,1.493,0,0,1,.385-.153l.2.056.169.1h.032c.032,0,.016-.121.1-.113.121.016.29,0,.362.024s.153.032.216.065c.129.072.241.128.346.2a10,10,0,0,1,1.789,1.862c.522.667,1.028,1.373,1.55,2.095.256.362.513.731.778,1.076.137.169.273.345.385.465l.458.41c.361.313.723.634,1.1.963.185.16.369.329.554.49s.393.272.585.417c.394.265.787.538,1.2.819.2.136.394.289.61.409s.45.249.682.369c.45.249.908.5,1.374.755s.971.441,1.468.674c.249.112.5.217.755.329l.377.168.192.081.04.024.017.008.08.024q.818.278,1.662.554c.553.185,1.123.377,1.685.57.562.136,1.132.289,1.7.433s1.147.3,1.726.442c.6.112,1.2.232,1.814.345a92.27,92.27,0,0,0,15.7,1.38c1.4.009,2.85.032,4.158.025.7-.016,1.389-.041,2.079-.057.674-.032,1.3-.112,1.95-.168a30.237,30.237,0,0,0,7.393-1.662c.594-.177,1.132-.465,1.694-.69a13.2,13.2,0,0,0,1.621-.779c.522-.281,1.044-.562,1.557-.834.49-.321.972-.642,1.453-.956l.722-.465.65-.514c.466-.353.924-.714,1.373-1.059.9-.707,1.8-1.373,2.576-2.087a36.742,36.742,0,0,0,4.319-4.078c1.212-1.436,2.32-2.889,3.548-4.1.321-.3.642-.578.955-.859.337-.257.69-.5,1.027-.731l.065-.04a.688.688,0,0,0,.1-.056l.129-.064.248-.121a6.043,6.043,0,0,1,.6-.249,2.026,2.026,0,0,1,1.581.017c.161.064.426.208.426.321a3.713,3.713,0,0,1,.257-.94A39.4,39.4,0,0,0,106.183,73.341ZM53.271,40.777a17.085,17.085,0,0,1,1.975-2.914c-.193.442,2.994,1.052,3.171,1.068,1.331.1,2.809.168,4.35.192,1.677.016,3.266-.008,4.68-.12a16.5,16.5,0,0,0,1.958-.249,4.548,4.548,0,0,0,.787-.217,1.214,1.214,0,0,0,.417-.24l.353-.618.425.5a18.643,18.643,0,0,0,1.429,1.606c.361.369.546.618.5.69s-.33-.032-.8-.3A6.659,6.659,0,0,1,71.1,39.132a3.446,3.446,0,0,1-.474.321,5.839,5.839,0,0,1-.955.369,15.786,15.786,0,0,1-2.087.417,34.344,34.344,0,0,1-4.84.233,38.076,38.076,0,0,1-4.455-.3,19.594,19.594,0,0,1-1.959-.337,6.938,6.938,0,0,1-.9-.249c-.152-.064-.288-.1-.433-.169a10.213,10.213,0,0,1-1.316,1.71c-.466.426-.771.6-.835.546C52.766,41.612,52.942,41.3,53.271,40.777Zm26.5,65.907a2.712,2.712,0,0,1-.666,1.4l-.1.129-.033.04-.015.016-.057.056-.064.048-.225.193-.233.192-.288.185a5.737,5.737,0,0,1-1.164.562,10.447,10.447,0,0,1-2.224.489,31.227,31.227,0,0,1-6.622-.136,9.78,9.78,0,0,1-2.384-.353,6.913,6.913,0,0,1,2.416-.169,41.821,41.821,0,0,0,6.454-.289,10.111,10.111,0,0,0,1.991-.522,5.253,5.253,0,0,0,.9-.457l.208-.129.217-.2.225-.2.024-.024.008-.008.016-.024.08-.1a1.526,1.526,0,0,0,.385-.811.859.859,0,0,0-.281-.706,5.257,5.257,0,0,0-2.063-1.124,25.863,25.863,0,0,0-5.465-1.084c-.49-.056-.979-.1-1.469-.128s-.979-.032-1.5-.04c-1.027-.016-2.071-.04-3.122-.056a82.234,82.234,0,0,0-11.767.473,31.5,31.5,0,0,0-5,1.036,11.206,11.206,0,0,0-2.111.73,2.254,2.254,0,0,0-.7.5c-.04.08-.072.1-.056.136a.411.411,0,0,0,.112.209,4.538,4.538,0,0,0,1.517.875c.554.225,1.1.4,1.622.562,1.036.3,1.959.5,2.7.666a16.412,16.412,0,0,1,2.352.489,5.486,5.486,0,0,1-2.433.024,22.931,22.931,0,0,1-2.817-.449c-.538-.128-1.123-.273-1.734-.481a5.084,5.084,0,0,1-1.9-1.028,1.366,1.366,0,0,1-.385-.7,1.165,1.165,0,0,1,.193-.875,2.976,2.976,0,0,1,1.035-.851,12.22,12.22,0,0,1,2.288-.891c.393-.112.787-.233,1.188-.353a9.671,9.671,0,0,1,1.252-.329c.874-.161,1.774-.409,2.7-.506a74.221,74.221,0,0,1,11.968-.594c1.051.024,2.094.04,3.122.064.505.008,1.035.016,1.557.057s1.027.08,1.533.136a26.533,26.533,0,0,1,5.739,1.228,6.246,6.246,0,0,1,2.537,1.509A2.071,2.071,0,0,1,79.767,106.684Zm24.578-24.209c0-.024.128-.112.136-.249C104.473,82.467,104.353,82.483,104.345,82.475Z"></path></g></svg>