<?xml version="1.0" encoding="UTF-8" standalone="no"?>
<svg
   xmlns:dc="http://purl.org/dc/elements/1.1/"
   xmlns:cc="http://creativecommons.org/ns#"
   xmlns:rdf="http://www.w3.org/1999/02/22-rdf-syntax-ns#"
   xmlns:svg="http://www.w3.org/2000/svg"
   xmlns="http://www.w3.org/2000/svg"
   id="svg8"
   version="1.1"
   viewBox="0 0 210 297"
   height="297mm"
   width="210mm">
  <title
     id="title3780">Object icon</title>
  <defs
     id="defs2" />
  <metadata
     id="metadata5">
    <rdf:RDF>
      <cc:Work
         rdf:about="">
        <dc:format>image/svg+xml</dc:format>
        <dc:type
           rdf:resource="http://purl.org/dc/dcmitype/StillImage" />
        <dc:title>Object icon</dc:title>
      </cc:Work>
    </rdf:RDF>
  </metadata>
  <g
     id="layer1">
    <g
       transform="matrix(2.0405907,0,0,1.7963548,6.11867,29.854689)"
       id="g3778">
      <g
         id="layer3"
         style="display:inline">
        <path
           style="fill:#000000;stroke-width:0.188988"
           d="m 47.328317,101.36548 -3.874257,-0.10741 -2.078868,-0.7205 C 29.16415,96.305406 19.202082,86.330956 15.278926,74.408866 13.77107,69.826636 12.95382,64.305286 13.225457,60.535646 c 0.14613,-2.0279 0.799269,-4.85457 1.388661,-6.00987 0.613066,-1.20171 0.154823,-1.1052 -0.939163,0.19779 -6.1671303,7.34538 -7.5576797,17.79262 -3.592433,26.99009 0.851969,1.97616 2.080564,4.07967 3.488158,5.97216 1.029391,1.38401 4.458296,4.9213 6.165377,6.36026 l 1.039434,0.87618 -0.769385,0.005 c -0.560168,0.003 -1.33206,-0.2766 -2.838627,-1.02956 C 8.3810741,89.506026 2.1470834,81.653316 0.32529221,72.681886 0.06891626,71.419356 -0.00841616,70.168956 7.0932154e-4,67.433706 0.01388557,63.488596 0.28705992,61.703826 1.4084567,58.236716 c 0.6836119,-2.11358 2.6475795,-6.15445 3.9062792,-8.03719 4.9823391,-7.4525 13.1173351,-13.50249 22.3174821,-16.5975 l 1.565061,-0.5265 1.647737,1.61 c 3.381518,3.30408 7.281013,5.2387 12.325562,6.11498 2.424155,0.42109 7.675972,0.27771 10.016371,-0.27347 4.969999,-1.17046 8.671459,-3.17918 11.957182,-6.48896 l 1.279355,-1.28872 5.882513,1.88689 5.882513,1.8869 1.260311,1.37566 c 2.404803,2.62492 2.683801,2.96882 2.564778,3.1614 -0.242114,0.39175 -4.406151,3.03883 -6.118661,3.88964 -6.934327,3.4451 -16.453972,5.08475 -26.771237,4.61103 -6.619915,-0.30396 -10.807189,-0.92392 -16.725445,-2.47634 -1.611125,-0.42262 -3.141927,-0.80883 -3.401785,-0.85825 -0.471546,-0.0897 -0.471395,-0.089 0.07651,0.36842 1.653871,1.3806 5.686476,3.24539 9.561881,4.4217 9.394494,2.85152 17.163459,4.02448 25.04092,3.78069 8.158805,-0.25249 15.692667,-1.82606 23.255589,-4.8573 0.560797,-0.22477 0.672928,-0.16718 3.988887,2.04841 l 3.411868,2.27968 0.400733,1.57472 c 0.220401,0.8661 0.735126,2.83423 1.143833,4.37363 l 0.743109,2.7989 -2.082675,2.44552 c -1.145474,1.34503 -2.115072,2.44551 -2.154664,2.44551 -0.03959,0 -1.709769,-0.54648 -3.711506,-1.2144 -8.999403,-3.00283 -17.839192,-5.19341 -25.562136,-6.33451 -1.455209,-0.21501 -5.282219,-0.68791 -8.504465,-1.05088 -12.591423,-1.41837 -16.907949,-2.36324 -22.557171,-4.93767 -0.774327,-0.35288 -1.458593,-0.58922 -1.520587,-0.52522 -0.150323,0.1552 2.237192,2.38433 3.999299,3.734 3.555928,2.72362 12.368424,7.39656 19.228011,10.19591 10.241777,4.17959 21.589524,6.74332 32.827992,7.41663 l 2.117428,0.12686 1.993064,3.08656 c 1.096185,1.69761 1.993064,3.127 1.993064,3.17642 0,0.0494 -1.203844,2.31619 -2.67521,5.03727 -1.75409,3.24393 -2.81151,5.00369 -3.071058,5.11085 -0.217713,0.0899 -2.684034,0.59306 -5.480707,1.11817 l -5.084865,0.95475 -3.986564,-1.95122 C 55.42308,83.546696 40.425388,72.864606 26.293662,59.019736 c -1.752841,-1.71726 -3.227049,-3.05746 -3.276018,-2.97823 -0.17126,0.27711 1.634371,5.2928 2.729704,7.5826 6.117875,12.78944 15.925776,23.27331 27.981179,29.90968 3.429145,1.88771 8.598911,3.94499 11.600905,4.61653 0.597675,0.1337 1.086683,0.29946 1.086683,0.36836 0,0.0689 -1.892244,0.77882 -4.204986,1.577614 l -4.204985,1.45233 -3.401785,-0.0379 c -1.870983,-0.0208 -5.145202,-0.0862 -7.276042,-0.14527 z"
           id="path197" />
        <path
           style="fill:#000000;stroke-width:0.188988"
           d="m 44.065216,32.833096 c -2.871716,-0.51918 -5.936019,-2.02124 -7.299147,-3.5779 -1.330185,-1.51904 -2.645614,-4.99578 -3.323821,-8.78503 -0.422746,-2.36194 -0.618421,-9.663612 -0.299926,-11.191777 0.823582,-3.951631 4.790609,-7.536526 9.821619,-8.87553002 2.029672,-0.540199 5.412737,-0.536662 7.482678,0.0078 C 52.80797,1.031795 55.232244,2.34457 56.91487,3.913298 c 3.479038,3.24354 4.854011,7.109306 4.394202,12.354388 -0.170852,1.94894 -0.383241,3.21726 -1.522844,9.0939 -0.209272,1.07917 -0.53907,2.26979 -0.732882,2.64583 -1.84962,3.58868 -9.034627,5.90201 -14.98813,4.82566 z m 8.599114,-10.57969 c 2.60472,-0.88752 3.851416,-4.19327 2.510523,-6.65693 -2.090388,-3.840732 -7.659648,-3.109368 -8.808389,1.15673 -0.580422,2.15553 0.839761,4.75605 3.023674,5.5367 0.92891,0.33204 2.235309,0.31748 3.274192,-0.0365 z"
           id="path199" />
        <path
           style="fill:#000000;stroke-width:0.188988"
           d="m 49.083735,128.86582 c -1.665939,-0.37998 -3.985758,-1.6489 -5.424236,-2.96701 -3.587046,-3.28688 -5.589331,-8.93514 -5.591067,-15.77189 l -5.29e-4,-2.09696 1.349703,0.25521 c 6.401991,1.21054 14.298597,1.30033 20.817991,0.23672 1.751462,-0.28574 2.310143,-0.31887 2.418569,-0.14344 0.07755,0.12548 0.201719,1.03805 0.275934,2.02793 0.446826,5.95981 -1.405496,12.67697 -4.321273,15.67045 -2.360975,2.42389 -6.19892,3.54766 -9.52509,2.78899 z"
           id="path201" />
      </g>
      <g
         id="layer2"
         style="display:none">
        <path
           style="fill:none;stroke:#000000;stroke-width:0.26458299px;stroke-linecap:butt;stroke-linejoin:miter;stroke-opacity:1"
           d="m 106.106,97.018836 c 0.22334,-1.44936 0.83008,-2.827788 1.67826,-4.024086 0.84817,-1.196298 1.93346,-2.214389 3.13259,-3.058555 2.57869,-1.815351 5.71443,-2.830941 8.8679,-2.859003 3.15346,-0.02806 6.31048,0.933484 8.90553,2.725369 2.56269,1.769539 4.57802,4.368833 5.47902,7.349911 0.7372,2.439132 0.72379,5.048498 0.41057,7.577278 -0.31323,2.52877 -0.91743,5.01165 -1.34601,7.52345 -0.17877,1.0477 -0.33289,2.1198 -0.80181,3.0736 -0.37549,0.76375 -0.94225,1.42361 -1.59401,1.9709 -0.65176,0.54728 -1.38818,0.9861 -2.14776,1.36997 -4.90714,2.47994 -10.98757,2.59802 -15.90254,0.13363 -0.92056,-0.46157 -1.80667,-1.01331 -2.53906,-1.73725 -1.04544,-1.03338 -1.73447,-2.37353 -2.27179,-3.74177 -1.73782,-4.42519 -2.0355,-9.27756 -2.00452,-14.031652 0.005,-0.759268 0.018,-1.521366 0.13363,-2.271792 z"
           id="path34" />
        <path
           style="fill:none;stroke:#000000;stroke-width:0.26542401px;stroke-linecap:butt;stroke-linejoin:miter;stroke-opacity:1"
           d="m 102.69231,120.13798 c -4.423268,1.28588 -8.654821,3.22915 -12.512673,5.74624 -3.460734,2.25799 -6.626896,4.98328 -9.279588,8.15163 -3.136475,3.74617 -5.547152,8.12234 -6.858826,12.8288 -1.342909,4.81854 -1.514087,9.98857 -0.268976,14.8333 1.267716,4.93268 3.979888,9.44556 7.53126,13.09607 3.189422,3.27846 7.061802,5.88947 11.296891,7.6171"
           id="path46" />
        <path
           style="fill:none;stroke:#000000;stroke-width:0.26201299px;stroke-linecap:butt;stroke-linejoin:miter;stroke-opacity:1"
           d="m 88.012034,140.99387 c -1.138478,1.15601 -2.152045,2.43495 -3.017393,3.80741 -1.076858,1.70792 -1.922723,3.55848 -2.545927,5.47896 -1.017181,3.13457 -1.439609,6.46217 -1.225818,9.75071 0.338673,5.20948 2.286781,10.2775 5.374735,14.48676 1.360024,1.85388 2.933851,3.54477 4.620386,5.1075 1.056377,0.97883 2.158035,1.90879 3.300273,2.78591"
           id="path50" />
        <path
           style="fill:none;stroke:#000000;stroke-width:0.26458299px;stroke-linecap:butt;stroke-linejoin:miter;stroke-opacity:1"
           d="m 88.012033,140.99387 c -0.616082,1.25651 -1.074463,2.59023 -1.360992,3.96 -0.401739,1.92054 -0.464393,3.89843 -0.377976,5.85863 0.17009,3.85813 0.915012,7.68816 2.173361,11.33928 4.407632,12.78881 15.464414,23.07675 28.537204,26.55283"
           id="path56" />
        <path
           style="fill:none;stroke:#000000;stroke-width:0.26458299px;stroke-linecap:butt;stroke-linejoin:miter;stroke-opacity:1"
           d="m 96.289433,143.25297 c 0.337832,1.34369 0.748098,2.66917 1.228423,3.96875 0.855725,2.31528 1.932219,4.54436 3.118304,6.70908 1.44959,2.64563 3.06485,5.19986 4.8192,7.65402 2.10857,2.94968 4.4216,5.75875 6.99256,8.31548 2.99048,2.97392 6.31965,5.59593 9.82738,7.9375 1.95097,1.30236 3.96032,2.52045 6.04762,3.59077 3.84965,1.97402 7.95964,3.43959 12.18973,4.34673"
           id="path60" />
        <path
           style="fill:none;stroke:#000000;stroke-width:0.26458299px;stroke-linecap:butt;stroke-linejoin:miter;stroke-opacity:1"
           d="m 101.95908,133.52009 c 2.63534,0.84347 5.31836,1.5379 8.03199,2.07887 3.83107,0.76374 7.72125,1.22115 11.62277,1.41741 5.40086,0.27169 10.84145,0.0411 16.15848,-0.94494 3.88095,-0.71974 7.70359,-1.8473 11.24479,-3.59078 2.35668,-1.16029 4.58061,-2.58996 6.61459,-4.25223"
           id="path64" />
        <path
           style="fill:none;stroke:#000000;stroke-width:0.26458299px;stroke-linecap:butt;stroke-linejoin:miter;stroke-opacity:1"
           d="m 101.95908,133.52009 c 0.84544,0.62124 1.72967,1.18967 2.64583,1.70089 2.94956,1.64584 6.19627,2.68201 9.4494,3.59077 4.06724,1.13619 8.19227,2.09176 12.37872,2.64584 11.5735,1.53175 23.54819,-0.0847 34.30134,-4.63021"
           id="path68" />
        <path
           style="fill:none;stroke:#000000;stroke-width:0.26458299px;stroke-linecap:butt;stroke-linejoin:miter;stroke-opacity:1"
           d="m 103.75446,141.07961 c 1.43501,0.75738 2.91965,1.42073 4.44122,1.98438 3.17132,1.17477 6.48964,1.912 9.82738,2.45684 3.50925,0.57284 7.04872,0.93635 10.58334,1.32292 3.18889,0.34876 6.37707,0.71672 9.5439,1.22842 4.61935,0.7464 9.18589,1.79758 13.70163,3.02381 4.65431,1.26386 9.25794,2.71432 13.79613,4.34673"
           id="path72" />
        <path
           style="fill:none;stroke:#000000;stroke-width:0.26458299px;stroke-linecap:butt;stroke-linejoin:miter;stroke-opacity:1"
           d="m 103.75446,141.07961 c 0.9947,1.08505 2.06951,2.09664 3.2128,3.02381 2.41272,1.95663 5.11344,3.52527 7.84301,5.00819 3.3308,1.80955 6.7254,3.50529 10.20535,5.00818 11.65652,5.0341 24.25788,7.87022 36.94718,8.31548"
           id="path76" />
        <path
           style="fill:none;stroke:#000000;stroke-width:0.26458299px;stroke-linecap:butt;stroke-linejoin:miter;stroke-opacity:1"
           d="m 96.289433,143.25297 c 3.03302,3.17271 6.185817,6.23092 9.449407,9.16593 13.05398,11.73967 27.89134,21.49268 43.84523,28.82068"
           id="path80" />
        <path
           style="fill:none;stroke:#000000;stroke-width:0.26458299px;stroke-linecap:butt;stroke-linejoin:miter;stroke-opacity:1"
           d="m 111.125,195.13021 c 4.0361,0.854 8.15884,1.29799 12.28422,1.32291 4.21664,0.0255 8.43581,-0.38692 12.56771,-1.22842"
           id="path88" />
        <path
           style="fill:none;stroke:#000000;stroke-width:0.26458299px;stroke-linecap:butt;stroke-linejoin:miter;stroke-opacity:1"
           d="m 111.125,195.13021 c -0.0796,1.66903 -0.048,3.34335 0.0945,5.00818 0.37618,4.39472 1.61652,8.88317 4.53572,12.18973 2.21853,2.51292 5.43593,4.22744 8.78794,4.25223 3.17141,0.0234 6.32368,-1.52186 8.22099,-4.06324 0.71016,-0.95124 1.24621,-2.02174 1.70089,-3.1183 1.8451,-4.44991 2.37685,-9.43513 1.5119,-14.17411"
           id="path92" />
        <path
           style="fill:none;stroke:#000000;stroke-width:0.26458299px;stroke-linecap:butt;stroke-linejoin:miter;stroke-opacity:1"
           d="m 92.600398,182.41112 h 1.91789"
           id="path100" />
        <path
           style="fill:none;stroke:#000000;stroke-width:0.26458299px;stroke-linecap:butt;stroke-linejoin:miter;stroke-opacity:1"
           d="m 116.98363,188.70461 13.98512,0.37798"
           id="path104" />
        <path
           style="fill:none;stroke:#000000;stroke-width:0.26458299px;stroke-linecap:butt;stroke-linejoin:miter;stroke-opacity:1"
           d="m 130.96875,189.08259 9.5439,-3.30729"
           id="path108" />
        <path
           style="fill:none;stroke:#000000;stroke-width:0.26458299px;stroke-linecap:butt;stroke-linejoin:miter;stroke-opacity:1"
           d="m 149.58407,181.23958 10.96132,-2.07887"
           id="path112" />
        <path
           style="fill:none;stroke:#000000;stroke-width:0.26458299px;stroke-linecap:butt;stroke-linejoin:miter;stroke-opacity:1"
           d="m 160.54539,179.16071 5.57514,-10.29985"
           id="path116" />
        <path
           style="fill:none;stroke:#000000;stroke-width:0.26458299px;stroke-linecap:butt;stroke-linejoin:miter;stroke-opacity:1"
           d="m 166.12053,168.86086 -4.15773,-6.42559"
           id="path120" />
        <path
           style="fill:none;stroke:#000000;stroke-width:0.26458299px;stroke-linecap:butt;stroke-linejoin:miter;stroke-opacity:1"
           d="m 139.52006,119.87038 11.9539,3.82233"
           id="path124" />
        <path
           style="fill:none;stroke:#000000;stroke-width:0.26458299px;stroke-linecap:butt;stroke-linejoin:miter;stroke-opacity:1"
           d="m 151.47396,123.69271 4.15774,4.53571"
           id="path128" />
        <path
           style="fill:none;stroke:#000000;stroke-width:0.26458299px;stroke-linecap:butt;stroke-linejoin:miter;stroke-opacity:1"
           d="m 160.73437,136.82738 6.89807,4.63021"
           id="path132" />
        <path
           style="fill:none;stroke:#000000;stroke-width:0.26458299px;stroke-linecap:butt;stroke-linejoin:miter;stroke-opacity:1"
           d="m 167.63244,141.45759 2.36235,8.88244"
           id="path136" />
        <path
           style="fill:none;stroke:#000000;stroke-width:0.26458299px;stroke-linecap:butt;stroke-linejoin:miter;stroke-opacity:1"
           d="m 169.99479,150.34003 -4.34673,5.10268"
           id="path140" />
        <path
           style="display:inline;fill:none;stroke:#000000;stroke-width:0.26458299px;stroke-linecap:butt;stroke-linejoin:miter;stroke-opacity:1"
           d="m 124.28033,100.49334 c 1.16543,0.0168 2.31802,0.49424 3.15406,1.30638 0.83603,0.81213 1.34663,1.9504 1.39726,3.11485 0.0506,1.16446 -0.35926,2.34274 -1.12165,3.22438 -0.76239,0.88163 -1.8692,1.45726 -3.02877,1.57519 -0.31074,0.0316 -0.6247,0.0316 -0.93544,0 -1.17065,-0.11906 -2.28731,-0.70494 -3.05053,-1.60054 -0.76323,-0.8956 -1.16461,-2.09104 -1.09651,-3.26576 0.0681,-1.17472 0.60493,-2.31577 1.46653,-3.11718 0.8616,-0.80141 2.03848,-1.25433 3.21505,-1.23732 z"
           id="path38" />
        <path
           style="display:inline;fill:none;stroke:#000000;stroke-width:0.26458299px;stroke-linecap:butt;stroke-linejoin:miter;stroke-opacity:1"
           d="m 102.50323,120.13765 c 1.43319,1.77487 3.15542,3.31581 5.07812,4.54358 4.05718,2.59079 8.95221,3.73435 13.76438,3.60814 4.50665,-0.1182 9.01334,-1.34071 12.82894,-3.74177 2.01213,-1.26618 3.82332,-2.85097 5.34539,-4.67722"
           id="path42" />
      </g>
    </g>
  </g>
</svg>
