<?xml version="1.0" encoding="UTF-8"?>
<!DOCTYPE svg PUBLIC "-//W3C//DTD SVG 1.1//EN" "http://www.w3.org/Graphics/SVG/1.1/DTD/svg11.dtd">
<svg version="1.2" width="165.1mm" height="165.1mm" viewBox="0 0 16510 16510" preserveAspectRatio="xMidYMid" fill-rule="evenodd" stroke-width="28.222" stroke-linejoin="round" xmlns="http://www.w3.org/2000/svg" xmlns:ooo="http://xml.openoffice.org/svg/export" xmlns:xlink="http://www.w3.org/1999/xlink" xmlns:presentation="http://sun.com/xmlns/staroffice/presentation" xmlns:smil="http://www.w3.org/2001/SMIL20/" xmlns:anim="urn:oasis:names:tc:opendocument:xmlns:animation:1.0" xml:space="preserve">
 <defs class="ClipPathGroup">
  <clipPath id="presentation_clip_path" clipPathUnits="userSpaceOnUse">
   <rect x="0" y="0" width="16510" height="16510"/>
  </clipPath>
  <clipPath id="presentation_clip_path_shrink" clipPathUnits="userSpaceOnUse">
   <rect x="16" y="16" width="16477" height="16477"/>
  </clipPath>
 </defs>
 <defs class="TextShapeIndex">
  <g ooo:slide="id1" ooo:id-list="id3 id4 id5 id6 id7 id8 id9 id10 id11"/>
 </defs>
 <defs class="EmbeddedBulletChars">
  <g id="bullet-char-template-57356" transform="scale(0.00048828125,-0.00048828125)">
   <path d="M 580,1141 L 1163,571 580,0 -4,571 580,1141 Z"/>
  </g>
  <g id="bullet-char-template-57354" transform="scale(0.00048828125,-0.00048828125)">
   <path d="M 8,1128 L 1137,1128 1137,0 8,0 8,1128 Z"/>
  </g>
  <g id="bullet-char-template-10146" transform="scale(0.00048828125,-0.00048828125)">
   <path d="M 174,0 L 602,739 174,1481 1456,739 174,0 Z M 1358,739 L 309,1346 659,739 1358,739 Z"/>
  </g>
  <g id="bullet-char-template-10132" transform="scale(0.00048828125,-0.00048828125)">
   <path d="M 2015,739 L 1276,0 717,0 1260,543 174,543 174,936 1260,936 717,1481 1274,1481 2015,739 Z"/>
  </g>
  <g id="bullet-char-template-10007" transform="scale(0.00048828125,-0.00048828125)">
   <path d="M 0,-2 C -7,14 -16,27 -25,37 L 356,567 C 262,823 215,952 215,954 215,979 228,992 255,992 264,992 276,990 289,987 310,991 331,999 354,1012 L 381,999 492,748 772,1049 836,1024 860,1049 C 881,1039 901,1025 922,1006 886,937 835,863 770,784 769,783 710,716 594,584 L 774,223 C 774,196 753,168 711,139 L 727,119 C 717,90 699,76 672,76 641,76 570,178 457,381 L 164,-76 C 142,-110 111,-127 72,-127 30,-127 9,-110 8,-76 1,-67 -2,-52 -2,-32 -2,-23 -1,-13 0,-2 Z"/>
  </g>
  <g id="bullet-char-template-10004" transform="scale(0.00048828125,-0.00048828125)">
   <path d="M 285,-33 C 182,-33 111,30 74,156 52,228 41,333 41,471 41,549 55,616 82,672 116,743 169,778 240,778 293,778 328,747 346,684 L 369,508 C 377,444 397,411 428,410 L 1163,1116 C 1174,1127 1196,1133 1229,1133 1271,1133 1292,1118 1292,1087 L 1292,965 C 1292,929 1282,901 1262,881 L 442,47 C 390,-6 338,-33 285,-33 Z"/>
  </g>
  <g id="bullet-char-template-9679" transform="scale(0.00048828125,-0.00048828125)">
   <path d="M 813,0 C 632,0 489,54 383,161 276,268 223,411 223,592 223,773 276,916 383,1023 489,1130 632,1184 813,1184 992,1184 1136,1130 1245,1023 1353,916 1407,772 1407,592 1407,412 1353,268 1245,161 1136,54 992,0 813,0 Z"/>
  </g>
  <g id="bullet-char-template-8226" transform="scale(0.00048828125,-0.00048828125)">
   <path d="M 346,457 C 273,457 209,483 155,535 101,586 74,649 74,723 74,796 101,859 155,911 209,963 273,989 346,989 419,989 480,963 531,910 582,859 608,796 608,723 608,648 583,586 532,535 482,483 420,457 346,457 Z"/>
  </g>
  <g id="bullet-char-template-8211" transform="scale(0.00048828125,-0.00048828125)">
   <path d="M -4,459 L 1135,459 1135,606 -4,606 -4,459 Z"/>
  </g>
  <g id="bullet-char-template-61548" transform="scale(0.00048828125,-0.00048828125)">
   <path d="M 173,740 C 173,903 231,1043 346,1159 462,1274 601,1332 765,1332 928,1332 1067,1274 1183,1159 1299,1043 1357,903 1357,740 1357,577 1299,437 1183,322 1067,206 928,148 765,148 601,148 462,206 346,322 231,437 173,577 173,740 Z"/>
  </g>
 </defs>
 <g>
  <g id="id2" class="Master_Slide">
   <g id="bg-id2" class="Background"/>
   <g id="bo-id2" class="BackgroundObjects"/>
  </g>
 </g>
 <g class="SlideGroup">
  <g>
   <g id="container-id1">
    <g id="id1" class="Slide" clip-path="url(#presentation_clip_path)">
     <g class="Page">
      <g class="Graphic">
       <title>dent, pit, road, obstacle, land
       </title>
       <desc>Created with Sketch.
       </desc>
       <g id="id3">
        <rect class="BoundingBox" stroke="none" fill="none" x="4546" y="10225" width="10742" height="5186"/>
        <path fill="rgb(0,0,0)" stroke="none" d="M 4935,10325 L 6648,10325 C 7280,10325 7672,10626 8243,11356 8271,11392 8368,11516 8385,11538 8948,12259 9298,12518 9917,12518 10535,12518 10885,12259 11448,11538 11465,11516 11562,11392 11590,11356 12161,10626 12553,10325 13186,10325 L 14898,10325 C 15070,10325 15209,10503 15209,10724 L 15209,14911 C 15209,15132 15070,15310 14898,15310 L 4935,15310 C 4763,15310 4624,15132 4624,14911 L 4624,10724 C 4624,10503 4763,10325 4935,10325 L 4935,10325 Z"/>
       </g>
      </g>
      <g class="com.sun.star.drawing.LineShape">
       <g id="id4">
        <rect class="BoundingBox" stroke="none" fill="none" x="11300" y="5498" width="3918" height="5428"/>
        <path fill="none" stroke="rgb(0,0,0)" stroke-width="564" stroke-linejoin="round" stroke-linecap="round" d="M 14934,10643 L 11582,5780"/>
       </g>
      </g>
      <g class="com.sun.star.drawing.LineShape">
       <g id="id5">
        <rect class="BoundingBox" stroke="none" fill="none" x="1358" y="5498" width="10405" height="565"/>
        <path fill="none" stroke="rgb(0,0,0)" stroke-width="564" stroke-linejoin="round" stroke-linecap="round" d="M 1641,5780 L 11479,5780"/>
       </g>
      </g>
      <g class="com.sun.star.drawing.LineShape">
       <g id="id6">
        <rect class="BoundingBox" stroke="none" fill="none" x="1379" y="5598" width="3918" height="5429"/>
        <path fill="none" stroke="rgb(0,0,0)" stroke-width="564" stroke-linejoin="round" stroke-linecap="round" d="M 5013,10744 L 1661,5881"/>
       </g>
      </g>
      <g class="com.sun.star.drawing.LineShape">
       <g id="id7">
        <rect class="BoundingBox" stroke="none" fill="none" x="1268" y="9800" width="3918" height="5428"/>
        <path fill="none" stroke="rgb(0,0,0)" stroke-width="564" stroke-linejoin="round" stroke-linecap="round" d="M 4903,14945 L 1551,10082"/>
       </g>
      </g>
      <g class="com.sun.star.drawing.LineShape">
       <g id="id8">
        <rect class="BoundingBox" stroke="none" fill="none" x="1252" y="5498" width="566" height="4781"/>
        <path fill="none" stroke="rgb(0,0,0)" stroke-width="564" stroke-linejoin="round" stroke-linecap="round" d="M 1535,9996 L 1535,5780"/>
       </g>
      </g>
      <g class="com.sun.star.drawing.OpenBezierShape">
       <g id="id9">
        <rect class="BoundingBox" stroke="none" fill="none" x="6703" y="9138" width="6457" height="1695"/>
        <path fill="none" stroke="rgb(0,0,0)" stroke-width="423" stroke-linejoin="round" d="M 6915,10620 C 9137,7762 12947,10620 12947,10620"/>
       </g>
      </g>
      <g class="Graphic">
       <g id="id10">
        <rect class="BoundingBox" stroke="none" fill="none" x="8937" y="-200" width="5716" height="5642"/>
        <defs>
         <clipPath id="clip_path_1" clipPathUnits="userSpaceOnUse">
          <path d="M 8937,-200 L 14652,-200 14652,5441 8937,5441 8937,-200 Z"/>
         </clipPath>
        </defs>
        <g clip-path="url(#clip_path_1)">
         <path fill="rgb(0,0,0)" stroke="none" d="M 6714,9048 L 5569,9048 5569,8229 7860,8229 7860,9048 6714,9048 Z"/>
         <path fill="rgb(0,0,0)" stroke="none" d="M 11952,9048 L 10806,9048 10806,8229 13097,8229 13097,9048 11952,9048 Z"/>
         <path fill="rgb(0,0,0)" stroke="none" d="M 9333,9048 L 8187,9048 8187,8229 10479,8229 10479,9048 9333,9048 Z"/>
         <path fill="rgb(0,0,0)" stroke="none" d="M 9333,6756 L 8187,6756 8187,5938 10479,5938 10479,6756 9333,6756 Z"/>
         <path fill="rgb(0,0,0)" stroke="none" d="M 10642,7902 L 9497,7902 9497,7083 11788,7083 11788,7902 10642,7902 Z"/>
         <path fill="rgb(0,0,0)" stroke="none" d="M 8024,7902 L 6878,7902 6878,7083 9169,7083 9169,7902 8024,7902 Z"/>
         <path fill="rgb(0,0,0)" stroke="none" d="M 12163,2616 C 12195,2648 12237,2664 12279,2664 12321,2664 12363,2648 12395,2616 L 13261,1750 C 13388,1622 13388,1415 13261,1287 L 13165,1191 C 13037,1064 12830,1064 12702,1191 L 11836,2058 C 11772,2122 11772,2225 11836,2289 L 12163,2616 12163,2616 Z"/>
         <path fill="rgb(0,0,0)" stroke="none" d="M 9333,5303 C 9352,5303 9371,5300 9389,5294 L 11680,4455 C 11745,4431 11788,4370 11788,4301 L 11788,2828 C 11788,2738 11715,2664 11624,2664 L 10151,2664 C 10082,2664 10020,2708 9997,2773 L 9179,5085 C 9157,5145 9173,5212 9218,5256 9249,5287 9290,5303 9333,5303 L 9333,5303 Z"/>
        </g>
       </g>
      </g>
      <g class="com.sun.star.drawing.LineShape">
       <g id="id11">
        <rect class="BoundingBox" stroke="none" fill="none" x="5444" y="2669" width="4468" height="8892"/>
        <path fill="none" stroke="rgb(0,0,0)" stroke-width="635" stroke-linejoin="round" stroke-linecap="round" d="M 5762,2987 L 9383,10507"/>
        <path fill="rgb(0,0,0)" stroke="none" d="M 9911,10160 L 9890,11560 8783,10704 9911,10160 Z"/>
       </g>
      </g>
     </g>
    </g>
   </g>
  </g>
 </g>
</svg>