<?xml version="1.0" encoding="UTF-8"?>
<!DOCTYPE svg PUBLIC "-//W3C//DTD SVG 1.1//EN" "http://www.w3.org/Graphics/SVG/1.1/DTD/svg11.dtd">
<svg version="1.2" width="165.1mm" height="165.1mm" viewBox="0 0 16510 16510" preserveAspectRatio="xMidYMid" fill-rule="evenodd" stroke-width="28.222" stroke-linejoin="round" xmlns="http://www.w3.org/2000/svg" xmlns:ooo="http://xml.openoffice.org/svg/export" xmlns:xlink="http://www.w3.org/1999/xlink" xmlns:presentation="http://sun.com/xmlns/staroffice/presentation" xmlns:smil="http://www.w3.org/2001/SMIL20/" xmlns:anim="urn:oasis:names:tc:opendocument:xmlns:animation:1.0" xml:space="preserve">
 <defs class="ClipPathGroup">
  <clipPath id="presentation_clip_path" clipPathUnits="userSpaceOnUse">
   <rect x="0" y="0" width="16510" height="16510"/>
  </clipPath>
  <clipPath id="presentation_clip_path_shrink" clipPathUnits="userSpaceOnUse">
   <rect x="16" y="16" width="16477" height="16477"/>
  </clipPath>
 </defs>
 <defs class="TextShapeIndex">
  <g ooo:slide="id1" ooo:id-list="id3 id4 id5 id6 id7 id8 id9 id10 id11 id12"/>
 </defs>
 <defs class="EmbeddedBulletChars">
  <g id="bullet-char-template-57356" transform="scale(0.00048828125,-0.00048828125)">
   <path d="M 580,1141 L 1163,571 580,0 -4,571 580,1141 Z"/>
  </g>
  <g id="bullet-char-template-57354" transform="scale(0.00048828125,-0.00048828125)">
   <path d="M 8,1128 L 1137,1128 1137,0 8,0 8,1128 Z"/>
  </g>
  <g id="bullet-char-template-10146" transform="scale(0.00048828125,-0.00048828125)">
   <path d="M 174,0 L 602,739 174,1481 1456,739 174,0 Z M 1358,739 L 309,1346 659,739 1358,739 Z"/>
  </g>
  <g id="bullet-char-template-10132" transform="scale(0.00048828125,-0.00048828125)">
   <path d="M 2015,739 L 1276,0 717,0 1260,543 174,543 174,936 1260,936 717,1481 1274,1481 2015,739 Z"/>
  </g>
  <g id="bullet-char-template-10007" transform="scale(0.00048828125,-0.00048828125)">
   <path d="M 0,-2 C -7,14 -16,27 -25,37 L 356,567 C 262,823 215,952 215,954 215,979 228,992 255,992 264,992 276,990 289,987 310,991 331,999 354,1012 L 381,999 492,748 772,1049 836,1024 860,1049 C 881,1039 901,1025 922,1006 886,937 835,863 770,784 769,783 710,716 594,584 L 774,223 C 774,196 753,168 711,139 L 727,119 C 717,90 699,76 672,76 641,76 570,178 457,381 L 164,-76 C 142,-110 111,-127 72,-127 30,-127 9,-110 8,-76 1,-67 -2,-52 -2,-32 -2,-23 -1,-13 0,-2 Z"/>
  </g>
  <g id="bullet-char-template-10004" transform="scale(0.00048828125,-0.00048828125)">
   <path d="M 285,-33 C 182,-33 111,30 74,156 52,228 41,333 41,471 41,549 55,616 82,672 116,743 169,778 240,778 293,778 328,747 346,684 L 369,508 C 377,444 397,411 428,410 L 1163,1116 C 1174,1127 1196,1133 1229,1133 1271,1133 1292,1118 1292,1087 L 1292,965 C 1292,929 1282,901 1262,881 L 442,47 C 390,-6 338,-33 285,-33 Z"/>
  </g>
  <g id="bullet-char-template-9679" transform="scale(0.00048828125,-0.00048828125)">
   <path d="M 813,0 C 632,0 489,54 383,161 276,268 223,411 223,592 223,773 276,916 383,1023 489,1130 632,1184 813,1184 992,1184 1136,1130 1245,1023 1353,916 1407,772 1407,592 1407,412 1353,268 1245,161 1136,54 992,0 813,0 Z"/>
  </g>
  <g id="bullet-char-template-8226" transform="scale(0.00048828125,-0.00048828125)">
   <path d="M 346,457 C 273,457 209,483 155,535 101,586 74,649 74,723 74,796 101,859 155,911 209,963 273,989 346,989 419,989 480,963 531,910 582,859 608,796 608,723 608,648 583,586 532,535 482,483 420,457 346,457 Z"/>
  </g>
  <g id="bullet-char-template-8211" transform="scale(0.00048828125,-0.00048828125)">
   <path d="M -4,459 L 1135,459 1135,606 -4,606 -4,459 Z"/>
  </g>
  <g id="bullet-char-template-61548" transform="scale(0.00048828125,-0.00048828125)">
   <path d="M 173,740 C 173,903 231,1043 346,1159 462,1274 601,1332 765,1332 928,1332 1067,1274 1183,1159 1299,1043 1357,903 1357,740 1357,577 1299,437 1183,322 1067,206 928,148 765,148 601,148 462,206 346,322 231,437 173,577 173,740 Z"/>
  </g>
 </defs>
 <g>
  <g id="id2" class="Master_Slide">
   <g id="bg-id2" class="Background"/>
   <g id="bo-id2" class="BackgroundObjects"/>
  </g>
 </g>
 <g class="SlideGroup">
  <g>
   <g id="container-id1">
    <g id="id1" class="Slide" clip-path="url(#presentation_clip_path)">
     <g class="Page">
      <g class="Graphic">
       <title>dent, pit, road, obstacle, land
       </title>
       <desc>Created with Sketch.
       </desc>
       <g id="id3">
        <rect class="BoundingBox" stroke="none" fill="none" x="4546" y="10225" width="10742" height="5186"/>
        <path fill="rgb(0,0,0)" stroke="none" d="M 4935,10325 L 6648,10325 C 7280,10325 7672,10626 8243,11356 8271,11392 8368,11516 8385,11538 8948,12259 9298,12518 9917,12518 10535,12518 10885,12259 11448,11538 11465,11516 11562,11392 11590,11356 12161,10626 12553,10325 13186,10325 L 14898,10325 C 15070,10325 15209,10503 15209,10724 L 15209,14911 C 15209,15132 15070,15310 14898,15310 L 4935,15310 C 4763,15310 4624,15132 4624,14911 L 4624,10724 C 4624,10503 4763,10325 4935,10325 L 4935,10325 Z"/>
       </g>
      </g>
      <g class="com.sun.star.drawing.LineShape">
       <g id="id4">
        <rect class="BoundingBox" stroke="none" fill="none" x="11300" y="5498" width="3918" height="5428"/>
        <path fill="none" stroke="rgb(0,0,0)" stroke-width="564" stroke-linejoin="round" stroke-linecap="round" d="M 14934,10643 L 11582,5780"/>
       </g>
      </g>
      <g class="com.sun.star.drawing.LineShape">
       <g id="id5">
        <rect class="BoundingBox" stroke="none" fill="none" x="1379" y="5598" width="3918" height="5429"/>
        <path fill="none" stroke="rgb(0,0,0)" stroke-width="564" stroke-linejoin="round" stroke-linecap="round" d="M 5013,10744 L 1661,5881"/>
       </g>
      </g>
      <g class="com.sun.star.drawing.LineShape">
       <g id="id6">
        <rect class="BoundingBox" stroke="none" fill="none" x="1268" y="9800" width="3918" height="5428"/>
        <path fill="none" stroke="rgb(0,0,0)" stroke-width="564" stroke-linejoin="round" stroke-linecap="round" d="M 4903,14945 L 1551,10082"/>
       </g>
      </g>
      <g class="com.sun.star.drawing.LineShape">
       <g id="id7">
        <rect class="BoundingBox" stroke="none" fill="none" x="1252" y="5498" width="566" height="4781"/>
        <path fill="none" stroke="rgb(0,0,0)" stroke-width="564" stroke-linejoin="round" stroke-linecap="round" d="M 1535,9996 L 1535,5780"/>
       </g>
      </g>
      <g class="com.sun.star.drawing.OpenBezierShape">
       <g id="id8">
        <rect class="BoundingBox" stroke="none" fill="none" x="6703" y="9138" width="6457" height="1695"/>
        <path fill="none" stroke="rgb(0,0,0)" stroke-width="423" stroke-linejoin="round" d="M 6915,10620 C 9137,7762 12947,10620 12947,10620"/>
       </g>
      </g>
      <g class="Graphic">
       <g id="id9">
        <rect class="BoundingBox" stroke="none" fill="none" x="4909" y="365" width="7939" height="7837"/>
        <defs>
         <clipPath id="clip_path_1" clipPathUnits="userSpaceOnUse">
          <path d="M 4909,365 L 12847,365 12847,8201 4909,8201 4909,365 Z"/>
         </clipPath>
        </defs>
        <g clip-path="url(#clip_path_1)">
         <path fill="rgb(0,0,0)" stroke="none" d="M 1822,13211 L 230,13211 230,12074 3413,12074 3413,13211 1822,13211 Z"/>
         <path fill="rgb(0,0,0)" stroke="none" d="M 9096,13211 L 7505,13211 7505,12074 10687,12074 10687,13211 9096,13211 Z"/>
         <path fill="rgb(0,0,0)" stroke="none" d="M 5459,13211 L 3868,13211 3868,12074 7050,12074 7050,13211 5459,13211 Z"/>
         <path fill="rgb(0,0,0)" stroke="none" d="M 5459,10028 L 3868,10028 3868,8891 7050,8891 7050,10028 5459,10028 Z"/>
         <path fill="rgb(0,0,0)" stroke="none" d="M 7277,11619 L 5686,11619 5686,10483 8869,10483 8869,11619 7277,11619 Z"/>
         <path fill="rgb(0,0,0)" stroke="none" d="M 3640,11619 L 2049,11619 2049,10483 5231,10483 5231,11619 3640,11619 Z"/>
         <path fill="rgb(0,0,0)" stroke="none" d="M 9390,4277 C 9434,4322 9493,4344 9551,4344 9609,4344 9667,4322 9711,4277 L 10915,3074 C 11092,2896 11092,2608 10915,2431 L 10781,2298 C 10604,2120 10316,2120 10139,2298 L 8935,3501 C 8846,3590 8846,3734 8935,3822 L 9390,4277 9390,4277 Z"/>
         <path fill="rgb(0,0,0)" stroke="none" d="M 5459,8010 C 5485,8010 5512,8005 5537,7996 L 8720,6831 C 8809,6798 8869,6713 8869,6617 L 8869,4571 C 8869,4446 8767,4344 8641,4344 L 6595,4344 C 6499,4344 6413,4405 6381,4495 L 5244,7707 C 5215,7790 5236,7882 5299,7944 5342,7987 5400,8010 5459,8010 L 5459,8010 Z"/>
        </g>
       </g>
      </g>
      <g class="com.sun.star.drawing.LineShape">
       <g id="id10">
        <rect class="BoundingBox" stroke="none" fill="none" x="1253" y="5480" width="4157" height="565"/>
        <path fill="none" stroke="rgb(0,0,0)" stroke-width="564" stroke-linejoin="round" d="M 1535,5762 L 5127,5762"/>
       </g>
      </g>
      <g class="com.sun.star.drawing.LineShape">
       <g id="id11">
        <rect class="BoundingBox" stroke="none" fill="none" x="10243" y="5480" width="1667" height="565"/>
        <path fill="none" stroke="rgb(0,0,0)" stroke-width="564" stroke-linejoin="round" d="M 10525,5762 L 11627,5762"/>
       </g>
      </g>
      <g class="com.sun.star.drawing.LineShape">
       <g id="id12">
        <rect class="BoundingBox" stroke="none" fill="none" x="9264" y="4809" width="1253" height="6987"/>
        <path fill="none" stroke="rgb(0,0,0)" stroke-width="635" stroke-linejoin="round" d="M 9890,5127 L 9890,10626"/>
        <path fill="rgb(0,0,0)" stroke="none" d="M 10516,10543 L 9890,11795 9264,10543 10516,10543 Z"/>
       </g>
      </g>
     </g>
    </g>
   </g>
  </g>
 </g>
</svg>