<?xml version="1.0" encoding="UTF-8"?>
<!DOCTYPE svg PUBLIC "-//W3C//DTD SVG 1.1//EN" "http://www.w3.org/Graphics/SVG/1.1/DTD/svg11.dtd">
<svg version="1.2" width="215.9mm" height="279.4mm" viewBox="0 0 21590 27940" preserveAspectRatio="xMidYMid" fill-rule="evenodd" stroke-width="28.222" stroke-linejoin="round" xmlns="http://www.w3.org/2000/svg" xmlns:ooo="http://xml.openoffice.org/svg/export" xmlns:xlink="http://www.w3.org/1999/xlink" xmlns:presentation="http://sun.com/xmlns/staroffice/presentation" xmlns:smil="http://www.w3.org/2001/SMIL20/" xmlns:anim="urn:oasis:names:tc:opendocument:xmlns:animation:1.0" xml:space="preserve">
 <defs class="ClipPathGroup">
  <clipPath id="presentation_clip_path" clipPathUnits="userSpaceOnUse">
   <rect x="0" y="0" width="21590" height="27940"/>
  </clipPath>
  <clipPath id="presentation_clip_path_shrink" clipPathUnits="userSpaceOnUse">
   <rect x="21" y="27" width="21547" height="27885"/>
  </clipPath>
 </defs>
 <defs class="TextShapeIndex">
  <g ooo:slide="id1" ooo:id-list="id3 id4"/>
 </defs>
 <defs class="EmbeddedBulletChars">
  <g id="bullet-char-template-57356" transform="scale(0.00048828125,-0.00048828125)">
   <path d="M 580,1141 L 1163,571 580,0 -4,571 580,1141 Z"/>
  </g>
  <g id="bullet-char-template-57354" transform="scale(0.00048828125,-0.00048828125)">
   <path d="M 8,1128 L 1137,1128 1137,0 8,0 8,1128 Z"/>
  </g>
  <g id="bullet-char-template-10146" transform="scale(0.00048828125,-0.00048828125)">
   <path d="M 174,0 L 602,739 174,1481 1456,739 174,0 Z M 1358,739 L 309,1346 659,739 1358,739 Z"/>
  </g>
  <g id="bullet-char-template-10132" transform="scale(0.00048828125,-0.00048828125)">
   <path d="M 2015,739 L 1276,0 717,0 1260,543 174,543 174,936 1260,936 717,1481 1274,1481 2015,739 Z"/>
  </g>
  <g id="bullet-char-template-10007" transform="scale(0.00048828125,-0.00048828125)">
   <path d="M 0,-2 C -7,14 -16,27 -25,37 L 356,567 C 262,823 215,952 215,954 215,979 228,992 255,992 264,992 276,990 289,987 310,991 331,999 354,1012 L 381,999 492,748 772,1049 836,1024 860,1049 C 881,1039 901,1025 922,1006 886,937 835,863 770,784 769,783 710,716 594,584 L 774,223 C 774,196 753,168 711,139 L 727,119 C 717,90 699,76 672,76 641,76 570,178 457,381 L 164,-76 C 142,-110 111,-127 72,-127 30,-127 9,-110 8,-76 1,-67 -2,-52 -2,-32 -2,-23 -1,-13 0,-2 Z"/>
  </g>
  <g id="bullet-char-template-10004" transform="scale(0.00048828125,-0.00048828125)">
   <path d="M 285,-33 C 182,-33 111,30 74,156 52,228 41,333 41,471 41,549 55,616 82,672 116,743 169,778 240,778 293,778 328,747 346,684 L 369,508 C 377,444 397,411 428,410 L 1163,1116 C 1174,1127 1196,1133 1229,1133 1271,1133 1292,1118 1292,1087 L 1292,965 C 1292,929 1282,901 1262,881 L 442,47 C 390,-6 338,-33 285,-33 Z"/>
  </g>
  <g id="bullet-char-template-9679" transform="scale(0.00048828125,-0.00048828125)">
   <path d="M 813,0 C 632,0 489,54 383,161 276,268 223,411 223,592 223,773 276,916 383,1023 489,1130 632,1184 813,1184 992,1184 1136,1130 1245,1023 1353,916 1407,772 1407,592 1407,412 1353,268 1245,161 1136,54 992,0 813,0 Z"/>
  </g>
  <g id="bullet-char-template-8226" transform="scale(0.00048828125,-0.00048828125)">
   <path d="M 346,457 C 273,457 209,483 155,535 101,586 74,649 74,723 74,796 101,859 155,911 209,963 273,989 346,989 419,989 480,963 531,910 582,859 608,796 608,723 608,648 583,586 532,535 482,483 420,457 346,457 Z"/>
  </g>
  <g id="bullet-char-template-8211" transform="scale(0.00048828125,-0.00048828125)">
   <path d="M -4,459 L 1135,459 1135,606 -4,606 -4,459 Z"/>
  </g>
  <g id="bullet-char-template-61548" transform="scale(0.00048828125,-0.00048828125)">
   <path d="M 173,740 C 173,903 231,1043 346,1159 462,1274 601,1332 765,1332 928,1332 1067,1274 1183,1159 1299,1043 1357,903 1357,740 1357,577 1299,437 1183,322 1067,206 928,148 765,148 601,148 462,206 346,322 231,437 173,577 173,740 Z"/>
  </g>
 </defs>
 <g>
  <g id="id2" class="Master_Slide">
   <g id="bg-id2" class="Background"/>
   <g id="bo-id2" class="BackgroundObjects"/>
  </g>
 </g>
 <g class="SlideGroup">
  <g>
   <g id="container-id1">
    <g id="id1" class="Slide" clip-path="url(#presentation_clip_path)">
     <g class="Page">
      <g class="Graphic">
       <g id="id3">
        <rect class="BoundingBox" stroke="none" fill="none" x="1080" y="1000" width="10080" height="13653"/>
        <defs>
         <clipPath id="clip_path_1" clipPathUnits="userSpaceOnUse">
          <path d="M 1080,1000 L 11159,1000 11159,14652 1080,14652 1080,1000 Z"/>
         </clipPath>
        </defs>
        <g clip-path="url(#clip_path_1)">
         <path fill="rgb(0,0,0)" stroke="none" d="M 11557,5290 L 10975,4902 9223,4902 8861,5264 C 8848,5277 8833,5288 8817,5297 8785,5316 8749,5326 8712,5326 L 8376,5326 8015,5687 C 8002,5700 7987,5711 7971,5720 7939,5739 7902,5749 7865,5749 L 7230,5749 C 7193,5749 7157,5739 7124,5720 7108,5711 7094,5700 7081,5687 L 6296,4902 6025,4902 4808,5713 C 4804,5716 4801,5718 4797,5721 4764,5739 4728,5749 4691,5749 4654,5749 4617,5739 4585,5721 4581,5718 4577,5716 4573,5713 L 4031,5352 3076,5734 C 3051,5744 3025,5749 2998,5749 2961,5749 2924,5739 2892,5721 2876,5711 2861,5700 2848,5687 L 2275,5114 1940,5114 1940,8836 2213,8562 C 2226,8549 2241,8538 2257,8529 2289,8510 2326,8500 2363,8500 L 3209,8500 C 3236,8500 3263,8506 3288,8516 L 5275,9310 5811,8774 C 5824,8761 5839,8750 5855,8741 5887,8722 5923,8712 5961,8712 L 6595,8712 C 6633,8712 6669,8722 6701,8741 6717,8750 6732,8761 6745,8774 L 7106,9135 8671,9135 9691,8727 C 9716,8717 9743,8712 9770,8712 L 10828,8712 C 10851,8712 10873,8716 10895,8723 L 12767,9347 13791,9347 13791,5326 11674,5326 C 11637,5326 11601,5316 11569,5297 11565,5295 11561,5292 11557,5290 Z M 3421,7866 L 2786,7866 2786,7442 3421,7442 3421,7866 Z M 4268,6596 L 3633,6596 3633,6172 4268,6172 4268,6596 Z M 4902,7866 L 4479,7866 4479,7442 4902,7442 4902,7866 Z M 6172,6807 L 5537,6807 5537,6384 6172,6384 6172,6807 Z M 7230,8077 L 6807,8077 6807,7654 7230,7654 7230,8077 Z M 8500,6807 L 8500,6384 9135,6384 9135,6807 8500,6807 Z M 9770,7654 L 9135,7654 9135,7231 9770,7231 9770,7654 Z M 12732,7866 L 13156,7866 13156,8289 12732,8289 12732,7866 Z M 12309,7866 L 11674,7866 11674,7442 12309,7442 12309,7866 Z M 11886,6596 L 11251,6596 11251,6172 11886,6172 11886,6596 Z"/>
         <path fill="rgb(0,0,0)" stroke="none" d="M 10794,9135 L 9811,9135 8790,9544 C 8765,9554 8739,9559 8712,9559 L 7019,9559 C 6982,9559 6945,9549 6913,9530 6897,9521 6882,9510 6869,9497 L 6508,9135 6048,9135 5475,9708 C 5462,9722 5448,9733 5431,9742 5399,9761 5363,9770 5326,9770 5299,9770 5272,9765 5247,9755 L 3169,8924 2451,8924 1940,9435 1940,13792 13791,13792 13791,9770 12732,9770 C 12710,9770 12687,9767 12666,9760 L 10794,9135 Z M 2998,9770 L 3421,9770 3421,10194 2998,10194 2998,9770 Z M 5114,13369 L 4691,13369 4691,12945 5114,12945 5114,13369 Z M 5114,12099 C 5114,12099 5114,12099 5114,12099 5114,12136 5104,12172 5086,12205 5073,12227 5055,12248 5035,12264 L 3977,13111 C 3968,13117 3959,13123 3950,13129 3918,13147 3881,13157 3844,13157 L 3421,13157 C 3421,13157 3421,13157 3421,13157 3384,13157 3347,13147 3315,13129 3283,13110 3256,13083 3238,13051 3236,13048 3234,13044 3232,13040 L 2597,11770 C 2582,11741 2575,11708 2575,11675 2575,11638 2584,11602 2603,11570 2612,11554 2623,11539 2637,11526 L 3271,10891 C 3285,10878 3299,10866 3315,10857 3347,10839 3384,10829 3421,10829 L 3844,10829 C 3881,10829 3918,10839 3950,10857 3966,10866 3981,10878 3994,10891 L 4355,11252 4902,11252 C 4940,11252 4976,11262 5008,11280 5040,11299 5067,11326 5086,11358 5104,11390 5114,11427 5114,11464 L 5114,12099 Z M 12309,10405 L 12732,10405 12732,10829 12309,10829 12309,10405 Z M 7654,10405 L 8077,10405 8077,10829 7654,10829 7654,10405 Z M 5749,10405 L 5749,10405 C 5749,10368 5759,10332 5777,10300 5787,10284 5798,10269 5811,10256 L 6234,9832 C 6247,9819 6262,9808 6278,9799 6310,9780 6347,9770 6384,9770 6421,9770 6457,9780 6490,9799 6506,9808 6520,9819 6533,9832 L 7168,10467 C 7181,10481 7193,10495 7202,10511 7221,10543 7230,10580 7230,10617 7230,10654 7221,10691 7202,10723 7184,10754 7158,10780 7128,10799 L 6069,11434 C 6068,11434 6067,11435 6066,11435 6034,11454 5998,11464 5961,11464 5923,11464 5887,11454 5855,11435 5823,11417 5796,11390 5777,11358 5759,11326 5749,11289 5749,11252 L 5749,10405 Z M 6172,12945 L 5749,12945 5749,12522 6172,12522 6172,12945 Z M 9120,12599 C 9116,12609 9112,12619 9107,12628 9088,12660 9061,12687 9029,12705 9019,12711 9008,12716 8998,12720 L 7305,13355 C 7281,13364 7256,13369 7230,13369 7193,13369 7157,13359 7124,13340 7092,13322 7066,13295 7047,13263 7040,13251 7034,13238 7030,13224 L 6606,11954 C 6599,11932 6595,11910 6595,11887 6595,11850 6605,11813 6624,11781 6642,11749 6669,11722 6701,11704 6726,11690 6753,11681 6781,11677 L 8474,11465 C 8482,11464 8491,11464 8500,11464 8537,11464 8574,11474 8606,11492 8638,11511 8665,11538 8683,11570 8685,11573 8687,11577 8689,11581 L 9113,12427 C 9127,12457 9135,12489 9135,12522 9135,12549 9130,12575 9120,12599 Z M 8985,10978 C 8972,10965 8961,10951 8952,10935 8933,10902 8923,10866 8923,10829 8923,10796 8931,10764 8946,10734 L 9157,10311 C 9159,10307 9161,10303 9163,10300 9182,10267 9209,10241 9241,10222 9273,10204 9309,10194 9346,10194 9373,10194 9400,10199 9425,10209 L 10483,10632 C 10493,10636 10502,10640 10510,10646 10543,10664 10569,10691 10588,10723 10606,10755 10616,10792 10616,10829 10616,10829 10616,10829 10616,10829 L 10616,11040 10616,11040 C 10616,11078 10606,11114 10588,11146 10572,11174 10549,11199 10522,11217 L 9887,11640 C 9883,11642 9879,11645 9876,11647 9843,11666 9807,11675 9770,11675 9733,11675 9696,11666 9664,11647 9648,11638 9633,11627 9620,11613 L 8985,10978 Z M 10193,13157 L 9770,13157 9770,12734 10193,12734 10193,13157 Z M 10828,12522 L 10405,12522 10405,12099 10828,12099 10828,12522 Z M 11463,9982 L 11886,9982 11886,10405 11463,10405 11463,9982 Z M 13339,11358 C 13358,11390 13367,11427 13367,11464 L 13367,11464 13367,12734 C 13367,12734 13367,12734 13367,12734 13367,12771 13358,12807 13339,12840 13320,12872 13294,12899 13262,12917 13249,12924 13236,12930 13223,12935 L 12588,13146 C 12566,13153 12544,13157 12521,13157 12484,13157 12447,13147 12415,13129 12390,13114 12369,13095 12352,13072 L 11717,12226 C 11712,12219 11707,12212 11703,12205 11684,12172 11674,12136 11674,12099 11674,12062 11684,12025 11703,11993 11721,11961 11748,11934 11780,11915 11784,11913 11788,11911 11791,11909 L 13061,11274 C 13090,11260 13123,11252 13156,11252 13193,11252 13229,11262 13262,11281 13263,11282 13265,11283 13267,11284 13297,11302 13321,11328 13339,11358 Z"/>
         <path fill="rgb(0,0,0)" stroke="none" d="M 4118,11613 L 3757,11252 3509,11252 3044,11717 3552,12734 3770,12734 4691,11997 4691,11675 4268,11675 4268,11675 C 4230,11675 4194,11666 4162,11647 4146,11638 4131,11627 4118,11613 L 4118,11613 Z"/>
         <path fill="rgb(0,0,0)" stroke="none" d="M 7089,12065 L 7362,12882 8629,12406 8378,11904 7089,12065 7089,12065 Z"/>
         <path fill="rgb(0,0,0)" stroke="none" d="M 11463,1964 L 10711,2340 C 10682,2355 10649,2362 10616,2362 10593,2362 10571,2359 10549,2351 L 9312,1939 8550,1939 7325,2552 C 7296,2566 7263,2574 7230,2574 7197,2574 7165,2566 7136,2552 L 5911,1939 5152,1939 3495,2560 C 3472,2569 3446,2574 3421,2574 3384,2574 3347,2564 3315,2546 3314,2545 3313,2544 3312,2544 L 2338,1959 1940,2091 1940,4691 2363,4691 C 2400,4691 2437,4700 2469,4719 2485,4728 2500,4739 2513,4753 L 3049,5289 3977,4917 C 4002,4907 4029,4902 4056,4902 4093,4902 4130,4912 4162,4931 4166,4933 4170,4935 4173,4938 L 4691,5283 5843,4514 C 5847,4512 5851,4510 5855,4507 5887,4489 5923,4479 5961,4479 L 6384,4479 C 6421,4479 6457,4489 6490,4507 6506,4516 6520,4528 6533,4541 L 7318,5326 7778,5326 8139,4964 C 8152,4951 8167,4940 8183,4931 8215,4912 8251,4902 8288,4902 L 8624,4902 8985,4541 C 8998,4528 9013,4516 9029,4507 9061,4489 9098,4479 9135,4479 L 11039,4479 C 11077,4479 11113,4489 11145,4507 11149,4510 11153,4512 11157,4514 L 11738,4902 13791,4902 13791,1998 12361,2356 C 12344,2360 12327,2362 12309,2362 12276,2362 12244,2355 12215,2340 L 11463,1964 Z M 2998,4267 L 2363,4267 2363,3844 2998,3844 2998,4267 Z M 4289,3389 L 3866,3389 3866,2965 4289,2965 4289,3389 Z M 6595,2997 L 7019,2997 7019,3421 6595,3421 6595,2997 Z M 7442,4479 L 7019,4479 7019,4056 7442,4056 7442,4479 Z M 9770,3209 L 9135,3209 9135,2786 9770,2786 9770,3209 Z M 10616,3844 L 10193,3844 10193,3421 10616,3421 10616,3844 Z M 12944,4479 L 12521,4479 12521,4056 12944,4056 12944,4479 Z M 12732,3209 L 12309,3209 12309,2786 12732,2786 12732,3209 Z"/>
         <path fill="rgb(0,0,0)" stroke="none" d="M 10151,10955 L 9449,10674 9392,10787 9797,11191 10151,10955 10151,10955 Z"/>
         <path fill="rgb(0,0,0)" stroke="none" d="M 6384,10281 L 6172,10493 6172,10878 6677,10575 6384,10281 6384,10281 Z"/>
         <path fill="rgb(0,0,0)" stroke="none" d="M 12944,12581 L 12944,11806 12207,12175 12599,12696 12944,12581 12944,12581 Z"/>
        </g>
       </g>
      </g>
      <g class="com.sun.star.drawing.LineShape">
       <g id="id4">
        <rect class="BoundingBox" stroke="none" fill="none" x="11477" y="10689" width="2846" height="1577"/>
        <path fill="none" stroke="rgb(0,0,0)" stroke-width="610" stroke-linejoin="round" d="M 14017,11477 L 12947,11477"/>
        <path fill="rgb(0,0,0)" stroke="none" d="M 13052,12265 L 11477,11477 13052,10690 13052,12265 Z"/>
       </g>
      </g>
     </g>
    </g>
   </g>
  </g>
 </g>
</svg>